<svg xmlns="http://www.w3.org/2000/svg" xmlns:xlink="http://www.w3.org/1999/xlink" width="445" height="468" viewBox="0 0 445 468">
  <defs>
    <clipPath id="clip-path">
      <rect id="Rectángulo_339555" data-name="Rectángulo 339555" width="228.581" height="377.227" fill="none"/>
    </clipPath>
    <clipPath id="clip-path-3">
      <rect id="Rectángulo_339545" data-name="Rectángulo 339545" width="8.889" height="1.585" transform="translate(197.361 149.309)" fill="none"/>
    </clipPath>
    <clipPath id="clip-path-4">
      <rect id="Rectángulo_339546" data-name="Rectángulo 339546" width="7.924" height="65.295" transform="translate(153.592 147.733)" fill="none"/>
    </clipPath>
    <clipPath id="clip-path-5">
      <rect id="Rectángulo_339547" data-name="Rectángulo 339547" width="7.671" height="15.509" transform="translate(43.233 302.958)" fill="none"/>
    </clipPath>
    <clipPath id="clip-path-6">
      <rect id="Rectángulo_339548" data-name="Rectángulo 339548" width="11.274" height="24.301" transform="translate(69.75 149.499)" fill="none"/>
    </clipPath>
    <clipPath id="clip-path-7">
      <rect id="Rectángulo_339550" data-name="Rectángulo 339550" width="16.162" height="11.279" transform="translate(100.016 98.689)" fill="none"/>
    </clipPath>
    <clipPath id="clip-path-8">
      <rect id="Rectángulo_339551" data-name="Rectángulo 339551" width="68.646" height="32.545" transform="translate(89.688 74.545)" fill="none"/>
    </clipPath>
    <clipPath id="clip-path-9">
      <rect id="Rectángulo_339552" data-name="Rectángulo 339552" width="7.658" height="17.184" transform="translate(133.814 61.728)" fill="none"/>
    </clipPath>
    <clipPath id="clip-path-10">
      <rect id="Rectángulo_339553" data-name="Rectángulo 339553" width="9.887" height="11.636" transform="translate(67.18 62.827)" fill="none"/>
    </clipPath>
  </defs>
  <g id="Grupo_984625" data-name="Grupo 984625" transform="translate(-285 -804)">
    <rect id="Rectángulo_339609" data-name="Rectángulo 339609" width="445" height="468" transform="translate(285 804)" fill="#d5d6f0"/>
    <g id="Grupo_984477" data-name="Grupo 984477" transform="translate(-30 -6)">
      <rect id="Rectángulo_339119" data-name="Rectángulo 339119" width="309" height="184" rx="18" transform="translate(326 889)" fill="#3c3fa7"/>
      <rect id="Rectángulo_339557" data-name="Rectángulo 339557" width="295" height="179" rx="18" transform="translate(455 1029)" fill="#fed947"/>
      <g id="Grupo_984474" data-name="Grupo 984474" transform="translate(423.709 855)">
        <g id="Grupo_984473" data-name="Grupo 984473" clip-path="url(#clip-path)">
          <g id="Grupo_984472" data-name="Grupo 984472">
            <g id="Grupo_984471" data-name="Grupo 984471" clip-path="url(#clip-path)">
              <path id="Trazado_212438" data-name="Trazado 212438" d="M70.9,13.9c-18.745,12.31-9.792,40.567-22.382,60.152S18.585,95.032,15.787,105.943s1.959,12.31,1.959,12.31-6.995,8.114-5.036,14.828,9.232,8.674,9.232,8.674S-8.553,175.048,2.358,193.513,21.1,206.383,21.1,206.383s-6.715,35.252,16.787,39.448,38.609-2.8,49.52-13.149c0,0,15.108,14.548,40.288,11.191s20.423-42.246,20.423-42.246,16.563,9.512,26.076-5.316-7.344-40.288-7.344-40.288,10.365-.839,12.6-13.989-11.191-18.745-20.144-27.7S139.673,72.053,139.561,57.8,118.085-17.088,70.9,13.9" fill="#2c1f30"/>
              <path id="Trazado_212439" data-name="Trazado 212439" d="M85.661,222.749l73.021-1.259s10.413,34.8,7.554,67.356c-3.746,42.672-14.977,83.645-21.062,87s-23.291-.21-26.019-2.308,10.99-92.248,9.312-93.717-5.666-1.469-6.5-.629-6.323,92.861-7.633,94.346c-3.148,3.567-23.926,4.223-28.332.656S72.537,319.7,72.861,266.6c.13-21.209,12.8-43.855,12.8-43.855" fill="#72cfe8"/>
              <path id="Trazado_212440" data-name="Trazado 212440" d="M203.979,159.308a51.159,51.159,0,0,1,16.6-4.832c4.763-.513,5.146-1.65,1.034-2.524-3.632-.706-6.938-.317-7.147-.886-.1-.271,2.511-.687,6.348-.873,3.945-.186,6.808-.186,6.773-1.55-.071-1.569-10.908-2.47-13.657-1.7-2.873.336,7.887-2.381,11.841-2.222,4.345-.1,3.663-2.279-2.158-2.88-5.81-.476-10.482.814-11.975.641.89-.744,2.143-1.6,7.806-2.908,4.24-.788,3.152-2.57-1.479-2.594-5.59-.065-12.435,3.776-13.683,2.812-.5-1.153,1.287-2.154,3.347-5.993,2.084-3.767-2.912-.946-6.2,2.506-3.44,3.465-7.749,7.157-9.978,10.922-3.025,5.035-4.091,9.522-2.1,13.182,2.142,3.9,4.693,4.4,14.622-1.1" fill="#e29a8f"/>
              <g id="Grupo_984449" data-name="Grupo 984449" opacity="0.5">
                <g id="Grupo_984448" data-name="Grupo 984448">
                  <g id="Grupo_984447" data-name="Grupo 984447" clip-path="url(#clip-path-3)">
                    <path id="Trazado_212441" data-name="Trazado 212441" d="M206.152,149.791a1,1,0,0,0-.422-.216,3.771,3.771,0,0,0-.552-.166,10.68,10.68,0,0,0-1.088-.087c-.725-.028-1.455-.006-2.18.036s-1.425.1-2.128.208a8.038,8.038,0,0,0-2.151.5.427.427,0,0,0,.184.823,15.715,15.715,0,0,0,2.068-.225c.71-.077,1.418-.15,2.131-.185.7-.034,1.39-.032,2.087-.023.346,0,.692.011,1.039,0,.179,0,.334-.061.509-.079a1.047,1.047,0,0,0,.484-.155.279.279,0,0,0,.019-.439" fill="#bc4a60"/>
                  </g>
                </g>
              </g>
              <path id="Trazado_212442" data-name="Trazado 212442" d="M135.811,120.246c-8.07,3.135-6.476,13.482-2.892,29.013,2.847,12.343,22.018,68.927,38.7,70.552,11.722,1.142,28.271-51.97,30.449-59.924-3.27-.916-6.7-.873-12.91-5.46-2.813,4.533-15.157,25.934-17.749,32.86-1.678-7.134-11.19-32.989-16.01-46.623-3.395-9.6-11.521-23.553-19.591-20.418" fill="#ff9650"/>
              <path id="Trazado_212443" data-name="Trazado 212443" d="M110.635,115.77c8.258,0,19.593.378,26.532,3.517a47.045,47.045,0,0,1-5.356,23.707,21.333,21.333,0,0,1-8.054,8.972c-7.969,4.511-16.826.693-22.306-5.977-4.089-4.978-7.127-10.961-9.8-16.842-1.438-3.161-2.908-6.327-4.214-9.551a81.589,81.589,0,0,1,23.2-3.826" fill="#e29a8f"/>
              <path id="Trazado_212444" data-name="Trazado 212444" d="M160.779,222.959a.775.775,0,0,1-.042.252c-.524,2.067-7.313,9.044-35.21,10.449-23.06,1.165-36.93-3.053-41.84-6.011-1.3-.787-1.973-1.48-2.015-1.962-.062-.693.745-3.106,1.816-6.379.807-2.455,1.752-5.382,2.57-8.425a65.717,65.717,0,0,0,1.731-8.11c.5-3.661.451-6.966-.661-9.19-.126-.252-.262-.525-.409-.808-.965-1.994-2.277-4.784-3.725-8.068-1.332-3.022-2.78-6.463-4.175-10.083-1.039-2.7-2.067-5.476-2.99-8.257a110.551,110.551,0,0,1-3.137-11.121A42.735,42.735,0,0,1,71.6,146.58v-.3a46.815,46.815,0,0,1,1.028-10.334,23.3,23.3,0,0,1,3.84-8.7c3.263-4.438,8.592-7.816,17.1-9.547,0,0,1.784,4.333,4.553,9.9,1.333,2.7,2.906,5.686,4.617,8.624a67.819,67.819,0,0,0,7.155,10.334c3.189,3.641,6.442,5.865,9.337,5.057,2.644-.745,4.669-3.21,6.2-6.484a46.466,46.466,0,0,0,3.273-10.963c.619-3.3,1.007-6.537,1.249-9.191.346-3.724.4-6.305.4-6.305l13.01,3.913s.021.042.052.115c.273.651,1.679,4,3.536,8.729,1.07,2.749,2.3,5.97,3.536,9.4,1.028,2.864,2.067,5.865,3.042,8.865,1.018,3.179,1.973,6.348,2.739,9.338a70.591,70.591,0,0,1,1.783,8.8,24.34,24.34,0,0,1,.21,4.134,30.986,30.986,0,0,1-.787,5.9v.011c-.9,3.829-2.308,5.718-2.927,9.064-.451,2.476-.462,5.739.483,11.174.021.168.052.336.084.5.545,3.032,1.08,5.717,1.594,8.089.714,3.3,1.385,6.011,1.962,8.2,1.259,4.742,2.109,7.113,2.109,8.047" fill="#658ee5"/>
              <path id="Trazado_212445" data-name="Trazado 212445" d="M153.529,149.7c-13.618,3.074-27.876,4.522-41.337,5.456a272.772,272.772,0,0,1-39.5.094A42.735,42.735,0,0,1,71.6,146.58v-.3a298.975,298.975,0,0,0,38.295.283c3.189,3.641,6.441,5.865,9.337,5.057,2.644-.745,4.669-3.21,6.2-6.484q8.309-.992,16.545-2.507c2.854-.535,5.686-1.144,8.509-1.794,1.028,2.864,2.066,5.864,3.042,8.865" fill="#fff"/>
              <path id="Trazado_212446" data-name="Trazado 212446" d="M102.739,136.225a262.214,262.214,0,0,1-30.111-.283,23.311,23.311,0,0,1,3.84-8.7c7.208.346,14.416.514,21.655.357,1.332,2.7,2.906,5.686,4.616,8.624" fill="#fff"/>
              <path id="Trazado_212447" data-name="Trazado 212447" d="M146.951,131.43c-6.033,1.166-12.16,2.047-18.245,2.739.619-3.3,1.007-6.536,1.249-9.19q5.4-.756,10.764-1.743c.9-.168,1.805-.345,2.7-.534.273.65,1.679,4,3.536,8.728" fill="#fff"/>
              <path id="Trazado_212448" data-name="Trazado 212448" d="M158.051,167.836c-16.031,3.21-32.723,4.7-48.649,5.812q-15.282,1.071-30.583.976c-1.039-2.7-2.067-5.477-2.991-8.257q15.8.143,31.57-.913,17.5-1.179,34.832-3.839c4.7-.735,9.379-1.637,14.038-2.581a70.959,70.959,0,0,1,1.783,8.8" fill="#fff"/>
              <path id="Trazado_212449" data-name="Trazado 212449" d="M157.474,177.877c-.9,3.829-2.308,5.718-2.927,9.065-14.1,2.266-28.422,3.556-42.565,4.6q-12.621.929-25.263,1.238c-.965-1.993-2.277-4.784-3.725-8.068q13.66-.283,27.3-1.259c15.853-1.122,31.486-3.357,47.181-5.571" fill="#fff"/>
              <path id="Trazado_212450" data-name="Trazado 212450" d="M156.708,206.708a317.962,317.962,0,0,1-38.661,4.018c-10.67.567-21.34.6-31.989.158a65.757,65.757,0,0,0,1.731-8.11q14.068.471,28.149-.21a378.843,378.843,0,0,0,39.091-4.449c.021.168.053.336.084.5.546,3.032,1.081,5.718,1.595,8.089" fill="#fff"/>
              <path id="Trazado_212451" data-name="Trazado 212451" d="M160.779,222.959a.775.775,0,0,1-.042.252,303.675,303.675,0,0,1-77.05,4.438c-1.3-.787-1.973-1.48-2.015-1.962-.062-.693.745-3.106,1.816-6.379a378.671,378.671,0,0,0,75.182-4.4c1.259,4.742,2.109,7.113,2.109,8.047" fill="#fff"/>
              <path id="Trazado_212452" data-name="Trazado 212452" d="M63.7,141.2c-.988,14.525,15.877,63.789,13.919,72.182s-13.15,71.063-13.429,74.98,26.578,9.792,34.412,1.119,6.994-61.83,6.155-92.046-6-76.154-7.117-80.351c.432-2.589-32.5,2.974-33.94,24.116" fill="#ff9650"/>
              <path id="Trazado_212453" data-name="Trazado 212453" d="M113.689,115.745c4.686,2.483,20.529,13.194,27.517,45.385s7.985,114.04,7.735,119.031,11.479,3.244,18.716-.25-6.488-67.376-8.734-81.6,3.993-21.21.5-33.687-10.016-41.207-20.778-45.112c-11.086-4.022-25.2-4.765-24.955-3.767" fill="#ff9650"/>
              <g id="Grupo_984452" data-name="Grupo 984452" opacity="0.5" style="mix-blend-mode: multiply;isolation: isolate">
                <g id="Grupo_984451" data-name="Grupo 984451">
                  <g id="Grupo_984450" data-name="Grupo 984450" clip-path="url(#clip-path-4)">
                    <path id="Trazado_212454" data-name="Trazado 212454" d="M160.042,204.974a54.669,54.669,0,0,1-.916-6.408,56.328,56.328,0,0,1,.38-12.786c.627-4.3,1.649-8.567,1.746-12.929a38.222,38.222,0,0,0-1.853-12.082c-.7-2.266-1.546-4.485-2.458-6.673a47.869,47.869,0,0,0-3.01-6.279c-.1-.171-.4-.061-.33.139.628,1.939,1.481,3.8,2.276,5.669.835,1.968,1.618,3.96,2.3,5.988a40.332,40.332,0,0,1,2.347,12.145c.069,4.459-.946,8.82-1.612,13.2a55.138,55.138,0,0,0-.515,12.516,54.194,54.194,0,0,0,.962,6.806c.482,2.317,1.966,8.849,2.141,8.744s-1.036-5.984-1.457-8.053" fill="#b26167"/>
                  </g>
                </g>
              </g>
              <path id="Trazado_212455" data-name="Trazado 212455" d="M29.123,298.3c-1.716,5.91-4.765,12.748-1.758,16,2.628,2.844,3.352,1.4,5.17,2.454,1.952,1.128,3.647,1.7,5.456,1.186,2.144-.605,2.174,1.794,5.63.262,1.97-.873,4.029,0,5.353-2.4s1.437-15.094.271-21.385-16.776-7.643-20.122,3.879" fill="#e29a8f"/>
              <path id="Trazado_212456" data-name="Trazado 212456" d="M47.04,312.292c-6.276,5.237-5.005,10.97-1.631,7.659s5.069-3.533,7.266-6.341c3.416-4.365-.1-13.841-4.544-18.033-4.578-4.321-5.606,7.074-1.091,16.715" fill="#e29a8f"/>
              <g id="Grupo_984455" data-name="Grupo 984455" opacity="0.5">
                <g id="Grupo_984454" data-name="Grupo 984454">
                  <g id="Grupo_984453" data-name="Grupo 984453" clip-path="url(#clip-path-5)">
                    <path id="Trazado_212457" data-name="Trazado 212457" d="M50.336,312.066a29.226,29.226,0,0,0,.548-5.9,6.551,6.551,0,0,0-.337-3.092.22.22,0,0,0-.4.036,10.909,10.909,0,0,0-.169,2.642,33.822,33.822,0,0,1-.328,5.434,10.22,10.22,0,0,1-2.01,5.244c-1.17,1.3-2.969.889-4.336,1.781a.138.138,0,0,0,.093.257c1.585-.268,3.337-.138,4.588-1.322a9.738,9.738,0,0,0,2.353-5.077" fill="#bc4a60"/>
                  </g>
                </g>
              </g>
              <path id="Trazado_212458" data-name="Trazado 212458" d="M81.674,122.03C70.4,120.2,45.163,154.064,36.491,203.864a645.707,645.707,0,0,0-8.954,94.844l24.061.56s-1.4-62.95,9.233-98.761,19.584-51.2,25.18-58.473,6.015-18.325-4.337-20" fill="#ff9650"/>
              <g id="Grupo_984458" data-name="Grupo 984458" opacity="0.5" style="mix-blend-mode: multiply;isolation: isolate">
                <g id="Grupo_984457" data-name="Grupo 984457">
                  <g id="Grupo_984456" data-name="Grupo 984456" clip-path="url(#clip-path-6)">
                    <path id="Trazado_212459" data-name="Trazado 212459" d="M80.59,149.6a55.2,55.2,0,0,0-6.215,11.241q-1.286,2.879-2.376,5.838c-.356.968-.685,1.946-1,2.928a22.166,22.166,0,0,0-1.248,4.178c-.008.307,2.7-5.874,3.071-6.88q1.1-2.964,2.39-5.849c1.734-3.849,3.907-7.448,5.782-11.22a.234.234,0,0,0-.4-.236" fill="#b26167"/>
                  </g>
                </g>
              </g>
              <rect id="Rectángulo_339549" data-name="Rectángulo 339549" width="21.675" height="15.654" transform="translate(99.04 120.311) rotate(-85.971)" fill="#e29a8f"/>
              <g id="Grupo_984461" data-name="Grupo 984461" opacity="0.4">
                <g id="Grupo_984460" data-name="Grupo 984460">
                  <g id="Grupo_984459" data-name="Grupo 984459" clip-path="url(#clip-path-7)">
                    <path id="Trazado_212460" data-name="Trazado 212460" d="M104.938,108.241c-1.592-.543-3.168-1.149-4.751-1.718l-.172-.061.548-7.772,15.615,1.1-.715,10.155a28.653,28.653,0,0,1-10.525-1.7" fill="#bc4a60"/>
                  </g>
                </g>
              </g>
              <path id="Trazado_212461" data-name="Trazado 212461" d="M158.334,74.545c-.881,13.062-4.428,20.836-10.02,25.61-4.616,3.955-10.617,5.875-17.678,7.05a40.559,40.559,0,0,1-13.786-.115c-9.736-1.731-19.252-6.914-27.162-15.244-8.131-8.572-14.573-20.48-17.794-35.357-9.957-60.914,78.382-72.56,85.506-7.575q.536,4.879.819,9.222c.031.535.062,1.07.094,1.595a120.1,120.1,0,0,1,.021,14.814" fill="#e29a8f"/>
              <g id="Grupo_984464" data-name="Grupo 984464" opacity="0.3">
                <g id="Grupo_984463" data-name="Grupo 984463">
                  <g id="Grupo_984462" data-name="Grupo 984462" clip-path="url(#clip-path-8)">
                    <path id="Trazado_212462" data-name="Trazado 212462" d="M116.85,107.09c-9.736-1.731-19.252-6.914-27.163-15.244a14.4,14.4,0,0,1,5.634-10.828c6.778-5.13,17.007-3.388,22.83,3.9,5.7,7.134,5.067,16.923-1.3,22.169" fill="#fc6b7f"/>
                    <path id="Trazado_212463" data-name="Trazado 212463" d="M158.334,74.545c-.881,13.062-4.428,20.836-10.02,25.61-3.766-2.906-4.437-9.8-1.332-16.272,2.633-5.487,7.187-9.065,11.352-9.338" fill="#fc6b7f"/>
                  </g>
                </g>
              </g>
              <path id="Trazado_212464" data-name="Trazado 212464" d="M65.867,19.352C77.274,1.593,99.518-.46,104.053,2.644c0,0,5.38-4.686,18.748-1.582s22.662,10.456,27.838,18.989c3,4.95,4.337,9.793,2.938,13.29a26.476,26.476,0,0,0-12.45-13.989,29.837,29.837,0,0,0-17.18-3.181s-4.933-6.525-11.3-8.435a29.947,29.947,0,0,1,9.31,8.754S98.141,19.322,93.53,41.14c-4.3,20.353-3.008,22.452-8.184,23.291s-7.728-8.009-14.863-3.952S53.557,38.517,65.867,19.352" fill="#2c1f30"/>
              <path id="Trazado_212465" data-name="Trazado 212465" d="M135.019,83.165c-3.8.431-6.087-2.126-8.508.812-1.93,2.341,1.137,6.807,8.866,5.745,7.5-1.031,7.454-6.25,5.644-7.5s-2.173.506-6,.939" fill="#bc4a60"/>
              <path id="Trazado_212466" data-name="Trazado 212466" d="M127.547,85.942a9.559,9.559,0,0,1,6.136.917,4.536,4.536,0,0,1,2.542,2.708c-.277.055-.547.113-.849.155-5.352.735-8.465-1.18-9.234-3.205a4.189,4.189,0,0,1,1.4-.575" fill="#fc6b7f"/>
              <path id="Trazado_212467" data-name="Trazado 212467" d="M108.279,43.871a12.352,12.352,0,0,1,3.243-2.484,11.687,11.687,0,0,1,3.783-1.279c1.255-.178,2.892-.327,4.015.387a.505.505,0,0,1-.141.911,8.693,8.693,0,0,1-1.711.219,13.753,13.753,0,0,0-1.722.29,12.471,12.471,0,0,0-3.319,1.286,11.447,11.447,0,0,0-2.716,2.151c-.731.778-1.4,2.073-2.435,2.443a.518.518,0,0,1-.615-.373c-.405-1.22.86-2.725,1.618-3.551" fill="#2c1f30"/>
              <path id="Trazado_212468" data-name="Trazado 212468" d="M150.682,40.8a8.534,8.534,0,0,0-2.793-1.764,6.953,6.953,0,0,0-3.031-.474,4.105,4.105,0,0,0-2.972,1.2c-.252.313-.092.821.234.862a5.144,5.144,0,0,0,1.32-.137,8.228,8.228,0,0,1,1.339-.07,7.478,7.478,0,0,1,2.683.577,7.986,7.986,0,0,1,2.348,1.546c.661.611,1.346,1.741,2.179,1.89.22.039.384-.242.41-.491.135-1.276-1.03-2.489-1.717-3.142" fill="#2c1f30"/>
              <path id="Trazado_212469" data-name="Trazado 212469" d="M116.132,66.857c.165,2.126-.968,3.948-2.531,4.069s-2.964-1.5-3.13-3.629.968-3.947,2.531-4.069,2.964,1.5,3.13,3.629" fill="#2c1f30"/>
              <path id="Trazado_212470" data-name="Trazado 212470" d="M150.717,64.166c.154,1.986-.9,3.689-2.365,3.8s-2.769-1.4-2.924-3.391.9-3.688,2.365-3.8,2.769,1.4,2.924,3.391" fill="#2c1f30"/>
              <path id="Trazado_212471" data-name="Trazado 212471" d="M104.514,80.46a7.615,7.615,0,0,1-7.69-6.974L96.019,61.4a7.256,7.256,0,0,1,1.82-5.3,7.746,7.746,0,0,1,5.386-2.612l15.18-.934a7.65,7.65,0,0,1,8.186,6.959L127.4,71.6a7.256,7.256,0,0,1-1.82,5.3,7.745,7.745,0,0,1-5.386,2.611l-15.18.935c-.166.01-.331.015-.5.015M118.9,54.1c-.132,0-.264,0-.4.012l-15.18.935a6.188,6.188,0,0,0-4.3,2.08,5.7,5.7,0,0,0-1.431,4.16l.8,12.091a6.054,6.054,0,0,0,6.521,5.493l15.18-.934a6.188,6.188,0,0,0,4.3-2.08,5.7,5.7,0,0,0,1.431-4.161l-.8-12.091A6.04,6.04,0,0,0,118.9,54.1" fill="#b26167"/>
              <path id="Trazado_212472" data-name="Trazado 212472" d="M147.271,77.741a7.616,7.616,0,0,1-7.691-6.974l-.8-12.091a7.252,7.252,0,0,1,1.82-5.3,7.742,7.742,0,0,1,5.386-2.612l11.443-.7a7.637,7.637,0,0,1,8.187,6.959l.8,12.091a7.256,7.256,0,0,1-1.82,5.3,7.745,7.745,0,0,1-5.387,2.611l-11.442.7c-.166.01-.331.015-.5.015m10.648-26.127c-.132,0-.264,0-.4.012l-11.443.705a6.188,6.188,0,0,0-4.3,2.08,5.691,5.691,0,0,0-1.431,4.16l.8,12.091a6.057,6.057,0,0,0,6.52,5.493l11.443-.7a6.188,6.188,0,0,0,4.3-2.08,5.7,5.7,0,0,0,1.431-4.161l-.8-12.09a6.042,6.042,0,0,0-6.123-5.506" fill="#b26167"/>
              <path id="Trazado_212473" data-name="Trazado 212473" d="M126.368,65.538a.788.788,0,0,1-.616-1.278,12.846,12.846,0,0,1,8.42-4.383c5.586-.457,6.391,3.474,6.4,3.514a.787.787,0,0,1-1.544.3c-.028-.124-.643-2.583-4.726-2.249a11.348,11.348,0,0,0-7.317,3.795.787.787,0,0,1-.616.3" fill="#b26167"/>
              <path id="Trazado_212474" data-name="Trazado 212474" d="M96.993,63.972c-.026,0-.051,0-.077,0l-25.18-2.424a.787.787,0,0,1,.152-1.566L97.068,62.4a.787.787,0,0,1-.075,1.57" fill="#b26167"/>
              <path id="Trazado_212475" data-name="Trazado 212475" d="M165.762,59.846a.792.792,0,0,1-.787.693.275.275,0,0,1-.094-.011l-6.568-.8c-.031-.525-.063-1.06-.094-1.595l6.851.839a.788.788,0,0,1,.692.871" fill="#b26167"/>
              <g id="Grupo_984467" data-name="Grupo 984467" opacity="0.5">
                <g id="Grupo_984466" data-name="Grupo 984466">
                  <g id="Grupo_984465" data-name="Grupo 984465" clip-path="url(#clip-path-9)">
                    <path id="Trazado_212476" data-name="Trazado 212476" d="M134.02,78.155a18.437,18.437,0,0,1,3.292-1.009,25.826,25.826,0,0,0,2.656-1.054,12.308,12.308,0,0,1-3.262-5.392,42.678,42.678,0,0,1-1.6-8.622.3.3,0,0,1,.577-.123c.577,2.608,1,5.292,1.775,7.849a11.494,11.494,0,0,0,3.787,5.986.534.534,0,0,1-.053.91,28.829,28.829,0,0,1-3.43,1.409,8.937,8.937,0,0,1-3.586.782.393.393,0,0,1-.154-.736" fill="#bc4a60"/>
                  </g>
                </g>
              </g>
              <path id="Trazado_212477" data-name="Trazado 212477" d="M81.973,78.064c-1.378,3.98-7.878,5.411-13.13,1.83S59.771,65.491,63.67,59.6s13.181-3.268,16.712,3.741c2.665,5.291,2.665,11.618,1.591,14.721" fill="#e29a8f"/>
              <g id="Grupo_984470" data-name="Grupo 984470" opacity="0.5">
                <g id="Grupo_984469" data-name="Grupo 984469">
                  <g id="Grupo_984468" data-name="Grupo 984468" clip-path="url(#clip-path-10)">
                    <path id="Trazado_212478" data-name="Trazado 212478" d="M67.292,63.551a.4.4,0,0,1,.173-.655c1.243-.308,2.628.474,3.662,1.1a12.677,12.677,0,0,1,3.066,2.561A11.339,11.339,0,0,1,77.065,74c-.011.508-.8.656-.916.124a14.065,14.065,0,0,0-3.055-6.6c-.223-.252-.477-.471-.719-.7-.1.123-.214.236-.313.351-.179.207-.363.408-.54.617a11.043,11.043,0,0,0-.955,1.357c-.587.959-.943,2.046-1.6,2.96-.123.17-.471.2-.512-.067a5.354,5.354,0,0,1,1.019-3.533,10.725,10.725,0,0,1,1.133-1.506,5.9,5.9,0,0,1,.643-.642c.106-.089.212-.177.321-.257a11.289,11.289,0,0,0-1.182-.848c-.985-.6-2.265-.9-3.1-1.709" fill="#bc4a60"/>
                  </g>
                </g>
              </g>
            </g>
          </g>
        </g>
      </g>
      <g id="Grupo_984475" data-name="Grupo 984475">
        <rect id="Rectángulo_339556" data-name="Rectángulo 339556" width="100" height="276" rx="13" transform="translate(355 895)" fill="#fff0f1"/>
        <text id="dictionary_library_separate_miserable_poisonous_Jewellery_" data-name="dictionary
 
library
 
separate
 
miserable
poisonous
 
Jewellery
" transform="translate(405 920)" fill="#12263f" font-size="16" font-family="Roboto-Bold, Roboto" font-weight="700"><tspan x="-35.852" y="0">dictionary</tspan><tspan x="-1.992" y="24"> </tspan><tspan x="-22.77" y="48">library</tspan><tspan x="-1.992" y="72"> </tspan><tspan x="-31.348" y="96">separate</tspan><tspan x="-1.992" y="120"> </tspan><tspan x="-35.523" y="144">miserable</tspan><tspan x="-37.379" y="168">poisonous</tspan><tspan x="-1.992" y="192"> </tspan><tspan x="-34.496" y="216">Jewellery</tspan><tspan x="0" y="240"></tspan></text>
      </g>
      <g id="Grupo_984476" data-name="Grupo 984476" transform="translate(264 11)">
        <rect id="Rectángulo_339556-2" data-name="Rectángulo 339556" width="100" height="276" rx="13" transform="translate(355 895)" fill="#fff0f1"/>
        <text id="frightening_interesting_metre_centre_desperate_general_" data-name="frightening
 
interesting
 
metre
 
centre
 
desperate

general " transform="translate(405 920)" fill="#12263f" font-size="16" font-family="Roboto-Bold, Roboto" font-weight="700"><tspan x="-39.625" y="0">frightening</tspan><tspan x="-1.992" y="24"> </tspan><tspan x="-38.855" y="48">interesting</tspan><tspan x="-1.992" y="72"> </tspan><tspan x="-21.195" y="96">metre</tspan><tspan x="-1.992" y="120"> </tspan><tspan x="-22.922" y="144">centre</tspan><tspan x="-1.992" y="168"> </tspan><tspan x="-35.891" y="192">desperate</tspan><tspan x="0" y="216"></tspan><tspan x="-28.898" y="240">general </tspan></text>
      </g>
    </g>
  </g>
</svg>
