<svg xmlns="http://www.w3.org/2000/svg" xmlns:xlink="http://www.w3.org/1999/xlink" width="445" height="468" viewBox="0 0 445 468">
  <defs>
    <clipPath id="clip-path">
      <rect id="Rectángulo_339555" data-name="Rectángulo 339555" width="228.581" height="377.227" fill="none"/>
    </clipPath>
    <clipPath id="clip-path-3">
      <rect id="Rectángulo_339545" data-name="Rectángulo 339545" width="8.889" height="1.585" transform="translate(197.361 149.309)" fill="none"/>
    </clipPath>
    <clipPath id="clip-path-4">
      <rect id="Rectángulo_339546" data-name="Rectángulo 339546" width="7.924" height="65.295" transform="translate(153.592 147.733)" fill="none"/>
    </clipPath>
    <clipPath id="clip-path-5">
      <rect id="Rectángulo_339547" data-name="Rectángulo 339547" width="7.671" height="15.509" transform="translate(43.233 302.958)" fill="none"/>
    </clipPath>
    <clipPath id="clip-path-6">
      <rect id="Rectángulo_339548" data-name="Rectángulo 339548" width="11.274" height="24.301" transform="translate(69.75 149.499)" fill="none"/>
    </clipPath>
    <clipPath id="clip-path-7">
      <rect id="Rectángulo_339550" data-name="Rectángulo 339550" width="16.162" height="11.279" transform="translate(100.016 98.689)" fill="none"/>
    </clipPath>
    <clipPath id="clip-path-8">
      <rect id="Rectángulo_339551" data-name="Rectángulo 339551" width="68.646" height="32.545" transform="translate(89.688 74.545)" fill="none"/>
    </clipPath>
    <clipPath id="clip-path-9">
      <rect id="Rectángulo_339552" data-name="Rectángulo 339552" width="7.658" height="17.184" transform="translate(133.814 61.728)" fill="none"/>
    </clipPath>
    <clipPath id="clip-path-10">
      <rect id="Rectángulo_339553" data-name="Rectángulo 339553" width="9.887" height="11.636" transform="translate(67.18 62.827)" fill="none"/>
    </clipPath>
  </defs>
  <g id="Grupo_984620" data-name="Grupo 984620" transform="translate(-285 -804)">
    <path id="Trazado_212749" data-name="Trazado 212749" d="M0,0H445V468H0Z" transform="translate(285 804)" fill="#d5d6f0"/>
    <path id="Trazado_212750" data-name="Trazado 212750" d="M18,0H291a18,18,0,0,1,18,18V166a18,18,0,0,1-18,18H18A18,18,0,0,1,0,166V18A18,18,0,0,1,18,0Z" transform="translate(296 883)" fill="#3c3fa7"/>
    <path id="Trazado_212751" data-name="Trazado 212751" d="M18,0H277a18,18,0,0,1,18,18V161a18,18,0,0,1-18,18H18A18,18,0,0,1,0,161V18A18,18,0,0,1,18,0Z" transform="translate(425 1023)" fill="#fed947"/>
    <g id="Grupo_984473" data-name="Grupo 984473" transform="translate(393.709 849)" clip-path="url(#clip-path)">
      <g id="Grupo_984472" data-name="Grupo 984472">
        <g id="Grupo_984471" data-name="Grupo 984471" clip-path="url(#clip-path)">
          <path id="Trazado_212438" data-name="Trazado 212438" d="M70.9,13.9c-18.745,12.31-9.792,40.567-22.382,60.152S18.585,95.032,15.787,105.943s1.959,12.31,1.959,12.31-6.995,8.114-5.036,14.828,9.232,8.674,9.232,8.674S-8.553,175.048,2.358,193.513,21.1,206.383,21.1,206.383s-6.715,35.252,16.787,39.448,38.609-2.8,49.52-13.149c0,0,15.108,14.548,40.288,11.191s20.423-42.246,20.423-42.246,16.563,9.512,26.076-5.316-7.344-40.288-7.344-40.288,10.365-.839,12.6-13.989-11.191-18.745-20.144-27.7S139.673,72.053,139.561,57.8,118.085-17.088,70.9,13.9" fill="#2c1f30"/>
          <path id="Trazado_212439" data-name="Trazado 212439" d="M85.661,222.749l73.021-1.259s10.413,34.8,7.554,67.356c-3.746,42.672-14.977,83.645-21.062,87s-23.291-.21-26.019-2.308,10.99-92.248,9.312-93.717-5.666-1.469-6.5-.629-6.323,92.861-7.633,94.346c-3.148,3.567-23.926,4.223-28.332.656S72.537,319.7,72.861,266.6c.13-21.209,12.8-43.855,12.8-43.855" fill="#72cfe8"/>
          <path id="Trazado_212440" data-name="Trazado 212440" d="M203.979,159.308a51.159,51.159,0,0,1,16.6-4.832c4.763-.513,5.146-1.65,1.034-2.524-3.632-.706-6.938-.317-7.147-.886-.1-.271,2.511-.687,6.348-.873,3.945-.186,6.808-.186,6.773-1.55-.071-1.569-10.908-2.47-13.657-1.7-2.873.336,7.887-2.381,11.841-2.222,4.345-.1,3.663-2.279-2.158-2.88-5.81-.476-10.482.814-11.975.641.89-.744,2.143-1.6,7.806-2.908,4.24-.788,3.152-2.57-1.479-2.594-5.59-.065-12.435,3.776-13.683,2.812-.5-1.153,1.287-2.154,3.347-5.993,2.084-3.767-2.912-.946-6.2,2.506-3.44,3.465-7.749,7.157-9.978,10.922-3.025,5.035-4.091,9.522-2.1,13.182,2.142,3.9,4.693,4.4,14.622-1.1" fill="#e29a8f"/>
          <g id="Grupo_984449" data-name="Grupo 984449" opacity="0.5">
            <g id="Grupo_984448" data-name="Grupo 984448">
              <g id="Grupo_984447" data-name="Grupo 984447" clip-path="url(#clip-path-3)">
                <path id="Trazado_212441" data-name="Trazado 212441" d="M206.152,149.791a1,1,0,0,0-.422-.216,3.771,3.771,0,0,0-.552-.166,10.68,10.68,0,0,0-1.088-.087c-.725-.028-1.455-.006-2.18.036s-1.425.1-2.128.208a8.038,8.038,0,0,0-2.151.5.427.427,0,0,0,.184.823,15.715,15.715,0,0,0,2.068-.225c.71-.077,1.418-.15,2.131-.185.7-.034,1.39-.032,2.087-.023.346,0,.692.011,1.039,0,.179,0,.334-.061.509-.079a1.047,1.047,0,0,0,.484-.155.279.279,0,0,0,.019-.439" fill="#bc4a60"/>
              </g>
            </g>
          </g>
          <path id="Trazado_212442" data-name="Trazado 212442" d="M135.811,120.246c-8.07,3.135-6.476,13.482-2.892,29.013,2.847,12.343,22.018,68.927,38.7,70.552,11.722,1.142,28.271-51.97,30.449-59.924-3.27-.916-6.7-.873-12.91-5.46-2.813,4.533-15.157,25.934-17.749,32.86-1.678-7.134-11.19-32.989-16.01-46.623-3.395-9.6-11.521-23.553-19.591-20.418" fill="#ff9650"/>
          <path id="Trazado_212443" data-name="Trazado 212443" d="M110.635,115.77c8.258,0,19.593.378,26.532,3.517a47.045,47.045,0,0,1-5.356,23.707,21.333,21.333,0,0,1-8.054,8.972c-7.969,4.511-16.826.693-22.306-5.977-4.089-4.978-7.127-10.961-9.8-16.842-1.438-3.161-2.908-6.327-4.214-9.551a81.589,81.589,0,0,1,23.2-3.826" fill="#e29a8f"/>
          <path id="Trazado_212444" data-name="Trazado 212444" d="M160.779,222.959a.775.775,0,0,1-.042.252c-.524,2.067-7.313,9.044-35.21,10.449-23.06,1.165-36.93-3.053-41.84-6.011-1.3-.787-1.973-1.48-2.015-1.962-.062-.693.745-3.106,1.816-6.379.807-2.455,1.752-5.382,2.57-8.425a65.717,65.717,0,0,0,1.731-8.11c.5-3.661.451-6.966-.661-9.19-.126-.252-.262-.525-.409-.808-.965-1.994-2.277-4.784-3.725-8.068-1.332-3.022-2.78-6.463-4.175-10.083-1.039-2.7-2.067-5.476-2.99-8.257a110.551,110.551,0,0,1-3.137-11.121A42.735,42.735,0,0,1,71.6,146.58v-.3a46.815,46.815,0,0,1,1.028-10.334,23.3,23.3,0,0,1,3.84-8.7c3.263-4.438,8.592-7.816,17.1-9.547,0,0,1.784,4.333,4.553,9.9,1.333,2.7,2.906,5.686,4.617,8.624a67.819,67.819,0,0,0,7.155,10.334c3.189,3.641,6.442,5.865,9.337,5.057,2.644-.745,4.669-3.21,6.2-6.484a46.466,46.466,0,0,0,3.273-10.963c.619-3.3,1.007-6.537,1.249-9.191.346-3.724.4-6.305.4-6.305l13.01,3.913s.021.042.052.115c.273.651,1.679,4,3.536,8.729,1.07,2.749,2.3,5.97,3.536,9.4,1.028,2.864,2.067,5.865,3.042,8.865,1.018,3.179,1.973,6.348,2.739,9.338a70.591,70.591,0,0,1,1.783,8.8,24.34,24.34,0,0,1,.21,4.134,30.986,30.986,0,0,1-.787,5.9v.011c-.9,3.829-2.308,5.718-2.927,9.064-.451,2.476-.462,5.739.483,11.174.021.168.052.336.084.5.545,3.032,1.08,5.717,1.594,8.089.714,3.3,1.385,6.011,1.962,8.2,1.259,4.742,2.109,7.113,2.109,8.047" fill="#658ee5"/>
          <path id="Trazado_212445" data-name="Trazado 212445" d="M153.529,149.7c-13.618,3.074-27.876,4.522-41.337,5.456a272.772,272.772,0,0,1-39.5.094A42.735,42.735,0,0,1,71.6,146.58v-.3a298.975,298.975,0,0,0,38.295.283c3.189,3.641,6.441,5.865,9.337,5.057,2.644-.745,4.669-3.21,6.2-6.484q8.309-.992,16.545-2.507c2.854-.535,5.686-1.144,8.509-1.794,1.028,2.864,2.066,5.864,3.042,8.865" fill="#fff"/>
          <path id="Trazado_212446" data-name="Trazado 212446" d="M102.739,136.225a262.214,262.214,0,0,1-30.111-.283,23.311,23.311,0,0,1,3.84-8.7c7.208.346,14.416.514,21.655.357,1.332,2.7,2.906,5.686,4.616,8.624" fill="#fff"/>
          <path id="Trazado_212447" data-name="Trazado 212447" d="M146.951,131.43c-6.033,1.166-12.16,2.047-18.245,2.739.619-3.3,1.007-6.536,1.249-9.19q5.4-.756,10.764-1.743c.9-.168,1.805-.345,2.7-.534.273.65,1.679,4,3.536,8.728" fill="#fff"/>
          <path id="Trazado_212448" data-name="Trazado 212448" d="M158.051,167.836c-16.031,3.21-32.723,4.7-48.649,5.812q-15.282,1.071-30.583.976c-1.039-2.7-2.067-5.477-2.991-8.257q15.8.143,31.57-.913,17.5-1.179,34.832-3.839c4.7-.735,9.379-1.637,14.038-2.581a70.959,70.959,0,0,1,1.783,8.8" fill="#fff"/>
          <path id="Trazado_212449" data-name="Trazado 212449" d="M157.474,177.877c-.9,3.829-2.308,5.718-2.927,9.065-14.1,2.266-28.422,3.556-42.565,4.6q-12.621.929-25.263,1.238c-.965-1.993-2.277-4.784-3.725-8.068q13.66-.283,27.3-1.259c15.853-1.122,31.486-3.357,47.181-5.571" fill="#fff"/>
          <path id="Trazado_212450" data-name="Trazado 212450" d="M156.708,206.708a317.962,317.962,0,0,1-38.661,4.018c-10.67.567-21.34.6-31.989.158a65.757,65.757,0,0,0,1.731-8.11q14.068.471,28.149-.21a378.843,378.843,0,0,0,39.091-4.449c.021.168.053.336.084.5.546,3.032,1.081,5.718,1.595,8.089" fill="#fff"/>
          <path id="Trazado_212451" data-name="Trazado 212451" d="M160.779,222.959a.775.775,0,0,1-.042.252,303.675,303.675,0,0,1-77.05,4.438c-1.3-.787-1.973-1.48-2.015-1.962-.062-.693.745-3.106,1.816-6.379a378.671,378.671,0,0,0,75.182-4.4c1.259,4.742,2.109,7.113,2.109,8.047" fill="#fff"/>
          <path id="Trazado_212452" data-name="Trazado 212452" d="M63.7,141.2c-.988,14.525,15.877,63.789,13.919,72.182s-13.15,71.063-13.429,74.98,26.578,9.792,34.412,1.119,6.994-61.83,6.155-92.046-6-76.154-7.117-80.351c.432-2.589-32.5,2.974-33.94,24.116" fill="#ff9650"/>
          <path id="Trazado_212453" data-name="Trazado 212453" d="M113.689,115.745c4.686,2.483,20.529,13.194,27.517,45.385s7.985,114.04,7.735,119.031,11.479,3.244,18.716-.25-6.488-67.376-8.734-81.6,3.993-21.21.5-33.687-10.016-41.207-20.778-45.112c-11.086-4.022-25.2-4.765-24.955-3.767" fill="#ff9650"/>
          <g id="Grupo_984452" data-name="Grupo 984452" opacity="0.5" style="mix-blend-mode: multiply;isolation: isolate">
            <g id="Grupo_984451" data-name="Grupo 984451">
              <g id="Grupo_984450" data-name="Grupo 984450" clip-path="url(#clip-path-4)">
                <path id="Trazado_212454" data-name="Trazado 212454" d="M160.042,204.974a54.669,54.669,0,0,1-.916-6.408,56.328,56.328,0,0,1,.38-12.786c.627-4.3,1.649-8.567,1.746-12.929a38.222,38.222,0,0,0-1.853-12.082c-.7-2.266-1.546-4.485-2.458-6.673a47.869,47.869,0,0,0-3.01-6.279c-.1-.171-.4-.061-.33.139.628,1.939,1.481,3.8,2.276,5.669.835,1.968,1.618,3.96,2.3,5.988a40.332,40.332,0,0,1,2.347,12.145c.069,4.459-.946,8.82-1.612,13.2a55.138,55.138,0,0,0-.515,12.516,54.194,54.194,0,0,0,.962,6.806c.482,2.317,1.966,8.849,2.141,8.744s-1.036-5.984-1.457-8.053" fill="#b26167"/>
              </g>
            </g>
          </g>
          <path id="Trazado_212455" data-name="Trazado 212455" d="M29.123,298.3c-1.716,5.91-4.765,12.748-1.758,16,2.628,2.844,3.352,1.4,5.17,2.454,1.952,1.128,3.647,1.7,5.456,1.186,2.144-.605,2.174,1.794,5.63.262,1.97-.873,4.029,0,5.353-2.4s1.437-15.094.271-21.385-16.776-7.643-20.122,3.879" fill="#e29a8f"/>
          <path id="Trazado_212456" data-name="Trazado 212456" d="M47.04,312.292c-6.276,5.237-5.005,10.97-1.631,7.659s5.069-3.533,7.266-6.341c3.416-4.365-.1-13.841-4.544-18.033-4.578-4.321-5.606,7.074-1.091,16.715" fill="#e29a8f"/>
          <g id="Grupo_984455" data-name="Grupo 984455" opacity="0.5">
            <g id="Grupo_984454" data-name="Grupo 984454">
              <g id="Grupo_984453" data-name="Grupo 984453" clip-path="url(#clip-path-5)">
                <path id="Trazado_212457" data-name="Trazado 212457" d="M50.336,312.066a29.226,29.226,0,0,0,.548-5.9,6.551,6.551,0,0,0-.337-3.092.22.22,0,0,0-.4.036,10.909,10.909,0,0,0-.169,2.642,33.822,33.822,0,0,1-.328,5.434,10.22,10.22,0,0,1-2.01,5.244c-1.17,1.3-2.969.889-4.336,1.781a.138.138,0,0,0,.093.257c1.585-.268,3.337-.138,4.588-1.322a9.738,9.738,0,0,0,2.353-5.077" fill="#bc4a60"/>
              </g>
            </g>
          </g>
          <path id="Trazado_212458" data-name="Trazado 212458" d="M81.674,122.03C70.4,120.2,45.163,154.064,36.491,203.864a645.707,645.707,0,0,0-8.954,94.844l24.061.56s-1.4-62.95,9.233-98.761,19.584-51.2,25.18-58.473,6.015-18.325-4.337-20" fill="#ff9650"/>
          <g id="Grupo_984458" data-name="Grupo 984458" opacity="0.5" style="mix-blend-mode: multiply;isolation: isolate">
            <g id="Grupo_984457" data-name="Grupo 984457">
              <g id="Grupo_984456" data-name="Grupo 984456" clip-path="url(#clip-path-6)">
                <path id="Trazado_212459" data-name="Trazado 212459" d="M80.59,149.6a55.2,55.2,0,0,0-6.215,11.241q-1.286,2.879-2.376,5.838c-.356.968-.685,1.946-1,2.928a22.166,22.166,0,0,0-1.248,4.178c-.008.307,2.7-5.874,3.071-6.88q1.1-2.964,2.39-5.849c1.734-3.849,3.907-7.448,5.782-11.22a.234.234,0,0,0-.4-.236" fill="#b26167"/>
              </g>
            </g>
          </g>
          <rect id="Rectángulo_339549" data-name="Rectángulo 339549" width="21.675" height="15.654" transform="translate(99.04 120.311) rotate(-85.971)" fill="#e29a8f"/>
          <g id="Grupo_984461" data-name="Grupo 984461" opacity="0.4">
            <g id="Grupo_984460" data-name="Grupo 984460">
              <g id="Grupo_984459" data-name="Grupo 984459" clip-path="url(#clip-path-7)">
                <path id="Trazado_212460" data-name="Trazado 212460" d="M104.938,108.241c-1.592-.543-3.168-1.149-4.751-1.718l-.172-.061.548-7.772,15.615,1.1-.715,10.155a28.653,28.653,0,0,1-10.525-1.7" fill="#bc4a60"/>
              </g>
            </g>
          </g>
          <path id="Trazado_212461" data-name="Trazado 212461" d="M158.334,74.545c-.881,13.062-4.428,20.836-10.02,25.61-4.616,3.955-10.617,5.875-17.678,7.05a40.559,40.559,0,0,1-13.786-.115c-9.736-1.731-19.252-6.914-27.162-15.244-8.131-8.572-14.573-20.48-17.794-35.357-9.957-60.914,78.382-72.56,85.506-7.575q.536,4.879.819,9.222c.031.535.062,1.07.094,1.595a120.1,120.1,0,0,1,.021,14.814" fill="#e29a8f"/>
          <g id="Grupo_984464" data-name="Grupo 984464" opacity="0.3">
            <g id="Grupo_984463" data-name="Grupo 984463">
              <g id="Grupo_984462" data-name="Grupo 984462" clip-path="url(#clip-path-8)">
                <path id="Trazado_212462" data-name="Trazado 212462" d="M116.85,107.09c-9.736-1.731-19.252-6.914-27.163-15.244a14.4,14.4,0,0,1,5.634-10.828c6.778-5.13,17.007-3.388,22.83,3.9,5.7,7.134,5.067,16.923-1.3,22.169" fill="#fc6b7f"/>
                <path id="Trazado_212463" data-name="Trazado 212463" d="M158.334,74.545c-.881,13.062-4.428,20.836-10.02,25.61-3.766-2.906-4.437-9.8-1.332-16.272,2.633-5.487,7.187-9.065,11.352-9.338" fill="#fc6b7f"/>
              </g>
            </g>
          </g>
          <path id="Trazado_212464" data-name="Trazado 212464" d="M65.867,19.352C77.274,1.593,99.518-.46,104.053,2.644c0,0,5.38-4.686,18.748-1.582s22.662,10.456,27.838,18.989c3,4.95,4.337,9.793,2.938,13.29a26.476,26.476,0,0,0-12.45-13.989,29.837,29.837,0,0,0-17.18-3.181s-4.933-6.525-11.3-8.435a29.947,29.947,0,0,1,9.31,8.754S98.141,19.322,93.53,41.14c-4.3,20.353-3.008,22.452-8.184,23.291s-7.728-8.009-14.863-3.952S53.557,38.517,65.867,19.352" fill="#2c1f30"/>
          <path id="Trazado_212465" data-name="Trazado 212465" d="M135.019,83.165c-3.8.431-6.087-2.126-8.508.812-1.93,2.341,1.137,6.807,8.866,5.745,7.5-1.031,7.454-6.25,5.644-7.5s-2.173.506-6,.939" fill="#bc4a60"/>
          <path id="Trazado_212466" data-name="Trazado 212466" d="M127.547,85.942a9.559,9.559,0,0,1,6.136.917,4.536,4.536,0,0,1,2.542,2.708c-.277.055-.547.113-.849.155-5.352.735-8.465-1.18-9.234-3.205a4.189,4.189,0,0,1,1.4-.575" fill="#fc6b7f"/>
          <path id="Trazado_212467" data-name="Trazado 212467" d="M108.279,43.871a12.352,12.352,0,0,1,3.243-2.484,11.687,11.687,0,0,1,3.783-1.279c1.255-.178,2.892-.327,4.015.387a.505.505,0,0,1-.141.911,8.693,8.693,0,0,1-1.711.219,13.753,13.753,0,0,0-1.722.29,12.471,12.471,0,0,0-3.319,1.286,11.447,11.447,0,0,0-2.716,2.151c-.731.778-1.4,2.073-2.435,2.443a.518.518,0,0,1-.615-.373c-.405-1.22.86-2.725,1.618-3.551" fill="#2c1f30"/>
          <path id="Trazado_212468" data-name="Trazado 212468" d="M150.682,40.8a8.534,8.534,0,0,0-2.793-1.764,6.953,6.953,0,0,0-3.031-.474,4.105,4.105,0,0,0-2.972,1.2c-.252.313-.092.821.234.862a5.144,5.144,0,0,0,1.32-.137,8.228,8.228,0,0,1,1.339-.07,7.478,7.478,0,0,1,2.683.577,7.986,7.986,0,0,1,2.348,1.546c.661.611,1.346,1.741,2.179,1.89.22.039.384-.242.41-.491.135-1.276-1.03-2.489-1.717-3.142" fill="#2c1f30"/>
          <path id="Trazado_212469" data-name="Trazado 212469" d="M116.132,66.857c.165,2.126-.968,3.948-2.531,4.069s-2.964-1.5-3.13-3.629.968-3.947,2.531-4.069,2.964,1.5,3.13,3.629" fill="#2c1f30"/>
          <path id="Trazado_212470" data-name="Trazado 212470" d="M150.717,64.166c.154,1.986-.9,3.689-2.365,3.8s-2.769-1.4-2.924-3.391.9-3.688,2.365-3.8,2.769,1.4,2.924,3.391" fill="#2c1f30"/>
          <path id="Trazado_212471" data-name="Trazado 212471" d="M104.514,80.46a7.615,7.615,0,0,1-7.69-6.974L96.019,61.4a7.256,7.256,0,0,1,1.82-5.3,7.746,7.746,0,0,1,5.386-2.612l15.18-.934a7.65,7.65,0,0,1,8.186,6.959L127.4,71.6a7.256,7.256,0,0,1-1.82,5.3,7.745,7.745,0,0,1-5.386,2.611l-15.18.935c-.166.01-.331.015-.5.015M118.9,54.1c-.132,0-.264,0-.4.012l-15.18.935a6.188,6.188,0,0,0-4.3,2.08,5.7,5.7,0,0,0-1.431,4.16l.8,12.091a6.054,6.054,0,0,0,6.521,5.493l15.18-.934a6.188,6.188,0,0,0,4.3-2.08,5.7,5.7,0,0,0,1.431-4.161l-.8-12.091A6.04,6.04,0,0,0,118.9,54.1" fill="#b26167"/>
          <path id="Trazado_212472" data-name="Trazado 212472" d="M147.271,77.741a7.616,7.616,0,0,1-7.691-6.974l-.8-12.091a7.252,7.252,0,0,1,1.82-5.3,7.742,7.742,0,0,1,5.386-2.612l11.443-.7a7.637,7.637,0,0,1,8.187,6.959l.8,12.091a7.256,7.256,0,0,1-1.82,5.3,7.745,7.745,0,0,1-5.387,2.611l-11.442.7c-.166.01-.331.015-.5.015m10.648-26.127c-.132,0-.264,0-.4.012l-11.443.705a6.188,6.188,0,0,0-4.3,2.08,5.691,5.691,0,0,0-1.431,4.16l.8,12.091a6.057,6.057,0,0,0,6.52,5.493l11.443-.7a6.188,6.188,0,0,0,4.3-2.08,5.7,5.7,0,0,0,1.431-4.161l-.8-12.09a6.042,6.042,0,0,0-6.123-5.506" fill="#b26167"/>
          <path id="Trazado_212473" data-name="Trazado 212473" d="M126.368,65.538a.788.788,0,0,1-.616-1.278,12.846,12.846,0,0,1,8.42-4.383c5.586-.457,6.391,3.474,6.4,3.514a.787.787,0,0,1-1.544.3c-.028-.124-.643-2.583-4.726-2.249a11.348,11.348,0,0,0-7.317,3.795.787.787,0,0,1-.616.3" fill="#b26167"/>
          <path id="Trazado_212474" data-name="Trazado 212474" d="M96.993,63.972c-.026,0-.051,0-.077,0l-25.18-2.424a.787.787,0,0,1,.152-1.566L97.068,62.4a.787.787,0,0,1-.075,1.57" fill="#b26167"/>
          <path id="Trazado_212475" data-name="Trazado 212475" d="M165.762,59.846a.792.792,0,0,1-.787.693.275.275,0,0,1-.094-.011l-6.568-.8c-.031-.525-.063-1.06-.094-1.595l6.851.839a.788.788,0,0,1,.692.871" fill="#b26167"/>
          <g id="Grupo_984467" data-name="Grupo 984467" opacity="0.5">
            <g id="Grupo_984466" data-name="Grupo 984466">
              <g id="Grupo_984465" data-name="Grupo 984465" clip-path="url(#clip-path-9)">
                <path id="Trazado_212476" data-name="Trazado 212476" d="M134.02,78.155a18.437,18.437,0,0,1,3.292-1.009,25.826,25.826,0,0,0,2.656-1.054,12.308,12.308,0,0,1-3.262-5.392,42.678,42.678,0,0,1-1.6-8.622.3.3,0,0,1,.577-.123c.577,2.608,1,5.292,1.775,7.849a11.494,11.494,0,0,0,3.787,5.986.534.534,0,0,1-.053.91,28.829,28.829,0,0,1-3.43,1.409,8.937,8.937,0,0,1-3.586.782.393.393,0,0,1-.154-.736" fill="#bc4a60"/>
              </g>
            </g>
          </g>
          <path id="Trazado_212477" data-name="Trazado 212477" d="M81.973,78.064c-1.378,3.98-7.878,5.411-13.13,1.83S59.771,65.491,63.67,59.6s13.181-3.268,16.712,3.741c2.665,5.291,2.665,11.618,1.591,14.721" fill="#e29a8f"/>
          <g id="Grupo_984470" data-name="Grupo 984470" opacity="0.5">
            <g id="Grupo_984469" data-name="Grupo 984469">
              <g id="Grupo_984468" data-name="Grupo 984468" clip-path="url(#clip-path-10)">
                <path id="Trazado_212478" data-name="Trazado 212478" d="M67.292,63.551a.4.4,0,0,1,.173-.655c1.243-.308,2.628.474,3.662,1.1a12.677,12.677,0,0,1,3.066,2.561A11.339,11.339,0,0,1,77.065,74c-.011.508-.8.656-.916.124a14.065,14.065,0,0,0-3.055-6.6c-.223-.252-.477-.471-.719-.7-.1.123-.214.236-.313.351-.179.207-.363.408-.54.617a11.043,11.043,0,0,0-.955,1.357c-.587.959-.943,2.046-1.6,2.96-.123.17-.471.2-.512-.067a5.354,5.354,0,0,1,1.019-3.533,10.725,10.725,0,0,1,1.133-1.506,5.9,5.9,0,0,1,.643-.642c.106-.089.212-.177.321-.257a11.289,11.289,0,0,0-1.182-.848c-.985-.6-2.265-.9-3.1-1.709" fill="#bc4a60"/>
              </g>
            </g>
          </g>
        </g>
      </g>
    </g>
    <path id="Trazado_212752" data-name="Trazado 212752" d="M13,0H87a13,13,0,0,1,13,13V263a13,13,0,0,1-13,13H13A13,13,0,0,1,0,263V13A13,13,0,0,1,13,0Z" transform="translate(325 889)" fill="#fff0f1"/>
    <path id="Trazado_212753" data-name="Trazado 212753" d="M-30.949-8.617a2.4,2.4,0,0,1,1.906.945L-28.215-12H-26L-28.082,0h-1.969l.125-.906a2.736,2.736,0,0,1-2.2,1.07A2.433,2.433,0,0,1-33.512-.25a2.607,2.607,0,0,1-.918-1.168,4.7,4.7,0,0,1-.355-1.7,6.4,6.4,0,0,1,.023-.953l.047-.352A6.767,6.767,0,0,1-33.992-6.7,3.766,3.766,0,0,1-32.68-8.164,3.1,3.1,0,0,1-30.949-8.617Zm-1.6,4.547a6.327,6.327,0,0,0-.039,1q.078,1.375,1.109,1.4a1.885,1.885,0,0,0,1.617-.875l.6-3.359a1.248,1.248,0,0,0-1.219-.875,1.606,1.606,0,0,0-1.34.621A4.176,4.176,0,0,0-32.551-4.07ZM-24,0h-2.219l1.469-8.453h2.219Zm-.492-10.6a1.1,1.1,0,0,1,.344-.867,1.209,1.209,0,0,1,.867-.344,1.215,1.215,0,0,1,.867.3,1.1,1.1,0,0,1,.383.828,1.132,1.132,0,0,1-.324.844,1.215,1.215,0,0,1-.887.375,1.235,1.235,0,0,1-.863-.3A1.091,1.091,0,0,1-24.488-10.6Zm6.063,8.945a1.447,1.447,0,0,0,1.016-.332,1.632,1.632,0,0,0,.531-.926l2.07-.008a3.037,3.037,0,0,1-.559,1.6A3.394,3.394,0,0,1-16.711-.211a3.847,3.847,0,0,1-1.77.375A3.123,3.123,0,0,1-20.918-.9a3.965,3.965,0,0,1-.867-2.766l.023-.43.008-.086a5.284,5.284,0,0,1,1.391-3.27,3.761,3.761,0,0,1,2.914-1.16,3.047,3.047,0,0,1,2.27.934A3.3,3.3,0,0,1-14.355-5.3H-16.41a1.73,1.73,0,0,0-.3-1.07,1.128,1.128,0,0,0-.891-.422q-1.578-.047-1.914,2.3A7.782,7.782,0,0,0-19.6-3.047Q-19.52-1.68-18.426-1.656Zm8.938-8.875-.367,2.078h1.406L-8.738-6.8h-1.406l-.719,4.234a1.077,1.077,0,0,0,.063.609q.109.211.531.227.125.008.672-.039L-9.754-.039a3.706,3.706,0,0,1-1.266.18,1.985,1.985,0,0,1-1.617-.68,2.456,2.456,0,0,1-.437-1.8l.727-4.461h-1.2l.289-1.656h1.2l.359-2.078ZM-6.309,0H-8.527l1.469-8.453H-4.84ZM-6.8-10.6a1.1,1.1,0,0,1,.344-.867,1.209,1.209,0,0,1,.867-.344,1.215,1.215,0,0,1,.867.3,1.1,1.1,0,0,1,.383.828,1.132,1.132,0,0,1-.324.844,1.215,1.215,0,0,1-.887.375,1.235,1.235,0,0,1-.863-.3A1.091,1.091,0,0,1-6.8-10.6Zm7.2,1.992a3.39,3.39,0,0,1,1.926.574A3.234,3.234,0,0,1,3.508-6.5a4.762,4.762,0,0,1,.27,2.176,5.143,5.143,0,0,1-1.4,3.262A3.96,3.96,0,0,1-.645.156,3.38,3.38,0,0,1-2.551-.41,3.222,3.222,0,0,1-3.738-1.937a4.657,4.657,0,0,1-.273-2.156A5.3,5.3,0,0,1-2.59-7.422,3.878,3.878,0,0,1,.395-8.609ZM-1.832-3.294A1.95,1.95,0,0,0-1.48-2.113a1.168,1.168,0,0,0,.945.449A1.712,1.712,0,0,0,1.059-2.6,4.647,4.647,0,0,0,1.6-5.128a2.122,2.122,0,0,0-.363-1.2,1.149,1.149,0,0,0-.949-.464,1.715,1.715,0,0,0-1.574.924A4.6,4.6,0,0,0-1.832-3.294ZM7.895-8.461l-.187,1a3.042,3.042,0,0,1,2.461-1.148,2.028,2.028,0,0,1,1.766.875,3.526,3.526,0,0,1,.414,2.359L11.457,0h-2.2l.906-5.4a2.528,2.528,0,0,0,.016-.555.9.9,0,0,0-1-.82,1.9,1.9,0,0,0-1.555.8L6.566,0h-2.2L5.832-8.453ZM18.074,0a2.281,2.281,0,0,1-.086-.766,2.863,2.863,0,0,1-2.156.922,2.594,2.594,0,0,1-1.84-.723,2.186,2.186,0,0,1-.684-1.746,2.527,2.527,0,0,1,1.16-2.121,5.266,5.266,0,0,1,2.965-.738l1.031.016.109-.508a1.764,1.764,0,0,0,.023-.492.846.846,0,0,0-.277-.574.955.955,0,0,0-.629-.215,1.345,1.345,0,0,0-.875.254,1.231,1.231,0,0,0-.461.777l-2.211.008a2.457,2.457,0,0,1,1.113-1.965,4.312,4.312,0,0,1,2.613-.738,3.117,3.117,0,0,1,2.25.855,2.5,2.5,0,0,1,.68,2.121l-.648,4.047-.039.5a2.412,2.412,0,0,0,.133.938L20.238,0Zm-1.7-1.555a2.017,2.017,0,0,0,1.664-.828l.273-1.461-.766-.008a2.139,2.139,0,0,0-1.758.742,1.292,1.292,0,0,0-.242.633.75.75,0,0,0,.176.668A.891.891,0,0,0,16.379-1.555ZM27.371-6.336a4.548,4.548,0,0,0-.742-.078,2.136,2.136,0,0,0-1.867.883L23.785,0h-2.2l1.469-8.453,2.07-.008-.2,1.031a2.325,2.325,0,0,1,1.969-1.2,3.214,3.214,0,0,1,.766.109ZM30.91-3.219l2.414-5.234h2.453L30.832,1.273a4.231,4.231,0,0,1-1.246,1.641,2.723,2.723,0,0,1-1.652.523,5.035,5.035,0,0,1-1.062-.164l.164-1.719.3.016A1.651,1.651,0,0,0,28.918.781l.484-.9L28.02-8.453H30.3ZM-20.008,48h-2.219l2.086-12h2.211Zm4.2,0h-2.219l1.469-8.453h2.219ZM-16.3,37.4a1.1,1.1,0,0,1,.344-.867,1.209,1.209,0,0,1,.867-.344,1.215,1.215,0,0,1,.867.3,1.1,1.1,0,0,1,.383.828,1.132,1.132,0,0,1-.324.844,1.215,1.215,0,0,1-.887.375,1.235,1.235,0,0,1-.863-.3A1.091,1.091,0,0,1-16.3,37.4ZM-5.82,43.8A6.061,6.061,0,0,1-7.039,47a3.033,3.033,0,0,1-2.547,1.164,2.357,2.357,0,0,1-2.031-1.078l-.32.914h-2.008l2.078-12h2.211l-.852,4.32a2.634,2.634,0,0,1,2.063-.93,2.385,2.385,0,0,1,1.926.879,3.89,3.89,0,0,1,.746,2.387A9.133,9.133,0,0,1-5.82,43.8Zm-2.187-.165A6.554,6.554,0,0,0-7.961,42.6q-.086-1.364-1.125-1.387A1.833,1.833,0,0,0-10.7,42.1l-.609,3.37a1.258,1.258,0,0,0,1.266.878q1.625.047,1.992-2.367ZM.656,41.664a4.549,4.549,0,0,0-.742-.078,2.136,2.136,0,0,0-1.867.883L-2.93,48h-2.2l1.469-8.453,2.07-.008-.2,1.031a2.325,2.325,0,0,1,1.969-1.2,3.214,3.214,0,0,1,.766.109ZM5.266,48a2.281,2.281,0,0,1-.086-.766,2.863,2.863,0,0,1-2.156.922,2.594,2.594,0,0,1-1.84-.723A2.186,2.186,0,0,1,.5,45.688a2.527,2.527,0,0,1,1.16-2.121,5.266,5.266,0,0,1,2.965-.738l1.031.016.109-.508a1.764,1.764,0,0,0,.023-.492.846.846,0,0,0-.277-.574.955.955,0,0,0-.629-.215,1.345,1.345,0,0,0-.875.254,1.231,1.231,0,0,0-.461.777l-2.211.008a2.457,2.457,0,0,1,1.113-1.965,4.312,4.312,0,0,1,2.613-.738,3.117,3.117,0,0,1,2.25.855,2.5,2.5,0,0,1,.68,2.121l-.648,4.047-.039.5a2.412,2.412,0,0,0,.133.938L7.43,48Zm-1.7-1.555a2.017,2.017,0,0,0,1.664-.828l.273-1.461-.766-.008a2.139,2.139,0,0,0-1.758.742,1.292,1.292,0,0,0-.242.633.75.75,0,0,0,.176.668A.891.891,0,0,0,3.57,46.445Zm10.992-4.781a4.549,4.549,0,0,0-.742-.078,2.136,2.136,0,0,0-1.867.883L10.977,48h-2.2l1.469-8.453,2.07-.008-.2,1.031a2.325,2.325,0,0,1,1.969-1.2,3.214,3.214,0,0,1,.766.109ZM18.1,44.781l2.414-5.234h2.453l-4.945,9.727a4.231,4.231,0,0,1-1.246,1.641,2.723,2.723,0,0,1-1.652.523,5.035,5.035,0,0,1-1.062-.164l.164-1.719.3.016a1.651,1.651,0,0,0,1.578-.789l.484-.9-1.383-8.336h2.281ZM-25.793,93.617q.125-.625-.867-.906l-.711-.18q-2.523-.7-2.453-2.453a2.428,2.428,0,0,1,1.059-1.949,3.942,3.942,0,0,1,2.457-.738A3.536,3.536,0,0,1-24,88.148a2.5,2.5,0,0,1,.9,1.977l-2.187-.008a.963.963,0,0,0-1.078-1.1,1.551,1.551,0,0,0-.895.258,1.061,1.061,0,0,0-.465.7q-.117.625.945.883l.313.07a6.285,6.285,0,0,1,1.648.59,2.488,2.488,0,0,1,.879.824,2.04,2.04,0,0,1,.285,1.18,2.251,2.251,0,0,1-.52,1.406,3.18,3.18,0,0,1-1.359.93,4.736,4.736,0,0,1-1.816.3,3.568,3.568,0,0,1-2.344-.809,2.607,2.607,0,0,1-.953-2.051l2.078.016a1.142,1.142,0,0,0,1.3,1.227,1.845,1.845,0,0,0,1-.25A.987.987,0,0,0-25.793,93.617Zm7.172,2.539a3.677,3.677,0,0,1-1.965-.543,3.292,3.292,0,0,1-1.277-1.469,4.093,4.093,0,0,1-.328-2.059l.023-.312a5.465,5.465,0,0,1,.719-2.266,4.341,4.341,0,0,1,1.547-1.59,3.827,3.827,0,0,1,2.094-.527,2.924,2.924,0,0,1,2.473,1.2,4.117,4.117,0,0,1,.637,2.962l-.125.962H-20a1.814,1.814,0,0,0,.4,1.313,1.521,1.521,0,0,0,1.172.508,2.7,2.7,0,0,0,2.109-.937l1.008,1.25a3.135,3.135,0,0,1-1.375,1.121A4.5,4.5,0,0,1-18.621,96.156Zm.7-6.945A1.565,1.565,0,0,0-19,89.594a3.363,3.363,0,0,0-.848,1.383h3.031l.047-.2a2.071,2.071,0,0,0,.008-.594,1.134,1.134,0,0,0-.383-.707A1.2,1.2,0,0,0-17.918,89.211ZM-6.051,91.8a6.981,6.981,0,0,1-.7,2.359,3.826,3.826,0,0,1-1.32,1.531,3.058,3.058,0,0,1-1.75.477,2.44,2.44,0,0,1-1.937-.914l-.773,4h-2.2l2.023-11.7,2.031-.008-.148.852a2.7,2.7,0,0,1,2.156-1,2.4,2.4,0,0,1,1.93.9A3.922,3.922,0,0,1-6,90.656,9.133,9.133,0,0,1-6.051,91.8Zm-2.187-.16.047-.751a2.089,2.089,0,0,0-.277-1.205,1,1,0,0,0-.855-.462,1.818,1.818,0,0,0-1.586.814l-.633,3.49a1.233,1.233,0,0,0,1.242.822,1.59,1.59,0,0,0,1.328-.618A4.234,4.234,0,0,0-8.238,91.636ZM-.465,96a2.281,2.281,0,0,1-.086-.766,2.863,2.863,0,0,1-2.156.922,2.594,2.594,0,0,1-1.84-.723,2.186,2.186,0,0,1-.684-1.746,2.527,2.527,0,0,1,1.16-2.121,5.266,5.266,0,0,1,2.965-.738l1.031.016.109-.508a1.764,1.764,0,0,0,.023-.492.846.846,0,0,0-.277-.574.955.955,0,0,0-.629-.215,1.345,1.345,0,0,0-.875.254,1.231,1.231,0,0,0-.461.777l-2.211.008a2.457,2.457,0,0,1,1.113-1.965,4.312,4.312,0,0,1,2.613-.738,3.117,3.117,0,0,1,2.25.855,2.5,2.5,0,0,1,.68,2.121l-.648,4.047-.039.5a2.412,2.412,0,0,0,.133.938L1.7,96Zm-1.7-1.555A2.017,2.017,0,0,0-.5,93.617l.273-1.461-.766-.008a2.139,2.139,0,0,0-1.758.742,1.292,1.292,0,0,0-.242.633.75.75,0,0,0,.176.668A.891.891,0,0,0-2.16,94.445ZM8.832,89.664a4.548,4.548,0,0,0-.742-.078,2.136,2.136,0,0,0-1.867.883L5.246,96h-2.2l1.469-8.453,2.07-.008-.2,1.031a2.325,2.325,0,0,1,1.969-1.2,3.214,3.214,0,0,1,.766.109ZM13.441,96a2.281,2.281,0,0,1-.086-.766,2.863,2.863,0,0,1-2.156.922,2.594,2.594,0,0,1-1.84-.723,2.186,2.186,0,0,1-.684-1.746,2.527,2.527,0,0,1,1.16-2.121,5.266,5.266,0,0,1,2.965-.738l1.031.016.109-.508a1.764,1.764,0,0,0,.023-.492.846.846,0,0,0-.277-.574.955.955,0,0,0-.629-.215,1.345,1.345,0,0,0-.875.254,1.231,1.231,0,0,0-.461.777l-2.211.008a2.457,2.457,0,0,1,1.113-1.965,4.312,4.312,0,0,1,2.613-.738,3.117,3.117,0,0,1,2.25.855,2.5,2.5,0,0,1,.68,2.121l-.648,4.047-.039.5a2.412,2.412,0,0,0,.133.938L15.605,96Zm-1.7-1.555a2.017,2.017,0,0,0,1.664-.828l.273-1.461-.766-.008a2.139,2.139,0,0,0-1.758.742,1.292,1.292,0,0,0-.242.633.75.75,0,0,0,.176.668A.891.891,0,0,0,11.746,94.445Zm9.672-8.977-.367,2.078h1.406L22.168,89.2H20.762l-.719,4.234a1.077,1.077,0,0,0,.063.609q.109.211.531.227.125.008.672-.039l-.156,1.727a3.706,3.706,0,0,1-1.266.18,1.985,1.985,0,0,1-1.617-.68,2.456,2.456,0,0,1-.437-1.8l.727-4.461h-1.2l.289-1.656h1.2l.359-2.078Zm4.867,10.688a3.677,3.677,0,0,1-1.965-.543,3.292,3.292,0,0,1-1.277-1.469,4.093,4.093,0,0,1-.328-2.059l.023-.312a5.465,5.465,0,0,1,.719-2.266A4.341,4.341,0,0,1,25,87.918a3.827,3.827,0,0,1,2.094-.527,2.924,2.924,0,0,1,2.473,1.2,4.117,4.117,0,0,1,.637,2.962l-.125.962H24.9a1.814,1.814,0,0,0,.4,1.313,1.521,1.521,0,0,0,1.172.508,2.7,2.7,0,0,0,2.109-.937l1.008,1.25a3.135,3.135,0,0,1-1.375,1.121A4.5,4.5,0,0,1,26.285,96.156Zm.7-6.945a1.565,1.565,0,0,0-1.082.383,3.363,3.363,0,0,0-.848,1.383H28.09l.047-.2a2.071,2.071,0,0,0,.008-.594,1.134,1.134,0,0,0-.383-.707A1.2,1.2,0,0,0,26.988,89.211ZM-31.27,135.539l-.18.961a3.112,3.112,0,0,1,2.477-1.109,2.379,2.379,0,0,1,1.3.359,1.679,1.679,0,0,1,.7.93,3.255,3.255,0,0,1,2.625-1.289,2.126,2.126,0,0,1,1.754.8,3.271,3.271,0,0,1,.5,2.234l-.016.2-.9,5.383H-25.23l.9-5.4a3.908,3.908,0,0,0,.023-.54.837.837,0,0,0-.937-.845,1.86,1.86,0,0,0-1.555.97l-.023.18L-27.809,144h-2.2l.9-5.383a3.9,3.9,0,0,0,.023-.539.836.836,0,0,0-.93-.852,1.867,1.867,0,0,0-1.508.789L-32.582,144h-2.2l1.461-8.453ZM-18.941,144H-21.16l1.469-8.453h2.219Zm-.492-10.6a1.1,1.1,0,0,1,.344-.867,1.209,1.209,0,0,1,.867-.344,1.215,1.215,0,0,1,.867.3,1.1,1.1,0,0,1,.383.828,1.132,1.132,0,0,1-.324.844,1.215,1.215,0,0,1-.887.375,1.235,1.235,0,0,1-.863-.3A1.091,1.091,0,0,1-19.434,133.4Zm7.258,8.219q.125-.625-.867-.906l-.711-.18q-2.523-.7-2.453-2.453a2.428,2.428,0,0,1,1.059-1.949,3.942,3.942,0,0,1,2.457-.738,3.536,3.536,0,0,1,2.313.758,2.5,2.5,0,0,1,.9,1.977l-2.187-.008a.963.963,0,0,0-1.078-1.1,1.551,1.551,0,0,0-.895.258,1.061,1.061,0,0,0-.465.7q-.117.625.945.883l.313.07a6.285,6.285,0,0,1,1.648.59,2.488,2.488,0,0,1,.879.824,2.04,2.04,0,0,1,.285,1.18,2.251,2.251,0,0,1-.52,1.406,3.18,3.18,0,0,1-1.359.93,4.736,4.736,0,0,1-1.816.3,3.569,3.569,0,0,1-2.344-.809,2.607,2.607,0,0,1-.953-2.051l2.078.016a1.142,1.142,0,0,0,1.3,1.227,1.845,1.845,0,0,0,1-.25A.988.988,0,0,0-12.176,141.617ZM-5,144.156a3.677,3.677,0,0,1-1.965-.543,3.292,3.292,0,0,1-1.277-1.469,4.093,4.093,0,0,1-.328-2.059l.023-.312a5.465,5.465,0,0,1,.719-2.266,4.341,4.341,0,0,1,1.547-1.59,3.827,3.827,0,0,1,2.094-.527,2.924,2.924,0,0,1,2.473,1.2,4.117,4.117,0,0,1,.637,2.962l-.125.962h-5.18a1.814,1.814,0,0,0,.4,1.313,1.521,1.521,0,0,0,1.172.508,2.7,2.7,0,0,0,2.109-.937l1.008,1.25a3.135,3.135,0,0,1-1.375,1.121A4.5,4.5,0,0,1-5,144.156Zm.7-6.945a1.565,1.565,0,0,0-1.082.383,3.363,3.363,0,0,0-.848,1.383H-3.2l.047-.2a2.071,2.071,0,0,0,.008-.594,1.134,1.134,0,0,0-.383-.707A1.2,1.2,0,0,0-4.3,137.211Zm9.539.453a4.549,4.549,0,0,0-.742-.078,2.136,2.136,0,0,0-1.867.883L1.652,144h-2.2l1.469-8.453,2.07-.008-.2,1.031a2.325,2.325,0,0,1,1.969-1.2,3.213,3.213,0,0,1,.766.109ZM9.848,144a2.281,2.281,0,0,1-.086-.766,2.863,2.863,0,0,1-2.156.922,2.594,2.594,0,0,1-1.84-.723,2.186,2.186,0,0,1-.684-1.746,2.527,2.527,0,0,1,1.16-2.121,5.266,5.266,0,0,1,2.965-.738l1.031.016.109-.508a1.764,1.764,0,0,0,.023-.492.846.846,0,0,0-.277-.574.955.955,0,0,0-.629-.215,1.345,1.345,0,0,0-.875.254,1.231,1.231,0,0,0-.461.777l-2.211.008a2.457,2.457,0,0,1,1.113-1.965,4.311,4.311,0,0,1,2.613-.738,3.117,3.117,0,0,1,2.25.855,2.5,2.5,0,0,1,.68,2.121l-.648,4.047-.039.5a2.412,2.412,0,0,0,.133.938l-.008.148Zm-1.7-1.555a2.017,2.017,0,0,0,1.664-.828l.273-1.461-.766-.008a2.139,2.139,0,0,0-1.758.742,1.292,1.292,0,0,0-.242.633.75.75,0,0,0,.176.668A.891.891,0,0,0,8.152,142.445ZM21.48,139.8a6.061,6.061,0,0,1-1.219,3.2,3.033,3.033,0,0,1-2.547,1.164,2.357,2.357,0,0,1-2.031-1.078l-.32.914H13.355l2.078-12h2.211l-.852,4.32a2.634,2.634,0,0,1,2.063-.93,2.385,2.385,0,0,1,1.926.879,3.89,3.89,0,0,1,.746,2.387A9.133,9.133,0,0,1,21.48,139.8Zm-2.187-.165a6.554,6.554,0,0,0,.047-1.034q-.086-1.364-1.125-1.387a1.833,1.833,0,0,0-1.617.885l-.609,3.37a1.258,1.258,0,0,0,1.266.878q1.625.047,1.992-2.367ZM24.5,144H22.277l2.086-12h2.211Zm5.883.156a3.677,3.677,0,0,1-1.965-.543,3.292,3.292,0,0,1-1.277-1.469,4.093,4.093,0,0,1-.328-2.059l.023-.312a5.465,5.465,0,0,1,.719-2.266,4.341,4.341,0,0,1,1.547-1.59,3.827,3.827,0,0,1,2.094-.527,2.924,2.924,0,0,1,2.473,1.2,4.117,4.117,0,0,1,.637,2.962l-.125.962H29a1.814,1.814,0,0,0,.4,1.313,1.521,1.521,0,0,0,1.172.508,2.7,2.7,0,0,0,2.109-.937l1.008,1.25a3.135,3.135,0,0,1-1.375,1.121A4.5,4.5,0,0,1,30.379,144.156Zm.7-6.945a1.565,1.565,0,0,0-1.082.383,3.363,3.363,0,0,0-.848,1.383h3.031l.047-.2a2.071,2.071,0,0,0,.008-.594,1.134,1.134,0,0,0-.383-.707A1.2,1.2,0,0,0,31.082,137.211ZM-28.465,163.8a6.981,6.981,0,0,1-.7,2.359,3.826,3.826,0,0,1-1.32,1.531,3.058,3.058,0,0,1-1.75.477,2.44,2.44,0,0,1-1.937-.914l-.773,4h-2.2l2.023-11.7,2.031-.008-.148.852a2.7,2.7,0,0,1,2.156-1,2.4,2.4,0,0,1,1.93.9,3.922,3.922,0,0,1,.734,2.363A9.133,9.133,0,0,1-28.465,163.8Zm-2.187-.16.047-.751a2.089,2.089,0,0,0-.277-1.205,1,1,0,0,0-.855-.462,1.818,1.818,0,0,0-1.586.814l-.633,3.49a1.233,1.233,0,0,0,1.242.822,1.59,1.59,0,0,0,1.328-.618A4.234,4.234,0,0,0-30.652,163.636Zm7.719-4.246a3.391,3.391,0,0,1,1.926.574A3.234,3.234,0,0,1-19.82,161.5a4.762,4.762,0,0,1,.27,2.176,5.143,5.143,0,0,1-1.4,3.262,3.96,3.96,0,0,1-3.02,1.215,3.38,3.38,0,0,1-1.906-.566,3.222,3.222,0,0,1-1.187-1.527,4.657,4.657,0,0,1-.273-2.156,5.3,5.3,0,0,1,1.422-3.328A3.878,3.878,0,0,1-22.934,159.391Zm-2.227,5.315a1.95,1.95,0,0,0,.352,1.182,1.168,1.168,0,0,0,.945.449,1.712,1.712,0,0,0,1.594-.932,4.647,4.647,0,0,0,.539-2.531,2.122,2.122,0,0,0-.363-1.2,1.149,1.149,0,0,0-.949-.464,1.715,1.715,0,0,0-1.574.924A4.6,4.6,0,0,0-25.16,164.706ZM-16.59,168h-2.219l1.469-8.453h2.219Zm-.492-10.6a1.1,1.1,0,0,1,.344-.867,1.209,1.209,0,0,1,.867-.344,1.215,1.215,0,0,1,.867.3,1.1,1.1,0,0,1,.383.828,1.132,1.132,0,0,1-.324.844,1.215,1.215,0,0,1-.887.375,1.235,1.235,0,0,1-.863-.3A1.091,1.091,0,0,1-17.082,157.4Zm7.258,8.219q.125-.625-.867-.906l-.711-.18q-2.523-.7-2.453-2.453a2.428,2.428,0,0,1,1.059-1.949,3.942,3.942,0,0,1,2.457-.738,3.536,3.536,0,0,1,2.313.758,2.5,2.5,0,0,1,.9,1.977l-2.187-.008a.963.963,0,0,0-1.078-1.1,1.551,1.551,0,0,0-.895.258,1.061,1.061,0,0,0-.465.7q-.117.625.945.883l.313.07a6.285,6.285,0,0,1,1.648.59,2.488,2.488,0,0,1,.879.824,2.04,2.04,0,0,1,.285,1.18,2.251,2.251,0,0,1-.52,1.406,3.18,3.18,0,0,1-1.359.93,4.736,4.736,0,0,1-1.816.3,3.569,3.569,0,0,1-2.344-.809,2.607,2.607,0,0,1-.953-2.051l2.078.016a1.142,1.142,0,0,0,1.3,1.227,1.845,1.845,0,0,0,1-.25A.988.988,0,0,0-9.824,165.617Zm7.992-6.227a3.391,3.391,0,0,1,1.926.574A3.234,3.234,0,0,1,1.281,161.5a4.762,4.762,0,0,1,.27,2.176,5.143,5.143,0,0,1-1.4,3.262,3.96,3.96,0,0,1-3.02,1.215,3.38,3.38,0,0,1-1.906-.566,3.222,3.222,0,0,1-1.187-1.527,4.657,4.657,0,0,1-.273-2.156,5.3,5.3,0,0,1,1.422-3.328A3.878,3.878,0,0,1-1.832,159.391Zm-2.227,5.315a1.95,1.95,0,0,0,.352,1.182,1.168,1.168,0,0,0,.945.449,1.712,1.712,0,0,0,1.594-.932,4.647,4.647,0,0,0,.539-2.531,2.122,2.122,0,0,0-.363-1.2,1.149,1.149,0,0,0-.949-.464,1.715,1.715,0,0,0-1.574.924A4.6,4.6,0,0,0-4.059,164.706Zm9.727-5.167-.187,1a3.042,3.042,0,0,1,2.461-1.148,2.028,2.028,0,0,1,1.766.875,3.526,3.526,0,0,1,.414,2.359L9.23,168h-2.2l.906-5.4a2.528,2.528,0,0,0,.016-.555.9.9,0,0,0-1-.82,1.9,1.9,0,0,0-1.555.8L4.34,168h-2.2l1.469-8.453Zm10.125-.148a3.391,3.391,0,0,1,1.926.574,3.234,3.234,0,0,1,1.188,1.539,4.762,4.762,0,0,1,.27,2.176,5.143,5.143,0,0,1-1.4,3.262,3.96,3.96,0,0,1-3.02,1.215,3.38,3.38,0,0,1-1.906-.566,3.222,3.222,0,0,1-1.187-1.527,4.657,4.657,0,0,1-.273-2.156,5.3,5.3,0,0,1,1.422-3.328A3.878,3.878,0,0,1,15.793,159.391Zm-2.227,5.315a1.95,1.95,0,0,0,.352,1.182,1.168,1.168,0,0,0,.945.449,1.712,1.712,0,0,0,1.594-.932A4.647,4.647,0,0,0,17,162.872a2.122,2.122,0,0,0-.363-1.2,1.149,1.149,0,0,0-.949-.464,1.715,1.715,0,0,0-1.574.924A4.6,4.6,0,0,0,13.566,164.706Zm11.477,2.419a2.919,2.919,0,0,1-2.328,1.031,2.172,2.172,0,0,1-1.844-.875,3.2,3.2,0,0,1-.484-2.266l.914-5.469h2.2l-.93,5.5a2.175,2.175,0,0,0-.008.485.8.8,0,0,0,.867.806,2.014,2.014,0,0,0,1.7-.79l1.055-6H28.4L26.934,168H24.879Zm8.43-1.508q.125-.625-.867-.906l-.711-.18q-2.523-.7-2.453-2.453a2.428,2.428,0,0,1,1.059-1.949,3.942,3.942,0,0,1,2.457-.738,3.536,3.536,0,0,1,2.313.758,2.5,2.5,0,0,1,.9,1.977l-2.187-.008a.963.963,0,0,0-1.078-1.1,1.551,1.551,0,0,0-.895.258,1.061,1.061,0,0,0-.465.7q-.117.625.945.883l.313.07a6.285,6.285,0,0,1,1.648.59,2.488,2.488,0,0,1,.879.824,2.04,2.04,0,0,1,.285,1.18,2.251,2.251,0,0,1-.52,1.406,3.18,3.18,0,0,1-1.359.93,4.736,4.736,0,0,1-1.816.3,3.569,3.569,0,0,1-2.344-.809,2.607,2.607,0,0,1-.953-2.051l2.078.016a1.142,1.142,0,0,0,1.3,1.227,1.845,1.845,0,0,0,1-.25A.988.988,0,0,0,33.473,165.617Zm-60.684,39.008h2.289l-1.336,7.875a4.4,4.4,0,0,1-.719,1.93,3.85,3.85,0,0,1-1.484,1.3,4.184,4.184,0,0,1-1.992.43,3.357,3.357,0,0,1-2.484-.953,3.446,3.446,0,0,1-.828-2.578l2.3.008q-.117,1.609,1.133,1.633a1.5,1.5,0,0,0,1.156-.453,2.358,2.358,0,0,0,.617-1.32Zm6.18,11.531A3.677,3.677,0,0,1-23,215.613a3.292,3.292,0,0,1-1.277-1.469,4.093,4.093,0,0,1-.328-2.059l.023-.312a5.465,5.465,0,0,1,.719-2.266,4.341,4.341,0,0,1,1.547-1.59,3.827,3.827,0,0,1,2.094-.527,2.924,2.924,0,0,1,2.473,1.2,4.117,4.117,0,0,1,.637,2.962l-.125.962h-5.18a1.814,1.814,0,0,0,.4,1.313,1.521,1.521,0,0,0,1.172.508,2.7,2.7,0,0,0,2.109-.937l1.008,1.25A3.135,3.135,0,0,1-19.1,215.77,4.5,4.5,0,0,1-21.031,216.156Zm.7-6.945a1.565,1.565,0,0,0-1.082.383,3.363,3.363,0,0,0-.848,1.383h3.031l.047-.2a2.071,2.071,0,0,0,.008-.594,1.134,1.134,0,0,0-.383-.707A1.2,1.2,0,0,0-20.328,209.211Zm11.383,3.711,2.008-5.375h2.2L-8.3,216h-1.844l-.625-5.289L-13.234,216h-1.844l-.625-8.453h2.063l.133,5.32,2.414-5.32H-9.5Zm7.867,3.234a3.677,3.677,0,0,1-1.965-.543,3.292,3.292,0,0,1-1.277-1.469,4.093,4.093,0,0,1-.328-2.059l.023-.312a5.465,5.465,0,0,1,.719-2.266,4.341,4.341,0,0,1,1.547-1.59,3.827,3.827,0,0,1,2.094-.527,2.924,2.924,0,0,1,2.473,1.2,4.117,4.117,0,0,1,.637,2.962l-.125.962h-5.18a1.814,1.814,0,0,0,.4,1.313,1.521,1.521,0,0,0,1.172.508,2.7,2.7,0,0,0,2.109-.937l1.008,1.25A3.135,3.135,0,0,1,.852,215.77,4.5,4.5,0,0,1-1.078,216.156Zm.7-6.945a1.565,1.565,0,0,0-1.082.383,3.363,3.363,0,0,0-.848,1.383H.727l.047-.2a2.071,2.071,0,0,0,.008-.594,1.134,1.134,0,0,0-.383-.707A1.2,1.2,0,0,0-.375,209.211ZM5.7,216H3.484L5.57,204H7.781Zm4.2,0H7.68l2.086-12h2.211Zm5.883.156a3.677,3.677,0,0,1-1.965-.543,3.292,3.292,0,0,1-1.277-1.469,4.093,4.093,0,0,1-.328-2.059l.023-.312a5.465,5.465,0,0,1,.719-2.266,4.341,4.341,0,0,1,1.547-1.59,3.827,3.827,0,0,1,2.094-.527,2.924,2.924,0,0,1,2.473,1.2,4.117,4.117,0,0,1,.637,2.962l-.125.962H14.4a1.814,1.814,0,0,0,.4,1.313,1.521,1.521,0,0,0,1.172.508,2.7,2.7,0,0,0,2.109-.937l1.008,1.25a3.135,3.135,0,0,1-1.375,1.121A4.5,4.5,0,0,1,15.781,216.156Zm.7-6.945a1.565,1.565,0,0,0-1.082.383,3.363,3.363,0,0,0-.848,1.383h3.031l.047-.2a2.071,2.071,0,0,0,.008-.594,1.134,1.134,0,0,0-.383-.707A1.2,1.2,0,0,0,16.484,209.211Zm9.539.453a4.549,4.549,0,0,0-.742-.078,2.136,2.136,0,0,0-1.867.883L22.438,216h-2.2l1.469-8.453,2.07-.008-.2,1.031a2.325,2.325,0,0,1,1.969-1.2,3.213,3.213,0,0,1,.766.109Zm3.539,3.117,2.414-5.234H34.43l-4.945,9.727a4.231,4.231,0,0,1-1.246,1.641,2.723,2.723,0,0,1-1.652.523,5.035,5.035,0,0,1-1.062-.164l.164-1.719.3.016a1.651,1.651,0,0,0,1.578-.789l.484-.9-1.383-8.336h2.281Z" transform="translate(375 914)" fill="#12263f"/>
    <path id="Trazado_212754" data-name="Trazado 212754" d="M13,0H87a13,13,0,0,1,13,13V263a13,13,0,0,1-13,13H13A13,13,0,0,1,0,263V13A13,13,0,0,1,13,0Z" transform="translate(589 900)" fill="#fff0f1"/>
    <path id="Trazado_212755" data-name="Trazado 212755" d="M-38.258,0l1.18-6.8H-38.3l.289-1.648,1.219-.008.109-.844a3.332,3.332,0,0,1,1.1-2.121,3.334,3.334,0,0,1,2.289-.754,7.33,7.33,0,0,1,1.2.163l-.2,1.751a2.732,2.732,0,0,0-.648-.094,1.615,1.615,0,0,0-1,.3,1.355,1.355,0,0,0-.52.918l-.117.69h1.633L-33.234-6.8h-1.625L-36.039,0Zm10.836-6.336a4.548,4.548,0,0,0-.742-.078,2.136,2.136,0,0,0-1.867.883L-31.008,0h-2.2l1.469-8.453,2.07-.008-.2,1.031a2.325,2.325,0,0,1,1.969-1.2,3.214,3.214,0,0,1,.766.109ZM-25.141,0h-2.219l1.469-8.453h2.219Zm-.492-10.6a1.1,1.1,0,0,1,.344-.867,1.209,1.209,0,0,1,.867-.344,1.215,1.215,0,0,1,.867.3,1.1,1.1,0,0,1,.383.828,1.132,1.132,0,0,1-.324.844,1.215,1.215,0,0,1-.887.375,1.235,1.235,0,0,1-.863-.3A1.091,1.091,0,0,1-25.633-10.6Zm2.781,6.367a5.849,5.849,0,0,1,1.277-3.184,3.242,3.242,0,0,1,2.629-1.2,2.37,2.37,0,0,1,2.016.977l.289-.82,2.023.008L-16-.289a3.983,3.983,0,0,1-1.437,2.672,4.471,4.471,0,0,1-3,.953,4.168,4.168,0,0,1-1.672-.379,3.575,3.575,0,0,1-1.312-1L-22.328.617a2.349,2.349,0,0,0,1.844.961,2.166,2.166,0,0,0,1.469-.449,2.4,2.4,0,0,0,.828-1.355l.125-.508a2.749,2.749,0,0,1-2.07.891,2.428,2.428,0,0,1-1.961-.918,3.947,3.947,0,0,1-.8-2.348A7.89,7.89,0,0,1-22.852-4.234Zm2.164.927a2.02,2.02,0,0,0,.309,1.178,1.08,1.08,0,0,0,.895.466,1.972,1.972,0,0,0,1.594-.767l.656-3.583a1.3,1.3,0,0,0-1.242-.767,1.728,1.728,0,0,0-1.43.681,3.561,3.561,0,0,0-.734,1.87A8.214,8.214,0,0,0-20.687-3.307Zm9.711-4.208A2.946,2.946,0,0,1-8.687-8.609a2.143,2.143,0,0,1,1.848.9A3.548,3.548,0,0,1-6.4-5.328L-7.289,0h-2.2l.9-5.358a2.6,2.6,0,0,0,.016-.563.885.885,0,0,0-.984-.868,1.9,1.9,0,0,0-1.562.766L-12.187,0h-2.2l2.078-12H-10.1ZM-1.1-10.531l-.367,2.078H-.062L-.352-6.8H-1.758l-.719,4.234a1.077,1.077,0,0,0,.063.609q.109.211.531.227.125.008.672-.039L-1.367-.039a3.706,3.706,0,0,1-1.266.18A1.985,1.985,0,0,1-4.25-.539a2.456,2.456,0,0,1-.437-1.8L-3.961-6.8h-1.2l.289-1.656h1.2l.359-2.078ZM3.766.156A3.677,3.677,0,0,1,1.8-.387,3.292,3.292,0,0,1,.523-1.855,4.093,4.093,0,0,1,.2-3.914l.023-.312A5.465,5.465,0,0,1,.938-6.492a4.341,4.341,0,0,1,1.547-1.59,3.827,3.827,0,0,1,2.094-.527,2.924,2.924,0,0,1,2.473,1.2,4.117,4.117,0,0,1,.637,2.962l-.125.962H2.383a1.814,1.814,0,0,0,.4,1.313,1.521,1.521,0,0,0,1.172.508A2.7,2.7,0,0,0,6.063-2.6L7.07-1.352A3.135,3.135,0,0,1,5.7-.23,4.5,4.5,0,0,1,3.766.156Zm.7-6.945a1.565,1.565,0,0,0-1.082.383,3.363,3.363,0,0,0-.848,1.383H5.57l.047-.2a2.071,2.071,0,0,0,.008-.594,1.134,1.134,0,0,0-.383-.707A1.2,1.2,0,0,0,4.469-6.789ZM11.7-8.461l-.187,1a3.042,3.042,0,0,1,2.461-1.148,2.028,2.028,0,0,1,1.766.875,3.526,3.526,0,0,1,.414,2.359L15.266,0h-2.2l.906-5.4a2.528,2.528,0,0,0,.016-.555.9.9,0,0,0-1-.82,1.9,1.9,0,0,0-1.555.8L10.375,0h-2.2L9.641-8.453ZM19.32,0H17.1L18.57-8.453h2.219Zm-.492-10.6a1.1,1.1,0,0,1,.344-.867,1.209,1.209,0,0,1,.867-.344,1.215,1.215,0,0,1,.867.3,1.1,1.1,0,0,1,.383.828,1.132,1.132,0,0,1-.324.844,1.215,1.215,0,0,1-.887.375,1.235,1.235,0,0,1-.863-.3A1.091,1.091,0,0,1,18.828-10.6Zm5.844,2.141-.187,1a3.042,3.042,0,0,1,2.461-1.148,2.028,2.028,0,0,1,1.766.875,3.526,3.526,0,0,1,.414,2.359L28.234,0h-2.2l.906-5.4a2.528,2.528,0,0,0,.016-.555.9.9,0,0,0-1-.82,1.9,1.9,0,0,0-1.555.8L23.344,0h-2.2l1.469-8.453Zm5.711,4.227A5.849,5.849,0,0,1,31.66-7.418a3.242,3.242,0,0,1,2.629-1.2,2.37,2.37,0,0,1,2.016.977l.289-.82,2.023.008L37.234-.289A3.983,3.983,0,0,1,35.8,2.383a4.471,4.471,0,0,1-3,.953,4.168,4.168,0,0,1-1.672-.379,3.575,3.575,0,0,1-1.312-1L30.906.617a2.349,2.349,0,0,0,1.844.961,2.166,2.166,0,0,0,1.469-.449,2.4,2.4,0,0,0,.828-1.355l.125-.508A2.749,2.749,0,0,1,33.1.156a2.428,2.428,0,0,1-1.961-.918,3.947,3.947,0,0,1-.8-2.348A7.89,7.89,0,0,1,30.383-4.234Zm2.164.927a2.02,2.02,0,0,0,.309,1.178,1.08,1.08,0,0,0,.895.466,1.972,1.972,0,0,0,1.594-.767L36-6.014a1.3,1.3,0,0,0-1.242-.767,1.728,1.728,0,0,0-1.43.681,3.561,3.561,0,0,0-.734,1.87A8.214,8.214,0,0,0,32.547-3.307ZM-35.773,48h-2.219l1.469-8.453H-34.3Zm-.492-10.6a1.1,1.1,0,0,1,.344-.867,1.209,1.209,0,0,1,.867-.344,1.215,1.215,0,0,1,.867.3,1.1,1.1,0,0,1,.383.828,1.132,1.132,0,0,1-.324.844,1.215,1.215,0,0,1-.887.375,1.235,1.235,0,0,1-.863-.3A1.091,1.091,0,0,1-36.266,37.4Zm5.844,2.141-.187,1a3.042,3.042,0,0,1,2.461-1.148,2.028,2.028,0,0,1,1.766.875,3.526,3.526,0,0,1,.414,2.359L-26.859,48h-2.2l.906-5.4a2.528,2.528,0,0,0,.016-.555.9.9,0,0,0-1-.82,1.9,1.9,0,0,0-1.555.8L-31.75,48h-2.2l1.469-8.453Zm9.758-2.07-.367,2.078h1.406l-.289,1.656H-21.32l-.719,4.234a1.077,1.077,0,0,0,.063.609q.109.211.531.227.125.008.672-.039l-.156,1.727a3.706,3.706,0,0,1-1.266.18,1.985,1.985,0,0,1-1.617-.68,2.456,2.456,0,0,1-.437-1.8l.727-4.461h-1.2l.289-1.656h1.2l.359-2.078ZM-15.8,48.156a3.677,3.677,0,0,1-1.965-.543,3.292,3.292,0,0,1-1.277-1.469,4.093,4.093,0,0,1-.328-2.059l.023-.312a5.465,5.465,0,0,1,.719-2.266,4.341,4.341,0,0,1,1.547-1.59,3.827,3.827,0,0,1,2.094-.527,2.924,2.924,0,0,1,2.473,1.2,4.117,4.117,0,0,1,.637,2.962l-.125.962h-5.18a1.814,1.814,0,0,0,.4,1.313,1.521,1.521,0,0,0,1.172.508A2.7,2.7,0,0,0-13.5,45.4l1.008,1.25a3.135,3.135,0,0,1-1.375,1.121A4.5,4.5,0,0,1-15.8,48.156Zm.7-6.945a1.565,1.565,0,0,0-1.082.383,3.363,3.363,0,0,0-.848,1.383h3.031l.047-.2a2.071,2.071,0,0,0,.008-.594,1.134,1.134,0,0,0-.383-.707A1.2,1.2,0,0,0-15.094,41.211Zm9.539.453a4.549,4.549,0,0,0-.742-.078,2.136,2.136,0,0,0-1.867.883L-9.141,48h-2.2l1.469-8.453,2.07-.008-.2,1.031a2.325,2.325,0,0,1,1.969-1.2,3.214,3.214,0,0,1,.766.109Zm3.969,6.492a3.677,3.677,0,0,1-1.965-.543,3.292,3.292,0,0,1-1.277-1.469,4.093,4.093,0,0,1-.328-2.059l.023-.312a5.465,5.465,0,0,1,.719-2.266,4.341,4.341,0,0,1,1.547-1.59,3.827,3.827,0,0,1,2.094-.527,2.924,2.924,0,0,1,2.473,1.2,4.117,4.117,0,0,1,.637,2.962l-.125.962h-5.18a1.814,1.814,0,0,0,.4,1.313,1.521,1.521,0,0,0,1.172.508A2.7,2.7,0,0,0,.711,45.4l1.008,1.25A3.135,3.135,0,0,1,.344,47.77,4.5,4.5,0,0,1-1.586,48.156Zm.7-6.945a1.565,1.565,0,0,0-1.082.383,3.363,3.363,0,0,0-.848,1.383H.219l.047-.2a2.071,2.071,0,0,0,.008-.594,1.134,1.134,0,0,0-.383-.707A1.2,1.2,0,0,0-.883,41.211Zm8.648,4.406q.125-.625-.867-.906l-.711-.18q-2.523-.7-2.453-2.453a2.428,2.428,0,0,1,1.059-1.949,3.942,3.942,0,0,1,2.457-.738,3.536,3.536,0,0,1,2.313.758,2.5,2.5,0,0,1,.9,1.977l-2.187-.008a.963.963,0,0,0-1.078-1.1,1.551,1.551,0,0,0-.895.258,1.061,1.061,0,0,0-.465.7q-.117.625.945.883l.313.07a6.285,6.285,0,0,1,1.648.59,2.488,2.488,0,0,1,.879.824,2.04,2.04,0,0,1,.285,1.18,2.251,2.251,0,0,1-.52,1.406,3.18,3.18,0,0,1-1.359.93,4.736,4.736,0,0,1-1.816.3,3.568,3.568,0,0,1-2.344-.809A2.607,2.607,0,0,1,2.914,45.3l2.078.016a1.142,1.142,0,0,0,1.3,1.227,1.845,1.845,0,0,0,1-.25A.988.988,0,0,0,7.766,45.617Zm7.625-8.148-.367,2.078H16.43L16.141,41.2H14.734l-.719,4.234a1.077,1.077,0,0,0,.063.609q.109.211.531.227.125.008.672-.039l-.156,1.727a3.706,3.706,0,0,1-1.266.18,1.985,1.985,0,0,1-1.617-.68,2.456,2.456,0,0,1-.437-1.8l.727-4.461h-1.2l.289-1.656h1.2l.359-2.078ZM18.57,48H16.352l1.469-8.453h2.219Zm-.492-10.6a1.1,1.1,0,0,1,.344-.867,1.323,1.323,0,0,1,1.734-.039,1.1,1.1,0,0,1,.383.828,1.132,1.132,0,0,1-.324.844,1.215,1.215,0,0,1-.887.375,1.235,1.235,0,0,1-.863-.3A1.091,1.091,0,0,1,18.078,37.4Zm5.844,2.141-.187,1A3.042,3.042,0,0,1,26.2,39.391a2.028,2.028,0,0,1,1.766.875,3.526,3.526,0,0,1,.414,2.359L27.484,48h-2.2l.906-5.4a2.528,2.528,0,0,0,.016-.555.9.9,0,0,0-1-.82,1.9,1.9,0,0,0-1.555.8L22.594,48h-2.2l1.469-8.453Zm5.711,4.227a5.849,5.849,0,0,1,1.277-3.184,3.242,3.242,0,0,1,2.629-1.2,2.37,2.37,0,0,1,2.016.977l.289-.82,2.023.008-1.383,8.164a3.983,3.983,0,0,1-1.437,2.672,4.471,4.471,0,0,1-3,.953,4.168,4.168,0,0,1-1.672-.379,3.575,3.575,0,0,1-1.312-1l1.094-1.344A2.349,2.349,0,0,0,32,49.578a2.166,2.166,0,0,0,1.469-.449,2.4,2.4,0,0,0,.828-1.355l.125-.508a2.749,2.749,0,0,1-2.07.891,2.428,2.428,0,0,1-1.961-.918,3.947,3.947,0,0,1-.8-2.348A7.89,7.89,0,0,1,29.633,43.766Zm2.164.927a2.02,2.02,0,0,0,.309,1.178,1.08,1.08,0,0,0,.895.466,1.972,1.972,0,0,0,1.594-.767l.656-3.583a1.3,1.3,0,0,0-1.242-.767,1.728,1.728,0,0,0-1.43.681,3.561,3.561,0,0,0-.734,1.87A8.214,8.214,0,0,0,31.8,44.693ZM-17.219,87.539l-.18.961a3.112,3.112,0,0,1,2.477-1.109,2.379,2.379,0,0,1,1.3.359,1.679,1.679,0,0,1,.7.93A3.255,3.255,0,0,1-10.3,87.391a2.126,2.126,0,0,1,1.754.8,3.271,3.271,0,0,1,.5,2.234l-.016.2L-8.969,96H-11.18l.9-5.4a3.908,3.908,0,0,0,.023-.54.837.837,0,0,0-.937-.845,1.86,1.86,0,0,0-1.555.97l-.023.18L-13.758,96h-2.2l.9-5.383a3.9,3.9,0,0,0,.023-.539.836.836,0,0,0-.93-.852,1.867,1.867,0,0,0-1.508.789L-18.531,96h-2.2l1.461-8.453ZM-3.2,96.156a3.677,3.677,0,0,1-1.965-.543,3.292,3.292,0,0,1-1.277-1.469,4.093,4.093,0,0,1-.328-2.059l.023-.312a5.465,5.465,0,0,1,.719-2.266,4.341,4.341,0,0,1,1.547-1.59,3.827,3.827,0,0,1,2.094-.527,2.924,2.924,0,0,1,2.473,1.2,4.117,4.117,0,0,1,.637,2.962l-.125.962h-5.18a1.814,1.814,0,0,0,.4,1.313,1.521,1.521,0,0,0,1.172.508A2.7,2.7,0,0,0-.906,93.4L.1,94.648A3.135,3.135,0,0,1-1.273,95.77,4.5,4.5,0,0,1-3.2,96.156Zm.7-6.945a1.565,1.565,0,0,0-1.082.383,3.363,3.363,0,0,0-.848,1.383H-1.4l.047-.2a2.071,2.071,0,0,0,.008-.594,1.134,1.134,0,0,0-.383-.707A1.2,1.2,0,0,0-2.5,89.211Zm8.219-3.742-.367,2.078H6.758L6.469,89.2H5.063l-.719,4.234a1.077,1.077,0,0,0,.063.609q.109.211.531.227.125.008.672-.039l-.156,1.727a3.706,3.706,0,0,1-1.266.18,1.985,1.985,0,0,1-1.617-.68,2.456,2.456,0,0,1-.437-1.8L2.859,89.2h-1.2l.289-1.656h1.2l.359-2.078Zm6.641,4.2a4.548,4.548,0,0,0-.742-.078,2.136,2.136,0,0,0-1.867.883L8.773,96H6.57l1.469-8.453,2.07-.008-.2,1.031a2.325,2.325,0,0,1,1.969-1.2,3.214,3.214,0,0,1,.766.109Zm3.969,6.492a3.677,3.677,0,0,1-1.965-.543,3.292,3.292,0,0,1-1.277-1.469,4.093,4.093,0,0,1-.328-2.059l.023-.312a5.465,5.465,0,0,1,.719-2.266,4.341,4.341,0,0,1,1.547-1.59,3.827,3.827,0,0,1,2.094-.527,2.924,2.924,0,0,1,2.473,1.2,4.117,4.117,0,0,1,.637,2.962l-.125.962h-5.18a1.814,1.814,0,0,0,.4,1.313,1.521,1.521,0,0,0,1.172.508,2.7,2.7,0,0,0,2.109-.937l1.008,1.25a3.135,3.135,0,0,1-1.375,1.121A4.5,4.5,0,0,1,16.328,96.156Zm.7-6.945a1.565,1.565,0,0,0-1.082.383,3.363,3.363,0,0,0-.848,1.383h3.031l.047-.2a2.071,2.071,0,0,0,.008-.594,1.134,1.134,0,0,0-.383-.707A1.2,1.2,0,0,0,17.031,89.211Zm-35.777,53.133a1.447,1.447,0,0,0,1.016-.332,1.632,1.632,0,0,0,.531-.926l2.07-.008a3.037,3.037,0,0,1-.559,1.6,3.394,3.394,0,0,1-1.344,1.109,3.847,3.847,0,0,1-1.77.375,3.123,3.123,0,0,1-2.437-1.062,3.965,3.965,0,0,1-.867-2.766l.023-.43.008-.086a5.284,5.284,0,0,1,1.391-3.27,3.761,3.761,0,0,1,2.914-1.16,3.047,3.047,0,0,1,2.27.934,3.3,3.3,0,0,1,.824,2.379H-16.73a1.73,1.73,0,0,0-.3-1.07,1.128,1.128,0,0,0-.891-.422q-1.578-.047-1.914,2.3a7.782,7.782,0,0,0-.086,1.438Q-19.84,142.32-18.746,142.344Zm8.484,1.813a3.677,3.677,0,0,1-1.965-.543,3.292,3.292,0,0,1-1.277-1.469,4.093,4.093,0,0,1-.328-2.059l.023-.312a5.465,5.465,0,0,1,.719-2.266,4.341,4.341,0,0,1,1.547-1.59,3.827,3.827,0,0,1,2.094-.527,2.924,2.924,0,0,1,2.473,1.2,4.117,4.117,0,0,1,.637,2.962l-.125.962h-5.18a1.814,1.814,0,0,0,.4,1.313,1.521,1.521,0,0,0,1.172.508,2.7,2.7,0,0,0,2.109-.937l1.008,1.25a3.135,3.135,0,0,1-1.375,1.121A4.5,4.5,0,0,1-10.262,144.156Zm.7-6.945a1.565,1.565,0,0,0-1.082.383,3.363,3.363,0,0,0-.848,1.383h3.031l.047-.2a2.071,2.071,0,0,0,.008-.594,1.134,1.134,0,0,0-.383-.707A1.2,1.2,0,0,0-9.559,137.211Zm7.234-1.672-.187,1a3.042,3.042,0,0,1,2.461-1.148,2.028,2.028,0,0,1,1.766.875,3.526,3.526,0,0,1,.414,2.359L1.238,144h-2.2l.906-5.4a2.528,2.528,0,0,0,.016-.555.9.9,0,0,0-1-.82,1.9,1.9,0,0,0-1.555.8L-3.652,144h-2.2l1.469-8.453Zm9.758-2.07-.367,2.078H8.473L8.184,137.2H6.777l-.719,4.234a1.077,1.077,0,0,0,.063.609q.109.211.531.227.125.008.672-.039l-.156,1.727a3.706,3.706,0,0,1-1.266.18,1.986,1.986,0,0,1-1.617-.68,2.456,2.456,0,0,1-.437-1.8l.727-4.461h-1.2l.289-1.656h1.2l.359-2.078Zm6.641,4.2a4.549,4.549,0,0,0-.742-.078,2.136,2.136,0,0,0-1.867.883L10.488,144h-2.2l1.469-8.453,2.07-.008-.2,1.031a2.325,2.325,0,0,1,1.969-1.2,3.213,3.213,0,0,1,.766.109Zm3.969,6.492a3.677,3.677,0,0,1-1.965-.543,3.292,3.292,0,0,1-1.277-1.469,4.093,4.093,0,0,1-.328-2.059l.023-.312a5.465,5.465,0,0,1,.719-2.266,4.341,4.341,0,0,1,1.547-1.59,3.827,3.827,0,0,1,2.094-.527,2.924,2.924,0,0,1,2.473,1.2,4.117,4.117,0,0,1,.637,2.962l-.125.962H16.66a1.814,1.814,0,0,0,.4,1.313,1.521,1.521,0,0,0,1.172.508,2.7,2.7,0,0,0,2.109-.937l1.008,1.25a3.135,3.135,0,0,1-1.375,1.121A4.5,4.5,0,0,1,18.043,144.156Zm.7-6.945a1.565,1.565,0,0,0-1.082.383,3.363,3.363,0,0,0-.848,1.383h3.031l.047-.2a2.071,2.071,0,0,0,.008-.594,1.134,1.134,0,0,0-.383-.707A1.2,1.2,0,0,0,18.746,137.211Zm-49.687,46.172a2.4,2.4,0,0,1,1.906.945l.828-4.328H-26l-2.078,12h-1.969l.125-.906a2.736,2.736,0,0,1-2.2,1.07,2.433,2.433,0,0,1-1.383-.414,2.607,2.607,0,0,1-.918-1.168,4.7,4.7,0,0,1-.355-1.7,6.4,6.4,0,0,1,.023-.953l.047-.352a6.767,6.767,0,0,1,.723-2.281,3.766,3.766,0,0,1,1.313-1.461A3.1,3.1,0,0,1-30.941,183.383Zm-1.6,4.547a6.327,6.327,0,0,0-.039,1q.078,1.375,1.109,1.4a1.885,1.885,0,0,0,1.617-.875l.6-3.359a1.248,1.248,0,0,0-1.219-.875,1.606,1.606,0,0,0-1.34.621A4.176,4.176,0,0,0-32.543,187.93Zm10.242,4.227a3.677,3.677,0,0,1-1.965-.543,3.292,3.292,0,0,1-1.277-1.469,4.093,4.093,0,0,1-.328-2.059l.023-.312a5.465,5.465,0,0,1,.719-2.266,4.341,4.341,0,0,1,1.547-1.59,3.827,3.827,0,0,1,2.094-.527,2.924,2.924,0,0,1,2.473,1.2,4.117,4.117,0,0,1,.637,2.962l-.125.962h-5.18a1.814,1.814,0,0,0,.4,1.313,1.521,1.521,0,0,0,1.172.508A2.7,2.7,0,0,0-20,189.4l1.008,1.25a3.135,3.135,0,0,1-1.375,1.121A4.5,4.5,0,0,1-22.3,192.156Zm.7-6.945a1.565,1.565,0,0,0-1.082.383,3.363,3.363,0,0,0-.848,1.383H-20.5l.047-.2a2.071,2.071,0,0,0,.008-.594,1.134,1.134,0,0,0-.383-.707A1.2,1.2,0,0,0-21.6,185.211Zm8.648,4.406q.125-.625-.867-.906l-.711-.18q-2.523-.7-2.453-2.453a2.428,2.428,0,0,1,1.059-1.949,3.942,3.942,0,0,1,2.457-.738,3.536,3.536,0,0,1,2.313.758,2.5,2.5,0,0,1,.9,1.977l-2.187-.008a.963.963,0,0,0-1.078-1.1,1.551,1.551,0,0,0-.895.258,1.061,1.061,0,0,0-.465.7q-.117.625.945.883l.313.07a6.285,6.285,0,0,1,1.648.59,2.488,2.488,0,0,1,.879.824,2.04,2.04,0,0,1,.285,1.18,2.251,2.251,0,0,1-.52,1.406,3.18,3.18,0,0,1-1.359.93,4.736,4.736,0,0,1-1.816.3,3.569,3.569,0,0,1-2.344-.809A2.607,2.607,0,0,1-17.8,189.3l2.078.016a1.142,1.142,0,0,0,1.3,1.227,1.845,1.845,0,0,0,1-.25A.988.988,0,0,0-12.949,189.617Zm11.273-1.82a6.981,6.981,0,0,1-.7,2.359,3.826,3.826,0,0,1-1.32,1.531,3.058,3.058,0,0,1-1.75.477,2.44,2.44,0,0,1-1.937-.914l-.773,4h-2.2l2.023-11.7,2.031-.008-.148.852a2.7,2.7,0,0,1,2.156-1,2.4,2.4,0,0,1,1.93.9,3.922,3.922,0,0,1,.734,2.363A9.133,9.133,0,0,1-1.676,187.8Zm-2.187-.16.047-.751a2.089,2.089,0,0,0-.277-1.205,1,1,0,0,0-.855-.462,1.818,1.818,0,0,0-1.586.814l-.633,3.49a1.233,1.233,0,0,0,1.242.822,1.59,1.59,0,0,0,1.328-.618A4.234,4.234,0,0,0-3.863,187.636Zm6.9,4.52a3.677,3.677,0,0,1-1.965-.543,3.292,3.292,0,0,1-1.277-1.469,4.093,4.093,0,0,1-.328-2.059l.023-.312a5.465,5.465,0,0,1,.719-2.266,4.341,4.341,0,0,1,1.547-1.59,3.827,3.827,0,0,1,2.094-.527,2.924,2.924,0,0,1,2.473,1.2,4.117,4.117,0,0,1,.637,2.962l-.125.962H1.652a1.814,1.814,0,0,0,.4,1.313,1.521,1.521,0,0,0,1.172.508,2.7,2.7,0,0,0,2.109-.937l1.008,1.25a3.135,3.135,0,0,1-1.375,1.121A4.5,4.5,0,0,1,3.035,192.156Zm.7-6.945a1.565,1.565,0,0,0-1.082.383,3.363,3.363,0,0,0-.848,1.383H4.84l.047-.2a2.071,2.071,0,0,0,.008-.594,1.134,1.134,0,0,0-.383-.707A1.2,1.2,0,0,0,3.738,185.211Zm9.539.453a4.549,4.549,0,0,0-.742-.078,2.136,2.136,0,0,0-1.867.883L9.691,192h-2.2l1.469-8.453,2.07-.008-.2,1.031a2.325,2.325,0,0,1,1.969-1.2,3.213,3.213,0,0,1,.766.109ZM17.887,192a2.281,2.281,0,0,1-.086-.766,2.863,2.863,0,0,1-2.156.922,2.594,2.594,0,0,1-1.84-.723,2.186,2.186,0,0,1-.684-1.746,2.527,2.527,0,0,1,1.16-2.121,5.266,5.266,0,0,1,2.965-.738l1.031.016.109-.508a1.764,1.764,0,0,0,.023-.492.846.846,0,0,0-.277-.574.955.955,0,0,0-.629-.215,1.345,1.345,0,0,0-.875.254,1.231,1.231,0,0,0-.461.777l-2.211.008a2.457,2.457,0,0,1,1.113-1.965,4.311,4.311,0,0,1,2.613-.738,3.117,3.117,0,0,1,2.25.855,2.5,2.5,0,0,1,.68,2.121l-.648,4.047-.039.5a2.412,2.412,0,0,0,.133.938l-.008.148Zm-1.7-1.555a2.017,2.017,0,0,0,1.664-.828l.273-1.461-.766-.008a2.139,2.139,0,0,0-1.758.742,1.292,1.292,0,0,0-.242.633.75.75,0,0,0,.176.668A.891.891,0,0,0,16.191,190.445Zm9.672-8.977-.367,2.078H26.9l-.289,1.656H25.207l-.719,4.234a1.077,1.077,0,0,0,.063.609q.109.211.531.227.125.008.672-.039l-.156,1.727a3.706,3.706,0,0,1-1.266.18,1.986,1.986,0,0,1-1.617-.68,2.456,2.456,0,0,1-.437-1.8L23,185.2h-1.2l.289-1.656h1.2l.359-2.078Zm4.867,10.688a3.677,3.677,0,0,1-1.965-.543,3.292,3.292,0,0,1-1.277-1.469,4.093,4.093,0,0,1-.328-2.059l.023-.312a5.465,5.465,0,0,1,.719-2.266,4.341,4.341,0,0,1,1.547-1.59,3.827,3.827,0,0,1,2.094-.527,2.924,2.924,0,0,1,2.473,1.2,4.117,4.117,0,0,1,.637,2.962l-.125.962h-5.18a1.814,1.814,0,0,0,.4,1.313,1.521,1.521,0,0,0,1.172.508,2.7,2.7,0,0,0,2.109-.937l1.008,1.25a3.135,3.135,0,0,1-1.375,1.121A4.5,4.5,0,0,1,30.73,192.156Zm.7-6.945a1.565,1.565,0,0,0-1.082.383,3.363,3.363,0,0,0-.848,1.383h3.031l.047-.2a2.071,2.071,0,0,0,.008-.594,1.134,1.134,0,0,0-.383-.707A1.2,1.2,0,0,0,31.434,185.211ZM-27.9,235.766a5.849,5.849,0,0,1,1.277-3.184,3.242,3.242,0,0,1,2.629-1.2,2.37,2.37,0,0,1,2.016.977l.289-.82,2.023.008-1.383,8.164a3.983,3.983,0,0,1-1.437,2.672,4.471,4.471,0,0,1-3,.953,4.168,4.168,0,0,1-1.672-.379,3.575,3.575,0,0,1-1.312-1l1.094-1.344a2.349,2.349,0,0,0,1.844.961,2.166,2.166,0,0,0,1.469-.449,2.4,2.4,0,0,0,.828-1.355l.125-.508a2.749,2.749,0,0,1-2.07.891,2.428,2.428,0,0,1-1.961-.918,3.947,3.947,0,0,1-.8-2.348A7.89,7.89,0,0,1-27.9,235.766Zm2.164.927a2.02,2.02,0,0,0,.309,1.178,1.08,1.08,0,0,0,.895.466,1.972,1.972,0,0,0,1.594-.767l.656-3.583a1.3,1.3,0,0,0-1.242-.767,1.728,1.728,0,0,0-1.43.681,3.561,3.561,0,0,0-.734,1.87A8.214,8.214,0,0,0-25.738,236.693Zm10.367,3.464a3.677,3.677,0,0,1-1.965-.543,3.292,3.292,0,0,1-1.277-1.469,4.093,4.093,0,0,1-.328-2.059l.023-.312a5.465,5.465,0,0,1,.719-2.266,4.341,4.341,0,0,1,1.547-1.59,3.827,3.827,0,0,1,2.094-.527,2.924,2.924,0,0,1,2.473,1.2,4.117,4.117,0,0,1,.637,2.962l-.125.962h-5.18a1.814,1.814,0,0,0,.4,1.313,1.521,1.521,0,0,0,1.172.508,2.7,2.7,0,0,0,2.109-.937l1.008,1.25a3.135,3.135,0,0,1-1.375,1.121A4.5,4.5,0,0,1-15.371,240.156Zm.7-6.945a1.565,1.565,0,0,0-1.082.383,3.363,3.363,0,0,0-.848,1.383h3.031l.047-.2a2.071,2.071,0,0,0,.008-.594,1.134,1.134,0,0,0-.383-.707A1.2,1.2,0,0,0-14.668,233.211Zm7.234-1.672-.187,1a3.042,3.042,0,0,1,2.461-1.148,2.028,2.028,0,0,1,1.766.875,3.526,3.526,0,0,1,.414,2.359L-3.871,240h-2.2l.906-5.4a2.528,2.528,0,0,0,.016-.555.9.9,0,0,0-1-.82,1.9,1.9,0,0,0-1.555.8L-8.762,240h-2.2l1.469-8.453Zm9.3,8.617a3.677,3.677,0,0,1-1.965-.543,3.292,3.292,0,0,1-1.277-1.469,4.093,4.093,0,0,1-.328-2.059l.023-.312a5.465,5.465,0,0,1,.719-2.266,4.341,4.341,0,0,1,1.547-1.59,3.827,3.827,0,0,1,2.094-.527,2.924,2.924,0,0,1,2.473,1.2,4.117,4.117,0,0,1,.637,2.962l-.125.962H.488a1.814,1.814,0,0,0,.4,1.313,1.521,1.521,0,0,0,1.172.508,2.7,2.7,0,0,0,2.109-.937l1.008,1.25A3.135,3.135,0,0,1,3.8,239.77,4.5,4.5,0,0,1,1.871,240.156Zm.7-6.945a1.565,1.565,0,0,0-1.082.383,3.363,3.363,0,0,0-.848,1.383H3.676l.047-.2a2.071,2.071,0,0,0,.008-.594,1.134,1.134,0,0,0-.383-.707A1.2,1.2,0,0,0,2.574,233.211Zm9.539.453a4.549,4.549,0,0,0-.742-.078,2.136,2.136,0,0,0-1.867.883L8.527,240h-2.2l1.469-8.453,2.07-.008-.2,1.031a2.325,2.325,0,0,1,1.969-1.2,3.213,3.213,0,0,1,.766.109ZM16.723,240a2.281,2.281,0,0,1-.086-.766,2.863,2.863,0,0,1-2.156.922,2.594,2.594,0,0,1-1.84-.723,2.186,2.186,0,0,1-.684-1.746,2.527,2.527,0,0,1,1.16-2.121,5.266,5.266,0,0,1,2.965-.738l1.031.016.109-.508a1.764,1.764,0,0,0,.023-.492.846.846,0,0,0-.277-.574.955.955,0,0,0-.629-.215,1.345,1.345,0,0,0-.875.254,1.231,1.231,0,0,0-.461.777l-2.211.008a2.457,2.457,0,0,1,1.113-1.965,4.311,4.311,0,0,1,2.613-.738,3.117,3.117,0,0,1,2.25.855,2.5,2.5,0,0,1,.68,2.121l-.648,4.047-.039.5a2.412,2.412,0,0,0,.133.938l-.008.148Zm-1.7-1.555a2.017,2.017,0,0,0,1.664-.828l.273-1.461-.766-.008a2.139,2.139,0,0,0-1.758.742,1.292,1.292,0,0,0-.242.633.75.75,0,0,0,.176.668A.891.891,0,0,0,15.027,238.445ZM22.559,240H20.34l2.086-12h2.211Z" transform="translate(639 925)" fill="#12263f"/>
  </g>
</svg>
