<svg xmlns="http://www.w3.org/2000/svg" xmlns:xlink="http://www.w3.org/1999/xlink" width="399.525" height="457.437" viewBox="0 0 399.525 457.437">
  <defs>
    <clipPath id="clip-path">
      <rect id="Rectángulo_338293" data-name="Rectángulo 338293" width="399.525" height="457.437" transform="translate(0 0)" fill="#fff" stroke="#707070" stroke-width="1"/>
    </clipPath>
    <clipPath id="clip-path-2">
      <rect id="Rectángulo_45065" data-name="Rectángulo 45065" width="226.149" height="456.352" fill="none"/>
    </clipPath>
  </defs>
  <g id="Enmascarar_grupo_422" data-name="Enmascarar grupo 422" transform="translate(0 0)" clip-path="url(#clip-path)">
    <g id="Grupo_174271" data-name="Grupo 174271" transform="translate(0.997 0)">
      <g id="Grupo_174265" data-name="Grupo 174265" transform="translate(0 3.662)">
        <g id="Grupo_174262" data-name="Grupo 174262" transform="translate(0 31.441)">
          <g id="Grupo_174244" data-name="Grupo 174244" transform="translate(0 0)">
            <g id="Grupo_174231" data-name="Grupo 174231" transform="translate(0 196.02)">
              <rect id="Rectángulo_44947" data-name="Rectángulo 44947" width="322.473" height="235.323" transform="translate(95.833)" fill="#ff9fa3"/>
              <path id="Trazado_212693" data-name="Trazado 212693" d="M135.231,0H418.306V135.231H0A135.231,135.231,0,0,1,135.231,0Z" transform="translate(0 100.092)" fill="#fc5f65"/>
            </g>
            <g id="Grupo_174535" data-name="Grupo 174535" transform="translate(90.039)">
              <g id="Grupo_174535-2" data-name="Grupo 174535" clip-path="url(#clip-path-2)">
                <path id="Trazado_180713" data-name="Trazado 180713" d="M168.057,97.061s27.324,11.146,39.482,60.489c9.384,38.082,15.4,82.273.134,98.146-18.846,19.594-64.765,7.4-63.955,1.722S168.057,97.061,168.057,97.061" transform="translate(9.159 6.186)" fill="#361524"/>
                <path id="Trazado_180714" data-name="Trazado 180714" d="M58.637,93.536s-24.318,6.688-36.071,36.678S-4.183,212.082,1.086,231.536s20.669,27.155,36.881,23.506,55.009-29.18,57.09-37.691S58.637,93.536,58.637,93.536" transform="translate(0 5.961)" fill="#361524"/>
                <path id="Trazado_180715" data-name="Trazado 180715" d="M56.595,357.884,78.887,98.229,73.01,88.774s-27.356,4.863-35.462,25.533c-6.5,16.577-24.211,179.645-30.968,243.577Z" transform="translate(0.419 5.658)" fill="#361524"/>
                <path id="Trazado_180716" data-name="Trazado 180716" d="M181.923,314.4S157,271.846,155.175,271.846L30.549,304.979V439.027h64.44l10.024-70.52,14.294,70.52h65.048Z" transform="translate(1.947 17.325)" fill="#942f51"/>
                <path id="Trazado_180717" data-name="Trazado 180717" d="M100.831,353.4a8.1,8.1,0,0,1-5.058-1.93c-3.682-2.98-5.81-8.872-6.326-17.513a348.871,348.871,0,0,1,0-38.68.608.608,0,0,1,1.214.08,347.347,347.347,0,0,0,0,38.527c.616,10.322,3.536,14.746,5.877,16.642a6.546,6.546,0,0,0,4.672,1.639.608.608,0,0,1,.182,1.2,4.027,4.027,0,0,1-.561.033" transform="translate(5.666 18.782)" fill="#361524"/>
                <path id="Trazado_180718" data-name="Trazado 180718" d="M100.594,365.86a.608.608,0,0,1-.608-.608V304.459a.608.608,0,0,1,1.217,0v60.792a.608.608,0,0,1-.608.608" transform="translate(6.372 19.364)" fill="#361524"/>
                <path id="Trazado_180719" data-name="Trazado 180719" d="M132.152,15.734c-4.183-6.388-13.129-8.259-20.476-7.5C110.225,3.487,104.388.555,99.525.079a16.839,16.839,0,0,0-13.7,5.109,9.152,9.152,0,0,0-3.206-.58c-4.751,0-8.6,3.577-8.6,7.99a7.631,7.631,0,0,0,2.111,5.232c.062.365-2.981,6.29,2.96,12.283,5.464,4.4,12.431,1.04,17.124-2.731a.513.513,0,0,0,.172-.639c5.579-2.768,12.2-3.519,18.015-1.009,6.513,2.808,8.738,10.029,14.128,14.193q-.774,2.626-1.565,5.246c-.244.805,1.975,5.558,2.218,4.756,1.72-5.691,4.037-14.945,4.641-20.863.533-5.218.84-9.5-1.671-13.333" transform="translate(4.717 0)" fill="#942f51"/>
                <path id="Trazado_180720" data-name="Trazado 180720" d="M128.038,90.771,113.22,101l-17.74-9.666.887-9.809.834-9.3.287-3.157,24.157-23.74.3,2.126,1.487,10.592.079.587Z" transform="translate(6.085 2.889)" fill="#ffa6a6"/>
                <path id="Trazado_180721" data-name="Trazado 180721" d="M124.222,59.971a3.685,3.685,0,0,1-.144.4,33.049,33.049,0,0,1-3.443,6.978c-5.231,7.854-14.3,10.241-22.645,6.8-.535-.221-1.069-.456-1.591-.73-7.279-3.7-10.722-10.605-12.2-18.5a92.78,92.78,0,0,1-.417-25.305c.013-.144.039-.287.065-.431C84.96,22.6,96.8,13.365,105.622,15.361s18.209,8.752,20.387,10.592c1.813,1.526,3.183,20.049-1.787,34.019" transform="translate(5.297 0.961)" fill="#ffa6a6"/>
                <path id="Trazado_180722" data-name="Trazado 180722" d="M116.311,66.319a26.014,26.014,0,0,1-11.844,10.866,40.358,40.358,0,0,1-8.152,3l.834-9.3a28.208,28.208,0,0,0,11.557-1.148c5.465-1.852,7.409-3.274,7.6-3.418" transform="translate(6.138 4.227)" fill="#361524"/>
                <path id="Trazado_180723" data-name="Trazado 180723" d="M92.114,40.842a1.333,1.333,0,0,0-.4-.353.933.933,0,0,0-.861-.02,1.492,1.492,0,0,0-.69,1.108,4.452,4.452,0,0,0,.585,3.087,1.12,1.12,0,0,0,2.127-.255,3.048,3.048,0,0,0,.073-1.236,5.745,5.745,0,0,0-.5-1.764,2.878,2.878,0,0,0-.336-.567" transform="translate(5.742 2.573)" fill="#361524"/>
                <path id="Trazado_180724" data-name="Trazado 180724" d="M105.913,40.563a1.315,1.315,0,0,0-.408-.346.929.929,0,0,0-.861-.005,1.491,1.491,0,0,0-.67,1.12,4.448,4.448,0,0,0,.638,3.076,1.12,1.12,0,0,0,2.122-.293,3.037,3.037,0,0,0,.052-1.237,5.733,5.733,0,0,0-.528-1.754,2.844,2.844,0,0,0-.346-.562" transform="translate(6.623 2.556)" fill="#361524"/>
                <path id="Trazado_180725" data-name="Trazado 180725" d="M99.209,52.213a.6.6,0,0,1-.416-.165,6.162,6.162,0,0,1-1.731-2.7c-.221-1.191,1.162-4.472,1.59-5.449a.608.608,0,1,1,1.113.488c-.806,1.839-1.613,4.174-1.507,4.74a5.115,5.115,0,0,0,1.367,2.033.608.608,0,0,1-.416,1.051" transform="translate(6.184 2.775)" fill="#361524"/>
                <path id="Trazado_180726" data-name="Trazado 180726" d="M112.656,35.389a1.845,1.845,0,0,0-.071-.185,2.652,2.652,0,0,0-1-1.081,7.241,7.241,0,0,0-3.448-1,9.372,9.372,0,0,0-3.106.2c-1.206.316-4.1,1.893-2.542,3.448a3.283,3.283,0,0,0,1.868.742,17.156,17.156,0,0,0,6.882-.207,2.154,2.154,0,0,0,1.257-.684,1.409,1.409,0,0,0,.161-1.236" transform="translate(6.503 2.108)" fill="#942f51"/>
                <path id="Trazado_180727" data-name="Trazado 180727" d="M85.843,36.815A2.148,2.148,0,0,0,87.1,37.5a17.169,17.169,0,0,0,6.881.208,3.29,3.29,0,0,0,1.868-.742c1.562-1.554-1.336-3.132-2.542-3.449a9.373,9.373,0,0,0-3.106-.2,7.253,7.253,0,0,0-3.449,1,2.65,2.65,0,0,0-1,1.081,1.515,1.515,0,0,0,.089,1.421" transform="translate(5.456 2.12)" fill="#942f51"/>
                <path id="Trazado_180728" data-name="Trazado 180728" d="M99.779,56.756c-2.7,0-3.722-.9-3.854-1.03a.608.608,0,0,1,.84-.879c.044.037,1.37,1.122,5.284.5a11.056,11.056,0,0,0,6.441-3.528.608.608,0,0,1,.952.756,12.166,12.166,0,0,1-7.2,3.972,15.506,15.506,0,0,1-2.463.213" transform="translate(6.102 3.287)" fill="#361524"/>
                <path id="Trazado_180729" data-name="Trazado 180729" d="M126.349,24.174c-1.64-2.332-12.131-8.8-20.962-10.781S84.219,20.5,83.111,27.089c-.027.143.474,4.1.462,4.24a31.337,31.337,0,0,0,8.77-.816,23.22,23.22,0,0,0,10.135-5.936,13.661,13.661,0,0,0,6.847.222c4.018-.757,8.753-1.84,11.114,2.53,1.918,3.549,3.783,33.3,3.861,33.354,0,0,11.409-23.2,2.048-36.51" transform="translate(5.297 0.836)" fill="#942f51"/>
                <path id="Trazado_180730" data-name="Trazado 180730" d="M159.43,92.944s-.1,1.617-.28,4.5c-.026.389-.05.79-.073,1.216-.049.779-.1,1.63-.159,2.541-.024.389-.049.8-.085,1.216-.365,5.861-.864,14.019-1.435,23.381-.036.4-.061.8-.085,1.216-.316,5.277-.668,10.906-1.021,16.694-.036.4-.061.815-.085,1.216-.11,1.812-.218,3.623-.329,5.459-.022.4-.048.8-.072,1.216-.474,7.818-.949,15.77-1.4,23.381-.036.414-.06.815-.072,1.216-.291,4.778-.571,9.411-.827,13.776-.013.413-.037.814-.062,1.216-.17,2.93-.328,5.739-.472,8.389-.026.414-.05.815-.073,1.216-.646,11.49-1.071,19.782-1.071,21.788,0,.378,0,.913-.012,1.594,0,.365-.013.766-.013,1.216-.023,2.5-.085,6.261-.17,10.857-.012.4-.012.8-.023,1.216-.062,3.4-.122,7.222-.207,11.307,0,.4-.012.815-.024,1.216-.121,7.307-.28,15.38-.437,23.381,0,.414-.013.815-.013,1.216-.048,2.663-.109,5.325-.156,7.928-.014.4-.014.814-.026,1.216-.1,5.009-.195,9.824-.28,14.237-.012.414-.012.815-.024,1.216-.255,12.572-.437,21.582-.437,21.582H25.783l2.99-21.582.171-1.216,1.968-14.237.171-1.216,1.095-7.928.169-1.216,3.248-23.381.17-1.216,1.569-11.307.169-1.216,1.507-10.857.171-1.216,3.234-23.382.169-1.216,1.168-8.389.171-1.216,1.908-13.776.1-.693s.048-.183.156-.523c.67-2.261,3.467-11.623,6.993-23.381.121-.4.243-.8.364-1.216q.785-2.663,1.629-5.459c.122-.4.245-.8.365-1.216,1.618-5.435,3.32-11.126,4.986-16.694.122-.4.244-.814.364-1.216,2.591-8.632,5.071-16.9,7.016-23.381.121-.413.244-.815.353-1.216.267-.887.521-1.738.766-2.541.134-.413.254-.815.365-1.216,1.507-5,2.456-8.11,2.505-8.207.606-1.216,30.445-4.961,30.445-4.961s7.5,4.1,15.174,3.49,14.09-6.31,14.09-6.31Z" transform="translate(1.643 5.191)" fill="#fff"/>
                <path id="Trazado_180731" data-name="Trazado 180731" d="M156.4,100.017c-.026.389-.05.8-.085,1.216H65.286c.121-.414.243-.815.352-1.216Z" transform="translate(4.161 6.374)" fill="#ffc29e"/>
                <path id="Trazado_180732" data-name="Trazado 180732" d="M155.324,123.14c-.036.4-.061.8-.085,1.216H58.347c.122-.4.244-.815.365-1.216Z" transform="translate(3.719 7.848)" fill="#ffc29e"/>
                <path id="Trazado_180733" data-name="Trazado 180733" d="M154.244,146.252c-.024.4-.049.8-.072,1.216H51.443c.122-.4.244-.8.365-1.216Z" transform="translate(3.279 9.321)" fill="#ffc29e"/>
                <path id="Trazado_180734" data-name="Trazado 180734" d="M153.207,169.375c-.036.414-.061.815-.073,1.216H44.631l.1-.692s.049-.183.159-.523Z" transform="translate(2.844 10.794)" fill="#ffc29e"/>
                <path id="Trazado_180735" data-name="Trazado 180735" d="M151.977,192.5c-.024.414-.049.815-.073,1.216H41.419l.17-1.216Z" transform="translate(2.64 12.268)" fill="#ffc29e"/>
                <path id="Trazado_180736" data-name="Trazado 180736" d="M151.026,215.622c0,.365-.012.766-.012,1.216H38.218l.17-1.216Z" transform="translate(2.436 13.742)" fill="#ffc29e"/>
                <path id="Trazado_180737" data-name="Trazado 180737" d="M150.818,238.745c0,.4-.012.815-.024,1.216H35.007l.17-1.216Z" transform="translate(2.231 15.215)" fill="#ffc29e"/>
                <path id="Trazado_180738" data-name="Trazado 180738" d="M150.56,261.868c0,.414-.012.815-.012,1.216H31.794l.17-1.216Z" transform="translate(2.026 16.689)" fill="#ffc29e"/>
                <path id="Trazado_180739" data-name="Trazado 180739" d="M150.29,284.991c-.012.414-.012.815-.026,1.216H28.6l.17-1.216Z" transform="translate(1.822 18.162)" fill="#ffc29e"/>
                <path id="Trazado_180740" data-name="Trazado 180740" d="M200.59,358.144c-3.8-65.277-13.828-234.013-16.765-246.414-3.648-15.4-50.468-27.044-50.468-27.044s-.194,44.877-3.841,102.833c-2.671,42.44-1.43,127.9-.574,170.625Z" transform="translate(8.151 5.397)" fill="#361524"/>
                <path id="Trazado_180741" data-name="Trazado 180741" d="M167.025,140.225l.284-.2-.1-.072c-.063.093-.126.184-.187.277m.095-7.941.545.161q.061-.842.12-1.684-.332.763-.665,1.523m.716-1.638h0l-.036-.091q.377-1.112.752-2.224l-4.118-.771c-.072.28-.145.558-.216.838l3.577,2.223c0,.047-.007.094-.011.14Zm.238-8.658h0l.133.164c-.028-.035-.062-.077-.133-.164m6.069,34.429a1.572,1.572,0,0,0,.051.293,4.528,4.528,0,0,0,.548-.056,1.505,1.505,0,0,0-.052-.289,4.507,4.507,0,0,0-.547.053m-6.42-13.927c.082.473.224.936.352,1.4l.614-.153q-.168-.739-.333-1.475a3.537,3.537,0,0,0-.633.228m.351-20.5h0c.03.273.049.439,0,0M174.205,137a3.666,3.666,0,0,0-.408.447c-.024.035.128.266.17.257a3.007,3.007,0,0,0,.535-.2c-.1-.17-.2-.338-.3-.507m-14.282-5.508-2.475,1.822q2.232,4.059,4.454,8.1l1.951-3.885c-4.991.846-3.585-3.181-3.929-6.032m4.164,5.937h2.272l-.6-1.322-1.672,1.322m-.235.1c.048-.007.087-.008.137-.018l.1-.078H163.9l-.048.1m-9.121-4.153c-.7,3.065-2.463,2.123-5.145.824,3.3,2.9,4.227,2.755,5.714.322.356-.584,1.289-.814,2.006-1.176-.872-1.829-2.266-1.321-2.575.03m2.575-.03c.01.02.021.032.032.053l.11-.081-.017-.031c-.038.021-.084.038-.124.059m13.246-7.5q.1.514.2,1.025l.019.024.416.213c.013-.083.024-.165.037-.247l-.458.01c-.07-.341-.139-.683-.21-1.025M170.3,124.6l-.085-.02.1.111q.118.578.237,1.153-.109-.565-.216-1.131Zm2.563,23.512.686-1.13-.59-.224-.1,1.354m-.262.13.144.065h0l.1,0c0-.065.009-.129.014-.193-.035.056-.069.113-.1.17Zm-1.68-19c.029-.073-.051-.189-.082-.285-.107,0-.214,0-.32,0,.051.158.1.317.154.474.086-.062.215-.109.248-.191m-.677,15.939.668.4q.137-.273.273-.547c-.17-.105-.364-.316-.505-.286-.169.036-.293.28-.436.434m-3.049-26.566a10.934,10.934,0,0,0,.835,3.118l.749-2,1.383-.064c-.543-1.239-1.086-2.481-1.688-3.854-.546,1.124-1.266,1.956-1.279,2.8m3.074,1.051h0l-.107.005c.011.023.021.047.031.07l.216.14c-.047-.071-.093-.144-.139-.216m.846.677-.706-.461q.223.348.449.7c.085-.079.171-.156.257-.235m-3.039,1.653c-.007-.062-.014-.126-.022-.193-.006-.023-.016-.047-.023-.07-.018.047-.035.095-.053.141l.1.121m2.418,35.432c-.03.1-.06.194-.09.289l.416.04c-.015-.1,0-.228-.054-.293s-.177-.028-.271-.037m-2.241-8.457c-.041.257-.074.47-.109.682a1.7,1.7,0,0,0,.431.033.383.383,0,0,0,.048-.305,2.546,2.546,0,0,0-.37-.41m-28.9-51.456,2.533,2.288,0,.094c1.753-3.76-1.194-2.151-2.53-2.382m-2.076-1.9-.067.066,1.689,1.6a.727.727,0,0,0,.454.23L139,97.188l-1.723-1.577m8.184,9.49-.314-.014.224.249.089-.235M137.2,95.548l.006.129.067-.066-.073-.063m7.987,21.929-.111-.022a.125.125,0,0,1,.006.021l.293.036ZM143.873,106.9q.568-.908,1.135-1.818l.139.006-.086-.1-2.248.155-.145.171.221-.113.983,1.693m-1.2,10.082,2.409.474q-.2-.613-.395-1.225l-2.015.751m-1.923-2.649.319-.527-1.449-.5,1.13,1.025m-3.631-23.019-.13-.1-.1-.022-2.359-2.771c-.638,1.681-1.006,2.654-1.385,3.651l4.058,3.479q-.108-2.152-.215-4.3l.128.069m.946,16.992c.533.393,1.111.724,1.677,1.069l.524-.749-1.727-1.154a7.346,7.346,0,0,0-.474.834m.732,4.056.452.558-.153-.634-.3.076m2.94,22.072c.053.213.127.42.2.629l.4-.185c-.108-.183-.216-.366-.329-.546a2.205,2.205,0,0,0-.267.1m-2.488-21.514.068.283.3.1-.219-.2-.152-.188m19.925,41.629.387.029.1-1.048-.439-.032c-.017.35-.034.7-.05,1.051m5.648-3.529-.671-.792-.1-.028.039.1.655.794,1.094.961.379.441-.305-.5Zm-6.443-3.673q.4-.4.8-.8l-.067-.066-.8.782-1.009.942.026.042.044.013q.506-.456,1.011-.914m.68-4.98a2.892,2.892,0,0,0,.51.189c.03.006.173-.231.141-.295a2.7,2.7,0,0,0-.366-.481c-.1.2-.19.391-.285.586m3.185,15.345.263-.079-.22-.138Zm-7.074-10.1,2.448,3.041.807-.588q-.549-.906-1.1-1.813l-2.155-.64m8.308,2.437.57.155-.214-.554-.356.4m-18.228-3.392c.258.38.816.555,1.246.819l.425-.443-1.566-2.55c-.09,1.349-.295,1.895-.105,2.173m4.817-22.841-1.995.481.272,0-.186.06c-.076.1-.189.181-.217.289a.548.548,0,0,0,.052.345c.745.056,1.491.088,2.238.126q-.083-.648-.165-1.3m2.558,21.743.137-.307h-.283Zm.619,10.3.211.01-.1-.212Zm.792-12.52.34.236.176.153c-.04-.059-.08-.117-.12-.174l-.4-.215m.676-3.7.011-.213-.227.1Zm31.324-27.384.082.053-1.1.7-1.1-.484,1.179.579,1.106-.749Zm4.328,15.616.088.018-.05-.077-.038-.005Zm-2.753-3.878.144.038.086-.034,0,0Zm2.791,3.82,3.738.464.179-.541-5.553-2.493q.819,1.286,1.636,2.571m-3.924-3.82h1.133l-1.083-.291Zm7.988,24.618.2.024-.077-.213Zm-5.828-23.561c-.014.038-.027.077-.04.116l.169.076-.085-.133-.044-.059m-.8-1.053.8,1.053q.281-.8.56-1.6l-1.356.546m2.977,18.848a3.4,3.4,0,0,0,.414.386c.062-.089.122-.18.185-.271l-.434-.386c-.058.094-.187.243-.165.271m1.486-6.3a.924.924,0,0,0-.625.655c-.022.2.376.608.6.621s.505-.331.864-.6c-.356-.307-.608-.691-.842-.681m-6.472-2.682a.47.47,0,0,0-.1-.222c-.028.133-.054.267-.081.4.065-.06.182-.118.183-.179m.062-4.47h-.022L185.7,133.6c.006.013.016.026.024.039,0-.021.008-.041.012-.063l2.3-3.284q.785,1.141,1.583,2.3l.738-.236v-4.485a22.759,22.759,0,0,0-3.151-.562c-1.626-.081-2.374.524-1.319,2.086m7.756,27.815c-.17-.048-.4.118-.6.191l.34.52c.21-.072.417-.146.625-.219-.118-.173-.207-.449-.362-.492m9.964-6.259,0,0v-.007q.139-.9.279-1.805c-.17,0-.341-.005-.512-.006q.115.906.231,1.814v0m-4.654-15.97-.128.033.129-.011.017.408.006-.41Zm.347,14.35.07-.229-.127.143c.382,1.55.763,3.1,1.416,5.758l2.947-4.051-4.306-1.621m-.265-12.413-.064-1.506q-.01.782-.021,1.563l-.148.1.148-.1.085-.061h0Zm4.4,18.258c.02.086.126.151.193.227l.166-.428-.282-.081c-.029.095-.1.2-.077.282m-65.891-50.923.3.14c-.052-.146-.1-.291-.155-.437l-.143.3m52.526,51.182c.062-.078.172-.155.173-.234s-.1-.174-.173-.3Zm6.694-.351.153.08-.034-.254Zm-.447,3.913c.105.019.235.082.307.043s.093-.184.135-.282c-.078-.071-.155-.144-.232-.216l-.211.455m-1.384-24.3c-.182.02-.338.273-.5.422.15.147.334.44.433.414.206-.054.366-.28.545-.434-.16-.145-.333-.418-.474-.4m.288,6.393-.022-.026-.6-.217.607.252q.059.755.117,1.51l-.257.054.261-.009.032-.053q-.056-.744-.111-1.486l-.022-.027m2.477-5.8,1.122-.283-1.154.09.032.193m-.263,9.315c.037.294.073.586.112.88l.064.028.183-.206-.2.14-.163-.841M183.8,142.583c.085.193.126.479.273.553.129.065.378-.11.573-.178l-.383-.773-.464.4m-4.96-2.4c.026.093.147.157.226.235.068-.126.135-.251.2-.375l-.3-.122c-.047.088-.148.193-.129.263M177.3,121.67l-.32.187a.4.4,0,0,0,.124-.006c.077-.022.132-.118.2-.181m-3.46-6.314-1.818,2.325c.979,1.092,1.783,1.988,2.583,2.882v-5.055l-.765-.152m3.14,6.5c-.064,0-.13-.013-.194-.017.012.03.022.059.033.088.016,0,.03-.007.046-.005l.115-.066m.5,14.821-.8,1.185,1.3-.347q-.247-.42-.5-.838m5.071-17.958H178.72c1.88,3.089,2.815,2.062,3.834,0m-6.127,3.25-.006,0L174.6,120.73l.07-.089-.07-.078v.128l-3.629,2.585,7.165,2.161c-.4-1.069-.862-2.288-1.321-3.508a.757.757,0,0,0-.391.041m-1.024.685c-.054-.13-.107-.261-.161-.391l1-.169-.838.561m-2.753,12.557,3.049-3.506c-2.717-.144-3,1.595-3.049,3.506m-.7.875.687-.652c0-.074.006-.148.009-.223-.036.041-.072.084-.109.124l-.587.751m5.7-8.2-2.6-.89-.468,1.07c.937.17,1.873.35,2.815.484a3.217,3.217,0,0,0,.253-.664m-1.615,14.844a2.263,2.263,0,0,0,.185.239,5.39,5.39,0,0,0,.465-.329,1.848,1.848,0,0,0-.187-.236,5.257,5.257,0,0,0-.463.326m.636-4.862h0l-.014.034q-.059.7-.119,1.4l.223-.007-.089-1.416.009-.013-.01,0m10.148,3.982.274.1-.053-.244Zm-.34,16.831c-.029.063.05.176.082.267.091-.035.227-.048.261-.113s-.053-.174-.086-.265c-.089.035-.227.048-.256.111m2.18-14.122.556.059.1-.317a3.1,3.1,0,0,0-.557-.043c-.039,0-.063.2-.095.3m-5.732-32.468.991.436-.917-.451ZM181.89,143.77l.165.393c.077-.051.2-.091.215-.157s-.068-.167-.109-.252l-.271.017m3.584-6.194-.156.076.22-.081.044,0-.01-.008Zm.107-.01c2.226,1.947,2.39,1.926,3.609-.294l-3.609.294m-1.322,17.854.229-.1-.219-.107Zm.18-32.442c-.132.137-.385.294-.366.4.031.177.241.32.376.479.138-.135.4-.294.385-.4-.031-.174-.248-.316-.395-.481m-3,12.77.211.9,1.822-.653q-.088-.3-.173-.6l-1.859.36m3.068-3.069-.274.084.239.148Zm-10.455,11.968c.03.228-.016.585.105.655a3.36,3.36,0,0,0,.973.234c-.051-.377-.024-.762-.121-.8a3.628,3.628,0,0,0-.957-.093m-10.2-49.187-2.387,2.925c2.957-.663,2.957-.663,2.387-2.925m13.872,20.282-.281-.48q-.6.33-1.2.66l.32.55,1.162-.73m-14.047-.427.08,0c-.01-.023-.02-.046-.03-.068l-.076-.01.026.073m8.286-1.459,3.4-2.557-1.946-2.834c-.48,1.775-.874,3.239-1.456,5.391m-37.967,21.232,1.481,1.15c.119-.115.237-.23.356-.344q-.651-.578-1.3-1.153l-.534.347m41.473-23.868-.089.1.269.13-.18-.232m4.919,14.233c-.2-.079-.46-.27-.595-.205-.152.072-.195.374-.285.577.2.079.458.273.575.208.16-.089.207-.377.3-.58m-3.433-13.367-1.306-.634q.436.565.87,1.131c.146-.166.29-.332.436-.5m5.181,20.24c.184-1.844.344-3.439.557-5.576l-3.655,2.8,3.1,2.774m8.976-8.731,2.252,1.332q.364-.646.729-1.294l-2.5-1Zm-4.284-4.175-.048.072,0,.133.029-.114h0c.007-.03.014-.061.02-.093m1,.861q-.511-.385-1.023-.767-.148.7-.3,1.405l.112-.041,1.211-.6m-1.211.6-.112.041c-.021.028-.041.056-.062.084l.173-.126M175.359,111.3l.015.023.089-.1-.1.079m-16.209-6.188c.213.041.506-.335.863-.6-.294-.331-.6-.813-.708-.771a3.709,3.709,0,0,0-.934.7c.256.237.487.61.78.666m4.707-4.256-.207-.66-3.825,1.207.353,1.081,3.679-1.629m-3.28-5.507c-.068-.065-.13-.173-.2-.182s-.167.076-.252.119l.2.195.252-.132m-1.322,17.5c-.063.1-.2.254-.178.281a3.5,3.5,0,0,0,.429.391l.207-.263-.458-.41m12.13,1.935-.307,0,.179.265Zm-9.412-6.487.795.243,1.571-4.1-.991-.455q-.688,2.156-1.374,4.31m4.412,6.655-2.921-2.046-.543.547q.4.9.8,1.8l2.433.317c.077-.205.154-.41.232-.615m1.853-1.922a.449.449,0,0,0-.088-.1c.015.1.03.205.046.307.016-.071.067-.158.043-.21m-1.6-3.208c-.06-.154-.351-.218-.542-.321q-.12.306-.241.615l.566.286c.082-.2.273-.436.218-.58m1.512,3.11c-.01-.068-.02-.137-.031-.205L168,112.7l.031.108c.039.041.074.086.115.128m-1.413-.573L168,112.7q-.206-.716-.413-1.432l-.854,1.095M167.61,100q-.041-.42-.081-.839l-1.623.37c.024.156.05.313.074.469Zm11.36,13.325a31.68,31.68,0,0,0,3.713,2.556c-.9-1.634-1.464-2.819-2.2-3.891-.22-.323-.906-.331-1.378-.482-.065.624-.417,1.563-.14,1.817M134.13,124.044q-.038.616-.076,1.231l.465.055q.116-.619.234-1.238l-.623-.048m56.162-6.4-.883.753,1.708,1.218-.825-1.971m-11.4-8.918c-.082-2.865-.875-3.2-5.534-1.912l5.534,1.912M191.3,119.819c.006-.021.013-.04.02-.062l-.2-.144c.035.082.069.165.1.248l.078-.043m-12.353-11.076,1.57.449h-.083l4.006.763c-1.453-1.588-2.862-2.985-4.2-4.219l.115.464.1.013-1.518,2.525-.038-.014,0,.072Zm-10.3-.246c-.045.628,1.111,1.34,1.817,2.126.831-2.607,1.468-4.607,2.1-6.6-2.617.317-3.752,2.109-3.919,4.472m18.465,7.807a2.919,2.919,0,0,1,1.239-1.714c-.162-.208-.323-.41-.485-.612-.606.63-1.221,1.271-1.893,1.971.516.162,1.131.375,1.139.354m15.459,23.815c-.221-.566-.447-1.118-.672-1.669-.557.547-.582,1.462-.082,2.74l.754-1.071m-.821,1.316.1-.141c-.015-.037-.021-.067-.035-.1l-.017.024Zm-3.486-11-.024.01.061.061c-.012-.023-.023-.047-.036-.07m-5.26-9.27q-.55-.855-1.1-1.674l-.6.324-.29.913,2,.437m3.3,5.549a8.733,8.733,0,0,0-.087,5.937l1.587-3.125c-.5-.966-1-1.9-1.5-2.811m-23.741-22.693c.036-.005.066-.016.1-.019l-.038-.061-.037-.006c-.01.029-.019.057-.028.086m-40.148,13.857v0l2.637-.215-.041-.05.041.05.051-.123-.144.012-2.544.322m-.061,2.008.455.234c-.153-.51-.288-.963-.42-1.4-.012.385-.023.777-.035,1.167m1.126-20.129.415-.7-.805-.558c-.055.119-.151.257-.216.381,0,.1,0,.2-.005.3a3.515,3.515,0,0,0,.612.574m2.646,17.675-.7-.658c-.106.256-.214.514-.321.77l1.085-.088.171.066-.128-.069ZM133.3,110.1l.186-.2-.268-.049ZM169.925,98.5c-.055-.081-.1-.208-.169-.229s-.19.052-.287.085c0,.1.01.191.014.288l.442-.145m-22.69-9.746c-.4-.133-.787-.263-1.174-.39-.135.062-.27.123-.406.184l.217.584,1.364-.378M150.57,89.9c-.368-.131-.734-.261-1.1-.386q.2.463.406.928.345-.271.69-.541m7.518,6.758q.207-.448.416-.9c-.657-1.176-1.315-2.355-2.043-3.66q-1.363-.538-2.71-1.042l-4.13.762q-.1.815-.193,1.631c4.469-2.878,6.317.783,8.661,3.208m-16.722-8.562q-.231.2-.462.394l.721.364q-.131-.38-.26-.757m31.264,15.852,4.106.651-1.118-2.7c-.19-.143-.368-.269-.552-.4l-1.417-.231q.177-.263.352-.528c-1.017-.7-1.907-1.258-2.659-1.7l-3.125,3.275.345,1.078c2.149-2.3,3.125-.923,4.069.556M141.745,88.911l1.94,1.564V87.594l-.788-.248L141.728,88.9l-.1-.052c.014.043.029.086.044.13Zm-7.14,17.538.007.056c.034.1.068.205.1.308.028.086.053.172.08.258l-.179-.59,0-.033h-.014m14.358-4.866-.931.909,1.419-.071-.488-.838m5.766,5.139-.146.63a2.95,2.95,0,0,0,.5.036.4.4,0,0,0,.046-.3,2.3,2.3,0,0,0-.4-.365m-4.645-9.4c.022-.02.044-.04.065-.062l-.191-.19c.032.093.063.186.094.279l.033-.027m-2.43,5.34c-.215.163-.157.12,0,0m-.655,7-2.784,1.643,4.82,1.413c-.985-1.48-1.528-2.293-2.036-3.056m.7-7.036Zm4.7,1.9,2.416-2.574-3.757-.588,3.369-4.746-2.041-1.106-2.306,1.808c-.564.538-1.114,1.063-1.257,1.2,1.338,2.247,2.426,4.075,3.577,6.006m2.434,5.319c.005.049.138.083.215.124l.136-.237-.236-.126c-.044.08-.123.164-.115.238m2.449-7.635c.015-.08-.087-.183-.139-.276-.029.166-.056.332-.084.5.079-.073.206-.137.223-.222m-2.818-5.644-.037.052.086.047Zm3.192,10.224-2.836-4.836v-.006l-.005.005h0c-.769,2.571.82,3.822,2.838,4.836M149.267,95l-.821.561,1.513,1.506q-.345-1.034-.691-2.067m-1.234,7.492-.169.009-.163.123.245-.046.087-.086M139.218,120.3l.144-.183c.014-.029.029-.057.043-.085h-.067l-.119.268m-2.2-8.267-.427-.006q-.083.619-.165,1.239l.68-.024q-.045-.6-.088-1.208m-2.166-7.806c-.123,1.165-.181,1.7-.235,2.22l1.237-.034-1-2.186m2.81,19.584q.775-1.755,1.553-3.511l-2.388,3.045.835.466m4.247-3.777c.022.027.045.052.066.079l-.338,1.553.04.05-.04-.05q-.07.316-.138.63l.22-.53q.152-.866.3-1.732Zm-2.508,0,2.508,0-1.572-1.865q-.468.932-.936,1.863m6.661,1.79.1-.073.066-.084-.166.157m-.89-26.126c.024-.26-.289-.55-.608-1.084a4.7,4.7,0,0,0-.41,1.137c-.007.188.236.386.366.581.232-.211.631-.4.652-.634m1.056,25.969-.066.084.254-.133Zm-11.8-34.39c.071.014.162-.073.291-.14l-.492-.052c.066.068.124.179.2.193m9.6,16.194c.065-.089.2-.24.184-.258a3.992,3.992,0,0,0-.422-.38l-.2.268c.144.124.288.247.434.37m-4.889-13.953-.2-.012.089.2Zm23.625,40.9-.961.615.333.434c.144-.239.286-.48.628-1.049m-9.109-16.647c1.132,2.269,2.885,2.007,4.762,1.241-1.316-1.437-2.654-2.792-4.762-1.241m4.762,1.241.027.029.13.006c-.014-.026-.029-.052-.043-.079-.038.016-.076.029-.114.044m6.4,5.716c-.08.193-.16.384-.239.578l.578.271c.079-.2.262-.433.205-.577s-.353-.185-.544-.272m-.875,3.763c-.066-.036-.19.035-.289.06l.121.29.286-.076c-.037-.1-.049-.237-.118-.274m-4.126-1.964,1.905.255,3.114-4.049c-.4-1.154-.787-2.287-1.176-3.419l-5.089-.269c1.256,2.356,2.808,4.664,1.247,7.481m-5.735,4.323a5.4,5.4,0,0,0-.317-.946l-.795.341c.147.3.294.608.439.912.291-.13.682-.252.672-.307m9.844,5.706-.19.174.062.146c-.009-.035-.017-.068-.027-.105l.21.153-.054-.368m-5.686-5.424c-.3-1.094-.553-2-.8-2.9l-.756.006c-.113,1.233-1.411,3.117,1.559,2.891m1.43-4.624h0c0,.024-.01.05-.014.076l.12.032c.018-.03.023-.059.04-.088Zm-1.695-1.68q-.255.535-.51,1.07l1.141-.5-.632-.567m-.51,1.07-.139.062.078.067q-.338.686-.678,1.371l-.053-.019h0c0,.287-.005.574-.007.862h.015l0-.02c.014-.264.027-.528.04-.791l.712.714,1.906.394.041-.007-.074-.061q.174-.943.347-1.885l-2.232-.6.041-.088m-.029,2.336h.088l-.089-.089-.026-.005.027.1m6.36,8.642.069.163-.069-.163c.054.218.093.369,0,0m-13.784-15.089c-.012.18.2.372.31.56l.613-.624-.515-.413c-.15.165-.4.314-.407.478m.787,3.189-.176.618H152l-1.188-.618m1.53.879-.155-.261H152l.176.091Zm.652-11.643-.334-.554c-.138.136-.417.316-.39.4a3.3,3.3,0,0,0,.431.724c.1-.189.194-.379.294-.572m-2.341,20.109.627-1.17c-.2-.083-.548-.281-.59-.229a9.21,9.21,0,0,0-.686,1.059q.325.169.65.339m-.4-16.8,1.053.047c.01-.124.019-.249.028-.373h-1.063c-.006.11-.012.218-.018.327M160.48,127.8c-.062.146.376.708.489.682a6.622,6.622,0,0,0,1.375-.735c-.595-.364-.9-.7-1.1-.641a1.326,1.326,0,0,0-.764.695m-2.677,1.148c.03.146.061.291.09.437l.275-.132c-.015-.1,0-.238-.053-.275-.077-.051-.206-.023-.313-.03m-2.071-9.567c.173-.124.511-.294.491-.364a3.943,3.943,0,0,0-.42-.809l-.622.4.551.772m4.079,5.078-.415.07.311.253c.034-.107.069-.215.1-.323m-8.579-18.007-.009.252.272-.118Z" transform="translate(8.435 5.55)" fill="#612e45"/>
                <path id="Trazado_180742" data-name="Trazado 180742" d="M107.123,71.759a.608.608,0,0,1-.358-1.1l15.67-10.287a.608.608,0,1,1,.716.983l-15.67,10.288a.612.612,0,0,1-.357.116" transform="translate(6.788 3.84)" fill="#361524"/>
                <path id="Trazado_180743" data-name="Trazado 180743" d="M39.933,246.768h-.039a52.031,52.031,0,0,1-21.357-7.081c-10.224-6.339-12.149-13.6-12.224-13.91a.607.607,0,0,1,.44-.737.616.616,0,0,1,.738.439c.018.071,1.914,7.117,11.687,13.175a50.724,50.724,0,0,0,20.794,6.9.608.608,0,0,1-.039,1.215" transform="translate(0.401 14.341)" fill="#361524"/>
                <path id="Trazado_180744" data-name="Trazado 180744" d="M123.88,71.873c-2.7,3.15-10.925,9.811-10.925,9.811s.85,1.459,1.848,3.636c.123.272.247.561.379.857a41.513,41.513,0,0,1,1.888,5.293c.09.355.182.7.264,1.055a14.365,14.365,0,0,1,.107,7.371c-2.169,6.794-16.563,13.679-16.563,13.679L83.664,97.15s.627-6.29,1.887-12.062c.833-3.768,1.835-6.812,2.016-12.3.167-5.051.431-9.986,1.958-10.738,1.8-.888,3.813-.979,4.844,5.882.419,2.8,1.059,9.415,2.444,11.114s8.285-2.053,12.144-3.825,12.219-9.507,14.362-9.135,3.265,2.647.561,5.788" transform="translate(5.332 3.927)" fill="#ffa6a6"/>
                <path id="Trazado_180745" data-name="Trazado 180745" d="M111.227,81.32a.412.412,0,0,1-.268-.725l7.735-6.638a.412.412,0,1,1,.537.625l-7.737,6.639a.412.412,0,0,1-.268.1" transform="translate(7.062 4.707)" fill="#361524"/>
                <path id="Trazado_180746" data-name="Trazado 180746" d="M113.547,84.758l-3.479,4.667a.417.417,0,0,1-.33.165.4.4,0,0,1-.247-.083.408.408,0,0,1-.083-.577l3.759-5.029c.124.272.248.561.38.857" transform="translate(6.967 5.347)" fill="#361524"/>
                <path id="Trazado_180747" data-name="Trazado 180747" d="M115.534,90.738l-2.877,4.016a.433.433,0,0,1-.338.172.386.386,0,0,1-.239-.082.409.409,0,0,1-.09-.569l3.282-4.592c.09.354.182.7.264,1.055" transform="translate(7.132 5.716)" fill="#361524"/>
                <path id="Trazado_180748" data-name="Trazado 180748" d="M105.661,111.623,89.362,92.24s-2.044,2.985-5.269,7.75c-1.352,2-2.918,4.32-4.625,6.859C67.711,124.361,15.767,205.116,11.6,214.3c-3.288,7.247-3.779,14.708-1.854,20.382l-.028.044a1.682,1.682,0,0,0-.905,2.26,9.558,9.558,0,0,0,1.074,6.624c2.905,5.593,10.549,8.286,16.23,9.109s31.516.24,31.516.24l.213-19.475a14.081,14.081,0,0,0-6.26-6.591c.979-2,9.118-16.584,21.6-40.377,16.359-31.17,32.466-74.893,32.466-74.893" transform="translate(0.549 5.878)" fill="#ffa6a6"/>
                <path id="Trazado_180749" data-name="Trazado 180749" d="M101.21,111.876c-.578,1.616-1.567,4.419-2.811,7.9L75.223,106.385c1.706-2.539,3.273-4.856,4.625-6.859Z" transform="translate(4.794 6.343)" fill="#e95a73"/>
                <path id="Trazado_180750" data-name="Trazado 180750" d="M93.709,109.148a5.5,5.5,0,1,0-5.5,5.5,5.5,5.5,0,0,0,5.5-5.5" transform="translate(5.272 6.606)" fill="#fff"/>
                <path id="Trazado_180751" data-name="Trazado 180751" d="M55.276,225.865s107.983-13.216,116.3-13.926,27.241.389,31.639,11.932c3.82,10.029,2.309,25.558-33.081,24.458C123.668,246.887,55.046,245.5,55.046,245.5s-7.013-8.983-5.913-10.082,6.143-9.548,6.143-9.548" transform="translate(3.124 13.496)" fill="#ffa6a6"/>
                <path id="Trazado_180752" data-name="Trazado 180752" d="M26.123,234.138a13,13,0,0,1-8.639-2.789c-.512-.431-1-.859-1.468-1.272-2.477-2.177-4.267-3.753-6.289-2.945a.413.413,0,0,1-.305-.767c2.494-.991,4.645.9,7.139,3.093.465.41.948.834,1.454,1.261,2.291,1.929,5.429,2.785,9.319,2.559,2.264-.134,7.71-.837,9.39-4.468l.056-.12c.57-1.221.749-1.949.534-2.161a3.707,3.707,0,0,0-1.914-.736c-.241-.048-.479-.095-.7-.15-1.191-.3-2.252-.585-3.241-.871l-.369-.1c-3.648-1.02-8.608-2.641-9.576-4.957a2.022,2.022,0,0,1,.118-1.843c1.369-2.469,5.541-2.2,7.544-2.07a29.788,29.788,0,0,0,6.375-.189,21.01,21.01,0,0,0,4.142-1.158,15.424,15.424,0,0,1,9.812-.78.412.412,0,0,1-.163.808,14.733,14.733,0,0,0-9.369.747,21.7,21.7,0,0,1-4.3,1.2,30.675,30.675,0,0,1-6.554.2c-1.691-.107-5.655-.365-6.771,1.646a1.223,1.223,0,0,0-.078,1.126c.614,1.47,3.655,2.977,9.037,4.48l.375.105c.981.284,2.032.567,3.214.865.21.052.433.1.66.139a4.359,4.359,0,0,1,2.336.959c.736.73.045,2.212-.368,3.1l-.054.117c-1.8,3.889-7.094,4.768-10.089,4.944-.429.027-.849.038-1.261.038" transform="translate(0.584 13.589)" fill="#361524"/>
                <path id="Trazado_180753" data-name="Trazado 180753" d="M90.21,50.6a7.021,7.021,0,1,1,7.23-7.016A7.134,7.134,0,0,1,90.21,50.6m0-12.819a5.805,5.805,0,1,0,6.014,5.8,5.918,5.918,0,0,0-6.014-5.8" transform="translate(5.288 2.33)" fill="#fff"/>
                <path id="Trazado_180754" data-name="Trazado 180754" d="M107.623,50.6a7.021,7.021,0,1,1,7.23-7.016,7.134,7.134,0,0,1-7.23,7.016m0-12.819a5.805,5.805,0,1,0,6.014,5.8,5.918,5.918,0,0,0-6.014-5.8" transform="translate(6.398 2.33)" fill="#fff"/>
                <rect id="Rectángulo_45063" data-name="Rectángulo 45063" width="5.278" height="1.216" transform="translate(102.121 45.303)" fill="#fff"/>
                <rect id="Rectángulo_45064" data-name="Rectángulo 45064" width="10.54" height="1.216" transform="matrix(0.835, -0.55, 0.55, 0.835, 120.01, 43.492)" fill="#fff"/>
                <path id="Trazado_180755" data-name="Trazado 180755" d="M127.683,42.917c0,4.44-2.652,8.039-5.923,8.039s-5.922-3.6-5.922-8.039,2.652-8.039,5.922-8.039,5.923,3.6,5.923,8.039" transform="translate(7.382 2.223)" fill="#ffa6a6"/>
              </g>
            </g>
          </g>
        </g>
        <g id="Grupo_174263" data-name="Grupo 174263" transform="translate(262.913 0)">
          <g id="Grupo_174251" data-name="Grupo 174251" transform="translate(0 0)">
            <g id="Grupo_174250" data-name="Grupo 174250">
              <path id="Trazado_179216" data-name="Trazado 179216" d="M50.427,118.718l-12.724-.78-20.305,24,9.167-24.681-10.113-.62c-8.257-.506-14.747-6.41-15.04-13.682L.1,70.41a122.477,122.477,0,0,1,1.226-22.9l4.742-32C7.5,5.874,17.446-.977,28.43.115L51.5,2.407C63.3,3.58,72.488,11.953,73.4,22.361l1.285,14.692A189.736,189.736,0,0,1,72,89.377L68.813,105.99c-1.49,7.77-9.444,13.277-18.386,12.729" transform="translate(-0.001 0)" fill="#c4d1ff"/>
              <path id="Trazado_179217" data-name="Trazado 179217" d="M59.135,130.625l-12.892-.745L25.67,152.8l9.289-23.577-10.247-.592c-8.366-.484-14.942-6.123-15.239-13.07L8.143,84.477A110.4,110.4,0,0,1,9.385,62.6l4.8-30.571c1.447-9.2,11.529-15.749,22.658-14.706l23.374,2.19c11.956,1.12,21.267,9.119,22.19,19.061l1.3,14.035A171.067,171.067,0,0,1,80.991,102.6l-3.227,15.869C76.255,125.888,68.195,131.148,59.135,130.625Z" transform="translate(-5.907 -12.647)" fill="none" stroke="#483644" stroke-miterlimit="10" stroke-width="1"/>
            </g>
          </g>
          <path id="Trazado_179218" data-name="Trazado 179218" d="M16.216-.627A5.532,5.532,0,0,0,16-2.2a3.749,3.749,0,0,0-.647-1.28,2.907,2.907,0,0,0-1.093-.849,3.637,3.637,0,0,0-1.525-.3,4.231,4.231,0,0,0-1.194.173,2.748,2.748,0,0,0-1.05.575,3,3,0,0,0-.748,1.036A3.826,3.826,0,0,0,9.454-1.26,4.4,4.4,0,0,0,9.771.466,3.417,3.417,0,0,0,10.634,1.7a3.653,3.653,0,0,0,1.252.734,4.4,4.4,0,0,0,1.453.245,2.939,2.939,0,0,0,1.453-.317,2.514,2.514,0,0,0,.878-.791A2.9,2.9,0,0,0,16.1.509,5.934,5.934,0,0,0,16.216-.627Zm-9.7,0A5.532,5.532,0,0,0,6.3-2.2a3.749,3.749,0,0,0-.647-1.28,2.907,2.907,0,0,0-1.093-.849,3.637,3.637,0,0,0-1.525-.3,4.231,4.231,0,0,0-1.194.173,2.748,2.748,0,0,0-1.05.575A3,3,0,0,0,.045-2.843,3.826,3.826,0,0,0-.242-1.26,4.4,4.4,0,0,0,.074.466,3.417,3.417,0,0,0,.937,1.7a3.653,3.653,0,0,0,1.252.734,4.4,4.4,0,0,0,1.453.245A2.939,2.939,0,0,0,5.1,2.365a2.514,2.514,0,0,0,.878-.791A2.9,2.9,0,0,0,6.4.509,5.934,5.934,0,0,0,6.519-.627Zm-9.7,0A5.532,5.532,0,0,0-3.393-2.2a3.749,3.749,0,0,0-.647-1.28,2.907,2.907,0,0,0-1.093-.849,3.637,3.637,0,0,0-1.525-.3,4.23,4.23,0,0,0-1.194.173,2.748,2.748,0,0,0-1.05.575,3,3,0,0,0-.748,1.036A3.826,3.826,0,0,0-9.939-1.26,4.4,4.4,0,0,0-9.622.466,3.417,3.417,0,0,0-8.759,1.7a3.653,3.653,0,0,0,1.252.734,4.4,4.4,0,0,0,1.453.245A2.939,2.939,0,0,0-4.6,2.365a2.514,2.514,0,0,0,.878-.791A2.9,2.9,0,0,0-3.292.509,5.933,5.933,0,0,0-3.177-.627Z" transform="translate(41.775 71.333)" fill="#12263f"/>
        </g>
      </g>
      <rect id="Rectángulo_44964" data-name="Rectángulo 44964" width="9.574" height="466.978" transform="translate(389.585 0)" fill="#3c3fa7"/>
    </g>
  </g>
</svg>
