<svg xmlns="http://www.w3.org/2000/svg" xmlns:xlink="http://www.w3.org/1999/xlink" width="78" height="78" viewBox="0 0 78 78">
  <defs>
    <clipPath id="clip-path">
      <rect id="Rectángulo_339500" data-name="Rectángulo 339500" width="53.877" height="53.902" fill="none"/>
    </clipPath>
  </defs>
  <g id="Grupo_984393" data-name="Grupo 984393" transform="translate(-329 -3832)">
    <circle id="Elipse_4900" data-name="Elipse 4900" cx="39" cy="39" r="39" transform="translate(329 3832)" fill="#6b8dfc"/>
    <g id="Grupo_984392" data-name="Grupo 984392" transform="translate(341.105 3844.098)">
      <g id="Grupo_984391" data-name="Grupo 984391" clip-path="url(#clip-path)">
        <path id="Trazado_212381" data-name="Trazado 212381" d="M54.8,8.444c.649.214.765.372.759,1.1a9.063,9.063,0,0,1-.149,2.353,4.369,4.369,0,0,1-4.225,3.24c-.771.018-1.544.025-2.315-.005-.379-.015-.423.117-.36.444.24,1.255.459,2.514.69,3.77a1.253,1.253,0,0,1-.585,1.443,1.184,1.184,0,0,1-1.484-.268q-2.658-2.51-5.3-5.039a1.149,1.149,0,0,0-.877-.348q-10.548.015-21.1,0a1.208,1.208,0,0,0-.917.379q-2.6,2.5-5.221,4.968a1.207,1.207,0,0,1-1.852.059,1.3,1.3,0,0,1-.272-1.179c.236-1.238.443-2.482.691-3.717.085-.422-.028-.515-.447-.512a19.363,19.363,0,0,1-2.889-.057,4.283,4.283,0,0,1-3.693-4.093q-.067-3.418,0-6.838A4.306,4.306,0,0,1,8.659.1c.095-.021.217.023.272-.1H51.884a9.9,9.9,0,0,1,1.061.365,4.291,4.291,0,0,1,2.612,3.849c.025.4,0,.8.008,1.2a.824.824,0,0,1-.731.923.762.762,0,0,1-.975-.712,8,8,0,0,1-.024-1.048,2.65,2.65,0,0,0-2.861-2.846c-1.4,0-2.8-.01-4.2.006q-18.212.008-36.422,0c-.228,0-.456,0-.684,0A2.567,2.567,0,0,0,7.016,4.262q-.11,3.313,0,6.63a2.613,2.613,0,0,0,2.73,2.516c.859.031,1.719.011,2.579.007a1.725,1.725,0,0,1,1.465.683,2.043,2.043,0,0,1,.249,1.46c-.164.877-.332,1.753-.493,2.721,1.494-1.425,2.966-2.763,4.374-4.173a2.078,2.078,0,0,1,1.683-.7q10.8.015,21.6,0a2.135,2.135,0,0,1,1.725.723c.912.944,1.893,1.82,2.846,2.722.47.445.93.9,1.452,1.387a17.209,17.209,0,0,0-.28-1.714c-.058-.381-.142-.758-.2-1.139a1.629,1.629,0,0,1,1.619-1.941c.789-.02,1.577,0,2.366-.005a2.774,2.774,0,0,0,3.123-3.1,7.92,7.92,0,0,1,.027-1.208.722.722,0,0,1,.927-.684" transform="translate(-3.457)"/>
        <path id="Trazado_212382" data-name="Trazado 212382" d="M.091,76.434A9.928,9.928,0,0,1,8.519,67.7a15.076,15.076,0,0,1,1.784-.1H20.721c1.206,0,1.719.618,1.538,1.8a4.219,4.219,0,0,1-1.412,2.622c-.159.14-.25.238-.14.478a12.349,12.349,0,0,1,1.014,5.635,4.8,4.8,0,0,0,.617,2.61c.292.516.531,1.063.777,1.6A2.064,2.064,0,0,1,21.361,85.4a.594.594,0,0,0-.622.676q.007,1.684,0,3.367a2.971,2.971,0,0,1-3.1,3.109c-1.193,0-2.386.011-3.578,0-.917-.011-1.181.615-.97,1.489.059.245.267.179.429.2A2,2,0,0,1,15.348,96.2a2.056,2.056,0,0,1-1.566,2.3,2.768,2.768,0,0,1-.626.052q-5.393,0-10.787,0A1.991,1.991,0,0,1,.19,96.361c0-.4-.007-.807,0-1.21a1.913,1.913,0,0,1,1.533-1.935c.295-.069.351-.176.349-.444-.011-1.421.025-2.842-.016-4.262a18.839,18.839,0,0,0-.51-2.731c-.128-.718-.071-.88.554-1.23.507-.158.87.043,1.054.615a10.533,10.533,0,0,1,.329,1.542.559.559,0,0,0,.673.549c.42-.024.843.015,1.262-.014A1.563,1.563,0,0,0,6.944,85.9a8.844,8.844,0,0,0,.069-1.837,3.467,3.467,0,0,1,1.363-2.833c.83-.675,1.684-1.32,2.529-1.975a3.574,3.574,0,0,0,1.5-2.816,4.959,4.959,0,0,1,1.548-3.576,5.127,5.127,0,0,1,3.9-1.513,2.5,2.5,0,0,0,2.487-1.514c.211-.44.169-.5-.327-.5q-3.207,0-6.413,0c-1.349-.014-2.7-.02-4.045,0a8.263,8.263,0,0,0-7.737,7.047,10.978,10.978,0,0,0,.293,3.691c.089.411.182.821.257,1.234.166.917-.16,1.26-1.1,1.165a.783.783,0,0,1-.559-.686c-.2-1.01-.4-2.017-.607-3.026-.016-.082,0-.178-.111-.207v-.526a4.222,4.222,0,0,0,.054-1.055,1.673,1.673,0,0,1,.037-.534" transform="translate(0.001 -44.652)"/>
        <path id="Trazado_212383" data-name="Trazado 212383" d="M.088,95.133c-.025.355.134.725-.088,1.063V95.144c.025-.042.054-.047.088-.011" transform="translate(0 -62.826)" fill="#4c4c4c"/>
        <path id="Trazado_212384" data-name="Trazado 212384" d="M.088,94.157,0,94.168v-.526l.091-.01,0,.525" transform="translate(0 -61.85)" fill="#888"/>
        <path id="Trazado_212385" data-name="Trazado 212385" d="M98.194,67.6c1.824,0,3.648-.024,5.472,0a9.867,9.867,0,0,1,9.439,11.539c-.54,2.854-1.156,5.693-1.761,8.534a14.2,14.2,0,0,0-.116,2.671c-.02.824,0,1.649-.007,2.473,0,.221.041.317.3.38A1.933,1.933,0,0,1,113.1,95.25c0,.421.007.842,0,1.262a1.967,1.967,0,0,1-2.074,2.029q-4.393.01-8.787,0c-.772,0-1.544.012-2.315,0a2.164,2.164,0,0,1-.306-4.268c.641-.053.641-.389.651-.814a.85.85,0,0,0-.717-.9,2.5,2.5,0,0,0-.42-.015c-1.175,0-2.35,0-3.525,0a2.965,2.965,0,0,1-3.054-3.052c-.008-1.122-.011-2.245,0-3.367.006-.48-.2-.693-.676-.737a2,2,0,0,1-1.72-2.932,11.768,11.768,0,0,0,1.485-6.217,8.31,8.31,0,0,1,.9-3.643.434.434,0,0,0-.133-.614A4.1,4.1,0,0,1,91,69.138a1.29,1.29,0,0,1,1.4-1.546c1.929-.006,3.858,0,5.788,0Z" transform="translate(-59.392 -44.645)"/>
        <path id="Trazado_212386" data-name="Trazado 212386" d="M3.76,85.508c.879-.013,1.1-.3.945-1.171-.183-1.015-.45-2.011-.572-3.039a8.331,8.331,0,0,1,6.944-8.97,38.085,38.085,0,0,1,4.983-.091,11.886,11.886,0,0,0,.534,3.115.712.712,0,0,1-.112.645,5.607,5.607,0,0,0-1.472,3.822,3.032,3.032,0,0,1-1.195,2.307c-.909.74-1.841,1.452-2.767,2.17a3.473,3.473,0,0,0-1.434,2.842c0,.49.01.981-.006,1.47a1.718,1.718,0,0,1-1.859,1.82c-.438,0-.879-.035-1.312.011-.4.042-.509-.152-.568-.485-.091-.516-.225-1.024-.311-1.541a.881.881,0,0,0-.97-.823c-.1-.488-.236-.972-.3-1.465a.616.616,0,0,0-.523-.617" transform="translate(-2.484 -47.693)" fill="#6b63ae"/>
        <path id="Trazado_212387" data-name="Trazado 212387" d="M67.521,11.514c-.659.151-.813.337-.818,1,0,.421,0,.841,0,1.261a2.78,2.78,0,0,1-2.811,2.85c-.875.019-1.751,0-2.628.005a1.511,1.511,0,0,0-1.632,1.941c.176,1.015.357,2.029.559,3.174l-4.542-4.358a.754.754,0,0,1,.589-.166c.386-.011.772,0,1.158-.006a3.3,3.3,0,0,0,3.243-3.225c.029-1.315.012-2.631,0-3.946,0-.535-.066-.583-.622-.6-.175,0-.351,0-.526,0H25.655a5.268,5.268,0,0,1-.736-.016c-.176-.025-.409.01-.436-.269a1.428,1.428,0,0,1,.964-.152Q37.674,9,49.9,9.007H60.838a5.746,5.746,0,0,0,.63-.017.524.524,0,0,0,.518-.438.566.566,0,0,0-.334-.647,3.805,3.805,0,0,0-.706-.193.4.4,0,0,1-.262-.406,3.264,3.264,0,0,0-.99-2.273.373.373,0,0,1-.147-.367c1.5,0,3.01-.035,4.513-.005A2.738,2.738,0,0,1,66.7,7.292c.019.384,0,.77.008,1.155.008.641.207.865.849.964q-.016,1.052-.031,2.1" transform="translate(-16.173 -3.07)" fill="#7ac0a4"/>
        <path id="Trazado_212388" data-name="Trazado 212388" d="M49.929,4.668a4.175,4.175,0,0,1,1.134,1.713,4.343,4.343,0,0,1,.131,1.232,1.431,1.431,0,0,1-.965.151q-14.684.007-29.369,0-2.421,0-4.842,0a3.158,3.158,0,0,0-.785.062c-.577.147-.735.475-.486,1.014a.9.9,0,0,1,.125.342c.213.187.471.1.707.1Q33,9.294,50.418,9.292c.877,0,.769-.1.773.8.005,1.263,0,2.526,0,3.789a3.453,3.453,0,0,1-3.533,3.512l-1.631,0a2.628,2.628,0,0,0-2.182-.773q-10.341.036-20.683,0a2.624,2.624,0,0,0-2.182.773,10.284,10.284,0,0,1-4.1,0,1.744,1.744,0,0,0-1.627-.763c-.805.032-1.614.015-2.42.006a2.783,2.783,0,0,1-2.906-2.918c-.005-2.087-.012-4.174,0-6.261a2.743,2.743,0,0,1,2.8-2.8q18.494-.009,36.988,0c.07,0,.14.01.209.016" transform="translate(-6.553 -3.073)" fill="#96d4a5"/>
        <path id="Trazado_212389" data-name="Trazado 212389" d="M29.563,42.178l4.1,0-4.543,4.363c.2-1.121.354-2.111.555-3.091a2.148,2.148,0,0,0-.113-1.276" transform="translate(-19.236 -27.861)" fill="#79c0a4"/>
        <path id="Trazado_212390" data-name="Trazado 212390" d="M26.379,87.422a3.489,3.489,0,0,1,2.89-3.857c.656-.116,1.333.02,1.989-.145.219-.055.252.143.311.281a9.836,9.836,0,0,1,.787,3.252,18.759,18.759,0,0,1,.05,2.1,4.866,4.866,0,0,0,.668,2.606c.306.57.572,1.163.84,1.753.242.531.086.792-.489.858a2.118,2.118,0,0,0-2.009,2.263c0,1.105,0,2.21,0,3.316a1.42,1.42,0,0,1-1.565,1.563c-1.175.005-2.351,0-3.526,0a2.434,2.434,0,0,0-2.618,2.676c0,.184.091.406-.247.371q-2.455-.259-4.909-.51a4.682,4.682,0,0,1,4.151-3,3.951,3.951,0,0,0,3.611-3.968q.027-4.051,0-8.1a8.517,8.517,0,0,0,.072-1.46" transform="translate(-12.252 -55.098)" fill="#c1885d"/>
        <path id="Trazado_212391" data-name="Trazado 212391" d="M21.223,95.229c.138.149.083.333.083.5q0,4.6,0,9.2a4.165,4.165,0,0,1-3.78,3.985,4.271,4.271,0,0,0-3.764,2.445c-.082.168-.13.375-.37.4-.785-.068-1.569-.144-2.354-.2-.229-.016-.293-.108-.292-.325.007-1.227.012-2.454,0-3.681,0-.292.112-.351.372-.345A16.061,16.061,0,0,0,12.8,107.2a3.253,3.253,0,0,0,3-3.334c.016-.472.008-.946,0-1.42a2.017,2.017,0,0,1,.853-1.715c.823-.625,1.627-1.275,2.455-1.893a5.212,5.212,0,0,0,2.119-3.61" transform="translate(-7.097 -62.905)" fill="#d39761"/>
        <path id="Trazado_212392" data-name="Trazado 212392" d="M40.188,76.017a8.526,8.526,0,0,0-.457-2.277,2.8,2.8,0,0,1,.035-1.483c2.257-.006,4.515,0,6.772-.027.387,0,.332.181.271.418a2.621,2.621,0,0,1-2.547,1.9,5.83,5.83,0,0,0-2.936.634,9.14,9.14,0,0,0-1.138.835" transform="translate(-26.191 -47.713)" fill="#5e57a9"/>
        <path id="Trazado_212393" data-name="Trazado 212393" d="M11.339,149.793q-2.787.009-5.573.019c-.369,0-.556-.153-.551-.532.006-.4,0-.806,0-1.21,0-.358.179-.515.529-.48q2.691.269,5.382.541a1.436,1.436,0,0,1,.211,1.661" transform="translate(-3.445 -97.491)" fill="#df8086"/>
        <path id="Trazado_212394" data-name="Trazado 212394" d="M22.845,150.854a3.774,3.774,0,0,0-.211-1.661q2.821.258,5.642.516c.4.037.457.322.446.645a.465.465,0,0,1-.52.518q-2.678-.011-5.357-.018" transform="translate(-14.951 -98.552)" fill="#da646f"/>
        <path id="Trazado_212395" data-name="Trazado 212395" d="M106.917,104.261c-.573.068-1.147.129-1.718.206-.252.034-.3-.066-.266-.291a2.482,2.482,0,0,0-2.683-2.768c-1.155.052-2.315.014-3.472.008a1.41,1.41,0,0,1-1.546-1.525c-.008-1.1,0-2.209,0-3.314a2.113,2.113,0,0,0-2.022-2.3c-.566-.073-.768-.371-.468-.861a11.15,11.15,0,0,0,1.57-6.514,7.7,7.7,0,0,1,.757-3.2c.094-.23.205-.344.467-.268a4.355,4.355,0,0,0,1.2.087,3.362,3.362,0,0,1,3.5,3.31,5.324,5.324,0,0,0,2.344,4.354c.7.5,1.34,1.077,2.045,1.565a2.319,2.319,0,0,1,1.035,2.455,27.478,27.478,0,0,0-.591,6.581c.04.608.009,1.221,0,1.831a.9.9,0,0,1-.16.644" transform="translate(-62.49 -55.099)" fill="#fddcce"/>
        <path id="Trazado_212396" data-name="Trazado 212396" d="M121.277,72.249a17.547,17.547,0,0,1,5.27.348,8.357,8.357,0,0,1,5.644,9.868q-.79,3.722-1.55,7.451c-.077.383-.192.578-.629.536-.469-.045-.946,0-1.419-.014a1.655,1.655,0,0,1-1.677-1.555,8.012,8.012,0,0,1-.019-1.26,3.906,3.906,0,0,0-1.107-3.064c.112-.928.4-1.822.542-2.744a2.071,2.071,0,0,0,.055-.765q0-.438,0-.875a2.87,2.87,0,0,0-.036-.828,9.121,9.121,0,0,0-4.735-6.746c-.144-.079-.341-.123-.338-.351" transform="translate(-80.112 -47.706)" fill="#df7d4d"/>
        <path id="Trazado_212397" data-name="Trazado 212397" d="M111.1,80.135q0,.475,0,.949c-.141.23.032.505-.1.736a9.279,9.279,0,0,1-.644,2.745c-.943-.727-1.882-1.46-2.831-2.181a3.639,3.639,0,0,1-1.508-2.868,4.979,4.979,0,0,0-5.279-4.96,2.7,2.7,0,0,1-2.772-1.9c-.056-.209-.168-.433.248-.43,2.543.021,5.086.02,7.629.026a10.448,10.448,0,0,1,2.174,1.45,9.047,9.047,0,0,1,2.983,5.586c.14.268-.039.575.1.843" transform="translate(-64.673 -47.713)" fill="#e1934a"/>
        <path id="Trazado_212398" data-name="Trazado 212398" d="M130.854,127.212c0-1.8-.045-3.6.016-5.4a15.375,15.375,0,0,1,.731-3.652c.02.419.023.839.064,1.255a3.223,3.223,0,0,0,3.146,2.947c.507.018,1.016.02,1.523,0,.277-.011.355.079.352.354-.014,1.208-.009,2.416,0,3.624,0,.213-.008.35-.289.373-1.847.156-3.693.332-5.539.5" transform="translate(-86.427 -78.05)" fill="#fdcabe"/>
        <path id="Trazado_212399" data-name="Trazado 212399" d="M133.606,148.209c1.251-.133,2.5-.27,3.754-.4.8-.082,1.605-.141,2.406-.227.462-.05.648.139.625.594-.018.35-.013.7,0,1.051.013.393-.153.58-.559.577-1.752-.013-3.5-.015-5.256-.021a.535.535,0,0,1-.139-.376,1.181,1.181,0,0,0-.83-1.2" transform="translate(-88.256 -97.485)" fill="#92d7f6"/>
        <path id="Trazado_212400" data-name="Trazado 212400" d="M123.446,149.44c.688.04.867.231.964,1.053a4.633,4.633,0,0,1,.005.523c-1.876.006-3.752.009-5.629.021-.371,0-.554-.162-.56-.531-.006-.326.052-.6.457-.634q2.382-.212,4.764-.432" transform="translate(-78.096 -98.715)" fill="#b2e3f7"/>
        <path id="Trazado_212401" data-name="Trazado 212401" d="M23.561,14.952a.809.809,0,0,1-.449-.962c.138-.476.511-.581.944-.581h2.052q16.547,0,33.094,0c.227,0,.454-.018.681-.028.227.013.455.014.68.042a.8.8,0,0,1,.753.8.774.774,0,0,1-.784.758c-.385.021-.771,0-1.157,0H24.454c-.3,0-.6-.016-.893-.025" transform="translate(-15.243 -8.837)" fill="#000100"/>
        <path id="Trazado_212402" data-name="Trazado 212402" d="M32.975,26.734q-4.443,0-8.887,0a.928.928,0,0,1-.882-.345.778.778,0,0,1,.476-1.2,2.168,2.168,0,0,1,.522-.034q8.808,0,17.616,0a3.151,3.151,0,0,1,.42.009.782.782,0,0,1,.723.818.737.737,0,0,1-.785.744c-1.1.015-2.208.007-3.313.007H32.975" transform="translate(-15.238 -16.615)"/>
        <path id="Trazado_212403" data-name="Trazado 212403" d="M136.554,93.879c-.209-.259-.06-.563-.1-.843.211.259.06.563.1.843" transform="translate(-90.127 -61.457)" fill="#e59660"/>
        <path id="Trazado_212404" data-name="Trazado 212404" d="M136.453,99.052c.039-.245-.1-.515.1-.736-.039.245.1.515-.1.736" transform="translate(-90.13 -64.944)" fill="#e69263"/>
      </g>
    </g>
  </g>
</svg>
