<svg xmlns="http://www.w3.org/2000/svg" xmlns:xlink="http://www.w3.org/1999/xlink" width="78" height="78" viewBox="0 0 78 78">
  <defs>
    <clipPath id="clip-path">
      <rect id="Rectángulo_339501" data-name="Rectángulo 339501" width="62.791" height="42.696" fill="none"/>
    </clipPath>
  </defs>
  <g id="Grupo_984585" data-name="Grupo 984585" transform="translate(-749 -3832)">
    <circle id="Elipse_4901" data-name="Elipse 4901" cx="39" cy="39" r="39" transform="translate(749 3832)" fill="#6b8dfc"/>
    <g id="Grupo_984395" data-name="Grupo 984395" transform="translate(756.882 3850.129)">
      <g id="Grupo_984394" data-name="Grupo 984394" clip-path="url(#clip-path)">
        <path id="Trazado_212405" data-name="Trazado 212405" d="M120.156,64.749a2.012,2.012,0,0,1,1.061,2.244c-.051.2.087.33.2.478a5.056,5.056,0,0,1,.188,6.372c-1.48,2.126-3.809,3.118-6.774,3.079a4.14,4.14,0,0,1-1.314-.159,4.874,4.874,0,0,0-2.8.013c-5.844,1.2-11.689-2.194-12.358-7.132a.69.69,0,0,1-.02-.157c.059-.574-.213-.8-.952-.9a2.137,2.137,0,0,1-1.915-2.24,2.357,2.357,0,0,1,2.392-1.9c.133-.009.408.119.373-.129-.037-.269-.3-.1-.452-.082-.314.034-.618.122-.931.167-.486.07-.866-.074-.971-.485s.187-.71.666-.742c.634-.042.7-.3.7-.752a33.119,33.119,0,0,1,.1-4.411c.583-4.121,4.759-7.69,9.755-8.316,6.379-.8,12.118,2.427,13.529,7.6a9.84,9.84,0,0,1,.255,2.613c0,1.314-.005,2.628.008,3.943a.793.793,0,0,1-.734.9" transform="translate(-59.851 -34.322)"/>
        <path id="Trazado_212406" data-name="Trazado 212406" d="M23.124,65.311a7.618,7.618,0,0,1,1.332.2,2.117,2.117,0,0,1,1.525,2.116,2.245,2.245,0,0,1-2.038,1.9c-.614.071-.734.267-.8.737-.524,3.934-3.594,6.741-8.176,7.528-5.616.964-11.323-2.474-11.917-7.179a1.406,1.406,0,0,1-.021-.157c-.008-.531-.1-.884-.958-.961A2.164,2.164,0,0,1,.156,67.571a2.073,2.073,0,0,1,1.608-2.064c.506-.142.418-.309.266-.594A16.878,16.878,0,0,1,.072,59.56a4.244,4.244,0,0,1,.305-2.584,2.579,2.579,0,0,1,1.4-1.307,2.965,2.965,0,0,0,1.038-.733,8.709,8.709,0,0,1,7.013-2.472,1.469,1.469,0,0,0,.673-.087,5.34,5.34,0,0,1,3.934-.074.977.977,0,0,0,.661.011,5.282,5.282,0,0,1,5.27,1.078,4.863,4.863,0,0,0,1.906,1.143,2.836,2.836,0,0,1,2.192,2.6c.023.3.114.4.461.485,1.6.369,2.315,1.572,1.778,2.88a9.937,9.937,0,0,1-3.581,4.81" transform="translate(0 -35.977)"/>
        <path id="Trazado_212407" data-name="Trazado 212407" d="M62.448,0q4.684,0,9.369,0C73.91,0,75.347,1.177,75.352,2.9q.011,4.179,0,8.357c0,1.661-1.439,2.839-3.46,2.843-3.059.006-6.118.012-9.177-.008-.545,0-.73.082-.768.579-.178,2.332-1.631,3.953-4.217,4.887a1.21,1.21,0,0,1-1.142.017c-.389-.255-.274-.6-.2-.924a6.3,6.3,0,0,0,.092-2.818c-.273-1.2-1.023-1.722-2.488-1.734A9,9,0,0,1,52.09,14a2.892,2.892,0,0,1-2.5-2.607c-.016-2.891-.023-5.782,0-8.673C49.611,1.2,51.1.011,52.952,0c3.165-.01,6.331,0,9.5,0" transform="translate(-31.088 0)"/>
        <path id="Trazado_212408" data-name="Trazado 212408" d="M96.845,50.162c-.956,0-1.913,0-2.869,0-.634,0-.96-.224-.96-.63s.326-.628.96-.629c1.913,0,3.825,0,5.738,0,.523,0,.874.166.935.608.053.384-.339.651-.935.655-.956.007-1.913,0-2.869,0" transform="translate(-58.323 -33.854)"/>
        <path id="Trazado_212409" data-name="Trazado 212409" d="M86.1,50.168c-.68,0-1.03-.207-1.039-.62s.336-.641,1.01-.643,1.042.221,1.052.619-.369.642-1.023.644" transform="translate(-53.334 -33.86)" fill="#294369"/>
        <path id="Trazado_212410" data-name="Trazado 212410" d="M107.042,88.392c0-.981.014-1.8-.008-2.628-.007-.27.085-.4.409-.479a26.724,26.724,0,0,0,9.88-4.4c.408-.308.482-.01.632.173a13.052,13.052,0,0,0,5.127,4.073c1.021.419,1.268.908,1.2,1.757-.122,1.483.12,2.978-.135,4.46-.564,3.272-4.044,5.842-8.094,5.993S108.265,95.209,107.3,92a13.912,13.912,0,0,1-.257-3.607" transform="translate(-67.112 -55.912)" fill="#fed7b6"/>
        <path id="Trazado_212411" data-name="Trazado 212411" d="M124.856,66.152a11.173,11.173,0,0,1-4.8-2.076,13.749,13.749,0,0,1-2.82-2.827c-.177-.244-.148-.378.058-.591a12.562,12.562,0,0,0,2.25-3.092.661.661,0,0,0-.357-1.017.84.84,0,0,0-1.06.528,11.845,11.845,0,0,1-3.676,4.231,23.545,23.545,0,0,1-6.977,3.39q-1.336.423-2.709.755c-.392.094-.471,0-.464-.306.019-.824.016-1.648,0-2.472,0-.255.1-.354.408-.42.82-.171,1.629-.381,2.435-.595.6-.159.852-.476.678-.836-.219-.454-.625-.508-1.146-.36-.6.17-1.218.3-1.819.467-.37.1-.477,0-.406-.284a8.728,8.728,0,0,1,4.849-5.78,11.972,11.972,0,0,1,5.83-1.216c.5.015.593.112.375.488a13.036,13.036,0,0,1-6,5.268,3.981,3.981,0,0,0-.549.262c-.332.225-.567.492-.289.86a.832.832,0,0,0,1.059.2,15.472,15.472,0,0,0,2.777-1.472,12.9,12.9,0,0,0,4.592-5.01c.123-.248.278-.283.589-.2,3.9,1.1,6.252,3.308,7.024,6.632a23.928,23.928,0,0,1,.143,4.509c.013.311,0,.623,0,.956" transform="translate(-65.399 -37.142)" fill="#6d7485"/>
        <path id="Trazado_212412" data-name="Trazado 212412" d="M146.883,118c-.261-.051-.722.139-.838-.116s.369-.365.589-.518a8.058,8.058,0,0,0,3.387-4.78,4.794,4.794,0,0,0,.2-1.078c0-.337.164-.47.536-.507a1.236,1.236,0,0,0,.486-.1c.646-.4.883-.082,1.113.379,1.58,3.174-1.282,6.724-5.472,6.725" transform="translate(-91.563 -76.654)" fill="#4a5160"/>
        <path id="Trazado_212413" data-name="Trazado 212413" d="M100.84,102.919a2.4,2.4,0,0,1,0,.366c-.025.161.121.388-.122.468a.855.855,0,0,1-.7-.161.765.765,0,0,1-.289-1.121.812.812,0,0,1,.881-.381c.411.079.182.371.233.568a1.035,1.035,0,0,1,0,.261" transform="translate(-62.44 -70.67)" fill="#ecc396"/>
        <path id="Trazado_212414" data-name="Trazado 212414" d="M157.309,102.924a2.464,2.464,0,0,1,0-.364c.026-.171-.125-.4.207-.48a.785.785,0,0,1,.689.169.8.8,0,0,1-.225,1.413c-.495.217-.665.136-.673-.322,0-.138,0-.277,0-.416" transform="translate(-98.63 -70.662)" fill="#ebc296"/>
        <path id="Trazado_212415" data-name="Trazado 212415" d="M19.855,73.842a2.351,2.351,0,0,0,.522-.3,2.419,2.419,0,0,1,2.6-.446,8.2,8.2,0,0,0,5.184-.514c.609-.246,1.194-.534,1.806-.775,1.995-.789,3.7.134,3.842,1.954.241,3.151.2,6.3.191,9.455-.012,3.37-3.106,6.347-7.121,6.892-.167.023-.338.019-.508.028a4.059,4.059,0,0,1-3.3-1.011A7.237,7.237,0,0,1,19.68,83a15.36,15.36,0,0,1,.061-2.509,7.67,7.67,0,0,0,.4-.768,1.04,1.04,0,0,1,1.925.017,1.357,1.357,0,0,0,.133.294.563.563,0,0,0,.613.283.477.477,0,0,0,.431-.458c.142-1.046-1.208-1.971-2.55-1.747-.3.049-.6.22-.9-.006a.851.851,0,0,1-.143-.553c-.009-1.041-.007-2.082,0-3.123a.812.812,0,0,1,.2-.589" transform="translate(-12.319 -49.522)" fill="#fed7b6"/>
        <path id="Trazado_212416" data-name="Trazado 212416" d="M17.1,56.545a3.176,3.176,0,0,0,1.581-.273,3.25,3.25,0,0,1,2.742.075,1.61,1.61,0,0,0,1.429.013,3.591,3.591,0,0,1,3.535.477c.275.217.517.463.772.7a3.109,3.109,0,0,0,1.657.884,1.649,1.649,0,0,1,1.42,2.135c-.22.669.063,1,.9,1.039.233.012.471,0,.7.027.544.075,1.04.54.894.934a9.265,9.265,0,0,1-1.964,3.483,2.53,2.53,0,0,1-.266-1.16c-.086-.678-.112-1.362-.13-2.044-.067-2.445-2.832-3.956-5.59-3.055a11.45,11.45,0,0,0-1.526.647A8.052,8.052,0,0,1,15.9,60.36c-.221-.1-.444-.206-.667-.308a.8.8,0,0,0-1.046.219c-.276.345-.112.633.257.86.626.385.645.409-.065.723a3.38,3.38,0,0,1-2.4.381,2.665,2.665,0,0,1,1.452-3.407,2.614,2.614,0,0,0,.906-.625,8.434,8.434,0,0,1,1.884-1.468,1.041,1.041,0,0,1,.876-.189" transform="translate(-7.38 -38.775)" fill="#c1684f"/>
        <path id="Trazado_212417" data-name="Trazado 212417" d="M15.023,85.672c0,.892-.025,1.784,0,2.675.094,3.14,1.892,5.417,5.206,6.91.413.186.879.024,1.314.093a8.883,8.883,0,0,1-4.913-.73c-3-1.33-4.6-3.431-4.659-6.245s-.005-5.61-.023-8.414c0-.364.086-.47.556-.442a6.165,6.165,0,0,0,2.519-.465c0,1.27-.005,2.54,0,3.811,0,.167-.069.353.129.487.038.218-.2.289-.338.4a2.029,2.029,0,0,0-.69.913c-.194.547-.008.8.677.924a.4.4,0,0,1,.221.083" transform="translate(-7.49 -54.734)" fill="#e4bca0"/>
        <path id="Trazado_212418" data-name="Trazado 212418" d="M12.273,57.588a3.139,3.139,0,0,0-1.525.8A6,6,0,0,0,9.379,59.62a.611.611,0,0,1-.323.241,2.457,2.457,0,0,0-1.9,2.575c-.008.28,0,.561,0,.841A3.706,3.706,0,0,1,5.52,62.9a1.173,1.173,0,0,0-1.333.092c-.345-1.267.092-2.023,1.469-2.579a2.093,2.093,0,0,0,.759-.692,7.181,7.181,0,0,1,5.5-2.213,1.607,1.607,0,0,1,.36.077" transform="translate(-2.555 -39.818)" fill="#9f5847"/>
        <path id="Trazado_212419" data-name="Trazado 212419" d="M4.354,77.773c.426.178.753.327,1.093.451.262.1.222.273.223.443,0,.8,0,1.607-.052,2.422a15.573,15.573,0,0,1-1.264-3.316" transform="translate(-2.73 -53.847)" fill="#9e5747"/>
        <path id="Trazado_212420" data-name="Trazado 212420" d="M5.766,100.562a1.027,1.027,0,0,1,0,.209c-.041.193.142.482-.131.563a.893.893,0,0,1-.878-.306.711.711,0,0,1-.1-.974.814.814,0,0,1,.82-.39c.46.054.252.371.291.585a1.72,1.72,0,0,1,0,.313" transform="translate(-2.825 -68.998)" fill="#ebc296"/>
        <path id="Trazado_212421" data-name="Trazado 212421" d="M62.215,100.524a2.467,2.467,0,0,1,0-.368c.026-.173-.126-.409.2-.489a.762.762,0,0,1,.737.21.719.719,0,0,1,.117,1.061.9.9,0,0,1-.9.393c-.337-.073-.108-.393-.162-.6a.821.821,0,0,1,0-.21" transform="translate(-38.996 -68.989)" fill="#ebc296"/>
        <path id="Trazado_212422" data-name="Trazado 212422" d="M60.678,20.712a7.11,7.11,0,0,0-.206-2.586c-.483-1.572-1.8-2.432-3.769-2.445-.4,0-.808.01-1.211,0A1.646,1.646,0,0,1,53.707,14.2q-.027-4.286,0-8.571c.006-.9.793-1.515,1.872-1.516q9.468-.008,18.936,0c1.081,0,1.869.617,1.876,1.513q.032,4.286,0,8.571c-.006.905-.8,1.482-1.969,1.483q-4.909.007-9.819,0c-1.166,0-1.58.329-1.573,1.292a4.043,4.043,0,0,1-1.8,3.507,3.906,3.906,0,0,1-.354.221.784.784,0,0,1-.2.012" transform="translate(-33.667 -2.844)" fill="#f2cd7d"/>
        <path id="Trazado_212423" data-name="Trazado 212423" d="M124.306,117.428a5.257,5.257,0,0,1-3.054-.994c-.38-.285-.545-.605-.189-.956a.847.847,0,0,1,1.167-.014,3.454,3.454,0,0,0,4.194-.006.845.845,0,0,1,1.166.029c.331.33.2.649-.16.921a5.225,5.225,0,0,1-3.124,1.022" transform="translate(-75.786 -79.785)"/>
        <path id="Trazado_212424" data-name="Trazado 212424" d="M114.623,94.728a2.215,2.215,0,0,1,2.338,1.833.65.65,0,0,1-.679.744.691.691,0,0,1-.827-.574.783.783,0,0,0-.879-.731.756.756,0,0,0-.823.667c-.063.441-.342.676-.881.632a.689.689,0,0,1-.634-.879,2.308,2.308,0,0,1,2.384-1.691" transform="translate(-70.365 -65.586)"/>
        <path id="Trazado_212425" data-name="Trazado 212425" d="M137.71,94.759a2.287,2.287,0,0,1,2.364,1.776.649.649,0,0,1-.635.779c-.5.067-.809-.147-.877-.567a.786.786,0,0,0-.838-.72.767.767,0,0,0-.868.682.7.7,0,0,1-.849.615.652.652,0,0,1-.66-.805,2.253,2.253,0,0,1,2.364-1.76" transform="translate(-84.862 -65.607)"/>
        <path id="Trazado_212426" data-name="Trazado 212426" d="M29.279,115.027a5.243,5.243,0,0,1-3.069-1c-.383-.292-.508-.62-.148-.962a.839.839,0,0,1,1.124-.009,3.46,3.46,0,0,0,4.2.007.849.849,0,0,1,1.169.027c.329.329.2.645-.16.921a5.233,5.233,0,0,1-3.113,1.018" transform="translate(-16.207 -78.127)"/>
        <path id="Trazado_212427" data-name="Trazado 212427" d="M42.659,92.332a2.274,2.274,0,0,1,2.36,1.77.69.69,0,0,1-.681.8c-.5.019-.782-.2-.842-.616a.764.764,0,0,0-.862-.687.743.743,0,0,0-.824.655.71.71,0,0,1-.881.639c-.562-.063-.673-.407-.637-.818a2.238,2.238,0,0,1,2.368-1.746" transform="translate(-25.26 -63.927)"/>
        <path id="Trazado_212428" data-name="Trazado 212428" d="M18.3,94.958c-.9.108-1.272-.237-1.079-.964a2.279,2.279,0,0,1,1.208-1.356c1.459-.4,2.627-.091,3.229.86a1.5,1.5,0,0,1,.244.911c-.021.353-.266.553-.675.587a.7.7,0,0,1-.778-.423,2.586,2.586,0,0,1-.085-.307.874.874,0,0,0-1.643.018.944.944,0,0,1-.421.676" transform="translate(-10.769 -64.019)"/>
        <path id="Trazado_212429" data-name="Trazado 212429" d="M90.739,10.945c1.039,0,2.079,0,3.118,0,.531,0,.934.122.968.621.028.411-.307.641-.937.642q-3.214.007-6.428,0c-.629,0-.966-.232-.937-.643.035-.5.439-.623.969-.62,1.082.006,2.164,0,3.246,0" transform="translate(-54.251 -7.576)"/>
        <path id="Trazado_212430" data-name="Trazado 212430" d="M90.712,22.123c-1.082,0-2.164,0-3.246,0-.632,0-.954-.225-.951-.634s.326-.624.962-.625c2.122,0,4.243,0,6.365,0,.528,0,.937.112.979.612.035.424-.314.649-.99.652-1.039,0-2.079,0-3.118,0" transform="translate(-54.247 -14.442)"/>
        <path id="Trazado_212431" data-name="Trazado 212431" d="M90.666,30.778c1.061,0,2.122,0,3.182,0,.53,0,.935.118.972.617.031.424-.316.646-1,.647q-3.15,0-6.3,0c-.687,0-1.016-.215-1.009-.64s.334-.619,1.033-.621c1.039,0,2.079,0,3.118,0" transform="translate(-54.246 -21.308)"/>
        <path id="Trazado_212432" data-name="Trazado 212432" d="M71.91,30.774c.445,0,.892-.014,1.336,0,.463.018.77.218.777.618s-.293.622-.755.633q-1.335.031-2.672,0c-.467-.011-.763-.253-.749-.641s.319-.6.79-.611c.424-.011.849,0,1.273,0" transform="translate(-43.795 -21.303)"/>
        <path id="Trazado_212433" data-name="Trazado 212433" d="M71.94,22.125H70.731c-.526,0-.884-.2-.876-.646.007-.413.35-.614.849-.616.827,0,1.654,0,2.481,0,.491,0,.836.191.841.618,0,.458-.36.638-.877.642-.4,0-.806,0-1.209,0" transform="translate(-43.8 -14.443)"/>
        <path id="Trazado_212434" data-name="Trazado 212434" d="M71.912,12.2c-.4,0-.806,0-1.209,0-.5,0-.838-.2-.85-.615s.311-.638.812-.643q1.272-.014,2.545,0c.493.006.824.211.815.638s-.35.611-.84.619c-.424.007-.849,0-1.273,0" transform="translate(-43.799 -7.572)"/>
        <path id="Trazado_212435" data-name="Trazado 212435" d="M60.457,10.949c.585,0,.956.26.943.648s-.387.619-.983.615-.939-.236-.927-.648.351-.62.968-.615" transform="translate(-37.301 -7.58)" fill="#2a4368"/>
        <path id="Trazado_212436" data-name="Trazado 212436" d="M60.449,30.781c.587,0,.959.254.951.641s-.373.624-.975.621-.943-.23-.935-.641.344-.625.959-.621" transform="translate(-37.301 -21.311)" fill="#2a4368"/>
        <path id="Trazado_212437" data-name="Trazado 212437" d="M60.406,22.127c-.6-.006-.935-.242-.918-.656s.358-.614.977-.607c.58.007.953.269.933.656s-.4.613-.992.607" transform="translate(-37.3 -14.446)" fill="#2a4368"/>
      </g>
    </g>
  </g>
</svg>
