<svg xmlns="http://www.w3.org/2000/svg" xmlns:xlink="http://www.w3.org/1999/xlink" width="400" height="324" viewBox="0 0 400 324">
  <defs>
    <clipPath id="clip-path">
      <rect id="Rectángulo_339075" data-name="Rectángulo 339075" width="360.914" height="306.964" fill="none"/>
    </clipPath>
    <clipPath id="clip-path-2">
      <path id="Trazado_210249" data-name="Trazado 210249" d="M636.059,231.654s-2.081,6.262-8.191,8.142-14.448-2.879-14.448-2.879.911-7.036,9.153-9.905a11.858,11.858,0,0,1,3.918-.694c6.143,0,9.569,5.336,9.569,5.336" transform="translate(-613.419 -226.318)" fill="none"/>
    </clipPath>
    <clipPath id="clip-path-4">
      <path id="Trazado_210252" data-name="Trazado 210252" d="M577.175,195.343s4.062,11.762-7.536,10.326c0,0-4.155-10.182.738-12.874a5.477,5.477,0,0,1,2.635-.769c2.957,0,4.163,3.317,4.163,3.317" transform="translate(-567.993 -192.026)" fill="none"/>
    </clipPath>
  </defs>
  <g id="Grupo_983863" data-name="Grupo 983863" transform="translate(-106 17.036)">
    <rect id="Rectángulo_338979" data-name="Rectángulo 338979" width="399" height="273" rx="17" transform="translate(106 33.964)" fill="#fed947"/>
    <rect id="Rectángulo_339079" data-name="Rectángulo 339079" width="169" height="234" rx="17" transform="translate(191 -17.036)" fill="#3c3fa7"/>
    <rect id="Rectángulo_339078" data-name="Rectángulo 339078" width="360.914" height="170.964" rx="17" transform="translate(145.086 82)" fill="#6b8dfc"/>
    <g id="Grupo_983862" data-name="Grupo 983862" transform="translate(145.086)">
      <path id="Trazado_210199" data-name="Trazado 210199" d="M205.57,545.54l27.193,97.379L115.32,641.746l15.274-98.531Z" transform="translate(84.152 -335.955)" fill="#ffc849"/>
      <g id="Grupo_983853" data-name="Grupo 983853">
        <g id="Grupo_983852" data-name="Grupo 983852" clip-path="url(#clip-path)">
          <path id="Trazado_210200" data-name="Trazado 210200" d="M263.368,222.573c-4.695,13.238,1.4,27.481,13.613,31.812S302.9,251.5,307.6,238.258s-1.4-27.481-13.613-31.812-25.92,2.889-30.615,16.127" transform="translate(-48.147 -126.901)"/>
          <path id="Trazado_210201" data-name="Trazado 210201" d="M298.008,590.365h-.031l-57.127-3a.585.585,0,0,1-.554-.616.568.568,0,0,1,.616-.554l57.127,3a.586.586,0,0,1-.031,1.172" transform="translate(-29.362 -362.536)"/>
          <path id="Trazado_210202" data-name="Trazado 210202" d="M293.378,246.578l-40.593-11.412,2.458-19.134-20.952-1.171.225,15.057-7.068-1.875a20.51,20.51,0,0,0-25.028,12.9l-14.234,50.125s5.9,6.614,4.365,17.9c-2.013,14.833-6.319,59.542-6.319,59.542l-6.843-1.046-3.211,28.054L193.3,372.358a65.769,65.769,0,0,0,15.141-27.112l4.718-16.985,6.463,11.278,79.449,4.037Z" transform="translate(-5.371 -132.882)" fill="#ffc849"/>
          <path id="Trazado_210203" data-name="Trazado 210203" d="M503.9,550.073a.586.586,0,0,1-.586-.576l-.7-38.366a.587.587,0,1,1,1.173-.021l.7,38.366a.587.587,0,0,1-.576.6Z" transform="translate(-335.343 -315.743)"/>
          <path id="Trazado_210204" data-name="Trazado 210204" d="M490.1,613.953l-6.943,37.118-1.727-38.442Z" transform="translate(-312.868 -378.885)" fill="#f4a187"/>
          <path id="Trazado_210205" data-name="Trazado 210205" d="M515.367,743.852l-4.218,22.514-5.155-22.6Z" transform="translate(-347.511 -459.989)" fill="#f4a187"/>
          <path id="Trazado_210206" data-name="Trazado 210206" d="M660.778,283.842a44.466,44.466,0,0,0,14.079,13.075l12.616-.241-1.219-55.161-25.477-28.348s-17.552-5.7-17.648,16.285c-.067,15.265-.041,42.136-.019,57.144Z" transform="translate(-571.924 -131.424)" fill="#fd521b"/>
          <path id="Trazado_210207" data-name="Trazado 210207" d="M604.388,336.968c16.428.045,20.569-13.035,21.566-18.224l-12.144-2.09v-34.11H590.24v34.11l-17.064,3.2c2.559,3.564,13.426,17.067,31.212,17.116" transform="translate(-483.731 -174.741)" fill="#f4a187"/>
          <path id="Trazado_210208" data-name="Trazado 210208" d="M606.757,765.962l-3.47-22.848H515.412l-9.418,22.848Z" transform="translate(-438.901 -459.585)" fill="#5774cd"/>
          <path id="Trazado_210209" data-name="Trazado 210209" d="M207.847,542.442l-76.887-2.385L115.424,640.291l-.1.676H234.13Zm-75.885-1.18,74.976,2.325L232.6,639.793H116.687Z" transform="translate(82.785 -334.002)"/>
          <path id="Trazado_210210" data-name="Trazado 210210" d="M605,305.351c6.6,5.959,16.65,7.03,23.571,6.936V291.77H605Z" transform="translate(-498.495 -180.447)"/>
          <path id="Trazado_210211" data-name="Trazado 210211" d="M203.464,561.625l-95.012-84.109,9.185,3.74,92.595,71.587Z" transform="translate(109.305 -295.323)" fill="#5774cd"/>
          <path id="Trazado_210212" data-name="Trazado 210212" d="M290.342,22.514c-3.448,9.723,1.028,20.184,10,23.366s19.037-2.122,22.486-11.845-1.028-20.185-10-23.366S293.79,12.79,290.342,22.514" transform="translate(-73.41 -6.027)"/>
          <path id="Trazado_210213" data-name="Trazado 210213" d="M115.977,61.738A23.319,23.319,0,1,0,139.3,38.419a23.32,23.32,0,0,0-23.319,23.319" transform="translate(154.048 -23.761)"/>
          <path id="Trazado_210214" data-name="Trazado 210214" d="M27.939,161.2a29.155,29.155,0,1,0,29.155-29.155A29.155,29.155,0,0,0,27.939,161.2" transform="translate(264.005 -81.662)"/>
          <path id="Trazado_210215" data-name="Trazado 210215" d="M340.57,91.048c-3.865,10.9,1.153,22.625,11.208,26.191s21.34-2.379,25.205-13.278-1.153-22.625-11.208-26.191-21.34,2.379-25.205,13.277" transform="translate(-146.817 -47.458)"/>
          <path id="Trazado_210216" data-name="Trazado 210216" d="M337.526,183.515c-4.525,12.758,1.349,26.486,13.12,30.66s24.981-2.784,29.505-15.543-1.349-26.486-13.12-30.66-24.981,2.784-29.506,15.543" transform="translate(-148.962 -103.134)"/>
          <path id="Trazado_210217" data-name="Trazado 210217" d="M147.88,117.412c-4.695,13.238,1.4,27.481,13.613,31.812s25.92-2.889,30.615-16.127-1.4-27.481-13.613-31.812-25.92,2.889-30.615,16.127" transform="translate(111.405 -61.863)"/>
          <path id="Trazado_210218" data-name="Trazado 210218" d="M114.434,344.543l6.182-15.391-10.7-4.167-4.485,10.987,5.788,9.464Z" transform="translate(200.071 -200.989)"/>
          <path id="Trazado_210219" data-name="Trazado 210219" d="M15.053,371.583s14.914,1.141,29.317,20.178l6.253,50.129,12.669,12.289-2.479,52.159L15.146,496.11,0,381.8Z" transform="translate(297.622 -229.808)" fill="#5774cd"/>
          <path id="Trazado_210220" data-name="Trazado 210220" d="M87.254,329.737l2.878,17.058L100.4,351.94l-1.854-18Z" transform="translate(227.223 -203.928)" fill="#5774cd"/>
          <path id="Trazado_210221" data-name="Trazado 210221" d="M244.056,58.308s-22.014,5.007-16.377,34.643,21.654,32.444,32.5,29.524c13.417-3.612,26.371-16.694,24.881-24.527l1.181-39.217Z" transform="translate(-11.844 -36.061)" fill="#e27171"/>
          <path id="Trazado_210222" data-name="Trazado 210222" d="M315.941,124.457a10.349,10.349,0,0,1,6.931-10.517c7.749-2.9,12.453.308,12.453.308s.625,7.407-8.174,10.938-11.21-.729-11.21-.729" transform="translate(-94.955 -69.718)" fill="#fff"/>
          <path id="Trazado_210223" data-name="Trazado 210223" d="M380.65,150.878,372.569,152l10.607,7.851Z" transform="translate(-164.413 -93.312)" fill="#e27171"/>
          <path id="Trazado_210224" data-name="Trazado 210224" d="M337.982,93.144a1.119,1.119,0,0,0,.836-.662.962.962,0,0,0-.636-1.282,20.968,20.968,0,0,0-14.728.655.994.994,0,0,0-.485,1.368,1.114,1.114,0,0,0,1.465.406,18.931,18.931,0,0,1,12.975-.52,1.171,1.171,0,0,0,.573.034" transform="translate(-101.155 -55.775)"/>
          <path id="Trazado_210225" data-name="Trazado 210225" d="M104.62,280.644l24.58,6.618a33.678,33.678,0,0,1,24.153,25.365l18.264,84.022a26.917,26.917,0,0,1-43.542,26.389L78.3,381.524,93.96,352.3l30.733,19.031-4.218-75.743Z" transform="translate(158.807 -173.566)" fill="#ffc049"/>
          <path id="Trazado_210226" data-name="Trazado 210226" d="M334.832,125.887a10.349,10.349,0,0,1,6.931-10.517c.326-.122.644-.229.958-.33a7.06,7.06,0,0,1,4.3,6.6,7.591,7.591,0,0,1-2.395,5.5c-7.641,2.545-9.791-1.248-9.791-1.248" transform="translate(-113.846 -71.147)"/>
          <path id="Trazado_210227" data-name="Trazado 210227" d="M333.258,189.647a.955.955,0,0,1-.563-1.726c2.956-2.158,5.628-4.711,5.717-5.465a.939.939,0,0,1,.856-1.026.981.981,0,0,1,1.044.873c.2,1.967-3.983,5.331-6.492,7.161a.954.954,0,0,1-.563.184" transform="translate(-106.193 -112.205)"/>
          <path id="Trazado_210228" data-name="Trazado 210228" d="M257.255,284.862l-8.787-4.218L202.9,340.751l7.254,4.921Z" transform="translate(26.244 -173.567)" fill="#5774cd"/>
          <path id="Trazado_210229" data-name="Trazado 210229" d="M101.337,263.993c0,14.323,10.712,25.934,23.926,25.934s23.927-11.611,23.927-25.934-10.712-25.934-23.927-25.934-23.926,11.611-23.926,25.934" transform="translate(173.06 -147.229)"/>
          <path id="Trazado_210230" data-name="Trazado 210230" d="M210.8,272.372c-3.243,9.143.967,18.98,9.4,21.971s17.9-2,21.144-11.138-.967-18.98-9.4-21.971-17.9,2-21.144,11.138" transform="translate(38.468 -161.025)"/>
          <path id="Trazado_210231" data-name="Trazado 210231" d="M146.319,166.239c-5.339,15.054,1.592,31.251,15.481,36.177s29.476-3.285,34.815-18.34-1.592-31.251-15.481-36.177-29.476,3.285-34.815,18.34" transform="translate(107.358 -90.585)"/>
          <path id="Trazado_210232" data-name="Trazado 210232" d="M210.746,12.768c-3.448,9.723,1.028,20.184,10,23.366s19.037-2.122,22.486-11.845S242.2,4.1,233.232.923s-19.038,2.122-22.486,11.845" transform="translate(36.555 0)"/>
          <path id="Trazado_210233" data-name="Trazado 210233" d="M215.906,33.983c-3.292,9.282,4.471,20.505,17.337,25.068s25.965.738,29.257-8.544S258.03,30,245.164,25.438,219.2,24.7,215.906,33.983" transform="translate(15.569 -14.542)"/>
          <path id="Trazado_210234" data-name="Trazado 210234" d="M217.344,111.542s3.317-7.795,10.588-5.577,6.736,14.316.683,16.624c-6.8,2.593-10.991-1.321-10.991-1.321Z" transform="translate(44.719 -65.29)" fill="#e27171"/>
          <path id="Trazado_210235" data-name="Trazado 210235" d="M230.922,122.9a1.125,1.125,0,0,0,.807-.6c1.69-3.47,7.019-6.07,7.072-6.1a1,1,0,0,0,.5-1.364,1.114,1.114,0,0,0-1.463-.419c-.248.119-6.087,2.971-8.1,7.1a.955.955,0,0,0,.541,1.32,1.158,1.158,0,0,0,.64.058" transform="translate(33.882 -70.69)"/>
          <path id="Trazado_210236" data-name="Trazado 210236" d="M239.083,131.447a1.153,1.153,0,0,0,.639-.354.95.95,0,0,0-.114-1.419l-3.965-3.037a1.164,1.164,0,0,0-1.541.151.95.95,0,0,0,.114,1.419l3.965,3.036a1.135,1.135,0,0,0,.9.2" transform="translate(31.707 -78.181)"/>
          <path id="Trazado_210237" data-name="Trazado 210237" d="M314.171,443.36l-1.641-3.121s-.645-13.81-10.924-19.289-7.285.737-7.285.737-7.781,18.91-5.47,24.832c.773,1.981,9.16,6.844,12.861,8.3a13.311,13.311,0,0,1,4.458,3.532Z" transform="translate(-63.302 -258.943)" fill="#e27171"/>
          <path id="Trazado_210238" data-name="Trazado 210238" d="M317.135,423.084l10.6,5.173a3.448,3.448,0,0,1,1.435,4.807,3.7,3.7,0,0,1-5.048,1.51l-10.168-5.923a3.058,3.058,0,0,1-.952-4.336,3.265,3.265,0,0,1,4.137-1.233" transform="translate(-87.93 -261.468)" fill="#e27171"/>
          <path id="Trazado_210239" data-name="Trazado 210239" d="M319.814,442.375l12.265,6.912a3.408,3.408,0,0,0,4.154-.755l.224-.245a3.245,3.245,0,0,0-.691-5.1l-12.489-6.668a3.447,3.447,0,0,0-4.431,1.22,3.212,3.212,0,0,0,.968,4.638" transform="translate(-97.901 -269.738)" fill="#e27171"/>
          <path id="Trazado_210240" data-name="Trazado 210240" d="M333.794,455.452h0a2.972,2.972,0,0,1,3.776-.913l8.339,4.292a2.972,2.972,0,0,1,1.411,3.714l-.274.707a2.971,2.971,0,0,1-4.337,1.454l-8.065-5a2.971,2.971,0,0,1-.851-4.255" transform="translate(-113.751 -280.909)" fill="#e27171"/>
          <path id="Trazado_210241" data-name="Trazado 210241" d="M341.891,471.934h0a2.574,2.574,0,0,1,3-.55l6.809,3.678a2.218,2.218,0,0,1,.714,3.185l-.451.736a2.6,2.6,0,0,1-3.6.929l-6.358-4.413a2.313,2.313,0,0,1-.117-3.565" transform="translate(-122.033 -291.366)" fill="#e27171"/>
          <path id="Trazado_210242" data-name="Trazado 210242" d="M349.686,458.325a.4.4,0,0,0,.328-.724c-.426-.2-5.351-2.835-7.9-4.2a.4.4,0,0,0-.376.7c.3.161,7.382,3.961,7.933,4.22l.01,0" transform="translate(-119.638 -280.379)"/>
          <path id="Trazado_210243" data-name="Trazado 210243" d="M344.195,440.487a.4.4,0,0,0,.327-.724c-.473-.221-6.094-3.381-9-5.021a.4.4,0,1,0-.391.693c.344.194,8.435,4.76,9.054,5.049l.008,0" transform="translate(-111.628 -268.838)"/>
          <path id="Trazado_210244" data-name="Trazado 210244" d="M354.661,473.749a.4.4,0,0,0,.32-.728c-.562-.247-4.686-2.61-6.788-3.825a.4.4,0,1,0-.4.689c.25.144,6.125,3.538,6.866,3.864h0" transform="translate(-126.926 -290.145)"/>
          <path id="Trazado_210245" data-name="Trazado 210245" d="M318.593,433.586a.4.4,0,0,0,.36-.708l-4.684-2.735a.4.4,0,1,0-.4.686l4.683,2.735a.351.351,0,0,0,.041.021" transform="translate(-77.914 -265.992)"/>
          <path id="Trazado_210246" data-name="Trazado 210246" d="M616.011,184.628c-4.507-18.907-25.453-34.566-43.049-30.762s-28.617,20.526-24.109,39.434,23.427,27.877,43.257,26.064c19.068-1.744,28.409-15.828,23.9-34.736" transform="translate(-465.24 -94.805)" fill="#f4a187"/>
          <path id="Trazado_210247" data-name="Trazado 210247" d="M636.059,231.654s-4.9-7.632-13.487-4.642c-8.242,2.869-9.153,9.905-9.153,9.905s8.338,4.759,14.448,2.879,8.191-8.142,8.191-8.142" transform="translate(-509.19 -139.968)" fill="#fff"/>
        </g>
      </g>
      <g id="Grupo_983855" data-name="Grupo 983855" transform="translate(104.229 86.35)">
        <g id="Grupo_983854" data-name="Grupo 983854" clip-path="url(#clip-path-2)">
          <path id="Trazado_210248" data-name="Trazado 210248" d="M617.288,232.081c1.229,4.59,5.673,7.146,9.928,5.708a9.054,9.054,0,0,0,5.477-10.915c-1.229-4.59-5.674-7.146-9.928-5.708a9.054,9.054,0,0,0-5.477,10.915" transform="translate(-611.726 -222.884)"/>
        </g>
      </g>
      <g id="Grupo_983857" data-name="Grupo 983857">
        <g id="Grupo_983856" data-name="Grupo 983856" clip-path="url(#clip-path)">
          <path id="Trazado_210250" data-name="Trazado 210250" d="M569.639,205.669s-4.155-10.182.738-12.874,6.8,2.548,6.8,2.548,4.062,11.762-7.536,10.326" transform="translate(-433.664 -118.759)" fill="#fff"/>
        </g>
      </g>
      <g id="Grupo_983859" data-name="Grupo 983859" transform="translate(134.33 73.266)">
        <g id="Grupo_983858" data-name="Grupo 983858" clip-path="url(#clip-path-4)">
          <path id="Trazado_210251" data-name="Trazado 210251" d="M563.9,197.394c2.008,4.6,5.759,7.189,8.379,5.791s3.116-6.26,1.108-10.857-5.759-7.189-8.379-5.79-3.116,6.26-1.108,10.857" transform="translate(-562.711 -188.397)"/>
        </g>
      </g>
      <g id="Grupo_983861" data-name="Grupo 983861">
        <g id="Grupo_983860" data-name="Grupo 983860" clip-path="url(#clip-path)">
          <path id="Trazado_210253" data-name="Trazado 210253" d="M585.81,182.062a.767.767,0,0,1-.674-1.136,8.71,8.71,0,0,1,9.352-4.038.768.768,0,0,1-.315,1.5,7.156,7.156,0,0,0-7.689,3.271.767.767,0,0,1-.674.4" transform="translate(-457.402 -109.265)"/>
          <path id="Trazado_210254" data-name="Trazado 210254" d="M637.4,214.348a.768.768,0,0,1-.66-1.16c5.122-8.615,12.879-9.025,13.206-9.038a.757.757,0,0,1,.8.734.769.769,0,0,1-.734.8c-.3.013-7.271.417-11.95,8.287a.768.768,0,0,1-.66.376" transform="translate(-532.732 -126.257)"/>
          <path id="Trazado_210255" data-name="Trazado 210255" d="M654.771,157.351c-6.709-3.478-14.081-4.966-20.946-3.482-17.6,3.8-28.617,20.526-24.109,39.433a32.138,32.138,0,0,0,3.646,9c.514-.273,1.044-.582,1.6-.939,18.282-11.838,13.291-38.854,13.291-38.854,7.128-7.4,19.78-6.376,26.523-5.157" transform="translate(-526.104 -94.808)" fill="#fd521b"/>
          <path id="Trazado_210256" data-name="Trazado 210256" d="M582.063,262.5a78.567,78.567,0,0,1-9.048,6.117c-1.3.7-1.712,4.286,4.26,3.255,10.735-1.852,9.133-13.6,4.788-9.372" transform="translate(-442.797 -161.784)"/>
          <path id="Trazado_210257" data-name="Trazado 210257" d="M818.766,630.272l17.3-32.18L811.182,580.64l-14.829,39.234Z" transform="translate(-778.994 -359.101)" fill="#f4a187"/>
          <path id="Trazado_210258" data-name="Trazado 210258" d="M599.544,514.179a.581.581,0,0,0,.161-.432l-2.215-49.32,11.6,1.772a.586.586,0,0,0,.672-.518l6.578-61.981a21.54,21.54,0,0,0-16.413-23.182L563.616,371.9a.588.588,0,0,0-.721.53c-.042.612-1.208,14.963-16.046,14.963h-.064c-15.126-.042-23.7-13.317-23.785-13.451a.591.591,0,0,0-.586-.266l-33.262,5.186A23.056,23.056,0,0,0,470.935,394l-18.079,51.31a.587.587,0,0,0,.217.675l38.89,27.275a.585.585,0,0,0,.874-.246l8.406-19.319-1.619,60.062a.586.586,0,0,0,.586.6H599.12a.587.587,0,0,0,.424-.181" transform="translate(-428.314 -229.996)" fill="#dee9ec"/>
          <path id="Trazado_210259" data-name="Trazado 210259" d="M788.3,581.037l25.655,24.493,4.8-8.92-28.722-20.144Z" transform="translate(-758.612 -356.52)"/>
          <path id="Trazado_210260" data-name="Trazado 210260" d="M897.378,455.221s-5.737-14.363-6.574-17.069c-1.342-4.339-6.83-12.478-8.479-15.68a1.875,1.875,0,0,1,.82-2.3c1.227-.9,2.954-.842,3.656.116,2.022,2.76,5.917,8.066,8.572,11.613,3.728,4.981,9.619,24.425,9.619,24.425l-1.65,3.581Z" transform="translate(-880.663 -259.461)" fill="#f4a187"/>
          <path id="Trazado_210261" data-name="Trazado 210261" d="M907.917,439.5s-3.062-9.29-6.2-14.474c-2.53-4.181-7.306-13.342-9.061-16.734a1.9,1.9,0,0,1,.751-2.36,2.734,2.734,0,0,1,3.751.216c2.134,2.961,6.223,8.622,9.01,12.411,3.922,5.334,3.241,18.462,3.241,18.462l2.264,6.962Z" transform="translate(-891.283 -250.66)" fill="#f4a187"/>
          <path id="Trazado_210262" data-name="Trazado 210262" d="M914.646,426.806s-.769-7.1-3.906-12.283c-2.51-4.149-7.233-13.2-9.021-16.655a2.016,2.016,0,0,1,.8-2.5,2.634,2.634,0,0,1,3.614.208c2.119,2.94,6.252,8.663,9.061,12.483,3.923,5.334,3.242,18.463,3.242,18.463l-.153,10.4Z" transform="translate(-901.538 -244.14)" fill="#f4a187"/>
          <path id="Trazado_210263" data-name="Trazado 210263" d="M887.531,430.506s-4.265-7.135-5.81-12.956c-1.226-4.619-1.362-13.812-1.366-17.413a2.031,2.031,0,0,1,1.79-1.8c1.769-.306,3.3.62,3.434,2.077.325,3.535,1.057,9.844,2.418,13.943,1.8,5.423,8.365,26.561,8.365,26.561l-2.343,5.843Z" transform="translate(-871.341 -246.316)" fill="#f4a187"/>
          <path id="Trazado_210264" data-name="Trazado 210264" d="M885.032,467.054s-2.891-8.491-2.412-10.592c1.405-6.17,2.023-11.251.985-14.75-.924-3.117-.219-6.5-.118-8.883a2.936,2.936,0,0,0-2.689-2.983,2.853,2.853,0,0,0-2.944,1.557c-.736,1.736-1.886,4.538-3.053,7.735-1.953,5.347,5.647,27.13,5.647,27.13Z" transform="translate(-857.769 -265.826)" fill="#f4a187"/>
          <path id="Trazado_210265" data-name="Trazado 210265" d="M906.45,419.074a.242.242,0,0,0,.041.055.408.408,0,0,0,.514,0,2.84,2.84,0,0,1,1.814-.546,1.692,1.692,0,0,1,1.3.629c.546.744,1.239,1.7,2.013,2.756,2.13,2.921,4.78,6.555,6.719,9.146a.389.389,0,0,0,.5.054.3.3,0,0,0,.137-.434c-1.937-2.589-4.587-6.222-6.716-9.141-.774-1.061-1.468-2.013-2.013-2.757a2.325,2.325,0,0,0-1.789-.87,3.761,3.761,0,0,0-2.4.721.3.3,0,0,0-.12.382" transform="translate(-904.465 -258.493)"/>
          <path id="Trazado_210266" data-name="Trazado 210266" d="M904.1,406.164a.289.289,0,0,0,.185.135.443.443,0,0,0,.487-.21,3.161,3.161,0,0,1,.794-.864,2.755,2.755,0,0,1,1.681-.514,1.538,1.538,0,0,1,1.12.683c5.5,7.633,8.968,12.942,10.3,15.781a.356.356,0,0,0,.472.124.33.33,0,0,0,.217-.419c-1.348-2.867-4.829-8.2-10.349-15.859a2.166,2.166,0,0,0-1.577-.924,3.626,3.626,0,0,0-2.253.654,3.818,3.818,0,0,0-1.077,1.165.261.261,0,0,0,0,.249" transform="translate(-903.408 -249.909)"/>
          <path id="Trazado_210267" data-name="Trazado 210267" d="M902.489,409.512l0,0c1.835,3.219,5.265,9.223,7.619,13.26a.372.372,0,0,0,.487.094.317.317,0,0,0,.183-.427c-2.353-4.035-5.783-10.037-7.617-13.256a.371.371,0,0,0-.485-.1.32.32,0,0,0-.188.424" transform="translate(-894.224 -252.974)"/>
          <path id="Trazado_210268" data-name="Trazado 210268" d="M890.324,456.811a.362.362,0,0,0,.458.113.333.333,0,0,0,.227-.416l-4.979-11.393a.356.356,0,0,0-.467-.134.334.334,0,0,0-.227.417l4.979,11.393.01.021" transform="translate(-867.9 -275.181)"/>
          <path id="Trazado_210269" data-name="Trazado 210269" d="M837.3,508.7l2.231,66.936c.214,6.419,6.214,11.336,13.09,10.727,6.946-.615,11.854-6.6,10.648-12.994l-13.678-72.46Z" transform="translate(-822.005 -309.794)" fill="#f4a187"/>
          <path id="Trazado_210270" data-name="Trazado 210270" d="M889.213,485.966,870.976,489.6a4.207,4.207,0,0,0-3.37,4.455l.493,6.268a4.206,4.206,0,0,0,5.342,3.716l17.935-5.092a4.206,4.206,0,0,0,3.054-4.213l-.191-4.814a4.206,4.206,0,0,0-5.026-3.958" transform="translate(-864.541 -300.498)" fill="#ffc849"/>
          <path id="Trazado_210271" data-name="Trazado 210271" d="M480.477,442.068a.609.609,0,0,1-.167-.024.587.587,0,0,1-.4-.73l6.423-21.644a.586.586,0,1,1,1.124.333l-6.422,21.645a.587.587,0,0,1-.562.419" transform="translate(-309.67 -259.288)"/>
          <path id="Trazado_210272" data-name="Trazado 210272" d="M752.3,532.554a.587.587,0,0,1-.586-.582L751.5,503.9a.586.586,0,0,1,.582-.591h0a.586.586,0,0,1,.587.582l.214,28.077a.586.586,0,0,1-.582.591Z" transform="translate(-678.708 -311.273)"/>
          <path id="Trazado_210273" data-name="Trazado 210273" d="M780.728,431.041a.587.587,0,0,1-.471-.236l-20.19-27.141a.586.586,0,1,1,.941-.7L781.2,430.1a.586.586,0,0,1-.471.937" transform="translate(-710.354 -249.07)"/>
          <path id="Trazado_210274" data-name="Trazado 210274" d="M156.35,506.662a.586.586,0,0,1-.376-.136l-11.215-9.352a.585.585,0,0,1-.141-.727l15.662-29.226a.587.587,0,0,1,.839-.213l52.41,34.395a.586.586,0,1,1-.644.98L161.011,468.34l-15.134,28.239,10.848,9.046a.586.586,0,0,1-.376,1.037" transform="translate(91.969 -288.765)"/>
          <path id="Trazado_210275" data-name="Trazado 210275" d="M192.934,478.009a.585.585,0,0,1-.556-.4l-11.814-34.92a.586.586,0,1,1,1.111-.376l11.814,34.921a.586.586,0,0,1-.368.743.6.6,0,0,1-.188.031" transform="translate(98.513 -273.306)"/>
          <path id="Trazado_210276" data-name="Trazado 210276" d="M408,412.578a.585.585,0,0,1-.556-.4c-.325-.962-7.972-23.664-7.621-32.715.35-8.981,3.764-28.535,3.8-28.731a.586.586,0,1,1,1.155.2c-.034.2-3.434,19.671-3.78,28.574-.343,8.834,7.48,32.06,7.559,32.294a.586.586,0,0,1-.368.743.6.6,0,0,1-.188.031" transform="translate(-200.214 -216.614)"/>
          <path id="Trazado_210277" data-name="Trazado 210277" d="M160.494,347.24a.667.667,0,0,1-.1-.008.586.586,0,0,1-.477-.678,28.1,28.1,0,0,1,19.122-22.345.587.587,0,1,1,.293,1.136,26.914,26.914,0,0,0-18.26,21.41.586.586,0,0,1-.576.486" transform="translate(120.133 -200.497)"/>
          <path id="Trazado_210278" data-name="Trazado 210278" d="M414.158,306.9a.588.588,0,0,1-.557-.4l-3.8-11.391a.587.587,0,0,1,1.113-.371l3.8,11.391a.587.587,0,0,1-.557.772" transform="translate(-210.175 -182.035)"/>
          <path id="Trazado_210279" data-name="Trazado 210279" d="M848.009,611.862a.586.586,0,0,1-.577-.491l-5.187-31.4a.586.586,0,1,1,1.157-.19l5.187,31.4a.586.586,0,0,1-.483.673.538.538,0,0,1-.1.008" transform="translate(-809.031 -358.264)"/>
          <path id="Trazado_210280" data-name="Trazado 210280" d="M347.689,643.1h-.041a.587.587,0,0,1-.545-.625l6.678-98.419a.587.587,0,0,1,1.171.08l-6.678,98.419a.588.588,0,0,1-.584.546" transform="translate(-126.472 -336.134)"/>
          <path id="Trazado_210281" data-name="Trazado 210281" d="M317.621,603.555h-.041a.587.587,0,0,1-.545-.625L320.694,549a.586.586,0,1,1,1.17.08l-3.659,53.932a.587.587,0,0,1-.584.546" transform="translate(-81.913 -339.193)"/>
          <path id="Trazado_210282" data-name="Trazado 210282" d="M334.18,562.148c0-2.606-1.078-4.571-2.506-4.571s-2.506,1.966-2.506,4.571,1.078,4.571,2.506,4.571,2.506-1.965,2.506-4.571m-1.173,0c0,2.074-.789,3.4-1.333,3.4s-1.333-1.324-1.333-3.4.789-3.4,1.333-3.4,1.333,1.324,1.333,3.4" transform="translate(-98.858 -344.838)"/>
          <path id="Trazado_210283" data-name="Trazado 210283" d="M598.859,395.831a38.033,38.033,0,0,1-20.61-5.633,26.04,26.04,0,0,1-6.76-5.891.461.461,0,0,1,.187-.691.646.646,0,0,1,.807.16c.084.113,8.531,11.341,27.085,11.045,18.436-.29,22.012-17.893,22.046-18.071a.581.581,0,0,1,.672-.414.516.516,0,0,1,.485.575c-.035.186-3.759,18.609-23.182,18.913-.244,0-.488.006-.729.006" transform="translate(-479.877 -232.743)"/>
          <path id="Trazado_210284" data-name="Trazado 210284" d="M481.482,593a.593.593,0,0,1-.064,0l-12.671-1.373a.587.587,0,0,1,.126-1.166l12.671,1.374a.586.586,0,0,1-.062,1.169" transform="translate(-299.801 -365.17)"/>
          <path id="Trazado_210285" data-name="Trazado 210285" d="M795.91,579.166a.581.581,0,0,1-.338-.108L766.631,558.64a.586.586,0,1,1,.676-.958L796.248,578.1a.586.586,0,0,1-.338,1.065" transform="translate(-727.99 -344.835)"/>
          <path id="Trazado_210286" data-name="Trazado 210286" d="M562.632,207.635C567.53,204,568.9,197.53,565.7,193.2a9.172,9.172,0,0,0-6.765-3.627,12.123,12.123,0,0,0-12.5,9.267A9,9,0,0,0,554.7,210c.294.023.587.035.881.035a11.894,11.894,0,0,0,7.055-2.4m-3.825-16.53a7.66,7.66,0,0,1,5.656,3.011c2.7,3.648,1.471,9.158-2.747,12.284a10.208,10.208,0,0,1-6.9,2.065,7.461,7.461,0,0,1-6.891-9.3,10.233,10.233,0,0,1,3.982-6,10.353,10.353,0,0,1,6.139-2.1q.378,0,.756.031" transform="translate(-414.91 -117.222)" fill="#5774cd"/>
          <path id="Trazado_210287" data-name="Trazado 210287" d="M623.3,244.6a13.738,13.738,0,0,0,5.236-7.572,9.133,9.133,0,0,0-8.733-11.784,13.694,13.694,0,0,0-8.768,2.806c-5.494,4.073-7.214,11.1-3.832,15.662a9.45,9.45,0,0,0,7.331,3.694c.193.01.387.014.582.014a13.864,13.864,0,0,0,8.184-2.82m-14.864-1.8c-2.876-3.882-1.3-9.943,3.514-13.512a12.154,12.154,0,0,1,7.778-2.506,7.6,7.6,0,0,1,7.318,9.874,12.757,12.757,0,0,1-12.439,9.219,7.945,7.945,0,0,1-6.171-3.075" transform="translate(-498.977 -139.296)" fill="#5774cd"/>
          <path id="Trazado_210288" data-name="Trazado 210288" d="M659.416,274.589a.768.768,0,0,1-.1-1.53l19.989-2.595a.768.768,0,1,1,.2,1.523l-19.989,2.595a.735.735,0,0,1-.1.007" transform="translate(-570.564 -167.266)" fill="#5774cd"/>
          <path id="Trazado_210289" data-name="Trazado 210289" d="M594.432,234.181a.768.768,0,0,1-.743-.965c.236-.891,1.526-5.355,3.732-5.719.9-.148,1.734.339,2.473,1.45a.769.769,0,0,1-1.282.849c-.356-.536-.686-.817-.942-.783-.8.131-1.936,2.483-2.5,4.6a.768.768,0,0,1-.742.572" transform="translate(-465.614 -140.681)" fill="#5774cd"/>
          <path id="Trazado_210290" data-name="Trazado 210290" d="M586.261,240.131a.768.768,0,0,1-.7-1.08l3.488-7.846a.768.768,0,0,1,1.331-.129L593.127,235a.768.768,0,1,1-1.257.882l-1.97-2.811-2.936,6.605a.768.768,0,0,1-.7.456" transform="translate(-455.743 -142.709)"/>
          <path id="Trazado_210291" data-name="Trazado 210291" d="M578.846,270.455c-2.244,1.518-4.8,3.11-5.575,3.532-1.3.7-1.712,4.285,4.26,3.255,5.253-.906,7.547-4.18,8.016-6.794a30.906,30.906,0,0,0-6.7.007" transform="translate(-443.054 -167.15)" fill="#fd521b"/>
          <path id="Trazado_210292" data-name="Trazado 210292" d="M697.408,280.755s-10.208-9.629-15.447.872c-5.087,10.2,8.546,16.132,13.567,13.311s5.74-5.262,5.74-5.262Z" transform="translate(-600.125 -171.141)" fill="#f4a187"/>
          <path id="Trazado_210293" data-name="Trazado 210293" d="M705.951,293.234a.642.642,0,0,0,.436-.2.581.581,0,0,0-.05-.849c-6.2-5.286-11.546-3.287-11.771-3.2a.591.591,0,0,0-.344.784.641.641,0,0,0,.821.329c.2-.076,4.873-1.776,10.452,2.982a.651.651,0,0,0,.456.152" transform="translate(-610.491 -178.453)"/>
          <path id="Trazado_210294" data-name="Trazado 210294" d="M699.713,301.841a.624.624,0,0,0,.579-.459L701.7,295.8a.6.6,0,0,0-.466-.725.634.634,0,0,0-.762.444l-1.413,5.585a.6.6,0,0,0,.466.725.664.664,0,0,0,.183.016" transform="translate(-607.524 -182.479)"/>
          <path id="Trazado_210295" data-name="Trazado 210295" d="M682.228,322.105a5.716,5.716,0,0,1,5.549-5.9,5.791,5.791,0,0,1,6.2,5.284,5.717,5.717,0,0,1-5.55,5.9,5.791,5.791,0,0,1-6.2-5.285m2.2-.116a3.618,3.618,0,0,0,3.872,3.3,3.571,3.571,0,0,0,3.467-3.687,3.617,3.617,0,0,0-3.871-3.3,3.571,3.571,0,0,0-3.467,3.687" transform="translate(-593.366 -195.554)" fill="#5774cd"/>
          <path id="Trazado_210296" data-name="Trazado 210296" d="M481.91,623.38l7.109-3.663,1.078-5.764-8.67-1.325Z" transform="translate(-312.868 -378.884)"/>
          <path id="Trazado_210297" data-name="Trazado 210297" d="M480.478,641.006a.587.587,0,0,1-.577-.694l4.727-25.27a.586.586,0,1,1,1.152.215l-4.727,25.27a.586.586,0,0,1-.575.479" transform="translate(-307.975 -380.081)"/>
        </g>
      </g>
    </g>
  </g>
</svg>
