<svg id="Grupo_984436" data-name="Grupo 984436" xmlns="http://www.w3.org/2000/svg" xmlns:xlink="http://www.w3.org/1999/xlink" width="90" height="90" viewBox="0 0 90 90">
  <defs>
    <clipPath id="clip-path">
      <rect id="Rectángulo_339485" data-name="Rectángulo 339485" width="45.877" height="63.2" fill="none"/>
    </clipPath>
  </defs>
  <g id="Grupo_159043" data-name="Grupo 159043" transform="translate(0 0)">
    <circle id="Elipse_4780" data-name="Elipse 4780" cx="45" cy="45" r="45" transform="translate(0)" fill="#ffe891"/>
  </g>
  <g id="Grupo_984356" data-name="Grupo 984356" transform="translate(22.062 13.28)">
    <g id="Grupo_984356-2" data-name="Grupo 984356" transform="translate(0 0)" clip-path="url(#clip-path)">
      <path id="Trazado_212199" data-name="Trazado 212199" d="M17.722,24.356,13.433,47.737S20.882,60.605,35.62,51.4l3.067-14.255Z" transform="translate(-10.921 8.481)" fill="#ffa58f"/>
      <path id="Trazado_212200" data-name="Trazado 212200" d="M0,16.935A7.481,7.481,0,1,0,7.481,9.454,7.481,7.481,0,0,0,0,16.935" transform="translate(30.916 3.292)" fill="#2b244a"/>
      <path id="Trazado_212201" data-name="Trazado 212201" d="M2,16.158C4.229,3.324,14.209.919,25.881,4.524s14.344,8.843,15.387,19.248a218.877,218.877,0,0,1,.909,25.96c-.189,3.321-4.519,10.052-13.39,6.662A45.67,45.67,0,0,1,9.8,43.035C6.922,39.594-.235,28.992,2,16.158" transform="translate(1.496 1.046)" fill="#ffa58f"/>
      <path id="Trazado_212202" data-name="Trazado 212202" d="M22.068,43.58a22.168,22.168,0,0,1-7.775-6.8.678.678,0,0,1,.243-.922.688.688,0,0,1,.922.241,20.7,20.7,0,0,0,7.291,6.314c.77.4.088,1.567-.681,1.165" transform="translate(3.65 12.455)" fill="#2b244a"/>
      <path id="Trazado_212203" data-name="Trazado 212203" d="M2.239,38.108l.069-.038a3.149,3.149,0,0,1,1.451-.278c2.2,0,4.076,1.039,6.12,1.676a6.413,6.413,0,0,0,2.192.417c.841-.042,1.226-.654,1.637-1.327.959-1.573,3.09-2.121,4.365-.51a10.818,10.818,0,0,0,.674.921c.754.768,1.643-.039,2.408-.372.457-.2,1.7-.758,1.765.151.32,4.773-3.61,8.177-7.979,8.294a18.214,18.214,0,0,1-7.558-1.982c-1.838-.876-4.078-2.071-5.3-3.775-.689-.96-1.019-2.509.158-3.178" transform="translate(20.973 12.911)" fill="#2b244a"/>
      <path id="Trazado_212204" data-name="Trazado 212204" d="M1.872,19.446c.732,1.912,2.42.372,4.754.856.174.038.336.062.5.088.957-.484.914-2.947-.41-3.65a7.551,7.551,0,0,0-1.7-.088c-2.842.162-3.674,1.391-3.14,2.793" transform="translate(35.775 5.794)" fill="#2b244a"/>
      <path id="Trazado_212205" data-name="Trazado 212205" d="M17.176,19.442c-.727,1.913-2.425.375-4.759.856-2.145.441-3.578.162-3.553-.967.031-1.364,2.122-2.847,5.168-2.676,2.851.16,3.674,1.391,3.144,2.787" transform="translate(16.599 5.795)" fill="#2b244a"/>
      <path id="Trazado_212206" data-name="Trazado 212206" d="M10.873,21.926a1.488,1.488,0,0,1,1.184-.8,1.408,1.408,0,0,1,1.27.926,4.879,4.879,0,0,1,.33,1.711,3.1,3.1,0,0,1-.446,1.966,1.307,1.307,0,0,1-2.256-.349,4.316,4.316,0,0,1-.082-3.457" transform="translate(17.988 7.357)" fill="#2b244a"/>
      <path id="Trazado_212207" data-name="Trazado 212207" d="M2.869,21.926a1.488,1.488,0,0,1,1.184-.8,1.408,1.408,0,0,1,1.27.926,4.879,4.879,0,0,1,.33,1.711,3.105,3.105,0,0,1-.446,1.966,1.307,1.307,0,0,1-2.256-.349,4.316,4.316,0,0,1-.082-3.457" transform="translate(36.783 7.357)" fill="#2b244a"/>
      <path id="Trazado_212208" data-name="Trazado 212208" d="M6.368,34.985c-1.255-2.165-4.825-9.168-5.294-11.627a7.587,7.587,0,0,1,1.842-6.951,8.184,8.184,0,0,0,1.223-1.181C5.213,13.7,4.2,11.6,4.4,9.741A5.056,5.056,0,0,1,8.23,5.679,7.127,7.127,0,0,1,11.25,5.6,17.492,17.492,0,0,1,19.724.313,6.261,6.261,0,0,1,22.935.146a2.8,2.8,0,0,1,2.121,2.208A27.256,27.256,0,0,1,39.24,4.024a12.424,12.424,0,0,1,4.026,2.682,8.857,8.857,0,0,1,1.193,1.526,6.472,6.472,0,0,1,.333,6.632,7.432,7.432,0,0,1-5.782,3.294c-1.971.179-7.46-.81-14.029-3.918-2.528-.747-4.146,2.084-4.39,4.322-.324,2.918.856,5.735.906,8.641.036,2.346-.72,4.828-3.141,5.648a5.462,5.462,0,0,1-2.854.136c-.212,2.967-1.068,5.871-3.811,7.485a14.708,14.708,0,0,1-5.724,1.855L7.052,36.4c-.235-.522-.684-1.42-.684-1.42" transform="translate(-0.905 0)" fill="#2b244a"/>
      <path id="Trazado_212209" data-name="Trazado 212209" d="M16.967,25.491A6.265,6.265,0,1,0,24.2,20.37a6.265,6.265,0,0,0-7.23,5.121" transform="translate(-6.286 7.061)" fill="#ffa58f"/>
      <path id="Trazado_212210" data-name="Trazado 212210" d="M12.158,33.246a.6.6,0,0,0-.5-.9A58.493,58.493,0,0,1,5,31.633a.6.6,0,0,0-.6.934c.907,1.422,2.38,2.741,3.9,2.831a4.238,4.238,0,0,0,3.869-2.153" transform="translate(27.848 11.012)" fill="#2b244a"/>
      <path id="Trazado_212211" data-name="Trazado 212211" d="M7.22,23.381q.552,1.592,1.106,3.184a16.369,16.369,0,0,1,.994,3.16,2.149,2.149,0,0,1-1.173,2.349,4.563,4.563,0,0,1-1.428.239l-1.71.131c-.866.066-.862-1.282,0-1.348l1.4-.107a5.068,5.068,0,0,0,1.124-.123c.746-.236.423-1.242.247-1.769-.6-1.792-1.24-3.573-1.859-5.358-.286-.821,1.017-1.174,1.3-.359" transform="translate(30.655 7.98)" fill="#2b244a"/>
      <path id="Trazado_212212" data-name="Trazado 212212" d="M24.98,23.289a2.538,2.538,0,0,0-2.64.946,3.291,3.291,0,0,0-.228,3.288.693.693,0,0,1-.241.922.68.68,0,0,1-.922-.241,4.669,4.669,0,0,1,.271-4.709,3.891,3.891,0,0,1,4.119-1.506.675.675,0,0,1-.359,1.3" transform="translate(-7.497 7.61)" fill="#2b244a"/>
    </g>
  </g>
</svg>
