<svg xmlns="http://www.w3.org/2000/svg" xmlns:xlink="http://www.w3.org/1999/xlink" width="245" height="267" viewBox="0 0 245 267">
  <defs>
    <clipPath id="clip-path">
      <rect id="Rectángulo_339658" data-name="Rectángulo 339658" width="245" height="267" rx="17" transform="translate(-4561 -7032)" fill="#a6bbfd"/>
    </clipPath>
    <clipPath id="clip-path-2">
      <rect id="Rectángulo_339646" data-name="Rectángulo 339646" width="289.8" height="154.503" fill="#c4d1ff"/>
    </clipPath>
    <clipPath id="clip-path-3">
      <rect id="Rectángulo_339665" data-name="Rectángulo 339665" width="377.987" height="250.201" fill="none"/>
    </clipPath>
    <clipPath id="clip-path-5">
      <path id="Trazado_212755" data-name="Trazado 212755" d="M171.812,63.837c4.283,2.955,11.694,8.661,13.025,13.691-3.667,5.48-4.1,9.324-7.762,14.8l-6.857-2.871c-3.371-.223-6.149,5.739-9,7.558-2.793,1.787-5.162,2.486-8.264,1.313-.215-.081,18.347-34.5,18.849-34.493h.006" transform="translate(-152.955 -63.837)" fill="none"/>
    </clipPath>
    <clipPath id="clip-path-7">
      <path id="Trazado_212766" data-name="Trazado 212766" d="M84.039,100.285c1.392,1.626,5.052,1.534,8.386,1.442a22.728,22.728,0,0,1,4.956.171c3.229.75,5.386,1.955,6.716,4.993.092.211-37.768,11.076-37.846,10.631-.881-5.127-1.984-14.417.684-18.884,6.48-1.208,8.68-2.142,15.16-3.351Z" transform="translate(-65.257 -95.287)" fill="none"/>
    </clipPath>
    <clipPath id="clip-path-9">
      <path id="Trazado_212771" data-name="Trazado 212771" d="M66.51,1.987c-2.931,6.788-2.648,10.247-1.445,14.747a41.2,41.2,0,0,0,6.964-9.415c1.039.813,1.3.666,2.337,1.48C68.641,18.218,55.11,29.9,45.824,35.835L44.049,32.3c4.213-1.754,18.276-13.16,18.417-13.261.327-.237-1.033-5.971-.449-9.289q.706-3.972,1.407-7.942,1.542.088,3.086.182" transform="translate(-44.049 -1.805)" fill="none"/>
    </clipPath>
    <clipPath id="clip-path-11">
      <rect id="Rectángulo_339662" data-name="Rectángulo 339662" width="7.595" height="7.101" fill="none"/>
    </clipPath>
    <clipPath id="clip-path-12">
      <path id="Trazado_212833" data-name="Trazado 212833" d="M163.253,90.821a3.341,3.341,0,0,0,1.624,1.006c1.09.184,2.028-.7,3.012-1.212,2.451-1.265,5.441-.153,7.814,1.252s4.752,3.167,7.51,3.214a16.077,16.077,0,0,0,2.374-.206c1.839-.252,3.656-.5,4.91.721,1.607,1.569.826,4.29-.32,6.219a24.706,24.706,0,0,1-10.092,9.4c-2.155,1.081-4.513,1.874-6.311,3.479-3.181,2.841-3.864,7.485-4.281,11.733a20.083,20.083,0,0,0,.281,7.81c.765,2.508,2.753,4.824,5.351,5.177a14.6,14.6,0,0,1,2.887.313c2.168.752,2.735,3.86,1.5,5.791s-3.628,2.81-5.909,3.06c-6.227.686-12.292-2.343-17.268-6.144a4.655,4.655,0,0,0-1.778-.995,4.738,4.738,0,0,0-3.062.846,43.1,43.1,0,0,1-15.352,4.735,11.935,11.935,0,0,1-8.078,10.1c-3.231,1.026-6.756.6-10.054,1.39s-6.65,3.63-6.013,6.96c.291,1.508,1.366,2.913,1.079,4.419-.311,1.635-2.21,2.576-3.862,2.37a8.431,8.431,0,0,1-4.316-2.35c-2.674-2.354-5.144-5.658-4.489-9.16a14.1,14.1,0,0,1,2.4-4.807,44.839,44.839,0,0,0,6.447-16.657,2.738,2.738,0,0,0-.237-2.117,3.064,3.064,0,0,0-1.753-.87c-8.691-2.3-14.542-12.242-12.343-20.96.91-3.608,3.529-7.225,7.236-7.549a40.606,40.606,0,0,0,9.592,21.65l.254-.156a39.535,39.535,0,0,0,45.025-21.144,9.041,9.041,0,0,0,1.006-3.047,10.92,10.92,0,0,0-.745-4.171A81.135,81.135,0,0,1,154.67,89.6c-.318-2.025-.454-4.384,1.01-5.818q3.787,3.523,7.573,7.041" transform="translate(-94.452 -83.78)" fill="none"/>
    </clipPath>
  </defs>
  <g id="Enmascarar_grupo_639" data-name="Enmascarar grupo 639" transform="translate(4561 7032)" clip-path="url(#clip-path)">
    <rect id="Rectángulo_339645" data-name="Rectángulo 339645" width="245" height="267" rx="17" transform="translate(-4561 -7032)" fill="#a6bbfd"/>
    <g id="Grupo_984626" data-name="Grupo 984626" transform="translate(-4502.022 -7043.145) rotate(42)">
      <g id="Grupo_984625" data-name="Grupo 984625" clip-path="url(#clip-path-2)">
        <path id="Trazado_212742" data-name="Trazado 212742" d="M148.667,36.874A77,77,0,0,1,114.326,22.9C99.157,11.909,67.415-6.8,37.134,2.521-4.632,15.372-4.818,52.549,6.061,72.743S94.087,152.076,194.1,142.666c89.5-8.421,106.94-104.8,59.207-122.245-41.4-15.127-55.524,23.416-104.642,16.454" transform="translate(0 0)" fill="#c4d1ff"/>
        <path id="Trazado_212743" data-name="Trazado 212743" d="M10.983,3.891A5.628,5.628,0,1,1,3.891.277a5.628,5.628,0,0,1,7.092,3.614" transform="translate(147.923 22.664)" fill="#c4d1ff"/>
        <path id="Trazado_212744" data-name="Trazado 212744" d="M6.784,3.392A3.392,3.392,0,1,1,3.392,0,3.392,3.392,0,0,1,6.784,3.392" transform="translate(182.544 147.719)" fill="#c4d1ff"/>
        <path id="Trazado_212745" data-name="Trazado 212745" d="M6.619,2.345A3.392,3.392,0,1,1,2.345.167,3.392,3.392,0,0,1,6.619,2.345" transform="translate(161.629 28.169)" fill="#c4d1ff"/>
        <path id="Trazado_212746" data-name="Trazado 212746" d="M6.784,3.392A3.392,3.392,0,1,1,3.392,0,3.392,3.392,0,0,1,6.784,3.392" transform="translate(4.545 85.437)" fill="#c4d1ff"/>
        <path id="Trazado_212747" data-name="Trazado 212747" d="M6.784,3.392A3.392,3.392,0,1,1,3.392,0,3.392,3.392,0,0,1,6.784,3.392" transform="translate(283.016 57.994)" fill="#c4d1ff"/>
      </g>
    </g>
    <g id="Grupo_984649" data-name="Grupo 984649" transform="translate(-4618.545 -7015.201)">
      <g id="Grupo_984648" data-name="Grupo 984648" clip-path="url(#clip-path-3)">
        <g id="Grupo_984628" data-name="Grupo 984628">
          <g id="Grupo_984627" data-name="Grupo 984627" clip-path="url(#clip-path-3)">
            <path id="Trazado_212748" data-name="Trazado 212748" d="M165.53,81.322q-4.51-5.2-9.511-9.943a95.069,95.069,0,0,1-5.877,11.481L160.9,93.169a69.4,69.4,0,0,0,4.059-9.754Z" transform="translate(-63.647 59.884)" fill="#fbd1b9"/>
            <path id="Trazado_212749" data-name="Trazado 212749" d="M177.073,92.33c3.667-5.478,4.1-9.322,7.762-14.8-1.33-5.03-8.742-10.736-13.025-13.691-.371-.256-19.072,34.412-18.853,34.5,3.1,1.171,5.469.471,8.262-1.313,2.847-1.821,5.625-7.782,9-7.56Z" transform="translate(-88.125 53.556)" fill="#619b80"/>
          </g>
        </g>
        <g id="Grupo_984630" data-name="Grupo 984630" transform="translate(64.829 117.393)">
          <g id="Grupo_984629" data-name="Grupo 984629" clip-path="url(#clip-path-5)">
            <path id="Trazado_212750" data-name="Trazado 212750" d="M184.457,62.259q-5.525,8.427-10.842,16.988T163.2,96.5q-2.872,4.891-5.675,9.822a.453.453,0,0,1-.572.239.442.442,0,0,1-.239-.574Q161.7,97.21,166.9,88.554q5.233-8.695,10.677-17.26,3.054-4.8,6.177-9.563c.309-.473,1.008.057.7.528" transform="translate(-159.484 -65.759)" fill="#fff"/>
            <path id="Trazado_212751" data-name="Trazado 212751" d="M169.218,85.691a8.322,8.322,0,0,0-4.465-6.648c-.5-.252-.171-1.065.333-.809a9.2,9.2,0,0,1,5,7.336c.048.561-.818.684-.868.121" transform="translate(-159.446 -51.799)" fill="#fff"/>
            <path id="Trazado_212752" data-name="Trazado 212752" d="M166.13,66.515a12.351,12.351,0,0,1-10.887,4.6.439.439,0,0,1,.114-.87,11.443,11.443,0,0,0,10.074-4.261c.348-.445,1.048.083.7.528" transform="translate(-137.874 -62.175)" fill="#fff"/>
            <path id="Trazado_212753" data-name="Trazado 212753" d="M162.342,76.776a10.846,10.846,0,0,1,3.81,9.173c-.048.561-.918.447-.87-.116a9.926,9.926,0,0,0-3.47-8.358c-.43-.36.1-1.061.53-.7" transform="translate(-150.302 -53.066)" fill="#fff"/>
            <path id="Trazado_212754" data-name="Trazado 212754" d="M161.414,76.251a15.687,15.687,0,0,1,3.915,9.186c.044.557-.824.684-.868.12a14.88,14.88,0,0,0-3.737-8.761c-.375-.421.314-.962.69-.544" transform="translate(-147.537 -53.549)" fill="#fff"/>
          </g>
        </g>
        <g id="Grupo_984632" data-name="Grupo 984632">
          <g id="Grupo_984631" data-name="Grupo 984631" clip-path="url(#clip-path-3)">
            <path id="Trazado_212756" data-name="Trazado 212756" d="M142.187,19.282c7.486,1.867,11.944,10.177,8.853,16.51-.953,1.951-2.527,3.921-2,6,.351,1.39,1.574,2.446,2.468,3.628,3.11,4.11,1.738,10.361-2.885,13.134l-4.136-1.418q-.152-1.854-.3-3.7c.2,1.285-1.131,2.44-2.56,2.714a9.918,9.918,0,0,1-4.311-.46c-9.031-2.35-33.333-9.151-33.36-9.259a6.394,6.394,0,0,1,.4-3.626,5.085,5.085,0,0,0-2.955,3.049l-6.828-2.771c-2.433-6.343,2.994-14.057,10.484-14.9a11.154,11.154,0,0,0,3.45-.616c2.328-1.078,2.6-3.849,3.3-6.092,1.41-4.5,5.887-8.132,11.067-8.97s12.492,1.021,15.6,4.792Z" transform="translate(51.975 10.317)" fill="#f59f18"/>
            <path id="Trazado_212757" data-name="Trazado 212757" d="M164.653,66.321c-1.887,12.966-.057,27.134-4.678,39.4q-16.156-12.292-31.24-25.911-7.337,14.04-13.8,28.515a120.918,120.918,0,0,0,36.954,27.38c5.018,2.4,10.677,4.483,16.037,3,4.082-1.127,7.4-4.226,9.645-7.816a49.213,49.213,0,0,0,4.814-11.72Q188.417,99.738,193.4,80L173.32,68.623Z" transform="translate(-26.77 55.64)" fill="#332918"/>
            <path id="Trazado_212758" data-name="Trazado 212758" d="M88.651,88.317q3.512,10.408,7.023,20.817a36.116,36.116,0,0,1-10.721,3.525q-4.6-10.479-8.389-21.3a32.8,32.8,0,0,0,11.083-2.626Z" transform="translate(141.515 74.094)" fill="#fbd1b9"/>
            <path id="Trazado_212759" data-name="Trazado 212759" d="M70.993,63.894c-.313,8.182-4.187,21.424,1.872,26.928,3.3,3,9.366,4.579,13.746,5.4,16.085,3.02,35.466-2.922,50.641-9.051a150.795,150.795,0,0,0,11.85,30.308,2.627,2.627,0,0,0,3.422,1.743,113.9,113.9,0,0,0,33.153-10.21,310.718,310.718,0,0,0-19.511-33c-2.676-3.952-5.526-7.922-9.45-10.633-7.718-5.331-18-4.8-27.217-3.067a132.094,132.094,0,0,0-26.976,8.119q-.781-3.189-1.563-6.378a1.759,1.759,0,0,0-2.289-1.672q-12.9.913-25.8,1.822Z" transform="translate(64.528 51.267)" fill="#51432a"/>
            <path id="Trazado_212760" data-name="Trazado 212760" d="M82.094,95.287c-6.48,1.208-8.678,2.142-15.158,3.351-2.668,4.467-1.567,13.757-.686,18.884.077.445,37.939-10.42,37.846-10.633-1.33-3.036-3.487-4.241-6.716-4.991-3.29-.763-11.142.953-13.342-1.615Z" transform="translate(153.888 79.941)" fill="#619b80"/>
          </g>
        </g>
        <g id="Grupo_984634" data-name="Grupo 984634" transform="translate(219.144 175.228)">
          <g id="Grupo_984633" data-name="Grupo 984633" transform="translate(0)" clip-path="url(#clip-path-7)">
            <path id="Trazado_212761" data-name="Trazado 212761" d="M62.187,111.607q9.889-1.942,19.728-4.125t19.618-4.61q5.506-1.365,10.991-2.808a.453.453,0,0,1,.57.243.441.441,0,0,1-.243.57q-9.765,2.568-19.592,4.9-9.875,2.342-19.806,4.434-5.569,1.172-11.157,2.269c-.554.108-.662-.761-.11-.87" transform="translate(-67.972 -91.298)" fill="#fff"/>
            <path id="Trazado_212762" data-name="Trazado 212762" d="M72.016,98.342a8.318,8.318,0,0,0-1.631,7.839c.169.535-.642.868-.813.329a9.208,9.208,0,0,1,1.751-8.706c.366-.425,1.063.109.693.537" transform="translate(-40.439 -93.305)" fill="#fff"/>
            <path id="Trazado_212763" data-name="Trazado 212763" d="M82.112,102.106a12.344,12.344,0,0,1,10.9,4.566c.351.443-.349.969-.7.526a11.443,11.443,0,0,0-10.09-4.222.439.439,0,0,1-.112-.87" transform="translate(-84.587 -89.625)" fill="#fff"/>
            <path id="Trazado_212764" data-name="Trazado 212764" d="M74.626,105.23c-.658-8.551-8.6,1.133,3.895-9.136.436-.359.962.344.526.7-12.249,10.065-4.185.1-3.551,8.325.042.561-.826.675-.87.11" transform="translate(-51.913 -94.693)" fill="#fff"/>
            <path id="Trazado_212765" data-name="Trazado 212765" d="M75.581,104.451c.23-3.389-2.236-5.548,0-8.1.37-.421,1.065.112.693.537-2.148,2.451.4,4.43.175,7.681-.039.565-.908.447-.87-.114" transform="translate(-54.874 -94.527)" fill="#fff"/>
          </g>
        </g>
        <g id="Grupo_984636" data-name="Grupo 984636">
          <g id="Grupo_984635" data-name="Grupo 984635" clip-path="url(#clip-path-3)">
            <path id="Trazado_212767" data-name="Trazado 212767" d="M45.824,35.835C55.11,29.9,68.641,18.218,74.366,8.8c-1.039-.813-1.3-.668-2.337-1.48a41.2,41.2,0,0,1-6.964,9.415c-1.2-4.5-1.486-7.959,1.445-14.747l-3.084-.182q-.7,3.969-1.407,7.942c-.587,3.319.774,9.051.447,9.287-.142.1-14.2,11.506-18.417,13.263Z" transform="translate(222.617 1.514)" fill="#84511f"/>
          </g>
        </g>
        <g id="Grupo_984638" data-name="Grupo 984638" transform="translate(266.666 3.319)">
          <g id="Grupo_984637" data-name="Grupo 984637" transform="translate(0)" clip-path="url(#clip-path-9)">
            <path id="Trazado_212768" data-name="Trazado 212768" d="M66.008,26.64c1.1-1.7.3-3.959-.785-5.666-1.033-1.624-2.589-3.227-4.527-3.194-2.085.035-3.709,2.139-3.722,4.2a7.33,7.33,0,0,0,2.8,5.335c2.609,2.282,7.093,3.163,9.349.542Z" transform="translate(-62.569 11.597)" fill="#f7c79a"/>
            <path id="Trazado_212769" data-name="Trazado 212769" d="M54.425,3.888a11.109,11.109,0,0,1-3.735,1.1A3.79,3.79,0,0,1,47.277,3.47,2.333,2.333,0,0,1,48.125.147a3.163,3.163,0,0,1,2.014.044,9.917,9.917,0,0,1,4.43,2.654Z" transform="translate(-29.526 -3.32)" fill="#f7c79a"/>
            <path id="Trazado_212770" data-name="Trazado 212770" d="M49.215,7.691a9.365,9.365,0,0,1-3.2.976A3.191,3.191,0,0,1,43.09,7.359,2.685,2.685,0,0,1,44.11,3.8a3.334,3.334,0,0,1,3.814.561,4.423,4.423,0,0,1,1.223,3.785Z" transform="translate(-16.541 -0.444)" fill="#f7c79a"/>
          </g>
        </g>
        <g id="Grupo_984643" data-name="Grupo 984643">
          <g id="Grupo_984642" data-name="Grupo 984642" clip-path="url(#clip-path-3)">
            <path id="Trazado_212772" data-name="Trazado 212772" d="M67.182,15.3Q63.2,16.889,59.21,18.476a.448.448,0,0,1-.548-.311.457.457,0,0,1,.313-.55l7.972-3.178a.454.454,0,0,1,.55.313.46.46,0,0,1-.314.55" transform="translate(202.629 12.093)" fill="#84511f"/>
            <path id="Trazado_212773" data-name="Trazado 212773" d="M68.394,13.1a39.049,39.049,0,0,1-7.661,1.444c-.734.064-1.469.1-2.2.127-.574.018-.574-.875,0-.894a37.753,37.753,0,0,0,7.529-.982q1.059-.248,2.1-.557a.448.448,0,0,1,.237.862" transform="translate(202.442 10.246)" fill="#84511f"/>
            <path id="Trazado_212774" data-name="Trazado 212774" d="M68.844,10.835,59.662,9.7l-2.617-.324a.461.461,0,0,1-.447-.447.45.45,0,0,1,.447-.447q4.59.565,9.18,1.133l2.619.322a.461.461,0,0,1,.447.447.45.45,0,0,1-.447.447" transform="translate(204.616 7.118)" fill="#84511f"/>
            <path id="Trazado_212775" data-name="Trazado 212775" d="M132.651,87.59a54.427,54.427,0,0,1,1.981,10.333q.138,1.492.193,2.99c.02.576-.874.576-.894,0a53.008,53.008,0,0,0-1.39-10.258q-.336-1.426-.752-2.828a.448.448,0,0,1,.862-.237" transform="translate(0.845 73.221)" fill="#564729"/>
            <path id="Trazado_212776" data-name="Trazado 212776" d="M135.04,88.142q-.108,5.429-.576,10.844-.135,1.547-.3,3.089a.46.46,0,0,1-.447.447.45.45,0,0,1-.447-.447q.571-5.4.783-10.831.061-1.55.09-3.1a.447.447,0,0,1,.894,0" transform="translate(-2.132 73.585)" fill="#564729"/>
            <path id="Trazado_212777" data-name="Trazado 212777" d="M124.544,69.706a38.86,38.86,0,0,1,9.34-1.425q1.332-.039,2.665.017a.456.456,0,0,1,.432.327q.794,4.921,1.593,9.842c.456,2.845.859,6.072-1,8.529a4.989,4.989,0,0,1-3.564,2.091.451.451,0,0,1-.447-.447.456.456,0,0,1,.447-.447,4.02,4.02,0,0,0,2.711-1.548,6.144,6.144,0,0,0,1.3-3.294,17.335,17.335,0,0,0-.287-4.507c-.248-1.552-.5-3.1-.752-4.654q-.43-2.662-.862-5.327l.43.329a37.774,37.774,0,0,0-9.211.752q-1.288.268-2.556.625a.448.448,0,0,1-.237-.862" transform="translate(10.58 57.271)" fill="#332918"/>
            <path id="Trazado_212778" data-name="Trazado 212778" d="M97.72,70.367l-3.845,7.008q-.546,1-1.092,1.99c-.276.5-1.048.053-.772-.451q1.925-3.506,3.847-7.01.546-.993,1.091-1.988c.278-.506,1.05-.055.772.451" transform="translate(111.113 58.471)" fill="#332918"/>
            <path id="Trazado_212779" data-name="Trazado 212779" d="M98.005,70.041q-1.352,3.983-2.707,7.966-.386,1.142-.774,2.282a.447.447,0,0,1-.862-.239q1.354-3.983,2.707-7.966.386-1.139.774-2.28a.458.458,0,0,1,.55-.313.452.452,0,0,1,.313.55" transform="translate(107.759 58.287)" fill="#332918"/>
            <path id="Trazado_212780" data-name="Trazado 212780" d="M145.1,49.449c.059,2.383,5.19,26.582,7.082,28.035.69.53,1.466.945,2.137,1.5,2.569,2.117,2.928,4.638.98,7.336a24.763,24.763,0,0,0-.524,2.747c-.136.353-.162.739-.3,1.09a1.874,1.874,0,0,1-3.161.27,1.659,1.659,0,0,1-1.854,1.64,2.382,2.382,0,0,1-1.89-1.878,1.87,1.87,0,0,1-3.625.921,1.471,1.471,0,0,1-1.374,1.835,2.394,2.394,0,0,1-2.093-1.44,7.075,7.075,0,0,1-.537-2.615q-.279-3.735-.561-7.472a3.908,3.908,0,0,1,.59-2.981c.382-.417.947-.664,1.239-1.149a2.7,2.7,0,0,0,.12-1.87L134.3,49.94c-.318-1.786,2.087-1.613,3.877-1.913.557-.094,6.924,1.422,6.924,1.422" transform="translate(-25.465 40.29)" fill="#fbd1b9"/>
            <path id="Trazado_212781" data-name="Trazado 212781" d="M137.336,69.628,137.805,73a.463.463,0,0,1-.313.55.452.452,0,0,1-.55-.313l-.469-3.371a.463.463,0,0,1,.313-.55.45.45,0,0,1,.55.313" transform="translate(-10.782 58.141)" fill="#a56434"/>
            <path id="Trazado_212782" data-name="Trazado 212782" d="M139.282,69.954l.364,3.386a.45.45,0,0,1-.447.447.457.457,0,0,1-.447-.447l-.364-3.386a.45.45,0,0,1,.447-.447.457.457,0,0,1,.447.447" transform="translate(-16.145 58.313)" fill="#a56434"/>
            <path id="Trazado_212783" data-name="Trazado 212783" d="M141.479,69.887a7.576,7.576,0,0,1,.954,3.685.447.447,0,0,1-.894,0,6.617,6.617,0,0,0-.833-3.235c-.28-.5.493-.954.772-.451" transform="translate(-23.089 58.448)" fill="#a56434"/>
            <path id="Trazado_212784" data-name="Trazado 212784" d="M146.138,70.193h-9.4a.447.447,0,0,1,0-.894h9.4a.447.447,0,0,1,0,.894" transform="translate(-19.245 58.139)" fill="#a56434"/>
            <path id="Trazado_212785" data-name="Trazado 212785" d="M135.536,66.341l1.021,4.537a.458.458,0,0,1-.313.55.453.453,0,0,1-.55-.313q-.51-2.267-1.021-4.537a.458.458,0,0,1,.313-.55.453.453,0,0,1,.55.313" transform="translate(-6.217 55.383)" fill="#a56434"/>
            <path id="Trazado_212786" data-name="Trazado 212786" d="M65.006,59.652,84.464,40.514a21.68,21.68,0,0,1,2.609-10.828,43.943,43.943,0,0,1,3.72-5.767,1.064,1.064,0,0,1,1.889.8,16.286,16.286,0,0,1-2.106,6.241c2.746-4.553,5.749-9.346,10.322-11.929a.516.516,0,0,1,.736.618A56.929,56.929,0,0,1,97.09,29.5a48.538,48.538,0,0,1,6.526-9.266.514.514,0,0,1,.855.131,3.292,3.292,0,0,1-.463,2.455Q101.752,27,99.5,31.172a19.63,19.63,0,0,1,6.554-6.622.517.517,0,0,1,.734.677,55.85,55.85,0,0,1-5.3,8.294q1.961-1.881,3.957-3.726a.97.97,0,0,1,1.475,1.236l-.017.028q-2.538,3.749-5.076,7.5c-1.331,1.966-2.836,4.064-5.107,4.757-.5.151-4.45,3.3-4.888,3.582-.574.366-18.7,20.775-19.009,20.569-2.227-1.5-7.814-7.814-7.814-7.814" transform="translate(151.359 15.907)" fill="#fbd1b9"/>
            <path id="Trazado_212787" data-name="Trazado 212787" d="M160.91,48.337c8.6,2.992,23.739-.8,31.393-4.787,3.172,2.8,9.607,8.421,13.25,10.574-4.366,5.918-13.667,10.344-22.119,13.538s-20.4,3.356-28.965.491c.086,4.412-6.528,7.387-9.327,10.8-3.091,3.772-2.705,7.356-3.869,7.336-9.792-.171-26.163,6.775-33.307.075a258.259,258.259,0,0,1,10.044-31c-.36.022-17.921.813-18.623,1.784-.577.8-1.173.21,1.7,10l-15.738.912C77,45.97,83.106,45.185,84.342,43.622c7.779-9.835,36.341-10.5,41.586-10.694a50.942,50.942,0,0,1,13.134.734,27.493,27.493,0,0,1,13.809,7.919,45.611,45.611,0,0,0,6.14,5.353Z" transform="translate(23.425 27.544)" fill="#87c2a8"/>
            <path id="Trazado_212788" data-name="Trazado 212788" d="M132.518,29.028q-2.438,8.708-5.543,17.213c-.984,2.7-2.282,5.655-4.95,6.712-3,1.186-6.284-.559-9.031-2.244-1.92,2.8-2.7,3.7-4.616,6.5-.316.46-7.974-4.018-9.163-5.955-1.563-2.547,3.772-7.6,4.064-10.572-3.209.451-6.17-3.316-4.974-6.326s5.931-3.724,7.959-1.2q5.277-7.853,10.554-15.7a47.85,47.85,0,0,1,16.466,8.014Z" transform="translate(64.427 14.646)" fill="#fbd1b9"/>
            <path id="Trazado_212789" data-name="Trazado 212789" d="M115.836,29.629c-.011-.035-.028-.072-.04-.107.024.059.007.02-.007-.015-.026-.059-.051-.116-.083-.173-.057-.12-.121-.237-.189-.351s-.145-.224-.223-.333c-.02-.026-.037-.051-.057-.075l-.011-.015c-.044-.055-.09-.108-.136-.162a4.6,4.6,0,0,0-.563-.541l-.074-.061c.077.063-.022-.015-.029-.022-.051-.037-.1-.074-.156-.108-.118-.077-.235-.151-.357-.217a.447.447,0,0,1,.451-.772,5.227,5.227,0,0,1,2.337,2.714.448.448,0,0,1-.311.55.464.464,0,0,1-.552-.313" transform="translate(52.198 22.332)" fill="#a56434"/>
            <path id="Trazado_212790" data-name="Trazado 212790" d="M74.924,24.2c-.537,1.913.3,3.865.627,5.738a6.323,6.323,0,0,1-.587,4.287,3.26,3.26,0,0,1-1.819,1.466c-.55.173-.785-.69-.237-.862a2.291,2.291,0,0,0,1.26-1.017,3.684,3.684,0,0,0,.223-.421c.007-.015.044-.1.02-.042.015-.035.028-.072.042-.108.029-.079.057-.162.085-.243q.074-.24.127-.485c.031-.147.064-.349.074-.434a6.636,6.636,0,0,0,.04-1.03,5.99,5.99,0,0,0-.107-.971c-.178-.958-.452-1.9-.631-2.856a7.136,7.136,0,0,1,.02-3.257.448.448,0,0,1,.862.237" transform="translate(168.807 19.842)" fill="#a56434"/>
            <path id="Trazado_212791" data-name="Trazado 212791" d="M75.894,27.72c-1.81,2.229-5.013,2.543-6.846,4.739a3.318,3.318,0,0,0-.8,1.839.458.458,0,0,1-.447.447.45.45,0,0,1-.447-.447,5.035,5.035,0,0,1,2.26-3.577,39.017,39.017,0,0,1,3.814-2.128,6.6,6.6,0,0,0,1.83-1.506.451.451,0,0,1,.633,0,.458.458,0,0,1,0,.633" transform="translate(178.1 22.616)" fill="#a56434"/>
            <path id="Trazado_212792" data-name="Trazado 212792" d="M72.625,22.725a54.3,54.3,0,0,1-5.281,6.9.447.447,0,0,1-.633-.631,52.789,52.789,0,0,0,5.142-6.72.459.459,0,0,1,.612-.162.452.452,0,0,1,.16.612" transform="translate(182.857 18.502)" fill="#a56434"/>
            <path id="Trazado_212793" data-name="Trazado 212793" d="M73.657,21.606,68.14,28.474a.452.452,0,0,1-.633,0,.459.459,0,0,1,0-.633l5.517-6.868a.452.452,0,0,1,.633,0,.459.459,0,0,1,0,.633" transform="translate(180.293 17.487)" fill="#a56434"/>
            <path id="Trazado_212794" data-name="Trazado 212794" d="M76.179,30.335q-3.023-2.256-6.159-4.36c-.6-.4-1.2-.794-1.8-1.186a.458.458,0,0,1-.162-.612.453.453,0,0,1,.612-.16q3.164,2.055,6.221,4.27.872.632,1.736,1.276a.464.464,0,0,1,.162.612.452.452,0,0,1-.612.16" transform="translate(176.084 20.097)" fill="#a56434"/>
            <g id="Grupo_984641" data-name="Grupo 984641" transform="translate(169.825 61.548)" opacity="0.39">
              <g id="Grupo_984640" data-name="Grupo 984640" transform="translate(0)">
                <g id="Grupo_984639" data-name="Grupo 984639" clip-path="url(#clip-path-11)">
                  <path id="Trazado_212795" data-name="Trazado 212795" d="M116.661,37.275l-7.595-3.807,5.269,7.1Z" transform="translate(-109.066 -33.469)" fill="#a56434"/>
                </g>
              </g>
            </g>
            <path id="Trazado_212796" data-name="Trazado 212796" d="M115.759,28.255c-.09-.075.064.04,0,0-.026-.017-.05-.035-.077-.05-.051-.033-.108-.057-.162-.085.125.066.037.015,0,0a.813.813,0,0,0-.088-.028,1.489,1.489,0,0,0-.18-.037l.118.017a1.457,1.457,0,0,0-.39,0l.12-.017a1.364,1.364,0,0,0-.224.051l-.042.015c-.013,0-.086.035-.011,0s.007,0-.009.006a.658.658,0,0,0-.063.031.446.446,0,1,1-.451-.771,1.791,1.791,0,0,1,1.037-.219,1.919,1.919,0,0,1,1.056.445.451.451,0,0,1,0,.633.459.459,0,0,1-.633,0" transform="translate(51.674 22.793)" fill="#a56434"/>
            <path id="Trazado_212797" data-name="Trazado 212797" d="M141.249,114.043a20.009,20.009,0,0,1,2.187,20.788c-.855,1.73-1.968,3.336-2.683,5.131a7.072,7.072,0,0,0-.151,5.624c1.092,2.251,3.976,3.952,3.452,6.4-.421,1.968-3.04,2.747-4.906,2s-3.117-2.494-4.265-4.147l-5.5-7.939a8.372,8.372,0,0,1-.956-1.627,10.673,10.673,0,0,1-.4-3.768c-.143-7.142-4.114-13.568-7.957-19.587Z" transform="translate(11.816 95.677)" fill="#84511f"/>
            <path id="Trazado_212798" data-name="Trazado 212798" d="M102.174,102.477c2.668,2.394,6.613,2.666,10.179,2.306s7.157-1.23,10.7-.645,7.106,3.187,7.271,6.769a8.376,8.376,0,0,1-.509,3.012c-.524,1.572-1.8,3.329-3.417,2.946-1.328-.314-1.878-1.867-2.839-2.836-1.556-1.565-4.165-1.48-6.2-.633s-3.761,2.308-5.739,3.286a13.8,13.8,0,0,1-16.63-3.987Z" transform="translate(72.996 85.973)" fill="#84511f"/>
            <path id="Trazado_212799" data-name="Trazado 212799" d="M115.44,92.85a107.56,107.56,0,0,0-5.088-9.884c-.565-.971-1.626-2.08-2.606-1.532a2.174,2.174,0,0,0-.839,1.388,45.543,45.543,0,0,0-1.765,12.187,12.14,12.14,0,0,0,8.513-.973Z" transform="translate(69.196 68.197)" fill="#84511f"/>
            <path id="Trazado_212800" data-name="Trazado 212800" d="M112,129.282a39.539,39.539,0,0,0,45.027-21.144,9.09,9.09,0,0,0,1.006-3.049,10.946,10.946,0,0,0-.745-4.169A81.489,81.489,0,0,1,154.67,89.6c-.318-2.023-.454-4.384,1.011-5.817q3.785,3.52,7.573,7.04a3.34,3.34,0,0,0,1.622,1.008c1.092.182,2.028-.706,3.012-1.214,2.451-1.265,5.441-.153,7.814,1.254s4.754,3.165,7.51,3.213c2.519.042,5.484-1.245,7.286.515,1.605,1.569.826,4.29-.322,6.221a24.719,24.719,0,0,1-10.092,9.4c-2.155,1.079-4.513,1.872-6.309,3.477-3.183,2.843-3.865,7.486-4.283,11.733a20.082,20.082,0,0,0,.283,7.81c.763,2.508,2.751,4.825,5.351,5.177a14.734,14.734,0,0,1,2.887.313c2.168.752,2.733,3.86,1.5,5.793s-3.63,2.808-5.91,3.06c-6.225.684-12.29-2.345-17.268-6.146a4.653,4.653,0,0,0-1.778-.995,4.741,4.741,0,0,0-3.06.846,43.036,43.036,0,0,1-15.353,4.735,11.935,11.935,0,0,1-8.077,10.1c-3.231,1.026-6.756.605-10.055,1.39s-6.65,3.63-6.012,6.959c.289,1.508,1.365,2.913,1.079,4.419-.313,1.635-2.21,2.576-3.862,2.369a8.427,8.427,0,0,1-4.318-2.348c-2.674-2.354-5.144-5.658-4.489-9.16a14.13,14.13,0,0,1,2.4-4.807,44.8,44.8,0,0,0,6.447-16.655,2.733,2.733,0,0,0-.237-2.118,3.05,3.05,0,0,0-1.753-.868c-8.691-2.3-14.542-12.242-12.343-20.96.91-3.608,3.529-7.225,7.236-7.551a40.6,40.6,0,0,0,9.594,21.65Z" transform="translate(12.886 70.288)" fill="#b7772f"/>
          </g>
        </g>
        <g id="Grupo_984645" data-name="Grupo 984645" transform="translate(107.338 154.068)">
          <g id="Grupo_984644" data-name="Grupo 984644" clip-path="url(#clip-path-12)">
            <path id="Trazado_212801" data-name="Trazado 212801" d="M104.443,101.214a6.928,6.928,0,0,1-5.921,6.258,2.905,2.905,0,0,1-2.157-.445c-1.521-1.221-.309-3.779-1.074-5.574-.5-1.162-1.732-1.795-2.615-2.7-2.427-2.49-1.714-6.957.839-9.32S99.846,86.5,103.3,86.9c2.512.291,5.129,1.144,6.686,3.137,1.843,2.356,1.747,5.64,1.567,8.625Z" transform="translate(-8.674 -81.263)" fill="#f7c79a"/>
            <path id="Trazado_212802" data-name="Trazado 212802" d="M144.866,96.576a49.6,49.6,0,0,1,3.913,21.159,7.273,7.273,0,0,1-1.1,4.2c-2.387,3.148-7.407,1.142-11.262,2.019-3.229.736-5.495,3.523-7.766,5.936s-5.3,4.748-8.559,4.156a7.448,7.448,0,0,1-5.254-4.873,19.719,19.719,0,0,1-.892-7.391A126.642,126.642,0,0,1,116.477,98.7Z" transform="translate(-87.696 -73.045)" fill="#f7c79a"/>
            <path id="Trazado_212803" data-name="Trazado 212803" d="M100.6,94.972a5.326,5.326,0,0,1-7.141-3.512,2.2,2.2,0,0,1,2.418-3.1,6.008,6.008,0,0,1,5.155,4.447Z" transform="translate(-2.106 -79.951)"/>
            <path id="Trazado_212804" data-name="Trazado 212804" d="M102.749,92.654a1.677,1.677,0,1,0,1.677-1.677,1.676,1.676,0,0,0-1.677,1.677" transform="translate(-24.405 -77.742)"/>
            <path id="Trazado_212805" data-name="Trazado 212805" d="M109.576,88.98a6.055,6.055,0,0,0-5.294,3.459,7.134,7.134,0,0,0,5.791-3.386Z" transform="translate(-31.193 -79.417)" fill="#84511f"/>
            <path id="Trazado_212806" data-name="Trazado 212806" d="M103.276,96.883a4.811,4.811,0,0,1-3.722.978,4.622,4.622,0,0,1-3.036-1.946,4.516,4.516,0,0,1-.767-1.872.461.461,0,0,1,.311-.55.452.452,0,0,1,.55.313,3.9,3.9,0,0,0,1.479,2.484,3.709,3.709,0,0,0,2.929.675,3.748,3.748,0,0,0,1.624-.715.463.463,0,0,1,.633,0,.451.451,0,0,1,0,.633" transform="translate(-8.825 -75.642)"/>
            <path id="Trazado_212807" data-name="Trazado 212807" d="M115.906,90.108a6.006,6.006,0,0,0-3.132,2.744,1.377,1.377,0,0,1-.587.7c-.508.208-1.006-.3-1.3-.763a14.725,14.725,0,0,1-2.234-7.611q3.71,1.032,7.359,2.264Z" transform="translate(-45.182 -82.605)" fill="#f7c79a"/>
            <path id="Trazado_212808" data-name="Trazado 212808" d="M105.658,119.967a3.409,3.409,0,0,0-1.749-2.056,3.13,3.13,0,0,0-.618-.252,3.813,3.813,0,0,0-.379-.1l-.143-.028-.1-.015c.039.006.029.006-.026,0a3.072,3.072,0,0,0-1.418.154.447.447,0,1,1-.237-.862,4.478,4.478,0,0,1,4.835,1.559,4.009,4.009,0,0,1,.693,1.361.448.448,0,0,1-.862.237" transform="translate(-21.006 -56.242)" fill="#84511f"/>
            <path id="Trazado_212809" data-name="Trazado 212809" d="M103.619,117.322a2.857,2.857,0,0,0-1.344-.962,2.816,2.816,0,0,0-.822-.156,2.479,2.479,0,0,0-.881.107.448.448,0,0,1-.237-.862,3.79,3.79,0,0,1,4.057,1.423.449.449,0,0,1-.162.611.457.457,0,0,1-.611-.16" transform="translate(-17.738 -57.328)" fill="#84511f"/>
            <path id="Trazado_212810" data-name="Trazado 212810" d="M105.447,115.5l-1.605,2.569a.447.447,0,0,1-.772-.451q.8-1.285,1.605-2.569a.447.447,0,0,1,.772.451" transform="translate(-24.285 -57.732)" fill="#84511f"/>
            <path id="Trazado_212811" data-name="Trazado 212811" d="M138.189,128.774a4.6,4.6,0,0,1,.776,5.655c-.3.489-1.076.04-.772-.451a3.694,3.694,0,0,0-.636-4.572.447.447,0,1,1,.633-.633" transform="translate(-121.677 -46.139)" fill="#84511f"/>
            <path id="Trazado_212812" data-name="Trazado 212812" d="M139.7,129.388a6.081,6.081,0,0,1,.184,6.263.447.447,0,0,1-.772-.451,5.166,5.166,0,0,0-.184-5.361.448.448,0,0,1,.772-.452" transform="translate(-125.394 -45.701)" fill="#84511f"/>
            <path id="Trazado_212813" data-name="Trazado 212813" d="M141.454,128.321l-2.271.544a.447.447,0,0,1-.237-.862l2.271-.544a.447.447,0,1,1,.237.862" transform="translate(-126.048 -47.146)" fill="#84511f"/>
            <path id="Trazado_212814" data-name="Trazado 212814" d="M124.468,113.183a11.753,11.753,0,0,1,4.491,6,17.207,17.207,0,0,1,.537,8.428,31.335,31.335,0,0,1-1.282,5,.457.457,0,0,1-.55.311.452.452,0,0,1-.313-.55,24.745,24.745,0,0,0,1.526-8.643,13.386,13.386,0,0,0-2.117-7,9.8,9.8,0,0,0-2.744-2.771.459.459,0,0,1-.162-.612.453.453,0,0,1,.612-.16" transform="translate(-86.783 -59.164)" fill="#84511f"/>
            <path id="Trazado_212815" data-name="Trazado 212815" d="M113.156,109.853a25.25,25.25,0,0,0,.276,7.032,25.69,25.69,0,0,0,2.185,6.7,25.254,25.254,0,0,0,2.05,3.466.448.448,0,0,1-.772.452,26.083,26.083,0,0,1-3.292-6.451,26.568,26.568,0,0,1-1.422-7.139,25.546,25.546,0,0,1,.081-4.057.458.458,0,0,1,.447-.447.451.451,0,0,1,.447.447" transform="translate(-53.293 -62.281)" fill="#84511f"/>
            <path id="Trazado_212816" data-name="Trazado 212816" d="M142.107,106.495q1.1,1.619,2.2,3.24a.453.453,0,0,1-.16.612.458.458,0,0,1-.612-.16q-1.1-1.622-2.2-3.242a.447.447,0,0,1,.772-.451" transform="translate(-133.52 -64.908)" fill="#84511f"/>
            <path id="Trazado_212817" data-name="Trazado 212817" d="M143.294,107.7l1.6,2.253a.45.45,0,0,1-.162.611.458.458,0,0,1-.611-.16q-.8-1.125-1.6-2.253a.45.45,0,0,1,.162-.611.458.458,0,0,1,.611.16" transform="translate(-136.282 -63.891)" fill="#84511f"/>
            <path id="Trazado_212818" data-name="Trazado 212818" d="M145.27,103.968q.45,1.454.9,2.911a.447.447,0,0,1-.862.235q-.45-1.454-.9-2.907a.447.447,0,0,1,.862-.239" transform="translate(-141.067 -67.115)" fill="#84511f"/>
            <path id="Trazado_212819" data-name="Trazado 212819" d="M145.4,101.179l-.031.072c.02-.046.018-.044,0,0s-.029.074-.042.112c-.033.086-.061.175-.086.265s-.046.178-.064.27q-.014.058-.022.116l-.015.079c-.006.046-.007.051,0,.018s0-.026,0,.02c0,.026-.006.053-.007.079s-.009.079-.009.118c-.006.094-.007.186-.007.28s.006.186.015.278l.011.118h0l.013.077a.458.458,0,0,1-.313.55.452.452,0,0,1-.55-.311,4.447,4.447,0,0,1,.342-2.595.45.45,0,0,1,.612-.162.458.458,0,0,1,.158.612" transform="translate(-140.034 -69.746)" fill="#84511f"/>
            <path id="Trazado_212820" data-name="Trazado 212820" d="M104.566,96.191c3.055,5.646,9.642,8.347,15.9,9.765a14.45,14.45,0,0,0,7.2.265q-1.545,2.8-3.091,5.6a1.559,1.559,0,0,1-.451.579,1.594,1.594,0,0,1-1.326.007c-7.227-2.115-14.793-4.428-20.056-9.811a1.879,1.879,0,0,1-.675-1.216,1.941,1.941,0,0,1,.222-.774l2.074-4.662Z" transform="translate(-44.724 -73.577)" fill="#a53c43"/>
            <path id="Trazado_212821" data-name="Trazado 212821" d="M119.991,102.537a36.054,36.054,0,0,1-4.5,5.487,1.454,1.454,0,0,1-.914.533c-.885.018-1-1.278-.791-2.139q.546-2.248,1.089-4.5a13.54,13.54,0,0,1-7,3.934,11.939,11.939,0,0,1,3.093-5.254l-4.042,1.787a12.527,12.527,0,0,1,4.413-7.176Z" transform="translate(-45.988 -74.187)" fill="#b7772f"/>
            <path id="Trazado_212822" data-name="Trazado 212822" d="M113.095,99.615a9.724,9.724,0,0,1-8.525,1.627,9.151,9.151,0,0,1-2.295-1c-.487-.3-.039-1.076.452-.772a8.813,8.813,0,0,0,7.81.611,7.992,7.992,0,0,0,1.925-1.094.463.463,0,0,1,.633,0,.451.451,0,0,1,0,.633" transform="translate(-30.267 -71.131)" fill="#84511f"/>
            <path id="Trazado_212823" data-name="Trazado 212823" d="M110.4,98.042a7.305,7.305,0,0,0-1.287,2.768.447.447,0,0,1-.862-.237,8.1,8.1,0,0,1,1.377-2.981.461.461,0,0,1,.612-.16.449.449,0,0,1,.16.611" transform="translate(-38.866 -72.378)" fill="#84511f"/>
            <path id="Trazado_212824" data-name="Trazado 212824" d="M111.516,97.958q-.643.8-1.287,1.6a.448.448,0,0,1-.316.131.459.459,0,0,1-.316-.131.451.451,0,0,1-.131-.316.523.523,0,0,1,.131-.316q.645-.8,1.287-1.6a.455.455,0,0,1,.316-.131.459.459,0,0,1,.316.131.455.455,0,0,1,.131.316.523.523,0,0,1-.131.316" transform="translate(-42.298 -72.525)" fill="#84511f"/>
            <path id="Trazado_212825" data-name="Trazado 212825" d="M112.213,96.906q-.643.643-1.285,1.284a.446.446,0,1,1-.631-.631q.643-.643,1.284-1.285a.447.447,0,0,1,.633.633" transform="translate(-44.288 -73.406)" fill="#84511f"/>
            <path id="Trazado_212826" data-name="Trazado 212826" d="M112.918,95.82q-.629.5-1.258,1a.481.481,0,0,1-.314.132.452.452,0,0,1-.449-.447.432.432,0,0,1,.132-.316l1.256-1a.494.494,0,0,1,.316-.131.459.459,0,0,1,.316.131.455.455,0,0,1,.131.316.437.437,0,0,1-.131.316" transform="translate(-46.334 -74.319)" fill="#84511f"/>
            <path id="Trazado_212827" data-name="Trazado 212827" d="M127.4,118.237a6.783,6.783,0,0,1-1.026,3.755c-.305.485-1.079.039-.772-.452a5.917,5.917,0,0,0,.9-3.3.447.447,0,0,1,.894,0" transform="translate(-87.607 -55.234)" fill="#84511f"/>
            <path id="Trazado_212828" data-name="Trazado 212828" d="M129.1,121.087l-.642.965a.482.482,0,0,1-.268.2.45.45,0,0,1-.344-.046.441.441,0,0,1-.2-.265.448.448,0,0,1,.044-.344l.642-.965a.478.478,0,0,1,.267-.2.462.462,0,0,1,.346.044.453.453,0,0,1,.2.268.444.444,0,0,1-.044.342" transform="translate(-93.218 -53.043)" fill="#84511f"/>
            <path id="Trazado_212829" data-name="Trazado 212829" d="M131,119.277q-.792.974-1.581,1.946a.449.449,0,0,1-.633,0,.459.459,0,0,1,0-.633q.792-.971,1.581-1.946a.449.449,0,0,1,.633,0,.459.459,0,0,1,0,.633" transform="translate(-97.064 -54.64)" fill="#84511f"/>
            <path id="Trazado_212830" data-name="Trazado 212830" d="M109.687,117.63l-1.28-.34a.448.448,0,0,1,.239-.862q.637.171,1.278.34a.447.447,0,1,1-.237.862" transform="translate(-38.354 -56.404)" fill="#84511f"/>
            <path id="Trazado_212831" data-name="Trazado 212831" d="M109.01,116.033l-.653-.631a.447.447,0,0,1,.314-.763.476.476,0,0,1,.316.131c.219.211.436.421.655.631a.448.448,0,0,1,0,.633.455.455,0,0,1-.316.131.475.475,0,0,1-.316-.131" transform="translate(-38.149 -57.891)" fill="#84511f"/>
            <path id="Trazado_212832" data-name="Trazado 212832" d="M111.547,116.839l-.642-.322a.344.344,0,0,1-.125-.116.335.335,0,0,1-.081-.151.347.347,0,0,1-.007-.178.322.322,0,0,1,.053-.167.444.444,0,0,1,.267-.2l.12-.017a.433.433,0,0,1,.224.061l.642.322a.366.366,0,0,1,.127.116.329.329,0,0,1,.079.153.52.52,0,0,1-.044.344.453.453,0,0,1-.268.2l-.118.017a.444.444,0,0,1-.226-.061" transform="translate(-45.111 -57.014)" fill="#84511f"/>
          </g>
        </g>
        <g id="Grupo_984647" data-name="Grupo 984647">
          <g id="Grupo_984646" data-name="Grupo 984646" clip-path="url(#clip-path-3)">
            <path id="Trazado_212834" data-name="Trazado 212834" d="M135.735,108.4a10.15,10.15,0,0,0-.4,4.162.451.451,0,0,1-.447.447.456.456,0,0,1-.447-.447,10.792,10.792,0,0,1,.432-4.4c.173-.548,1.035-.314.862.237" transform="translate(-4.883 90.483)" fill="#b7772f"/>
            <path id="Trazado_212835" data-name="Trazado 212835" d="M136.672,108.523v2.141a.447.447,0,0,1-.894,0v-2.141a.447.447,0,0,1,.894,0" transform="translate(-8.374 90.671)" fill="#b7772f"/>
            <path id="Trazado_212836" data-name="Trazado 212836" d="M141.572,103.059a18.3,18.3,0,0,0-.474,5.432.451.451,0,0,1-.447.447.456.456,0,0,1-.447-.447,19.1,19.1,0,0,1,.506-5.669c.136-.559,1-.322.862.237" transform="translate(-21.362 85.995)" fill="#b7772f"/>
            <path id="Trazado_212837" data-name="Trazado 212837" d="M142.252,102.122a6.1,6.1,0,0,0-.408,3.187.46.46,0,0,1-.313.55.45.45,0,0,1-.55-.313,6.954,6.954,0,0,1,.408-3.661.461.461,0,0,1,.55-.313.451.451,0,0,1,.313.55" transform="translate(-23.393 85.201)" fill="#b7772f"/>
            <path id="Trazado_212838" data-name="Trazado 212838" d="M143.468,99.412a5.764,5.764,0,0,0-1.149,4.1.449.449,0,0,1-.447.447.458.458,0,0,1-.447-.447,6.5,6.5,0,0,1,1.271-4.546.464.464,0,0,1,.612-.162.451.451,0,0,1,.16.612" transform="translate(-25.56 82.839)" fill="#b7772f"/>
            <path id="Trazado_212839" data-name="Trazado 212839" d="M126.619,107.4a5.76,5.76,0,0,1-5.6-.853.451.451,0,0,1,0-.633.459.459,0,0,1,.633,0,4.867,4.867,0,0,0,4.732.623.451.451,0,0,1,.55.313.459.459,0,0,1-.313.55" transform="translate(28.732 88.749)" fill="#f7c79a"/>
            <path id="Trazado_212840" data-name="Trazado 212840" d="M126.7,108.827q-1.931-.626-3.864-1.254a.447.447,0,1,1,.239-.862q1.931.629,3.862,1.254a.458.458,0,0,1,.313.55.451.451,0,0,1-.55.313" transform="translate(25.44 89.51)" fill="#f7c79a"/>
            <path id="Trazado_212841" data-name="Trazado 212841" d="M120.937,103.333a11.679,11.679,0,0,1-4.4-.425.447.447,0,0,1,.237-.861,11.03,11.03,0,0,0,4.165.392.45.45,0,0,1,.447.447.457.457,0,0,1-.447.447" transform="translate(42.879 85.596)" fill="#f7c79a"/>
            <path id="Trazado_212842" data-name="Trazado 212842" d="M119.291,105.073l-1.707-.87a.452.452,0,0,1-.16-.612.46.46,0,0,1,.612-.16q.852.436,1.7.87a.449.449,0,0,1,.16.612.456.456,0,0,1-.611.16" transform="translate(42.196 86.726)" fill="#f7c79a"/>
            <path id="Trazado_212843" data-name="Trazado 212843" d="M130.494,109.749a2.851,2.851,0,0,1-2.575-1.453.448.448,0,1,1,.772-.452c.026.048.051.094.081.14a1.245,1.245,0,0,1,.092.132c0-.007-.057-.068-.011-.013l.051.061c.037.04.072.079.11.118s.07.068.107.1.048.042.074.063c.053.046,0-.013-.015-.009.013-.006.118.083.132.092.044.029.09.057.138.085s.085.046.129.066c.024.013.048.024.074.035.075.037-.055-.02,0,0a2.708,2.708,0,0,0,.292.094c.051.013.1.026.156.035.015,0,.109.015.037.007s.031,0,.037,0a2.094,2.094,0,0,0,.322.007.45.45,0,0,1,.447.447.456.456,0,0,1-.447.447" transform="translate(11.913 90.294)" fill="#f7c79a"/>
            <path id="Trazado_212844" data-name="Trazado 212844" d="M115.421,97.568l-2.6.747a.453.453,0,0,1-.55-.313.457.457,0,0,1,.313-.55l2.6-.747a.447.447,0,0,1,.237.862" transform="translate(55.804 81.118)" fill="#b7772f"/>
            <path id="Trazado_212845" data-name="Trazado 212845" d="M117.286,94.772a9.445,9.445,0,0,1-4.91,4.185.45.45,0,0,1-.55-.311.455.455,0,0,1,.311-.55,8.5,8.5,0,0,0,4.377-3.775.447.447,0,0,1,.772.451" transform="translate(55.027 78.947)" fill="#b7772f"/>
            <path id="Trazado_212846" data-name="Trazado 212846" d="M117.961,99.044a8.133,8.133,0,0,1-5.46-.379.449.449,0,0,1-.16-.611.458.458,0,0,1,.611-.162,7.157,7.157,0,0,0,4.772.289.448.448,0,0,1,.237.862" transform="translate(53.227 82.084)" fill="#b7772f"/>
            <path id="Trazado_212847" data-name="Trazado 212847" d="M83.092,91.248a45.718,45.718,0,0,0-11-22.277c-5.7-6.3-15.953-10.844-22.336-5.234-4.48,3.937-4.557,10.828-3.705,16.731a91.877,91.877,0,0,0,10.92,32c-4.007-4.676-8.665-9.257-14.625-10.808s-13.41,1.107-15.166,7.012c-.986,3.319-.044,6.894,1.184,10.131a58.633,58.633,0,0,0,9.862,16.843c-7.214-5.088-19.052-1.585-21.7,6.837s5.991,18.331,14.572,16.251A38.151,38.151,0,0,0,2.191,173.464,8.76,8.76,0,0,0,0,178.385c-.11,5.267,7.032,6.9,12.3,6.789L104.89,183.3c5.34-.109,10.925-.281,15.591-2.882s7.976-8.468,5.881-13.382c-3.264-7.656-14.456-6.083-22.262-3.2a50.308,50.308,0,0,0,21.3-26.17c.912-2.595,1.44-5.909-.614-7.738-1.879-1.673-4.809-1.083-7.161-.191a43.738,43.738,0,0,0-14.925,9.5A56.923,56.923,0,0,0,114.8,106.244a43.137,43.137,0,0,0-20.175,13.822,55.664,55.664,0,0,0,16.688-41.481c-.081-2.218-.605-4.868-2.674-5.671-1.856-.723-3.865.5-5.425,1.732A58.5,58.5,0,0,0,88.477,92.013,25.835,25.835,0,0,0,90.3,70.6a17.717,17.717,0,0,0-7.4,21.6Z" transform="translate(250.984 51.339)" fill="#c2b38c"/>
            <path id="Trazado_212848" data-name="Trazado 212848" d="M56.166,78.032a24.412,24.412,0,0,0-6.26-21.126,16.253,16.253,0,0,0,5.625,19.221Z" transform="translate(231.805 47.741)" fill="#c2b38c"/>
            <path id="Trazado_212849" data-name="Trazado 212849" d="M65.935,70.64a15.318,15.318,0,0,0-16.047-3.59,11.935,11.935,0,0,0,16.12,2.361Z" transform="translate(220.237 55.481)" fill="#c2b38c"/>
            <path id="Trazado_212850" data-name="Trazado 212850" d="M70.6,104.644a50.475,50.475,0,0,0,7.632-10.392,30.28,30.28,0,0,0,2.472-5.346,10.3,10.3,0,0,0,.522-4.978,4.337,4.337,0,0,0-2.841-3.435,6.38,6.38,0,0,0-5.013.881c-3.2,1.843-5.394,5.338-6.563,8.764a19.457,19.457,0,0,0-.478,11.116c.12.46.257.912.41,1.361-.248-.066-.5-.132-.747-.2A15.017,15.017,0,0,0,69.459,92.4a15.218,15.218,0,0,0-3.722-9.929,6.519,6.519,0,0,0-2.451-1.9,2.748,2.748,0,0,0-2.834.686,14.539,14.539,0,0,0-3.362,4.577,21.425,21.425,0,0,0-1.811,11,34.342,34.342,0,0,0,2.977,11.361c.2.445.408.888.625,1.326l-.816.107a12.64,12.64,0,0,0-1.552-8.888A13.094,13.094,0,0,0,53.5,97.206a9.471,9.471,0,0,0-4.288-2.133,2.742,2.742,0,0,0-2.492.71A6.011,6.011,0,0,0,45.538,97.9a17.234,17.234,0,0,0-1.013,4.432,19.435,19.435,0,0,0,1.388,9.068,18.03,18.03,0,0,0,6.383,8.051l-.541.07c1.013-.989.337-2.389-.375-3.345a13.654,13.654,0,0,0-3.617-3c-2.644-1.74-5.763-3.343-9.026-2.727a6.737,6.737,0,0,0-3.557,1.775,5.138,5.138,0,0,0-1.416,4.016,10.234,10.234,0,0,0,1.719,4.612,17.313,17.313,0,0,0,3.066,3.652c2.324,2.093,5.846,3.967,8.878,2.2l-.206.5a10.4,10.4,0,0,0-5-6.023,7.672,7.672,0,0,0-7.416.12,6.668,6.668,0,0,0-3.512,6.482,10.551,10.551,0,0,0,1.6,4.257,35.123,35.123,0,0,0,2.8,3.856c.989,1.219,2.166,2.576,3.772,2.935a2.877,2.877,0,0,0,3.3-1.311c.024.18.046.36.07.541-4.813-3.834-11.129-6.58-17.358-5.136a13.651,13.651,0,0,0-7.115,4.053,10.32,10.32,0,0,0-2.621,7.15,9.1,9.1,0,0,0,3.516,7.227c.463.333.017,1.109-.451.772-4.553-3.277-5.11-10.18-2-14.623a13.86,13.86,0,0,1,7.144-5.085,17.2,17.2,0,0,1,9.335-.241,26.589,26.589,0,0,1,10.177,5.252.455.455,0,0,1,.07.541,3.536,3.536,0,0,1-3.264,1.837,5.769,5.769,0,0,1-4.005-1.924,29.918,29.918,0,0,1-3.227-4,15.191,15.191,0,0,1-2.359-4.607,7.566,7.566,0,0,1,.107-4.68,7.768,7.768,0,0,1,2.492-3.338,8.567,8.567,0,0,1,8.167-1.385,11.138,11.138,0,0,1,6.642,7.093.453.453,0,0,1-.206.5c-3.007,1.754-6.475.414-9.013-1.547a17.782,17.782,0,0,1-3.615-3.821,12.711,12.711,0,0,1-2.266-4.956,6.3,6.3,0,0,1,.942-4.818,7.02,7.02,0,0,1,3.709-2.534c3.5-1.057,6.992.342,9.947,2.2a16.046,16.046,0,0,1,4.568,3.729c.969,1.306,1.556,3.139.235,4.428a.456.456,0,0,1-.541.07,19.832,19.832,0,0,1-8.259-17.3,18.178,18.178,0,0,1,.954-4.89c.563-1.622,1.4-3.485,3.275-3.84,1.806-.34,3.709.565,5.182,1.534a13.907,13.907,0,0,1,5.927,14.14.451.451,0,0,1-.816.107A36.622,36.622,0,0,1,54.5,98a23.3,23.3,0,0,1,1.469-11.839A16.843,16.843,0,0,1,59.2,81.229a4.856,4.856,0,0,1,2.806-1.69,4.247,4.247,0,0,1,3.113,1.109,13.5,13.5,0,0,1,3.588,4.695,16.864,16.864,0,0,1,1.556,5.589,16.262,16.262,0,0,1-2.747,10.986c-.278.392-.576.769-.89,1.133a.451.451,0,0,1-.747-.2,20.413,20.413,0,0,1,2.137-17.284,15.551,15.551,0,0,1,3.992-4.38,8.6,8.6,0,0,1,5.3-1.793,5.085,5.085,0,0,1,4.252,2.746,8.209,8.209,0,0,1,.469,5.14,20.586,20.586,0,0,1-1.986,5.432,51.147,51.147,0,0,1-7.672,11.326c-.373.419-.756.831-1.142,1.238s-1.03-.215-.633-.633" transform="translate(268.447 66.601)" fill="#564729"/>
            <path id="Trazado_212851" data-name="Trazado 212851" d="M30.572,104.926a7.733,7.733,0,0,1,3.877.4,9.586,9.586,0,0,1,3.3,2.124,9.916,9.916,0,0,1,3.078,6.973,7.559,7.559,0,0,1-.982,3.715,7.827,7.827,0,0,1-2.37,2.534,10.033,10.033,0,0,1-6.593,1.615,8.679,8.679,0,0,1-6.041-3.067,7.731,7.731,0,0,1-.522-.745.448.448,0,0,1,.384-.671,8.413,8.413,0,0,1,6.188,3.79,10.029,10.029,0,0,1,1.7,7.135,7.506,7.506,0,0,1-4.2,5.62,9.9,9.9,0,0,1-7.041.408,8.7,8.7,0,0,1-5.412-4.4,7.8,7.8,0,0,1-.355-.881.447.447,0,1,1,.862-.237c.044.132.092.265.143.394,0-.006.05.121.026.063s.028.068.026.061c.033.077.068.151.1.226a7.152,7.152,0,0,0,.4.714c.074.114.149.226.228.335.04.055.081.11.121.164-.046-.061,0-.006.006.006.029.037.059.074.09.11a7.658,7.658,0,0,0,.563.609c.195.189.4.366.611.535.107.083-.068-.051.039.029l.066.05c.053.04.108.081.166.12.121.086.246.169.373.25.232.147.471.281.714.406.123.063.246.123.371.18.064.028.127.057.189.083.013.006.079.033.009,0l.134.055a9.8,9.8,0,0,0,1.611.487c.136.029.272.055.41.079l.206.033.083.011c.053.007.055.007.006,0l.083.009c.276.033.552.055.829.066s.554.007.831-.006c.138-.006.276-.017.412-.029.07-.005.138-.013.206-.02.035,0,.068-.007.1-.013.112-.013-.022.006.064-.009a9.123,9.123,0,0,0,1.609-.39c.121-.042.241-.088.36-.136.009,0,.132-.055.044-.017l.074-.033c.075-.031.149-.066.221-.1a7.378,7.378,0,0,0,.712-.386c.116-.072.228-.147.338-.224.057-.039.11-.077.166-.118-.006,0,.1-.077.051-.039-.031.024.072-.057.083-.066a6.65,6.65,0,0,0,.607-.552c.1-.1.191-.2.281-.305.046-.053.092-.107.134-.162l.053-.064c.031-.04.035-.044.009-.013l.04-.051a6.962,6.962,0,0,0,.48-.739c.07-.123.136-.248.2-.375.028-.057.055-.114.081-.173.015-.031.029-.064.042-.1.042-.1-.015.04.02-.05a7.422,7.422,0,0,0,.281-.835,7.839,7.839,0,0,0,.175-.82l.015-.1c.013-.081-.011.107,0-.028.009-.068.017-.138.024-.208.015-.147.024-.3.031-.443.013-.289.009-.579-.006-.868-.009-.142-.02-.283-.035-.425-.006-.064-.013-.127-.022-.191,0-.02-.015-.114,0-.029-.006-.042-.011-.085-.018-.127a9.751,9.751,0,0,0-.425-1.708,8.884,8.884,0,0,0-.7-1.547c-.14-.25-.292-.495-.454-.732-.081-.12-.164-.235-.25-.349.006.007-.079-.1-.042-.057l-.044-.057c-.05-.061-.1-.123-.149-.182a8.933,8.933,0,0,0-1.221-1.21c-.125-.1-.134-.108-.278-.211-.125-.09-.252-.178-.383-.261a7.9,7.9,0,0,0-.73-.412l-.189-.09a1.268,1.268,0,0,1-.125-.055c-.136-.057-.274-.109-.414-.156a6.865,6.865,0,0,0-.837-.232c-.14-.029-.28-.053-.421-.075-.015,0-.088-.011-.011,0l-.129-.017c-.072-.007-.143-.013-.217-.018l.386-.673c.074.12.151.237.232.351.035.051.072.1.108.153l.063.085c-.046-.061.022.026.033.039a6.6,6.6,0,0,0,.537.6,7.678,7.678,0,0,0,.594.526c.1.083-.04-.029.022.018l.083.061c.048.037.1.072.147.107.118.083.235.16.357.235.219.136.445.261.677.377.123.059.246.116.371.171.013.005.079.033.006,0l.1.039.21.083a9.283,9.283,0,0,0,1.552.427c.129.024.259.044.39.064.079.011-.107-.013.026,0,.028,0,.055.006.083.009.083.011.166.018.248.028.265.024.528.039.793.042s.559,0,.839-.022c.132-.009.265-.02.4-.035l.188-.022c.134-.015-.053.009.026,0,.042-.005.083-.011.125-.018a9.927,9.927,0,0,0,1.6-.381c.118-.039.235-.081.351-.123.064-.024.129-.05.193-.075l.077-.031c.048-.02.05-.02.007,0l.057-.026c.245-.107.485-.223.719-.351s.473-.274.7-.427a5.723,5.723,0,0,0,.557-.423,7.692,7.692,0,0,0,.59-.557c.085-.09.167-.18.246-.272.044-.053.088-.1.131-.158l.051-.064a.464.464,0,0,0,.042-.055,7.694,7.694,0,0,0,.443-.671c.066-.114.131-.232.189-.349q.044-.085.083-.171c.017-.033.033-.068.048-.1.007-.015.064-.143.04-.088a6.894,6.894,0,0,0,.289-.842c.04-.149.075-.3.1-.451q.022-.1.039-.2c.007-.037.013-.075.018-.112,0-.017.02-.143.009-.064a7.517,7.517,0,0,0,.017-1.784,7.772,7.772,0,0,0-.143-.837c-.064-.287-.143-.57-.235-.848a9.683,9.683,0,0,0-1.751-3.1,8.963,8.963,0,0,0-2.768-2.232,7.113,7.113,0,0,0-3.358-.816c-.142,0-.281.007-.421.018-.16.013-.3.029-.4.044a.463.463,0,0,1-.55-.313.451.451,0,0,1,.313-.55" transform="translate(308.544 87.955)" fill="#564729"/>
            <path id="Trazado_212852" data-name="Trazado 212852" d="M48.234,77.017a16.345,16.345,0,0,0-2.874-5.1,6.834,6.834,0,0,0-1.061-.934,5.046,5.046,0,0,0-.515-.313c-.083-.044-.167-.086-.252-.125l-.127-.057c.048.02-.072-.026-.09-.033a5.574,5.574,0,0,0-1.182-.311c-.053-.007-.007,0,0,0-.022,0-.046-.007-.07-.009-.046-.006-.094-.011-.14-.015-.1-.009-.2-.015-.3-.018a5.525,5.525,0,0,0-.605.011c-.046,0-.092.007-.138.013-.018,0-.131.015-.063.006-.1.013-.195.031-.292.05a4.565,4.565,0,0,0-.565.153,2.4,2.4,0,0,0-.462.2,3.6,3.6,0,0,0-.462.289c-.064.046.013-.013-.048.037l-.116.1c-.07.064-.138.131-.2.2a2.013,2.013,0,0,0-.3.383A3.409,3.409,0,0,0,37.9,72.9a10,10,0,0,0,.267,3.2,26.1,26.1,0,0,0,3.691,9.175c.153.234.311.471.471.7l-.816.346c-.033-.094-.068-.186-.1-.278.029.074-.022-.042-.031-.064-.022-.048-.046-.1-.072-.147a4.769,4.769,0,0,0-.3-.513c-.048-.074-.1-.145-.153-.217a.38.38,0,0,0-.04-.055l-.1-.127c-.127-.147-.263-.289-.4-.425-.07-.064-.14-.129-.211-.189l-.11-.092c-.018-.015-.132-.1-.07-.055-.153-.116-.309-.223-.473-.324s-.344-.2-.52-.291c-.086-.042-.175-.083-.263-.121-.018-.009-.138-.061-.064-.029l-.154-.061A7.2,7.2,0,0,0,37.3,83c-.1-.02-.191-.037-.289-.051-.048-.009-.1-.015-.143-.022.086.011-.068-.007-.088-.011-.195-.02-.388-.035-.583-.04s-.4,0-.6.009c-.1.006-.193.013-.289.024-.048,0-.1.009-.143.015l-.024,0c.057-.007-.064.009-.063.009a6.135,6.135,0,0,0-1.131.283c-.09.031-.178.066-.267.1l.013-.006-.074.033c-.05.022-.1.046-.147.07a5.252,5.252,0,0,0-.5.274c-.079.05-.158.1-.235.156-.04.028-.077.057-.116.085l-.05.037c.064-.05-.009.007-.02.018a5.36,5.36,0,0,0-.44.4,3.914,3.914,0,0,0-.679.912c-.05.088-.1.177-.14.267-.02.044-.042.088-.063.134l-.026.057-.011.028a5.281,5.281,0,0,0-.188.561,5.484,5.484,0,0,0-.129.6c0,.011-.015.1-.007.042s0,.022,0,.026c-.007.05-.013.1-.017.147-.011.1-.018.21-.022.316-.009.206-.007.412,0,.616.006.092.013.184.022.278,0,.05.011.1.017.147.007.075-.011-.064,0,.009,0,.029.009.057.013.085a7.035,7.035,0,0,0,.3,1.212c.031.088.063.177.1.265l.055.142.006.013c.013.026.024.051.037.079.085.189.178.377.281.561a6,6,0,0,0,1.521,1.826c.015.013.116.094.059.05.033.026.068.051.1.075.085.063.173.123.261.18a5.382,5.382,0,0,0,.53.3c.086.044.177.086.267.125-.07-.029.05.018.068.026.053.02.107.04.16.059a5.052,5.052,0,0,0,.592.167c.09.018.182.035.274.05l.048.007.028,0c.057,0,.116.013.173.017a.458.458,0,0,1,.447.447.449.449,0,0,1-.447.447,6.148,6.148,0,0,1-4.5-2.762,7.282,7.282,0,0,1-1.23-5.173,5.483,5.483,0,0,1,3-4.082,7.207,7.207,0,0,1,5.127-.359A6.35,6.35,0,0,1,42.1,85.439a5.971,5.971,0,0,1,.268.645.443.443,0,0,1-.257.528.456.456,0,0,1-.559-.184,27.014,27.014,0,0,1-3.2-6.262,26.607,26.607,0,0,1-.96-3.38,13.65,13.65,0,0,1-.421-3.5,4.239,4.239,0,0,1,1.157-2.861,4.285,4.285,0,0,1,2.2-1.118,5.985,5.985,0,0,1,2.641.094,6.083,6.083,0,0,1,2.418,1.3A13.813,13.813,0,0,1,48.77,76c.108.261.219.522.327.785a.452.452,0,0,1-.313.55.458.458,0,0,1-.55-.314" transform="translate(273.821 58.056)" fill="#564729"/>
            <path id="Trazado_212853" data-name="Trazado 212853" d="M48.866,94.028,44.25,91.22c-.491-.3-.042-1.072.451-.772l4.616,2.808c.491.3.042,1.072-.451.772" transform="translate(247.476 75.825)" fill="#564729"/>
            <path id="Trazado_212854" data-name="Trazado 212854" d="M49.511,96.681l-4.632-1.854a.46.46,0,0,1-.313-.55.45.45,0,0,1,.55-.311q2.317.924,4.632,1.852a.461.461,0,0,1,.313.55.45.45,0,0,1-.55.313" transform="translate(245.987 78.814)" fill="#564729"/>
            <path id="Trazado_212855" data-name="Trazado 212855" d="M60.307,124.121q-2.314.48-4.627.958a.458.458,0,0,1-.55-.311.452.452,0,0,1,.313-.55l4.627-.96a.461.461,0,0,1,.55.313.453.453,0,0,1-.313.55" transform="translate(215.997 103.4)" fill="#564729"/>
            <path id="Trazado_212856" data-name="Trazado 212856" d="M60.123,120.54H54.564a.447.447,0,0,1,0-.894h5.559a.447.447,0,0,1,0,.894" transform="translate(217.888 100.377)" fill="#564729"/>
            <path id="Trazado_212857" data-name="Trazado 212857" d="M36.886,119.81l-3.705-1.854a.45.45,0,0,1-.162-.611.458.458,0,0,1,.612-.162l3.705,1.854a.452.452,0,0,1,.162.612.457.457,0,0,1-.612.16" transform="translate(279.819 98.266)" fill="#564729"/>
            <path id="Trazado_212858" data-name="Trazado 212858" d="M40.668,123.467a11.086,11.086,0,0,0-6.135-.857.463.463,0,0,1-.55-.313.45.45,0,0,1,.313-.55,12.179,12.179,0,0,1,6.823.947.452.452,0,0,1,.162.612.459.459,0,0,1-.612.16" transform="translate(274.181 102.028)" fill="#564729"/>
            <path id="Trazado_212859" data-name="Trazado 212859" d="M207.273,112.6a45.817,45.817,0,0,1,17.042-15.727c1.317-.7,2.895-1.339,4.246-.712,1.622.754,1.993,2.867,2.036,4.654a42.944,42.944,0,0,1-15.278,33.555c8.95-2.893,18.7-5.785,27.562-2.632,1.348.48,2.83,1.335,2.981,2.757a4.036,4.036,0,0,1-.965,2.591,40.663,40.663,0,0,1-21.3,15.633,22.153,22.153,0,0,1,23.073,5.64,2.872,2.872,0,0,1,1.026,2.227c-.132.864-.953,1.427-1.707,1.865a53.674,53.674,0,0,1-19.522,6.712,44.341,44.341,0,0,1,21.564,7.968c-2.306,5.261-9.07,6.515-14.791,7.054-18.356,1.729-36.794,3.459-55.2,2.435-5.458-.305-11.1-.912-15.817-3.682s-8.244-8.255-7.111-13.6a3.233,3.233,0,0,1,1.048-1.982,3.654,3.654,0,0,1,2.451-.452,37.017,37.017,0,0,1,13.228,3.382A141.775,141.775,0,0,1,160,156.418c-2.111-2.821-4.176-5.863-4.678-9.351s1.037-7.518,4.329-8.774c5.787-2.21,11.091,4.95,17.273,5.335A29.112,29.112,0,0,1,163,114.084c.294-1.684.953-3.588,2.565-4.162,1.455-.519,3.02.287,4.334,1.1a99.849,99.849,0,0,1,15.265,11.538,75.551,75.551,0,0,1-3.643-19.677c-.248-4.945.75-11.036,5.4-12.731,3.178-1.157,6.854.474,9,3.089s3.058,6.012,3.707,9.331a32.379,32.379,0,0,1-.164-23.526,5.746,5.746,0,0,1,2.4-3.271c3.229-1.642,6.159,2.742,6.938,6.28a66.975,66.975,0,0,1-.62,31.218Z" transform="translate(-154.902 63.27)" fill="#c2b38c"/>
            <path id="Trazado_212860" data-name="Trazado 212860" d="M201.452,94.328a13.344,13.344,0,0,0-6.686-13.792,9.726,9.726,0,0,0,6.249,12.27Z" transform="translate(-180.859 67.566)" fill="#c2b38c"/>
            <path id="Trazado_212861" data-name="Trazado 212861" d="M208.019,115.567a24.37,24.37,0,0,0-1.42-10.633,24.052,24.052,0,0,0-2.409-4.79,16.116,16.116,0,0,0-1.554-2.095,2.036,2.036,0,0,0-1.94-.886,2.735,2.735,0,0,0-1.46,1.477,16.275,16.275,0,0,0-.936,2.244,27.11,27.11,0,0,0-1.245,4.965,28.108,28.108,0,0,0,.311,10.043,27.175,27.175,0,0,0,3.862,9.311c.232.355.473.7.721,1.041l-.7-.09c2.26-1.971,1.65-5.2.693-7.681a24.89,24.89,0,0,0-2.12-4.11,7.034,7.034,0,0,0-3.286-3.216c-2.565-.918-5.484.669-6.828,2.876-1.833,3-1,6.953.445,9.93a22.076,22.076,0,0,0,6.51,7.922c.342.259.691.506,1.046.747l-.612.609a18.4,18.4,0,0,0-6.925-7.043c-2.492-1.431-5.546-2.383-8.4-1.572a4.908,4.908,0,0,0-3.045,2.328,6.4,6.4,0,0,0-.23,4.831,14.453,14.453,0,0,0,2.256,4.4A18.624,18.624,0,0,0,192.62,143.5c.381.064.761.112,1.146.147a.462.462,0,0,1,.447.447.449.449,0,0,1-.447.447,19.179,19.179,0,0,1-9.41-3.562,18.383,18.383,0,0,1-6.376-7.944,8.594,8.594,0,0,1-.517-5.35,5.53,5.53,0,0,1,2.9-3.492c2.806-1.372,6.227-.752,8.941.53a19.274,19.274,0,0,1,7.9,6.937c.234.364.454.737.664,1.116s-.224.87-.612.611a23.29,23.29,0,0,1-7.4-8.066c-1.81-3.29-2.893-7.413-1.315-11.006a7.25,7.25,0,0,1,7.3-4.265,6.169,6.169,0,0,1,3.968,2.689,23.788,23.788,0,0,1,2.529,4.386c1.19,2.639,2.244,6.241.322,8.81a5.571,5.571,0,0,1-.78.846.457.457,0,0,1-.7-.092,27.7,27.7,0,0,1-4.456-9.623,29.094,29.094,0,0,1-.649-10.568,27.883,27.883,0,0,1,1.151-5.223q.416-1.277.96-2.5a5.129,5.129,0,0,1,1.385-2,2.3,2.3,0,0,1,2.468-.324,5.575,5.575,0,0,1,1.951,1.85,24.24,24.24,0,0,1,2.852,4.857A25.3,25.3,0,0,1,209,114.188q-.025.69-.088,1.379a.458.458,0,0,1-.447.447.451.451,0,0,1-.447-.447" transform="translate(-156.953 80.736)" fill="#564729"/>
            <path id="Trazado_212862" data-name="Trazado 212862" d="M179.279,119.116a6.33,6.33,0,0,1,4.559,2.15,7.282,7.282,0,0,1,1.936,4.746,5.721,5.721,0,0,1-2,4.4,7.292,7.292,0,0,1-4.467,1.686,6.5,6.5,0,0,1-4.478-1.493,4.948,4.948,0,0,1-.423-.41.45.45,0,0,1,.434-.747,5.7,5.7,0,0,1,3.717,2.663,6.708,6.708,0,0,1,.965,4.551,5.156,5.156,0,0,1-2.575,3.706,6.583,6.583,0,0,1-4.537.616,5.931,5.931,0,0,1-3.775-2.484,4.531,4.531,0,0,1-.274-.487.459.459,0,0,1,.16-.612.451.451,0,0,1,.611.16,4.908,4.908,0,0,0,.252.452c.046.072.094.143.143.213.024.033.05.068.075.1-.05-.064.051.064.063.075a4.884,4.884,0,0,0,.739.719c.063.05-.083-.059.026.02.035.026.068.05.1.074.07.05.14.1.21.142.156.1.316.191.48.274a4.594,4.594,0,0,0,.925.364c.151.046.3.085.458.118q.127.028.254.05l.129.022.085.013c-.048-.007-.044-.005.009,0a7.033,7.033,0,0,0,1.078.042c.156-.007.314-.022.471-.039.14-.017-.088.015.051-.007l.127-.02c.1-.017.195-.037.292-.057.167-.037.331-.081.495-.132.081-.026.16-.053.241-.081.039-.015.079-.029.118-.046l.079-.031c-.042.018-.039.017.009,0a5.069,5.069,0,0,0,.883-.495l.1-.074c.112-.083-.064.053.044-.033.066-.053.131-.107.195-.164a4.653,4.653,0,0,0,.392-.394c.051-.059.1-.119.153-.182s-.061.085.022-.029l.077-.109a4.62,4.62,0,0,0,.294-.482c.04-.077.077-.154.114-.234,0,0,.059-.134.024-.05.017-.04.031-.081.048-.12a4.914,4.914,0,0,0,.167-.53c.04-.153.072-.307.1-.462,0-.007.022-.149.009-.051.005-.042.009-.085.015-.127.011-.1.018-.2.024-.3.007-.171.009-.344,0-.517q-.006-.13-.017-.259l-.011-.131c0-.017-.024-.188-.011-.1a6.259,6.259,0,0,0-.232-1.021,5.374,5.374,0,0,0-3.831-3.652l.434-.748a5.116,5.116,0,0,0,.392.382,3.211,3.211,0,0,0,.384.3,5.525,5.525,0,0,0,.936.517c.048.02,0,0-.007,0l.059.024.12.046c.094.035.189.068.285.1.169.055.344.1.519.14.085.018.169.037.254.051l.127.022.112.017c.107.015.362.037.524.044a6.242,6.242,0,0,0,2.106-.235c.177-.05.349-.1.52-.165l.243-.094.061-.026c-.007,0-.053.024-.007,0l.14-.061a6.524,6.524,0,0,0,.954-.544c.07-.05.14-.1.21-.153.04-.029,0,0-.006.006l.05-.04c.039-.031.077-.062.116-.1.142-.12.278-.246.406-.379s.243-.263.353-.4c.033-.04,0,0,0,.005l.039-.051c.026-.035.051-.07.075-.1.055-.075.107-.154.156-.234a4.485,4.485,0,0,0,.465-.964,5.389,5.389,0,0,0,.156-.561c.018-.09.037-.18.051-.272l.015-.092c0,.011-.007.059,0,.005s.013-.107.018-.162a5.4,5.4,0,0,0-.246-2.236c-.057-.188-.123-.37-.2-.552-.015-.039-.046-.109-.086-.195s-.094-.2-.145-.294a7.089,7.089,0,0,0-.627-1c-.026-.035-.074-.1-.134-.167s-.131-.156-.2-.232c-.136-.151-.28-.3-.428-.434a5.235,5.235,0,0,0-.868-.668c-.169-.1-.344-.206-.522-.294a3.986,3.986,0,0,0-.465-.2c-.18-.068-.366-.121-.552-.171-.1-.024-.195-.044-.294-.064l-.138-.024-.068-.009c-.077-.011.057.007-.02,0a5.667,5.667,0,0,0-.587-.037.447.447,0,0,1,0-.894" transform="translate(-117.296 99.933)" fill="#564729"/>
            <path id="Trazado_212863" data-name="Trazado 212863" d="M175.739,112.377l-5.5,3.792a.451.451,0,0,1-.611-.16.457.457,0,0,1,.16-.612q2.75-1.9,5.5-3.792a.451.451,0,0,1,.611.16.457.457,0,0,1-.16.612" transform="translate(-109.796 93.578)" fill="#564729"/>
            <path id="Trazado_212864" data-name="Trazado 212864" d="M175.361,110.368c-.079.024-.158.05-.237.079-.039.015-.077.029-.116.046.085-.035-.039.018-.044.02a4.187,4.187,0,0,0-.438.239c-.07.044-.138.092-.206.14-.015.009-.108.083-.042.029l-.081.066a4.544,4.544,0,0,0-.364.342c-.051.055-.1.112-.151.169-.028.033-.053.064-.079.1.051-.066-.02.028-.031.042a3.834,3.834,0,0,0-.267.419c-.04.074-.079.147-.114.223-.018.037-.035.075-.051.112.031-.072-.011.029-.018.048a3.849,3.849,0,0,0-.145.476.447.447,0,0,1-.862-.237,4.47,4.47,0,0,1,3.01-3.174.452.452,0,0,1,.55.313.457.457,0,0,1-.313.55" transform="translate(-114.18 91.856)" fill="#564729"/>
            <path id="Trazado_212865" data-name="Trazado 212865" d="M175.982,93.617q-1.821,2.8-3.639,5.6a.459.459,0,0,1-.612.16.453.453,0,0,1-.16-.612q1.821-2.8,3.639-5.6a.459.459,0,0,1,.612-.162.453.453,0,0,1,.16.612" transform="translate(-113.452 77.977)" fill="#564729"/>
            <path id="Trazado_212866" data-name="Trazado 212866" d="M177.86,92.432l-1.81,4.651a.459.459,0,0,1-.55.311.45.45,0,0,1-.313-.55q.9-2.323,1.81-4.649a.463.463,0,0,1,.55-.313.45.45,0,0,1,.313.55" transform="translate(-122.017 77.072)" fill="#564729"/>
            <path id="Trazado_212867" data-name="Trazado 212867" d="M189.485,98.263l-3.7-4.634a.461.461,0,0,1,0-.633.448.448,0,0,1,.631,0l3.705,4.634a.461.461,0,0,1,0,.633.451.451,0,0,1-.633,0" transform="translate(-153.668 77.911)" fill="#564729"/>
            <path id="Trazado_212868" data-name="Trazado 212868" d="M189.609,98.957l-2.781-2.78a.447.447,0,0,1,.633-.631q1.39,1.387,2.78,2.779a.447.447,0,0,1-.633.633" transform="translate(-155.715 80.052)" fill="#564729"/>
            <path id="Trazado_212869" data-name="Trazado 212869" d="M197.481,109.414a4.143,4.143,0,0,0-.142-.467c-.006-.015-.048-.123-.033-.085a.676.676,0,0,1-.028-.064c-.037-.077-.074-.153-.114-.228a3.369,3.369,0,0,0-.519-.741,4.3,4.3,0,0,0-.333-.327c-.033-.029-.064-.057-.1-.083,0,0-.108-.086-.044-.037-.066-.051-.136-.1-.208-.147a3.66,3.66,0,0,0-.4-.235l-.114-.057-.05-.022c-.079-.033-.158-.063-.239-.09a.447.447,0,1,1,.237-.862,4.579,4.579,0,0,1,2.948,3.209.447.447,0,0,1-.862.237" transform="translate(-178.644 88.885)" fill="#564729"/>
            <path id="Trazado_212870" data-name="Trazado 212870" d="M131.275,33.752a1.756,1.756,0,0,1-2.258.962,4.607,4.607,0,0,1-2.05-1.767,32.069,32.069,0,0,1-4.027-7.065,7.487,7.487,0,0,1-7.339.182,5.082,5.082,0,0,0-1.346-.623c-1.308-.267-2.486.908-3.023,2.131s-.736,2.613-1.528,3.689c-.965,1.309-2.608,1.889-3.959,2.793s-2.525,2.611-1.824,4.079c-1.113-2.825-5.55-3.5-7.451-1.133-1.208-2.736.576-5.875,2.7-7.983s4.75-3.926,5.82-6.721c.782-2.041.64-4.425,1.81-6.271,1.5-2.367,4.689-3.071,7.473-2.771,5.309.572,9.873,3.867,14.162,7.051,2.367,1.758,4.844,3.652,5.962,6.381s.23,6.51-2.558,7.47Z" transform="translate(66.443 11.064)" fill="#f59f18"/>
            <path id="Trazado_212871" data-name="Trazado 212871" d="M106.04,24.837a18.42,18.42,0,0,1,7.188-.851,1.488,1.488,0,0,0-.881-1.686,3.138,3.138,0,0,0-2.041-.064,7.535,7.535,0,0,0-3.869,2.339Z" transform="translate(69.705 18.538)" fill="#c67812"/>
            <path id="Trazado_212872" data-name="Trazado 212872" d="M106.767,29.727a18.429,18.429,0,0,0-6.306-3.553,1.485,1.485,0,0,1,1.462-1.217,3.145,3.145,0,0,1,1.909.726,7.531,7.531,0,0,1,2.67,3.648Z" transform="translate(86.478 20.936)" fill="#c67812"/>
            <path id="Trazado_212873" data-name="Trazado 212873" d="M105.331,27a6.757,6.757,0,0,0,.526,6.488,6.144,6.144,0,0,0,1.265,1.4l.072-.563a4.2,4.2,0,0,1-3.38.211.363.363,0,0,0-.441.25.369.369,0,0,0,.25.443,4.917,4.917,0,0,0,3.934-.285.362.362,0,0,0,.074-.565,6.041,6.041,0,0,1-2.133-5.432,5.8,5.8,0,0,1,.454-1.583.368.368,0,0,0-.129-.491.363.363,0,0,0-.491.129" transform="translate(80.181 22.503)" fill="#a46e4a"/>
            <path id="Trazado_212874" data-name="Trazado 212874" d="M110.561,28.136a1.094,1.094,0,1,1-.651-1.576,1.221,1.221,0,0,1,.651,1.576" transform="translate(67.937 22.253)"/>
            <path id="Trazado_212875" data-name="Trazado 212875" d="M104.1,30.164a1.094,1.094,0,1,1-.651-1.576,1.221,1.221,0,0,1,.651,1.576" transform="translate(86.272 23.954)"/>
            <path id="Trazado_212876" data-name="Trazado 212876" d="M108.513,35.013a5.277,5.277,0,0,1-2.214-4.851,13.618,13.618,0,0,0,3.86,3.365Z" transform="translate(72.409 25.305)" fill="#fff"/>
            <path id="Trazado_212877" data-name="Trazado 212877" d="M108.492,35.6a5.737,5.737,0,0,1-2.437-5.237.458.458,0,0,1,.276-.408.44.44,0,0,1,.487.092,13.454,13.454,0,0,0,3.77,3.3.448.448,0,0,1,.09.7q-.822.745-1.646,1.486a.455.455,0,0,1-.631,0,.451.451,0,0,1,0-.633l1.646-1.484c.029.234.061.467.09.7a14.055,14.055,0,0,1-3.95-3.435c.254-.107.508-.211.761-.316a4.852,4.852,0,0,0,1.993,4.465.461.461,0,0,1,.162.612.452.452,0,0,1-.612.16" transform="translate(72.203 25.103)" fill="#a46e4a"/>
            <path id="Trazado_212878" data-name="Trazado 212878" d="M115.926,25.223c.682.3.736,1.273.454,1.962a8.609,8.609,0,0,0-.885,2.038,1.975,1.975,0,0,0,1.157,2.01,2.943,2.943,0,0,1-2.747-2.4c-.129-.8.088-1.635-.07-2.433a5.275,5.275,0,0,0-1.6-2.461Z" transform="translate(54.945 20.087)" fill="#f59f18"/>
            <path id="Trazado_212879" data-name="Trazado 212879" d="M114.358,20.547c4.349-1.738,5.989-8.064,3.031-11.7s-9.485-3.306-12.067.6S105,19.492,109.5,20.79Z" transform="translate(67.42 5.297)" fill="#f59f18"/>
            <path id="Trazado_212880" data-name="Trazado 212880" d="M111.2,14.64a2.481,2.481,0,0,0,.7-1.89,7.7,7.7,0,0,0-.456-2.352A3.012,3.012,0,0,0,111,9.333c.011.011-.118-.1-.072-.07s-.072-.044-.063-.039c-.094-.066.063.013-.042-.02a.812.812,0,0,0-.1-.026c-.066-.015.1-.007-.017,0-.039,0-.077,0-.116.006.127-.017-.175.064-.081.024a1.265,1.265,0,0,0-.223.127c-.007.006-.066.05-.017.011-.035.028-.068.059-.1.09a1.393,1.393,0,0,0-.305.394,1.3,1.3,0,0,0-.164.4c-.009.039-.018.077-.026.116-.028.145,0-.079-.009.068a1.973,1.973,0,0,0,.006.313,9.592,9.592,0,0,0,.348,1.513,4.328,4.328,0,0,1,.131,1.736l-.861-.237a5.021,5.021,0,0,0-.9-4.1,2.092,2.092,0,0,0-.371-.394.892.892,0,0,0-.206-.121.269.269,0,0,0-.143-.013.426.426,0,0,0-.066.055s-.07.114-.075.127a2.845,2.845,0,0,0-.151.568,6.908,6.908,0,0,0-.075,2.26,6.988,6.988,0,0,0,.861,2.551.447.447,0,0,1-.771.451,7.914,7.914,0,0,1-.862-5.561,1.736,1.736,0,0,1,.651-1.2,1.252,1.252,0,0,1,1.451.234,4.022,4.022,0,0,1,.861,1.089,6.051,6.051,0,0,1,.546,1.245,5.915,5.915,0,0,1,.114,3.049.452.452,0,0,1-.55.313.457.457,0,0,1-.311-.55,3.632,3.632,0,0,0-.182-1.449,8.4,8.4,0,0,1-.337-1.659,2.416,2.416,0,0,1,1.25-2.181,1.372,1.372,0,0,1,1.254-.022,2.035,2.035,0,0,1,.87,1.239,10.192,10.192,0,0,1,.644,2.758,3.538,3.538,0,0,1-.954,2.841c-.416.4-1.048-.234-.633-.633" transform="translate(69.604 6.896)" fill="#c67812"/>
            <path id="Trazado_212881" data-name="Trazado 212881" d="M120.652,23c1.515,2.034-.022,5.138-2.289,5.791a4.873,4.873,0,0,1-3.992-.739,6.2,6.2,0,0,1-2.5-3.494A10.08,10.08,0,0,1,112,19.179a.452.452,0,0,1,.816-.108,3.236,3.236,0,0,1-.267,3.389,3.971,3.971,0,0,1-3.463,1.626,6.7,6.7,0,0,1-5.776-4.45,7.026,7.026,0,0,1-.313-4.06.453.453,0,0,1,.818-.109,4.638,4.638,0,0,1-.177,4.995,4.178,4.178,0,0,1-2.1,1.587,4.722,4.722,0,0,1-2.6.077A4.455,4.455,0,0,1,96.457,20.5a.449.449,0,0,1,.16-.611.457.457,0,0,1,.611.162,3.542,3.542,0,0,0,1.69,1.14,3.837,3.837,0,0,0,2.1.077,3.175,3.175,0,0,0,1.76-1.131,3.906,3.906,0,0,0,.769-1.892,3.525,3.525,0,0,0-.5-2.323c.272-.037.544-.074.816-.107a6.367,6.367,0,0,0,1.694,5.721,5.5,5.5,0,0,0,2.895,1.585,3.4,3.4,0,0,0,3.066-.8,2.784,2.784,0,0,0,.726-1.359,2.058,2.058,0,0,0-.195-1.442l.816-.107c-.706,2.58-.633,5.714,1.548,7.562a4.3,4.3,0,0,0,3.211,1.061,3.4,3.4,0,0,0,.761-.193c.085-.033.037-.017.018-.007.028-.013.055-.024.083-.039.061-.028.121-.059.182-.092.112-.063.221-.134.326-.206a1.354,1.354,0,0,0,.107-.085c.048-.039.094-.079.138-.118a3.932,3.932,0,0,0,.287-.294l.118-.142s.046-.061.081-.112a3.46,3.46,0,0,0,.631-1.837c0-.072,0-.143-.006-.217l-.006-.088c0-.017-.018-.14-.006-.053a2.791,2.791,0,0,0-.085-.383c-.02-.068-.044-.136-.07-.206s-.015-.029-.006-.013c-.018-.04-.039-.079-.059-.118a2.642,2.642,0,0,0-.239-.381.453.453,0,0,1,.16-.612.46.46,0,0,1,.612.16" transform="translate(79.472 12.798)" fill="#c67812"/>
            <path id="Trazado_212882" data-name="Trazado 212882" d="M118.716,17.4a7.594,7.594,0,0,0-5.07,1.876,7.392,7.392,0,0,0-2.464,4.875,7.555,7.555,0,0,0,.394,3.216.447.447,0,1,1-.862.237,8.526,8.526,0,0,1,.28-6.2,8.24,8.24,0,0,1,4.3-4.2,8.407,8.407,0,0,1,3.424-.7.447.447,0,0,1,0,.894" transform="translate(56.082 13.846)" fill="#c67812"/>
            <path id="Trazado_212883" data-name="Trazado 212883" d="M114.51,20.468a4.129,4.129,0,0,0-1.76,3.869.463.463,0,0,1-.313.55.452.452,0,0,1-.55-.313,5.041,5.041,0,0,1,2.172-4.879.447.447,0,0,1,.451.772" transform="translate(57.59 16.472)" fill="#c67812"/>
            <path id="Trazado_212884" data-name="Trazado 212884" d="M125.663,22.91a13.346,13.346,0,0,0-5.524.85,5.72,5.72,0,0,0-3.231,3.4,3.743,3.743,0,0,0,.015,2.494.447.447,0,0,1-.862.237,5.254,5.254,0,0,1,1.1-5,8.018,8.018,0,0,1,5.03-2.637,20.11,20.11,0,0,1,3.47-.232.447.447,0,0,1,0,.894" transform="translate(38.925 18.47)" fill="#c67812"/>
            <path id="Trazado_212885" data-name="Trazado 212885" d="M120,25.245a6.721,6.721,0,0,0-2.227,3.152.457.457,0,0,1-.55.311.452.452,0,0,1-.313-.55,7.743,7.743,0,0,1,2.639-3.685.448.448,0,0,1,.611.162.457.457,0,0,1-.16.611" transform="translate(42.808 20.476)" fill="#c67812"/>
            <path id="Trazado_212886" data-name="Trazado 212886" d="M96.712,26.291a25.783,25.783,0,0,1,3.516,5.489A9.563,9.563,0,0,1,100.9,37.6a6.528,6.528,0,0,1-1.436,2.869.447.447,0,0,1-.633-.631,6.462,6.462,0,0,0,1.333-4.9,12.09,12.09,0,0,0-2.137-5.331c-.647-.988-1.366-1.927-2.085-2.863a.449.449,0,0,1,.16-.611.457.457,0,0,1,.612.16" transform="translate(100.587 21.871)" fill="#c67812"/>
            <path id="Trazado_212887" data-name="Trazado 212887" d="M99.3,30.3a4.856,4.856,0,0,1-1.173,4.813.447.447,0,0,1-.631-.633,3.95,3.95,0,0,0,.942-3.943A.447.447,0,0,1,99.3,30.3" transform="translate(99.419 25.149)" fill="#c67812"/>
            <path id="Trazado_212888" data-name="Trazado 212888" d="M143.266,13.135a13.557,13.557,0,0,0-6.677,3.715,13.278,13.278,0,0,0-2.28,3.078c-.623,1.166-1.03,2.433-1.664,3.591a6.886,6.886,0,0,1-1.164,1.6,5.188,5.188,0,0,1-1.8,1.148,11.453,11.453,0,0,1-4.231.5c-3.021-.031-6.155.094-8.932,1.422a8.71,8.71,0,0,0-4.844,5.521,6.1,6.1,0,0,0-.149.879.458.458,0,0,1-.447.447.45.45,0,0,1-.447-.447,8.97,8.97,0,0,1,4.312-6.545c2.624-1.681,5.846-2.124,8.9-2.174a29.487,29.487,0,0,0,4.323-.125,5.433,5.433,0,0,0,1.927-.662,4.471,4.471,0,0,0,1.333-1.28,23.38,23.38,0,0,0,1.764-3.623,14.061,14.061,0,0,1,2.2-3.351,14.539,14.539,0,0,1,6.7-4.309c.313-.094.627-.175.945-.246a.458.458,0,0,1,.55.313.453.453,0,0,1-.313.55" transform="translate(30.96 10.286)" fill="#f59f18"/>
            <path id="Trazado_212889" data-name="Trazado 212889" d="M90.912,19.995a3.273,3.273,0,0,1,2.3,1.365,5.525,5.525,0,0,1,.976,2.523A11.511,11.511,0,0,1,94,27.277a10.272,10.272,0,0,0-.153,3.693c.417,1.981,2.047,3.338,3.426,4.735a11.9,11.9,0,0,1,1.944,2.42,8.742,8.742,0,0,1,1.041,2.961,9.273,9.273,0,0,1-1.1,6.16,7.4,7.4,0,0,1-.43.653.459.459,0,0,1-.611.162.453.453,0,0,1-.162-.612,8.352,8.352,0,0,0,.763-8.354,9.181,9.181,0,0,0-1.692-2.361c-1.355-1.433-2.97-2.72-3.746-4.588a7.039,7.039,0,0,1-.371-3.468c.131-1.212.427-2.413.458-3.634a6.4,6.4,0,0,0-.017-.651,4.883,4.883,0,0,0-.079-.587,6.455,6.455,0,0,0-.16-.644,4.669,4.669,0,0,0-.2-.548,4.393,4.393,0,0,0-.3-.557c-.053-.085-.11-.167-.169-.245h0c-.018-.024-.039-.046-.057-.07-.035-.04-.068-.079-.1-.118-.064-.07-.132-.138-.2-.2a1.349,1.349,0,0,0-.186-.147,2.5,2.5,0,0,0-.241-.149c-.044-.026-.09-.048-.136-.07,0,0-.066-.031-.026-.013l-.05-.02a2.821,2.821,0,0,0-.276-.086c-.044-.011-.088-.02-.134-.029l-.09-.017c.02,0,.074.009-.02,0a.461.461,0,0,1-.447-.447.45.45,0,0,1,.447-.447" transform="translate(111.246 16.773)" fill="#f59f18"/>
            <path id="Trazado_212890" data-name="Trazado 212890" d="M95.148,51.184a7.432,7.432,0,0,1-2.861-1.528c-.87-.657-1.73-1.328-2.573-2.017A46.967,46.967,0,0,1,85,43.265,33.593,33.593,0,0,1,82.623,40.4a.449.449,0,0,1,.16-.611.455.455,0,0,1,.611.16,44.628,44.628,0,0,0,9.031,8.693,7.763,7.763,0,0,0,2.961,1.675.452.452,0,0,1,.313.55.457.457,0,0,1-.55.313" transform="translate(130.457 33.333)" fill="#42735b"/>
            <path id="Trazado_212891" data-name="Trazado 212891" d="M153.38,50.3l-11.3-.276-3.2-.077a.447.447,0,0,1,0-.894q5.652.135,11.3.274,1.6.041,3.2.079a.447.447,0,0,1,0,.894" transform="translate(-30.428 41.155)" fill="#42735b"/>
            <path id="Trazado_212892" data-name="Trazado 212892" d="M146.655,49.674a64.262,64.262,0,0,0-5.973-5.09q-.9-.673-1.817-1.313a.461.461,0,0,1-.16-.612.449.449,0,0,1,.611-.16,65.961,65.961,0,0,1,6.3,4.993q.847.761,1.668,1.55c.416.4-.217,1.032-.633.633" transform="translate(-24.4 35.6)" fill="#42735b"/>
            <path id="Trazado_212893" data-name="Trazado 212893" d="M147.148,49.137a78.06,78.06,0,0,1-7.773-3.775c-.5-.28-.051-1.052.451-.771a76.087,76.087,0,0,0,7.56,3.683.463.463,0,0,1,.313.55.45.45,0,0,1-.55.313" transform="translate(-25.629 37.359)" fill="#42735b"/>
            <path id="Trazado_212894" data-name="Trazado 212894" d="M133.808,33.536a24.476,24.476,0,0,1-1.087,9.456,25.7,25.7,0,0,1-4.568,8.456,23.568,23.568,0,0,1-3.821,3.74.463.463,0,0,1-.633,0,.451.451,0,0,1,0-.633,23.852,23.852,0,0,0,6.067-7.028,24.764,24.764,0,0,0,3.012-8.792,23.38,23.38,0,0,0,.138-5.2.446.446,0,1,1,.892,0" transform="translate(16.857 27.76)" fill="#42735b"/>
            <path id="Trazado_212895" data-name="Trazado 212895" d="M110.152,40.787q.08,4.518-.018,9.038-.05,2.259-.145,4.518c-.063,1.464-.12,2.931-.239,4.391a16.044,16.044,0,0,1-.958,4.667.461.461,0,0,1-.55.311.448.448,0,0,1-.313-.548,14.471,14.471,0,0,0,.89-4.018c.136-1.436.191-2.882.254-4.323q.2-4.477.219-8.961.014-2.538-.033-5.076a.447.447,0,0,1,.894,0" transform="translate(69.367 33.856)" fill="#42735b"/>
            <path id="Trazado_212896" data-name="Trazado 212896" d="M132.927,55.193q-3.79-.932-7.576-1.863a68.68,68.68,0,0,0-7.417-1.569,23.989,23.989,0,0,0-4.283-.2.447.447,0,1,1,0-.894,29.911,29.911,0,0,1,7.648.785c2.534.539,5.042,1.2,7.556,1.817l4.309,1.059a.448.448,0,0,1-.237.862" transform="translate(36.326 42.489)" fill="#42735b"/>
            <path id="Trazado_212897" data-name="Trazado 212897" d="M129.088,56.574l-10.043-2.654-2.869-.758a.448.448,0,0,1,.237-.862l10.043,2.654q1.434.381,2.869.758a.448.448,0,0,1-.237.862" transform="translate(35.285 43.864)" fill="#42735b"/>
            <path id="Trazado_212898" data-name="Trazado 212898" d="M122.743,42.451a20.854,20.854,0,0,1-5.831,11.159c-.237.234-.541.48-.862.4a.974.974,0,0,1-.451-.316c-2.6-2.773-3.643-6.672-4.036-10.454-.353-3.408-.046-7.33,2.6-9.5a.791.791,0,0,1,.509-.235.861.861,0,0,1,.452.2l5.679,4.082Z" transform="translate(50.306 28.107)" fill="#fbd1b9"/>
            <path id="Trazado_212899" data-name="Trazado 212899" d="M118.14,38.923c1.306,1.39,2.751,3.257,1.868,5.25-.631,1.425-2.255,1.949-3.683,2.128a11.937,11.937,0,0,1-2.613.007c.143-.188.287-.377.432-.565.8,1.971,1.618,4.165.879,6.287a4.153,4.153,0,0,1-1.648,2.187,3.229,3.229,0,0,1-2.426.377,2.7,2.7,0,0,1-2-1.719.448.448,0,0,1,.864-.237,1.492,1.492,0,0,0,.189.368s.088.116.035.05c.028.033.055.066.085.1a2.519,2.519,0,0,0,.191.18,2.2,2.2,0,0,0,.745.366,2.313,2.313,0,0,0,1.776-.2c1.394-.813,1.764-2.661,1.521-4.176a15.651,15.651,0,0,0-1.07-3.345.449.449,0,0,1,.43-.566,12.566,12.566,0,0,0,2.137.039,6.46,6.46,0,0,0,1.968-.423c.132-.055-.075.035.053-.024l.079-.037c.077-.037.153-.075.228-.118a3.261,3.261,0,0,0,.384-.248c-.074.055.031-.028.037-.033.031-.026.063-.053.092-.081.05-.046.1-.092.145-.142s.09-.1.132-.153c-.059.074.022-.033.028-.04q.047-.066.088-.138a2.373,2.373,0,0,0,.147-2,7.305,7.305,0,0,0-1.721-2.457c-.394-.419.237-1.054.631-.633" transform="translate(57.399 32.539)" fill="#42735b"/>
            <path id="Trazado_212900" data-name="Trazado 212900" d="M126.367,55.833c-2.313.215-5.018.081-6.808-1.6-1.434-1.348-2.187-3.838-.919-5.541a10.215,10.215,0,0,1,1.114-1.16,2.168,2.168,0,0,0,.719-1.1,2.736,2.736,0,0,0-.473-1.7c-.281-.535-.6-1.052-.919-1.563-1.17-1.848-2.652-3.913-2.431-6.219.177-1.824,1.293-3.886,3.286-4.128a2.742,2.742,0,0,1,.638,0,.461.461,0,0,1,.447.447.45.45,0,0,1-.447.447,2.572,2.572,0,0,0-.618,0c.083-.011-.046.011-.07.015-.048.011-.1.022-.143.035a2.728,2.728,0,0,0-.278.092c.072-.028-.048.024-.066.031l-.131.068c-.092.052-.18.11-.267.169l-.051.039c.007-.006.046-.037.006-.006s-.077.064-.114.1c-.081.072-.16.147-.234.226s-.129.142-.188.217c-.007.007-.051.066-.013.015l-.04.053c-.033.05-.068.1-.1.149a4.654,4.654,0,0,0-.314.561,5.152,5.152,0,0,0-.368,1.2c-.009.053-.018.109-.026.164.009-.059-.007.075-.009.094-.013.118-.02.235-.024.355a4.862,4.862,0,0,0,.028.655.248.248,0,0,0,.007.064c.009.053.018.107.029.16.026.138.061.274.1.408a8.037,8.037,0,0,0,.268.8,17.593,17.593,0,0,0,1.633,2.933c.314.493.631.986.919,1.493a7.373,7.373,0,0,1,.776,1.686,2.382,2.382,0,0,1-.175,1.789,4.778,4.778,0,0,1-.989,1.151,4.446,4.446,0,0,0-.907,1.033,2.062,2.062,0,0,0-.226.557c-.028.108-.051.217-.068.326a.317.317,0,0,0-.009.072c-.006.064-.011.127-.013.191a3.905,3.905,0,0,0,.829,2.49,4.063,4.063,0,0,0,.938.888,5.589,5.589,0,0,0,1.473.691,9.884,9.884,0,0,0,3.373.337c.287-.015.574-.035.859-.063a.45.45,0,0,1,.447.447.456.456,0,0,1-.447.447" transform="translate(36.7 27.513)" fill="#42735b"/>
          </g>
        </g>
      </g>
    </g>
  </g>
</svg>
