<svg xmlns="http://www.w3.org/2000/svg" width="398" height="144" viewBox="0 0 398 144">
  <g id="Grupo_984613" data-name="Grupo 984613" transform="translate(-865 -2264)">
    <g id="Grupo_984114" data-name="Grupo 984114" transform="translate(863 2264)">
      <rect id="Rectángulo_339142" data-name="Rectángulo 339142" width="398" height="144" rx="16" transform="translate(2)" fill="#ffbfc1"/>
      <g id="Grupo_984113" data-name="Grupo 984113" transform="translate(0 12)">
        <path id="Trazado_212697" data-name="Trazado 212697" d="M15.441,7.938h4.008L17.457,19.645a6.334,6.334,0,0,1-2.186,4.107,6.232,6.232,0,0,1-4.283,1.494,5.207,5.207,0,0,1-3.826-1.453,5.258,5.258,0,0,1-1.283-3.961l4.043.012v.809q.047,1.395,1.348,1.43,1.758.035,2.2-2.566ZM26.27,12.086a5.325,5.325,0,0,1,2.941.85,4.786,4.786,0,0,1,1.822,2.3,7.106,7.106,0,0,1,.416,3.281l-.023.258a7.514,7.514,0,0,1-2.168,4.711,6.1,6.1,0,0,1-4.547,1.746,5.3,5.3,0,0,1-2.918-.838,4.817,4.817,0,0,1-1.822-2.279,6.906,6.906,0,0,1-.428-3.258,7.817,7.817,0,0,1,2.139-4.969A6.062,6.062,0,0,1,26.27,12.086ZM23.4,18.865l-.035.69q-.164,2.609,1.594,2.656,2.273.07,2.637-3.685l.047-1.065a2.873,2.873,0,0,0-.393-1.679,1.43,1.43,0,0,0-1.225-.649A2.016,2.016,0,0,0,24.271,16,5.7,5.7,0,0,0,23.4,18.865ZM37.648,13.7a4.143,4.143,0,0,1,3.27-1.629,3.3,3.3,0,0,1,2.83,1.395,5.309,5.309,0,0,1,.662,3.656L43.1,25H39.242l1.324-7.931a4.106,4.106,0,0,0,.023-.751,1.171,1.171,0,0,0-1.289-1.2,2.5,2.5,0,0,0-1.852.763L35.832,25H31.977L35.105,7h3.855Zm13.395-1.395-.27,1.523a4.507,4.507,0,0,1,3.668-1.758,3.027,3.027,0,0,1,2.619,1.307,5.469,5.469,0,0,1,.627,3.639L56.352,25H52.484l1.348-8.013a4.144,4.144,0,0,0,.023-.751q-.082-1.115-1.312-1.115a2.409,2.409,0,0,0-1.863.9L49.1,25H45.242l2.2-12.68ZM77,18.684a9.188,9.188,0,0,1-1.816,4.852,4.545,4.545,0,0,1-3.82,1.711,3.362,3.362,0,0,1-2.883-1.57L68,25H64.508L67.637,7h3.855l-1.254,6.363a3.827,3.827,0,0,1,2.848-1.277,3.572,3.572,0,0,1,2.906,1.33,5.8,5.8,0,0,1,1.1,3.557,12.9,12.9,0,0,1-.059,1.465Zm-3.832-.228a12.137,12.137,0,0,0,.105-1.357q0-1.884-1.348-1.965a2.309,2.309,0,0,0-2,1.018L69.008,21.2A1.551,1.551,0,0,0,70.6,22.2q1.887.059,2.379-2.457l.164-1.041Zm11.93-6.37a5.325,5.325,0,0,1,2.941.85,4.786,4.786,0,0,1,1.822,2.3,7.106,7.106,0,0,1,.416,3.281l-.023.258a7.514,7.514,0,0,1-2.168,4.711,6.1,6.1,0,0,1-4.547,1.746,5.3,5.3,0,0,1-2.918-.838A4.817,4.817,0,0,1,78.8,22.117a6.906,6.906,0,0,1-.428-3.258,7.817,7.817,0,0,1,2.139-4.969A6.062,6.062,0,0,1,85.1,12.086Zm-2.871,6.779-.035.69q-.164,2.609,1.594,2.656,2.273.07,2.637-3.685l.047-1.065a2.873,2.873,0,0,0-.393-1.679,1.43,1.43,0,0,0-1.225-.649A2.016,2.016,0,0,0,83.1,16,5.7,5.7,0,0,0,82.227,18.865Zm16.512,4.752a4.2,4.2,0,0,1-3.422,1.629,3.322,3.322,0,0,1-2.807-1.3,4.8,4.8,0,0,1-.732-3.422l1.371-8.2H97l-1.395,8.26a2.752,2.752,0,0,0,0,.622,1.021,1.021,0,0,0,1.137,1,2.491,2.491,0,0,0,2.074-.962l1.57-8.917h3.879L102.066,25H98.48Zm6.059-4.98a9.634,9.634,0,0,1,1.049-3.457,6.086,6.086,0,0,1,2.068-2.338,4.98,4.98,0,0,1,2.813-.768,3.462,3.462,0,0,1,2.883,1.371l.41-1.137,3.563.012-2.074,12.188a5.956,5.956,0,0,1-2.262,4.066,7.2,7.2,0,0,1-4.758,1.418,6.793,6.793,0,0,1-2.449-.5,5.277,5.277,0,0,1-2.027-1.453l1.828-2.273a3.319,3.319,0,0,0,2.648,1.324q2.566.047,3.258-2.73l.094-.387a3.965,3.965,0,0,1-2.895,1.266,3.91,3.91,0,0,1-2.145-.615,4.045,4.045,0,0,1-1.453-1.74,6.768,6.768,0,0,1-.6-2.531A11,11,0,0,1,104.8,18.637Zm3.809,1.254a3.075,3.075,0,0,0,.387,1.676,1.312,1.312,0,0,0,1.125.621,2.577,2.577,0,0,0,1.98-.844l1-5.379a1.708,1.708,0,0,0-1.57-.844,2.244,2.244,0,0,0-1.887.955,5.149,5.149,0,0,0-.961,2.572Q108.605,19.387,108.605,19.891ZM123.23,13.7a4.143,4.143,0,0,1,3.27-1.629,3.3,3.3,0,0,1,2.83,1.395,5.309,5.309,0,0,1,.662,3.656L128.68,25h-3.855l1.324-7.931a4.106,4.106,0,0,0,.023-.751,1.171,1.171,0,0,0-1.289-1.2,2.5,2.5,0,0,0-1.852.763L121.414,25h-3.855l3.129-18h3.855Zm14.906-4.535-.551,3.152h2.027l-.48,2.742h-2.027l-.984,5.824a1.552,1.552,0,0,0,.076.9q.158.3.791.328A9.164,9.164,0,0,0,138,22.059l-.281,2.859a6.231,6.231,0,0,1-2.074.293,3.417,3.417,0,0,1-2.684-1.055,3.6,3.6,0,0,1-.727-2.8l1.031-6.293h-1.57l.469-2.742h1.57l.551-3.152Z" transform="translate(27 44)" fill="#ff5f65"/>
        <path id="Trazado_212695" data-name="Trazado 212695" d="M29.3,15.537q.193-.993-1.072-1.538l-1.441-.6Q23.751,12.039,23.9,9.692a3.274,3.274,0,0,1,.738-1.912,4.385,4.385,0,0,1,1.872-1.305,6.889,6.889,0,0,1,2.61-.448,4.439,4.439,0,0,1,3.054,1.107,3.679,3.679,0,0,1,1.138,2.874H30.325a1.79,1.79,0,0,0-.312-1.182A1.351,1.351,0,0,0,28.9,8.365a2.33,2.33,0,0,0-1.336.352,1.426,1.426,0,0,0-.686.993q-.167.879,1.305,1.441a14.352,14.352,0,0,1,2.14.967,3.534,3.534,0,0,1,1.969,3.393,3.474,3.474,0,0,1-.712,1.942,4.115,4.115,0,0,1-1.78,1.292,6.576,6.576,0,0,1-2.553.439,6.164,6.164,0,0,1-1.925-.325,4.235,4.235,0,0,1-1.521-.9,3.9,3.9,0,0,1-1.23-3.12l3.015.009a2.064,2.064,0,0,0,.378,1.49,1.816,1.816,0,0,0,1.45.505,2.176,2.176,0,0,0,1.261-.347A1.441,1.441,0,0,0,29.3,15.537Zm9.738,2.426a3.148,3.148,0,0,1-2.566,1.222,2.492,2.492,0,0,1-2.1-.976,3.6,3.6,0,0,1-.549-2.566L34.843,9.49h2.892l-1.046,6.195a2.064,2.064,0,0,0,0,.466.766.766,0,0,0,.853.748,1.868,1.868,0,0,0,1.556-.722L40.274,9.49h2.909L41.531,19H38.842Zm13.438-3.7A6.891,6.891,0,0,1,51.111,17.9a3.409,3.409,0,0,1-2.865,1.283,2.522,2.522,0,0,1-2.162-1.178l-.36.993H43.1L45.451,5.5h2.892l-.94,4.772a2.87,2.87,0,0,1,2.136-.958,2.679,2.679,0,0,1,2.18,1,4.351,4.351,0,0,1,.826,2.667,9.674,9.674,0,0,1-.044,1.1ZM49.6,14.092a9.1,9.1,0,0,0,.079-1.018q0-1.413-1.011-1.474a1.732,1.732,0,0,0-1.5.763l-.686,3.791a1.163,1.163,0,0,0,1.2.746q1.415.044,1.784-1.843l.123-.781Zm8.156-4.6L56.095,19.3a4.036,4.036,0,0,1-1.283,2.641,3.9,3.9,0,0,1-2.725.927,9.185,9.185,0,0,1-1.45-.167l.237-2.25a3.9,3.9,0,0,0,.8.105A1.407,1.407,0,0,0,53.186,19.2l1.67-9.712Zm-2.681-2.4a1.326,1.326,0,0,1,.457-1.075,1.646,1.646,0,0,1,1.134-.423,1.6,1.6,0,0,1,1.125.375,1.332,1.332,0,0,1,.475,1.018,1.35,1.35,0,0,1-.435,1.058A1.757,1.757,0,0,1,55.55,8.1,1.323,1.323,0,0,1,55.075,7.087Zm7.453,12.089a4.421,4.421,0,0,1-2.272-.6,3.793,3.793,0,0,1-1.507-1.652,4.44,4.44,0,0,1-.4-2.333l.026-.246A5.829,5.829,0,0,1,60,10.628a4.51,4.51,0,0,1,3.415-1.314,3.678,3.678,0,0,1,2.092.621A3.468,3.468,0,0,1,66.782,11.6a5.1,5.1,0,0,1,.264,2.381l-.167,1.206h-5.66a1.854,1.854,0,0,0,.422,1.213,1.549,1.549,0,0,0,1.178.492,2.993,2.993,0,0,0,2.259-.967l1.213,1.6a3.578,3.578,0,0,1-1.5,1.2,5.263,5.263,0,0,1-2.1.451Zm.7-7.576a1.487,1.487,0,0,0-1.068.385,3.229,3.229,0,0,0-.787,1.347h2.892l.053-.254a1.929,1.929,0,0,0,.018-.577A1.017,1.017,0,0,0,63.231,11.6ZM71.8,16.891a1.244,1.244,0,0,0,.976-.345,1.717,1.717,0,0,0,.448-.938l2.707-.009a3.559,3.559,0,0,1-.62,1.872,3.745,3.745,0,0,1-1.529,1.279,4.521,4.521,0,0,1-2.061.426,3.57,3.57,0,0,1-2.927-1.367,4.726,4.726,0,0,1-.835-3.441l.026-.211a6.371,6.371,0,0,1,.809-2.553A4.626,4.626,0,0,1,70.5,9.886a4.433,4.433,0,0,1,2.369-.571A3.536,3.536,0,0,1,75.5,10.374a3.755,3.755,0,0,1,.927,2.764l-2.707-.009q.044-1.5-1.081-1.529-1.529-.053-1.758,2.567l-.079.893-.009.333Q70.79,16.864,71.8,16.891ZM81.979,7.126,81.565,9.49h1.521l-.36,2.057H81.205l-.738,4.368a1.164,1.164,0,0,0,.057.677q.119.229.593.246a6.873,6.873,0,0,0,.756-.044l-.211,2.145a4.673,4.673,0,0,1-1.556.22,2.563,2.563,0,0,1-2.013-.791,2.7,2.7,0,0,1-.545-2.1l.773-4.72H77.145L77.5,9.49h1.178l.413-2.364Z" transform="translate(38)" fill="#fc5f65"/>
        <path id="Trazado_212694" data-name="Trazado 212694" d="M12.848,19H9.842L12.065,6.2h3Zm6.3-9.519-.2,1.143A3.38,3.38,0,0,1,21.7,9.306a2.27,2.27,0,0,1,1.964.98,4.1,4.1,0,0,1,.47,2.729l-1,5.985h-2.9l1.011-6.01a3.108,3.108,0,0,0,.018-.563q-.062-.836-.984-.836a1.807,1.807,0,0,0-1.4.678L17.69,19H14.8l1.652-9.51Zm6.117,4.746a6.917,6.917,0,0,1,1.371-3.6A3.4,3.4,0,0,1,29.5,9.314a2.592,2.592,0,0,1,2.013,1.02L32.438,5.5h2.9L33,19H30.426l.123-1.028a2.968,2.968,0,0,1-2.364,1.213,2.62,2.62,0,0,1-2.149-1.015,4.476,4.476,0,0,1-.831-2.676,8.231,8.231,0,0,1,.035-1.081Zm2.883.2a6.9,6.9,0,0,0-.062.984q0,1.459.984,1.485a1.844,1.844,0,0,0,1.521-.817l.65-3.647a1.171,1.171,0,0,0-1.16-.835,1.478,1.478,0,0,0-1.305.7A4.507,4.507,0,0,0,28.149,14.43Zm9.6,4.57h-2.9L36.5,9.49h2.9ZM36.754,7.091a1.341,1.341,0,0,1,.453-1.072,1.625,1.625,0,0,1,1.138-.431,1.678,1.678,0,0,1,1.129.387,1.318,1.318,0,0,1,.47,1.011A1.344,1.344,0,0,1,39.5,8.062a1.63,1.63,0,0,1-1.143.426,1.7,1.7,0,0,1-1.121-.382A1.3,1.3,0,0,1,36.754,7.091Zm9.694,5.08a8.273,8.273,0,0,0-.9-.088,2.233,2.233,0,0,0-1.986.9L42.493,19H39.6l1.652-9.51,2.7-.009-.22,1.248a2.64,2.64,0,0,1,2.2-1.441,4.144,4.144,0,0,1,.9.123Zm4.57,7a4.421,4.421,0,0,1-2.272-.6,3.793,3.793,0,0,1-1.507-1.652,4.44,4.44,0,0,1-.4-2.333l.026-.246a5.829,5.829,0,0,1,1.63-3.713,4.51,4.51,0,0,1,3.415-1.314A3.678,3.678,0,0,1,54,9.935,3.468,3.468,0,0,1,55.272,11.6a5.1,5.1,0,0,1,.264,2.381l-.167,1.206h-5.66a1.854,1.854,0,0,0,.422,1.213,1.549,1.549,0,0,0,1.178.492,2.993,2.993,0,0,0,2.259-.967l1.213,1.6a3.578,3.578,0,0,1-1.5,1.2,5.263,5.263,0,0,1-2.1.451Zm.7-7.576a1.487,1.487,0,0,0-1.068.385,3.229,3.229,0,0,0-.787,1.347h2.892l.053-.254a1.929,1.929,0,0,0,.018-.577A1.017,1.017,0,0,0,51.722,11.6Zm8.569,5.291a1.244,1.244,0,0,0,.976-.345,1.717,1.717,0,0,0,.448-.938l2.707-.009a3.559,3.559,0,0,1-.62,1.872,3.745,3.745,0,0,1-1.529,1.279,4.521,4.521,0,0,1-2.061.426,3.57,3.57,0,0,1-2.927-1.367,4.726,4.726,0,0,1-.835-3.441l.026-.211a6.371,6.371,0,0,1,.809-2.553,4.626,4.626,0,0,1,1.709-1.718,4.433,4.433,0,0,1,2.369-.571,3.536,3.536,0,0,1,2.624,1.059,3.755,3.755,0,0,1,.927,2.764l-2.707-.009q.044-1.5-1.081-1.529-1.529-.053-1.758,2.567l-.079.893-.009.333Q59.28,16.864,60.291,16.891ZM70.469,7.126,70.056,9.49h1.521l-.36,2.057H69.7l-.738,4.368a1.164,1.164,0,0,0,.057.677q.119.229.593.246a6.873,6.873,0,0,0,.756-.044l-.211,2.145a4.673,4.673,0,0,1-1.556.22,2.563,2.563,0,0,1-2.013-.791,2.7,2.7,0,0,1-.545-2.1l.773-4.72H65.635l.352-2.057h1.178l.413-2.364ZM80.98,19.176a4.334,4.334,0,0,1-3.2-1.318,5.369,5.369,0,0,1-1.362-3.41,9.748,9.748,0,0,1,.167-2.483,8.723,8.723,0,0,1,.905-2.632,6.625,6.625,0,0,1,1.626-2,5.561,5.561,0,0,1,3.762-1.3,4.627,4.627,0,0,1,2.29.6,4.2,4.2,0,0,1,1.569,1.657,5.951,5.951,0,0,1,.686,2.461,10.087,10.087,0,0,1-.119,2.219,9.146,9.146,0,0,1-.694,2.373A7.253,7.253,0,0,1,85.3,17.33,6,6,0,0,1,83.419,18.7,5.453,5.453,0,0,1,80.98,19.176Zm3.428-8.455q-.088-2.2-1.705-2.285a2.353,2.353,0,0,0-2.065.989,6.347,6.347,0,0,0-1.081,3.1,10.815,10.815,0,0,0-.123,1.96q.088,2.232,1.723,2.294A2.283,2.283,0,0,0,83,16.007a4.974,4.974,0,0,0,1.116-2.391A11.484,11.484,0,0,0,84.408,10.721ZM97.1,14.263A6.891,6.891,0,0,1,95.737,17.9a3.409,3.409,0,0,1-2.865,1.283,2.522,2.522,0,0,1-2.162-1.178L90.35,19H87.73L90.077,5.5h2.892l-.94,4.772a2.87,2.87,0,0,1,2.136-.958,2.679,2.679,0,0,1,2.18,1,4.351,4.351,0,0,1,.826,2.667,9.674,9.674,0,0,1-.044,1.1Zm-2.874-.171a9.1,9.1,0,0,0,.079-1.018q0-1.413-1.011-1.474a1.732,1.732,0,0,0-1.5.763l-.686,3.791a1.163,1.163,0,0,0,1.2.746q1.415.044,1.784-1.843l.123-.781Zm8.156-4.6L100.721,19.3a4.036,4.036,0,0,1-1.283,2.641,3.9,3.9,0,0,1-2.725.927,9.185,9.185,0,0,1-1.45-.167l.237-2.25a3.9,3.9,0,0,0,.8.105A1.407,1.407,0,0,0,97.812,19.2l1.67-9.712ZM99.7,7.087a1.326,1.326,0,0,1,.457-1.075,1.646,1.646,0,0,1,1.134-.423,1.6,1.6,0,0,1,1.125.375,1.332,1.332,0,0,1,.475,1.018,1.35,1.35,0,0,1-.435,1.058,1.757,1.757,0,0,1-2.281.057A1.323,1.323,0,0,1,99.7,7.087Zm7.453,12.089a4.421,4.421,0,0,1-2.272-.6,3.793,3.793,0,0,1-1.507-1.652,4.44,4.44,0,0,1-.4-2.333l.026-.246a5.829,5.829,0,0,1,1.63-3.713,4.51,4.51,0,0,1,3.415-1.314,3.678,3.678,0,0,1,2.092.621,3.468,3.468,0,0,1,1.274,1.664,5.1,5.1,0,0,1,.264,2.381l-.167,1.206h-5.66a1.854,1.854,0,0,0,.422,1.213,1.549,1.549,0,0,0,1.178.492,2.993,2.993,0,0,0,2.259-.967l1.213,1.6a3.578,3.578,0,0,1-1.5,1.2,5.263,5.263,0,0,1-2.1.451Zm.7-7.576a1.487,1.487,0,0,0-1.068.385A3.229,3.229,0,0,0,106,13.331h2.892l.053-.254a1.929,1.929,0,0,0,.018-.577A1.017,1.017,0,0,0,107.857,11.6Zm8.569,5.291a1.244,1.244,0,0,0,.976-.345,1.717,1.717,0,0,0,.448-.938l2.707-.009a3.559,3.559,0,0,1-.62,1.872,3.745,3.745,0,0,1-1.529,1.279,4.521,4.521,0,0,1-2.061.426,3.57,3.57,0,0,1-2.927-1.367,4.726,4.726,0,0,1-.835-3.441l.026-.211a6.371,6.371,0,0,1,.809-2.553,4.626,4.626,0,0,1,1.709-1.718,4.433,4.433,0,0,1,2.369-.571,3.536,3.536,0,0,1,2.624,1.059,3.755,3.755,0,0,1,.927,2.764l-2.707-.009q.044-1.5-1.081-1.529-1.529-.053-1.758,2.567l-.079.893-.009.333Q115.416,16.864,116.427,16.891ZM126.6,7.126l-.413,2.364h1.521l-.36,2.057h-1.521l-.738,4.368a1.164,1.164,0,0,0,.057.677q.119.229.593.246a6.873,6.873,0,0,0,.756-.044l-.211,2.145a4.673,4.673,0,0,1-1.556.22,2.563,2.563,0,0,1-2.013-.791,2.7,2.7,0,0,1-.545-2.1l.773-4.72h-1.178l.352-2.057H123.3l.413-2.364Z" transform="translate(149 95)" fill="#6b8dfc"/>
        <path id="Trazado_212696" data-name="Trazado 212696" d="M5.548,19,7.763,6.2l3.762.009a4.9,4.9,0,0,1,2.9.875,4.7,4.7,0,0,1,1.758,2.386,6.536,6.536,0,0,1,.272,2.865l-.062.536a7.561,7.561,0,0,1-1.143,3.12,6.545,6.545,0,0,1-2.329,2.193A6.347,6.347,0,0,1,9.846,19ZM10.364,8.576l-1.4,8.042.879.009a3,3,0,0,0,2.483-1.2,6.7,6.7,0,0,0,1.112-3.656l.018-.29a3.492,3.492,0,0,0-.439-2.136,1.784,1.784,0,0,0-1.5-.765ZM19.839,19h-2.9l1.652-9.51h2.9ZM18.846,7.091A1.341,1.341,0,0,1,19.3,6.019a1.625,1.625,0,0,1,1.138-.431,1.678,1.678,0,0,1,1.129.387,1.318,1.318,0,0,1,.47,1.011,1.344,1.344,0,0,1-.448,1.077,1.63,1.63,0,0,1-1.143.426,1.7,1.7,0,0,1-1.121-.382A1.3,1.3,0,0,1,18.846,7.091Zm9.694,5.08a8.273,8.273,0,0,0-.9-.088,2.233,2.233,0,0,0-1.986.9L24.585,19H21.693l1.652-9.51,2.7-.009-.22,1.248a2.64,2.64,0,0,1,2.2-1.441,4.144,4.144,0,0,1,.9.123Zm4.57,7a4.421,4.421,0,0,1-2.272-.6,3.793,3.793,0,0,1-1.507-1.652,4.44,4.44,0,0,1-.4-2.333l.026-.246a5.829,5.829,0,0,1,1.63-3.713A4.51,4.51,0,0,1,34,9.314a3.678,3.678,0,0,1,2.092.621A3.468,3.468,0,0,1,37.364,11.6a5.1,5.1,0,0,1,.264,2.381l-.167,1.206H31.8a1.854,1.854,0,0,0,.422,1.213,1.549,1.549,0,0,0,1.178.492,2.993,2.993,0,0,0,2.259-.967l1.213,1.6a3.578,3.578,0,0,1-1.5,1.2,5.263,5.263,0,0,1-2.1.451Zm.7-7.576a1.487,1.487,0,0,0-1.068.385,3.229,3.229,0,0,0-.787,1.347h2.892l.053-.254a1.929,1.929,0,0,0,.018-.577A1.017,1.017,0,0,0,33.813,11.6Zm8.569,5.291a1.244,1.244,0,0,0,.976-.345,1.717,1.717,0,0,0,.448-.938l2.707-.009a3.559,3.559,0,0,1-.62,1.872,3.745,3.745,0,0,1-1.529,1.279,4.521,4.521,0,0,1-2.061.426,3.57,3.57,0,0,1-2.927-1.367,4.726,4.726,0,0,1-.835-3.441l.026-.211a6.371,6.371,0,0,1,.809-2.553,4.626,4.626,0,0,1,1.709-1.718,4.433,4.433,0,0,1,2.369-.571,3.536,3.536,0,0,1,2.624,1.059,3.755,3.755,0,0,1,.927,2.764L44.3,13.129q.044-1.5-1.081-1.529-1.529-.053-1.758,2.567l-.079.893-.009.333Q41.372,16.864,42.383,16.891ZM52.561,7.126,52.147,9.49h1.521l-.36,2.057H51.787l-.738,4.368a1.164,1.164,0,0,0,.057.677q.119.229.593.246a6.873,6.873,0,0,0,.756-.044l-.211,2.145a4.673,4.673,0,0,1-1.556.22,2.563,2.563,0,0,1-2.013-.791,2.7,2.7,0,0,1-.545-2.1l.773-4.72H47.727l.352-2.057h1.178l.413-2.364Zm10.512,12.05a4.334,4.334,0,0,1-3.2-1.318,5.369,5.369,0,0,1-1.362-3.41,9.748,9.748,0,0,1,.167-2.483,8.723,8.723,0,0,1,.905-2.632,6.625,6.625,0,0,1,1.626-2,5.561,5.561,0,0,1,3.762-1.3,4.627,4.627,0,0,1,2.29.6,4.2,4.2,0,0,1,1.569,1.657,5.951,5.951,0,0,1,.686,2.461,10.087,10.087,0,0,1-.119,2.219,9.146,9.146,0,0,1-.694,2.373A7.253,7.253,0,0,1,67.4,17.33,6,6,0,0,1,65.511,18.7,5.453,5.453,0,0,1,63.072,19.176ZM66.5,10.721q-.088-2.2-1.705-2.285a2.353,2.353,0,0,0-2.065.989,6.347,6.347,0,0,0-1.081,3.1,10.815,10.815,0,0,0-.123,1.96q.088,2.232,1.723,2.294a2.283,2.283,0,0,0,1.846-.769,4.974,4.974,0,0,0,1.116-2.391A11.484,11.484,0,0,0,66.5,10.721Zm12.691,3.542A6.891,6.891,0,0,1,77.829,17.9a3.409,3.409,0,0,1-2.865,1.283A2.522,2.522,0,0,1,72.8,18.007l-.36.993H69.822L72.169,5.5h2.892l-.94,4.772a2.87,2.87,0,0,1,2.136-.958,2.679,2.679,0,0,1,2.18,1,4.351,4.351,0,0,1,.826,2.667,9.674,9.674,0,0,1-.044,1.1Zm-2.874-.171a9.1,9.1,0,0,0,.079-1.018q0-1.413-1.011-1.474a1.732,1.732,0,0,0-1.5.763L73.2,16.154a1.163,1.163,0,0,0,1.2.746q1.415.044,1.784-1.843l.123-.781Zm8.156-4.6L82.813,19.3a4.036,4.036,0,0,1-1.283,2.641,3.9,3.9,0,0,1-2.725.927,9.185,9.185,0,0,1-1.45-.167l.237-2.25a3.9,3.9,0,0,0,.8.105A1.407,1.407,0,0,0,79.9,19.2l1.67-9.712Zm-2.681-2.4a1.326,1.326,0,0,1,.457-1.075,1.646,1.646,0,0,1,1.134-.423,1.6,1.6,0,0,1,1.125.375,1.332,1.332,0,0,1,.475,1.018,1.35,1.35,0,0,1-.435,1.058,1.757,1.757,0,0,1-2.281.057A1.323,1.323,0,0,1,81.793,7.087Zm7.453,12.089a4.421,4.421,0,0,1-2.272-.6,3.793,3.793,0,0,1-1.507-1.652,4.44,4.44,0,0,1-.4-2.333l.026-.246a5.829,5.829,0,0,1,1.63-3.713,4.51,4.51,0,0,1,3.415-1.314,3.678,3.678,0,0,1,2.092.621A3.468,3.468,0,0,1,93.5,11.6a5.1,5.1,0,0,1,.264,2.381L93.6,15.186h-5.66a1.854,1.854,0,0,0,.422,1.213,1.549,1.549,0,0,0,1.178.492,2.993,2.993,0,0,0,2.259-.967l1.213,1.6a3.578,3.578,0,0,1-1.5,1.2,5.263,5.263,0,0,1-2.1.451Zm.7-7.576a1.487,1.487,0,0,0-1.068.385,3.229,3.229,0,0,0-.787,1.347h2.892l.053-.254a1.929,1.929,0,0,0,.018-.577A1.017,1.017,0,0,0,89.949,11.6Zm8.569,5.291a1.244,1.244,0,0,0,.976-.345,1.717,1.717,0,0,0,.448-.938l2.707-.009a3.559,3.559,0,0,1-.62,1.872A3.745,3.745,0,0,1,100.5,18.75a4.521,4.521,0,0,1-2.061.426,3.57,3.57,0,0,1-2.927-1.367,4.726,4.726,0,0,1-.835-3.441l.026-.211a6.371,6.371,0,0,1,.809-2.553,4.626,4.626,0,0,1,1.709-1.718,4.433,4.433,0,0,1,2.369-.571,3.536,3.536,0,0,1,2.624,1.059,3.755,3.755,0,0,1,.927,2.764l-2.707-.009q.044-1.5-1.081-1.529-1.529-.053-1.758,2.567l-.079.893-.009.333Q97.508,16.864,98.519,16.891ZM108.7,7.126l-.413,2.364H109.8l-.36,2.057h-1.521l-.738,4.368a1.164,1.164,0,0,0,.057.677q.119.229.593.246a6.873,6.873,0,0,0,.756-.044l-.211,2.145a4.673,4.673,0,0,1-1.556.22,2.563,2.563,0,0,1-2.013-.791,2.7,2.7,0,0,1-.545-2.1l.773-4.72h-1.178l.352-2.057h1.178l.413-2.364Z" transform="translate(264)" fill="#3c3fa7"/>
        <g id="Rectángulo_339143" data-name="Rectángulo 339143" transform="translate(27 44)" fill="none" stroke="#fc5f65" stroke-width="1">
          <rect width="149" height="32" stroke="none"/>
          <rect x="0.5" y="0.5" width="148" height="31" fill="none"/>
        </g>
        <g id="Rectángulo_339144" data-name="Rectángulo 339144" transform="translate(176 44)" fill="none" stroke="#6b8dfc" stroke-width="1">
          <rect width="82" height="32" stroke="none"/>
          <rect x="0.5" y="0.5" width="81" height="31" fill="none"/>
        </g>
        <g id="Rectángulo_339145" data-name="Rectángulo 339145" transform="translate(258 44)" fill="none" stroke="#3c3fa7" stroke-width="1">
          <rect width="117" height="32" stroke="none"/>
          <rect x="0.5" y="0.5" width="116" height="31" fill="none"/>
        </g>
        <g id="Grupo_984110" data-name="Grupo 984110" transform="translate(85 25)">
          <path id="Polígono_169" data-name="Polígono 169" d="M5.5,0,11,9H0Z" fill="#fc5f65"/>
          <rect id="Rectángulo_339146" data-name="Rectángulo 339146" width="5" height="13" transform="translate(3 7)" fill="#fc5f65"/>
        </g>
        <g id="Grupo_984112" data-name="Grupo 984112" transform="translate(314 25)">
          <path id="Polígono_169-2" data-name="Polígono 169" d="M5.5,0,11,9H0Z" fill="#3c3fa7"/>
          <rect id="Rectángulo_339146-2" data-name="Rectángulo 339146" width="5" height="13" transform="translate(3 7)" fill="#3c3fa7"/>
        </g>
        <g id="Grupo_984111" data-name="Grupo 984111" transform="translate(212 76)">
          <path id="Polígono_169-3" data-name="Polígono 169" d="M5.5,0,11,9H0Z" transform="translate(11 20) rotate(180)" fill="#6b8dfc"/>
          <rect id="Rectángulo_339146-3" data-name="Rectángulo 339146" width="5" height="13" transform="translate(3)" fill="#6b8dfc"/>
        </g>
      </g>
    </g>
    <path id="Trazado_212699" data-name="Trazado 212699" d="M13.727,25a3.438,3.438,0,0,1-.164-1.148,3.911,3.911,0,0,1-3.105,1.383,3.821,3.821,0,0,1-2.742-1.1A3.311,3.311,0,0,1,6.7,21.52a3.719,3.719,0,0,1,1.723-3.17,8.122,8.122,0,0,1,4.547-1.107l1.289.023.141-.715.047-.621a1.007,1.007,0,0,0-1.066-1.1,1.482,1.482,0,0,0-1.559,1.395l-3.867.012a3.673,3.673,0,0,1,.832-2.221,4.931,4.931,0,0,1,2.1-1.453,7.35,7.35,0,0,1,2.83-.475,5.668,5.668,0,0,1,2.525.6,3.76,3.76,0,0,1,1.623,1.582,4.042,4.042,0,0,1,.41,2.338l-.949,5.965-.059.727a3.2,3.2,0,0,0,.223,1.477L17.477,25Zm-2.2-2.555A2.487,2.487,0,0,0,13.6,21.4l.387-2.039-1-.012a2.625,2.625,0,0,0-1.594.545,2.067,2.067,0,0,0-.785,1.424,1.038,1.038,0,0,0,.182.791A.928.928,0,0,0,11.523,22.445Zm25.969-3.773a10.532,10.532,0,0,1-1.043,3.545,5.8,5.8,0,0,1-1.975,2.309,4.556,4.556,0,0,1-2.631.721,3.445,3.445,0,0,1-2.7-1.312L28,29.875H24.145L27.191,12.32l3.563-.012-.2,1.207a3.727,3.727,0,0,1,3.012-1.43,3.549,3.549,0,0,1,2.889,1.324,5.851,5.851,0,0,1,1.107,3.551A13.7,13.7,0,0,1,37.492,18.672Zm-3.75-1.57q-.059-1.934-1.312-1.969a2.273,2.273,0,0,0-2.027,1l-.9,5.027A1.565,1.565,0,0,0,31.117,22.2q2.051.035,2.52-3.527Q33.742,17.547,33.742,17.1Zm13.594-1.207a11.03,11.03,0,0,0-1.2-.117,2.977,2.977,0,0,0-2.648,1.2L42.063,25H38.207l2.2-12.68,3.6-.012-.293,1.664a3.52,3.52,0,0,1,2.93-1.922,5.525,5.525,0,0,1,1.2.164Zm6.094,9.34a5.894,5.894,0,0,1-3.029-.8,5.058,5.058,0,0,1-2.01-2.2,5.92,5.92,0,0,1-.539-3.111l.035-.328a7.772,7.772,0,0,1,2.174-4.951,6.014,6.014,0,0,1,4.553-1.752,4.9,4.9,0,0,1,2.789.827,4.624,4.624,0,0,1,1.7,2.218,6.794,6.794,0,0,1,.352,3.175l-.223,1.608H51.684a2.472,2.472,0,0,0,.563,1.617,2.066,2.066,0,0,0,1.57.656A3.991,3.991,0,0,0,56.828,20.9l1.617,2.139a4.771,4.771,0,0,1-2,1.6,7.017,7.017,0,0,1-2.807.6Zm.938-10.1a1.983,1.983,0,0,0-1.424.513,4.305,4.305,0,0,0-1.049,1.8H55.75l.07-.338a2.572,2.572,0,0,0,.023-.769A1.357,1.357,0,0,0,54.367,15.133Zm12.7,6.234q.152-.773-1.2-1.16L65.043,20a6.407,6.407,0,0,1-2.988-1.512,2.992,2.992,0,0,1-.891-2.309,3.677,3.677,0,0,1,1.623-2.971A6.177,6.177,0,0,1,66.6,12.086a5.722,5.722,0,0,1,3.627,1.137,3.708,3.708,0,0,1,1.412,3L67.8,16.211q.047-1.5-1.324-1.5a1.889,1.889,0,0,0-1.09.346,1.343,1.343,0,0,0-.6.92q-.2.949,1.676,1.3a9.739,9.739,0,0,1,2.52.9,3.762,3.762,0,0,1,1.359,1.26,3.133,3.133,0,0,1,.434,1.8,3.388,3.388,0,0,1-.75,2.051,4.856,4.856,0,0,1-2.068,1.441,7.409,7.409,0,0,1-2.936.5,5.958,5.958,0,0,1-2.549-.574,4.545,4.545,0,0,1-1.84-1.529,3.972,3.972,0,0,1-.686-2.221l3.586.023A1.481,1.481,0,0,0,65.219,22.6a2.215,2.215,0,0,0,1.219-.322A1.394,1.394,0,0,0,67.07,21.367Zm11.2,3.867a5.894,5.894,0,0,1-3.029-.8,5.058,5.058,0,0,1-2.01-2.2,5.92,5.92,0,0,1-.539-3.111l.035-.328A7.772,7.772,0,0,1,74.9,13.838a6.014,6.014,0,0,1,4.553-1.752,4.9,4.9,0,0,1,2.789.827,4.624,4.624,0,0,1,1.7,2.218,6.794,6.794,0,0,1,.352,3.175l-.223,1.608H76.527a2.472,2.472,0,0,0,.563,1.617,2.066,2.066,0,0,0,1.57.656A3.991,3.991,0,0,0,81.672,20.9l1.617,2.139a4.771,4.771,0,0,1-2,1.6,7.017,7.017,0,0,1-2.807.6Zm.938-10.1a1.983,1.983,0,0,0-1.424.513,4.305,4.305,0,0,0-1.049,1.8h3.855l.07-.338a2.572,2.572,0,0,0,.023-.769A1.357,1.357,0,0,0,79.211,15.133Zm11.273-2.824-.27,1.523a4.507,4.507,0,0,1,3.668-1.758A3.027,3.027,0,0,1,96.5,13.381a5.469,5.469,0,0,1,.627,3.639L95.793,25H91.926l1.348-8.013a4.144,4.144,0,0,0,.023-.751q-.082-1.115-1.312-1.115a2.409,2.409,0,0,0-1.863.9L88.539,25H84.684l2.2-12.68Zm14.754-3.141-.551,3.152h2.027l-.48,2.742h-2.027l-.984,5.824a1.552,1.552,0,0,0,.076.9q.158.3.791.328a9.164,9.164,0,0,0,1.008-.059l-.281,2.859a6.231,6.231,0,0,1-2.074.293,3.417,3.417,0,0,1-2.684-1.055,3.6,3.6,0,0,1-.727-2.8l1.031-6.293h-1.57l.469-2.742h1.57l.551-3.152Z" transform="translate(1122 2317.832)" fill="#3c3fa7"/>
    <path id="Trazado_212698" data-name="Trazado 212698" d="M19.775,13.7a4.143,4.143,0,0,1,3.27-1.629,3.3,3.3,0,0,1,2.83,1.395,5.309,5.309,0,0,1,.662,3.656L25.225,25H21.369l1.324-7.931a4.106,4.106,0,0,0,.023-.751,1.171,1.171,0,0,0-1.289-1.2,2.5,2.5,0,0,0-1.852.763L17.959,25H14.1L17.232,7h3.855ZM31.518,25H27.65l2.2-12.68h3.867ZM30.193,9.121a1.788,1.788,0,0,1,.6-1.43,2.167,2.167,0,0,1,1.518-.574,2.237,2.237,0,0,1,1.506.516,1.757,1.757,0,0,1,.627,1.348,1.792,1.792,0,0,1-.6,1.436,2.174,2.174,0,0,1-1.523.568,2.265,2.265,0,0,1-1.494-.51A1.737,1.737,0,0,1,30.193,9.121ZM41.115,21.367q.152-.773-1.2-1.16L39.088,20A6.407,6.407,0,0,1,36.1,18.484a2.992,2.992,0,0,1-.891-2.309,3.677,3.677,0,0,1,1.623-2.971,6.177,6.177,0,0,1,3.814-1.119,5.722,5.722,0,0,1,3.627,1.137,3.708,3.708,0,0,1,1.412,3l-3.844-.012q.047-1.5-1.324-1.5a1.889,1.889,0,0,0-1.09.346,1.343,1.343,0,0,0-.6.92q-.2.949,1.676,1.3a9.739,9.739,0,0,1,2.52.9,3.762,3.762,0,0,1,1.359,1.26,3.133,3.133,0,0,1,.434,1.8,3.388,3.388,0,0,1-.75,2.051A4.856,4.856,0,0,1,42,24.73a7.409,7.409,0,0,1-2.936.5,5.958,5.958,0,0,1-2.549-.574,4.545,4.545,0,0,1-1.84-1.529,3.972,3.972,0,0,1-.686-2.221l3.586.023A1.481,1.481,0,0,0,39.264,22.6a2.215,2.215,0,0,0,1.219-.322A1.394,1.394,0,0,0,41.115,21.367Zm17.965,0q.152-.773-1.2-1.16L57.053,20a6.407,6.407,0,0,1-2.988-1.512,2.992,2.992,0,0,1-.891-2.309A3.677,3.677,0,0,1,54.8,13.205a6.177,6.177,0,0,1,3.814-1.119,5.722,5.722,0,0,1,3.627,1.137,3.708,3.708,0,0,1,1.412,3l-3.844-.012q.047-1.5-1.324-1.5a1.889,1.889,0,0,0-1.09.346,1.343,1.343,0,0,0-.6.92q-.2.949,1.676,1.3a9.739,9.739,0,0,1,2.52.9,3.762,3.762,0,0,1,1.359,1.26,3.133,3.133,0,0,1,.434,1.8,3.388,3.388,0,0,1-.75,2.051,4.856,4.856,0,0,1-2.068,1.441,7.409,7.409,0,0,1-2.936.5,5.958,5.958,0,0,1-2.549-.574,4.545,4.545,0,0,1-1.84-1.529,3.972,3.972,0,0,1-.686-2.221l3.586.023A1.481,1.481,0,0,0,57.229,22.6a2.215,2.215,0,0,0,1.219-.322A1.394,1.394,0,0,0,59.08,21.367Zm12.293-9.281a5.325,5.325,0,0,1,2.941.85,4.786,4.786,0,0,1,1.822,2.3,7.106,7.106,0,0,1,.416,3.281l-.023.258a7.514,7.514,0,0,1-2.168,4.711,6.1,6.1,0,0,1-4.547,1.746A5.3,5.3,0,0,1,66.9,24.4a4.817,4.817,0,0,1-1.822-2.279,6.906,6.906,0,0,1-.428-3.258,7.817,7.817,0,0,1,2.139-4.969A6.062,6.062,0,0,1,71.373,12.086ZM68.5,18.865l-.035.69q-.164,2.609,1.594,2.656,2.273.07,2.637-3.685l.047-1.065a2.873,2.873,0,0,0-.393-1.679,1.43,1.43,0,0,0-1.225-.649A2.016,2.016,0,0,0,69.375,16,5.7,5.7,0,0,0,68.5,18.865Zm14.391-6.556-.27,1.523a4.507,4.507,0,0,1,3.668-1.758,3.027,3.027,0,0,1,2.619,1.307,5.469,5.469,0,0,1,.627,3.639L88.2,25H84.334l1.348-8.013a4.144,4.144,0,0,0,.023-.751q-.082-1.115-1.312-1.115a2.409,2.409,0,0,0-1.863.9L80.947,25H77.092l2.2-12.68Z" transform="translate(1028 2320)" fill="#6b8dfc"/>
  </g>
</svg>
