<svg xmlns="http://www.w3.org/2000/svg" xmlns:xlink="http://www.w3.org/1999/xlink" width="400" height="153.85" viewBox="0 0 400 153.85">
  <defs>
    <clipPath id="clip-path">
      <rect id="Rect치ngulo_339176" data-name="Rect치ngulo 339176" width="255.325" height="153.85" fill="none"/>
    </clipPath>
  </defs>
  <g id="Grupo_983879" data-name="Grupo 983879" transform="translate(-180 -4203)">
    <rect id="Rect치ngulo_338995" data-name="Rect치ngulo 338995" width="400" height="93" rx="17" transform="translate(180 4232)" fill="#fed947"/>
    <g id="Grupo_983878" data-name="Grupo 983878" transform="translate(239.675 4203)">
      <g id="Grupo_983877" data-name="Grupo 983877" clip-path="url(#clip-path)">
        <path id="Trazado_210548" data-name="Trazado 210548" d="M253.377,56.511h-125.7L124.01,87.489,118.9,135.773a1.948,1.948,0,0,0,1.934,2.174h3.343s-1.086,15.9.359,15.9c1.949,0,9.252-15.9,9.252-15.9h110.51a1.947,1.947,0,0,0,1.934-1.721l9.082-77.541a1.947,1.947,0,0,0-1.934-2.174" fill="#ccb16c"/>
        <path id="Trazado_210549" data-name="Trazado 210549" d="M125.411,92.284H1.948A1.948,1.948,0,0,1,.013,90.11L9.1,12.569a1.947,1.947,0,0,1,1.934-1.721H134.493a1.947,1.947,0,0,1,1.934,2.174l-9.082,77.541a1.947,1.947,0,0,1-1.934,1.721" fill="#8498d9"/>
        <path id="Trazado_210550" data-name="Trazado 210550" d="M130.522,17.918a3,3,0,1,1-3-3,3,3,0,0,1,3,3" fill="#fff"/>
        <path id="Trazado_210551" data-name="Trazado 210551" d="M120.522,17.918a3,3,0,1,1-3-3,3,3,0,0,1,3,3" fill="#fff"/>
        <path id="Trazado_210552" data-name="Trazado 210552" d="M79.551,28.627c3.295-1.855,5.585-5.893,5.585-10.589,0-6.451-5.253-11.735-12.517-14.344-5-1.8-6.736,7.893-6.736,14.344a13.359,13.359,0,0,0,1.8,6.79,10.739,10.739,0,0,0-5.993,3.307c-5.1,5.92-4.468,21.561,7.907,23a14.7,14.7,0,0,0,9.781-2.914c2.829-1.969,4.866-5.3,4.629-8.737-.182-2.639-1.614-5-2.826-7.35q-.885-1.718-1.634-3.5" fill="#2b244a"/>
        <path id="Trazado_210553" data-name="Trazado 210553" d="M74.615,43.293a5.71,5.71,0,1,1,5.711-5.71,5.716,5.716,0,0,1-5.711,5.71m0-10.421a4.71,4.71,0,1,0,4.711,4.711,4.716,4.716,0,0,0-4.711-4.711" fill="#ffc37a"/>
        <path id="Trazado_210554" data-name="Trazado 210554" d="M46.9,18.882c.246,3.106-.111,7.431-6.333,11.209s-10.294,4.663-14.5,10.517c-4.14,5.76-4.624,13.069-2.957,21.733,1.607,8.352,17.561,7.975,30.415,3.728s7.708-11.534,7.708-19.534,3.135-14.773-.766-22.386S46.9,18.882,46.9,18.882" fill="#2b244a"/>
        <path id="Trazado_210555" data-name="Trazado 210555" d="M98.417,92.283H2.666C4.2,84.963,5.735,78.013,6.5,75.433a64.862,64.862,0,0,1,3.776-10.34,31.959,31.959,0,0,1,5.013-7.52c6.949-7.68,15.748-10.11,24.3-10.88a123.43,123.43,0,0,1,20.668.21c7.032.55,13.8,1.68,19.68,4.06,5.877,2.41,10.63,6.17,13.574,11.5,3.047,5.56,5.167,25.9,4.9,29.82" fill="#ffc37a"/>
        <path id="Trazado_210556" data-name="Trazado 210556" d="M41.48,44.882q-.227,3.048-.207,6.107a41.591,41.591,0,0,0,.312,5.777,6.921,6.921,0,0,0,2.527,4.4,53.448,53.448,0,0,0,4.473,3.381,63.734,63.734,0,0,0,5.623,3.445c.565.308,1.07-.555.5-.864A63.69,63.69,0,0,1,48.8,63.481q-1.467-1.021-2.874-2.126a11.767,11.767,0,0,1-2.47-2.317,6.38,6.38,0,0,1-.979-3.15c-.109-1.18-.154-2.37-.185-3.554a74.106,74.106,0,0,1,.184-7.452c.048-.642-.952-.639-1,0" fill="#2b244a"/>
        <path id="Trazado_210557" data-name="Trazado 210557" d="M68.853,46.6q1.7,2.877,3.184,5.877c.488.992.971,1.991,1.4,3.008a5.294,5.294,0,0,1,.552,3.3,5.708,5.708,0,0,1-1.56,2.411c-.725.763-1.479,1.5-2.233,2.234q-2.4,2.325-4.9,4.532c-.484.428.226,1.133.707.707,1.843-1.63,3.653-3.3,5.408-5.027C72.776,62.3,74.6,60.831,75,58.858c.44-2.166-.884-4.368-1.787-6.246q-1.608-3.336-3.5-6.521a.5.5,0,0,0-.863.505" fill="#2b244a"/>
        <path id="Trazado_210558" data-name="Trazado 210558" d="M61.884,92.283h-1.21C58.7,84.4,51,54.243,46.814,46.353a10.793,10.793,0,0,0-.69-1.12l18.09,2.08a.077.077,0,0,0,.01.03c.25.91,6.05,22.68-2.34,44.94" fill="#e0785e"/>
        <path id="Trazado_210559" data-name="Trazado 210559" d="M51.456,25.555,45.744,46.621s8.617,6.239,18.472.693l1.436-9.4Z" fill="#e0785e"/>
        <path id="Trazado_210560" data-name="Trazado 210560" d="M48.508,9.518C51.4-.569,59.6-1.639,68.639,2.252s10.73,8.316,10.671,16.74a176.35,176.35,0,0,1-1.5,20.872c-.436,2.644-4.483,7.662-11.3,4.184A36.775,36.775,0,0,1,52.451,31.716c-2.011-3-6.834-12.111-3.943-22.2" fill="#e0785e"/>
        <path id="Trazado_210561" data-name="Trazado 210561" d="M72.108,22.222c-.585,1.541-1.954.3-3.834.689-1.728.356-2.883.131-2.862-.778.025-1.1,1.709-2.294,4.163-2.156,2.3.13,2.96,1.121,2.533,2.245" fill="#2b244a"/>
        <path id="Trazado_210562" data-name="Trazado 210562" d="M79.166,24.023c-1.672-.632-3.165.163-3.4-1.411-.174-1.185.679-2.019,2.954-1.654.177.029.354.068.521.106a2.074,2.074,0,0,1-.076,2.959" fill="#2b244a"/>
        <path id="Trazado_210563" data-name="Trazado 210563" d="M70.7,24.614a1.2,1.2,0,0,0-.9-.714,1.138,1.138,0,0,0-1.078.666,3.957,3.957,0,0,0-.372,1.353,2.506,2.506,0,0,0,.238,1.608,1.052,1.052,0,0,0,1.833-.142,3.478,3.478,0,0,0,.28-2.771" fill="#2b244a"/>
        <path id="Trazado_210564" data-name="Trazado 210564" d="M78.936,25.5a1.2,1.2,0,0,0-.9-.714,1.138,1.138,0,0,0-1.078.666,3.951,3.951,0,0,0-.372,1.353,2.5,2.5,0,0,0,.238,1.607,1.051,1.051,0,0,0,1.832-.141,3.474,3.474,0,0,0,.281-2.771" fill="#2b244a"/>
        <path id="Trazado_210565" data-name="Trazado 210565" d="M73.041,32.337a3.931,3.931,0,0,0,1.984-.383A1.987,1.987,0,0,0,75.942,30a25.145,25.145,0,0,0-.465-2.647l-.534-2.822c-.119-.631-1.083-.364-.964.266q.437,2.305.871,4.612c.1.53.264,1.262-.251,1.633a2.7,2.7,0,0,1-1.558.3.5.5,0,0,0,0,1" fill="#2b244a"/>
        <path id="Trazado_210566" data-name="Trazado 210566" d="M74.3,4.869A24,24,0,0,0,62.586.146c-3.767-.36-7.434-.255-11.434,2.745C48.177,5.123,44.736,11.9,46.9,18.882c.63,2.031.706,11.576.706,11.576L34.383,47.521c23.937,7.639,21.5-6.265,23.8-17.8,1.733-8.7,7.693-7.428,11.449-10.825,4.229-3.824,3.895-10.407,3.895-10.407l5.146,3.644A10.072,10.072,0,0,0,74.3,4.869" fill="#2b244a"/>
        <path id="Trazado_210567" data-name="Trazado 210567" d="M66.063,25.791a5.688,5.688,0,1,1-7.037-3.9,5.688,5.688,0,0,1,7.037,3.9" fill="#e0785e"/>
        <path id="Trazado_210568" data-name="Trazado 210568" d="M54.461,42.023a5.71,5.71,0,1,1,5.71-5.71,5.717,5.717,0,0,1-5.71,5.71m0-10.421a4.71,4.71,0,1,0,4.71,4.711,4.716,4.716,0,0,0-4.71-4.711" fill="#ffc37a"/>
        <path id="Trazado_210569" data-name="Trazado 210569" d="M60.684,40.258A15.778,15.778,0,0,0,62.3,42.014c.606.558,1.262,1.06,1.916,1.561a.5.5,0,0,0,.684-.18.514.514,0,0,0-.18-.684c-.57-.437-1.193-.923-1.748-1.437a15.7,15.7,0,0,1-1.578-1.723.5.5,0,0,0-.707,0,.513.513,0,0,0,0,.707" fill="#2b244a"/>
        <path id="Trazado_210570" data-name="Trazado 210570" d="M59.188,29.364a2.524,2.524,0,0,1,.376-3.8,2.667,2.667,0,0,1,1.581-.448.5.5,0,0,0,0-1,3.524,3.524,0,0,0-3.557,4.337,3.494,3.494,0,0,0,.892,1.617c.445.467,1.151-.241.708-.707" fill="#2b244a"/>
        <path id="Trazado_210571" data-name="Trazado 210571" d="M72.577,36.658A4.1,4.1,0,0,1,69.745,34.6a.439.439,0,0,1,.439-.679,42.586,42.586,0,0,0,4.842.516.435.435,0,0,1,.362.656,3.079,3.079,0,0,1-2.811,1.565" fill="#fff"/>
        <path id="Trazado_210572" data-name="Trazado 210572" d="M31.383,82.571c-.48,3.215-.909,6.439-1.223,9.675-.062.64.939.636,1,0,.306-3.147.721-6.282,1.187-9.409.094-.63-.869-.9-.964-.266" fill="#2b244a"/>
        <path id="Trazado_210573" data-name="Trazado 210573" d="M79.188,84.449q-.377,3.761-.752,7.521c-.064.64.937.636,1,0q.376-3.761.752-7.521c.064-.64-.937-.635-1,0" fill="#2b244a"/>
        <path id="Trazado_210574" data-name="Trazado 210574" d="M249.406,63.581a3,3,0,1,1-3-3,3,3,0,0,1,3,3" fill="#fff"/>
        <path id="Trazado_210575" data-name="Trazado 210575" d="M239.406,63.581a3,3,0,1,1-3-3,3,3,0,0,1,3,3" fill="#fff"/>
        <path id="Trazado_210576" data-name="Trazado 210576" d="M248.577,116.169l-2.35,20.06a1.926,1.926,0,0,1-1.81,1.71h-94.59c.21-1.14,1.58-15.77,2.02-16.99,2.91-8.19,2.38-16.84,6.12-22.72,3.61-5.64,5.93-7.3,12.46-10.08,6.46-2.75,14.43-4.57,21.92-5.75a140.533,140.533,0,0,1,21.89-2.06c8.97,0,18.06,1.67,24.7,8.79a25.213,25.213,0,0,1,4.61,7.13,53.042,53.042,0,0,1,3.03,10.09c.22.99,1.09,5.09,2,9.82" fill="#ffeae0"/>
        <path id="Trazado_210577" data-name="Trazado 210577" d="M197.264,63.912l3.181,17.342s-5.525,9.545-16.458,2.72L181.713,73.4Z" fill="#ffa58f"/>
        <path id="Trazado_210578" data-name="Trazado 210578" d="M179.377,54.56a5.549,5.549,0,1,1-5.549-5.549,5.549,5.549,0,0,1,5.549,5.549" fill="#2b244a"/>
        <path id="Trazado_210579" data-name="Trazado 210579" d="M199.718,52.318c-1.656-9.519-9.059-11.3-17.716-8.629s-10.639,6.559-11.413,14.277a162.344,162.344,0,0,0-.674,19.255c.14,2.463,3.352,7.455,9.933,4.941a33.877,33.877,0,0,0,14.08-9.909c2.136-2.552,7.445-10.416,5.79-19.935" fill="#ffa58f"/>
        <path id="Trazado_210580" data-name="Trazado 210580" d="M183.232,81.119A16.443,16.443,0,0,0,189,76.077a.5.5,0,0,0-.18-.684.51.51,0,0,0-.684.179,15.355,15.355,0,0,1-5.408,4.683c-.571.3-.065,1.162.5.864" fill="#2b244a"/>
        <path id="Trazado_210581" data-name="Trazado 210581" d="M185.091,77.4l-.051-.028a2.349,2.349,0,0,0-1.076-.206c-1.634,0-3.023.771-4.539,1.243a4.757,4.757,0,0,1-1.626.309c-.624-.031-.909-.485-1.214-.984a1.938,1.938,0,0,0-3.238-.378,8.027,8.027,0,0,1-.5.683c-.558.571-1.219-.028-1.786-.276-.339-.148-1.264-.562-1.309.112a5.876,5.876,0,0,0,5.918,6.152,13.51,13.51,0,0,0,5.606-1.47,10.3,10.3,0,0,0,3.932-2.8c.511-.712.756-1.861-.117-2.357" fill="#2b244a"/>
        <path id="Trazado_210582" data-name="Trazado 210582" d="M174.384,58.278c-.543,1.418-1.795.276-3.526.635-.129.028-.249.046-.369.065-.71-.359-.678-2.186.3-2.707a5.6,5.6,0,0,1,1.262-.065c2.108.12,2.725,1.032,2.329,2.072" fill="#2b244a"/>
        <path id="Trazado_210583" data-name="Trazado 210583" d="M177.257,58.276c.538,1.419,1.8.278,3.529.634,1.591.328,2.654.121,2.635-.716-.023-1.012-1.574-2.113-3.833-1.985-2.115.119-2.725,1.032-2.331,2.067" fill="#2b244a"/>
        <path id="Trazado_210584" data-name="Trazado 210584" d="M180.9,61.277a1.1,1.1,0,0,0-.878-.591,1.044,1.044,0,0,0-.942.688,3.609,3.609,0,0,0-.245,1.268,2.3,2.3,0,0,0,.331,1.458.969.969,0,0,0,1.673-.259,3.2,3.2,0,0,0,.061-2.564" fill="#2b244a"/>
        <path id="Trazado_210585" data-name="Trazado 210585" d="M172.9,61.277a1.1,1.1,0,0,0-.878-.591,1.044,1.044,0,0,0-.942.688,3.609,3.609,0,0,0-.245,1.268,2.3,2.3,0,0,0,.331,1.458.969.969,0,0,0,1.673-.259,3.2,3.2,0,0,0,.061-2.564" fill="#2b244a"/>
        <path id="Trazado_210586" data-name="Trazado 210586" d="M198.256,65.506c.931-1.607,3.579-6.8,3.927-8.624a5.627,5.627,0,0,0-1.366-5.156,6.12,6.12,0,0,1-.907-.876c-.8-1.134-.042-2.692-.2-4.068a3.749,3.749,0,0,0-2.839-3.013,5.27,5.27,0,0,0-2.24-.061,12.974,12.974,0,0,0-6.285-3.919,4.644,4.644,0,0,0-2.382-.124A2.074,2.074,0,0,0,184.4,41.3a20.221,20.221,0,0,0-10.522,1.239,9.235,9.235,0,0,0-2.985,1.988A6.615,6.615,0,0,0,170,45.663a4.8,4.8,0,0,0-.247,4.919,5.512,5.512,0,0,0,4.289,2.443c1.462.133,5.533-.6,10.406-2.906,1.875-.554,3.075,1.546,3.256,3.206.24,2.164-.635,4.254-.672,6.408-.027,1.741.534,3.582,2.33,4.19a4.051,4.051,0,0,0,2.117.1c.157,2.2.792,4.355,2.827,5.552a10.909,10.909,0,0,0,4.246,1.376l-.806-4.393c.174-.387.507-1.053.507-1.053" fill="#2b244a"/>
        <path id="Trazado_210587" data-name="Trazado 210587" d="M194.385,63.7a4.647,4.647,0,1,1-5.363-3.8,4.647,4.647,0,0,1,5.363,3.8" fill="#ffa58f"/>
        <path id="Trazado_210588" data-name="Trazado 210588" d="M172.635,72.384a.445.445,0,0,1,.37-.67,43.385,43.385,0,0,0,4.942-.526.448.448,0,0,1,.448.693,4.187,4.187,0,0,1-2.89,2.1,3.143,3.143,0,0,1-2.87-1.6" fill="#2b244a"/>
        <path id="Trazado_210589" data-name="Trazado 210589" d="M174.215,62.819q-.409,1.18-.82,2.362a12.14,12.14,0,0,0-.737,2.344,1.594,1.594,0,0,0,.87,1.742,3.385,3.385,0,0,0,1.059.177l1.268.1c.642.049.639-.951,0-1l-1.038-.079a3.759,3.759,0,0,1-.834-.091c-.553-.175-.314-.922-.183-1.312.446-1.329.92-2.65,1.379-3.974.212-.609-.754-.871-.964-.266" fill="#2b244a"/>
        <path id="Trazado_210590" data-name="Trazado 210590" d="M189.341,62.476a1.883,1.883,0,0,1,1.958.7,2.441,2.441,0,0,1,.169,2.439.514.514,0,0,0,.179.684.5.5,0,0,0,.684-.179,3.463,3.463,0,0,0-.2-3.493,2.886,2.886,0,0,0-3.055-1.117.5.5,0,0,0,.266.964" fill="#2b244a"/>
        <path id="Trazado_210591" data-name="Trazado 210591" d="M176.955,86.783c3.368,3.022,8.212,4.435,12.667,4.557A19.3,19.3,0,0,0,201.9,87.15a31.411,31.411,0,0,0,5.423-5.847c.39-.512-.478-1.011-.863-.5a32.606,32.606,0,0,1-4.583,5.08,18.532,18.532,0,0,1-5.06,3.074,17.215,17.215,0,0,1-6.285,1.391,21.452,21.452,0,0,1-6.707-.976,16.418,16.418,0,0,1-6.167-3.292c-.478-.429-1.187.276-.707.707" fill="#2b244a"/>
        <path id="Trazado_210592" data-name="Trazado 210592" d="M145.18,101.4s-3.045-8.22-6.879-16.357c-3.526-7.484-8.96-20-12.291-18.371-1.119.548-1.941,2.048-1.128,4.39,1.353,3.9,3.647,11.445,3.647,11.445s-6.37-2.1-6.382,4.606c0,0-4.246-.286-3.05,5.967,0,.022.011.041.015.062a35.956,35.956,0,0,0,3.176,8.365c.72,1.448,5.532,11.415,5.532,11.415Z" fill="#ffa58f"/>
        <path id="Trazado_210593" data-name="Trazado 210593" d="M145.18,101.4l3.675,9.269L128.4,122.3l-2.8-7.825Z" fill="#ffeae0"/>
        <path id="Trazado_210594" data-name="Trazado 210594" d="M136.424,85.883a33.363,33.363,0,0,0-4.976.228c-.8.1-1.6.214-2.387.373a3.352,3.352,0,0,0-1.624.7,1.931,1.931,0,0,0,.286,2.919,12.419,12.419,0,0,0,3.8,1.9q2.623,1.068,5.287,2.031c.606.22.868-.746.266-.964q-2.491-.9-4.949-1.894c-.845-.342-1.7-.673-2.53-1.054a3.6,3.6,0,0,1-1.551-1.162c-.957-1.478,2.128-1.683,2.9-1.791a32.755,32.755,0,0,1,5.484-.295.5.5,0,0,0,0-1" fill="#2b244a"/>
        <path id="Trazado_210595" data-name="Trazado 210595" d="M133,92.761c.066.853.174,2.421-.815,2.824-1.258.514-2.674-1.408-3.417-2.176-2.007-2.078-3.938-4.229-5.98-6.274a.5.5,0,0,0-.707.707c2.412,2.416,4.646,5.007,7.084,7.4.987.967,2.521,2.02,3.85,1.007,1.034-.788,1.077-2.3.985-3.484-.05-.637-1.05-.643-1,0" fill="#2b244a"/>
        <path id="Trazado_210596" data-name="Trazado 210596" d="M127.876,83.248q1.28,1.735,2.562,3.471a.515.515,0,0,0,.684.179.5.5,0,0,0,.18-.684l-2.564-3.471a.514.514,0,0,0-.684-.179.5.5,0,0,0-.178.684" fill="#2b244a"/>
        <path id="Trazado_210597" data-name="Trazado 210597" d="M128.52,94.5A4.2,4.2,0,0,1,127.5,97c-.849.79-2.079.245-2.874-.34a23.225,23.225,0,0,1-1.976-1.8q-1.328-1.238-2.675-2.455c-.477-.43-1.187.275-.708.707q1.541,1.389,3.052,2.807a10.538,10.538,0,0,0,2.708,2.137,2.8,2.8,0,0,0,3.3-.47A5.607,5.607,0,0,0,129.52,94.5c.085-.636-.916-.63-1,0" fill="#2b244a"/>
        <path id="Trazado_210598" data-name="Trazado 210598" d="M246.577,106.349a53.042,53.042,0,0,0-3.03-10.09,25.213,25.213,0,0,0-4.61-7.13c-6.64-7.12-15.73-8.79-24.7-8.79a108.165,108.165,0,0,0-11.45.65,193.99,193.99,0,0,1,4.09,20.99,194.671,194.671,0,0,1,1.78,29.94c-.04,2.07-.14,6.02-.14,6.02h35.9a1.926,1.926,0,0,0,1.81-1.71l2.35-20.06c-.91-4.73-1.78-8.83-2-9.82" fill="#2b244a"/>
        <path id="Trazado_210599" data-name="Trazado 210599" d="M188.978,121.323a184.929,184.929,0,0,1-5.48-24.7q-.93-6.075-1.41-12.19c-.52.12-1.03.25-1.54.38s-1.02.26-1.52.4-1.01.28-1.51.43-.97.29-1.46.45h-.03c-.47.15-.93.3-1.39.46-.98.33-1.93.68-2.86,1.05-.46.18-.91.36-1.35.55-6.53,2.78-8.85,4.44-12.46,10.08-3.74,5.88-5.57,14.63-7.75,25.29-.26,1.27-2.66,13.28-2.87,14.42h47.443c-2.17-5.41-4.163-11.03-5.813-16.62" fill="#2b244a"/>
        <path id="Trazado_210600" data-name="Trazado 210600" d="M148.855,110.668,128.4,122.3l5.692,15.647H159.67Z" fill="#2b244a"/>
        <path id="Trazado_210601" data-name="Trazado 210601" d="M151.32,118.044c2.519,5.5,4.772,11.137,7.16,16.7.422.984.835,1.972,1.28,2.946.268.584,1.13.076.864-.505-2.519-5.5-4.772-11.138-7.16-16.7-.422-.984-.835-1.973-1.281-2.946-.267-.584-1.129-.077-.863.5" fill="#8c75b5"/>
        <path id="Trazado_210602" data-name="Trazado 210602" d="M176.453,86.317c-.642,5.5-1.171,11.019-1.528,16.547-.041.642.959.64,1,0,.357-5.528.886-11.045,1.528-16.547.075-.638-.926-.633-1,0" fill="#8c75b5"/>
        <path id="Trazado_210603" data-name="Trazado 210603" d="M209.16,81.3c2.327,5.127,4.8,10.205,6.676,15.521.213.6,1.179.343.964-.266-1.906-5.4-4.414-10.554-6.776-15.76-.266-.585-1.128-.077-.864.505" fill="#8c75b5"/>
        <path id="Trazado_210604" data-name="Trazado 210604" d="M217.946,99.575c-1.168,10.032-2.719,20.031-4.43,29.983-.433,2.518-.883,5.033-1.367,7.541-.121.629.843.9.965.266,1.927-9.99,3.476-20.066,4.855-30.145.348-2.546.68-5.093.977-7.645.074-.638-.926-.633-1,0" fill="#8c75b5"/>
        <path id="Trazado_210605" data-name="Trazado 210605" d="M174.013,107.118c3.176,8.259,6.665,16.4,10.166,24.529q1.3,3.015,2.62,6.022c.259.587,1.12.079.863-.505q-5.3-12.051-10.276-24.248c-.819-2.015-1.628-4.034-2.409-6.064-.228-.594-1.2-.336-.964.266" fill="#8c75b5"/>
        <path id="Trazado_210606" data-name="Trazado 210606" d="M210.429,99.513l6.022-2.34a.514.514,0,0,0,.349-.615.5.5,0,0,0-.615-.349l-6.022,2.34a.514.514,0,0,0-.349.615.5.5,0,0,0,.615.349" fill="#8c75b5"/>
        <path id="Trazado_210607" data-name="Trazado 210607" d="M175.425,103.363c2-.093,4.009-.175,6.014-.268.64-.03.644-1.03,0-1-2,.093-4.01.175-6.014.268-.641.03-.644,1.03,0,1" fill="#8c75b5"/>
        <path id="Trazado_210608" data-name="Trazado 210608" d="M210.3,99.53l8.149.545c.643.043.64-.957,0-1L210.3,98.53c-.643-.043-.64.957,0,1" fill="#8c75b5"/>
        <path id="Trazado_210609" data-name="Trazado 210609" d="M222.673,116.244c1,5.818,2.246,11.6,3.525,17.366.305,1.374.616,2.747.945,4.116.151.625,1.116.36.965-.266-1.373-5.7-2.555-11.448-3.675-17.2-.278-1.425-.549-2.852-.8-4.283-.109-.633-1.073-.364-.964.266" fill="#8c75b5"/>
        <path id="Trazado_210610" data-name="Trazado 210610" d="M170.717,126.594q1.34,5.478,2.68,10.956c.153.625,1.117.36.964-.266q-1.339-5.478-2.68-10.956c-.153-.625-1.117-.36-.964.266" fill="#8c75b5"/>
        <path id="Trazado_210611" data-name="Trazado 210611" d="M174.748,107.417q3.4-2.307,6.943-4.391a.5.5,0,0,0-.5-.863q-3.54,2.079-6.943,4.391c-.529.359-.029,1.226.505.863" fill="#8c75b5"/>
      </g>
    </g>
  </g>
</svg>
