<svg xmlns="http://www.w3.org/2000/svg" xmlns:xlink="http://www.w3.org/1999/xlink" width="245" height="267" viewBox="0 0 245 267">
  <defs>
    <clipPath id="clip-path">
      <rect id="Rectángulo_339515" data-name="Rectángulo 339515" width="245" height="267" rx="17" transform="translate(-4561 -7032)" fill="#a6bbfd"/>
    </clipPath>
    <clipPath id="clip-path-2">
      <rect id="Rectángulo_339503" data-name="Rectángulo 339503" width="289.8" height="154.503" fill="#c4d1ff"/>
    </clipPath>
    <clipPath id="clip-path-3">
      <rect id="Rectángulo_339514" data-name="Rectángulo 339514" width="250.754" height="249.25" fill="none"/>
    </clipPath>
    <clipPath id="clip-path-4">
      <rect id="Rectángulo_339510" data-name="Rectángulo 339510" width="2.495" height="2.094" fill="none"/>
    </clipPath>
  </defs>
  <g id="Enmascarar_grupo_597" data-name="Enmascarar grupo 597" transform="translate(4561 7032)" clip-path="url(#clip-path)">
    <rect id="Rectángulo_339502" data-name="Rectángulo 339502" width="245" height="267" rx="17" transform="translate(-4561 -7032)" fill="#a6bbfd"/>
    <g id="Grupo_984335" data-name="Grupo 984335" transform="translate(-4502.022 -7043.145) rotate(42)">
      <g id="Grupo_984334" data-name="Grupo 984334" clip-path="url(#clip-path-2)">
        <path id="Trazado_211321" data-name="Trazado 211321" d="M148.667,36.874A77,77,0,0,1,114.326,22.9C99.157,11.909,67.415-6.8,37.134,2.521-4.632,15.372-4.818,52.549,6.061,72.743S94.087,152.076,194.1,142.666c89.5-8.421,106.94-104.8,59.207-122.245-41.4-15.127-55.524,23.416-104.642,16.454" transform="translate(0 0)" fill="#c4d1ff"/>
        <path id="Trazado_211322" data-name="Trazado 211322" d="M10.983,3.891A5.628,5.628,0,1,1,3.891.277a5.628,5.628,0,0,1,7.092,3.614" transform="translate(147.923 22.664)" fill="#c4d1ff"/>
        <path id="Trazado_211323" data-name="Trazado 211323" d="M6.784,3.392A3.392,3.392,0,1,1,3.392,0,3.392,3.392,0,0,1,6.784,3.392" transform="translate(182.544 147.719)" fill="#c4d1ff"/>
        <path id="Trazado_211324" data-name="Trazado 211324" d="M6.619,2.345A3.392,3.392,0,1,1,2.345.167,3.392,3.392,0,0,1,6.619,2.345" transform="translate(161.629 28.169)" fill="#c4d1ff"/>
        <path id="Trazado_211325" data-name="Trazado 211325" d="M6.784,3.392A3.392,3.392,0,1,1,3.392,0,3.392,3.392,0,0,1,6.784,3.392" transform="translate(4.545 85.437)" fill="#c4d1ff"/>
        <path id="Trazado_211326" data-name="Trazado 211326" d="M6.784,3.392A3.392,3.392,0,1,1,3.392,0,3.392,3.392,0,0,1,6.784,3.392" transform="translate(283.016 57.994)" fill="#c4d1ff"/>
      </g>
    </g>
    <g id="Grupo_984342" data-name="Grupo 984342" transform="translate(-4560.563 -7014.483)">
      <g id="Grupo_984341" data-name="Grupo 984341">
        <g id="Grupo_984340" data-name="Grupo 984340">
          <g id="Grupo_984339" data-name="Grupo 984339" clip-path="url(#clip-path-3)">
            <path id="Trazado_211327" data-name="Trazado 211327" d="M157.528,6.846h60V50.239a2.464,2.464,0,0,1-2.464,2.464H159.992a2.464,2.464,0,0,1-2.464-2.464Z" transform="translate(-61.776 -2.717)" fill="#fff"/>
            <path id="Trazado_211328" data-name="Trazado 211328" d="M157.616,3.429V8.591H217.56V3.429A2.511,2.511,0,0,0,215.048.918H160.127a2.511,2.511,0,0,0-2.511,2.511" transform="translate(-61.864 -0.364)" fill="#3b0e09"/>
            <path id="Trazado_211329" data-name="Trazado 211329" d="M235.42,5.784a1.34,1.34,0,1,0,1.341-1.341,1.34,1.34,0,0,0-1.341,1.341" transform="translate(-129.328 -1.763)" fill="#ff4231"/>
            <path id="Trazado_211330" data-name="Trazado 211330" d="M242.624,5.784a1.34,1.34,0,1,0,1.341-1.341,1.34,1.34,0,0,0-1.341,1.341" transform="translate(-140.877 -1.763)" fill="#eaab2c"/>
            <path id="Trazado_211331" data-name="Trazado 211331" d="M249.522,5.784a1.34,1.34,0,1,0,1.341-1.341,1.34,1.34,0,0,0-1.341,1.341" transform="translate(-151.935 -1.763)" fill="#1b6bfe"/>
            <rect id="Rectángulo_339504" data-name="Rectángulo 339504" width="3.26" height="3.26" transform="translate(114.274 13.821)" fill="#ff4231"/>
            <rect id="Rectángulo_339505" data-name="Rectángulo 339505" width="3.26" height="3.26" transform="translate(114.274 19.63)" fill="#1b6bfe"/>
            <path id="Trazado_211332" data-name="Trazado 211332" d="M230.893,33.729h10.82a.922.922,0,1,1,0,1.836h-10.82a.922.922,0,1,1,0-1.836" transform="translate(-130.61 -13.387)" fill="#ffdecb"/>
            <path id="Trazado_211333" data-name="Trazado 211333" d="M230.893,24.1h10.82a.922.922,0,1,1,0,1.836h-10.82a.922.922,0,1,1,0-1.836" transform="translate(-130.61 -9.565)" fill="#ffdecb"/>
            <path id="Trazado_211334" data-name="Trazado 211334" d="M239.093,64.519h0a.918.918,0,0,1-.918.918h-16.28a.918.918,0,1,1,0-1.836h16.28a.918.918,0,0,1,.918.918" transform="translate(-121.61 -25.243)" fill="#ffdecb"/>
            <path id="Trazado_211335" data-name="Trazado 211335" d="M239.064,58.4h0a.917.917,0,0,1-.917.918h-16.28a.918.918,0,1,1,0-1.836h16.28a.917.917,0,0,1,.917.918" transform="translate(-121.564 -22.816)" fill="#ffdecb"/>
            <path id="Trazado_211336" data-name="Trazado 211336" d="M239.036,52.287h0a.918.918,0,0,1-.918.918h-16.28a.918.918,0,1,1,0-1.836h16.28a.918.918,0,0,1,.918.918" transform="translate(-121.518 -20.388)" fill="#ffdecb"/>
            <path id="Trazado_211337" data-name="Trazado 211337" d="M239.008,46.171h0a.918.918,0,0,1-.918.918H221.81a.918.918,0,0,1,0-1.836h16.28a.918.918,0,0,1,.918.918" transform="translate(-121.473 -17.961)" fill="#ffdecb"/>
            <path id="Trazado_211338" data-name="Trazado 211338" d="M169.254,38.532a12.138,12.138,0,1,0,23.336-4.691l-11.2,4.691.575-12.122c-.188-.011-.382-.015-.575-.015a12.138,12.138,0,0,0-12.137,12.137" transform="translate(-44.853 -10.476)" fill="#1b6bfe"/>
            <path id="Trazado_211339" data-name="Trazado 211339" d="M169.571,23.247a12.149,12.149,0,0,1,10.622,7.432L169,35.369Z" transform="translate(-31.361 -9.227)" fill="#ff4231"/>
            <path id="Trazado_211340" data-name="Trazado 211340" d="M229.326,100.486l6.332.022a1.306,1.306,0,0,1,1.3,1.311l-.059,16.97a2.028,2.028,0,0,1-2.035,2.022l-22.2-.077a1.227,1.227,0,0,1-1.223-1.231l.055-15.805a1.063,1.063,0,0,1,1.066-1.059l12.952.045Z" transform="translate(-113.723 -39.883)" fill="#f68407"/>
            <path id="Trazado_211341" data-name="Trazado 211341" d="M211.477,124.792l.038-10.976,25.46.088-.038,10.976a1.227,1.227,0,0,1-1.232,1.223l-23.005-.08a1.227,1.227,0,0,1-1.223-1.231" transform="translate(-113.762 -45.174)" fill="#eaab2c"/>
            <path id="Trazado_211342" data-name="Trazado 211342" d="M236.372,110.589l0,1.223-22.55-.078,0-1.223a1.96,1.96,0,0,1,1.967-1.953l18.63.065a1.959,1.959,0,0,1,1.953,1.966" transform="translate(-114.571 -43.087)" fill="#fff"/>
            <path id="Trazado_211343" data-name="Trazado 211343" d="M246.4,110.972,246.4,112.5l.989,0,.005-1.531a.495.495,0,0,0-.989,0" transform="translate(-145.239 -43.849)" fill="#ffdecb"/>
            <path id="Trazado_211344" data-name="Trazado 211344" d="M242.7,110.985l-.005,1.531.989,0,.005-1.531a.495.495,0,1,0-.989,0" transform="translate(-139.307 -43.855)" fill="#ffdecb"/>
            <path id="Trazado_211345" data-name="Trazado 211345" d="M239,111,239,112.529l.989,0,.005-1.531a.495.495,0,0,0-.989,0" transform="translate(-133.374 -43.86)" fill="#ffdecb"/>
            <path id="Trazado_211346" data-name="Trazado 211346" d="M235.3,111.011l-.005,1.531.989,0,.005-1.531a.495.495,0,0,0-.989,0" transform="translate(-127.441 -43.865)" fill="#ffdecb"/>
            <path id="Trazado_211347" data-name="Trazado 211347" d="M231.6,111.024l-.005,1.531.99,0,0-1.531a.495.495,0,1,0-.989,0" transform="translate(-121.51 -43.87)" fill="#ffdecb"/>
            <path id="Trazado_211348" data-name="Trazado 211348" d="M227.9,111.037l-.005,1.531.989,0,.005-1.531a.495.495,0,1,0-.989,0" transform="translate(-115.577 -43.875)" fill="#ffdecb"/>
            <path id="Trazado_211349" data-name="Trazado 211349" d="M224.2,111.049l-.005,1.531.989,0,.005-1.531a.495.495,0,0,0-.989,0" transform="translate(-109.644 -43.88)" fill="#ffdecb"/>
            <path id="Trazado_211350" data-name="Trazado 211350" d="M220.5,111.062l-.005,1.531.989,0,.005-1.531a.495.495,0,0,0-.989,0" transform="translate(-103.712 -43.885)" fill="#ffdecb"/>
            <path id="Trazado_211351" data-name="Trazado 211351" d="M216.8,111.075l-.005,1.531.989,0,.005-1.531a.495.495,0,1,0-.989,0" transform="translate(-97.779 -43.89)" fill="#ffdecb"/>
            <path id="Trazado_211352" data-name="Trazado 211352" d="M272.574,77.878V2.1a2.1,2.1,0,0,1,2.1-2.1h38.352a2.1,2.1,0,0,1,2.1,2.1V77.878a4.245,4.245,0,0,1-4.245,4.245h-34.06a4.245,4.245,0,0,1-4.245-4.245" transform="translate(-228.758 0)" fill="#fff"/>
            <path id="Trazado_211353" data-name="Trazado 211353" d="M284.948,94.2h28.344a.935.935,0,1,0,0-1.87H284.948a.935.935,0,0,0,0,1.87" transform="translate(-234.76 -36.645)" fill="#ffdecb"/>
            <path id="Trazado_211354" data-name="Trazado 211354" d="M284.948,104.028h28.344a.935.935,0,1,0,0-1.87H284.948a.935.935,0,0,0,0,1.87" transform="translate(-234.76 -40.547)" fill="#ffdecb"/>
            <path id="Trazado_211355" data-name="Trazado 211355" d="M284.948,113.858h28.344a.935.935,0,1,0,0-1.87H284.948a.935.935,0,0,0,0,1.87" transform="translate(-234.76 -44.448)" fill="#ffdecb"/>
            <path id="Trazado_211356" data-name="Trazado 211356" d="M284.948,123.688h28.344a.935.935,0,1,0,0-1.87H284.948a.935.935,0,0,0,0,1.87" transform="translate(-234.76 -48.35)" fill="#ffdecb"/>
            <path id="Trazado_211357" data-name="Trazado 211357" d="M272.574,2.1V7.918h42.549V2.1a2.1,2.1,0,0,0-2.1-2.1H274.673a2.1,2.1,0,0,0-2.1,2.1" transform="translate(-228.758 0)" fill="#3b0e09"/>
            <path id="Trazado_211358" data-name="Trazado 211358" d="M321.454,5.022a1.383,1.383,0,1,0,1.383-1.384,1.383,1.383,0,0,0-1.383,1.384" transform="translate(-267.335 -1.444)" fill="#ff4231"/>
            <path id="Trazado_211359" data-name="Trazado 211359" d="M328.889,5.022a1.383,1.383,0,1,0,1.384-1.384,1.383,1.383,0,0,0-1.384,1.384" transform="translate(-279.254 -1.444)" fill="#eaab2c"/>
            <path id="Trazado_211360" data-name="Trazado 211360" d="M336.007,5.022a1.383,1.383,0,1,0,1.384-1.384,1.384,1.384,0,0,0-1.384,1.384" transform="translate(-290.664 -1.444)" fill="#1b6bfe"/>
            <rect id="Rectángulo_339506" data-name="Rectángulo 339506" width="4.786" height="11.564" transform="translate(73.155 40.35)" fill="#1b6bfe"/>
            <rect id="Rectángulo_339507" data-name="Rectángulo 339507" width="4.786" height="19.776" transform="translate(66.096 32.138)" fill="#ff4231"/>
            <rect id="Rectángulo_339508" data-name="Rectángulo 339508" width="4.786" height="25.836" transform="translate(58.28 26.078)" fill="#4f9d5c"/>
            <rect id="Rectángulo_339509" data-name="Rectángulo 339509" width="4.786" height="32.948" transform="translate(50.623 18.966)" fill="#eaab2c"/>
            <path id="Trazado_211361" data-name="Trazado 211361" d="M320.529,21.293l-3.318,1.218.382-3.883Z" transform="translate(-261.084 -7.393)" fill="#ffdecb"/>
            <path id="Trazado_211362" data-name="Trazado 211362" d="M305.895,43.575a.359.359,0,0,0,.125-.7c-.145-.054-14.545-5.573-21.57-20.4a.359.359,0,1,0-.649.308c7.153,15.1,21.821,20.714,21.968,20.769a.354.354,0,0,0,.125.023" transform="translate(-226.638 -8.839)" fill="#ffdecb"/>
            <path id="Trazado_211363" data-name="Trazado 211363" d="M358.7,69.737a17.212,17.212,0,1,0,17.212-17.212A17.213,17.213,0,0,0,358.7,69.737" transform="translate(-358.697 -20.847)" fill="#ffcdb3"/>
            <path id="Trazado_211364" data-name="Trazado 211364" d="M358.7,66.021a17.212,17.212,0,1,0,17.212-17.212A17.213,17.213,0,0,0,358.7,66.021" transform="translate(-358.697 -19.372)" fill="#1b6bfe"/>
            <path id="Trazado_211365" data-name="Trazado 211365" d="M378.028,82.133A13.993,13.993,0,1,0,364.035,68.14a14.009,14.009,0,0,0,13.993,13.993" transform="translate(-360.816 -21.491)" fill="#fff"/>
            <path id="Trazado_211366" data-name="Trazado 211366" d="M364.035,68.141q0,.559.043,1.105a13.993,13.993,0,0,1,27.9,0q.043-.545.043-1.105a13.993,13.993,0,1,0-27.986,0" transform="translate(-360.816 -21.491)" fill="#ffdecb"/>
            <path id="Trazado_211367" data-name="Trazado 211367" d="M382.489,73.22a.35.35,0,0,1-.281-.141l-6.864-9.242a.35.35,0,1,1,.562-.417l6.7,9.018,7.612-3.341a.35.35,0,0,1,.282.641l-7.868,3.453a.35.35,0,0,1-.141.03" transform="translate(-366.28 -25.115)" fill="#752f00"/>
            <path id="Trazado_211368" data-name="Trazado 211368" d="M0,402.942c0,2.465,55.669,4.465,124.34,4.465s124.34-2,124.34-4.465-55.669-4.465-124.34-4.465S0,400.476,0,402.942" transform="translate(2.073 -158.157)" fill="#6b8dfc"/>
            <path id="Trazado_211369" data-name="Trazado 211369" d="M213.254,139.084a95.433,95.433,0,0,0,3.5,9.366c.692,1.566,1.406,3.121,2.163,4.655s1.565,3.04,2.411,4.521c.2.375.425.739.64,1.107s.426.739.652,1.1c.449.723.888,1.455,1.36,2.163.233.356.46.717.7,1.069l.721,1.052.18.264.027.039a8.7,8.7,0,0,0,1.15.634c.576.273,1.25.544,1.963.8,1.435.514,3.031.978,4.672,1.4s3.344.8,5.067,1.142,3.473.668,5.237.961c3.528.586,7.109,1.095,10.706,1.542q2.7.343,5.408.636l2.707.281,1.349.136,1.317.125-.578,12.23-1.46-.027-1.427-.034c-.949-.028-1.895-.065-2.841-.1q-2.839-.118-5.676-.289c-3.785-.239-7.577-.552-11.392-.992s-7.653-.986-11.589-1.8a62.04,62.04,0,0,1-6.051-1.544c-1.044-.33-2.111-.7-3.234-1.173a22.445,22.445,0,0,1-3.625-1.894,14.76,14.76,0,0,1-2.122-1.678c-.185-.174-.382-.379-.57-.581-.2-.219-.386-.434-.583-.688l-.215-.28-.113-.151-.225-.3-.9-1.207c-.3-.4-.583-.815-.875-1.223-.589-.813-1.14-1.649-1.7-2.478-.282-.415-.545-.84-.819-1.26s-.546-.84-.8-1.268l-.783-1.281c-.258-.428-.5-.864-.757-1.295-.51-.861-.98-1.742-1.466-2.616-.944-1.761-1.848-3.543-2.689-5.352a111.09,111.09,0,0,1-4.219-10.478c4.939-1.719,9.789-3.71,14.792-5.232m12.226,25.247c.018.014.041.03.063.046l-.021-.02a1.181,1.181,0,0,0-.086-.083c-.1-.075-.054-.021.045.057" transform="translate(-134.116 -55.203)" fill="#4f9d5c"/>
            <path id="Trazado_211370" data-name="Trazado 211370" d="M264.808,185.411a.454.454,0,0,1-.451-.735,38.175,38.175,0,0,1,4.046-4.1.454.454,0,0,1,.586.694,38.1,38.1,0,0,0-3.939,3.99.452.452,0,0,1-.242.148" transform="translate(-177.764 -71.63)" fill="#3c7341"/>
            <path id="Trazado_211371" data-name="Trazado 211371" d="M265.208,182.073a.454.454,0,0,1-.241-.874c.017-.005,1.718-.542,3.177-.886a.454.454,0,0,1,.208.884c-1.426.336-3.094.862-3.111.868l-.033.009" transform="translate(-177.558 -71.562)" fill="#3c7341"/>
            <path id="Trazado_211372" data-name="Trazado 211372" d="M210,205.768a.466.466,0,0,1-.13.011.454.454,0,0,1-.427-.479l.832-14.381a.454.454,0,0,1,.906.052l-.832,14.381a.453.453,0,0,1-.349.416" transform="translate(-86.749 -75.606)" fill="#3c7341"/>
            <path id="Trazado_211373" data-name="Trazado 211373" d="M206.3,208.979a.477.477,0,0,1-.138.011l-6.6-.5a.454.454,0,1,1,.068-.905l6.6.5a.454.454,0,0,1,.071.894" transform="translate(-75.992 -82.392)" fill="#3c7341"/>
            <path id="Trazado_211374" data-name="Trazado 211374" d="M205.155,201.953a1.049,1.049,0,1,1-1.393-.51,1.049,1.049,0,0,1,1.393.51" transform="translate(-77.02 -79.914)" fill="#3c7341"/>
            <path id="Trazado_211375" data-name="Trazado 211375" d="M318.469,344.724H264.9a2.269,2.269,0,1,1,0-4.538h53.571a2.269,2.269,0,1,1,0,4.538" transform="translate(-228.374 -135.021)" fill="#f68407"/>
            <path id="Trazado_211376" data-name="Trazado 211376" d="M319.789,354.234a2.27,2.27,0,0,1-2.247-1.969l-9.495-70.894H268.316l-9.347,70.89a2.269,2.269,0,0,1-4.5-.593l9.606-72.862a2.27,2.27,0,0,1,2.25-1.973h43.707a2.269,2.269,0,0,1,2.249,1.968l9.759,72.863a2.272,2.272,0,0,1-2.252,2.57" transform="translate(-224.766 -109.876)" fill="#fab623"/>
            <path id="Trazado_211377" data-name="Trazado 211377" d="M345.76,229.118H317.374c-8.993,0-18.624-4.922-20-13.808a168.594,168.594,0,0,1-1.787-33.952A41.341,41.341,0,0,1,311.257,150.9s5.67,24.711-1.46,58.816c2.723,12.959,35.963,19.4,35.963,19.4" transform="translate(-273.152 -59.892)" fill="#fab623"/>
            <path id="Trazado_211378" data-name="Trazado 211378" d="M231.959,228.262c-3.145-3.1-53.234-15.759-69.71-11.158-1.888,3.633,20.984,18.581,26.887,27.1,21.659,3.54,33.746,10.825,33.746,10.825s7.679,17.747,12.242,24.261,13.26,24.591,13.26,24.591l12.227-5.809s-20.089-61.378-28.651-69.807" transform="translate(-107.641 -85.774)" fill="#b81a2a"/>
            <path id="Trazado_211379" data-name="Trazado 211379" d="M166.723,345.923a.454.454,0,0,1-.18-.87l12.272-5.311a.454.454,0,1,1,.361.833L166.9,345.885a.451.451,0,0,1-.18.037" transform="translate(-28.972 -134.829)" fill="#ff4231"/>
            <path id="Trazado_211380" data-name="Trazado 211380" d="M205.607,317.933a.453.453,0,0,1-.415-.27c-.037-.082-1-2.176-8.046-13.717-7.676-12.573-15.375-30.688-15.452-30.87a.454.454,0,0,1,.836-.354c.077.181,7.75,18.236,15.391,30.751,7.123,11.668,8.064,13.74,8.1,13.822a.454.454,0,0,1-.232.6.449.449,0,0,1-.183.039" transform="translate(-64.865 -108.134)" fill="#ff4231"/>
            <path id="Trazado_211381" data-name="Trazado 211381" d="M152.582,357.356l7.858,11.207,8.447-3.739-6.851-11.959Z" transform="translate(-10.156 -140.053)" fill="#ff8c64"/>
            <path id="Trazado_211382" data-name="Trazado 211382" d="M145.494,375.222l-31.95,14.142a4.878,4.878,0,0,1-1.206-1.589c-1.4-2.614-2.444-7.308-3.225-10.215-.089-.341-.177-.657-.261-.94a10.226,10.226,0,0,0-.4-1.153,1.782,1.782,0,0,1,1.151-2.708c4.637,1.739,6.193-4.636,9.021-4.023,0,0,1.213.253,4.76,1.412s8.527.756,12.88.668c5.618-.117,7.839,1.268,8.705,2.515a2.727,2.727,0,0,1,.523,1.891" transform="translate(39.99 -146.336)" fill="#4f9d5c"/>
            <path id="Trazado_211383" data-name="Trazado 211383" d="M141.352,378.273,109.4,392.415a4.877,4.877,0,0,1-1.206-1.589l32.633-14.444a2.727,2.727,0,0,1,.523,1.891" transform="translate(44.132 -149.387)" fill="#3c7341"/>
            <path id="Trazado_211384" data-name="Trazado 211384" d="M163.389,393.137l-.949.42a7.665,7.665,0,0,0-.547-5.877,9.852,9.852,0,0,0-6.194-4.9c-.089-.341-.177-.657-.261-.94a10.705,10.705,0,0,1,7.2,5.469,8.479,8.479,0,0,1,.752,5.831" transform="translate(-6.596 -151.552)" fill="#3c7341"/>
            <path id="Trazado_211385" data-name="Trazado 211385" d="M141.691,373a.576.576,0,0,1-.586-.982l1.777-1.379a.576.576,0,1,1,.706.909l-1.777,1.379a.559.559,0,0,1-.12.072" transform="translate(21.977 -147.058)" fill="#3c7341"/>
            <path id="Trazado_211386" data-name="Trazado 211386" d="M146.2,371.7a.576.576,0,0,1-.586-.982l1.777-1.379a.576.576,0,1,1,.706.909l-1.776,1.379a.576.576,0,0,1-.121.072" transform="translate(14.751 -146.542)" fill="#3c7341"/>
            <path id="Trazado_211387" data-name="Trazado 211387" d="M137.53,373.454a.576.576,0,0,1-.586-.982l1.777-1.379a.576.576,0,1,1,.706.909l-1.777,1.379a.557.557,0,0,1-.12.072" transform="translate(28.648 -147.24)" fill="#3c7341"/>
            <path id="Trazado_211388" data-name="Trazado 211388" d="M133.4,373.839a.576.576,0,0,1-.586-.982l1.776-1.379a.576.576,0,1,1,.706.91l-1.777,1.379a.571.571,0,0,1-.12.072" transform="translate(35.266 -147.392)" fill="#3c7341"/>
            <path id="Trazado_211389" data-name="Trazado 211389" d="M129.036,373.952a.576.576,0,0,1-.586-.982l1.777-1.379a.576.576,0,1,1,.706.909l-1.777,1.379a.579.579,0,0,1-.12.072" transform="translate(42.265 -147.437)" fill="#3c7341"/>
            <path id="Trazado_211390" data-name="Trazado 211390" d="M124.478,373.678a.576.576,0,0,1-.586-.982l1.777-1.379a.576.576,0,1,1,.706.909l-1.777,1.379a.56.56,0,0,1-.12.072" transform="translate(49.572 -147.329)" fill="#3c7341"/>
            <path id="Trazado_211391" data-name="Trazado 211391" d="M328.323,183.45c.808,8.917-25.831,22.486-31.478,16.585-14.9-15.572-16.939-39-16.482-50.466.056-1.431.018-2.979-.081-4.6-.148-2.384-.426-4.925-.729-7.484-1.138-9.616-2.618-19.471,1.324-22.139,3.538-2.395,7.03-2.087,9.962-3.037a14.951,14.951,0,0,1,5.634-.7l11.1.765s8.041.7,9.979,1.909,3.342,7.086,7.079,12.278,4.885,10.6,2.195,16.836c-2.34,5.422-2.011,3.41-1.7,11.98.38,10.5,2.712,22.662,3.2,28.067" transform="translate(-245.435 -44.286)" fill="#4f9d5c"/>
            <path id="Trazado_211392" data-name="Trazado 211392" d="M279.859,175.612a.3.3,0,0,0,.3-.352l-1.7-9.943a20.2,20.2,0,0,0,3.192-8.774.3.3,0,0,0-.6-.054,19.912,19.912,0,0,1-3.155,8.581.3.3,0,0,0-.051.226l1.72,10.066a.3.3,0,0,0,.3.25" transform="translate(-198.461 -62.002)" fill="#3c7341"/>
            <path id="Trazado_211393" data-name="Trazado 211393" d="M294.482,140.367l1.183,6.925s10.466-1.25,17.427-1.45l-1.637-6.4a137.9,137.9,0,0,0-16.973.92" transform="translate(-239.94 -55.346)" fill="#3c7341"/>
            <path id="Trazado_211394" data-name="Trazado 211394" d="M314.678,131.808a6.823,6.823,0,0,0,2.627,1.369,3.227,3.227,0,0,0,3.361-.8c3.447-3.836-1.647-18.592-1.865-19.218a.39.39,0,0,0-.736.256,74.951,74.951,0,0,1,2.21,7.984c1.152,5.422,1.087,9.037-.188,10.457a2.478,2.478,0,0,1-2.6.564c-6.745-1.573-13.66-21.344-13.728-21.543a.39.39,0,0,0-.736.255c.252.729,5.539,15.832,11.66,20.678" transform="translate(-253.842 -43.903)" fill="#fff"/>
            <path id="Trazado_211395" data-name="Trazado 211395" d="M342.306,217.076a.39.39,0,0,0,.546-.549c-9.969-12.422-13.717-28.761-15.106-40.281a117.371,117.371,0,0,1-.63-22.255.389.389,0,0,0-.776-.072,118.271,118.271,0,0,0,.631,22.421,101.587,101.587,0,0,0,4.546,20.538,65.992,65.992,0,0,0,10.725,20.136.4.4,0,0,0,.062.062" transform="translate(-288.842 -60.95)" fill="#3c7341"/>
            <path id="Trazado_211396" data-name="Trazado 211396" d="M279.285,216.594l.009.007a.389.389,0,0,0,.545-.079,35.354,35.354,0,0,1,15.024-11.6,29.986,29.986,0,0,1,7.922-2.12.39.39,0,0,0-.062-.777,30.256,30.256,0,0,0-8.153,2.175,36.132,36.132,0,0,0-15.355,11.853.39.39,0,0,0,.07.539" transform="translate(-220.737 -80.185)" fill="#3c7341"/>
            <path id="Trazado_211397" data-name="Trazado 211397" d="M289.034,202.373a.389.389,0,0,0,.409.046c.084-.039,8.426-3.961,15.513-3.547A.389.389,0,1,0,305,198.1c-7.291-.426-15.545,3.455-15.893,3.621a.389.389,0,0,0-.185.519.383.383,0,0,0,.11.138" transform="translate(-228.842 -78.612)" fill="#3c7341"/>
            <path id="Trazado_211398" data-name="Trazado 211398" d="M290.408,82.215s-7.357-2.543-8.363-10.494c-.957-7.571,1.163-11.112,3.856-14.728,2.028-2.724,7.665-5.975,14.531-3.5,6.933,2.5,11.732,6.96,11.654,12.952-.147,11.213-11,23.315-21.678,15.766" transform="translate(-231.293 -20.883)" fill="#35252f"/>
            <path id="Trazado_211399" data-name="Trazado 211399" d="M326.036,49.368a9.374,9.374,0,0,0-4.954-9.942c-6.346-3.42-13.05,1.854-13.524,6.923S312.853,58.406,318,55.607a30.1,30.1,0,0,0,8.036-6.239" transform="translate(-260.883 -15.216)" fill="#35252f"/>
            <path id="Trazado_211400" data-name="Trazado 211400" d="M288.367,92.117s2.75-1.581,3.017,1.09-2.236,6.977-4.9,5.164Z" transform="translate(-213.429 -36.377)" fill="#ff6a48"/>
            <path id="Trazado_211401" data-name="Trazado 211401" d="M292.067,98.3a5.827,5.827,0,0,1-1.3.619c-1.754.578-3.866.309-6.14-1.459,0,0-2.469-4.749,3.587-11.275,0,0,4.558-.372,6.577,2.7a5.162,5.162,0,0,1,.567,1.147,5.9,5.9,0,0,1,.231.838c.484,2.4-.97,5.824-3.519,7.426" transform="translate(-216.28 -34.201)" fill="#1b6bfe"/>
            <path id="Trazado_211402" data-name="Trazado 211402" d="M285.965,100.086a5.828,5.828,0,0,1-1.3.619,22.209,22.209,0,0,0,4.024-10.031,5.162,5.162,0,0,1,.567,1.147,22.83,22.83,0,0,1-3.288,8.264" transform="translate(-210.178 -35.989)" fill="#1b48ca"/>
            <path id="Trazado_211403" data-name="Trazado 211403" d="M322.561,103.835l-2.575,7.649s-5.542,3.3-13.391-6.152c2.111-2.86,5.052-6.494,5.165-9.176a12.882,12.882,0,0,1,1.561,1.648,6.981,6.981,0,0,0,.665.626c2.1,1.929,5.361,4.518,8.575,5.4" transform="translate(-256.713 -38.165)" fill="#ff8c64"/>
            <path id="Trazado_211404" data-name="Trazado 211404" d="M315.835,104.919l-.94,2.984c-2.471-1.569-6.773-4.779-8.3-9.015.206.2.428.408.665.626,2.1,1.929,5.361,4.518,8.575,5.4" transform="translate(-249.988 -39.249)" fill="#35252f"/>
            <path id="Trazado_211405" data-name="Trazado 211405" d="M307.011,81.653q-.355.975-.681,1.835c-1.637,4.316-2.8,6.588-4.23,7.291-7.247,3.552-16.606-7.193-16.907-7.539a.025.025,0,0,0-.007-.01c.068-.528.147-1.048.232-1.558a40.666,40.666,0,0,1,3.742-11.552,9.192,9.192,0,0,1,8.709-6.569c4.169-.01,6.887,2.8,8.651,4.129,2.662,2.006,3.148,6.559,1.174,12.082q-.356.993-.683,1.89" transform="translate(-230.142 -25.224)" fill="#ff8c64"/>
            <path id="Trazado_211406" data-name="Trazado 211406" d="M298.54,96.187a4.441,4.441,0,0,0,2.769-.01.289.289,0,0,0-.172-.551c-3.725,1.165-5.817-3.218-5.839-3.262a.289.289,0,1,0-.523.244,7.45,7.45,0,0,0,3.765,3.579" transform="translate(-228.519 -36.593)" fill="#35252f"/>
            <path id="Trazado_211407" data-name="Trazado 211407" d="M301.709,76.9a.832.832,0,0,1,.309,1.368c-.747.865-2.544-1.034-4.784.247,0,0,.2-2.649,4.476-1.616" transform="translate(-230.792 -30.425)" fill="#35252f"/>
            <path id="Trazado_211408" data-name="Trazado 211408" d="M308.146,88.438c-.185.511-1.387.545-2.684.077s-2.2-1.263-2.016-1.774,1.387-.545,2.684-.076,2.2,1.263,2.016,1.774" transform="translate(-240.408 -34.266)" fill="#ff6a48"/>
            <g id="Grupo_984338" data-name="Grupo 984338" transform="translate(74.374 56.171)" opacity="0.8">
              <g id="Grupo_984337" data-name="Grupo 984337" transform="translate(0)">
                <g id="Grupo_984336" data-name="Grupo 984336" transform="translate(0)" clip-path="url(#clip-path-4)">
                  <path id="Trazado_211409" data-name="Trazado 211409" d="M290.815,93.4q-.355.975-.681,1.835c-1.176-.474-1.963-1.206-1.79-1.686S289.6,93,290.815,93.4" transform="translate(-288.32 -93.137)" fill="#ff6a48"/>
                </g>
              </g>
            </g>
            <path id="Trazado_211410" data-name="Trazado 211410" d="M302.465,84.1c-.253.7-.777,1.156-1.17,1.014s-.505-.826-.252-1.527.777-1.156,1.17-1.014.505.825.252,1.527" transform="translate(-233.323 -32.764)" fill="#35252f"/>
            <path id="Trazado_211411" data-name="Trazado 211411" d="M290.955,88.259c-.253.7-.777,1.156-1.17,1.014s-.5-.826-.252-1.527.777-1.156,1.17-1.014.505.825.252,1.527" transform="translate(-214.871 -34.414)" fill="#35252f"/>
            <path id="Trazado_211412" data-name="Trazado 211412" d="M296.015,89.566a2.752,2.752,0,0,0,.6.15.307.307,0,0,0,.337-.3l.037-3.446a.307.307,0,1,0-.614-.007l-.033,3.068a2.416,2.416,0,0,1-1.09-.681.307.307,0,0,0-.458.41,3,3,0,0,0,1.216.809" transform="translate(-223.985 -33.997)" fill="#35252f"/>
            <path id="Trazado_211413" data-name="Trazado 211413" d="M322.323,92.844c-.062.066-1.757,1.873-3.311,2.022h0l0-.009q.1-.792.232-1.559a5.7,5.7,0,0,0,3.087-.454" transform="translate(-263.96 -36.85)" fill="#35252f"/>
            <path id="Trazado_211414" data-name="Trazado 211414" d="M324.23,81.922s-1.444-4.782-4.57-2.563c-2.575,1.829-1.669,9.344,2.47,8.376Z" transform="translate(-265.393 -31.265)" fill="#ff8c64"/>
            <path id="Trazado_211415" data-name="Trazado 211415" d="M322.4,87.708l.033.01a.306.306,0,0,0,.37-.226,5.743,5.743,0,0,0-1.588-5.5.307.307,0,0,0-.408.459,5.127,5.127,0,0,1,1.4,4.9.307.307,0,0,0,.194.361" transform="translate(-265.635 -32.511)" fill="#35252f"/>
            <path id="Trazado_211416" data-name="Trazado 211416" d="M321.3,86.482a.3.3,0,0,0,.2,0,2.406,2.406,0,0,1,1.718-.031.307.307,0,1,0,.345-.508A2.957,2.957,0,0,0,321.3,85.9a.307.307,0,0,0,0,.578" transform="translate(-266.594 -34.008)" fill="#35252f"/>
            <path id="Trazado_211417" data-name="Trazado 211417" d="M280.483,63.856s2.576,4.89,4.505,4.608.464-4.4.464-4.4S290.03,69.2,292.573,69s-.417-4.275-.417-4.275,2.947,5.433,5.5,6.1,1.209-3.347,1.209-3.347.682,5.19,2.31,5.352,1.891-6.837-2.283-10.76-16.9-8.083-18.412,1.792" transform="translate(-220.685 -22.92)" fill="#35252f"/>
            <path id="Trazado_211418" data-name="Trazado 211418" d="M317.286,70.417s-1.63,8.468-3.661,7.776-2.938-4.546.787-10.318Z" transform="translate(-254.613 -26.94)" fill="#35252f"/>
            <path id="Trazado_211419" data-name="Trazado 211419" d="M286.588,80s-1.134-.287-1.112.855,2.619.83,3.523,3.247c0,0,1.538-2.166-2.411-4.1" transform="translate(-210.708 -31.741)" fill="#35252f"/>
            <path id="Trazado_211420" data-name="Trazado 211420" d="M284.6,91.8l-3.8-1.225-.188.522.008,0,3.815,1.229a.277.277,0,0,0,.349-.179.27.27,0,0,0-.178-.349" transform="translate(-203.272 -35.947)" fill="#fff"/>
            <path id="Trazado_211421" data-name="Trazado 211421" d="M305.472,82.433s0,.008,0,.012a4.682,4.682,0,0,1-8.807-3.181,4.377,4.377,0,0,1,.2-.46,4.014,4.014,0,0,1,.273-.485,4.69,4.69,0,0,1,5.526-1.868.4.4,0,0,1,.044.017,4.64,4.64,0,0,1,2.184,1.683,4.692,4.692,0,0,1,.862,2.812,4.255,4.255,0,0,1-.047.564,4.7,4.7,0,0,1-.226.905m-.526-.175a4.127,4.127,0,0,0-7.482-3.42.228.228,0,0,1-.019.035,4.176,4.176,0,0,0-.263.581,4.132,4.132,0,0,0,2.416,5.258c.022.01.043.017.065.025a4.13,4.13,0,0,0,5.283-2.479" transform="translate(-233.738 -30.233)" fill="#fff"/>
            <path id="Trazado_211422" data-name="Trazado 211422" d="M288.22,88.673a4.692,4.692,0,0,1-4.467,3.091c-.069,0-.14,0-.211-.009a4.64,4.64,0,0,1-1.317-.269c-.043-.016-.086-.031-.126-.05-.084-.03-.167-.066-.248-.1a4.641,4.641,0,0,1-1.4-.99,4.688,4.688,0,0,1-1.043-4.85,4.576,4.576,0,0,1,.342-.738.211.211,0,0,1,.014-.028,4.331,4.331,0,0,1,.341-.5,4.694,4.694,0,0,1,3.881-1.818,4.676,4.676,0,0,1,1.414.275c.115.042.226.087.335.137a4.557,4.557,0,0,1,.459.236c.125.075.244.153.36.238a4.692,4.692,0,0,1,1.659,5.384m-1.835-4.822a3.487,3.487,0,0,0-.341-.242,3.88,3.88,0,0,0-.466-.259c-.116-.055-.237-.1-.361-.15a4.2,4.2,0,0,0-.516-.15c-.1-.021-.2-.039-.3-.054a4.148,4.148,0,0,0-4.059,1.85,4.164,4.164,0,0,0-.412.835,4.118,4.118,0,0,0,.535,3.813,2.792,2.792,0,0,0,.176.226,4.09,4.09,0,0,0,1.579,1.172c.024.008.048.018.072.028l.118.045a4.114,4.114,0,0,0,1.316.243c.06,0,.119,0,.18,0a4.116,4.116,0,0,0,.616-.06,4.211,4.211,0,0,0,.94-.285,4.111,4.111,0,0,0,1.963-1.786,3.236,3.236,0,0,0,.17-.343c.037-.081.07-.165.1-.25a4.135,4.135,0,0,0-1.314-4.632" transform="translate(-206.089 -32.705)" fill="#fff"/>
            <path id="Trazado_211423" data-name="Trazado 211423" d="M310.256,78.753a.288.288,0,0,1-.087-.051.277.277,0,0,1-.029-.391c2.256-2.614,6.313.607,6.353.64a.277.277,0,0,1-.348.431c-.037-.03-3.68-2.918-5.585-.709a.277.277,0,0,1-.3.08" transform="translate(-252.846 -30.676)" fill="#fff"/>
            <path id="Trazado_211424" data-name="Trazado 211424" d="M294.967,85.587a.278.278,0,0,1-.157-.145c-.458-.994-1.778-.767-1.791-.765a.277.277,0,0,1-.1-.545,2.2,2.2,0,0,1,2.394,1.078.277.277,0,0,1-.346.377" transform="translate(-221.106 -33.378)" fill="#fff"/>
            <path id="Trazado_211425" data-name="Trazado 211425" d="M323.459,87.35a6.854,6.854,0,0,1-5.222-1.531,5.68,5.68,0,0,1-.512-.533c-2.322-2.766-1.683-7.534.4-9.558a5.4,5.4,0,0,1,2.291-1.368,4.828,4.828,0,0,1,.706-.153c2.983-.422,5.74,1.811,5.74,1.811,1.315,8.805-3.4,11.332-3.4,11.332" transform="translate(-267.07 -29.432)" fill="#1b6bfe"/>
            <path id="Trazado_211426" data-name="Trazado 211426" d="M326.46,85.854a5.67,5.67,0,0,1-.512-.533A16.051,16.051,0,0,0,328.639,74.4a4.647,4.647,0,0,1,.706-.153,16.832,16.832,0,0,1-2.885,11.611" transform="translate(-275.291 -29.467)" fill="#1b48ca"/>
            <path id="Trazado_211427" data-name="Trazado 211427" d="M305.13,63.994a11.473,11.473,0,0,0-.78-3.766,9.217,9.217,0,0,0-5.92-5.255,10.719,10.719,0,0,0-8.69.417,12.008,12.008,0,0,0-2.256,1.532,16.7,16.7,0,0,0-2.526,2.736,25.954,25.954,0,0,0-3.654,7.174l-.869-.255c.1-.356,2.627-8.749,8.888-11.991a11.6,11.6,0,0,1,9.4-.471,10.082,10.082,0,0,1,6.468,5.775,14.526,14.526,0,0,1,.747,7.085,12.186,12.186,0,0,0-.806-2.982" transform="translate(-224.44 -21.175)" fill="#fff"/>
            <path id="Trazado_211428" data-name="Trazado 211428" d="M284.616,82.494a.519.519,0,0,0,.181-.013,31.526,31.526,0,0,1-1.982,5.248l-.807-.41a31.3,31.3,0,0,0,1.934-5.205,1.092,1.092,0,0,0,.674.381" transform="translate(-204.123 -32.591)" fill="#fff"/>
            <path id="Trazado_211429" data-name="Trazado 211429" d="M224.3,216.108s-17.771,34.431,29.094,37.169c21.151,1.236,31.256-2.045,31.256-2.045s.51,18.708,1.5,26.6,3.919,21.965,3.919,21.965h12.679s5.08-57.672-5.147-63.979-27.96-11.042-53.206-13.465c-6.629-1.046-18.507-4.059-20.09-6.246" transform="translate(-186.539 -85.774)" fill="#ff4231"/>
            <path id="Trazado_211430" data-name="Trazado 211430" d="M308.073,293.373a.454.454,0,0,1-.444-.364c-1.829-9.053-2.443-20.321-2.936-29.376-.409-7.507-.8-14.6-1.76-15.451-.781-.691-4.025-.152-8.131.53-8.168,1.356-20.511,3.405-34.123.238-7.414-1.725-12.865-5.327-16.2-10.7-5.752-9.275-3.129-20.774-3.1-20.888a.454.454,0,1,1,.883.208c-.026.112-2.561,11.259,3,20.208,3.2,5.162,8.463,8.626,15.632,10.293,13.436,3.126,25.672,1.1,33.769-.249,4.849-.8,7.776-1.291,8.881-.315,1.193,1.055,1.529,6.24,2.065,16.082.492,9.025,1.1,20.257,2.92,29.245a.454.454,0,0,1-.355.535.462.462,0,0,1-.09.009" transform="translate(-202.971 -86.13)" fill="#b81a2a"/>
            <path id="Trazado_211431" data-name="Trazado 211431" d="M236.49,343.228h-.01l-14.1-.3a.454.454,0,0,1-.444-.463.449.449,0,0,1,.464-.444l14.1.3a.454.454,0,0,1-.01.908" transform="translate(-120.039 -135.748)" fill="#b81a2a"/>
            <path id="Trazado_211432" data-name="Trazado 211432" d="M223.672,354.874l2.668,16.243h8.949l-.5-16.243Z" transform="translate(-119.43 -140.851)" fill="#ff8c64"/>
            <path id="Trazado_211433" data-name="Trazado 211433" d="M220.824,394.3H186.976a4.719,4.719,0,0,1-.445-1.88c-.212-2.863.7-7.433,1.148-10.314.054-.337.1-.651.137-.935a9.869,9.869,0,0,0,.1-1.177A1.727,1.727,0,0,1,190,378.051c3.425,3.359,7.3-1.678,9.568-.026,0,0,.975.7,3.663,3.117s7.257,4.014,11.148,5.641c5.023,2.1,6.447,4.2,6.725,5.641a2.644,2.644,0,0,1-.278,1.88" transform="translate(-82.881 -149.903)" fill="#4f9d5c"/>
            <path id="Trazado_211434" data-name="Trazado 211434" d="M220.793,404.007H186.944a4.719,4.719,0,0,1-.445-1.88h34.571a2.644,2.644,0,0,1-.278,1.88" transform="translate(-82.85 -159.605)" fill="#3c7341"/>
            <path id="Trazado_211435" data-name="Trazado 211435" d="M237.5,396.6h-1.005a7.429,7.429,0,0,0,1.82-5.42,9.546,9.546,0,0,0-3.564-6.773c.054-.337.1-.651.137-.935a10.369,10.369,0,0,1,4.233,7.668,8.214,8.214,0,0,1-1.62,5.46" transform="translate(-129.948 -152.203)" fill="#3c7341"/>
            <path id="Trazado_211436" data-name="Trazado 211436" d="M213.305,385.65a.558.558,0,0,1-.134-1.1l2.114-.525a.558.558,0,1,1,.268,1.083l-2.114.525a.55.55,0,0,1-.135.017" transform="translate(-93.531 -152.414)" fill="#3c7341"/>
            <path id="Trazado_211437" data-name="Trazado 211437" d="M216.789,382.732a.558.558,0,0,1-.134-1.1l2.114-.525a.558.558,0,0,1,.268,1.083l-2.114.525a.54.54,0,0,1-.134.017" transform="translate(-99.116 -151.256)" fill="#3c7341"/>
            <path id="Trazado_211438" data-name="Trazado 211438" d="M209.8,387.688a.558.558,0,0,1-.134-1.1l2.114-.525a.558.558,0,0,1,.268,1.083l-2.114.525a.541.541,0,0,1-.134.017" transform="translate(-87.911 -153.223)" fill="#3c7341"/>
            <path id="Trazado_211439" data-name="Trazado 211439" d="M206.293,389.647a.558.558,0,0,1-.134-1.1l2.114-.525a.558.558,0,0,1,.269,1.083l-2.114.525a.548.548,0,0,1-.135.017" transform="translate(-82.29 -154.001)" fill="#3c7341"/>
            <path id="Trazado_211440" data-name="Trazado 211440" d="M202.47,391.459a.558.558,0,0,1-.134-1.1l2.114-.525a.558.558,0,1,1,.268,1.083l-2.114.525a.54.54,0,0,1-.134.017" transform="translate(-76.162 -154.72)" fill="#3c7341"/>
            <path id="Trazado_211441" data-name="Trazado 211441" d="M198.325,393a.558.558,0,0,1-.134-1.1l2.114-.525a.558.558,0,0,1,.269,1.083l-2.115.525a.54.54,0,0,1-.135.017" transform="translate(-69.517 -155.333)" fill="#3c7341"/>
            <path id="Trazado_211442" data-name="Trazado 211442" d="M223.856,192.519s9.931-3.663,14.206-2.178l.38,7.325s-6.066.242-7.506,1.166-1.2,3.877-7.062,4.692Z" transform="translate(-122.695 -75.406)" fill="#ff8c64"/>
            <path id="Trazado_211443" data-name="Trazado 211443" d="M263.632,124.935l-.032.4-.035.564c-.02.387-.035.788-.045,1.193-.023.81-.028,1.638-.013,2.468.028,1.663.133,3.34.305,5.007a57,57,0,0,0,1.811,9.831c.219.8.464,1.586.719,2.368s.526,1.558.819,2.322.6,1.522.931,2.266.678,1.479,1.043,2.2.751,1.434,1.148,2.138.823,1.389,1.264,2.062.9,1.337,1.378,1.981c.236.326.482.642.73.959l.092.119.037.048-.042-.047a2.013,2.013,0,0,0-.15-.149.623.623,0,0,0-.142-.108c-.023-.008.055.066.214.159a6.4,6.4,0,0,0,.631.33,17.175,17.175,0,0,0,1.886.715,46.383,46.383,0,0,0,4.75,1.2c3.382.687,6.98,1.168,10.607,1.572s7.319.7,11.02.941q2.775.189,5.561.324l2.781.124,1.386.057,1.353.048.148,12.242-1.492.062-1.459.051c-.97.028-1.94.048-2.908.065q-2.906.051-5.814.045c-3.88-.019-7.772-.115-11.7-.343s-7.882-.572-11.972-1.2a56.838,56.838,0,0,1-6.339-1.329,31.766,31.766,0,0,1-3.479-1.167c-.616-.251-1.256-.539-1.935-.9a16.067,16.067,0,0,1-2.18-1.371,13.576,13.576,0,0,1-1.216-1.038c-.213-.21-.421-.419-.637-.667l-.159-.181-.075-.089-.132-.157c-.353-.417-.705-.836-1.044-1.264-.688-.85-1.342-1.726-1.976-2.614s-1.236-1.8-1.819-2.719-1.135-1.858-1.656-2.811a62.4,62.4,0,0,1-5-11.9,72.532,72.532,0,0,1-2.6-12.464c-.24-2.1-.394-4.213-.454-6.342-.031-1.065-.037-2.134-.016-3.22.013-.543.033-1.09.063-1.649.015-.28.032-.563.053-.856l.034-.451.021-.242.033-.322Z" transform="translate(-212.432 -48.897)" fill="#4f9d5c"/>
            <path id="Trazado_211444" data-name="Trazado 211444" d="M312.989,189.361a.454.454,0,0,1-.509-.7,46.154,46.154,0,0,1,4.762-5.177.454.454,0,1,1,.617.666,46.085,46.085,0,0,0-4.652,5.056.454.454,0,0,1-.218.157" transform="translate(-255.652 -72.776)" fill="#3c7341"/>
            <path id="Trazado_211445" data-name="Trazado 211445" d="M313.31,186.182a.454.454,0,0,1-.332-.844c.1-.043,2.346-1.056,4.147-1.651a.455.455,0,0,1,.573.29.46.46,0,0,1-.29.573c-1.753.578-4.034,1.6-4.056,1.615a.4.4,0,0,1-.042.017" transform="translate(-255.561 -72.897)" fill="#3c7341"/>
            <path id="Trazado_211446" data-name="Trazado 211446" d="M305.327,169.278a.456.456,0,0,1-.195.021c-17.246-1.909-29.092-5.169-29.728-5.635a.447.447,0,0,1-.125-.141c-.51-.892-12.477-21.961-12.391-31.11a.454.454,0,0,1,.908.008c-.081,8.56,11.222,28.792,12.2,30.533,1.257.52,12.771,3.62,29.232,5.442a.454.454,0,0,1,.1.881" transform="translate(-213.429 -52.377)" fill="#3c7341"/>
            <path id="Trazado_211447" data-name="Trazado 211447" d="M329.675,137.5a.453.453,0,0,1-.554-.627l1.218-2.522a.454.454,0,1,1,.817.394l-1.218,2.522a.452.452,0,0,1-.264.233" transform="translate(-278.913 -53.222)" fill="#3c7341"/>
            <path id="Trazado_211448" data-name="Trazado 211448" d="M259.662,206.635a.458.458,0,0,1-.145.024.453.453,0,0,1-.454-.453l-.019-11.969a.454.454,0,0,1,.908,0l.019,11.97a.455.455,0,0,1-.309.431" transform="translate(-165.445 -76.913)" fill="#3c7341"/>
            <path id="Trazado_211449" data-name="Trazado 211449" d="M254.942,209.711a.44.44,0,0,1-.153.024l-6.618-.1a.454.454,0,0,1,.014-.908l6.618.1a.454.454,0,0,1,.138.884" transform="translate(-153.899 -82.843)" fill="#3c7341"/>
            <path id="Trazado_211450" data-name="Trazado 211450" d="M254.065,202.69a1.048,1.048,0,1,1-1.42-.426,1.048,1.048,0,0,1,1.42.426" transform="translate(-155.473 -80.229)" fill="#3c7341"/>
            <path id="Trazado_211451" data-name="Trazado 211451" d="M235.715,207.733H166.533a.279.279,0,0,1-.279-.279,3.888,3.888,0,0,1,3.889-3.888h65.572a.279.279,0,0,1,.279.279v3.609a.279.279,0,0,1-.279.279" transform="translate(-85.508 -80.796)" fill="#57392a"/>
            <path id="Trazado_211452" data-name="Trazado 211452" d="M194.406,145.348l-8.635,36.521a2.157,2.157,0,0,1-2.1,1.66H130.479a2.157,2.157,0,0,1-2.1-2.652l8.635-36.521a2.157,2.157,0,0,1,2.1-1.66h53.193a2.157,2.157,0,0,1,2.1,2.653" transform="translate(-21.1 -56.636)" fill="#3b0e09"/>
            <path id="Trazado_211453" data-name="Trazado 211453" d="M143.108,170.1c.052,2.467,4.233,5.558,4.233,5.558s4.856-3.09,5.445-5.558c.64-2.675-2.415-3.5-4.678-1.479-1.822-2.017-5.057-1.2-5,1.479" transform="translate(11.575 -66.478)" fill="#ff4231"/>
            <path id="Trazado_211454" data-name="Trazado 211454" d="M156.649,193.465l.189-2.119h-1.688l.41-1.935h-2.232l-.41,1.936h-1.381l.41-1.936h-2.232l-.41,1.936h-1.953l-.188,2.12h1.687l-.367,1.78h-1.953l-.188,2.119h1.688l-.409,1.936h2.232l.41-1.936h1.381l-.409,1.936h2.232l.41-1.935h1.953l.189-2.119h-1.688l.368-1.78Zm-4.553,1.779h-1.381l.368-1.78h1.381Z" transform="translate(5.659 -75.176)" fill="#fab623"/>
            <path id="Trazado_211455" data-name="Trazado 211455" d="M229.506,142.695l-9.194,40.834h-1.549a2.157,2.157,0,0,1-2.1-2.652l8.635-36.521a2.157,2.157,0,0,1,2.1-1.66Z" transform="translate(-109.386 -56.636)" fill="#57392a"/>
            <path id="Trazado_211456" data-name="Trazado 211456" d="M180.065,176.257a4.687,4.687,0,0,1-4.529,4.043,3.512,3.512,0,0,1-3.558-4.043,4.687,4.687,0,0,1,4.528-4.043,3.513,3.513,0,0,1,3.558,4.043" transform="translate(-33.043 -68.352)" fill="#57392a"/>
            <path id="Trazado_211457" data-name="Trazado 211457" d="M261.118,213.345v2.81a2.99,2.99,0,0,1-3.05,2.928H45.931a2.99,2.99,0,0,1-3.048-2.928v-2.81a2.989,2.989,0,0,1,3.048-2.926H258.069a2.989,2.989,0,0,1,3.05,2.926" transform="translate(-36.227 -83.516)" fill="#954f1b"/>
            <path id="Trazado_211458" data-name="Trazado 211458" d="M247.389,231.988H56.8a6.024,6.024,0,0,1-6.024-6.024V224.73H253.414v1.234a6.024,6.024,0,0,1-6.025,6.024" transform="translate(-33.281 -89.196)" fill="#752f00"/>
            <rect id="Rectángulo_339511" data-name="Rectángulo 339511" width="191.992" height="4.976" transform="translate(24.252 178.625)" fill="#752f00"/>
            <path id="Trazado_211459" data-name="Trazado 211459" d="M358.522,339.261l24.72-102.5h-8.682l-24.72,102.5Z" transform="translate(-343.477 -93.973)" fill="#954f1b"/>
            <path id="Trazado_211460" data-name="Trazado 211460" d="M54.248,339.261l-24.72-102.5h8.682l24.72,102.5Z" transform="translate(170.016 -93.973)" fill="#954f1b"/>
            <rect id="Rectángulo_339512" data-name="Rectángulo 339512" width="218.235" height="1.286" transform="translate(6.656 131.235)" fill="#752f00"/>
            <path id="Trazado_211461" data-name="Trazado 211461" d="M109.363,149.641a1.131,1.131,0,0,0,1.109-.915l13.062-67.064a1.131,1.131,0,0,0-.435-1.124L92.944,58.119a1.129,1.129,0,0,0-1.015-.171l-26.662,8.42a1.131,1.131,0,1,0,.682,2.156l26.11-8.244,29.119,21.649-12.926,66.365a1.131,1.131,0,0,0,.894,1.326,1.119,1.119,0,0,0,.218.021" transform="translate(88.313 -22.979)" fill="#fab623"/>
            <path id="Trazado_211462" data-name="Trazado 211462" d="M90.651,205.179s-2.336-7.962-10.28-7.962-10.584,7.962-10.584,7.962Z" transform="translate(118.014 -78.276)" fill="#1b6bfe"/>
            <path id="Trazado_211463" data-name="Trazado 211463" d="M173.68,97.64l-.083-.988-.125-1.5-1.507-17.98.288-1.092A6.69,6.69,0,0,0,159.6,71.833l-.428,1.045L146.935,86.541l-1.016,1.134-.454.508c-1.517,4.523,26.7,13.98,28.215,9.457" transform="translate(-10.62 -26.863)" fill="#1b6bfe"/>
            <path id="Trazado_211464" data-name="Trazado 211464" d="M145.543,100.088c3.965,2.894,10.982,5.357,12.9,6,1.953.654,9.266,2.988,14.18,2.988q.3,0,.6-.012l-.125-1.5a19.158,19.158,0,0,1-2.708-.139,59.216,59.216,0,0,1-11.465-2.762,59.225,59.225,0,0,1-10.814-4.706c-.6-.351-1.11-.684-1.551-1Z" transform="translate(-10.245 -39.275)" fill="#1b48ca"/>
            <path id="Trazado_211465" data-name="Trazado 211465" d="M59.905,95.622a4.713,4.713,0,1,0,4.713-4.713,4.713,4.713,0,0,0-4.713,4.713" transform="translate(145.294 -36.082)" fill="#1b6bfe"/>
            <path id="Trazado_211466" data-name="Trazado 211466" d="M66.007,99.612a2.6,2.6,0,1,0-2.6-2.6,2.606,2.606,0,0,0,2.6,2.6" transform="translate(143.905 -37.471)" fill="#1b48ca"/>
            <path id="Trazado_211467" data-name="Trazado 211467" d="M108.4,56.669a4.713,4.713,0,1,0,4.713-4.713,4.713,4.713,0,0,0-4.713,4.713" transform="translate(67.544 -20.621)" fill="#1b6bfe"/>
            <path id="Trazado_211468" data-name="Trazado 211468" d="M114.507,60.66a2.6,2.6,0,1,0-2.6-2.6,2.605,2.605,0,0,0,2.6,2.6" transform="translate(66.155 -22.011)" fill="#1b48ca"/>
            <path id="Trazado_211469" data-name="Trazado 211469" d="M378.722,173.034a.289.289,0,0,0,.289-.289V153.853a.289.289,0,1,0-.578,0v18.892a.289.289,0,0,0,.289.289" transform="translate(-356.489 -60.95)" fill="#1b48ca"/>
            <path id="Trazado_211470" data-name="Trazado 211470" d="M365.539,184.669l.306,1.133.059.217.274,1.024.059.217.267.987.347,1.286,1.706,6.322.348,1.286.074.276.059.219.276,1.023.059.217.356,1.323h7.754l.358-1.323.057-.217.276-1.023.059-.219.074-.276.349-1.286,1.7-6.322.347-1.286.267-.987.058-.217.274-1.024.06-.217.3-1.133Z" transform="translate(-351.372 -73.295)" fill="#ff4231"/>
            <path id="Trazado_211471" data-name="Trazado 211471" d="M367.139,190.6l.347,1.286h13.508l.347-1.286Z" transform="translate(-352.007 -75.65)" fill="#b81a2a"/>
            <path id="Trazado_211472" data-name="Trazado 211472" d="M370.542,203.216l.348,1.286h9.4l.348-1.286Z" transform="translate(-353.357 -80.657)" fill="#b81a2a"/>
            <path id="Trazado_211473" data-name="Trazado 211473" d="M388.087,156.208a.831.831,0,0,0,.876-.326.8.8,0,0,0,.137-.308.757.757,0,0,0,.019-.179.833.833,0,0,0-.192-.533c-1.105-1.338-6.7-7.81-9.323-5.1-3.169,3.269,5.425,5.707,8.483,6.45" transform="translate(-366.887 -59.179)" fill="#1b6bfe"/>
            <path id="Trazado_211474" data-name="Trazado 211474" d="M379.028,154.423l5.825,3.447a.806.806,0,0,0,.138-.308l-5.79-3.427a.168.168,0,1,0-.172.289" transform="translate(-362.777 -61.167)" fill="#1b48ca"/>
            <path id="Trazado_211475" data-name="Trazado 211475" d="M361.99,160.7a.793.793,0,0,0,.019.179.838.838,0,0,0,1.015.634c3.057-.744,11.651-3.18,8.481-6.45-2.621-2.706-8.216,3.765-9.323,5.1a.839.839,0,0,0-.192.534" transform="translate(-339.757 -61.287)" fill="#1b6bfe"/>
            <path id="Trazado_211476" data-name="Trazado 211476" d="M368.857,162.871a.837.837,0,0,0,.138.308l5.826-3.446a.168.168,0,0,0-.172-.29Z" transform="translate(-346.605 -63.274)" fill="#1b48ca"/>
            <path id="Trazado_211477" data-name="Trazado 211477" d="M372.229,147.206a.845.845,0,0,0,.253.508.911.911,0,0,0,.142.109.813.813,0,0,0,.32.113.836.836,0,0,0,.84-.41c1.57-2.725,5.732-10.628,1.179-10.59-3.768.033-2.941,8.547-2.735,10.27" transform="translate(-350.633 -54.35)" fill="#1b6bfe"/>
            <path id="Trazado_211478" data-name="Trazado 211478" d="M376.253,150.588a.822.822,0,0,0,.32.113l1.522-6.6a.168.168,0,1,0-.327-.074Z" transform="translate(-354.262 -57.114)" fill="#1b48ca"/>
            <path id="Trazado_211479" data-name="Trazado 211479" d="M388.087,167.6a.831.831,0,0,0,.876-.326.8.8,0,0,0,.137-.308.756.756,0,0,0,.019-.179.836.836,0,0,0-.192-.533c-1.105-1.338-6.7-7.809-9.323-5.1-3.169,3.271,5.425,5.706,8.483,6.45" transform="translate(-366.887 -63.702)" fill="#1b6bfe"/>
            <path id="Trazado_211480" data-name="Trazado 211480" d="M379.028,165.819l5.825,3.445a.8.8,0,0,0,.138-.308l-5.79-3.427a.169.169,0,0,0-.172.29" transform="translate(-362.777 -65.69)" fill="#1b48ca"/>
            <path id="Trazado_211481" data-name="Trazado 211481" d="M361.99,172.1a.793.793,0,0,0,.019.179.835.835,0,0,0,1.015.634c3.057-.742,11.651-3.18,8.481-6.45-2.621-2.706-8.216,3.765-9.323,5.1a.838.838,0,0,0-.192.533" transform="translate(-339.757 -65.81)" fill="#1b6bfe"/>
            <path id="Trazado_211482" data-name="Trazado 211482" d="M368.857,174.266a.845.845,0,0,0,.138.31l5.826-3.447a.169.169,0,0,0-.172-.291Z" transform="translate(-346.605 -67.797)" fill="#1b48ca"/>
            <path id="Trazado_211483" data-name="Trazado 211483" d="M388.087,178.337a.831.831,0,0,0,.876-.326.807.807,0,0,0,.137-.308.764.764,0,0,0,.019-.18.833.833,0,0,0-.192-.533c-1.105-1.338-6.7-7.81-9.323-5.1-3.169,3.269,5.425,5.707,8.483,6.45" transform="translate(-366.887 -67.962)" fill="#1b6bfe"/>
            <path id="Trazado_211484" data-name="Trazado 211484" d="M379.028,176.552,384.853,180a.807.807,0,0,0,.138-.308l-5.79-3.427a.168.168,0,1,0-.172.289" transform="translate(-362.777 -69.95)" fill="#1b48ca"/>
            <path id="Trazado_211485" data-name="Trazado 211485" d="M106.686,177.7l.15,1.729.256,2.914.049.559.215,2.48.238,2.7.01.127.269,3.091.238,2.754.3,3.417h9.5l.07-.782.287-3.324.176-2,.285-3.28.005-.054.176-2,.269-3.125.021-.225.174-1.988.261-2.99Z" transform="translate(66.782 -70.53)" fill="#4f9d5c"/>
            <path id="Trazado_211486" data-name="Trazado 211486" d="M107.441,186.327l.215,2.48.238,2.7h11.13l0-.055.176-2,.269-3.124Z" transform="translate(66.482 -73.954)" fill="#fff"/>
            <rect id="Rectángulo_339513" data-name="Rectángulo 339513" width="14.273" height="2.528" transform="translate(172.803 104.643)" fill="#3c7341"/>
            <path id="Trazado_211487" data-name="Trazado 211487" d="M107.368,172.1H119.49v-1.255a.891.891,0,0,0-.891-.891H108.259a.891.891,0,0,0-.891.891Z" transform="translate(66.511 -67.454)" fill="#4f9d5c"/>
          </g>
        </g>
      </g>
    </g>
  </g>
</svg>
