<svg xmlns="http://www.w3.org/2000/svg" xmlns:xlink="http://www.w3.org/1999/xlink" width="315" height="541" viewBox="0 0 315 541">
  <defs>
    <clipPath id="clip-path">
      <rect id="Rectángulo_339075" data-name="Rectángulo 339075" width="315" height="541" fill="#a6bbff" stroke="#707070" stroke-width="1"/>
    </clipPath>
    <clipPath id="clip-path-2">
      <rect id="Rectángulo_339588" data-name="Rectángulo 339588" width="314" height="469" transform="translate(0 0)" fill="#fff" stroke="#707070" stroke-width="1"/>
    </clipPath>
    <clipPath id="clip-path-3">
      <path id="Trazado_212597" data-name="Trazado 212597" d="M108,24.545s-4.356,10.3-14.956,3.653c0,0,2.82-6.959,8.205-6.96,1.927,0,4.18.891,6.751,3.307" transform="translate(-93.044 -21.238)" fill="none"/>
    </clipPath>
    <clipPath id="clip-path-4">
      <path id="Trazado_212599" data-name="Trazado 212599" d="M124.072,28.2c-10.471,3.724-12.265-6.048-12.265-6.048,1.766-1.905,3.358-2.643,4.767-2.643,4.834,0,7.5,8.69,7.5,8.69" transform="translate(-111.807 -19.508)" fill="none"/>
    </clipPath>
    <clipPath id="clip-path-5">
      <rect id="Rectángulo_339585" data-name="Rectángulo 339585" width="337.332" height="459.938" fill="none"/>
    </clipPath>
    <clipPath id="clip-path-6">
      <path id="Trazado_212669" data-name="Trazado 212669" d="M188.208,36.686c-8.341,6.728-13.8-3.018-13.8-3.018a12.289,12.289,0,0,1,6.4-2.126c5.268,0,7.406,5.144,7.406,5.144" transform="translate(-174.406 -31.542)" fill="none"/>
    </clipPath>
    <clipPath id="clip-path-7">
      <path id="Trazado_212671" data-name="Trazado 212671" d="M171.956,32.418s-1.793,9.022-9.207,4.59c0,0,1.553-5.547,5.874-5.549a7.03,7.03,0,0,1,3.333.959" transform="translate(-162.749 -31.459)" fill="none"/>
    </clipPath>
    <clipPath id="clip-path-9">
      <path id="Trazado_212674" data-name="Trazado 212674" d="M175.5,43.179c3.3,1.466,2.757,3.4-.234,3.823-1.735.247-7.044-1.629-6.072-3.507.243-.471,1.377-1.057,3.011-1.057a8.126,8.126,0,0,1,3.3.741" transform="translate(-169.075 -42.438)" fill="none"/>
    </clipPath>
  </defs>
  <g id="Grupo_984625" data-name="Grupo 984625" transform="translate(-338 -824)">
    <g id="Enmascarar_grupo_589" data-name="Enmascarar grupo 589" transform="translate(338 824)" clip-path="url(#clip-path)">
      <g id="Grupo_983929" data-name="Grupo 983929" transform="translate(-3)">
        <rect id="Rectángulo_339062" data-name="Rectángulo 339062" width="317" height="541" fill="#a6bbff"/>
      </g>
    </g>
    <g id="Grupo_984558" data-name="Grupo 984558" transform="translate(338 896)" clip-path="url(#clip-path-2)">
      <g id="Grupo_984557" data-name="Grupo 984557" transform="translate(-19.829 8.529)">
        <g id="Grupo_984536" data-name="Grupo 984536" transform="translate(0 223.892)">
          <rect id="Rectángulo_339583" data-name="Rectángulo 339583" width="238.181" height="236.045" transform="translate(0)" fill="#6b8dfc"/>
          <path id="Rectángulo_339584" data-name="Rectángulo 339584" d="M0,0H198.663A135.646,135.646,0,0,1,334.308,135.646v0a0,0,0,0,1,0,0H0a0,0,0,0,1,0,0V0A0,0,0,0,1,0,0Z" transform="translate(0 100.399)" fill="#3c3fa7"/>
        </g>
        <g id="Grupo_984556" data-name="Grupo 984556" transform="translate(12.627 0)">
          <g id="Grupo_984539" data-name="Grupo 984539" transform="translate(111.147)">
            <g id="Grupo_984538" data-name="Grupo 984538">
              <path id="Trazado_212552" data-name="Trazado 212552" d="M46.552,193.307H158.239a1.247,1.247,0,0,0,1.236-1.26V177.583a1.247,1.247,0,0,0-1.236-1.26H46.552a1.247,1.247,0,0,0-1.236,1.26v14.463a1.247,1.247,0,0,0,1.236,1.26M157,190.786H47.788V178.842H157Z" transform="translate(10.696 45.878)" fill="#12263f"/>
              <path id="Trazado_212553" data-name="Trazado 212553" d="M91.731,409.033a1.247,1.247,0,0,0,1.236-1.26V189.06a1.236,1.236,0,1,0-2.472,0V407.773a1.247,1.247,0,0,0,1.236,1.26" transform="translate(21.362 48.864)" fill="#12263f"/>
              <path id="Trazado_212554" data-name="Trazado 212554" d="M62.678,365.755h72.113a1.891,1.891,0,0,0,0-3.781H62.678a1.891,1.891,0,0,0,0,3.781" transform="translate(14.358 94.183)" fill="#12263f"/>
              <path id="Trazado_212555" data-name="Trazado 212555" d="M99.752,337.488a1.219,1.219,0,0,0,.8-.3l42-36.242a1.277,1.277,0,0,0,.361-1.4,1.237,1.237,0,0,0-1.161-.827h-84a1.234,1.234,0,0,0-1.159.827,1.277,1.277,0,0,0,.361,1.4l42,36.242a1.217,1.217,0,0,0,.8.3m38.626-36.243L99.752,334.575,61.125,301.244Z" transform="translate(13.341 77.726)" fill="#12263f"/>
              <path id="Trazado_212556" data-name="Trazado 212556" d="M75.593,190.294h54.3c16.624,0,30.1-13.739,30.1-30.687V136.372H45.494v23.235c0,16.948,13.475,30.687,30.1,30.687" transform="translate(9.963 35.483)" fill="#171962"/>
              <path id="Trazado_212557" data-name="Trazado 212557" d="M108.819,252.761l5.771,35.069,25.5-2.68L133.2,242.71Z" transform="translate(-48.412 63.151)" fill="#e5826e"/>
              <path id="Trazado_212558" data-name="Trazado 212558" d="M141.431,257.023l-27.362,10.886L111.387,251.6l27.336-11.267Z" transform="translate(-52.925 62.534)"/>
              <path id="Trazado_212559" data-name="Trazado 212559" d="M125.109,141l-.738.113c-12.435,1.908-21.117,14.6-19.392,28.354l14.313,114.113,45.768-7.022L150.747,162.444c-1.724-13.751-13.2-23.354-25.638-21.446" transform="translate(-68.365 36.624)" fill="#171962"/>
              <path id="Trazado_212560" data-name="Trazado 212560" d="M157.36,267.894l3.77,32.565H105.47l-.566-7.038c-.717-8.923,5.6-15.624,14.218-17.024l8.576.018,11.034,2.489Z" transform="translate(-64.542 69.704)" fill="#ebad23"/>
              <path id="Trazado_212561" data-name="Trazado 212561" d="M127.343,278.629l-6.152-6.5c-1.876-1.984-.225-4.714,3.047-5.04l9.084-.9c2.928-.29,5.416,1.554,4.975,3.686l-2.03,9.792Z" transform="translate(-60.987 69.251)" fill="#ffc849"/>
              <path id="Trazado_212562" data-name="Trazado 212562" d="M109.074,289.351h51.131a.562.562,0,0,0,0-1.124H109.074a.562.562,0,0,0,0,1.124" transform="translate(-68.713 74.995)"/>
              <path id="Trazado_212563" data-name="Trazado 212563" d="M134.486,279.721a.551.551,0,0,0,.486-.294.572.572,0,0,0-.156-.72l-6.414-4.859,10.653,4.649a.549.549,0,0,0,.724-.3.567.567,0,0,0-.292-.737l-14.952-6.523a.546.546,0,0,0-.695.237.569.569,0,0,0,.15.731l7.065,5.352-6.546-2.479a.546.546,0,0,0-.707.331.564.564,0,0,0,.325.722l10.166,3.851a.541.541,0,0,0,.192.035" transform="translate(-66.623 70.485)"/>
              <path id="Trazado_212564" data-name="Trazado 212564" d="M106.037,248.691a.688.688,0,0,0,.112-.01l45.585-8.48a.631.631,0,0,0-.222-1.241l-45.585,8.481a.631.631,0,0,0-.5.733.622.622,0,0,0,.607.517" transform="translate(-56.36 62.174)"/>
              <path id="Trazado_212565" data-name="Trazado 212565" d="M101.517,190.085h0a.624.624,0,0,0,.618-.63l-.014-31.559a.618.618,0,1,0-1.236,0l.014,31.559a.624.624,0,0,0,.618.63" transform="translate(-0.648 40.92)"/>
              <path id="Trazado_212566" data-name="Trazado 212566" d="M116.646,186.383h.057a.627.627,0,0,0,.56-.684l-2.756-31.3a.618.618,0,1,0-1.231.113l2.756,31.3a.62.62,0,0,0,.614.572" transform="translate(-31.091 40.025)"/>
              <path id="Trazado_212567" data-name="Trazado 212567" d="M99.291,252.553l1.054,32.926-25.339,4.034-1.37-39.822Z" transform="translate(34.821 64.968)" fill="#e5826e"/>
              <path id="Trazado_212568" data-name="Trazado 212568" d="M103.835,253.744l-28.759-3.208.6,17.461,28.556-1.844Z" transform="translate(31.793 64.262)"/>
              <path id="Trazado_212569" data-name="Trazado 212569" d="M88.021,137.482h0a23.333,23.333,0,0,1,23.092,23.564l-.053,125.075L64.854,286.1l.052-125.072a23.333,23.333,0,0,1,23.115-23.544" transform="translate(34.909 35.772)" fill="#171962"/>
              <path id="Trazado_212570" data-name="Trazado 212570" d="M111.741,267.894l7.059,32.565H67.553l-.52-7.038A15.615,15.615,0,0,1,80.123,276.4l7.895.018L98.177,278.9Z" transform="translate(24.593 69.704)" fill="#ffc849"/>
              <path id="Trazado_212571" data-name="Trazado 212571" d="M92.658,278.629l-7.022-6.5c-2.141-1.984-.257-4.714,3.477-5.04l10.369-.9c3.342-.29,6.183,1.554,5.678,3.686l-2.315,9.792Z" transform="translate(16.229 69.251)" fill="#ffc849"/>
              <path id="Trazado_212572" data-name="Trazado 212572" d="M71.792,289.351h45.951a.562.562,0,0,0,0-1.124H71.792a.562.562,0,0,0,0,1.124" transform="translate(19.833 74.995)"/>
              <path id="Trazado_212573" data-name="Trazado 212573" d="M100.8,279.72a.548.548,0,0,0,.5-.32.567.567,0,0,0-.2-.713l-7.39-4.9,12.358,4.723a.548.548,0,0,0,.709-.329.564.564,0,0,0-.323-.723l-17.067-6.523a.542.542,0,0,0-.685.272.568.568,0,0,0,.192.725L97,277.3l-7.634-2.532a.55.55,0,0,0-.695.36.566.566,0,0,0,.355.708l11.605,3.851a.538.538,0,0,0,.171.028" transform="translate(9.809 70.485)"/>
              <path id="Trazado_212574" data-name="Trazado 212574" d="M64.938,247.741h.009l46.3-.641a.624.624,0,0,0,.609-.639.6.6,0,0,0-.627-.621l-46.3.641a.63.63,0,0,0,.009,1.26" transform="translate(34.829 63.965)"/>
              <path id="Trazado_212575" data-name="Trazado 212575" d="M83.653,190.107a.624.624,0,0,0,.618-.63l.012-28.322a23,23,0,0,1,6.594-16.207,22.116,22.116,0,0,1,15.889-6.705h.014a.624.624,0,0,0,.618-.63.659.659,0,0,0-.632-.63A23.332,23.332,0,0,0,90,144.057a24.261,24.261,0,0,0-6.956,17.1l-.012,28.322a.624.624,0,0,0,.618.63" transform="translate(16.151 35.642)"/>
              <path id="Trazado_212576" data-name="Trazado 212576" d="M64.916,182.975h.006a.625.625,0,0,0,.612-.636c0-.175-.163-17.565,0-20.123a.626.626,0,0,0-.577-.669.617.617,0,0,0-.656.589c-.166,2.6-.009,19.5,0,20.216a.625.625,0,0,0,.618.624" transform="translate(81.266 42.032)"/>
              <path id="Trazado_212577" data-name="Trazado 212577" d="M128.327,22.989c-1.431-3.488-5.013-5.255-8-3.947s-4.245,5.2-2.812,8.685,5.013,5.255,8,3.947,4.245-5.2,2.811-8.685" transform="translate(-47.262 4.842)" fill="#c95b3d"/>
              <path id="Trazado_212578" data-name="Trazado 212578" d="M124.826,27.06a.832.832,0,0,0,.614-.273.865.865,0,0,0-.049-1.2l-4.6-4.324a.828.828,0,0,0-1.179.049.864.864,0,0,0,.048,1.2l4.6,4.324a.824.824,0,0,0,.565.224" transform="translate(-47.046 5.474)"/>
              <path id="Trazado_212579" data-name="Trazado 212579" d="M121.583,27.434a.814.814,0,0,0,.576-.237l2.136-2.089a.856.856,0,0,0,.023-1.2.815.815,0,0,0-1.177-.025l-2.135,2.088a.858.858,0,0,0-.025,1.2.82.82,0,0,0,.6.262" transform="translate(-47.618 6.152)"/>
              <path id="Trazado_212580" data-name="Trazado 212580" d="M105.626,33.556l8.843,23.617L92.457,60.21l-8.65-21.558Z" transform="translate(8.127 8.731)" fill="#c95b3d"/>
              <path id="Trazado_212581" data-name="Trazado 212581" d="M113.131,38.476c-4.245,3.114-12.108,8.175-19.919,9.5l-3.742-9.324,21.819-5.1Z" transform="translate(2.463 8.731)"/>
              <path id="Trazado_212582" data-name="Trazado 212582" d="M130.425,26.232c0-14.081-10.342-25.5-23.1-25.5s-23.1,7.813-23.1,25.5c0,14.081,7.2,25.887,19.956,25.887s26.242-11.805,26.242-25.887" transform="translate(-8.349 0.191)" fill="#c95b3d"/>
              <path id="Trazado_212583" data-name="Trazado 212583" d="M106.585,0c12.973,0,23.514,12.511,24.178,26.648-5.305-3.009-16.471-10.455-16.933-20.041A53.853,53.853,0,0,1,83.354,18.836C86.387,6.733,95.651,0,106.585,0" transform="translate(-7.608)"/>
              <path id="Trazado_212584" data-name="Trazado 212584" d="M92.269,44.906S58.527,41.171,43.6,55.914C20.652,78.578-27.117,145.33,20.091,153.646c13.634,2.4,34.723,0,34.723,0h95.462s4.139,14.083,32.842,12.067S205.972,125.058,199.429,111,161.2,58.152,151.173,50.1s-42.052-4.869-42.052-4.869Z" transform="translate(0 11.574)" fill="#e1e8ff"/>
              <g id="Grupo_984537" data-name="Grupo 984537" transform="translate(157.259 107.382)">
                <path id="Trazado_212585" data-name="Trazado 212585" d="M45.193,128.218a.625.625,0,0,0,.248-.053.635.635,0,0,0,.316-.83c-6.3-14.6-14.915-23.476-21.032-28.347a45.152,45.152,0,0,0-11.954-7.177.621.621,0,0,0-.784.393.633.633,0,0,0,.383.8c.2.071,20.417,7.4,32.256,34.837a.616.616,0,0,0,.566.377" transform="translate(-11.955 -91.778)"/>
                <path id="Trazado_212586" data-name="Trazado 212586" d="M18.793,115.042a.62.62,0,0,0,.6-.481.631.631,0,0,0-.457-.76l-9.8-2.4a.624.624,0,0,0-.745.466.631.631,0,0,0,.457.76l9.8,2.4a.637.637,0,0,0,.145.016" transform="translate(18.875 -86.677)"/>
              </g>
              <path id="Trazado_212587" data-name="Trazado 212587" d="M123.837,28.2s-4.356-14.492-12.03-6.048c0,0,1.761,9.77,12.03,6.048" transform="translate(-35.851 5.076)" fill="#fff"/>
              <path id="Trazado_212588" data-name="Trazado 212588" d="M93.044,28.2s5.1-12.828,14.669-3.655c0,0-4.273,10.3-14.669,3.655" transform="translate(3.465 5.526)" fill="#fff"/>
              <path id="Trazado_212589" data-name="Trazado 212589" d="M112.222,29.258a.812.812,0,0,0,.42-.116.859.859,0,0,0,.3-1.163l-2.279-3.985a.831.831,0,0,0-.707-.421.861.861,0,0,0-.719.4L107.2,27.293a.857.857,0,0,0,.266,1.171.821.821,0,0,0,1.147-.271l1.305-2.126,1.585,2.769a.828.828,0,0,0,.719.422" transform="translate(-19.217 6.134)"/>
              <path id="Trazado_212590" data-name="Trazado 212590" d="M111.036,35.49a14.087,14.087,0,0,0,3.388-.4.853.853,0,0,0,.592-1.04.839.839,0,0,0-1.02-.6c-.062.015-6.186,1.6-9.087-2.277A.819.819,0,0,0,103.742,31a.858.858,0,0,0-.158,1.191,8.951,8.951,0,0,0,7.452,3.3" transform="translate(-16.682 8.022)"/>
              <path id="Trazado_212591" data-name="Trazado 212591" d="M104.383,19.664a.826.826,0,0,0,.672-.349.86.86,0,0,0-.18-1.187c-5.62-4.185-10.446-2.321-10.651-2.238a.855.855,0,0,0-.468,1.1.826.826,0,0,0,1.078.48c.169-.066,4.21-1.584,9.058,2.028a.819.819,0,0,0,.492.164" transform="translate(5.155 4.008)"/>
              <path id="Trazado_212592" data-name="Trazado 212592" d="M113.064,18.65a.826.826,0,0,0,.492-.163c4.892-3.643,9.013-2.044,9.054-2.03a.824.824,0,0,0,1.082-.479.856.856,0,0,0-.468-1.1c-.2-.082-5.031-1.946-10.651,2.238a.862.862,0,0,0-.18,1.188.825.825,0,0,0,.672.348" transform="translate(-36.287 3.745)"/>
              <path id="Trazado_212593" data-name="Trazado 212593" d="M23.854,13.89,6.485,13.122s-.138.064-6.485.064C2.334,8.255,4.918-1.468,21.091.187,28.577.955,32.4,9.537,33.965,13.89a47.388,47.388,0,0,1-10.111,0" transform="matrix(-0.998, 0.07, -0.07, -0.998, 123.549, 66.571)" fill="#c95b3d"/>
              <path id="Trazado_212594" data-name="Trazado 212594" d="M49.737,139.21a.625.625,0,0,0,.618-.624l.334-34.185a.626.626,0,0,0-.613-.636h0a.623.623,0,0,0-.618.624l-.334,34.185a.625.625,0,0,0,.612.636Z" transform="translate(102.607 27)"/>
              <path id="Trazado_212595" data-name="Trazado 212595" d="M124.64,139.691a.618.618,0,0,0,.58-.412L138.4,102.766a.631.631,0,0,0-.366-.808.613.613,0,0,0-.794.373L124.06,138.843a.633.633,0,0,0,.366.809.6.6,0,0,0,.214.039" transform="translate(-65.551 26.518)"/>
            </g>
          </g>
          <g id="Grupo_984541" data-name="Grupo 984541" transform="translate(207.472 26.764)">
            <g id="Grupo_984540" data-name="Grupo 984540" clip-path="url(#clip-path-3)">
              <path id="Trazado_212596" data-name="Trazado 212596" d="M96.312,26.181a6.148,6.148,0,0,0,12.3,0c-.176-7.079-6.838-6.147-6.148-6.147a6.147,6.147,0,0,0-6.147,6.147" transform="translate(-97.771 -21.562)"/>
            </g>
          </g>
          <g id="Grupo_984543" data-name="Grupo 984543" transform="translate(186.968 24.584)">
            <g id="Grupo_984542" data-name="Grupo 984542" clip-path="url(#clip-path-4)">
              <path id="Trazado_212598" data-name="Trazado 212598" d="M114.031,24.7a6.148,6.148,0,1,0,6.147-6.147,6.147,6.147,0,0,0-6.147,6.147" transform="translate(-116.864 -19.758)"/>
            </g>
          </g>
          <g id="Grupo_984545" data-name="Grupo 984545">
            <g id="Grupo_984544" data-name="Grupo 984544" clip-path="url(#clip-path-5)">
              <path id="Trazado_212600" data-name="Trazado 212600" d="M79.966,25.379c1.433-3.488,5.013-5.255,8-3.947s4.243,5.2,2.812,8.685-5.013,5.255-8,3.947-4.245-5.2-2.812-8.685" transform="translate(147.853 5.464)" fill="#c95b3d"/>
              <path id="Trazado_212601" data-name="Trazado 212601" d="M82.375,29.45a.819.819,0,0,0,.565-.226l4.6-4.325a.861.861,0,0,0,.047-1.2.822.822,0,0,0-1.178-.048l-4.6,4.325a.861.861,0,0,0-.047,1.2.813.813,0,0,0,.612.273" transform="translate(148.731 6.095)"/>
              <path id="Trazado_212602" data-name="Trazado 212602" d="M85.147,29.825a.826.826,0,0,0,.6-.261.862.862,0,0,0-.022-1.2l-2.133-2.089a.823.823,0,0,0-1.179.023.863.863,0,0,0,.022,1.2l2.133,2.091a.821.821,0,0,0,.578.237" transform="translate(149.772 6.774)"/>
              <path id="Trazado_212603" data-name="Trazado 212603" d="M45.86,153.062l50.768-26.112a1.464,1.464,0,0,0,.787-1.3V46.079a1.434,1.434,0,0,0-2.078-1.3L44.57,70.887a1.464,1.464,0,0,0-.789,1.3v79.566a1.435,1.435,0,0,0,2.079,1.3" transform="translate(185.801 11.609)" fill="#ffc849"/>
              <path id="Trazado_212604" data-name="Trazado 212604" d="M138.914,153.062,88.146,126.949a1.464,1.464,0,0,1-.787-1.3V46.079a1.434,1.434,0,0,1,2.079-1.3l50.768,26.112a1.465,1.465,0,0,1,.787,1.3v79.566a1.435,1.435,0,0,1-2.079,1.3" transform="translate(88.359 11.609)" fill="#ffc849"/>
              <path id="Trazado_212605" data-name="Trazado 212605" d="M87.478,146.823a.624.624,0,0,0,.618-.63V66.627a.618.618,0,1,0-1.236,0v79.566a.624.624,0,0,0,.618.63" transform="translate(141.873 17.172)"/>
              <path id="Trazado_212606" data-name="Trazado 212606" d="M38.8,85.755,51.3,85.534a3.7,3.7,0,0,1,3.672,3.927A3.958,3.958,0,0,1,50.933,93.4l-12.461-.712a3.29,3.29,0,0,1-2.989-3.709,3.493,3.493,0,0,1,3.315-3.22" transform="translate(238.515 22.255)" fill="#c95b3d"/>
              <path id="Trazado_212607" data-name="Trazado 212607" d="M37.87,98.495l14.919.635a3.626,3.626,0,0,0,3.562-2.767l.094-.345a3.5,3.5,0,0,0-3.111-4.577L38.32,91.15a3.684,3.684,0,0,0-3.6,3.351,3.457,3.457,0,0,0,3.149,3.994" transform="translate(237.864 23.716)" fill="#c95b3d"/>
              <path id="Trazado_212608" data-name="Trazado 212608" d="M36.686,99.774h0a3.171,3.171,0,0,1,3.128-2.733l9.946.039a3.175,3.175,0,0,1,3.123,2.885l.082.815a3.184,3.184,0,0,1-3.4,3.531l-10.028-.856a3.2,3.2,0,0,1-2.854-3.681" transform="translate(239.048 25.249)" fill="#c95b3d"/>
              <path id="Trazado_212609" data-name="Trazado 212609" d="M37.944,104.255h0a2.739,2.739,0,0,1,2.572-2l8.2.2a2.385,2.385,0,0,1,2.209,2.718l-.072.929a2.774,2.774,0,0,1-2.953,2.664l-8.133-1.128a2.507,2.507,0,0,1-1.828-3.379" transform="translate(239.669 26.605)" fill="#c95b3d"/>
              <path id="Trazado_212610" data-name="Trazado 212610" d="M56.67,91.448l-.007-.015a.3.3,0,0,0-.4-.144,5.347,5.347,0,0,1-2.125.363l-13.2-.6a5.132,5.132,0,0,0-3.424,1.382,3.51,3.51,0,0,0-.844,2.7c.265,4.065,5.908,4,6.261,3.987l7.862.484c.592.035,3.814.077,4.643.029a.309.309,0,0,0-.035-.616c-.813.047-3.989.005-4.572-.029L42.949,98.5h-.03c-.054,0-5.418.169-5.65-3.41a2.9,2.9,0,0,1,.684-2.238,4.566,4.566,0,0,1,2.969-1.186l13.181.6a5.9,5.9,0,0,0,2.42-.425.312.312,0,0,0,.147-.4" transform="translate(235.332 23.691)"/>
              <path id="Trazado_212611" data-name="Trazado 212611" d="M53.272,104.285a.3.3,0,0,0-.3-.189c-.8.047-5.626-.285-6.43-.374-.752-.083-3.217-.26-3.321-.267-.046,0-4.628-.387-4.425-3.413a2.351,2.351,0,0,1,1.852-2.161,5.74,5.74,0,0,1,1.838-.243.309.309,0,0,0,.035-.617c-1.423-.083-4.157.433-4.329,2.979-.2,2.912,3.175,3.937,4.986,4.072.026,0,2.559.183,3.3.266s5.654.427,6.53.376a.307.307,0,0,0,.286-.325.342.342,0,0,0-.023-.1" transform="translate(236.835 25.242)"/>
              <path id="Trazado_212612" data-name="Trazado 212612" d="M55.08,85.354a.3.3,0,0,0-.278-.189c-.079,0-8.034-.05-11.271-.039-3.411.013-5.468,1.51-5.643,4.108A3.932,3.932,0,0,0,40.766,93.2a.3.3,0,0,0,.37-.222.308.308,0,0,0-.216-.376,3.267,3.267,0,0,1-2.426-3.328c.152-2.267,1.942-3.521,5.041-3.532,3.235-.011,11.186.038,11.265.039a.306.306,0,0,0,.305-.307.329.329,0,0,0-.023-.121" transform="translate(235.409 22.149)"/>
              <path id="Trazado_212613" data-name="Trazado 212613" d="M140.745,82.718l-11.965-.212a3.539,3.539,0,0,0-3.513,3.758,3.788,3.788,0,0,0,3.868,3.764l11.923-.681a3.149,3.149,0,0,0,2.859-3.55,3.342,3.342,0,0,0-3.172-3.08" transform="translate(38.565 21.467)" fill="#c95b3d"/>
              <path id="Trazado_212614" data-name="Trazado 212614" d="M142.07,94.906l-14.275.607a3.468,3.468,0,0,1-3.407-2.648l-.09-.33a3.349,3.349,0,0,1,2.976-4.379l14.364-.277a3.522,3.522,0,0,1,3.444,3.206,3.306,3.306,0,0,1-3.012,3.821" transform="translate(38.753 22.865)" fill="#c95b3d"/>
              <path id="Trazado_212615" data-name="Trazado 212615" d="M142.185,96.13h0a3.035,3.035,0,0,0-2.994-2.616l-9.516.038a3.039,3.039,0,0,0-2.988,2.76l-.079.781a3.044,3.044,0,0,0,3.251,3.377l9.6-.818a3.062,3.062,0,0,0,2.73-3.522" transform="translate(38.639 24.332)" fill="#c95b3d"/>
              <path id="Trazado_212616" data-name="Trazado 212616" d="M140.4,100.418h0a2.618,2.618,0,0,0-2.46-1.918l-7.851.19a2.282,2.282,0,0,0-2.112,2.6l.069.89a2.653,2.653,0,0,0,2.824,2.548l7.782-1.08a2.4,2.4,0,0,0,1.748-3.231" transform="translate(38.626 25.629)" fill="#c95b3d"/>
              <path id="Trazado_212617" data-name="Trazado 212617" d="M123.743,88.164l.006-.015a.29.29,0,0,1,.388-.137,5.119,5.119,0,0,0,2.032.348l12.631-.573a4.9,4.9,0,0,1,3.275,1.322,3.357,3.357,0,0,1,.807,2.583c-.252,3.89-5.652,3.823-5.99,3.815l-7.523.462c-.566.034-3.65.074-4.441.029a.3.3,0,0,1-.273-.313.293.293,0,0,1,.307-.279c.777.045,3.816.005,4.373-.028l7.535-.464h.028c.052,0,5.184.161,5.406-3.263a2.788,2.788,0,0,0-.655-2.142,4.383,4.383,0,0,0-2.84-1.134l-12.611.573a5.607,5.607,0,0,1-2.315-.406.3.3,0,0,1-.141-.379" transform="translate(41.514 22.841)"/>
              <path id="Trazado_212618" data-name="Trazado 212618" d="M126.093,100.446a.289.289,0,0,1,.284-.18c.768.044,5.383-.272,6.152-.358.719-.081,3.078-.25,3.178-.256.043,0,4.427-.37,4.233-3.266a2.25,2.25,0,0,0-1.771-2.067,5.5,5.5,0,0,0-1.759-.233.3.3,0,0,1-.033-.591c1.361-.079,3.978.415,4.141,2.851.187,2.786-3.038,3.767-4.77,3.9-.025,0-2.447.175-3.156.255s-5.41.408-6.248.36a.3.3,0,0,1-.273-.313.317.317,0,0,1,.022-.1" transform="translate(40.977 24.325)"/>
              <path id="Trazado_212619" data-name="Trazado 212619" d="M124.749,82.334a.291.291,0,0,1,.266-.181c.077,0,7.687-.048,10.784-.037,3.264.011,5.232,1.444,5.4,3.931a3.761,3.761,0,0,1-2.754,3.8.291.291,0,0,1-.354-.212.3.3,0,0,1,.208-.36,3.123,3.123,0,0,0,2.321-3.183c-.146-2.169-1.858-3.37-4.823-3.38-3.094-.011-10.7.037-10.778.037a.293.293,0,0,1-.292-.294.3.3,0,0,1,.022-.116" transform="translate(41.956 21.366)"/>
              <path id="Trazado_212620" data-name="Trazado 212620" d="M147.812,115.98a.6.6,0,0,0,.33-.1l37.52-24.06a.636.636,0,0,0,.193-.868.612.612,0,0,0-.852-.2l-37.521,24.06a.638.638,0,0,0-.193.87.616.616,0,0,0,.523.294" transform="translate(-30.556 23.589)"/>
              <path id="Trazado_212621" data-name="Trazado 212621" d="M86.219,110.966s8.61-12.3,16.56-13.533c4.75-.736,7.934-1.317,9.726-1.665a2.588,2.588,0,0,0,1.85-2.587,1.943,1.943,0,0,0-1.562-2.14,34.723,34.723,0,0,0-15.3,2.374c-7.033,2.891-16.706,14.325-16.706,14.325Z" transform="translate(123.123 23.666)" fill="#ed8c6b"/>
              <path id="Trazado_212622" data-name="Trazado 212622" d="M84.045,104.462s7.275-10.369,15.224-11.6c5.115-.793,8.412-1.405,10.115-1.742a2.034,2.034,0,0,0,1.449-2.029,2.4,2.4,0,0,0-1.952-2.649,34.666,34.666,0,0,0-14.9,2.4c-7.034,2.89-16.706,14.323-16.706,14.323Z" transform="translate(130.984 22.476)" fill="#ed8c6b"/>
              <path id="Trazado_212623" data-name="Trazado 212623" d="M82.449,100.906s7.275-10.369,15.224-11.6c5.118-.793,8.416-1.405,10.117-1.742a2.032,2.032,0,0,0,1.446-2.025,2.4,2.4,0,0,0-1.954-2.653,34.674,34.674,0,0,0-14.9,2.4c-7.034,2.89-16.706,14.323-16.706,14.323Z" transform="translate(134.553 21.551)" fill="#ed8c6b"/>
              <path id="Trazado_212624" data-name="Trazado 212624" d="M84.216,114.2S99.7,88.827,106.968,86.273c4.683-1.646,9.252-2.568,10.8-3.184a2.133,2.133,0,0,0,1.131-2.183,2.243,2.243,0,0,0-2.085-2.31c-3.373.18-10.6,1-16.314,4.646-6.244,3.982-21.649,25.567-21.649,25.567Z" transform="translate(120.964 20.449)" fill="#ed8c6b"/>
              <path id="Trazado_212625" data-name="Trazado 212625" d="M115.752,88.4l3.544-8.186a3.754,3.754,0,0,0-1.167-4.573,2.126,2.126,0,0,0-3,.917c-1.213,2.065-16.537,23-16.537,23l-6.437,13.992L113.6,99.2Z" transform="translate(103.806 19.6)" fill="#ed8c6b"/>
              <path id="Trazado_212626" data-name="Trazado 212626" d="M81.609,93.555a.411.411,0,0,0,0,.178c.04.17.178.258.309.2a32.419,32.419,0,0,1,14.139-2.79c.136.009.256-.131.267-.309A.294.294,0,0,0,96.1,90.5a32.814,32.814,0,0,0-14.324,2.824.322.322,0,0,0-.167.234" transform="translate(140.14 23.539)"/>
              <path id="Trazado_212627" data-name="Trazado 212627" d="M77.319,90.889a.415.415,0,0,0,.025.241.247.247,0,0,0,.37.134,20.082,20.082,0,0,1,3.575-2,36.165,36.165,0,0,1,15.1-2.533,2.031,2.031,0,0,1,1.173.652.237.237,0,0,0,.383-.039.4.4,0,0,0-.03-.475,2.521,2.521,0,0,0-1.5-.812,36.613,36.613,0,0,0-15.3,2.566,20.571,20.571,0,0,0-3.666,2.049.339.339,0,0,0-.135.218" transform="translate(143.759 22.379)"/>
              <path id="Trazado_212628" data-name="Trazado 212628" d="M84.059,87.586a.327.327,0,0,0,.036.219.243.243,0,0,0,.351.1,21.9,21.9,0,0,1,4.949-2.7,32.583,32.583,0,0,1,7.294-1.54.268.268,0,0,0,.215-.314.275.275,0,0,0-.286-.258,32.987,32.987,0,0,0-7.394,1.561,22.424,22.424,0,0,0-5.057,2.754.274.274,0,0,0-.109.175" transform="translate(136.531 21.621)"/>
              <path id="Trazado_212629" data-name="Trazado 212629" d="M92.309,84.818a.4.4,0,0,0,.043.277.239.239,0,0,0,.379.074c.774-.694,5.177-3.256,5.221-3.283a.378.378,0,0,0,.132-.449.251.251,0,0,0-.361-.163c-.183.106-4.494,2.615-5.31,3.347a.355.355,0,0,0-.105.2" transform="translate(125.135 21.139)"/>
              <path id="Trazado_212630" data-name="Trazado 212630" d="M95.371,94.6c0,.045,0,.091.006.136.007.093.135.176.287.185s.267-.059.261-.151c0-.042,0-.084-.006-.127-.064-2.963,5.2-5.568,5.248-5.594.11-.053.115-.159.011-.236a.414.414,0,0,0-.387-.042A17.263,17.263,0,0,0,98,90.54c-1.231.968-2.667,2.446-2.633,4.058" transform="translate(118.197 23.089)"/>
              <path id="Trazado_212631" data-name="Trazado 212631" d="M99.026,210.329l6.421,85.949-1.222,12.468,26.326,28.288a11.866,11.866,0,0,0,14.715,2.2,11.339,11.339,0,0,0,3.879-15.643l-16.607-27.308L129.8,216.238Z" transform="translate(64.132 54.726)" fill="#ed8c6b"/>
              <path id="Trazado_212632" data-name="Trazado 212632" d="M144.345,233.052l.5,14.519-28.335,6.549-1.523-20.375Z" transform="translate(50.367 60.638)"/>
              <path id="Trazado_212633" data-name="Trazado 212633" d="M133.378,279.678l3.856,6.343c-4.818-.829-14.825-.434-22.632,14l-4.618-4.074c.494-1.472,7.143-17.856,23.393-16.269" transform="translate(64.151 72.742)" fill="#d7e5ff"/>
              <path id="Trazado_212634" data-name="Trazado 212634" d="M99.025,301.82a22,22,0,0,1,7.527-7.065c7.562-4.382,13.82-3.876,18.023-2.442l6.211,10.213a11.337,11.337,0,0,1-3.88,15.642,11.864,11.864,0,0,1-14.714-2.2Z" transform="translate(82.492 75.792)" fill="#d7e5ff"/>
              <path id="Trazado_212635" data-name="Trazado 212635" d="M106.512,284.524l37.434,36.67a11.88,11.88,0,0,1-11.589-3.466L106.03,289.441Z" transform="translate(62.329 74.031)" fill="#d7e5ff"/>
              <path id="Trazado_212636" data-name="Trazado 212636" d="M116.479,276.228c26.188-3.114,62.313-7.756,62.313-7.756s-3.5-71.1-16.284-107.193c-7.828-22.106-33.393-30.689-54.874-22.158-.028,33.144,9.091,136.429,8.845,137.108" transform="translate(25.5 35.353)" fill="#ffb6c8"/>
              <path id="Trazado_212637" data-name="Trazado 212637" d="M161.012,185.47H277.8a1.248,1.248,0,0,0,1.236-1.26V169.086a1.247,1.247,0,0,0-1.236-1.26H161.012a1.247,1.247,0,0,0-1.236,1.26V184.21a1.248,1.248,0,0,0,1.236,1.26m115.549-2.52H162.248v-12.6H276.561Z" transform="translate(-139.191 43.667)"/>
              <path id="Trazado_212638" data-name="Trazado 212638" d="M208.253,411.042a1.247,1.247,0,0,0,1.236-1.26v-228.7a1.236,1.236,0,1,0-2.472,0v228.7a1.247,1.247,0,0,0,1.236,1.26" transform="translate(-128.039 46.79)"/>
              <path id="Trazado_212639" data-name="Trazado 212639" d="M177.869,365.755h75.4a1.891,1.891,0,0,0,0-3.781h-75.4a1.891,1.891,0,0,0,0,3.781" transform="translate(-135.358 94.183)"/>
              <path id="Trazado_212640" data-name="Trazado 212640" d="M216.64,336.231a1.228,1.228,0,0,0,.8-.3l43.917-37.9a1.277,1.277,0,0,0,.361-1.4,1.237,1.237,0,0,0-1.161-.827H172.723a1.237,1.237,0,0,0-1.161.827,1.279,1.279,0,0,0,.361,1.4l43.919,37.9a1.224,1.224,0,0,0,.8.3m40.543-37.9L216.64,333.32,176.1,298.334Z" transform="translate(-136.426 76.969)"/>
              <path id="Trazado_212641" data-name="Trazado 212641" d="M177.579,31.717s6.372-14.041-12.792-15.875Z" transform="translate(-44.949 4.122)" fill="#3c3fa7"/>
              <path id="Trazado_212642" data-name="Trazado 212642" d="M247.05,56.543,233.607,56.3c-13.847,6.349-30.968,49.763-30.968,49.763l20.261,14.2,27.5-40.576Z" transform="translate(-163.534 14.649)" fill="#6b8dfc"/>
              <path id="Trazado_212643" data-name="Trazado 212643" d="M116.746,59.549s31.56,3.294,41.093,18.81,25.289,52.261,25.289,52.261l25.021-34.765,27.582,21.551s-25.847,33.35-34.943,44.455-19.457,20.82-37.723,7.605-39-58.992-39-58.992l-20.929-5.086L90.6,56.109Z" transform="translate(-10.388 14.599)" fill="#6b8dfc"/>
              <path id="Trazado_212644" data-name="Trazado 212644" d="M198.9,197.295,160.122,293.2l41.264,44.253,5.708-4.146a12.739,12.739,0,0,0,3.214-17.059l-16.72-26.473,28.917-73.76Z" transform="translate(-83.091 51.335)" fill="#ed8c6b"/>
              <path id="Trazado_212645" data-name="Trazado 212645" d="M174.934,231.881l31.018,1.186-10.278,26.216-27.291-11.2Z" transform="translate(-76.75 60.334)"/>
              <path id="Trazado_212646" data-name="Trazado 212646" d="M189.777,273.818c25.809,6.777,40.362,10.6,66.977,17.044l28.957-112.77a30.922,30.922,0,0,0-7.361-28.443c-7.013-7.346-48.749-13.175-59.376-15.064,5.481-10.208-1.371-23.694-11.529-29s-66.107-2.755-66.107-2.755-17.023,44.308-9.955,62.778,24.04,24.037,43.47,24.806l43.389,1.719s-15.227,55.108-28.466,81.688" transform="translate(-109.562 26.595)" fill="#ffb6c8"/>
              <path id="Trazado_212647" data-name="Trazado 212647" d="M178.226,56.493s23.543,2.481,33.676,4.437l1.341,15.736-25.432-.89-10.8-11.545Z" transform="translate(-94.711 14.699)" fill="#ed8c6b"/>
              <path id="Trazado_212648" data-name="Trazado 212648" d="M207.51,55.112c.728-1.127-4.631,16.729-4.631,16.729l-21.041-2.428L190.9,41.958Z" transform="translate(-95.004 10.917)" fill="#ed8c6b"/>
              <path id="Trazado_212649" data-name="Trazado 212649" d="M182.856,42.932,197.914,54.86c.347-.537-.685,3.224-1.861,7.314l-14.214-14.6Z" transform="translate(-85.409 11.171)"/>
              <path id="Trazado_212650" data-name="Trazado 212650" d="M192.261,17.327a26,26,0,0,1,12.948,24.7c-1.287,17.387-5.541,22.525-22.554,20.8s-19.213-14.844-19.213-14.844l3.282-16.972,20.884-13.93Z" transform="translate(-69.979 4.445)" fill="#ed8c6b"/>
              <path id="Trazado_212651" data-name="Trazado 212651" d="M273.554,63.805c7.436,27.05,5.57,60.564-9.661,83.736-47.084,1.778-69.812,1.72-94.939,23.247,3.271-12.177,27.11-33.83,30.381-46.007,9.12-3.037,14.54-13.4,18.572-28.736,2.484-9.448,2.194-29.565,1.451-39.571,2.156-1.35,13.914-.93,14.244.3,0,0,5.31,16.808,21.809,17.964,14.423,1.011,9.186-14.117,9.186-14.117s8.74,2.4,8.958,3.187" transform="translate(-149.283 14.476)"/>
              <path id="Trazado_212652" data-name="Trazado 212652" d="M279.467,56.322S254.995,53.835,245.025,73.3s-31.292,68.382-28.564,84.409,25.439,19.762,34.648-1.946,10.621-54.82,10.621-54.82Z" transform="translate(-209.395 14.628)" fill="#6b8dfc"/>
              <path id="Trazado_212653" data-name="Trazado 212653" d="M254.719,103.064l-22.835,47.456-11.194-43.1,18.882-31.064Z" transform="translate(-190.169 19.869)" fill="#6b8dfc"/>
              <path id="Trazado_212654" data-name="Trazado 212654" d="M132.235,127.407a.615.615,0,0,0,.506-.267l8.85-12.833a.639.639,0,0,0-.15-.878.614.614,0,0,0-.862.152l-8.85,12.833a.639.639,0,0,0,.15.878.605.605,0,0,0,.356.115" transform="translate(32.945 29.484)"/>
              <path id="Trazado_212655" data-name="Trazado 212655" d="M187.943,36.687S184.2,27.509,174.4,33.668c0,0,5.356,9.748,13.538,3.019" transform="translate(-66.183 8.207)" fill="#fff"/>
              <path id="Trazado_212656" data-name="Trazado 212656" d="M162.748,37.008s2.279-8.311,9.032-4.59c0,0-1.76,9.022-9.032,4.59" transform="translate(-35.611 8.185)" fill="#fff"/>
              <path id="Trazado_212657" data-name="Trazado 212657" d="M168.874,41.457a.819.819,0,0,0,.654-.326l3.7-4.867a.86.86,0,0,0,.088-.888.825.825,0,0,0-.743-.473H167.8a.844.844,0,0,0,0,1.687h3.085L168.22,40.1a.856.856,0,0,0,.147,1.185.817.817,0,0,0,.507.176" transform="translate(-42.454 9.082)"/>
              <path id="Trazado_212658" data-name="Trazado 212658" d="M175.4,27.645a.828.828,0,0,0,.309-.06,11.182,11.182,0,0,1,7.131-.771.828.828,0,0,0,1.041-.541.845.845,0,0,0-.522-1.062c-.142-.048-3.507-1.147-8.268.809a.848.848,0,0,0-.459,1.1.827.827,0,0,0,.768.529" transform="translate(-62.364 6.468)"/>
              <path id="Trazado_212659" data-name="Trazado 212659" d="M166.369,26.9a.815.815,0,0,0,.535-.2,4.124,4.124,0,0,1,3.982-.776.817.817,0,0,0,1.079-.457.848.848,0,0,0-.45-1.1c-2.989-1.258-5.575.956-5.685,1.051a.854.854,0,0,0-.09,1.19.818.818,0,0,0,.628.295" transform="translate(-39.314 6.239)"/>
              <path id="Trazado_212660" data-name="Trazado 212660" d="M195.773,30.295s18.47-2.91,14.2-14c0,0-12.244-4.029-23.233,1.9s-19,22.319-3.01,36.529l1.447-9.561s11.788.434,10.592-14.87" transform="translate(-89.246 3.892)" fill="#3c3fa7"/>
              <path id="Trazado_212661" data-name="Trazado 212661" d="M182.214,286.043l-1.9-5.348a33.548,33.548,0,0,1,18.956-9.261l3.36,5.319c-8.194-1.211-20.418,9.29-20.418,9.29" transform="translate(-88.18 70.625)" fill="#d7e5ff"/>
              <path id="Trazado_212662" data-name="Trazado 212662" d="M214.858,318.983,173.592,274.73l2.6-6.432,43.134,47.439Z" transform="translate(-96.563 69.809)" fill="#d7e5ff"/>
              <path id="Trazado_212663" data-name="Trazado 212663" d="M168.4,297.489a7.7,7.7,0,0,1,1.837-4.89c6.352-7.961,13.416-8.641,17.417-8.211l5.83,9.228a12.741,12.741,0,0,1-3.215,17.059l-5.578,4.053-.464-.266Z" transform="translate(-66.267 73.97)" fill="#d7e5ff"/>
              <path id="Trazado_212664" data-name="Trazado 212664" d="M200.978,37.12c-2.62-3.06-6.79-3.526-9.315-1.041s-2.446,6.981.176,10.041,6.791,3.527,9.314,1.041,2.447-6.981-.174-10.041" transform="translate(-100.292 8.972)" fill="#ed8c6b"/>
              <path id="Trazado_212665" data-name="Trazado 212665" d="M199.255,42.3a.828.828,0,0,0,.758-.5.849.849,0,0,0-.425-1.111l-6.063-2.722a.825.825,0,0,0-1.09.434.85.85,0,0,0,.424,1.111l6.064,2.722a.818.818,0,0,0,.333.071" transform="translate(-100.521 9.861)"/>
              <path id="Trazado_212666" data-name="Trazado 212666" d="M194.833,44.366a.826.826,0,0,0,.745-.476l1.41-2.966A.852.852,0,0,0,196.6,39.8a.819.819,0,0,0-1.105.392l-1.412,2.966a.854.854,0,0,0,.384,1.128.826.826,0,0,0,.361.083" transform="translate(-99.538 10.333)"/>
              <path id="Trazado_212667" data-name="Trazado 212667" d="M129.783,275.007a.617.617,0,0,0,.6-.47l27.205-105.948a31.545,31.545,0,0,0-7.515-29.042.611.611,0,0,0-.874-.013.639.639,0,0,0-.012.891,30.249,30.249,0,0,1,7.206,27.844l-27.2,105.948a.629.629,0,0,0,.44.769.568.568,0,0,0,.157.021" transform="translate(19.16 36.259)"/>
            </g>
          </g>
          <g id="Grupo_984547" data-name="Grupo 984547" transform="translate(108.133 39.749)">
            <g id="Grupo_984546" data-name="Grupo 984546" clip-path="url(#clip-path-6)">
              <path id="Trazado_212668" data-name="Trazado 212668" d="M173.4,36.052a4.973,4.973,0,1,0,4.973-4.973,4.973,4.973,0,0,0-4.973,4.973" transform="translate(-168.283 -31.662)"/>
            </g>
          </g>
          <g id="Grupo_984549" data-name="Grupo 984549" transform="translate(127.068 39.644)">
            <g id="Grupo_984548" data-name="Grupo 984548" clip-path="url(#clip-path-7)">
              <path id="Trazado_212670" data-name="Trazado 212670" d="M161.168,35.708c0,2.746,1.917,4.973,4.282,4.973s4.282-2.227,4.282-4.973-1.917-4.973-4.282-4.973-4.282,2.227-4.282,4.973" transform="translate(-158.533 -31.647)"/>
            </g>
          </g>
          <g id="Grupo_984551" data-name="Grupo 984551">
            <g id="Grupo_984550" data-name="Grupo 984550" clip-path="url(#clip-path-5)">
              <path id="Trazado_212672" data-name="Trazado 212672" d="M169.19,43.5c.379-.747,2.95-1.782,6.186-.316s2.7,3.4-.23,3.823c-1.7.247-6.909-1.631-5.956-3.507" transform="translate(-49.236 11.042)"/>
            </g>
          </g>
          <g id="Grupo_984553" data-name="Grupo 984553" transform="translate(119.779 53.48)">
            <g id="Grupo_984552" data-name="Grupo 984552" clip-path="url(#clip-path-9)">
              <path id="Trazado_212673" data-name="Trazado 212673" d="M179.62,45.449a23.54,23.54,0,0,0-10.158-2.125c-5.11.309.839,5.759.839,5.759l7.825,2.024Z" transform="translate(-168.82 -42.214)" fill="#fd521b"/>
            </g>
          </g>
          <g id="Grupo_984555" data-name="Grupo 984555" transform="translate(9.066 67.093)">
            <g id="Grupo_984554" data-name="Grupo 984554">
              <path id="Trazado_212675" data-name="Trazado 212675" d="M179.059,177.337a.63.63,0,0,0,.558-.338l7.634-14.582a.63.63,0,1,0-1.118-.583L178.5,176.415a.628.628,0,0,0,.267.849.618.618,0,0,0,.291.072" transform="translate(-75.466 -25.073)"/>
              <path id="Trazado_212676" data-name="Trazado 212676" d="M243.443,133.116a.632.632,0,0,0,.6-.436l12.195-37.668a.633.633,0,0,0-.326-.764L227.4,80.624a.63.63,0,0,0-.544,1.137l28.018,13.387-12.026,37.144a.631.631,0,0,0,.406.794.649.649,0,0,0,.194.03" transform="translate(-197.77 -46.132)"/>
              <path id="Trazado_212677" data-name="Trazado 212677" d="M222.518,97.873h23.392l1.307-44.632H221.211Z" transform="translate(-182.061 -53.24)" fill="#d7e5ff"/>
              <path id="Trazado_212678" data-name="Trazado 212678" d="M248.321,68.007l-14.873-.858a4.355,4.355,0,0,0-4.554,4.407,4.673,4.673,0,0,0,4.626,4.787l14.863-.232a3.865,3.865,0,0,0,3.733-4.186,4.127,4.127,0,0,0-3.794-3.918" transform="translate(-196.649 -49.623)"/>
              <path id="Trazado_212679" data-name="Trazado 212679" d="M249.926,82.9l-17.786.025a4.307,4.307,0,0,1-4.108-3.4l-.1-.407a4.1,4.1,0,0,1,3.919-5.193l17.881.383a4.353,4.353,0,0,1,4.126,4.084,4.058,4.058,0,0,1-3.936,4.51" transform="translate(-197.042 -47.86)"/>
              <path id="Trazado_212680" data-name="Trazado 212680" d="M250.5,84.428h0a3.754,3.754,0,0,0-3.594-3.342l-11.841-.431a3.753,3.753,0,0,0-3.852,3.217l-.136.948a3.754,3.754,0,0,0,3.878,4.285l11.976-.517a3.754,3.754,0,0,0,3.57-4.16" transform="translate(-197.745 -46.108)"/>
              <path id="Trazado_212681" data-name="Trazado 212681" d="M248.444,89.525h0a3.25,3.25,0,0,0-2.966-2.462L235.7,86.9a2.8,2.8,0,0,0-2.756,3.066l.042,1.089a3.282,3.282,0,0,0,3.389,3.251l9.734-.927a2.922,2.922,0,0,0,2.334-3.854" transform="translate(-198.204 -44.482)"/>
              <path id="Trazado_212682" data-name="Trazado 212682" d="M227.3,73.914l.009-.018a.36.36,0,0,1,.489-.147,6.5,6.5,0,0,0,2.512.525l15.739-.066a6.167,6.167,0,0,1,4.01,1.778,4.043,4.043,0,0,1,.877,3.191c-.505,4.733-7.22,4.382-7.638,4.354l-9.381.187c-.706.013-4.543-.092-5.526-.188a.361.361,0,1,1,.071-.718c.965.093,4.746.2,5.442.185l9.4-.188h.035c.064.005,6.44.456,6.884-3.71a3.357,3.357,0,0,0-.708-2.645,5.508,5.508,0,0,0-3.477-1.526L230.316,75a7.133,7.133,0,0,1-2.859-.61.363.363,0,0,1-.156-.471" transform="translate(-193.446 -47.915)"/>
              <path id="Trazado_212683" data-name="Trazado 212683" d="M230.43,88.916a.361.361,0,0,1,.362-.207c.954.093,6.711-.062,7.671-.127.9-.062,3.841-.149,3.966-.152.053,0,5.525-.229,5.426-3.772a2.763,2.763,0,0,0-2.1-2.611,7,7,0,0,0-2.176-.373.361.361,0,0,1-.011-.722c1.7-.028,4.926.706,5.011,3.686.094,3.409-3.965,4.442-6.126,4.513-.032,0-3.053.091-3.938.151-.9.062-6.75.228-7.789.126a.361.361,0,0,1-.325-.394.4.4,0,0,1,.033-.117" transform="translate(-194.997 -46.03)"/>
              <path id="Trazado_212684" data-name="Trazado 212684" d="M228.275,66.9a.36.36,0,0,1,.339-.208c.1,0,9.565.328,13.417.5,4.059.178,6.437,2.025,6.521,5.066.1,3.641-3.574,4.485-3.612,4.493a.361.361,0,0,1-.154-.7,3.836,3.836,0,0,0,3.045-3.767c-.074-2.654-2.145-4.205-5.832-4.367-3.849-.169-13.315-.493-13.41-.5a.362.362,0,0,1-.349-.373.373.373,0,0,1,.034-.14" transform="translate(-192.26 -49.74)"/>
              <path id="Trazado_212685" data-name="Trazado 212685" d="M248.048,67.095l-14.872-.858a4.356,4.356,0,0,0-4.556,4.407,4.673,4.673,0,0,0,4.626,4.787l14.863-.232a3.865,3.865,0,0,0,3.733-4.186,4.126,4.126,0,0,0-3.794-3.918" transform="translate(-196.032 -49.861)" fill="#ed8c6b"/>
              <path id="Trazado_212686" data-name="Trazado 212686" d="M249.652,81.984l-17.786.025a4.307,4.307,0,0,1-4.108-3.4l-.1-.408a4.1,4.1,0,0,1,3.919-5.193l17.881.383a4.353,4.353,0,0,1,4.126,4.084,4.058,4.058,0,0,1-3.936,4.51" transform="translate(-196.423 -48.098)" fill="#ed8c6b"/>
              <path id="Trazado_212687" data-name="Trazado 212687" d="M250.223,83.515h0a3.755,3.755,0,0,0-3.6-3.342l-11.84-.431a3.753,3.753,0,0,0-3.852,3.217l-.136.948a3.754,3.754,0,0,0,3.878,4.285l11.976-.517a3.754,3.754,0,0,0,3.57-4.16" transform="translate(-197.126 -46.346)" fill="#ed8c6b"/>
              <path id="Trazado_212688" data-name="Trazado 212688" d="M248.171,88.612h0A3.25,3.25,0,0,0,245.2,86.15l-9.775-.163a2.8,2.8,0,0,0-2.756,3.066l.042,1.089a3.282,3.282,0,0,0,3.389,3.251l9.734-.928a2.922,2.922,0,0,0,2.334-3.854" transform="translate(-197.587 -44.72)" fill="#ed8c6b"/>
              <path id="Trazado_212689" data-name="Trazado 212689" d="M227.026,73l.009-.018a.36.36,0,0,1,.489-.147,6.5,6.5,0,0,0,2.51.525l15.74-.066a6.167,6.167,0,0,1,4.01,1.778,4.048,4.048,0,0,1,.878,3.191c-.507,4.733-7.221,4.382-7.639,4.354l-9.381.187c-.706.013-4.543-.092-5.526-.188a.361.361,0,1,1,.071-.718c.965.093,4.746.2,5.441.185l9.4-.187a.165.165,0,0,1,.035,0c.064.005,6.44.457,6.884-3.71a3.357,3.357,0,0,0-.708-2.645,5.508,5.508,0,0,0-3.478-1.526l-15.716.066a7.133,7.133,0,0,1-2.859-.61.363.363,0,0,1-.156-.471" transform="translate(-192.826 -48.153)"/>
              <path id="Trazado_212690" data-name="Trazado 212690" d="M230.156,88a.361.361,0,0,1,.362-.207c.954.093,6.71-.062,7.671-.127.9-.062,3.841-.149,3.966-.152.053,0,5.525-.229,5.426-3.772a2.762,2.762,0,0,0-2.1-2.611,7,7,0,0,0-2.176-.373.361.361,0,0,1-.011-.722c1.7-.028,4.927.706,5.01,3.686.095,3.409-3.965,4.442-6.126,4.513-.032,0-3.053.091-3.938.151-.9.062-6.75.228-7.789.126a.361.361,0,0,1-.325-.394.4.4,0,0,1,.033-.117" transform="translate(-194.378 -46.268)"/>
              <path id="Trazado_212691" data-name="Trazado 212691" d="M228,65.987a.36.36,0,0,1,.339-.208c.1,0,9.565.328,13.417.5,4.06.178,6.437,2.025,6.523,5.066.1,3.641-3.575,4.485-3.613,4.493a.361.361,0,0,1-.154-.7,3.836,3.836,0,0,0,3.045-3.768c-.074-2.653-2.145-4.2-5.832-4.365-3.849-.169-13.315-.493-13.41-.5a.362.362,0,0,1-.349-.373.375.375,0,0,1,.034-.14" transform="translate(-191.64 -49.978)"/>
              <rect id="Rectángulo_339587" data-name="Rectángulo 339587" width="305.405" height="12.991" transform="translate(0.736 96.64)" fill="#fff7da"/>
              <path id="Trazado_212692" data-name="Trazado 212692" d="M13.525,144.44h305.5c.381,0,.69-.563.69-1.26V130.188c0-.7-.309-1.26-.69-1.26H13.525c-.381,0-.689.563-.689,1.26V143.18c0,.7.308,1.26.689,1.26m304.81-2.52H14.215V131.448H318.335Z" transform="translate(-12.836 -33.547)" fill="#12263f"/>
            </g>
          </g>
        </g>
      </g>
    </g>
  </g>
</svg>
