<svg xmlns="http://www.w3.org/2000/svg" width="78" height="78" viewBox="0 0 78 78">
  <g id="Grupo_984409" data-name="Grupo 984409" transform="translate(4478 6551)">
    <circle id="Elipse_4900" data-name="Elipse 4900" cx="39" cy="39" r="39" transform="translate(-4478 -6551)" fill="#6b8dfc"/>
    <g id="Grupo_984408" data-name="Grupo 984408" transform="translate(-4466 -6537)">
      <g id="Grupo_983936" data-name="Grupo 983936" transform="translate(0 -0.001)">
        <path id="Trazado_210785" data-name="Trazado 210785" d="M98.129,15.313c-.141.319-.258.653-.429.955a3.166,3.166,0,0,1-2.095,1.581.523.523,0,0,0-.416.37A6.593,6.593,0,0,1,88.8,22.578c-1.379,0-2.758.006-4.138,0a6.608,6.608,0,0,1-6.308-4.329.569.569,0,0,0-.445-.4,3.27,3.27,0,0,1-2.473-3.612,1.953,1.953,0,0,1,2.093-1.857c.393.027.4-.117.4-.409-.007-2.333-.016-4.666,0-7A4.775,4.775,0,0,1,81.674.139,5.769,5.769,0,0,1,82.94.01q3.831-.017,7.662,0a4.788,4.788,0,0,1,4.921,3.951,6.412,6.412,0,0,1,.072,1.17q.009,3.422,0,6.845c0,.306.02.434.407.4a1.9,1.9,0,0,1,2.029,1.5c.02.077-.007.174.1.209Z" transform="translate(-45.796 0.001)"/>
        <path id="Trazado_210786" data-name="Trazado 210786" d="M69.33,74.6c.664-.1.858,0,1.124.585a9.349,9.349,0,0,1,.811,3.866c0,.8,0,1.6,0,2.4,0,.166-.026.329.153.45a2.924,2.924,0,0,1,.168,4.146,1.1,1.1,0,0,0-.327.906c.013,1.278.008,2.555,0,3.833,0,.759-.262,1.028-1.009,1.029q-9.175,0-18.349,0c-.753,0-1.01-.263-1.013-1.021-.006-1.312-.009-2.624,0-3.935a1.029,1.029,0,0,0-.291-.768,3.158,3.158,0,0,1-.76-2.985,1.559,1.559,0,0,1,.636-1.016.881.881,0,0,0,.418-.886,19.187,19.187,0,0,1,.251-4.425,9.07,9.07,0,0,1,8.4-6.922,16.234,16.234,0,0,1,5.076.31,9.02,9.02,0,0,1,3.586,1.974c.491.442.522.664.2,1.241a.713.713,0,0,1-1.1.172c-.254-.17-.475-.385-.72-.569a6.985,6.985,0,0,0-4.372-1.447c-.986.01-1.973,0-2.959,0a7.325,7.325,0,0,0-5.006,2.661,8.064,8.064,0,0,0-1.738,5.475c0,.131-.053.384.2.294A7.761,7.761,0,0,1,54.4,79.8c1-.129,1.98-.333,2.965-.528a19.709,19.709,0,0,0,5.915-2.159,6.983,6.983,0,0,0,.94-.7c.718-.606,1.221-.525,1.7.273a8.507,8.507,0,0,0,2.137,2.57,4.329,4.329,0,0,0,1.17.609c.289.1.409.041.407-.278a9.306,9.306,0,0,0-.533-3.3,2.5,2.5,0,0,1-.272-.871c0-.366.021-.734.5-.809" transform="translate(-30.207 -42.391)"/>
        <path id="Trazado_210787" data-name="Trazado 210787" d="M15.214,17a.772.772,0,0,1,.839-.6q2.937-.009,5.875,0c.465,0,.839.226.842.707a16.746,16.746,0,0,1-.217,4.373,7.7,7.7,0,0,1-2.994,4.428.752.752,0,0,0-.35.714c.021.9.006,1.805.008,2.707,0,.159-.056.311.234.328a2.107,2.107,0,0,1,2.075,2.9,3.031,3.031,0,0,1-2.212,2.314.762.762,0,0,0-.544.505,6.174,6.174,0,0,1-5.759,4c-1.48.054-2.965.06-4.443,0A6.144,6.144,0,0,1,2.849,35.4a.81.81,0,0,0-.587-.533,3.121,3.121,0,0,1-2.184-3.7,1.81,1.81,0,0,1,1.9-1.51c.351.009.45-.087.408-.411a2.494,2.494,0,0,1,0-.46A1.188,1.188,0,0,0,1.842,27.5a1.7,1.7,0,0,1-.669-1.53c0-1.209-.034-2.419.01-3.626a3.4,3.4,0,0,1,3.5-3.375q1.1-.018,2.2,0a.5.5,0,0,0,.524-.282,4.357,4.357,0,0,1,3.946-2.287c.408-.008.817,0,1.226,0,.721,0,.875.112,1.121.787.092.517-.242.7-.646.834a21.13,21.13,0,0,0-2.288.117A2.683,2.683,0,0,0,8.522,20.8Q8.5,21.9,8.522,23a2.673,2.673,0,0,0,2.79,2.747c.255,0,.51.007.765-.005.987,0,1.974,0,2.96,0a6.177,6.177,0,0,0,5.968-5.048,11.138,11.138,0,0,0,.1-1.932c0-.673-.022-.7-.678-.7-1.327,0-2.654,0-3.981,0a4.176,4.176,0,0,1-.561-.018c-.606-.082-.826-.422-.674-1.036" transform="translate(0 -9.959)"/>
        <path id="Trazado_210788" data-name="Trazado 210788" d="M31.7,17.938c0,.71.22.927.949.928,1.547,0,3.094.011,4.641-.007.353,0,.451.093.461.452a7.516,7.516,0,0,1-.98,4.554,6.155,6.155,0,0,1-5.12,2.963c-1.035.039-2.073-.006-3.109-.013a2.95,2.95,0,0,1-1.352-2.445c-.072-.983-.029-1.974-.012-2.961a3.379,3.379,0,0,1,.72-1.932,1.161,1.161,0,0,1,1.159-.586,1,1,0,0,0,.5-.029.986.986,0,0,0,.616-.739c.366,0,.733-.009,1.1,0a.4.4,0,0,0,.423-.188" transform="translate(-16.487 -10.892)" fill="#a97a63"/>
        <path id="Trazado_210789" data-name="Trazado 210789" d="M80.929,76.981a.816.816,0,0,0-.3,1.146,8.989,8.989,0,0,1,.692,4.393,5.561,5.561,0,0,1-3.43-2.617c-.21-.309-.387-.64-.587-.956a.74.74,0,0,0-1.209-.209c-2,1.738-4.469,2.382-6.945,3.014a.657.657,0,0,1-.152,0,.7.7,0,0,1-.141-.574,18.37,18.37,0,0,1,.922-5.64,6.459,6.459,0,0,1,.623-1.332.92.92,0,0,1,.435-.408,19.627,19.627,0,0,1,4.517.116A7.046,7.046,0,0,1,78.8,75.674a.84.84,0,0,0,1.222.092l.91,1.215" transform="translate(-41.807 -44.77)" fill="#dc636e"/>
        <path id="Trazado_210790" data-name="Trazado 210790" d="M27.453,89.069c.014.784-.509,1.123-1.107.894a21,21,0,0,1-4.532-2.414A21.938,21.938,0,0,1,13.7,77.114c-.03-.079-.058-.16-.083-.241a.766.766,0,1,1,1.43-.538c.182.42.329.856.516,1.274A20.384,20.384,0,0,0,26.725,88.462c.376.157.72.327.727.606" transform="translate(-8.238 -46.023)"/>
        <path id="Trazado_210791" data-name="Trazado 210791" d="M48.37,3.307a20.561,20.561,0,0,1,4.708.511c.551.125.8.464.7.932a.773.773,0,0,1-1.027.557A20.458,20.458,0,0,0,37.9,7.684a1,1,0,0,1-.813.21.747.747,0,0,1-.566-.656.784.784,0,0,1,.448-.79,21.912,21.912,0,0,1,4.917-2.19,21.658,21.658,0,0,1,6.486-.95" transform="translate(-22.173 -2.008)"/>
        <path id="Trazado_210792" data-name="Trazado 210792" d="M112.658,59.067a22.1,22.1,0,0,1-5.148,13.443.794.794,0,0,1-1.16.2c-.361-.3-.37-.758.011-1.217a20.525,20.525,0,0,0,4.306-8.849,19.984,19.984,0,0,0,.458-4.051c.007-.678.291-1.043.79-1.029s.748.376.742,1.068c0,.119,0,.238,0,.433" transform="translate(-64.415 -34.956)"/>
        <path id="Trazado_210793" data-name="Trazado 210793" d="M93.526,18.419c.425.309.853.615,1.274.93a4.344,4.344,0,0,0,5.561.035c.357-.262.7-.546,1.052-.809a2.206,2.206,0,0,1,3.508,1.752c-.073,2.108-.02,4.221-.025,6.331A5.094,5.094,0,0,1,99.5,32.02c-1.072,0-2.144-.012-3.216-.018A3.689,3.689,0,0,1,94.5,30.56a6.513,6.513,0,0,1-1.125-5.16c.091-.108.216-.075.332-.079A.5.5,0,0,0,94,25.257a1.323,1.323,0,0,0,.4-1.346c-.043-.409-.206-.764-.7-.8a.408.408,0,0,1-.32-.133.827.827,0,0,1-.105-.439c-.013-1.215-.017-2.429,0-3.644,0-.184-.033-.425.251-.478" transform="translate(-56.631 -10.975)" fill="#c28859"/>
        <path id="Trazado_210794" data-name="Trazado 210794" d="M102.038,4.024a3.135,3.135,0,0,1,2.829,2.7c.063.635.011,1.282.011,1.972a5.057,5.057,0,0,0-1.718-.676,3.509,3.509,0,0,0-2.744.836c-.357.287-.72.568-1.1.828a2.793,2.793,0,0,1-3.535-.077A8.718,8.718,0,0,0,93.44,8.1a1.324,1.324,0,0,1-.157-.931,4.23,4.23,0,0,1,1.026-2.705,1.147,1.147,0,0,1,.914-.476q3.335,0,6.669,0a.4.4,0,0,1,.146.038" transform="translate(-56.638 -2.419)" fill="#365e7c"/>
        <path id="Trazado_210795" data-name="Trazado 210795" d="M88.823,25.344a13.352,13.352,0,0,0,.134,2.941A6.011,6.011,0,0,0,91.68,32a5.216,5.216,0,0,1-6-5.31c-.008-2.278,0-4.557-.007-6.836a.922.922,0,0,1,.265-.683,3.5,3.5,0,0,1,1.2-.923,1.658,1.658,0,0,1,1.777.168c-.11.084-.1.206-.1.324V22.7c0,.119,0,.239.111.319a.251.251,0,0,1-.044.236,1.616,1.616,0,0,0-.127,1.708.488.488,0,0,1,.066.384" transform="translate(-52.023 -10.971)" fill="#b0794a"/>
        <path id="Trazado_210796" data-name="Trazado 210796" d="M97.4,3.915c-2.06,0-4.121.058-6.179-.01a1.926,1.926,0,0,0-1.86,1.13A5,5,0,0,0,88.8,7.989a3.665,3.665,0,0,0-3.057.62c-.474-2.467.57-4.65,3.192-4.75,2.688-.1,5.382-.027,8.074-.027a.545.545,0,0,1,.39.084" transform="translate(-52 -2.31)" fill="#2b4d66"/>
        <path id="Trazado_210797" data-name="Trazado 210797" d="M126.789,37.682c0-.6,0-1.157,0-1.713,0-.335.149-.571.5-.572s.445.26.488.548a1.673,1.673,0,0,1-.992,1.737" transform="translate(-76.991 -21.494)" fill="#ac7748"/>
        <path id="Trazado_210798" data-name="Trazado 210798" d="M80.252,37.659a1.664,1.664,0,0,1-.927-1.876.447.447,0,0,1,.465-.385.421.421,0,0,1,.46.436c.006.6,0,1.2,0,1.826" transform="translate(-48.139 -21.494)" fill="#af7949"/>
        <path id="Trazado_210799" data-name="Trazado 210799" d="M67.71,94.055a38.72,38.72,0,0,0,4.356-1.228,14.448,14.448,0,0,0,3.28-1.613c.249-.174.352-.117.507.11a7.668,7.668,0,0,0,3.129,2.843c.115.052.2.115.2.262a29.533,29.533,0,0,1-.139,4.837,4.953,4.953,0,0,1-4.636,3.9c-1.274.079-2.549.021-3.823.028a.728.728,0,0,1-.43-.143,5.859,5.859,0,0,1-2.425-3.7c.011-.172.144-.247.26-.344.4-.336.4-.615-.011-.93-.117-.091-.266-.145-.339-.289a.621.621,0,0,1,.1-.685c.808.063,1.031-.082,1.148-.746a1.161,1.161,0,0,0-.891-1.456c-.131-.033-.271-.045-.35-.179a.622.622,0,0,1,.072-.662" transform="translate(-41.035 -55.326)" fill="#fedccd"/>
        <path id="Trazado_210800" data-name="Trazado 210800" d="M63.345,73.912a9.545,9.545,0,0,0-1.519,4.062,20.989,20.989,0,0,0-.32,3.892,19.881,19.881,0,0,1-3.556.611,3.43,3.43,0,0,0-1.39.245c-.505-5.792,3.654-8.592,6.785-8.809" transform="translate(-34.32 -44.882)" fill="#ca5769"/>
        <path id="Trazado_210801" data-name="Trazado 210801" d="M63.246,103.812a6.172,6.172,0,0,0,2.376,3.659,1.181,1.181,0,0,0,.757.225c1.152,0,2.305.009,3.457.016a.757.757,0,0,1-.194.053c-1.7,0-3.409.105-5.106-.058a5.029,5.029,0,0,1-4.459-4.8c-.029-1.174,0-2.35-.019-3.525,0-.281.078-.361.36-.393.911-.1,1.818-.249,2.726-.379q0,.358,0,.716a.323.323,0,0,1-.119.093c-.68.3-.683.309-.137.768.068.057.14.121.141.2,0,.437.206.843.188,1.282-.138.223-.047.468-.067.7-.156.108-.329.044-.493.043a1.713,1.713,0,0,0-.788.162c-.22.11-.413.253-.4.535a.557.557,0,0,0,.408.472,1.652,1.652,0,0,0,.887.16c.166-.025.337-.072.479.07" transform="translate(-36.47 -59.876)" fill="#fecabd"/>
        <path id="Trazado_210802" data-name="Trazado 210802" d="M97.148,113.994q0,1.439,0,2.877c0,.219-.153.231-.317.23-.594,0-1.188,0-1.937,0a7.016,7.016,0,0,0,2.122-3.142l.132.036" transform="translate(-57.623 -69.199)" fill="#d8616b"/>
        <path id="Trazado_210803" data-name="Trazado 210803" d="M58.812,117.138c-.762,0-1.369,0-1.976,0-.187,0-.288-.068-.288-.265,0-.944,0-1.889.067-2.856a7.909,7.909,0,0,0,2.2,3.119" transform="translate(-34.339 -69.236)" fill="#c65566"/>
        <path id="Trazado_210804" data-name="Trazado 210804" d="M101.015,106.082c0-.643-.006-1.216,0-1.789a.454.454,0,0,1,.459-.5c.326-.022.446.19.507.462a1.741,1.741,0,0,1-.969,1.832" transform="translate(-61.339 -63.023)" fill="#f9c6b9"/>
        <path id="Trazado_210805" data-name="Trazado 210805" d="M54.624,106.034a1.615,1.615,0,0,1-.94-1.889.44.44,0,0,1,.485-.356.452.452,0,0,1,.45.461c.008.084,0,.17,0,.255v1.528" transform="translate(-32.561 -63.024)" fill="#f9c6ba"/>
        <path id="Trazado_210806" data-name="Trazado 210806" d="M17.149,43.422a5.847,5.847,0,0,0,1.48-1.07c.134-.15.23-.123.377-.016a4.545,4.545,0,0,0,2.89.809c.954-.026,1.908-.017,2.862,0a8.163,8.163,0,0,0,2.917-.393c.261-.093.319-.026.317.234-.011,2.044.042,4.09-.029,6.132a4.725,4.725,0,0,1-4.481,4.424c-1.225.038-2.452,0-3.677,0A4.391,4.391,0,0,1,17.63,51.36a4.3,4.3,0,0,1-.589-2.287,1.184,1.184,0,0,0-.011-.928,1.6,1.6,0,0,1,.057-.794c.029-.042.068-.086.119-.083a.717.717,0,0,0,.815-.531,1.411,1.411,0,0,0-.173-1.353c-.178-.244-.52-.139-.725-.333a2.108,2.108,0,0,1,.027-1.629" transform="translate(-10.306 -25.654)" fill="#fedccd"/>
        <path id="Trazado_210807" data-name="Trazado 210807" d="M12.875,50.854a5.436,5.436,0,0,0,2.256,4.2c.133.1.27.2.406.3-2.781.2-4.9-1.249-5.463-3.76a5.8,5.8,0,0,1-.12-1.216c-.014-1.43,0-2.86-.013-4.291,0-.337.057-.492.438-.467a6.2,6.2,0,0,0,2.5-.382,5.165,5.165,0,0,0,.11,1.639,3.236,3.236,0,0,0-.287,1.4c.039.284.243.525.185.825q0,.471-.007.941c-.187.071-.321-.067-.472-.126a1.591,1.591,0,0,0-1.235.015c-.223.094-.453.2-.459.483s.225.406.441.5a1.739,1.739,0,0,0,1.239.034c.158-.047.3-.167.482-.095" transform="translate(-6.036 -27.47)" fill="#fecabd"/>
        <path id="Trazado_210808" data-name="Trazado 210808" d="M26.022,20.289c-.06.028-.125.087-.179.079-1.112-.168-1.456.679-1.833,1.428a2.616,2.616,0,0,0-.24,1.238c.018.8.026,1.6,0,2.4A3.554,3.554,0,0,0,24.813,28c.068.075.126.158.19.238a3.224,3.224,0,0,1-2.873-.841,2.812,2.812,0,0,1-.8-1.934c-.016-.732-.008-1.465,0-2.2a2.869,2.869,0,0,1,2.908-2.976c.6-.017,1.192,0,1.788-.005" transform="translate(-12.946 -12.318)" fill="#976b54"/>
        <path id="Trazado_210809" data-name="Trazado 210809" d="M13.2,26.934c.009.8.026,1.6.024,2.4a4.049,4.049,0,0,0,.463,2.016.449.449,0,0,1-.125.649,2.894,2.894,0,0,1-1.847.875c-1.2.146-1.205.146-1.205-1.05,0-.986,0-1.972,0-2.959a2.966,2.966,0,0,1,.422-1.555.767.767,0,0,1,.752-.427,9.287,9.287,0,0,1,1.518.054" transform="translate(-6.382 -16.319)" fill="#a97963"/>
        <path id="Trazado_210810" data-name="Trazado 210810" d="M10.946,26.839c-.46,0-.921.02-1.379-.006A.758.758,0,0,0,8.8,27.3a2.928,2.928,0,0,0-.385,1.458c.012,1.141.027,2.283-.007,3.423-.015.475.13.655.6.588a2.681,2.681,0,0,1,.459.01,7.565,7.565,0,0,1-2.126.046.547.547,0,0,1-.5-.608,32.368,32.368,0,0,1,.05-3.875A1.59,1.59,0,0,1,8,26.936a6.481,6.481,0,0,1,2.95-.1" transform="translate(-4.126 -16.224)" fill="#976a53"/>
        <path id="Trazado_210811" data-name="Trazado 210811" d="M48.925,56.152c0-.608,0-1.117,0-1.625,0-.275.1-.465.4-.482s.408.179.436.447a1.65,1.65,0,0,1-.836,1.659" transform="translate(-29.708 -32.818)" fill="#fbc8bb"/>
        <path id="Trazado_210812" data-name="Trazado 210812" d="M4.745,56.138a1.654,1.654,0,0,1-.835-1.652c.027-.255.133-.459.445-.443s.39.214.39.482c0,.507,0,1.014,0,1.614" transform="translate(-2.367 -32.815)" fill="#fcc9bc"/>
        <path id="Trazado_210813" data-name="Trazado 210813" d="M101.506,42.8a2.333,2.333,0,0,0-1.573.6.779.779,0,0,0-.145,1.092.751.751,0,0,0,1.088.1.857.857,0,0,1,1.193.008.741.741,0,0,0,1.084-.122A.753.753,0,0,0,103,43.39a2.3,2.3,0,0,0-1.491-.592" transform="translate(-60.496 -25.988)"/>
        <path id="Trazado_210814" data-name="Trazado 210814" d="M93.1,32.909a1.756,1.756,0,0,1,.106-2.328.622.622,0,0,1,.859.386,1.79,1.79,0,0,1-.042,1.7.58.58,0,0,1-.922.245" transform="translate(-56.295 -18.536)" fill="#010100"/>
        <path id="Trazado_210815" data-name="Trazado 210815" d="M113.512,31.783c0,.723-.343,1.265-.777,1.243-.416-.021-.768-.63-.747-1.292s.369-1.223.771-1.225c.423,0,.756.561.753,1.274" transform="translate(-68.003 -18.526)"/>
        <path id="Trazado_210816" data-name="Trazado 210816" d="M75.855,111.221a2.261,2.261,0,0,0-1.536.614.77.77,0,0,0-.1,1.056.729.729,0,0,0,1.045.13.811.811,0,0,1,1.141-.007.736.736,0,0,0,1.049-.112.764.764,0,0,0-.088-1.057,2.246,2.246,0,0,0-1.506-.623" transform="translate(-44.966 -67.537)" fill="#010000"/>
        <path id="Trazado_210817" data-name="Trazado 210817" d="M87.16,100.5c.072,0,.26,0,.445.027a.407.407,0,0,1,.393.4c.019.251-.087.459-.348.476-.309.02-.331.171-.328.427a1.493,1.493,0,0,1-.3.954.558.558,0,0,1-.945.015,1.889,1.889,0,0,1-.015-2.014c.262-.338.627-.278,1.094-.283" transform="translate(-52.091 -61.024)" fill="#010101"/>
        <path id="Trazado_210818" data-name="Trazado 210818" d="M66.677,102.775a3.953,3.953,0,0,1-.26-.654c-.071-.343.1-.789-.494-.849-.142-.015-.178-.232-.163-.392a.378.378,0,0,1,.294-.37c.18-.041.366-.055.55-.081a1.34,1.34,0,0,1,1.18,2.046c-.25.568-.591.661-1.108.3" transform="translate(-39.931 -60.983)" fill="#010101"/>
        <path id="Trazado_210819" data-name="Trazado 210819" d="M65.175,109.475a2.232,2.232,0,0,1-1.482-.12.7.7,0,0,1-.457-.617c-.015-.326.21-.489.46-.61a1.726,1.726,0,0,1,1.382-.1c.351.109.672.252.716.681.048.458-.331.573-.619.761" transform="translate(-38.399 -65.539)" fill="#e9a598"/>
        <path id="Trazado_210820" data-name="Trazado 210820" d="M88.7,107.952a1.548,1.548,0,0,1,1.035.353.591.591,0,0,1-.014.93,1.9,1.9,0,0,1-2.142-.038.54.54,0,0,1-.007-.852,1.51,1.51,0,0,1,1.129-.393" transform="translate(-53.05 -65.552)" fill="#e9a598"/>
        <path id="Trazado_210821" data-name="Trazado 210821" d="M24.707,60.813a2.2,2.2,0,0,0-1.485.6.751.751,0,0,0-.1,1.093.732.732,0,0,0,1.051.092.784.784,0,0,1,1.1-.005.735.735,0,0,0,1.086-.119.777.777,0,0,0-.16-1.09,2.194,2.194,0,0,0-1.487-.566" transform="translate(-13.923 -36.927)" fill="#010000"/>
        <path id="Trazado_210822" data-name="Trazado 210822" d="M13.788,57.677a1.8,1.8,0,0,1-1.968.087c-.516-.3-.5-.771.027-1.051a1.688,1.688,0,0,1,1.945.15.667.667,0,0,1,0,.813" transform="translate(-6.949 -34.293)" fill="#e9a498"/>
        <path id="Trazado_210823" data-name="Trazado 210823" d="M38.443,58.027a1.259,1.259,0,0,1-1.12-.422.477.477,0,0,1,.084-.752,1.882,1.882,0,0,1,1.831-.146c.223.13.429.289.4.6a.656.656,0,0,1-.479.6,1.538,1.538,0,0,1-.72.128" transform="translate(-22.575 -34.33)" fill="#e9a598"/>
        <path id="Trazado_210824" data-name="Trazado 210824" d="M34.814,50.494c0-.679.311-1.189.721-1.185s.727.535.725,1.193-.335,1.194-.733,1.191-.713-.532-.713-1.2" transform="translate(-21.14 -29.942)" fill="#010101"/>
        <path id="Trazado_210825" data-name="Trazado 210825" d="M16.884,51.573a1.707,1.707,0,0,1,.1-2.223.652.652,0,0,1,.861.481,1.67,1.67,0,0,1-.089,1.507.551.551,0,0,1-.875.235" transform="translate(-10.033 -29.944)" fill="#010101"/>
      </g>
    </g>
  </g>
</svg>
