<svg xmlns="http://www.w3.org/2000/svg" width="400" height="293" viewBox="0 0 400 293">
  <g id="Grupo_984614" data-name="Grupo 984614" transform="translate(-180 -1000)">
    <path id="Trazado_212714" data-name="Trazado 212714" d="M17,0H383a17,17,0,0,1,17,17V276a17,17,0,0,1-17,17H17A17,17,0,0,1,0,276V17A17,17,0,0,1,17,0Z" transform="translate(180 1000)" fill="#fff7da"/>
    <path id="Trazado_212715" data-name="Trazado 212715" d="M73.365,42l4.941-28.437,8.164.02a11.182,11.182,0,0,1,5.166,1.3,9.763,9.763,0,0,1,3.721,3.564,12.207,12.207,0,0,1,1.719,5.234,17.277,17.277,0,0,1-.039,3.477L96.9,28.191a16.243,16.243,0,0,1-4.912,10.029A13.9,13.9,0,0,1,82.154,42Zm9.844-23.691-3.3,18.984,2.383.02a7.818,7.818,0,0,0,6.338-2.891q2.393-2.891,2.744-8.73l.039-.625a7.877,7.877,0,0,0-1.23-4.941,4.7,4.7,0,0,0-3.848-1.8Zm25.254,24.082a9.193,9.193,0,0,1-4.912-1.357,8.23,8.23,0,0,1-3.193-3.672,10.234,10.234,0,0,1-.82-5.146l.059-.781a13.662,13.662,0,0,1,1.8-5.664,10.853,10.853,0,0,1,3.867-3.975,9.568,9.568,0,0,1,5.234-1.318,7.311,7.311,0,0,1,6.182,3,10.292,10.292,0,0,1,1.592,7.4l-.312,2.406H105.006a4.535,4.535,0,0,0,1,3.281,3.8,3.8,0,0,0,2.93,1.27,6.757,6.757,0,0,0,5.273-2.344l2.52,3.125a7.838,7.838,0,0,1-3.437,2.8A11.241,11.241,0,0,1,108.463,42.391Zm1.758-17.363a3.913,3.913,0,0,0-2.705.957,8.408,8.408,0,0,0-2.119,3.457h7.578l.117-.508a5.177,5.177,0,0,0,.02-1.484,2.835,2.835,0,0,0-.957-1.768A3,3,0,0,0,110.221,25.027ZM120.924,42l2.949-16.992h-3.066l.742-4.141H124.4l.176-1.016a9.932,9.932,0,0,1,3.379-6.162,10.241,10.241,0,0,1,6.816-2.139,16.588,16.588,0,0,1,3.174.381q1.553.342,3.1.771L139.85,17.41a16.094,16.094,0,0,0-4.98-.977,5.2,5.2,0,0,0-3.184.928,4.262,4.262,0,0,0-1.621,2.607l-.176.9h4.277l-.742,4.141H129.4L126.451,42Zm17.793,0H133.17l3.672-21.133h5.527Zm13.4-21.152-.469,2.5a7.6,7.6,0,0,1,6.152-2.871,5.07,5.07,0,0,1,4.414,2.188,8.814,8.814,0,0,1,1.035,5.9L161.021,42h-5.508l2.266-13.5a6.319,6.319,0,0,0,.039-1.387,2.237,2.237,0,0,0-2.5-2.051,4.74,4.74,0,0,0-3.887,2.012L148.795,42h-5.508l3.672-21.133ZM171.158,42h-5.547l3.672-21.133h5.547Zm-1.23-26.5a2.751,2.751,0,0,1,.859-2.168,3.307,3.307,0,0,1,4.336-.1,2.739,2.739,0,0,1,.957,2.07,2.829,2.829,0,0,1-.811,2.109,3.038,3.038,0,0,1-2.217.938,3.088,3.088,0,0,1-2.158-.742A2.727,2.727,0,0,1,169.928,15.5Zm14.609,5.352-.469,2.5a7.6,7.6,0,0,1,6.152-2.871,5.07,5.07,0,0,1,4.414,2.188,8.814,8.814,0,0,1,1.035,5.9L193.443,42h-5.508L190.2,28.5a6.319,6.319,0,0,0,.039-1.387,2.237,2.237,0,0,0-2.5-2.051,4.74,4.74,0,0,0-3.887,2.012L181.217,42h-5.508l3.672-21.133Zm14.277,10.566a14.622,14.622,0,0,1,3.193-7.959,8.1,8.1,0,0,1,6.572-3,5.926,5.926,0,0,1,5.039,2.441l.723-2.051,5.059.02-3.457,20.41a9.958,9.958,0,0,1-3.594,6.68,11.178,11.178,0,0,1-7.5,2.383,10.421,10.421,0,0,1-4.18-.947,8.938,8.938,0,0,1-3.281-2.49l2.734-3.359a5.872,5.872,0,0,0,4.609,2.4,5.414,5.414,0,0,0,3.672-1.123,6.01,6.01,0,0,0,2.07-3.389l.313-1.27a6.872,6.872,0,0,1-5.176,2.227,6.07,6.07,0,0,1-4.9-2.295,9.867,9.867,0,0,1-1.992-5.869A19.724,19.724,0,0,1,198.814,31.414Zm5.41,2.318A5.051,5.051,0,0,0,205,36.676a2.7,2.7,0,0,0,2.236,1.164,4.931,4.931,0,0,0,3.984-1.917l1.641-8.959a3.24,3.24,0,0,0-3.105-1.917,4.32,4.32,0,0,0-3.574,1.7,8.9,8.9,0,0,0-1.836,4.675A20.537,20.537,0,0,0,204.225,33.732Z" transform="translate(235 1038)" fill="#12263f"/>
    <path id="Trazado_212716" data-name="Trazado 212716" d="M12.76,31.59H8.111L6.295,42H.572L5.514,13.563l9.414.02q4.727,0,7.275,2.227A7.043,7.043,0,0,1,24.459,22q-.41,5.859-6.25,8.145l4,11.543V42H16.119ZM8.932,26.844l4.258.039a5.965,5.965,0,0,0,3.74-1.221A4.832,4.832,0,0,0,18.7,22.449a3.682,3.682,0,0,0-.605-2.969A3.605,3.605,0,0,0,15.3,18.328l-4.883-.02ZM35.221,42.391a9.193,9.193,0,0,1-4.912-1.357,8.23,8.23,0,0,1-3.193-3.672,10.234,10.234,0,0,1-.82-5.146l.059-.781a13.662,13.662,0,0,1,1.8-5.664,10.853,10.853,0,0,1,3.867-3.975,9.568,9.568,0,0,1,5.234-1.318,7.311,7.311,0,0,1,6.182,3,10.292,10.292,0,0,1,1.592,7.4l-.312,2.406H31.764a4.535,4.535,0,0,0,1,3.281,3.8,3.8,0,0,0,2.93,1.27A6.757,6.757,0,0,0,40.963,35.5l2.52,3.125a7.838,7.838,0,0,1-3.437,2.8A11.241,11.241,0,0,1,35.221,42.391Zm1.758-17.363a3.913,3.913,0,0,0-2.705.957,8.408,8.408,0,0,0-2.119,3.457h7.578l.117-.508a5.177,5.177,0,0,0,.02-1.484,2.835,2.835,0,0,0-.957-1.768A3,3,0,0,0,36.979,25.027ZM52.174,42H46.627l5.215-30h5.527Zm16.895,0a5.7,5.7,0,0,1-.215-1.914,7.157,7.157,0,0,1-5.391,2.3,6.486,6.486,0,0,1-4.6-1.807,5.466,5.466,0,0,1-1.709-4.365,6.318,6.318,0,0,1,2.9-5.3,13.165,13.165,0,0,1,7.412-1.846l2.578.039.273-1.27a4.409,4.409,0,0,0,.059-1.23,2.115,2.115,0,0,0-.693-1.436,2.388,2.388,0,0,0-1.572-.537,3.364,3.364,0,0,0-2.187.635,3.077,3.077,0,0,0-1.152,1.943l-5.527.02a6.143,6.143,0,0,1,2.783-4.912,10.779,10.779,0,0,1,6.533-1.846,7.792,7.792,0,0,1,5.625,2.139,6.257,6.257,0,0,1,1.7,5.3L74.264,38.035l-.1,1.25a6.03,6.03,0,0,0,.332,2.344l-.02.371ZM64.83,38.113a5.044,5.044,0,0,0,4.16-2.07l.684-3.652-1.914-.02a5.347,5.347,0,0,0-4.395,1.855,3.23,3.23,0,0,0-.605,1.582,1.875,1.875,0,0,0,.439,1.67A2.226,2.226,0,0,0,64.83,38.113ZM89.01,15.672l-.918,5.2h3.516l-.723,4.141H87.369l-1.8,10.586a2.692,2.692,0,0,0,.156,1.523q.273.527,1.328.566.313.02,1.68-.1L88.346,41.9a9.264,9.264,0,0,1-3.164.449,4.964,4.964,0,0,1-4.043-1.7,6.139,6.139,0,0,1-1.094-4.492l1.816-11.152H78.873l.723-4.141h2.988l.9-5.2ZM96.959,42H91.412l3.672-21.133h5.547Zm-1.23-26.5a2.751,2.751,0,0,1,.859-2.168,3.307,3.307,0,0,1,4.336-.1,2.739,2.739,0,0,1,.957,2.07,2.829,2.829,0,0,1-.811,2.109,3.038,3.038,0,0,1-2.217.938,3.088,3.088,0,0,1-2.158-.742A2.727,2.727,0,0,1,95.729,15.5Zm14.785,19.531,6.016-14.16h5.938L112.252,42h-5.273l-3.613-21.133h5.586Zm20.957,7.363a9.193,9.193,0,0,1-4.912-1.357,8.23,8.23,0,0,1-3.193-3.672,10.234,10.234,0,0,1-.82-5.146l.059-.781a13.662,13.662,0,0,1,1.8-5.664,10.853,10.853,0,0,1,3.867-3.975,9.568,9.568,0,0,1,5.234-1.318,7.311,7.311,0,0,1,6.182,3,10.292,10.292,0,0,1,1.592,7.4l-.312,2.406H128.014a4.535,4.535,0,0,0,1,3.281,3.8,3.8,0,0,0,2.93,1.27,6.757,6.757,0,0,0,5.273-2.344l2.52,3.125a7.838,7.838,0,0,1-3.437,2.8A11.241,11.241,0,0,1,131.471,42.391Zm1.758-17.363a3.913,3.913,0,0,0-2.705.957,8.408,8.408,0,0,0-2.119,3.457h7.578l.117-.508a5.177,5.177,0,0,0,.02-1.484,2.835,2.835,0,0,0-.957-1.768A3,3,0,0,0,133.229,25.027ZM176,32.508a10.635,10.635,0,0,1-2.012,5.225,10.937,10.937,0,0,1-4.375,3.5,13.322,13.322,0,0,1-5.82,1.162,9.84,9.84,0,0,1-4.9-1.3A8.609,8.609,0,0,1,155.6,37.5a13.281,13.281,0,0,1-1.357-5.42,26.585,26.585,0,0,1,.5-5.977,18.946,18.946,0,0,1,2.266-6.348,14.164,14.164,0,0,1,3.877-4.395,11.7,11.7,0,0,1,7.227-2.187,9.6,9.6,0,0,1,7,2.725,10.961,10.961,0,0,1,2.842,7.354l-5.7-.02a5.977,5.977,0,0,0-1.074-3.945,4.381,4.381,0,0,0-3.34-1.328,5.8,5.8,0,0,0-4.814,2.09,12.568,12.568,0,0,0-2.529,6.387,35.388,35.388,0,0,0-.547,6.113,6.085,6.085,0,0,0,1.152,3.8,3.857,3.857,0,0,0,2.949,1.279,5.889,5.889,0,0,0,4.189-1.24,6.562,6.562,0,0,0,2.08-3.838ZM183.873,42h-5.547l5.215-30h5.527Zm16.895,0a5.7,5.7,0,0,1-.215-1.914,7.157,7.157,0,0,1-5.391,2.3,6.486,6.486,0,0,1-4.6-1.807,5.466,5.466,0,0,1-1.709-4.365,6.318,6.318,0,0,1,2.9-5.3,13.165,13.165,0,0,1,7.412-1.846l2.578.039.273-1.27a4.409,4.409,0,0,0,.059-1.23,2.115,2.115,0,0,0-.693-1.436,2.388,2.388,0,0,0-1.572-.537,3.364,3.364,0,0,0-2.187.635,3.077,3.077,0,0,0-1.152,1.943l-5.527.02a6.143,6.143,0,0,1,2.783-4.912,10.779,10.779,0,0,1,6.533-1.846,7.792,7.792,0,0,1,5.625,2.139,6.257,6.257,0,0,1,1.7,5.3l-1.621,10.117-.1,1.25a6.03,6.03,0,0,0,.332,2.344l-.02.371Zm-4.238-3.887a5.044,5.044,0,0,0,4.16-2.07l.684-3.652-1.914-.02a5.347,5.347,0,0,0-4.395,1.855,3.23,3.23,0,0,0-.605,1.582,1.875,1.875,0,0,0,.439,1.67A2.226,2.226,0,0,0,196.529,38.113Zm26.094,1.7a7.3,7.3,0,0,1-5.82,2.578,5.43,5.43,0,0,1-4.609-2.187,8,8,0,0,1-1.211-5.664l2.285-13.672h5.508l-2.324,13.746a5.437,5.437,0,0,0-.02,1.212A2.009,2.009,0,0,0,218.6,37.84a5.034,5.034,0,0,0,4.238-1.975l2.637-15h5.547L227.35,42h-5.137Zm21.074-3.77q.312-1.563-2.168-2.266l-1.777-.449q-6.309-1.738-6.133-6.133a6.069,6.069,0,0,1,2.646-4.873,9.854,9.854,0,0,1,6.143-1.846,8.84,8.84,0,0,1,5.781,1.895,6.241,6.241,0,0,1,2.246,4.941l-5.469-.02a2.408,2.408,0,0,0-2.7-2.754,3.879,3.879,0,0,0-2.236.645,2.653,2.653,0,0,0-1.162,1.738q-.293,1.562,2.363,2.207l.781.176a15.713,15.713,0,0,1,4.121,1.475,6.22,6.22,0,0,1,2.2,2.061,5.1,5.1,0,0,1,.713,2.949,5.628,5.628,0,0,1-1.3,3.516,7.95,7.95,0,0,1-3.4,2.324,11.839,11.839,0,0,1-4.541.762,8.921,8.921,0,0,1-5.859-2.021,6.517,6.517,0,0,1-2.383-5.127l5.2.039q.078,3.027,3.242,3.066a4.613,4.613,0,0,0,2.51-.625A2.469,2.469,0,0,0,243.7,36.043Zm17.93,6.348a9.193,9.193,0,0,1-4.912-1.357,8.23,8.23,0,0,1-3.193-3.672,10.234,10.234,0,0,1-.82-5.146l.059-.781a13.662,13.662,0,0,1,1.8-5.664,10.853,10.853,0,0,1,3.867-3.975,9.568,9.568,0,0,1,5.234-1.318,7.311,7.311,0,0,1,6.182,3,10.292,10.292,0,0,1,1.592,7.4l-.312,2.406H258.17a4.535,4.535,0,0,0,1,3.281,3.8,3.8,0,0,0,2.93,1.27,6.757,6.757,0,0,0,5.273-2.344l2.52,3.125a7.838,7.838,0,0,1-3.437,2.8A11.241,11.241,0,0,1,261.627,42.391Zm1.758-17.363a3.913,3.913,0,0,0-2.705.957,8.408,8.408,0,0,0-2.119,3.457h7.578l.117-.508a5.177,5.177,0,0,0,.02-1.484,2.835,2.835,0,0,0-.957-1.768A3,3,0,0,0,263.385,25.027Zm21.621,11.016q.313-1.563-2.168-2.266l-1.777-.449q-6.309-1.738-6.133-6.133a6.069,6.069,0,0,1,2.646-4.873,9.854,9.854,0,0,1,6.143-1.846,8.84,8.84,0,0,1,5.781,1.895,6.241,6.241,0,0,1,2.246,4.941l-5.469-.02a2.408,2.408,0,0,0-2.7-2.754,3.879,3.879,0,0,0-2.236.645,2.653,2.653,0,0,0-1.162,1.738q-.293,1.562,2.363,2.207l.781.176a15.713,15.713,0,0,1,4.121,1.475,6.22,6.22,0,0,1,2.2,2.061,5.1,5.1,0,0,1,.713,2.949,5.628,5.628,0,0,1-1.3,3.516,7.95,7.95,0,0,1-3.4,2.324,11.839,11.839,0,0,1-4.541.762,8.921,8.921,0,0,1-5.859-2.021,6.517,6.517,0,0,1-2.383-5.127l5.2.039q.078,3.027,3.242,3.066a4.613,4.613,0,0,0,2.51-.625A2.469,2.469,0,0,0,285.006,36.043Z" transform="translate(235 1203)" fill="#12263f"/>
    <path id="Trazado_212717" data-name="Trazado 212717" d="M12.545,34.48q.2-3.574,4.238-6.348L18.7,26.9l-.781-1.758a9.755,9.755,0,0,1-.879-4.355,8.513,8.513,0,0,1,1.27-4.014,7.453,7.453,0,0,1,2.969-2.715,8.262,8.262,0,0,1,4.043-.889,6.664,6.664,0,0,1,4.707,1.9,5.8,5.8,0,0,1,1.719,4.561q-.2,3.691-4.434,6.484l-2.227,1.465,3.672,5.508a11.039,11.039,0,0,0,1.973-5.039H35.4a14.1,14.1,0,0,1-3.77,9.082L34.908,42h-5.9l-1.074-1.641a13.434,13.434,0,0,1-7.246,2.012,8.566,8.566,0,0,1-6.035-2.236A6.808,6.808,0,0,1,12.545,34.48Zm8.574,3.34A8.709,8.709,0,0,0,25.2,36.671l-4.18-6.429-.469.312A5.451,5.451,0,0,0,18.189,34.2a3.182,3.182,0,0,0,.625,2.6A2.982,2.982,0,0,0,21.119,37.82Zm.742-17.1a3.091,3.091,0,0,0-.02.915,8.414,8.414,0,0,0,.957,2.609l1.6-.974q2.422-1.461,2.6-3.291a1.992,1.992,0,0,0-.439-1.616,1.9,1.9,0,0,0-1.514-.643,2.786,2.786,0,0,0-2.109.837A3.617,3.617,0,0,0,21.861,20.722ZM70.162,42H64.615l-7.91-18.965L53.4,42H47.682l4.941-28.437H58.15l7.93,19,3.3-19h5.7ZM87.018,20.477a8.476,8.476,0,0,1,4.814,1.436A8.084,8.084,0,0,1,94.8,25.76a11.9,11.9,0,0,1,.674,5.439,12.859,12.859,0,0,1-3.506,8.154,9.9,9.9,0,0,1-7.549,3.037,8.451,8.451,0,0,1-4.766-1.416,8.054,8.054,0,0,1-2.969-3.818A11.642,11.642,0,0,1,76,31.766a13.238,13.238,0,0,1,3.555-8.32A9.7,9.7,0,0,1,87.018,20.477ZM81.451,33.764a4.876,4.876,0,0,0,.879,2.955,2.921,2.921,0,0,0,2.363,1.121,4.281,4.281,0,0,0,3.984-2.33,11.616,11.616,0,0,0,1.348-6.328,5.3,5.3,0,0,0-.908-2.993,2.873,2.873,0,0,0-2.373-1.16,4.286,4.286,0,0,0-3.936,2.311A11.5,11.5,0,0,0,81.451,33.764Zm24.316-12.916-.469,2.5a7.6,7.6,0,0,1,6.152-2.871,5.07,5.07,0,0,1,4.414,2.188,8.814,8.814,0,0,1,1.035,5.9L114.674,42h-5.508l2.266-13.5a6.32,6.32,0,0,0,.039-1.387,2.237,2.237,0,0,0-2.5-2.051,4.74,4.74,0,0,0-3.887,2.012L102.447,42H96.939l3.672-21.133ZM131.393,32.1h-10.7l.781-4.551h10.723Zm3.184,9.9,4.941-28.437,8.164.02a11.182,11.182,0,0,1,5.166,1.3,9.763,9.763,0,0,1,3.721,3.564,12.207,12.207,0,0,1,1.719,5.234,17.277,17.277,0,0,1-.039,3.477l-.137,1.035A16.243,16.243,0,0,1,153.2,38.221,13.9,13.9,0,0,1,143.365,42Zm9.844-23.691-3.3,18.984,2.383.02a7.818,7.818,0,0,0,6.338-2.891q2.393-2.891,2.744-8.73l.039-.625a7.877,7.877,0,0,0-1.23-4.941,4.7,4.7,0,0,0-3.848-1.8Zm25.254,24.082a9.193,9.193,0,0,1-4.912-1.357,8.23,8.23,0,0,1-3.193-3.672,10.234,10.234,0,0,1-.82-5.146l.059-.781a13.662,13.662,0,0,1,1.8-5.664,10.853,10.853,0,0,1,3.867-3.975,9.568,9.568,0,0,1,5.234-1.318,7.311,7.311,0,0,1,6.182,3,10.292,10.292,0,0,1,1.592,7.4l-.312,2.406H166.217a4.535,4.535,0,0,0,1,3.281,3.8,3.8,0,0,0,2.93,1.27,6.757,6.757,0,0,0,5.273-2.344l2.52,3.125a7.838,7.838,0,0,1-3.437,2.8A11.241,11.241,0,0,1,169.674,42.391Zm1.758-17.363a3.913,3.913,0,0,0-2.705.957,8.408,8.408,0,0,0-2.119,3.457h7.578l.117-.508a5.177,5.177,0,0,0,.02-1.484,2.835,2.835,0,0,0-.957-1.768A3,3,0,0,0,171.432,25.027ZM182.135,42l2.949-16.992h-3.066l.742-4.141h2.852l.176-1.016a9.932,9.932,0,0,1,3.379-6.162,10.241,10.241,0,0,1,6.816-2.139,16.588,16.588,0,0,1,3.174.381q1.553.342,3.1.771l-1.191,4.707a16.094,16.094,0,0,0-4.98-.977,5.2,5.2,0,0,0-3.184.928,4.262,4.262,0,0,0-1.621,2.607l-.176.9h4.277l-.742,4.141h-4.023L187.662,42Zm17.793,0h-5.547l3.672-21.133h5.527Zm13.4-21.152-.469,2.5a7.6,7.6,0,0,1,6.152-2.871,5.07,5.07,0,0,1,4.414,2.188,8.814,8.814,0,0,1,1.035,5.9L222.232,42h-5.508l2.266-13.5a6.319,6.319,0,0,0,.039-1.387,2.237,2.237,0,0,0-2.5-2.051,4.74,4.74,0,0,0-3.887,2.012L210.006,42H204.5l3.672-21.133ZM232.369,42h-5.547l3.672-21.133h5.547Zm-1.23-26.5A2.751,2.751,0,0,1,232,13.328a3.307,3.307,0,0,1,4.336-.1,2.739,2.739,0,0,1,.957,2.07,2.829,2.829,0,0,1-.811,2.109,3.038,3.038,0,0,1-2.217.938,3.088,3.088,0,0,1-2.158-.742A2.727,2.727,0,0,1,231.139,15.5Zm14.609,5.352-.469,2.5a7.6,7.6,0,0,1,6.152-2.871,5.07,5.07,0,0,1,4.414,2.188,8.814,8.814,0,0,1,1.035,5.9L254.654,42h-5.508l2.266-13.5a6.319,6.319,0,0,0,.039-1.387,2.237,2.237,0,0,0-2.5-2.051,4.74,4.74,0,0,0-3.887,2.012L242.428,42H236.92l3.672-21.133Zm14.277,10.566a14.622,14.622,0,0,1,3.193-7.959,8.1,8.1,0,0,1,6.572-3A5.926,5.926,0,0,1,274.83,22.9l.723-2.051,5.059.02-3.457,20.41a9.958,9.958,0,0,1-3.594,6.68,11.178,11.178,0,0,1-7.5,2.383,10.42,10.42,0,0,1-4.18-.947A8.938,8.938,0,0,1,258.6,46.9l2.734-3.359a5.872,5.872,0,0,0,4.609,2.4,5.414,5.414,0,0,0,3.672-1.123,6.01,6.01,0,0,0,2.07-3.389l.313-1.27a6.872,6.872,0,0,1-5.176,2.227,6.071,6.071,0,0,1-4.9-2.295,9.867,9.867,0,0,1-1.992-5.869A19.726,19.726,0,0,1,260.025,31.414Zm5.41,2.318a5.051,5.051,0,0,0,.771,2.944,2.7,2.7,0,0,0,2.236,1.164,4.931,4.931,0,0,0,3.984-1.917l1.641-8.959a3.24,3.24,0,0,0-3.105-1.917,4.32,4.32,0,0,0-3.574,1.7,8.9,8.9,0,0,0-1.836,4.675A20.53,20.53,0,0,0,265.436,33.732Z" transform="translate(245 1097)" fill="#12263f"/>
    <path id="Trazado_212718" data-name="Trazado 212718" d="M18.886,6.12h-3.2V15H14.381V6.12H11.188V5.047h7.7ZM21.429,8.5a2.689,2.689,0,0,1,2.188-1.032q2.345,0,2.365,2.646V15H24.717V10.105a1.7,1.7,0,0,0-.366-1.183,1.466,1.466,0,0,0-1.118-.383,1.825,1.825,0,0,0-1.08.328,2.228,2.228,0,0,0-.725.861V15H20.164V4.5h1.265Zm9.516,6.638a3.232,3.232,0,0,1-2.447-.988,3.666,3.666,0,0,1-.943-2.642v-.232a4.438,4.438,0,0,1,.42-1.965A3.28,3.28,0,0,1,29.15,7.956a2.956,2.956,0,0,1,1.637-.489,2.77,2.77,0,0,1,2.242.95,4.114,4.114,0,0,1,.8,2.721v.526H28.818a2.629,2.629,0,0,0,.639,1.767,2.009,2.009,0,0,0,1.555.673,2.2,2.2,0,0,0,1.135-.273,2.851,2.851,0,0,0,.813-.725l.772.6A3.106,3.106,0,0,1,30.944,15.137Zm-.157-6.631a1.687,1.687,0,0,0-1.285.557,2.708,2.708,0,0,0-.643,1.562h3.705v-.1a2.409,2.409,0,0,0-.52-1.494A1.588,1.588,0,0,0,30.787,8.506Zm9.16-.9.034.82a2.732,2.732,0,0,1,2.194-.957,2.115,2.115,0,0,1,2.112,1.189,2.8,2.8,0,0,1,.96-.861,2.837,2.837,0,0,1,1.4-.328q2.434,0,2.475,2.577V15H47.856V10.119a1.7,1.7,0,0,0-.362-1.186,1.6,1.6,0,0,0-1.217-.393,1.677,1.677,0,0,0-1.169.42,1.706,1.706,0,0,0-.54,1.131V15H43.3V10.153A1.411,1.411,0,0,0,41.718,8.54a1.692,1.692,0,0,0-1.7,1.06V15H38.751V7.6ZM55.595,15a2.657,2.657,0,0,1-.178-.779,2.822,2.822,0,0,1-2.105.916,2.611,2.611,0,0,1-1.794-.619,2,2,0,0,1-.7-1.569,2.091,2.091,0,0,1,.878-1.794,4.142,4.142,0,0,1,2.471-.639H55.4V9.935A1.42,1.42,0,0,0,55,8.878a1.593,1.593,0,0,0-1.169-.393,1.844,1.844,0,0,0-1.135.342,1.007,1.007,0,0,0-.458.827H50.967a1.745,1.745,0,0,1,.393-1.07,2.683,2.683,0,0,1,1.066-.817,3.588,3.588,0,0,1,1.48-.3,2.924,2.924,0,0,1,2,.639,2.306,2.306,0,0,1,.752,1.76v3.4a4.162,4.162,0,0,0,.26,1.62V15Zm-2.1-.964a2.223,2.223,0,0,0,1.128-.308,1.861,1.861,0,0,0,.772-.8V11.411h-.991q-2.324,0-2.324,1.36a1.151,1.151,0,0,0,.4.93A1.524,1.524,0,0,0,53.5,14.036ZM59.84,7.6l.041.93A2.7,2.7,0,0,1,62.1,7.467q2.345,0,2.365,2.646V15H63.2V10.105a1.7,1.7,0,0,0-.366-1.183,1.466,1.466,0,0,0-1.118-.383,1.825,1.825,0,0,0-1.08.328,2.228,2.228,0,0,0-.725.861V15H58.644V7.6Zm16.543,5.653L77.8,7.6h1.265L76.916,15H75.891l-1.8-5.605L72.343,15H71.317L69.171,7.6h1.258l1.456,5.537L73.607,7.6h1.019ZM81.619,8.5a2.689,2.689,0,0,1,2.188-1.032q2.345,0,2.365,2.646V15H84.907V10.105a1.7,1.7,0,0,0-.366-1.183,1.466,1.466,0,0,0-1.118-.383,1.825,1.825,0,0,0-1.08.328,2.228,2.228,0,0,0-.725.861V15H80.354V4.5h1.265Zm6.111,2.734a4.369,4.369,0,0,1,.427-1.955,3.187,3.187,0,0,1,1.189-1.34,3.238,3.238,0,0,1,1.74-.472,3.119,3.119,0,0,1,2.444,1.046,4.024,4.024,0,0,1,.933,2.782v.089a4.407,4.407,0,0,1-.414,1.938,3.14,3.14,0,0,1-1.183,1.336,3.275,3.275,0,0,1-1.767.479,3.111,3.111,0,0,1-2.437-1.046,4,4,0,0,1-.933-2.769Zm1.271.15a3.164,3.164,0,0,0,.571,1.976,1.934,1.934,0,0,0,3.059-.01,3.46,3.46,0,0,0,.567-2.116,3.159,3.159,0,0,0-.578-1.972,1.836,1.836,0,0,0-1.535-.755,1.816,1.816,0,0,0-1.511.745A3.435,3.435,0,0,0,89,11.384Zm11.354,1.654a.931.931,0,0,0-.386-.8,3.718,3.718,0,0,0-1.347-.489,6.367,6.367,0,0,1-1.524-.492,2.169,2.169,0,0,1-.834-.684A1.635,1.635,0,0,1,96,9.634,1.919,1.919,0,0,1,96.764,8.1a3,3,0,0,1,1.965-.629,3.091,3.091,0,0,1,2.041.649,2.063,2.063,0,0,1,.783,1.661h-1.271a1.142,1.142,0,0,0-.441-.9,1.652,1.652,0,0,0-1.111-.376,1.729,1.729,0,0,0-1.08.3.947.947,0,0,0-.39.786.767.767,0,0,0,.362.69,4.458,4.458,0,0,0,1.309.444,6.821,6.821,0,0,1,1.535.506,2.239,2.239,0,0,1,.872.708,1.74,1.74,0,0,1,.284,1.008,1.893,1.893,0,0,1-.793,1.589,3.326,3.326,0,0,1-2.058.6,3.725,3.725,0,0,1-1.572-.314,2.557,2.557,0,0,1-1.07-.878,2.117,2.117,0,0,1-.386-1.22h1.265a1.309,1.309,0,0,0,.509,1.008,1.976,1.976,0,0,0,1.254.373,2.039,2.039,0,0,0,1.152-.291A.893.893,0,0,0,100.356,13.038Zm5.981,2.1a3.232,3.232,0,0,1-2.447-.988,3.666,3.666,0,0,1-.943-2.642v-.232a4.438,4.438,0,0,1,.42-1.965,3.28,3.28,0,0,1,1.176-1.354,2.956,2.956,0,0,1,1.637-.489,2.77,2.77,0,0,1,2.242.95,4.114,4.114,0,0,1,.8,2.721v.526h-5.011a2.629,2.629,0,0,0,.639,1.767,2.009,2.009,0,0,0,1.555.673,2.2,2.2,0,0,0,1.135-.273,2.851,2.851,0,0,0,.813-.725l.772.6A3.106,3.106,0,0,1,106.338,15.137Zm-.157-6.631a1.687,1.687,0,0,0-1.285.557,2.708,2.708,0,0,0-.643,1.562h3.705v-.1a2.409,2.409,0,0,0-.52-1.494A1.588,1.588,0,0,0,106.181,8.506ZM120.4,11.384a4.429,4.429,0,0,1-.772,2.721,2.476,2.476,0,0,1-2.092,1.032,2.713,2.713,0,0,1-2.119-.854v3.562h-1.265V7.6h1.155l.062.82a2.605,2.605,0,0,1,2.146-.957,2.522,2.522,0,0,1,2.109,1,4.477,4.477,0,0,1,.776,2.8Zm-1.265-.144a3.268,3.268,0,0,0-.533-1.976,1.718,1.718,0,0,0-1.463-.725,1.859,1.859,0,0,0-1.723,1.019v3.534a1.863,1.863,0,0,0,1.736,1.012,1.71,1.71,0,0,0,1.446-.721A3.567,3.567,0,0,0,119.135,11.24ZM123.271,8.5a2.689,2.689,0,0,1,2.188-1.032q2.345,0,2.365,2.646V15h-1.265V10.105a1.7,1.7,0,0,0-.366-1.183,1.466,1.466,0,0,0-1.118-.383,1.825,1.825,0,0,0-1.08.328,2.228,2.228,0,0,0-.725.861V15h-1.265V4.5h1.265Zm6.111,2.734a4.369,4.369,0,0,1,.427-1.955A3.187,3.187,0,0,1,131,7.938a3.238,3.238,0,0,1,1.74-.472,3.119,3.119,0,0,1,2.444,1.046,4.024,4.024,0,0,1,.933,2.782v.089a4.407,4.407,0,0,1-.414,1.938,3.14,3.14,0,0,1-1.183,1.336,3.275,3.275,0,0,1-1.767.479,3.111,3.111,0,0,1-2.437-1.046,4,4,0,0,1-.933-2.769Zm1.271.15a3.164,3.164,0,0,0,.571,1.976,1.934,1.934,0,0,0,3.059-.01,3.46,3.46,0,0,0,.567-2.116,3.159,3.159,0,0,0-.578-1.972,1.836,1.836,0,0,0-1.535-.755,1.816,1.816,0,0,0-1.511.745A3.435,3.435,0,0,0,130.653,11.384ZM138.9,7.6l.041.93a2.7,2.7,0,0,1,2.215-1.066q2.345,0,2.365,2.646V15h-1.265V10.105a1.7,1.7,0,0,0-.366-1.183,1.466,1.466,0,0,0-1.118-.383,1.825,1.825,0,0,0-1.08.328,2.228,2.228,0,0,0-.725.861V15H137.7V7.6Zm9.6,7.533a3.232,3.232,0,0,1-2.447-.988,3.666,3.666,0,0,1-.943-2.642v-.232a4.438,4.438,0,0,1,.42-1.965A3.279,3.279,0,0,1,146.7,7.956a2.956,2.956,0,0,1,1.637-.489,2.77,2.77,0,0,1,2.242.95,4.114,4.114,0,0,1,.8,2.721v.526h-5.011a2.629,2.629,0,0,0,.639,1.767,2.009,2.009,0,0,0,1.555.673,2.2,2.2,0,0,0,1.135-.273,2.851,2.851,0,0,0,.813-.725l.772.6A3.106,3.106,0,0,1,148.5,15.137Zm-.157-6.631a1.687,1.687,0,0,0-1.285.557,2.708,2.708,0,0,0-.643,1.562h3.705v-.1a2.409,2.409,0,0,0-.52-1.494A1.588,1.588,0,0,0,148.338,8.506ZM157.915,15H156.6V5.047h1.313Zm6.289,0V8.581h-1.169V7.6H164.2V6.845a2.519,2.519,0,0,1,.636-1.839,2.4,2.4,0,0,1,1.8-.649,3.339,3.339,0,0,1,.868.115l-.068,1.019a3.632,3.632,0,0,0-.684-.062,1.234,1.234,0,0,0-.95.36,1.46,1.46,0,0,0-.335,1.032V7.6h1.579v.978h-1.579V15Zm3.9-3.767a4.369,4.369,0,0,1,.427-1.955,3.187,3.187,0,0,1,1.189-1.34,3.238,3.238,0,0,1,1.74-.472,3.119,3.119,0,0,1,2.444,1.046,4.024,4.024,0,0,1,.933,2.782v.089a4.407,4.407,0,0,1-.414,1.938,3.14,3.14,0,0,1-1.183,1.336,3.275,3.275,0,0,1-1.767.479,3.111,3.111,0,0,1-2.437-1.046,4,4,0,0,1-.933-2.769Zm1.271.15a3.164,3.164,0,0,0,.571,1.976,1.934,1.934,0,0,0,3.059-.01,3.46,3.46,0,0,0,.567-2.116A3.159,3.159,0,0,0,173,9.261a1.836,1.836,0,0,0-1.535-.755,1.816,1.816,0,0,0-1.511.745A3.435,3.435,0,0,0,169.379,11.384Zm11.614,2.885a2.686,2.686,0,0,1-2.167.868,2.3,2.3,0,0,1-1.8-.687,2.974,2.974,0,0,1-.625-2.034V7.6h1.265v4.778q0,1.682,1.367,1.682a1.893,1.893,0,0,0,1.928-1.08V7.6h1.265V15h-1.2ZM185.341,7.6l.041.93A2.7,2.7,0,0,1,187.6,7.467q2.345,0,2.365,2.646V15H188.7V10.105a1.7,1.7,0,0,0-.366-1.183,1.466,1.466,0,0,0-1.118-.383,1.825,1.825,0,0,0-1.08.328,2.228,2.228,0,0,0-.725.861V15h-1.265V7.6Zm6.221,3.637a4.333,4.333,0,0,1,.807-2.738,2.745,2.745,0,0,1,4.17-.147V4.5H197.8V15h-1.162l-.062-.793a2.575,2.575,0,0,1-2.112.93,2.526,2.526,0,0,1-2.1-1.053,4.382,4.382,0,0,1-.81-2.748Zm1.265.144a3.281,3.281,0,0,0,.52,1.969,1.68,1.68,0,0,0,1.436.711,1.845,1.845,0,0,0,1.757-1.08v-3.4a1.859,1.859,0,0,0-1.743-1.046,1.687,1.687,0,0,0-1.449.718A3.612,3.612,0,0,0,192.826,11.384Zm10.1-.144a4.347,4.347,0,0,1,.8-2.751,2.757,2.757,0,0,1,4.231-.065l.062-.82h1.155v7.219a3.009,3.009,0,0,1-.851,2.263,3.141,3.141,0,0,1-2.287.827,3.8,3.8,0,0,1-1.565-.342,2.7,2.7,0,0,1-1.169-.937l.656-.759a2.473,2.473,0,0,0,1.989,1,1.938,1.938,0,0,0,1.439-.52,1.986,1.986,0,0,0,.516-1.463v-.636a2.6,2.6,0,0,1-2.071.875,2.526,2.526,0,0,1-2.1-1.046A4.571,4.571,0,0,1,202.93,11.24Zm1.271.144a3.316,3.316,0,0,0,.513,1.965,1.666,1.666,0,0,0,1.436.714,1.852,1.852,0,0,0,1.757-1.087V9.6a1.874,1.874,0,0,0-1.743-1.06,1.681,1.681,0,0,0-1.442.718A3.612,3.612,0,0,0,204.2,11.384ZM215.651,15a2.657,2.657,0,0,1-.178-.779,2.822,2.822,0,0,1-2.105.916,2.611,2.611,0,0,1-1.794-.619,2,2,0,0,1-.7-1.569,2.091,2.091,0,0,1,.878-1.794,4.142,4.142,0,0,1,2.471-.639h1.23V9.935a1.42,1.42,0,0,0-.4-1.056,1.593,1.593,0,0,0-1.169-.393,1.844,1.844,0,0,0-1.135.342,1.007,1.007,0,0,0-.458.827h-1.271a1.745,1.745,0,0,1,.393-1.07,2.683,2.683,0,0,1,1.066-.817,3.588,3.588,0,0,1,1.48-.3,2.924,2.924,0,0,1,2,.639,2.306,2.306,0,0,1,.752,1.76v3.4a4.162,4.162,0,0,0,.26,1.62V15Zm-2.1-.964a2.223,2.223,0,0,0,1.128-.308,1.861,1.861,0,0,0,.772-.8V11.411h-.991q-2.324,0-2.324,1.36a1.151,1.151,0,0,0,.4.93A1.524,1.524,0,0,0,213.553,14.036Zm7.485-.752L222.87,7.6h1.292L221.51,15h-.964l-2.68-7.4h1.292Zm7.41,1.853A3.232,3.232,0,0,1,226,14.149a3.666,3.666,0,0,1-.943-2.642v-.232a4.438,4.438,0,0,1,.42-1.965,3.279,3.279,0,0,1,1.176-1.354,2.956,2.956,0,0,1,1.637-.489,2.77,2.77,0,0,1,2.242.95,4.114,4.114,0,0,1,.8,2.721v.526h-5.011a2.629,2.629,0,0,0,.639,1.767,2.009,2.009,0,0,0,1.555.673,2.2,2.2,0,0,0,1.135-.273,2.851,2.851,0,0,0,.813-.725l.772.6A3.106,3.106,0,0,1,228.448,15.137Zm-.157-6.631a1.687,1.687,0,0,0-1.285.557,2.708,2.708,0,0,0-.643,1.562h3.705v-.1a2.409,2.409,0,0,0-.52-1.494A1.588,1.588,0,0,0,228.291,8.506Zm9.16-.9.034.82a2.732,2.732,0,0,1,2.194-.957,2.115,2.115,0,0,1,2.112,1.189,2.8,2.8,0,0,1,.96-.861,2.837,2.837,0,0,1,1.4-.328q2.434,0,2.475,2.577V15H245.36V10.119A1.7,1.7,0,0,0,245,8.933a1.6,1.6,0,0,0-1.217-.393,1.677,1.677,0,0,0-1.169.42,1.706,1.706,0,0,0-.54,1.131V15H240.8V10.153a1.411,1.411,0,0,0-1.579-1.613,1.692,1.692,0,0,0-1.7,1.06V15h-1.265V7.6Zm14.15,7.533a3.232,3.232,0,0,1-2.447-.988,3.666,3.666,0,0,1-.943-2.642v-.232a4.438,4.438,0,0,1,.42-1.965,3.279,3.279,0,0,1,1.176-1.354,2.956,2.956,0,0,1,1.637-.489,2.77,2.77,0,0,1,2.242.95,4.114,4.114,0,0,1,.8,2.721v.526h-5.011a2.629,2.629,0,0,0,.639,1.767,2.009,2.009,0,0,0,1.555.673,2.2,2.2,0,0,0,1.135-.273,2.851,2.851,0,0,0,.813-.725l.772.6A3.106,3.106,0,0,1,251.6,15.137Zm-.157-6.631a1.687,1.687,0,0,0-1.285.557,2.708,2.708,0,0,0-.643,1.562h3.705v-.1a2.409,2.409,0,0,0-.52-1.494A1.588,1.588,0,0,0,251.444,8.506ZM263.981,15a2.657,2.657,0,0,1-.178-.779,2.822,2.822,0,0,1-2.105.916,2.611,2.611,0,0,1-1.794-.619,2,2,0,0,1-.7-1.569,2.091,2.091,0,0,1,.878-1.794,4.141,4.141,0,0,1,2.471-.639h1.23V9.935a1.42,1.42,0,0,0-.4-1.056,1.593,1.593,0,0,0-1.169-.393,1.844,1.844,0,0,0-1.135.342,1.007,1.007,0,0,0-.458.827h-1.271a1.745,1.745,0,0,1,.393-1.07,2.683,2.683,0,0,1,1.066-.817,3.588,3.588,0,0,1,1.48-.3,2.924,2.924,0,0,1,2,.639,2.306,2.306,0,0,1,.752,1.76v3.4a4.162,4.162,0,0,0,.26,1.62V15Zm-2.1-.964a2.223,2.223,0,0,0,1.128-.308,1.861,1.861,0,0,0,.772-.8V11.411h-.991q-2.324,0-2.324,1.36a1.151,1.151,0,0,0,.4.93A1.524,1.524,0,0,0,261.883,14.036Zm12.188-5.3a3.79,3.79,0,0,0-.622-.048,1.667,1.667,0,0,0-1.688,1.06V15H270.5V7.6h1.23l.021.854a1.969,1.969,0,0,1,1.764-.991,1.292,1.292,0,0,1,.561.1Zm4.231,6.4a3.232,3.232,0,0,1-2.447-.988,3.666,3.666,0,0,1-.943-2.642v-.232a4.438,4.438,0,0,1,.42-1.965,3.28,3.28,0,0,1,1.176-1.354,2.956,2.956,0,0,1,1.637-.489,2.77,2.77,0,0,1,2.242.95,4.114,4.114,0,0,1,.8,2.721v.526h-5.011a2.629,2.629,0,0,0,.639,1.767,2.009,2.009,0,0,0,1.555.673,2.2,2.2,0,0,0,1.135-.273,2.851,2.851,0,0,0,.813-.725l.772.6A3.106,3.106,0,0,1,278.3,15.137Zm-.157-6.631a1.687,1.687,0,0,0-1.285.557,2.708,2.708,0,0,0-.643,1.562h3.705v-.1a2.409,2.409,0,0,0-.52-1.494A1.588,1.588,0,0,0,278.146,8.506ZM289.2,13.257,290.621,7.6h1.265L289.732,15h-1.025l-1.8-5.605L285.159,15h-1.025l-2.146-7.4h1.258l1.456,5.537L286.424,7.6h1.019ZM297.737,15a2.657,2.657,0,0,1-.178-.779,2.822,2.822,0,0,1-2.105.916,2.611,2.611,0,0,1-1.794-.619,2,2,0,0,1-.7-1.569,2.091,2.091,0,0,1,.878-1.794,4.141,4.141,0,0,1,2.471-.639h1.23V9.935a1.42,1.42,0,0,0-.4-1.056,1.593,1.593,0,0,0-1.169-.393,1.844,1.844,0,0,0-1.135.342,1.007,1.007,0,0,0-.458.827h-1.271a1.745,1.745,0,0,1,.393-1.07,2.683,2.683,0,0,1,1.066-.817,3.588,3.588,0,0,1,1.48-.3,2.924,2.924,0,0,1,2,.639,2.306,2.306,0,0,1,.752,1.76v3.4a4.162,4.162,0,0,0,.26,1.62V15Zm-2.1-.964a2.223,2.223,0,0,0,1.128-.308,1.861,1.861,0,0,0,.772-.8V11.411h-.991q-2.324,0-2.324,1.36a1.151,1.151,0,0,0,.4.93A1.524,1.524,0,0,0,295.639,14.036Zm8.723-5.3a3.79,3.79,0,0,0-.622-.048,1.667,1.667,0,0,0-1.688,1.06V15h-1.265V7.6h1.23l.021.854a1.969,1.969,0,0,1,1.764-.991,1.292,1.292,0,0,1,.561.1Zm.854,2.5a4.333,4.333,0,0,1,.807-2.738,2.745,2.745,0,0,1,4.17-.147V4.5h1.265V15h-1.162l-.062-.793a2.575,2.575,0,0,1-2.112.93,2.526,2.526,0,0,1-2.1-1.053,4.382,4.382,0,0,1-.81-2.748Zm1.265.144a3.281,3.281,0,0,0,.52,1.969,1.68,1.68,0,0,0,1.436.711,1.845,1.845,0,0,0,1.757-1.08v-3.4a1.859,1.859,0,0,0-1.743-1.046A1.687,1.687,0,0,0,307,9.258,3.612,3.612,0,0,0,306.48,11.384Zm6.966,2.953a.792.792,0,0,1,.195-.547.742.742,0,0,1,.584-.219.765.765,0,0,1,.591.219.776.776,0,0,1,.2.547.734.734,0,0,1-.2.526.778.778,0,0,1-.591.212.7.7,0,0,1-.779-.738ZM21.213,87V77.047h2.81a4.523,4.523,0,0,1,2.3.574,3.884,3.884,0,0,1,1.542,1.634,5.318,5.318,0,0,1,.55,2.434v.636a5.336,5.336,0,0,1-.543,2.468,3.823,3.823,0,0,1-1.552,1.627A4.811,4.811,0,0,1,23.968,87Zm1.313-8.88v7.807h1.381a3,3,0,0,0,2.362-.944,3.9,3.9,0,0,0,.844-2.689v-.582a3.963,3.963,0,0,0-.8-2.637,2.834,2.834,0,0,0-2.259-.954ZM34.762,87a2.657,2.657,0,0,1-.178-.779,2.822,2.822,0,0,1-2.105.916,2.611,2.611,0,0,1-1.794-.619,2,2,0,0,1-.7-1.569,2.091,2.091,0,0,1,.878-1.794,4.141,4.141,0,0,1,2.471-.639h1.23v-.581a1.42,1.42,0,0,0-.4-1.056A1.593,1.593,0,0,0,33,80.485a1.844,1.844,0,0,0-1.135.342,1.007,1.007,0,0,0-.458.827H30.134a1.745,1.745,0,0,1,.393-1.07,2.683,2.683,0,0,1,1.066-.817,3.588,3.588,0,0,1,1.48-.3,2.924,2.924,0,0,1,2,.639,2.306,2.306,0,0,1,.752,1.76v3.4a4.162,4.162,0,0,0,.26,1.62V87Zm-2.1-.964a2.223,2.223,0,0,0,1.128-.308,1.861,1.861,0,0,0,.772-.8V83.411h-.991q-2.324,0-2.324,1.36a1.151,1.151,0,0,0,.4.93A1.524,1.524,0,0,0,32.664,86.036Zm7.485-.752L41.981,79.6h1.292L40.621,87h-.964l-2.68-7.4h1.292ZM45.864,87H44.6V79.6h1.265ZM44.5,77.642a.755.755,0,0,1,.188-.52.706.706,0,0,1,.557-.212.717.717,0,0,1,.561.212.747.747,0,0,1,.191.52.722.722,0,0,1-.191.513.73.73,0,0,1-.561.205.718.718,0,0,1-.557-.205A.73.73,0,0,1,44.5,77.642Zm3.083,5.6a4.333,4.333,0,0,1,.807-2.738,2.745,2.745,0,0,1,4.17-.147V76.5h1.265V87H52.659l-.062-.793a2.575,2.575,0,0,1-2.112.93,2.526,2.526,0,0,1-2.1-1.053,4.382,4.382,0,0,1-.81-2.748Zm1.265.144a3.281,3.281,0,0,0,.52,1.969,1.68,1.68,0,0,0,1.436.711,1.845,1.845,0,0,0,1.757-1.08v-3.4a1.859,1.859,0,0,0-1.743-1.046,1.687,1.687,0,0,0-1.449.718A3.612,3.612,0,0,0,48.844,83.384Zm7.027-3.534-.718-.492a3.291,3.291,0,0,0,.656-1.873V76.5h1.251v.889a3.378,3.378,0,0,1-1.189,2.461Zm6.248,5.188a.931.931,0,0,0-.386-.8,3.718,3.718,0,0,0-1.347-.489,6.367,6.367,0,0,1-1.524-.492,2.169,2.169,0,0,1-.834-.684,1.635,1.635,0,0,1-.27-.943,1.919,1.919,0,0,1,.769-1.538,3,3,0,0,1,1.965-.629,3.091,3.091,0,0,1,2.041.649,2.063,2.063,0,0,1,.783,1.661H62.044a1.142,1.142,0,0,0-.441-.9,1.652,1.652,0,0,0-1.111-.376,1.729,1.729,0,0,0-1.08.3.947.947,0,0,0-.39.786.767.767,0,0,0,.362.69,4.458,4.458,0,0,0,1.309.444,6.821,6.821,0,0,1,1.535.506,2.239,2.239,0,0,1,.872.708,1.74,1.74,0,0,1,.284,1.008,1.893,1.893,0,0,1-.793,1.589,3.326,3.326,0,0,1-2.058.6,3.725,3.725,0,0,1-1.572-.314,2.557,2.557,0,0,1-1.07-.878,2.117,2.117,0,0,1-.386-1.22H58.77a1.309,1.309,0,0,0,.509,1.008,1.976,1.976,0,0,0,1.254.373,2.039,2.039,0,0,0,1.152-.291A.893.893,0,0,0,62.12,85.038ZM69.687,79.6l.034.82a2.732,2.732,0,0,1,2.194-.957,2.115,2.115,0,0,1,2.112,1.189,2.8,2.8,0,0,1,.96-.861,2.837,2.837,0,0,1,1.4-.328q2.434,0,2.475,2.577V87H77.6V82.119a1.7,1.7,0,0,0-.362-1.186,1.6,1.6,0,0,0-1.217-.393,1.677,1.677,0,0,0-1.169.42,1.706,1.706,0,0,0-.54,1.131V87H73.037V82.153a1.411,1.411,0,0,0-1.579-1.613,1.692,1.692,0,0,0-1.7,1.06V87H68.491V79.6Zm10.746,3.63a4.369,4.369,0,0,1,.427-1.955,3.187,3.187,0,0,1,1.189-1.34,3.238,3.238,0,0,1,1.74-.472,3.119,3.119,0,0,1,2.444,1.046,4.024,4.024,0,0,1,.933,2.782v.089a4.407,4.407,0,0,1-.414,1.938,3.14,3.14,0,0,1-1.183,1.336,3.275,3.275,0,0,1-1.767.479,3.111,3.111,0,0,1-2.437-1.046,4,4,0,0,1-.933-2.769Zm1.271.15a3.164,3.164,0,0,0,.571,1.976,1.934,1.934,0,0,0,3.059-.01,3.46,3.46,0,0,0,.567-2.116,3.159,3.159,0,0,0-.578-1.972,1.836,1.836,0,0,0-1.535-.755,1.816,1.816,0,0,0-1.511.745A3.434,3.434,0,0,0,81.7,83.384Zm8.764-5.571V79.6h1.381v.978H90.468v4.593a1.027,1.027,0,0,0,.185.667.777.777,0,0,0,.629.222,3.062,3.062,0,0,0,.6-.082V87a3.688,3.688,0,0,1-.971.136,1.575,1.575,0,0,1-1.278-.513,2.2,2.2,0,0,1-.431-1.456V80.581H87.857V79.6H89.2V77.813ZM94.59,80.5a2.689,2.689,0,0,1,2.188-1.032q2.345,0,2.365,2.646V87H97.878V82.105a1.7,1.7,0,0,0-.366-1.183A1.466,1.466,0,0,0,96.4,80.54a1.825,1.825,0,0,0-1.08.328,2.228,2.228,0,0,0-.725.861V87H93.326V76.5H94.59Zm9.516,6.638a3.232,3.232,0,0,1-2.447-.988,3.666,3.666,0,0,1-.943-2.642v-.232a4.438,4.438,0,0,1,.42-1.965,3.28,3.28,0,0,1,1.176-1.354,2.956,2.956,0,0,1,1.637-.489,2.77,2.77,0,0,1,2.242.95,4.114,4.114,0,0,1,.8,2.721v.526H101.98a2.629,2.629,0,0,0,.639,1.767,2.009,2.009,0,0,0,1.555.673,2.2,2.2,0,0,0,1.135-.273,2.851,2.851,0,0,0,.813-.725l.772.6A3.106,3.106,0,0,1,104.106,87.137Zm-.157-6.631a1.687,1.687,0,0,0-1.285.557,2.708,2.708,0,0,0-.643,1.562h3.705v-.1a2.409,2.409,0,0,0-.52-1.494A1.588,1.588,0,0,0,103.949,80.506Zm8.08.232a3.79,3.79,0,0,0-.622-.048,1.667,1.667,0,0,0-1.688,1.06V87h-1.265V79.6h1.23l.021.854a1.969,1.969,0,0,1,1.764-.991,1.292,1.292,0,0,1,.561.1Zm.28,8.244-.718-.492a3.3,3.3,0,0,0,.67-1.846V85.5H113.5v.991a3.114,3.114,0,0,1-.338,1.381A3.233,3.233,0,0,1,112.309,88.982Zm12.8-3.726,1.422-5.653H127.8L125.646,87h-1.025l-1.8-5.605L121.073,87h-1.025L117.9,79.6h1.258l1.456,5.537,1.723-5.537h1.019Zm5.236-4.758a2.689,2.689,0,0,1,2.188-1.032q2.345,0,2.365,2.646V87h-1.265V82.105a1.7,1.7,0,0,0-.366-1.183,1.466,1.466,0,0,0-1.118-.383,1.825,1.825,0,0,0-1.08.328,2.228,2.228,0,0,0-.725.861V87h-1.265V76.5h1.265Zm6.111,2.734a4.369,4.369,0,0,1,.427-1.955,3.187,3.187,0,0,1,1.189-1.34,3.238,3.238,0,0,1,1.74-.472,3.119,3.119,0,0,1,2.444,1.046,4.024,4.024,0,0,1,.933,2.782v.089a4.407,4.407,0,0,1-.414,1.938,3.14,3.14,0,0,1-1.183,1.336,3.275,3.275,0,0,1-1.767.479,3.111,3.111,0,0,1-2.437-1.046,4,4,0,0,1-.933-2.769Zm1.271.15a3.164,3.164,0,0,0,.571,1.976,1.934,1.934,0,0,0,3.059-.01,3.46,3.46,0,0,0,.567-2.116,3.159,3.159,0,0,0-.578-1.972,1.836,1.836,0,0,0-1.535-.755,1.816,1.816,0,0,0-1.511.745A3.434,3.434,0,0,0,137.732,83.384Zm17.063,1.873,1.422-5.653h1.265L155.328,87H154.3l-1.8-5.605L150.754,87h-1.025l-2.146-7.4h1.258l1.456,5.537,1.723-5.537h1.019ZM163.333,87a2.657,2.657,0,0,1-.178-.779,2.822,2.822,0,0,1-2.105.916,2.611,2.611,0,0,1-1.794-.619,2,2,0,0,1-.7-1.569,2.091,2.091,0,0,1,.878-1.794,4.142,4.142,0,0,1,2.471-.639h1.23v-.581a1.42,1.42,0,0,0-.4-1.056,1.593,1.593,0,0,0-1.169-.393,1.844,1.844,0,0,0-1.135.342,1.007,1.007,0,0,0-.458.827H158.7a1.745,1.745,0,0,1,.393-1.07,2.683,2.683,0,0,1,1.066-.817,3.588,3.588,0,0,1,1.48-.3,2.924,2.924,0,0,1,2,.639,2.306,2.306,0,0,1,.752,1.76v3.4a4.162,4.162,0,0,0,.26,1.62V87Zm-2.1-.964a2.223,2.223,0,0,0,1.128-.308,1.861,1.861,0,0,0,.772-.8V83.411h-.991q-2.324,0-2.324,1.36a1.151,1.151,0,0,0,.4.93A1.524,1.524,0,0,0,161.234,86.036Zm9.454-1a.931.931,0,0,0-.386-.8,3.718,3.718,0,0,0-1.347-.489,6.367,6.367,0,0,1-1.524-.492,2.169,2.169,0,0,1-.834-.684,1.635,1.635,0,0,1-.27-.943A1.919,1.919,0,0,1,167.1,80.1a3,3,0,0,1,1.965-.629,3.091,3.091,0,0,1,2.041.649,2.063,2.063,0,0,1,.783,1.661h-1.271a1.142,1.142,0,0,0-.441-.9,1.652,1.652,0,0,0-1.111-.376,1.729,1.729,0,0,0-1.08.3.947.947,0,0,0-.39.786.767.767,0,0,0,.362.69,4.458,4.458,0,0,0,1.309.444,6.821,6.821,0,0,1,1.535.506,2.239,2.239,0,0,1,.872.708,1.74,1.74,0,0,1,.284,1.008,1.893,1.893,0,0,1-.793,1.589,3.326,3.326,0,0,1-2.058.6,3.725,3.725,0,0,1-1.572-.314,2.557,2.557,0,0,1-1.07-.878,2.117,2.117,0,0,1-.386-1.22h1.265a1.309,1.309,0,0,0,.509,1.008,1.976,1.976,0,0,0,1.254.373,2.039,2.039,0,0,0,1.152-.291A.893.893,0,0,0,170.688,85.038Zm12.64-1.654a4.4,4.4,0,0,1-.779,2.724,2.49,2.49,0,0,1-2.092,1.029,2.578,2.578,0,0,1-2.167-.991l-.062.854h-1.162V76.5h1.265v3.917a2.564,2.564,0,0,1,2.112-.95,2.505,2.505,0,0,1,2.116,1.019,4.53,4.53,0,0,1,.769,2.789Zm-1.265-.144a3.417,3.417,0,0,0-.5-2,1.652,1.652,0,0,0-1.436-.7,1.857,1.857,0,0,0-1.8,1.162v3.2a1.909,1.909,0,0,0,1.812,1.162,1.643,1.643,0,0,0,1.415-.7A3.634,3.634,0,0,0,182.063,83.24Zm2.522-.007a4.369,4.369,0,0,1,.427-1.955,3.187,3.187,0,0,1,1.189-1.34,3.238,3.238,0,0,1,1.74-.472,3.119,3.119,0,0,1,2.444,1.046,4.024,4.024,0,0,1,.933,2.782v.089a4.407,4.407,0,0,1-.414,1.938,3.14,3.14,0,0,1-1.183,1.336,3.275,3.275,0,0,1-1.767.479,3.111,3.111,0,0,1-2.437-1.046,4,4,0,0,1-.933-2.769Zm1.271.15a3.164,3.164,0,0,0,.571,1.976,1.934,1.934,0,0,0,3.059-.01,3.46,3.46,0,0,0,.567-2.116,3.159,3.159,0,0,0-.578-1.972,1.836,1.836,0,0,0-1.535-.755,1.816,1.816,0,0,0-1.511.745A3.434,3.434,0,0,0,185.857,83.384Zm10.623-2.646a3.79,3.79,0,0,0-.622-.048,1.667,1.667,0,0,0-1.688,1.06V87H192.9V79.6h1.23l.021.854a1.969,1.969,0,0,1,1.764-.991,1.292,1.292,0,0,1,.561.1Zm2.358-1.135.041.93a2.7,2.7,0,0,1,2.215-1.066q2.345,0,2.365,2.646V87h-1.265V82.105a1.7,1.7,0,0,0-.366-1.183,1.466,1.466,0,0,0-1.118-.383,1.825,1.825,0,0,0-1.08.328,2.228,2.228,0,0,0-.725.861V87h-1.265V79.6ZM210.207,87h-1.265V79.6h1.265Zm-1.367-9.358a.755.755,0,0,1,.188-.52.706.706,0,0,1,.557-.212.717.717,0,0,1,.561.212.747.747,0,0,1,.191.52.722.722,0,0,1-.191.513.73.73,0,0,1-.561.205.718.718,0,0,1-.557-.205A.73.73,0,0,1,208.839,77.642Zm4.587,1.962.041.93a2.7,2.7,0,0,1,2.215-1.066q2.345,0,2.365,2.646V87h-1.265V82.105a1.7,1.7,0,0,0-.366-1.183,1.466,1.466,0,0,0-1.118-.383,1.825,1.825,0,0,0-1.08.328,2.228,2.228,0,0,0-.725.861V87H212.23V79.6Zm11.888-2.557,3.254,8.121,3.254-8.121h1.7V87h-1.312V83.124l.123-4.184L229.067,87h-1L224.8,78.961l.13,4.163V87h-1.312V77.047Zm13.4,10.09a3.232,3.232,0,0,1-2.447-.988,3.666,3.666,0,0,1-.943-2.642v-.232a4.438,4.438,0,0,1,.42-1.965,3.279,3.279,0,0,1,1.176-1.354,2.956,2.956,0,0,1,1.637-.489,2.77,2.77,0,0,1,2.242.95,4.114,4.114,0,0,1,.8,2.721v.526h-5.011a2.629,2.629,0,0,0,.639,1.767,2.009,2.009,0,0,0,1.555.673,2.2,2.2,0,0,0,1.135-.273,2.851,2.851,0,0,0,.813-.725l.772.6A3.106,3.106,0,0,1,238.712,87.137Zm-.157-6.631a1.687,1.687,0,0,0-1.285.557,2.708,2.708,0,0,0-.643,1.562h3.705v-.1a2.409,2.409,0,0,0-.52-1.494A1.588,1.588,0,0,0,238.555,80.506Zm6.986,1.8,1.641-2.7h1.477l-2.42,3.657,2.5,3.739h-1.463l-1.709-2.769L243.853,87h-1.47l2.5-3.739-2.42-3.657h1.463Zm5.831,4.7h-1.265V79.6h1.265Zm-1.367-9.358a.755.755,0,0,1,.188-.52.706.706,0,0,1,.557-.212.717.717,0,0,1,.561.212.747.747,0,0,1,.191.52.722.722,0,0,1-.191.513.73.73,0,0,1-.561.205.718.718,0,0,1-.557-.205A.73.73,0,0,1,250.005,77.642Zm6.357,8.463a1.822,1.822,0,0,0,1.183-.41,1.443,1.443,0,0,0,.561-1.025h1.2a2.293,2.293,0,0,1-.437,1.21,2.882,2.882,0,0,1-1.077.916,3.107,3.107,0,0,1-1.425.342,3.047,3.047,0,0,1-2.4-1.008,4.016,4.016,0,0,1-.892-2.758v-.212a4.453,4.453,0,0,1,.4-1.921,3.02,3.02,0,0,1,1.138-1.306,3.233,3.233,0,0,1,1.753-.465,2.966,2.966,0,0,1,2.068.745,2.663,2.663,0,0,1,.878,1.935h-1.2a1.743,1.743,0,0,0-.543-1.179,1.691,1.691,0,0,0-1.207-.461,1.77,1.77,0,0,0-1.494.694,3.259,3.259,0,0,0-.53,2.006v.239a3.194,3.194,0,0,0,.526,1.969A1.779,1.779,0,0,0,256.363,86.1Zm4.026-2.871a4.369,4.369,0,0,1,.427-1.955,3.187,3.187,0,0,1,1.189-1.34,3.238,3.238,0,0,1,1.74-.472,3.119,3.119,0,0,1,2.444,1.046,4.024,4.024,0,0,1,.933,2.782v.089a4.407,4.407,0,0,1-.414,1.938,3.14,3.14,0,0,1-1.183,1.336,3.275,3.275,0,0,1-1.767.479,3.111,3.111,0,0,1-2.437-1.046,4,4,0,0,1-.933-2.769Zm1.271.15a3.164,3.164,0,0,0,.571,1.976,1.934,1.934,0,0,0,3.059-.01,3.46,3.46,0,0,0,.567-2.116,3.159,3.159,0,0,0-.578-1.972,1.836,1.836,0,0,0-1.535-.755,1.816,1.816,0,0,0-1.511.745A3.434,3.434,0,0,0,261.661,83.384Zm7.007,5.6-.718-.492a3.3,3.3,0,0,0,.67-1.846V85.5h1.237v.991a3.114,3.114,0,0,1-.338,1.381A3.233,3.233,0,0,1,268.667,88.982ZM276.3,87h-1.265V79.6H276.3Zm-1.367-9.358a.755.755,0,0,1,.188-.52.706.706,0,0,1,.557-.212.717.717,0,0,1,.561.212.747.747,0,0,1,.191.52.722.722,0,0,1-.191.513.73.73,0,0,1-.561.205.718.718,0,0,1-.557-.205A.73.73,0,0,1,274.929,77.642Zm7.7,7.4a.931.931,0,0,0-.386-.8,3.718,3.718,0,0,0-1.347-.489,6.367,6.367,0,0,1-1.524-.492,2.169,2.169,0,0,1-.834-.684,1.635,1.635,0,0,1-.27-.943,1.919,1.919,0,0,1,.769-1.538A3,3,0,0,1,281,79.467a3.091,3.091,0,0,1,2.041.649,2.063,2.063,0,0,1,.783,1.661h-1.271a1.142,1.142,0,0,0-.441-.9A1.652,1.652,0,0,0,281,80.506a1.729,1.729,0,0,0-1.08.3.947.947,0,0,0-.39.786.767.767,0,0,0,.362.69,4.458,4.458,0,0,0,1.309.444,6.821,6.821,0,0,1,1.535.506,2.238,2.238,0,0,1,.872.708,1.74,1.74,0,0,1,.284,1.008,1.893,1.893,0,0,1-.793,1.589,3.326,3.326,0,0,1-2.058.6,3.725,3.725,0,0,1-1.572-.314,2.557,2.557,0,0,1-1.07-.878,2.117,2.117,0,0,1-.386-1.22h1.265a1.309,1.309,0,0,0,.509,1.008,1.976,1.976,0,0,0,1.254.373,2.039,2.039,0,0,0,1.152-.291A.893.893,0,0,0,282.626,85.038Zm7.567-5.435.034.82a2.732,2.732,0,0,1,2.194-.957,2.115,2.115,0,0,1,2.112,1.189,2.8,2.8,0,0,1,.96-.861,2.837,2.837,0,0,1,1.4-.328q2.434,0,2.475,2.577V87H298.1V82.119a1.7,1.7,0,0,0-.362-1.186,1.6,1.6,0,0,0-1.217-.393,1.677,1.677,0,0,0-1.169.42,1.706,1.706,0,0,0-.54,1.131V87h-1.271V82.153a1.411,1.411,0,0,0-1.579-1.613,1.692,1.692,0,0,0-1.7,1.06V87H289V79.6Zm13.5,5.544,1.723-5.544h1.354L303.8,88.142q-.69,1.846-2.194,1.846l-.239-.021-.472-.089V88.853l.342.027a1.683,1.683,0,0,0,1-.26,1.88,1.88,0,0,0,.591-.95l.28-.752L300.468,79.6h1.381ZM93.6,103.038a.931.931,0,0,0-.386-.8,3.718,3.718,0,0,0-1.347-.489,6.367,6.367,0,0,1-1.524-.492,2.169,2.169,0,0,1-.834-.684,1.635,1.635,0,0,1-.27-.943A1.919,1.919,0,0,1,90.01,98.1a3,3,0,0,1,1.965-.629,3.091,3.091,0,0,1,2.041.649,2.063,2.063,0,0,1,.783,1.661H93.527a1.142,1.142,0,0,0-.441-.9,1.652,1.652,0,0,0-1.111-.376,1.729,1.729,0,0,0-1.08.3.947.947,0,0,0-.39.786.767.767,0,0,0,.362.69,4.458,4.458,0,0,0,1.309.444,6.821,6.821,0,0,1,1.535.506,2.239,2.239,0,0,1,.872.708,1.74,1.74,0,0,1,.284,1.008,1.893,1.893,0,0,1-.793,1.589,3.326,3.326,0,0,1-2.058.6,3.725,3.725,0,0,1-1.572-.314,2.557,2.557,0,0,1-1.07-.878,2.117,2.117,0,0,1-.386-1.22h1.265a1.309,1.309,0,0,0,.509,1.008,1.976,1.976,0,0,0,1.254.373,2.039,2.039,0,0,0,1.152-.291A.893.893,0,0,0,93.6,103.038ZM97.889,105H96.624V97.6h1.265Zm-1.367-9.358a.755.755,0,0,1,.188-.52.706.706,0,0,1,.557-.212.717.717,0,0,1,.561.212.747.747,0,0,1,.191.52.722.722,0,0,1-.191.513.73.73,0,0,1-.561.205.718.718,0,0,1-.557-.205A.73.73,0,0,1,96.521,95.642Zm7.7,7.4a.931.931,0,0,0-.386-.8,3.718,3.718,0,0,0-1.347-.489,6.367,6.367,0,0,1-1.524-.492,2.169,2.169,0,0,1-.834-.684,1.635,1.635,0,0,1-.27-.943,1.919,1.919,0,0,1,.769-1.538,3,3,0,0,1,1.965-.629,3.091,3.091,0,0,1,2.041.649,2.063,2.063,0,0,1,.783,1.661h-1.271a1.142,1.142,0,0,0-.441-.9,1.652,1.652,0,0,0-1.111-.376,1.729,1.729,0,0,0-1.08.3.947.947,0,0,0-.39.786.767.767,0,0,0,.362.69,4.458,4.458,0,0,0,1.309.444,6.821,6.821,0,0,1,1.535.506,2.239,2.239,0,0,1,.872.708,1.74,1.74,0,0,1,.284,1.008,1.893,1.893,0,0,1-.793,1.589,3.326,3.326,0,0,1-2.058.6,3.725,3.725,0,0,1-1.572-.314,2.557,2.557,0,0,1-1.07-.878,2.117,2.117,0,0,1-.386-1.22h1.265a1.309,1.309,0,0,0,.509,1.008,1.976,1.976,0,0,0,1.254.373,2.039,2.039,0,0,0,1.152-.291A.893.893,0,0,0,104.219,103.038Zm4.628-7.226V97.6h1.381v.978h-1.381v4.593a1.027,1.027,0,0,0,.185.667.777.777,0,0,0,.629.222,3.062,3.062,0,0,0,.6-.082V105a3.688,3.688,0,0,1-.971.136,1.575,1.575,0,0,1-1.278-.513,2.2,2.2,0,0,1-.431-1.456V98.581h-1.347V97.6h1.347V95.813Zm5.927,9.324a3.232,3.232,0,0,1-2.447-.988,3.666,3.666,0,0,1-.943-2.642v-.232a4.438,4.438,0,0,1,.42-1.965,3.28,3.28,0,0,1,1.176-1.354,2.956,2.956,0,0,1,1.637-.489,2.77,2.77,0,0,1,2.242.95,4.114,4.114,0,0,1,.8,2.721v.526h-5.011a2.629,2.629,0,0,0,.639,1.767,2.009,2.009,0,0,0,1.555.673,2.2,2.2,0,0,0,1.135-.273,2.851,2.851,0,0,0,.813-.725l.772.6A3.106,3.106,0,0,1,114.773,105.137Zm-.157-6.631a1.687,1.687,0,0,0-1.285.557,2.708,2.708,0,0,0-.643,1.562h3.705v-.1a2.409,2.409,0,0,0-.52-1.494A1.588,1.588,0,0,0,114.616,98.506Zm8.08.232a3.79,3.79,0,0,0-.622-.048,1.667,1.667,0,0,0-1.688,1.06V105h-1.265V97.6h1.23l.021.854a1.969,1.969,0,0,1,1.764-.991,1.292,1.292,0,0,1,.561.1Zm1.36-.889-.718-.492A3.291,3.291,0,0,0,124,95.484V94.5h1.251v.889a3.378,3.378,0,0,1-1.189,2.461Zm6.248,5.188a.931.931,0,0,0-.386-.8,3.718,3.718,0,0,0-1.347-.489,6.367,6.367,0,0,1-1.524-.492,2.169,2.169,0,0,1-.834-.684,1.635,1.635,0,0,1-.27-.943,1.919,1.919,0,0,1,.769-1.538,3,3,0,0,1,1.965-.629,3.091,3.091,0,0,1,2.041.649,2.063,2.063,0,0,1,.783,1.661h-1.271a1.142,1.142,0,0,0-.441-.9,1.652,1.652,0,0,0-1.111-.376,1.729,1.729,0,0,0-1.08.3.947.947,0,0,0-.39.786.767.767,0,0,0,.362.69,4.458,4.458,0,0,0,1.309.444,6.821,6.821,0,0,1,1.535.506,2.239,2.239,0,0,1,.872.708,1.74,1.74,0,0,1,.284,1.008,1.893,1.893,0,0,1-.793,1.589,3.326,3.326,0,0,1-2.058.6,3.725,3.725,0,0,1-1.572-.314,2.557,2.557,0,0,1-1.07-.878,2.117,2.117,0,0,1-.386-1.22h1.265a1.309,1.309,0,0,0,.509,1.008,1.976,1.976,0,0,0,1.254.373,2.039,2.039,0,0,0,1.152-.291A.893.893,0,0,0,130.3,103.038Zm9.509-2.475a6.172,6.172,0,0,1-2.458-1.193,2.279,2.279,0,0,1-.769-1.747,2.408,2.408,0,0,1,.94-1.945,3.736,3.736,0,0,1,2.444-.769,4.078,4.078,0,0,1,1.829.4,3.007,3.007,0,0,1,1.244,1.094,2.8,2.8,0,0,1,.441,1.524h-1.319a1.82,1.82,0,0,0-.574-1.423,2.335,2.335,0,0,0-1.62-.518,2.391,2.391,0,0,0-1.514.428,1.428,1.428,0,0,0-.543,1.188,1.285,1.285,0,0,0,.516,1.031,5.062,5.062,0,0,0,1.757.77,8.151,8.151,0,0,1,1.941.77,2.946,2.946,0,0,1,1.039.981,2.5,2.5,0,0,1,.338,1.319,2.326,2.326,0,0,1-.943,1.938,4.022,4.022,0,0,1-2.522.728,4.678,4.678,0,0,1-1.914-.393,3.221,3.221,0,0,1-1.371-1.077,2.627,2.627,0,0,1-.482-1.552h1.319a1.714,1.714,0,0,0,.667,1.425,2.806,2.806,0,0,0,1.781.523,2.58,2.58,0,0,0,1.593-.424,1.377,1.377,0,0,0,.554-1.155,1.351,1.351,0,0,0-.513-1.131A5.911,5.911,0,0,0,139.813,100.563Zm11.423.82a4.429,4.429,0,0,1-.772,2.721,2.476,2.476,0,0,1-2.092,1.032,2.713,2.713,0,0,1-2.119-.854v3.562h-1.265V97.6h1.155l.062.82a2.605,2.605,0,0,1,2.146-.957,2.522,2.522,0,0,1,2.109,1,4.477,4.477,0,0,1,.776,2.8Zm-1.265-.144a3.268,3.268,0,0,0-.533-1.976,1.718,1.718,0,0,0-1.463-.725,1.859,1.859,0,0,0-1.723,1.019v3.534a1.863,1.863,0,0,0,1.736,1.012,1.71,1.71,0,0,0,1.446-.721A3.567,3.567,0,0,0,149.972,101.24Zm7.438,3.76a2.657,2.657,0,0,1-.178-.779,2.822,2.822,0,0,1-2.105.916,2.611,2.611,0,0,1-1.794-.619,2,2,0,0,1-.7-1.569,2.091,2.091,0,0,1,.878-1.794,4.142,4.142,0,0,1,2.471-.639h1.23v-.581a1.42,1.42,0,0,0-.4-1.056,1.593,1.593,0,0,0-1.169-.393,1.844,1.844,0,0,0-1.135.342,1.007,1.007,0,0,0-.458.827h-1.271a1.745,1.745,0,0,1,.393-1.07,2.683,2.683,0,0,1,1.066-.817,3.588,3.588,0,0,1,1.48-.3,2.924,2.924,0,0,1,2,.639,2.306,2.306,0,0,1,.752,1.76v3.4a4.162,4.162,0,0,0,.26,1.62V105Zm-2.1-.964a2.223,2.223,0,0,0,1.128-.308,1.861,1.861,0,0,0,.772-.8v-1.518h-.991q-2.324,0-2.324,1.36a1.151,1.151,0,0,0,.4.93A1.524,1.524,0,0,0,155.311,104.036Zm6.344-6.433.041.93a2.7,2.7,0,0,1,2.215-1.066q2.345,0,2.365,2.646V105h-1.265v-4.895a1.7,1.7,0,0,0-.366-1.183,1.466,1.466,0,0,0-1.118-.383,1.825,1.825,0,0,0-1.08.328,2.228,2.228,0,0,0-.725.861V105h-1.265V97.6Zm7.9,7.4h-1.265V97.6h1.265Zm-1.367-9.358a.755.755,0,0,1,.188-.52.706.706,0,0,1,.557-.212.717.717,0,0,1,.561.212.747.747,0,0,1,.191.52.722.722,0,0,1-.191.513.73.73,0,0,1-.561.205.718.718,0,0,1-.557-.205A.73.73,0,0,1,168.189,95.642Zm7.7,7.4a.931.931,0,0,0-.386-.8,3.718,3.718,0,0,0-1.347-.489,6.367,6.367,0,0,1-1.524-.492,2.169,2.169,0,0,1-.834-.684,1.635,1.635,0,0,1-.27-.943,1.919,1.919,0,0,1,.769-1.538,3,3,0,0,1,1.965-.629,3.091,3.091,0,0,1,2.041.649,2.063,2.063,0,0,1,.783,1.661h-1.271a1.142,1.142,0,0,0-.441-.9,1.652,1.652,0,0,0-1.111-.376,1.729,1.729,0,0,0-1.08.3.947.947,0,0,0-.39.786.767.767,0,0,0,.362.69,4.458,4.458,0,0,0,1.309.444,6.821,6.821,0,0,1,1.535.506,2.239,2.239,0,0,1,.872.708,1.74,1.74,0,0,1,.284,1.008,1.893,1.893,0,0,1-.793,1.589,3.326,3.326,0,0,1-2.058.6,3.725,3.725,0,0,1-1.572-.314,2.557,2.557,0,0,1-1.07-.878,2.117,2.117,0,0,1-.386-1.22h1.265a1.309,1.309,0,0,0,.509,1.008,1.976,1.976,0,0,0,1.254.373,2.039,2.039,0,0,0,1.152-.291A.893.893,0,0,0,175.887,103.038Zm4.177-4.539a2.689,2.689,0,0,1,2.188-1.032q2.345,0,2.365,2.646V105h-1.265v-4.895a1.7,1.7,0,0,0-.366-1.183,1.466,1.466,0,0,0-1.118-.383,1.825,1.825,0,0,0-1.08.328,2.228,2.228,0,0,0-.725.861V105H178.8V94.5h1.265Zm11.628-2.687V97.6h1.381v.978h-1.381v4.593a1.027,1.027,0,0,0,.185.667.777.777,0,0,0,.629.222,3.062,3.062,0,0,0,.6-.082V105a3.688,3.688,0,0,1-.971.136,1.575,1.575,0,0,1-1.278-.513,2.2,2.2,0,0,1-.431-1.456V98.581H189.08V97.6h1.347V95.813Zm5.927,9.324a3.232,3.232,0,0,1-2.447-.988,3.666,3.666,0,0,1-.943-2.642v-.232a4.438,4.438,0,0,1,.42-1.965,3.279,3.279,0,0,1,1.176-1.354,2.956,2.956,0,0,1,1.637-.489,2.77,2.77,0,0,1,2.242.95,4.114,4.114,0,0,1,.8,2.721v.526h-5.011a2.629,2.629,0,0,0,.639,1.767,2.009,2.009,0,0,0,1.555.673,2.2,2.2,0,0,0,1.135-.273,2.851,2.851,0,0,0,.813-.725l.772.6A3.106,3.106,0,0,1,197.618,105.137Zm-.157-6.631a1.687,1.687,0,0,0-1.285.557,2.708,2.708,0,0,0-.643,1.562h3.705v-.1a2.409,2.409,0,0,0-.52-1.494A1.588,1.588,0,0,0,197.461,98.506ZM206.532,105a2.657,2.657,0,0,1-.178-.779,2.822,2.822,0,0,1-2.105.916,2.611,2.611,0,0,1-1.794-.619,2,2,0,0,1-.7-1.569,2.091,2.091,0,0,1,.878-1.794,4.142,4.142,0,0,1,2.471-.639h1.23v-.581a1.42,1.42,0,0,0-.4-1.056,1.593,1.593,0,0,0-1.169-.393,1.844,1.844,0,0,0-1.135.342,1.007,1.007,0,0,0-.458.827H201.9a1.745,1.745,0,0,1,.393-1.07,2.683,2.683,0,0,1,1.066-.817,3.588,3.588,0,0,1,1.48-.3,2.924,2.924,0,0,1,2,.639,2.306,2.306,0,0,1,.752,1.76v3.4a4.162,4.162,0,0,0,.26,1.62V105Zm-2.1-.964a2.223,2.223,0,0,0,1.128-.308,1.861,1.861,0,0,0,.772-.8v-1.518h-.991q-2.324,0-2.324,1.36a1.151,1.151,0,0,0,.4.93A1.524,1.524,0,0,0,204.434,104.036Zm8.114.068a1.822,1.822,0,0,0,1.183-.41,1.443,1.443,0,0,0,.561-1.025h1.2a2.293,2.293,0,0,1-.437,1.21,2.881,2.881,0,0,1-1.077.916,3.107,3.107,0,0,1-1.425.342,3.047,3.047,0,0,1-2.4-1.008,4.016,4.016,0,0,1-.892-2.758v-.212a4.453,4.453,0,0,1,.4-1.921,3.02,3.02,0,0,1,1.138-1.306,3.233,3.233,0,0,1,1.753-.465,2.966,2.966,0,0,1,2.068.745,2.663,2.663,0,0,1,.878,1.935h-1.2a1.743,1.743,0,0,0-.543-1.179,1.691,1.691,0,0,0-1.207-.461,1.77,1.77,0,0,0-1.494.694,3.259,3.259,0,0,0-.53,2.006v.239a3.194,3.194,0,0,0,.526,1.969A1.779,1.779,0,0,0,212.548,104.1Zm5.626-5.605a2.689,2.689,0,0,1,2.188-1.032q2.345,0,2.365,2.646V105h-1.265v-4.895a1.7,1.7,0,0,0-.366-1.183,1.466,1.466,0,0,0-1.118-.383,1.825,1.825,0,0,0-1.08.328,2.228,2.228,0,0,0-.725.861V105h-1.265V94.5h1.265Zm9.516,6.638a3.232,3.232,0,0,1-2.447-.988,3.666,3.666,0,0,1-.943-2.642v-.232a4.438,4.438,0,0,1,.42-1.965,3.279,3.279,0,0,1,1.176-1.354,2.956,2.956,0,0,1,1.637-.489,2.77,2.77,0,0,1,2.242.95,4.114,4.114,0,0,1,.8,2.721v.526h-5.011a2.629,2.629,0,0,0,.639,1.767,2.009,2.009,0,0,0,1.555.673,2.2,2.2,0,0,0,1.135-.273,2.851,2.851,0,0,0,.813-.725l.772.6A3.106,3.106,0,0,1,227.689,105.137Zm-.157-6.631a1.687,1.687,0,0,0-1.285.557,2.708,2.708,0,0,0-.643,1.562h3.705v-.1a2.409,2.409,0,0,0-.52-1.494A1.588,1.588,0,0,0,227.532,98.506Zm8.08.232a3.79,3.79,0,0,0-.622-.048,1.667,1.667,0,0,0-1.688,1.06V105h-1.265V97.6h1.23l.021.854a1.969,1.969,0,0,1,1.764-.991,1.292,1.292,0,0,1,.561.1Zm.349,5.6a.792.792,0,0,1,.195-.547.742.742,0,0,1,.584-.219.765.765,0,0,1,.591.219.776.776,0,0,1,.2.547.734.734,0,0,1-.2.526.778.778,0,0,1-.591.212.7.7,0,0,1-.779-.738Z" transform="translate(217 1082)" fill="#12263f"/>
  </g>
</svg>
