<svg xmlns="http://www.w3.org/2000/svg" xmlns:xlink="http://www.w3.org/1999/xlink" width="295" height="497" viewBox="0 0 295 497">
  <defs>
    <clipPath id="clip-path">
      <rect id="Rectángulo_338983" data-name="Rectángulo 338983" width="295" height="472" transform="translate(0 -0.345)" fill="#fff" stroke="#707070" stroke-width="1"/>
    </clipPath>
  </defs>
  <g id="Grupo_984621" data-name="Grupo 984621" transform="translate(-180 -1044)">
    <rect id="Rectángulo_339134" data-name="Rectángulo 339134" width="295" height="497" rx="16" transform="translate(180 1044)" fill="#ffd947"/>
    <g id="Grupo_983733" data-name="Grupo 983733" transform="translate(180 1066.524)">
      <rect id="Rectángulo_338982" data-name="Rectángulo 338982" width="233" height="460" rx="21" transform="translate(0 14.475)" fill="#3c3fa7"/>
      <g id="Enmascarar_grupo_559" data-name="Enmascarar grupo 559" transform="translate(0 2.821)" clip-path="url(#clip-path)">
        <path id="Unión_142" data-name="Unión 142" d="M204.922,78.652C183.136,52.264,150.6,35.141,114.5,34.536,50.193,33.458-1.061,85.188.017,150.083S54.095,268.459,118.4,269.537a111.648,111.648,0,0,0,92.556-45.693c26.568,44.85,74.883,75.477,129.6,76.394A142.642,142.642,0,0,0,456.5,244.91c19.507,39.552,59.8,67.267,105.914,68.04C626.72,314.029,677.973,262.3,676.9,197.4S622.818,79.028,558.517,77.95A111.735,111.735,0,0,0,479.511,108.3C459.792,46.667,402.469,1.143,335.571.021A142.7,142.7,0,0,0,204.922,78.652Z" transform="matrix(-0.809, -0.588, 0.588, -0.809, 277.022, 707.662)" fill="#1d206f"/>
      </g>
      <g id="Grupo_983732" data-name="Grupo 983732" transform="translate(13 -6.524)">
        <g id="Grupo_983728" data-name="Grupo 983728" transform="translate(9.34 425.323)">
          <path id="Trazado_209719" data-name="Trazado 209719" d="M338.976,2225.778l-7.835,41.52-23.135-16.883,5.154-26.526Z" transform="translate(-265.619 -2223.407)" fill="#fff"/>
          <path id="Trazado_209720" data-name="Trazado 209720" d="M328.122,2264.758a.48.48,0,0,1-.284-.092L304.7,2247.782a.48.48,0,0,1-.189-.481l5.153-26.526a.479.479,0,0,1,.508-.388l25.817,1.889a.482.482,0,0,1,.438.57l-7.835,41.52a.48.48,0,0,1-.3.358.485.485,0,0,1-.177.033m-22.6-17.573,22.272,16.253,7.594-40.24-24.852-1.82Z" transform="translate(-262.6 -2220.386)"/>
          <path id="Trazado_209778" data-name="Trazado 209778" d="M72.088,2356.229l2.085,28.137-70.453.574s-1.913-18.664,5.41-19.967,27.168-4.39,27.168-4.39l15.771-12.6,7.367,16.285Z" transform="translate(-3.014 -2330.421)"/>
          <path id="Trazado_209779" data-name="Trazado 209779" d="M1.574,2383.128a.344.344,0,0,1-.342-.309,57.052,57.052,0,0,1-.042-9.561c.6-6.582,2.525-10.209,5.734-10.78,6.991-1.244,25.617-4.148,27.085-4.377l15.7-12.547a.345.345,0,0,1,.528.128l7.2,15.924,12.316-7.824a.344.344,0,0,1,.528.265l2.085,28.137a.343.343,0,0,1-.34.37l-70.453.574Zm48.218-36.759L34.367,2358.7a.343.343,0,0,1-.162.071c-.2.031-19.924,3.1-27.16,4.388-6.424,1.143-5.36,16.859-5.157,19.283l69.768-.569-2.016-27.2L57.475,2362.4a.344.344,0,0,1-.5-.148Z" transform="translate(-0.867 -2328.265)" fill="#fff"/>
          <path id="Trazado_209780" data-name="Trazado 209780" d="M241.046,2324.027s6.339-13.953,9.818-17.045c4.307-3.828,8.172,1.427,3.563,6.623s-13.381,10.422-13.381,10.422" transform="translate(-207.874 -2293.932)"/>
          <path id="Trazado_209781" data-name="Trazado 209781" d="M238.89,2322.211a.344.344,0,0,1-.313-.486c.016-.035,1.612-3.541,3.612-7.38,2.7-5.179,4.816-8.47,6.29-9.78,2.25-2,4.209-1.549,5.2-.556,1.487,1.486,1.569,4.6-1.154,7.665-4.591,5.176-13.374,10.437-13.462,10.489a.351.351,0,0,1-.176.048m12.741-18.354a4.225,4.225,0,0,0-2.694,1.223c-2.837,2.521-7.71,12.607-9.251,15.891,2.406-1.518,8.707-5.671,12.328-9.754,1.8-2.031,2.828-5.077,1.182-6.721a2.157,2.157,0,0,0-1.565-.639" transform="translate(-205.718 -2291.773)" fill="#fff"/>
          <path id="Trazado_209782" data-name="Trazado 209782" d="M74.174,2478.124l-.527-7.118H21.381V2456.7c-4.708.756-9.416,1.527-12.249,2.031-4.122.733-5.318,6.965-5.576,12.274h0a57.365,57.365,0,0,0,.165,7.693l17.66-.145Z" transform="translate(-3.015 -2424.179)" fill="#fff"/>
          <path id="Trazado_209783" data-name="Trazado 209783" d="M.706,2476.161a.481.481,0,0,1-.479-.432,58.359,58.359,0,0,1-.167-7.765c.374-7.7,2.439-12.1,5.972-12.726,2.456-.437,6.58-1.121,12.257-2.033a.482.482,0,0,1,.558.476v13.824H70.631a.481.481,0,0,1,.48.446l.527,7.118a.482.482,0,0,1-.476.517l-70.453.574Zm17.178-21.915c-5.385.866-9.314,1.519-11.683,1.941-2.119.377-4.738,2.734-5.179,11.824a58.317,58.317,0,0,0,.125,7.183l69.494-.566-.456-6.159H18.366a.482.482,0,0,1-.482-.482Z" transform="translate(0 -2421.16)"/>
          <path id="Trazado_209784" data-name="Trazado 209784" d="M168.778,2348.3a.344.344,0,0,1-.344-.344v-7.91a.344.344,0,0,1,.553-.273l7.814,5.965v-8.806a.344.344,0,0,1,.513-.3l8.313,4.684-3.666-14.363a.344.344,0,0,1,.571-.334l9.44,9.008a.344.344,0,1,1-.475.5l-8.573-8.18,3.569,13.981a.344.344,0,0,1-.5.385l-8.5-4.79v8.912a.344.344,0,0,1-.553.274l-7.815-5.965v7.214a.344.344,0,0,1-.344.344" transform="translate(-145.254 -2311.922)" fill="#fff"/>
        </g>
        <path id="Trazado_209723" data-name="Trazado 209723" d="M484.872,706.235l-1.7-9.929,12.117,1.426v16.581l-6.577-1.2Z" transform="translate(-407.084 -565.245)"/>
        <g id="Grupo_983730" data-name="Grupo 983730" transform="translate(200.93 40.129)">
          <path id="Trazado_209724" data-name="Trazado 209724" d="M1215.8,319.505l-.851-11.858a15.582,15.582,0,0,0,1-5.322c.023-2.985-.795-15.076-.795-15.076l-21.715,1.713s3.248,16.677,5.19,20.206,1.562,11.3,1.562,11.3Z" transform="translate(-1182.165 -265.984)" fill="#efa466"/>
          <path id="Trazado_209725" data-name="Trazado 209725" d="M1141.107,315.377s-11.093-4.625-14.534-9.449c-2.934-4.114-4.551-7.6-6.019-9.68a1.238,1.238,0,0,1,.419-1.764,3.51,3.51,0,0,1,4.036.023,22.208,22.208,0,0,1,4.69,4.847c1.177,1.845,7.721,2.917,7.721,2.917Z" transform="translate(-1120.339 -271.572)" fill="#efa466"/>
          <path id="Trazado_209726" data-name="Trazado 209726" d="M1168.3,186.33l-4.735-18.665a2.384,2.384,0,0,1,2.076-2.817,2.608,2.608,0,0,1,3.08,1.639l5.258,18.8Z" transform="translate(-1156.842 -162.41)" fill="#efa466"/>
          <path id="Trazado_209727" data-name="Trazado 209727" d="M1216.28,172.406l-2.8-20.243a2.66,2.66,0,0,1,5.254-.726l3.076,20.73Z" transform="translate(-1199.102 -149.341)" fill="#efa466"/>
          <path id="Trazado_209728" data-name="Trazado 209728" d="M1257.427,182.047l-1.884-17.839a2.491,2.491,0,0,1,2.49-2.469,2.4,2.4,0,0,1,2.759,1.838l2.141,18.269Z" transform="translate(-1234.685 -159.817)" fill="#efa466"/>
          <path id="Trazado_209729" data-name="Trazado 209729" d="M1304.7,212.692l2.561-13.5a2.077,2.077,0,0,1,2.457-1.358h0c1.1.171,1.852.993,1.7,1.867l-2.46,13.865Z" transform="translate(-1276.267 -190.329)" fill="#efa466"/>
          <path id="Trazado_209730" data-name="Trazado 209730" d="M1245.867,353.145a.462.462,0,0,1-.46-.419c-.642-6.755-7.659-10-7.73-10.03a.463.463,0,0,1,.38-.844c.309.139,7.578,3.489,8.271,10.786a.462.462,0,0,1-.417.5l-.044,0" transform="translate(-1219.353 -312.132)"/>
        </g>
        <g id="Grupo_983729" data-name="Grupo 983729" transform="translate(128.481 430.351)">
          <path id="Trazado_209721" data-name="Trazado 209721" d="M737.026,2263.879l-1.668,30.011,21.221-2.728,2.88-29.709Z" transform="translate(-728.252 -2260.972)" fill="#fff"/>
          <path id="Trazado_209722" data-name="Trazado 209722" d="M732.34,2291.355a.481.481,0,0,1-.481-.508l1.667-30.012a.482.482,0,0,1,.429-.452l22.433-2.425a.482.482,0,0,1,.531.525l-2.88,29.709a.482.482,0,0,1-.418.431l-21.221,2.728a.4.4,0,0,1-.062,0m2.126-30.058-1.612,29.026,20.265-2.606,2.786-28.738Z" transform="translate(-725.234 -2257.955)"/>
          <path id="Trazado_209731" data-name="Trazado 209731" d="M694.515,2377.2l-7.3,30.468,55.381.115s.982-13.437-4.135-16.5-14.959-6.308-14.959-6.308l-6.964-10.2-7.308-.093-11.435,10.2Z" transform="translate(-686.737 -2358.616)"/>
          <path id="Trazado_209732" data-name="Trazado 209732" d="M740.443,2405.977h0l-55.381-.115a.345.345,0,0,1-.334-.425l7.3-30.469a.344.344,0,0,1,.651-.055l3.1,7.239,11.077-9.885a.342.342,0,0,1,.233-.088l7.308.093a.346.346,0,0,1,.28.15l6.9,10.11c1.1.369,10.119,3.428,14.918,6.3,5.239,3.138,4.342,16.265,4.3,16.823a.345.345,0,0,1-.343.319m-54.945-.8,54.621.113c.1-2.039.462-13.2-3.987-15.862-5.026-3.012-14.792-6.245-14.89-6.277a.347.347,0,0,1-.177-.133l-6.863-10.057-7-.089-11.335,10.116a.345.345,0,0,1-.545-.121l-2.875-6.724Z" transform="translate(-684.581 -2356.46)" fill="#fff"/>
          <path id="Trazado_209733" data-name="Trazado 209733" d="M849.12,2350.642s-1.035-8.885-5.957-9.1-7.017,2.044-5.483,6.542,11.747,13.134,11.747,13.134l5.915-3.577Z" transform="translate(-816.066 -2330.024)"/>
          <path id="Trazado_209734" data-name="Trazado 209734" d="M742.57,2469.481c-.024-.515-.055-1.021-.1-1.5h-.036c-.4-3.709-1.442-7.762-3.973-9.279-3.957-2.37-10.737-4.847-13.61-5.848-2.315.263-5.48,1.468-8.256,5.476-1.836,2.652-2.692,6.267-3.018,9.651H688.92l-1.7,7.109,26.38.054.006.061h29a45.073,45.073,0,0,0-.029-5.725" transform="translate(-686.737 -2426.034)" fill="#fff"/>
          <path id="Trazado_209735" data-name="Trazado 209735" d="M739.582,2472.668h-29a.476.476,0,0,1-.234-.06l-26.153-.054a.481.481,0,0,1-.467-.594l1.7-7.109a.481.481,0,0,1,.468-.369h24.225c.31-2.825,1.1-6.612,3.056-9.444,2.921-4.219,6.288-5.417,8.6-5.68a.5.5,0,0,1,.213.024c2.781.97,9.684,3.485,13.7,5.89,2.213,1.325,3.621,4.509,4.184,9.461a.477.477,0,0,1,.057.188c.039.455.073.963.1,1.513a45.087,45.087,0,0,1,.029,5.788.482.482,0,0,1-.48.446m0-.481h0Zm-28.769-.482h28.313a46.451,46.451,0,0,0-.055-5.209s0-.008,0-.011c-.022-.469-.049-.905-.081-1.3a.486.486,0,0,1-.05-.167c-.508-4.672-1.8-7.756-3.742-8.918-3.889-2.329-10.6-4.783-13.416-5.769-2.108.266-5.137,1.4-7.806,5.259-1.945,2.81-2.67,6.676-2.934,9.423a.482.482,0,0,1-.48.435h-24.28l-1.472,6.146,25.77.054a.485.485,0,0,1,.232.059" transform="translate(-683.719 -2423.016)"/>
          <path id="Trazado_209736" data-name="Trazado 209736" d="M837.5,2393.354H824.347a.344.344,0,0,1-.122-.666l11.117-4.24H818.183a.344.344,0,0,1-.091-.676l15.58-4.3a.344.344,0,0,1,.183.664l-13.133,3.625h16.486a.344.344,0,0,1,.123.666l-11.117,4.24H837.5a.344.344,0,1,1,0,.688" transform="translate(-799.382 -2366.188)" fill="#fff"/>
        </g>
        <path id="Trazado_209737" data-name="Trazado 209737" d="M192.452,323.25l.026,8.183s-29.015,2.7-42.96,9.718-62.744,48.574-67.4,63.478,15.328,32.952,27.641,42.51S155.571,474,155.571,474l10.7-18.155L129.5,416.38l29.539-17.255s9.77,26.37,17.764,36.7,77.636-1.14,77.636-1.14l9.495-21.006s29.492,29.521,37.962,33.286c9.378,4.17,26.067-.474,26.067-13.062s-7.463-86.629-7.463-86.629l-26.667.814.817,42.112s-29.607-41.695-36.678-46.274S222.3,333.1,222.3,333.1l-.143-8.33Z" transform="translate(-80.953 -262.407)" fill="#fff"/>
        <path id="Trazado_209738" data-name="Trazado 209738" d="M153.544,472.436a.469.469,0,0,1-.216-.052c-.335-.173-33.682-17.429-45.889-26.9-8.625-6.7-15.444-13.2-20.267-19.331-7.095-9.021-9.63-16.991-7.535-23.691,2.938-9.4,22.206-27.539,30.354-34.9,14.589-13.186,30.27-25.321,37.288-28.854,12.939-6.515,39.039-9.352,42.7-9.724l-.024-7.755a.471.471,0,0,1,.146-.342.465.465,0,0,1,.349-.129l29.7,1.518a.47.47,0,0,1,.446.462l.137,7.958c3.5.774,28.751,6.467,35.462,10.813,6.459,4.183,30.859,38.072,35.922,45.157l-.788-40.591a.47.47,0,0,1,.456-.479l26.667-.814h.015a.471.471,0,0,1,.468.423c.075.741,7.465,74.208,7.465,86.676a13.5,13.5,0,0,1-6.594,11.571c-5.758,3.741-14.226,4.549-20.135,1.922-7.958-3.538-33.639-28.937-37.622-32.9l-9.215,20.387a.471.471,0,0,1-.352.271c-.174.029-17.639,2.888-35.856,4.448-24.6,2.106-38.809.934-42.228-3.484-7.322-9.46-16.207-32.526-17.636-36.3l-28.55,16.677,36.372,39.031a.471.471,0,0,1,.061.56L153.95,472.2a.471.471,0,0,1-.406.232M190.9,321.714l.024,7.686a.471.471,0,0,1-.427.47c-.289.027-29.087,2.769-42.792,9.67-6.952,3.5-22.546,15.575-37.08,28.712-17.1,15.456-28.067,28.026-30.087,34.486-2,6.386.485,14.066,7.376,22.828,4.776,6.072,11.539,12.521,20.1,19.169,11.419,8.864,41.543,24.627,45.348,26.606l10.3-17.469-36.534-39.2a.471.471,0,0,1,.107-.727l29.539-17.255a.47.47,0,0,1,.679.243c.1.263,9.836,26.421,17.694,36.576,2.208,2.852,11.182,5.71,41.4,3.123,17-1.455,33.345-4.045,35.54-4.4l9.391-20.776a.471.471,0,0,1,.762-.139c.294.295,29.527,29.5,37.82,33.189,5.639,2.507,13.73,1.729,19.239-1.851a12.593,12.593,0,0,0,6.166-10.781c0-11.919-6.8-80.008-7.417-86.145l-25.764.786.809,41.647a.471.471,0,0,1-.854.282c-.3-.416-29.635-41.673-36.55-46.151s-35.23-10.7-35.515-10.763a.47.47,0,0,1-.37-.452l-.136-7.89Z" transform="translate(-78.927 -260.376)"/>
        <path id="Trazado_209739" data-name="Trazado 209739" d="M715.64,264.8h-17.2a.659.659,0,0,1-.659-.659V236.8a.659.659,0,0,1,.659-.659h17.2a.659.659,0,0,1,.659.659v27.34a.659.659,0,0,1-.659.659M699.1,263.48h15.885V237.458H699.1Z" transform="translate(-581.297 -191.693)"/>
        <path id="Trazado_209740" data-name="Trazado 209740" d="M285.125,1166.28s29.982-204.849,38.768-219.793,18.4-30.226,18.4-30.226l81.149,3.285s21.355,50.738,21.355,84.106-23,172.154-23,172.154l-52.895,1.971,7.228-175.44-39.425,173.469Z" transform="translate(-246.314 -743.802)" fill="#ffb6c8"/>
        <path id="Trazado_209741" data-name="Trazado 209741" d="M731.656,927.448l-12.79,69.868-53.852,12.142,19.022-83.944Z" transform="translate(-554.699 -751.313)" fill="#ffb6c8"/>
        <path id="Trazado_209742" data-name="Trazado 209742" d="M323.893,946.488c-8.786,14.944-38.768,219.793-38.768,219.793l51.581,9.527L376.13,1002.34,368.9,1177.779l52.895-1.971s23-138.786,23-172.154-21.355-84.106-21.355-84.106l-81.149-3.285s-9.612,15.282-18.4,30.226" transform="translate(-246.314 -743.802)" fill="none"/>
        <path id="Trazado_209743" data-name="Trazado 209743" d="M591.375,475.081s8.987-23.08,6.753-42.843-8.113-52.452-12.721-55.1l-10.458-3.288s4.614,10.645,3.211,37.142l-49.848-2.513L517.421,368.26l-14.382,2.653s11.046,28.618,10.332,46.636-8.313,27.541-11.729,29.322-9.437-6.937-9.437-6.937,5.549,25.235,18.06,32.259Z" transform="translate(-414.418 -298.945)" fill="#ffb6c8"/>
        <path id="Trazado_209744" data-name="Trazado 209744" d="M485.06,702.582a.471.471,0,0,1-.232-.88l10.642-6.015a.47.47,0,1,1,.463.819l-10.642,6.015a.469.469,0,0,1-.231.061" transform="translate(-408.235 -564.694)" fill="#fff"/>
        <path id="Trazado_209745" data-name="Trazado 209745" d="M254.9,752.783a.469.469,0,0,1-.351-.157c-.114-.128-11.513-12.795-18.662-14.685a.47.47,0,1,1,.241-.91c7.422,1.962,18.649,14.437,19.123,14.967a.471.471,0,0,1-.35.784" transform="translate(-206.058 -598.293)" fill="#fff"/>
        <path id="Trazado_209746" data-name="Trazado 209746" d="M446.921,483.559a.659.659,0,0,1-.584-.352L430.41,452.962a.659.659,0,0,1,1.166-.614L447.5,482.593a.659.659,0,0,1-.582.966" transform="translate(-364.192 -366.921)"/>
        <path id="Trazado_209747" data-name="Trazado 209747" d="M1211.9,697.692a.658.658,0,0,1-.658-.645l-.646-31.3a.66.66,0,0,1,.646-.672.653.653,0,0,1,.672.645l.645,31.3a.658.658,0,0,1-.645.672h-.014" transform="translate(-997.592 -539.893)"/>
        <path id="Trazado_209748" data-name="Trazado 209748" d="M1176.187,755.386a.659.659,0,0,1-.528-1.051l6.551-8.852a.659.659,0,1,1,1.059.784l-6.551,8.852a.658.658,0,0,1-.53.267" transform="translate(-969.124 -604.95)"/>
        <path id="Trazado_209749" data-name="Trazado 209749" d="M611.922,594.913h11.043a1.736,1.736,0,0,0,1.7-2.1l-4.337-20.037a1.736,1.736,0,0,0-1.7-1.369H607.586a1.736,1.736,0,0,0-1.7,2.1l4.337,20.037a1.736,1.736,0,0,0,1.7,1.369" transform="translate(-506.671 -463.853)" fill="#ffb6c8"/>
        <path id="Trazado_209750" data-name="Trazado 209750" d="M961.95,599.336h11.025a1.951,1.951,0,0,0,1.9-2.375l-4.708-21.134H955.149l4.9,21.983a1.951,1.951,0,0,0,1.9,1.527" transform="translate(-790.225 -467.443)" fill="#ffb6c8"/>
        <path id="Trazado_209751" data-name="Trazado 209751" d="M944.638,541.564q.086,0,.173-.006l13.528-.992a2.315,2.315,0,0,0,2.138-2.477l-.49-6.691a2.314,2.314,0,0,0-2.477-2.138l-13.528.992a2.317,2.317,0,0,0-2.138,2.477l.491,6.691a2.314,2.314,0,0,0,2.3,2.145m13.042-10.8a.808.808,0,0,1,.8.749l.491,6.69a.809.809,0,0,1-.747.865l-13.528.992a.808.808,0,0,1-.865-.747l-.491-6.69a.809.809,0,0,1,.747-.865l13.528-.992.06,0m2.046,7.385h0Z" transform="translate(-779.418 -429.637)" fill="#fff"/>
        <path id="Trazado_209752" data-name="Trazado 209752" d="M590.794,535.75a2.386,2.386,0,0,0,.274-.016l13.744-1.6a2.331,2.331,0,0,0,2.043-2.581l-.772-6.635a2.328,2.328,0,0,0-2.581-2.043l-13.744,1.6a2.328,2.328,0,0,0-2.043,2.581l.772,6.635a2.329,2.329,0,0,0,2.308,2.059m14.565-4.023h0a.823.823,0,0,1-.722.911l-13.744,1.6a.823.823,0,0,1-.912-.721l-.772-6.636a.821.821,0,0,1,.721-.911l13.744-1.6a.822.822,0,0,1,.912.722Z" transform="translate(-491.937 -424.445)" fill="#fff"/>
        <path id="Trazado_209753" data-name="Trazado 209753" d="M665.5,76.214,653.562,61.281,655.586,49.9s8.012-10.908,6.223-24.032S648.85,1.648,636.138.167,608.688,7.23,605.576,20.378s.285,24.339,5.991,28.585l-.7,12.24-12.4,8.621Z" transform="translate(-500.677 0)" fill="#ffd4de"/>
        <path id="Trazado_209754" data-name="Trazado 209754" d="M701.793,38.687c-1.232,14.842-15.077,29.43-28.455,26.806s-21.9-16.6-19.032-31.214,19.984-24.389,28.4-23.408c6.079.708,20.324,12.919,19.087,27.816" transform="translate(-545.556 -8.769)"/>
        <path id="Trazado_209755" data-name="Trazado 209755" d="M661.69,76.214,649.746,61.281,651.771,49.9s8.011-10.908,6.223-24.032S645.035,1.648,632.323.167,604.872,7.23,601.76,20.378s.285,24.339,5.991,28.585l-.7,12.24L593.765,70.44s7.753.016,15.411,10.974c7.952,11.38,25.327,26.9,35.394,27.1,16.1.319,17.119-32.3,17.119-32.3" transform="translate(-496.861 0)" fill="#5774cd"/>
        <path id="Trazado_209756" data-name="Trazado 209756" d="M739.551,277.2a.278.278,0,0,1-.1-.518l32.132-18.162a.278.278,0,0,1,.273.484L739.72,277.166a.276.276,0,0,1-.169.034" transform="translate(-615.008 -209.831)" fill="#fff"/>
        <path id="Trazado_209757" data-name="Trazado 209757" d="M738.774,276.579a.49.49,0,0,1-.055,0,.466.466,0,0,1-.176-.869l32.132-18.163a.466.466,0,0,1,.459.812L739,276.519a.465.465,0,0,1-.228.06M770.9,257.861a.091.091,0,0,0-.044.012l-32.132,18.162a.09.09,0,0,0-.034.123.089.089,0,0,0,.068.045h0a.086.086,0,0,0,.055-.011l32.132-18.162a.09.09,0,0,0,.034-.123.089.089,0,0,0-.078-.045" transform="translate(-614.197 -209.02)" fill="#fff"/>
        <path id="Trazado_209758" data-name="Trazado 209758" d="M684.014,265.715a.288.288,0,0,1-.067-.016l-17.173-6.5a.278.278,0,0,1,.2-.52l17.173,6.5a.278.278,0,0,1-.13.536" transform="translate(-555.983 -209.973)" fill="#fff"/>
        <path id="Trazado_209759" data-name="Trazado 209759" d="M680.041,331.127a.269.269,0,0,1-.076-.02L655.8,320.867a.278.278,0,1,1,.217-.511l24.163,10.24a.278.278,0,0,1-.141.531" transform="translate(-547.084 -260.041)" fill="#fff"/>
        <path id="Trazado_209760" data-name="Trazado 209760" d="M679.26,330.506a.434.434,0,0,1-.053,0,.464.464,0,0,1-.128-.034l-24.164-10.241a.466.466,0,0,1-.247-.611.468.468,0,0,1,.61-.247l24.163,10.241a.465.465,0,0,1,.248.611.47.47,0,0,1-.43.284M655.1,319.71a.089.089,0,0,0-.082.055.089.089,0,0,0,.047.117l24.163,10.24a.09.09,0,0,0,.024.007h0a.09.09,0,0,0,.093-.054.09.09,0,0,0-.047-.117l-24.163-10.24a.091.091,0,0,0-.035-.007" transform="translate(-546.272 -259.229)" fill="#fff"/>
        <path id="Trazado_209761" data-name="Trazado 209761" d="M617.474,347.947a.278.278,0,0,1-.089-.526l52.291-25.188a.278.278,0,1,1,.241.5l-52.291,25.188a.275.275,0,0,1-.152.026" transform="translate(-515.908 -261.56)" fill="#fff"/>
        <path id="Trazado_209762" data-name="Trazado 209762" d="M616.694,347.328a.447.447,0,0,1-.053,0h0a.466.466,0,0,1-.149-.883l52.29-25.188a.466.466,0,0,1,.642.574.463.463,0,0,1-.238.266L616.9,347.282a.464.464,0,0,1-.2.047m-.01-.377a.088.088,0,0,0,.049-.008l52.291-25.188a.086.086,0,0,0,.046-.051.087.087,0,0,0,0-.069.09.09,0,0,0-.12-.041l-52.29,25.187a.087.087,0,0,0-.046.051.09.09,0,0,0,.074.119" transform="translate(-515.096 -260.75)" fill="#fff"/>
        <path id="Trazado_209763" data-name="Trazado 209763" d="M601.76,20.378c-3.112,13.148.285,24.339,5.991,28.585l-.7,12.241L593.765,70.44s7.753.016,15.411,10.974c7.952,11.379,25.327,26.9,35.395,27.1,16.1.319,17.119-32.3,17.119-32.3L649.746,61.281,651.771,49.9s8.011-10.908,6.223-24.032S645.035,1.647,632.323.166a25.1,25.1,0,0,0-2.9-.166c-11.964,0-24.782,8.221-27.659,20.378" transform="translate(-496.861 0)" fill="none"/>
        <path id="Trazado_209764" data-name="Trazado 209764" d="M651.443,49.356c-.436,14.887,10.258,27.278,23.885,27.678S700.356,65.688,700.792,50.8s-10.258-27.279-23.885-27.678-25.028,11.346-25.464,26.232" transform="translate(-543.673 -18.763)" fill="#efa466"/>
        <path id="Trazado_209765" data-name="Trazado 209765" d="M674.672,138.93s-6.526-12.146-17.182-3.576c0,0,5.7,12.983,17.182,3.576" transform="translate(-548.591 -107.392)" fill="#fff"/>
        <path id="Trazado_209766" data-name="Trazado 209766" d="M768.5,183.238a.262.262,0,0,0,.209-.43l-2.806-3.347a.264.264,0,0,0-.185-.093.26.26,0,0,0-.194.069l-3.025,2.8a.262.262,0,1,0,.356.384l2.823-2.618,2.63,3.136a.262.262,0,0,0,.193.093" transform="translate(-633.765 -145.607)"/>
        <path id="Trazado_209767" data-name="Trazado 209767" d="M767.692,182.614a.051.051,0,0,1-.013,0,.453.453,0,0,1-.331-.16l-2.5-2.985-2.677,2.483a.45.45,0,1,1-.612-.66l3.024-2.8a.445.445,0,0,1,.332-.119.454.454,0,0,1,.318.159l2.807,3.347a.45.45,0,0,1-.345.739m0-.376a.074.074,0,0,0,.058-.121l-2.806-3.346a.075.075,0,0,0-.052-.026.072.072,0,0,0-.055.019l-3.025,2.805a.073.073,0,0,0,0,.1.07.07,0,0,0,.051.024.078.078,0,0,0,.054-.02l2.822-2.617a.188.188,0,0,1,.272.017l2.629,3.136a.073.073,0,0,0,.054.026" transform="translate(-632.952 -144.795)"/>
        <path id="Trazado_209768" data-name="Trazado 209768" d="M680.135,107.777a.262.262,0,0,0,.113-.022,10.348,10.348,0,0,1,9.447.262.262.262,0,0,0,.29-.436,10.683,10.683,0,0,0-9.947-.306.262.262,0,0,0,.1.5" transform="translate(-566.768 -86.232)"/>
        <path id="Trazado_209769" data-name="Trazado 209769" d="M689.025,107.434a.445.445,0,0,1-.248-.075,10.19,10.19,0,0,0-9.268-.246.428.428,0,0,1-.193.037.452.452,0,0,1-.4-.27.45.45,0,0,1,.232-.592,10.861,10.861,0,0,1,10.128.322.45.45,0,0,1-.252.824m-5.011-1.676a9.665,9.665,0,0,1,4.973,1.288.074.074,0,0,0,.081-.123,10.466,10.466,0,0,0-9.767-.29.075.075,0,0,0-.039.041.073.073,0,0,0,0,.056.074.074,0,0,0,.065.044h0a.077.077,0,0,0,.032-.006,11.551,11.551,0,0,1,4.655-1.01" transform="translate(-565.955 -85.417)"/>
        <path id="Trazado_209770" data-name="Trazado 209770" d="M823.7,111.42a.262.262,0,0,0,.15-.042,10.628,10.628,0,0,1,9.584-.233.262.262,0,0,0,.208-.481,10.953,10.953,0,0,0-10.079.276.262.262,0,0,0,.136.481" transform="translate(-683.313 -88.971)"/>
        <path id="Trazado_209771" data-name="Trazado 209771" d="M822.9,110.8h-.013a.45.45,0,0,1-.234-.826,11.154,11.154,0,0,1,10.257-.291.45.45,0,0,1,.233.592.452.452,0,0,1-.591.234,10.475,10.475,0,0,0-9.407.218.448.448,0,0,1-.245.073m0-.376a.074.074,0,0,0,.042-.012,10.775,10.775,0,0,1,9.762-.248.074.074,0,0,0,.1-.039.072.072,0,0,0,0-.056.073.073,0,0,0-.039-.04,10.76,10.76,0,0,0-9.9.261.074.074,0,0,0,.039.135" transform="translate(-682.502 -88.164)"/>
        <path id="Trazado_209772" data-name="Trazado 209772" d="M814.8,146.369s7.35-11.446,17.371-1.834c0,0-6.583,12.364-17.371,1.834" transform="translate(-676.289 -114.211)" fill="#fff"/>
        <path id="Trazado_209773" data-name="Trazado 209773" d="M740.692,234.337s4.641-3.493,15.032-1.164c0,0-6.673,6.717-15.032,1.164" transform="translate(-616.134 -188.634)" fill="#ee2700"/>
        <path id="Trazado_209774" data-name="Trazado 209774" d="M682.838,23.123c10.3.3,18.925,7.461,22.332,17.369-21.391-2.022-29.045-13.284-29.045-13.284-1.059,6.807-11.867,11.92-17.389,14.111,3.46-10.853,13.048-18.52,24.1-18.2" transform="translate(-549.603 -18.763)"/>
        <path id="Trazado_209775" data-name="Trazado 209775" d="M737.161,234.528c-1.726,0-2.942-.04-3.11-.046a.282.282,0,0,1-.273-.292.287.287,0,0,1,.292-.273c.147.006,14.669.48,17.034-1.925a.282.282,0,0,1,.4.4c-1.836,1.867-9.833,2.139-14.346,2.139" transform="translate(-610.521 -188.259)"/>
        <path id="Trazado_209777" data-name="Trazado 209777" d="M672.356,133.242a5.009,5.009,0,1,0,5.008-5.009,5.009,5.009,0,0,0-5.008,5.009" transform="translate(-559.539 -103.226)"/>
        <path id="Trazado_210036" data-name="Trazado 210036" d="M672.356,133.146a4.913,4.913,0,1,0,4.913-4.913,4.913,4.913,0,0,0-4.913,4.913" transform="translate(-529.541 -101.752)"/>
        <g id="Grupo_983731" data-name="Grupo 983731" transform="translate(70.727 179.768)">
          <path id="Trazado_209785" data-name="Trazado 209785" d="M449.124,1049.417l2.746,5.865-2.565,7.71-1.633-1.257s-3.06-3.13-2.883-5.493,4.335-6.824,4.335-6.824" transform="translate(-444.142 -1032.046)" fill="#efa466"/>
          <path id="Trazado_209786" data-name="Trazado 209786" d="M468.189,946.08a22.4,22.4,0,0,1,1.547-3.8,7.094,7.094,0,0,1,9.7-2.976l9.333,5.082a2.147,2.147,0,0,1,.674,3.2,3.884,3.884,0,0,1-4.736,1.157l-6.514-2.956Z" transform="translate(-463.886 -938.432)" fill="#efa466"/>
          <path id="Trazado_209787" data-name="Trazado 209787" d="M451.7,988.01l-.44-4.2a4.074,4.074,0,0,1,.2-1.774,6.775,6.775,0,0,1,5.493-4.467l1.959-.262a8.858,8.858,0,0,1,7.545,2.624l5.893,6.089c2.844,2.943-.594,5.528-3.9,4.721a7.094,7.094,0,0,1-.978-.313c-2.821-1.143-7.527-5.988-7.527-5.988Z" transform="translate(-449.589 -971.158)" fill="#efa466"/>
          <path id="Trazado_209788" data-name="Trazado 209788" d="M446.586,1013.017s.56-5.789,2.16-7.294a6.462,6.462,0,0,1,9.315.356l6.382,7.305a2.02,2.02,0,0,1-.457,3.007,3.649,3.649,0,0,1-2.128.592,3.5,3.5,0,0,1-2.322-1.024l-4.646-4.58Z" transform="translate(-445.664 -993.665)" fill="#efa466"/>
          <path id="Trazado_209789" data-name="Trazado 209789" d="M441.647,1039.353c1.934-3.047,5.625-3.528,7.79-1.327l5.78,5.874a2.216,2.216,0,0,1-.192,2.971,3.233,3.233,0,0,1-1.738.95,2.411,2.411,0,0,1-2-.568l-2.864-2.728c-4.058-3.479-3-1.046-6.1,3.984,0,0-3.159-5.242-.675-9.156" transform="translate(-440.695 -1021.289)" fill="#efa466"/>
          <path id="Trazado_209790" data-name="Trazado 209790" d="M574.488,976.291a4.049,4.049,0,0,1-1.695-.406c-1.45-.683-2.245-1.944-1.809-2.87s1.914-1.117,3.365-.435a3.864,3.864,0,0,1,1.576,1.295,1.438,1.438,0,0,1-1.13,2.4,2.934,2.934,0,0,1-.307.016m-1.839-3.644a1.292,1.292,0,0,0-1.24.568c-.313.665.412,1.694,1.584,2.245a3.391,3.391,0,0,0,1.753.348.98.98,0,0,0,.788-1.673,3.389,3.389,0,0,0-1.385-1.129,3.6,3.6,0,0,0-1.5-.359" transform="translate(-550.491 -966.892)"/>
          <rect id="Rectángulo_338711" data-name="Rectángulo 338711" width="5.412" height="4.12" transform="translate(20.374 5.28)" fill="none"/>
          <path id="Trazado_209791" data-name="Trazado 209791" d="M557.761,1031.608c-.066,0-.133,0-.2-.007a4.139,4.139,0,0,1-3.466-2.809,1.915,1.915,0,0,1,2.1-2.586,3.9,3.9,0,0,1,2.144.9c1.37,1.11,1.831,2.822,1.026,3.814a1.988,1.988,0,0,1-1.6.69m-1.771-4.939a1.535,1.535,0,0,0-1.236.516,1.6,1.6,0,0,0-.209,1.479,3.675,3.675,0,0,0,3.047,2.469,1.6,1.6,0,0,0,1.4-.51c.641-.792.212-2.206-.957-3.154a3.431,3.431,0,0,0-1.88-.794c-.057,0-.113-.006-.167-.006m3.187,4.1h0Z" transform="translate(-536.256 -1012.462)"/>
          <rect id="Rectángulo_338712" data-name="Rectángulo 338712" width="5.767" height="5.409" transform="translate(17.732 13.737)" fill="none"/>
          <path id="Trazado_209792" data-name="Trazado 209792" d="M530.9,1055.641a2.609,2.609,0,0,1-.417-.034,3.872,3.872,0,0,1-3.012-2.966,1.856,1.856,0,0,1,2.247-2.281,3.655,3.655,0,0,1,1.946,1.035c1.191,1.172,1.458,2.839.6,3.714a1.862,1.862,0,0,1-1.36.531m-1.6-4.845a1.4,1.4,0,0,0-1.028.391,1.525,1.525,0,0,0-.342,1.374,3.407,3.407,0,0,0,2.623,2.583,1.524,1.524,0,0,0,1.368-.363c.681-.691.416-2.06-.591-3.051a3.187,3.187,0,0,0-1.691-.906,2.161,2.161,0,0,0-.34-.028m2.789,4.149h0Z" transform="translate(-513.853 -1032.813)"/>
          <rect id="Rectángulo_338713" data-name="Rectángulo 338713" width="5.335" height="5.315" transform="translate(13.575 17.514)" fill="none"/>
          <path id="Trazado_209793" data-name="Trazado 209793" d="M506.568,1076.509a3.554,3.554,0,0,1-2.386-1.1,3.812,3.812,0,0,1-1.086-1.891,1.843,1.843,0,0,1,.405-1.724c.811-.824,2.437-.543,3.624.625s1.493,2.79.681,3.614a1.692,1.692,0,0,1-1.238.473m-1.822-4.726a1.242,1.242,0,0,0-.911.343,1.393,1.393,0,0,0-.28,1.3,3.339,3.339,0,0,0,.956,1.651c1,.987,2.331,1.27,2.96.631s.327-1.964-.676-2.951a3.1,3.1,0,0,0-2.05-.973m2.893,4.088h0Z" transform="translate(-493.283 -1050.524)"/>
          <rect id="Rectángulo_338714" data-name="Rectángulo 338714" width="5.22" height="5.187" transform="translate(9.758 20.799)" fill="none"/>
          <path id="Trazado_209794" data-name="Trazado 209794" d="M459.411,1046.273a.136.136,0,0,0,.111-.04,2.362,2.362,0,0,0,.192-3.162l-5.78-5.873a4.681,4.681,0,0,0-3.853-1.376,5.693,5.693,0,0,0-4.15,2.726.137.137,0,0,0,.231.146,5.423,5.423,0,0,1,3.948-2.6,4.353,4.353,0,0,1,3.63,1.3l5.78,5.874a2.079,2.079,0,0,1-.192,2.779.137.137,0,0,0,0,.193.133.133,0,0,0,.082.038" transform="translate(-445.094 -1020.556)"/>
          <path id="Trazado_209795" data-name="Trazado 209795" d="M458.58,1045.587h-.029a.293.293,0,0,1-.179-.5,1.917,1.917,0,0,0,.192-2.559l-5.78-5.874a4.2,4.2,0,0,0-3.5-1.25,5.27,5.27,0,0,0-3.833,2.529.293.293,0,0,1-.533-.093.29.29,0,0,1,.039-.221,5.849,5.849,0,0,1,4.266-2.8,4.84,4.84,0,0,1,3.981,1.422l5.78,5.874a2.525,2.525,0,0,1-.193,3.382.293.293,0,0,1-.208.087" transform="translate(-444.249 -1019.713)"/>
          <path id="Trazado_209796" data-name="Trazado 209796" d="M468.759,1012.7a.135.135,0,0,0,.1-.033.136.136,0,0,0,.013-.193l-6.382-7.3a6.944,6.944,0,0,0-6.247-2.123,5.9,5.9,0,0,0-4.519,4.2.136.136,0,1,0,.257.092,5.639,5.639,0,0,1,4.313-4.025,6.659,6.659,0,0,1,5.991,2.035l6.382,7.3a.136.136,0,0,0,.089.046" transform="translate(-449.994 -992.847)"/>
          <path id="Trazado_209797" data-name="Trazado 209797" d="M467.929,1012.019l-.029,0a.292.292,0,0,1-.192-.1l-6.382-7.3a6.5,6.5,0,0,0-5.844-1.984,5.491,5.491,0,0,0-4.195,3.924.293.293,0,1,1-.552-.2,6.046,6.046,0,0,1,4.637-4.3,7.106,7.106,0,0,1,6.394,2.174l6.382,7.3a.293.293,0,0,1-.221.486" transform="translate(-449.151 -992.007)"/>
          <path id="Trazado_209798" data-name="Trazado 209798" d="M467.439,978.174a.136.136,0,0,0,.064-.009,27.4,27.4,0,0,1,4.987-1.488,8.531,8.531,0,0,1,7.429,2.584.136.136,0,1,0,.2-.189,8.8,8.8,0,0,0-7.661-2.665,27.077,27.077,0,0,0-5.053,1.505.136.136,0,0,0,.038.262" transform="translate(-463.149 -970.392)"/>
          <path id="Trazado_209799" data-name="Trazado 209799" d="M479.175,978.615h-.005a.291.291,0,0,1-.206-.089,8.377,8.377,0,0,0-7.3-2.538,27.542,27.542,0,0,0-4.949,1.478.293.293,0,1,1-.219-.543,27.375,27.375,0,0,1,5.091-1.515,8.948,8.948,0,0,1,7.794,2.711.293.293,0,0,1-.211.5" transform="translate(-462.307 -969.547)"/>
        </g>
        <path id="Trazado_209800" data-name="Trazado 209800" d="M584.358,901.209a.659.659,0,0,1-.461-1.129c.748-.735,1.936-2.255,1.936-3.2a11.94,11.94,0,0,0-.9-3.579.659.659,0,0,1,1.213-.515,13.028,13.028,0,0,1,1.009,4.094c0,1.809-2.093,3.912-2.332,4.145a.657.657,0,0,1-.461.188" transform="translate(-488.69 -724.415)"/>
        <path id="Trazado_209801" data-name="Trazado 209801" d="M615.782,901.707a.659.659,0,0,1-.492-1.1,6.129,6.129,0,0,0,1.549-3.178,14.151,14.151,0,0,0-1.076-4.14.659.659,0,0,1,1.216-.507,15.664,15.664,0,0,1,1.177,4.647c0,1.918-1.805,3.968-1.882,4.054a.657.657,0,0,1-.492.221" transform="translate(-514.199 -724.414)"/>
        <path id="Trazado_209802" data-name="Trazado 209802" d="M657.339,905.314a.659.659,0,0,1-.615-.895,13.872,13.872,0,0,0,.866-4,20.5,20.5,0,0,0-.774-4.435.659.659,0,0,1,1.265-.368,21.427,21.427,0,0,1,.826,4.8,14.97,14.97,0,0,1-.953,4.473.659.659,0,0,1-.615.423" transform="translate(-547.935 -726.655)"/>
        <path id="Trazado_209803" data-name="Trazado 209803" d="M705.381,908.159a.659.659,0,0,1-.613-.9,14.817,14.817,0,0,0,.961-4.207,15.936,15.936,0,0,0-.859-4.19.659.659,0,0,1,1.242-.438,16.971,16.971,0,0,1,.935,4.628,15.867,15.867,0,0,1-1.052,4.686.659.659,0,0,1-.614.419" transform="translate(-586.934 -728.966)"/>
        <path id="Trazado_209804" data-name="Trazado 209804" d="M762.178,908.159l-.054,0a.659.659,0,0,1-.6-.71c0-.025.2-2.46.2-4.28,0-1.836-.088-4.474-.089-4.5a.659.659,0,0,1,1.317-.044c0,.027.089,2.687.089,4.545,0,1.873-.192,4.284-.2,4.385a.659.659,0,0,1-.656.606" transform="translate(-633.04 -728.966)"/>
        <path id="Trazado_209805" data-name="Trazado 209805" d="M813.769,908.158h-.008a.659.659,0,0,1-.651-.667l.11-8.855a.659.659,0,0,1,1.318.016l-.11,8.855a.659.659,0,0,1-.658.651" transform="translate(-674.92 -728.965)"/>
        <path id="Trazado_209806" data-name="Trazado 209806" d="M867.445,908.158h-.008a.659.659,0,0,1-.651-.667l.11-8.855a.652.652,0,0,1,.667-.651.659.659,0,0,1,.651.667l-.11,8.855a.659.659,0,0,1-.659.651" transform="translate(-718.493 -728.965)"/>
        <path id="Trazado_209807" data-name="Trazado 209807" d="M914.007,908.158H914a.658.658,0,0,1-.65-.667l.11-8.855a.659.659,0,1,1,1.317.016l-.11,8.855a.659.659,0,0,1-.659.651" transform="translate(-756.292 -728.965)"/>
        <path id="Trazado_209808" data-name="Trazado 209808" d="M948.888,908.159a.659.659,0,0,1-.647-.537,15.728,15.728,0,0,1,.113-9.114.659.659,0,0,1,1.289.274,14.558,14.558,0,0,0-.107,8.6.659.659,0,0,1-.648.78" transform="translate(-784.115 -728.965)"/>
        <path id="Trazado_209809" data-name="Trazado 209809" d="M979.665,908.159a.659.659,0,0,1-.632-.475,24.978,24.978,0,0,1-.915-4.281,28.85,28.85,0,0,1,1.023-4.937.659.659,0,1,1,1.267.359,28.063,28.063,0,0,0-.973,4.574,24.165,24.165,0,0,0,.862,3.919.659.659,0,0,1-.633.842" transform="translate(-808.87 -728.965)"/>
        <path id="Trazado_209810" data-name="Trazado 209810" d="M1004.778,908.159a.659.659,0,0,1-.617-.426,20.117,20.117,0,0,1-1.2-4.328,23.159,23.159,0,0,1,1.3-4.984.659.659,0,1,1,1.239.447,21.892,21.892,0,0,0-1.224,4.527,18.925,18.925,0,0,0,1.112,3.872.659.659,0,0,1-.384.849.667.667,0,0,1-.232.042" transform="translate(-829.041 -728.965)"/>
        <path id="Trazado_209811" data-name="Trazado 209811" d="M890.149,971.722a.659.659,0,0,1-.659-.659V932.919a.659.659,0,0,1,1.318,0v38.144a.659.659,0,0,1-.659.659" transform="translate(-736.924 -756.789)"/>
        <path id="Trazado_209812" data-name="Trazado 209812" d="M882.992,1122.947h.417a2.263,2.263,0,0,0,2.263-2.263v-2.025a2.263,2.263,0,0,0-2.263-2.263h-.417a2.263,2.263,0,0,0-2.263,2.263v2.025a2.263,2.263,0,0,0,2.263,2.263" transform="translate(-729.812 -906.267)"/>
        <path id="Trazado_209813" data-name="Trazado 209813" d="M834.19,974.812a.659.659,0,0,1-.659-.659V928.661a.659.659,0,0,1,1.318,0v45.493a.659.659,0,0,1-.659.659" transform="translate(-691.498 -753.331)"/>
        <path id="Trazado_209814" data-name="Trazado 209814" d="M827.241,1154.751h0a2.471,2.471,0,0,0,2.471-2.471v-2.87a2.471,2.471,0,1,0-4.942,0v2.87a2.471,2.471,0,0,0,2.471,2.471" transform="translate(-684.386 -931.06)"/>
        <path id="Trazado_209815" data-name="Trazado 209815" d="M759.765,1340.742a.627.627,0,0,1-.126-.012.659.659,0,0,1-.521-.772l2.522-12.963a.658.658,0,0,1,.491-.515l17.46-4.237a.659.659,0,1,1,.31,1.28l-17.049,4.137-2.441,12.548a.659.659,0,0,1-.646.533" transform="translate(-631.081 -1073.353)"/>
        <path id="Trazado_209816" data-name="Trazado 209816" d="M331.395,2167.7a.711.711,0,0,1-.108-.009l-49.11-8.113a.659.659,0,1,1,.215-1.3l49.11,8.113a.659.659,0,0,1-.107,1.309" transform="translate(-243.472 -1752.034)"/>
        <path id="Trazado_209817" data-name="Trazado 209817" d="M719.4,2205.811a.659.659,0,0,1-.034-1.317l59.626-3.126a.659.659,0,0,1,.069,1.316l-59.626,3.126H719.4" transform="translate(-598.315 -1787.022)"/>
      </g>
    </g>
  </g>
</svg>
