<svg xmlns="http://www.w3.org/2000/svg" xmlns:xlink="http://www.w3.org/1999/xlink" width="610" height="242" viewBox="0 0 610 242">
  <defs>
    <clipPath id="clip-path">
      <path id="Rectángulo_339573" data-name="Rectángulo 339573" d="M61,0H549a61,61,0,0,1,61,61v61a0,0,0,0,1,0,0H0a0,0,0,0,1,0,0V61A61,61,0,0,1,61,0Z" transform="translate(495 1651)" fill="#6b8dfc"/>
    </clipPath>
    <clipPath id="clip-path-2">
      <rect id="Rectángulo_339572" data-name="Rectángulo 339572" width="480" height="242" transform="translate(556 1527)" fill="#fff" stroke="#707070" stroke-width="1"/>
    </clipPath>
    <clipPath id="clip-path-3">
      <rect id="Rectángulo_339565" data-name="Rectángulo 339565" width="208.437" height="380.061" transform="translate(0 -7)" fill="none"/>
    </clipPath>
    <clipPath id="clip-path-4">
      <rect id="Rectángulo_339564" data-name="Rectángulo 339564" width="208.437" height="380.061" fill="none"/>
    </clipPath>
    <clipPath id="clip-path-5">
      <rect id="Rectángulo_339558" data-name="Rectángulo 339558" width="76.389" height="8.524" transform="translate(66.101 200.34)" fill="none"/>
    </clipPath>
    <clipPath id="clip-path-6">
      <rect id="Rectángulo_339559" data-name="Rectángulo 339559" width="2.721" height="9.451" transform="translate(186.429 138)" fill="none"/>
    </clipPath>
    <clipPath id="clip-path-7">
      <rect id="Rectángulo_339560" data-name="Rectángulo 339560" width="17.741" height="12.486" transform="translate(90.507 104.374)" fill="none"/>
    </clipPath>
    <clipPath id="clip-path-8">
      <rect id="Rectángulo_339561" data-name="Rectángulo 339561" width="68.951" height="31.548" transform="translate(54.109 81.345)" fill="none"/>
    </clipPath>
    <clipPath id="clip-path-9">
      <rect id="Rectángulo_339562" data-name="Rectángulo 339562" width="5.972" height="24.751" transform="translate(67.724 54.397)" fill="none"/>
    </clipPath>
    <clipPath id="clip-path-10">
      <rect id="Rectángulo_339563" data-name="Rectángulo 339563" width="12.179" height="9.376" transform="translate(131.775 66.956)" fill="none"/>
    </clipPath>
    <clipPath id="clip-path-11">
      <rect id="Rectángulo_339571" data-name="Rectángulo 339571" width="171.802" height="401.793" fill="none"/>
    </clipPath>
    <clipPath id="clip-path-13">
      <rect id="Rectángulo_339566" data-name="Rectángulo 339566" width="7.352" height="6.899" transform="translate(0)" fill="none"/>
    </clipPath>
    <clipPath id="clip-path-14">
      <rect id="Rectángulo_339567" data-name="Rectángulo 339567" width="19.976" height="15.869" transform="translate(0)" fill="none"/>
    </clipPath>
    <clipPath id="clip-path-15">
      <rect id="Rectángulo_339568" data-name="Rectángulo 339568" width="9.888" height="11.636" transform="translate(0)" fill="none"/>
    </clipPath>
    <clipPath id="clip-path-16">
      <rect id="Rectángulo_339569" data-name="Rectángulo 339569" width="10.881" height="27.267" transform="translate(0)" fill="none"/>
    </clipPath>
  </defs>
  <g id="Grupo_984626" data-name="Grupo 984626" transform="translate(-495 -1531)">
    <path id="Rectángulo_338258" data-name="Rectángulo 338258" d="M61,0H549a61,61,0,0,1,61,61v61a0,0,0,0,1,0,0H0a0,0,0,0,1,0,0V61A61,61,0,0,1,61,0Z" transform="translate(495 1651)" fill="#6b8dfc"/>
    <g id="Grupo_984518" data-name="Grupo 984518">
      <g id="Enmascarar_grupo_608" data-name="Enmascarar grupo 608" clip-path="url(#clip-path)">
        <g id="Grupo_984516" data-name="Grupo 984516" transform="translate(288.392 1099.181)">
          <g id="Grupo_82657" data-name="Grupo 82657" transform="translate(146.426 198.288)" style="mix-blend-mode: overlay;isolation: isolate">
            <path id="Trazado_115694" data-name="Trazado 115694" d="M584.094,429.091c-32.143,32.89-65.359,64.572-99.209,95.694,14.637-33.09,30.415-65.653,44.311-99.089,15.751-37.907,34.064-89.576,14.2-129.337-45.258-90.63-159.665-1.7-201.768,43.917-4.483,4.863-8.766,9.94-13.1,14.957,15.044-36.839,28.587-74.692,25.011-114.493-4.917-54.725-55.085-67.854-98.275-42.423-46.379,27.3-83.632,74.539-114.734,117.442-26.418,36.439,34.031,71.13,60.242,35.211a473.881,473.881,0,0,1,47.093-55.085q-3.753,6.875-7.585,13.723c-16.9,30.188-33.59,60.5-47.36,92.271C166.555,462.715,127.56,546.94,160.73,610.932c16.718,32.249,55.919,35.525,85.433,22.4,39.674-17.639,67.154-56.58,93.646-89.536,27.653-34.411,52.01-70.95,77.608-106.855,10.694-15,21.382-30.221,33.63-44.017.28-.32.574-.614.854-.927l-.307.967c-6.8,21.135-15.538,41.416-24.391,61.75-16.465,37.833-37.706,77.654-43.737,118.816-5.33,36.4,9.407,77.194,53.184,74.552,41.156-2.482,74.139-42.123,101.651-68.595,33.317-32.062,66.04-64.759,98.769-97.421C671.248,447.964,617.857,394.553,584.094,429.091Z" transform="translate(-127.243 -179.154)" fill="#3c384f"/>
            <path id="Trazado_115695" data-name="Trazado 115695" d="M438.471,660.563c-16.151,0-29.861-5.671-39.835-16.531-13.863-15.1-19.854-39.688-16.031-65.779,4.983-34.017,19.821-66.6,34.164-98.1,3.436-7.545,6.838-15.017,10.054-22.409,3.049-7.012,6.258-14.377,9.44-22q-2.922,4.073-5.784,8.1l-1.895,2.662q-9.977,13.99-19.774,28.06c-18.42,26.285-37.466,53.471-58.067,79.1-3.009,3.743-6.031,7.565-9.086,11.428-23.623,29.874-50.4,63.731-87.048,80.023-32.676,14.51-75.473,10.447-94.059-25.424-33.4-64.438,2.662-147.357,29-207.9l2.989-6.885c7.745-17.886,16.431-35.345,25.645-52.724q-3.2,4.173-6.284,8.406c-16.2,22.2-44.585,21.869-62.671,8.713-14.957-10.881-23.35-31.108-8.366-51.776,33.2-45.8,70.329-91.951,116.755-119.277,25.765-15.164,53.965-17.626,75.453-6.585,18.92,9.72,30.588,28.954,32.85,54.165,2.655,29.567-3.729,57.867-12.982,84.866,34.257-33.47,97.615-80.937,148.444-73.745,23.35,3.316,41.422,17.486,53.718,42.11,20.228,40.495,4.27,90.91-14.01,134.881-8.7,20.935-18.266,41.816-27.519,62.017l-3.276,7.145c27.533-25.818,52.163-49.868,74.766-72.991v.007c11.175-11.441,25.371-15.644,39.935-11.862,15.991,4.163,29.661,17.726,34.011,33.764,3.989,14.71-.087,29.08-11.488,40.455l-3.723,3.709c-30.988,30.928-63.031,62.911-95.133,93.792-3.956,3.809-8.019,7.886-12.209,12.089-24.924,24.984-55.939,56.086-93.666,58.361C441.333,660.523,439.892,660.563,438.471,660.563ZM457.611,391.3a6.3,6.3,0,0,1,3.229.861,6.49,6.49,0,0,1,3.149,7.572l-.313.974c-7.125,22.162-16.418,43.517-24.617,62.357-3.249,7.465-6.685,15-10.147,22.609-13.956,30.661-28.393,62.364-33.1,94.513-3.2,21.829,1.654,42.837,12.655,54.818,8.159,8.886,19.42,12.909,33.517,12.108,32.663-1.975,60.482-29.861,85.026-54.471,4.256-4.263,8.386-8.406,12.4-12.275,32.016-30.8,64.018-62.737,94.966-93.626l3.716-3.709c10.087-10.06,9.934-20.514,8.039-27.513-3.089-11.388-13.162-21.4-24.49-24.344-6.9-1.8-17.185-1.815-27.032,8.266v.007c-29.2,29.868-61.737,61.25-99.476,95.934a6.672,6.672,0,0,1-10.614-7.612c5.531-12.509,11.228-24.937,16.925-37.366,9.2-20.094,18.72-40.869,27.326-61.583,17.125-41.189,32.223-88.109,14.4-123.793C532.8,284.266,518.52,272.864,499.5,270.169c-47.387-6.711-114.027,44.338-147.23,80.323-3.543,3.829-6.952,7.805-10.367,11.781l-2.582,3.009a6.671,6.671,0,0,1-11.228-6.878c14.323-35.091,28.02-72.6,24.537-111.385-1.868-20.781-10.741-35.818-25.658-43.484-17.4-8.94-40.8-6.611-62.591,6.211-44.311,26.091-80.363,70.983-112.719,115.614-10.22,14.1-3.909,26.379,5.41,33.157,12.622,9.173,32.343,10.254,44.044-5.791a483.127,483.127,0,0,1,47.753-55.866,6.674,6.674,0,0,1,10.587,7.906q-3.773,6.9-7.625,13.783c-17.105,30.568-33.584,60.583-47.053,91.664l-3,6.9C176.514,475.2,141.916,554.755,172.391,613.55c14.8,28.56,49.842,31.349,76.8,19.373,33.644-14.95,58.227-46.039,82-76.107,3.076-3.883,6.124-7.739,9.16-11.508,20.321-25.291,39.234-52.29,57.534-78.4q9.867-14.09,19.834-28.146l1.895-2.655c10.04-14.1,20.421-28.667,32.182-41.923l.594-.647A7.283,7.283,0,0,1,457.611,391.3Zm132.226,43.477h0Z" transform="translate(-132.979 -184.841)" fill="#3c384f"/>
            <path id="Trazado_115696" data-name="Trazado 115696" d="M166.217,226.158c-24.577,49.395-38.447,107.3-16.852,160.392,3.189,7.852,16.1,4.416,12.862-3.549-20.268-49.848-7.605-103.653,15.511-150.112C181.555,225.231,170.047,218.46,166.217,226.158Z" transform="translate(-100.754 30.243)" fill="#3c384f"/>
            <path id="Trazado_115697" data-name="Trazado 115697" d="M163.251,275.094c-.113-.013-.22-.047-.327-.067-.187-.36-.354-.754-.414-.86l-.033-.04c-.013-.053.007-.013-.013-.093-.861-2.982-1.474-6-2.128-9.033q-2.261-10.557-4.53-21.115a6.718,6.718,0,0,0-8.206-4.657,6.827,6.827,0,0,0-4.663,8.206q2.562,11.938,5.13,23.883c1.421,6.625,3.7,15.317,11.635,16.645,3.429.574,7.352-.9,8.206-4.663C168.641,280.077,166.933,275.707,163.251,275.094Z" transform="translate(-77.527 122.12)" fill="#3c384f"/>
            <path id="Trazado_115698" data-name="Trazado 115698" d="M206.5,202.443c-7.572-4.043-14.317,7.472-6.731,11.521,10.474,5.591,13.67,16.972,14.083,28.153.48,12.7-.947,25.745-3.009,38.247a253.84,253.84,0,0,1-23.156,71.663c-3.809,7.665,7.692,14.43,11.521,6.732a267,267,0,0,0,25.9-84.4C228.246,250.317,232.009,216.06,206.5,202.443Z" transform="translate(172.946 -89.816)" fill="#3c384f"/>
          </g>
          <g id="Grupo_82660" data-name="Grupo 82660" transform="translate(130.608 182.47)">
            <g id="Grupo_82659" data-name="Grupo 82659">
              <g id="Grupo_82658" data-name="Grupo 82658">
                <path id="Trazado_115699" data-name="Trazado 115699" d="M581.728,426.722c-32.142,32.89-65.359,64.572-99.216,95.687,14.637-33.083,30.421-65.653,44.318-99.083,15.751-37.907,34.057-89.576,14.2-129.337-45.258-90.63-159.665-1.708-201.768,43.917-4.49,4.857-8.766,9.934-13.1,14.957,15.037-36.839,28.58-74.692,25.011-114.494-4.917-54.725-55.085-67.854-98.276-42.43-46.386,27.306-83.632,74.546-114.74,117.449-26.418,36.439,34.037,71.13,60.249,35.211a474.421,474.421,0,0,1,47.086-55.092q-3.753,6.875-7.579,13.73c-16.9,30.188-33.59,60.5-47.36,92.265-26.372,60.843-65.359,145.062-32.189,209.06,16.718,32.249,55.912,35.525,85.433,22.4,39.674-17.639,67.154-56.58,93.645-89.536,27.653-34.411,52-70.95,77.6-106.855,10.7-15,21.388-30.221,33.63-44.024.28-.314.58-.607.861-.927l-.307.974c-6.8,21.135-15.544,41.416-24.39,61.75-16.472,37.827-37.706,77.648-43.737,118.817-5.337,36.4,9.407,77.194,53.184,74.552,41.149-2.482,74.132-42.123,101.645-68.595,33.323-32.062,66.046-64.765,98.776-97.428C668.875,445.6,615.485,392.184,581.728,426.722Z" transform="translate(-124.877 -176.784)" fill="#6b8dfc"/>
                <path id="Trazado_115700" data-name="Trazado 115700" d="M436.093,658.185c-16.151,0-29.854-5.664-39.828-16.525-13.863-15.1-19.854-39.688-16.031-65.786,4.977-34.01,19.814-66.593,34.164-98.1,3.429-7.545,6.831-15.01,10.054-22.4,3.049-7.012,6.258-14.377,9.44-22-1.948,2.709-3.876,5.417-5.784,8.1l-1.895,2.655c-6.651,9.327-13.216,18.7-19.781,28.06-18.413,26.292-37.46,53.477-58.061,79.1q-4.513,5.624-9.086,11.435c-23.623,29.868-50.4,63.725-87.048,80.023-32.683,14.51-75.473,10.441-94.059-25.431-33.4-64.432,2.662-147.35,28.994-207.9l3-6.878c7.745-17.886,16.431-35.345,25.638-52.724q-3.192,4.173-6.284,8.4c-16.2,22.209-44.578,21.875-62.664,8.719-14.957-10.881-23.35-31.108-8.366-51.776,33.2-45.8,70.329-91.951,116.748-119.283,25.771-15.157,53.965-17.619,75.46-6.578,18.92,9.72,30.581,28.947,32.85,54.158,2.655,29.567-3.729,57.874-12.989,84.866,34.264-33.464,97.615-80.93,148.444-73.738,23.35,3.315,41.429,17.485,53.724,42.109,20.221,40.5,4.263,90.9-14.01,134.881-8.7,20.928-18.266,41.816-27.519,62.01l-3.276,7.145c27.533-25.811,52.163-49.862,74.766-72.984h0c11.174-11.441,25.371-15.638,39.935-11.855,15.991,4.163,29.661,17.726,34,33.764,4,14.71-.08,29.074-11.481,40.448l-3.723,3.716c-30.988,30.928-63.031,62.9-95.133,93.792-3.956,3.809-8.019,7.886-12.215,12.088-24.917,24.984-55.933,56.086-93.659,58.361C438.955,658.145,437.521,658.185,436.093,658.185Zm19.14-269.262a6.288,6.288,0,0,1,3.229.867,6.482,6.482,0,0,1,3.156,7.572l-.314.974c-7.125,22.156-16.418,43.517-24.617,62.357-3.249,7.459-6.685,15-10.147,22.609-13.963,30.662-28.4,62.364-33.11,94.506-3.2,21.829,1.654,42.837,12.662,54.825,8.152,8.879,19.42,12.909,33.517,12.108,32.663-1.975,60.483-29.861,85.02-54.471,4.256-4.27,8.392-8.413,12.409-12.275,32.016-30.8,64.018-62.737,94.967-93.626l3.716-3.716c10.08-10.054,9.934-20.508,8.032-27.513-3.089-11.381-13.156-21.4-24.491-24.337-6.9-1.8-17.179-1.815-27.026,8.266h0c-29.2,29.868-61.737,61.25-99.476,95.941a6.672,6.672,0,0,1-10.614-7.612c5.53-12.509,11.228-24.938,16.918-37.373,9.206-20.087,18.72-40.862,27.333-61.576,17.119-41.189,32.223-88.108,14.4-123.8-10.367-20.754-24.651-32.156-43.664-34.858-47.387-6.7-114.033,44.344-147.237,80.323-3.536,3.836-6.945,7.812-10.361,11.782l-2.588,3.015a6.674,6.674,0,0,1-11.228-6.885c14.33-35.085,28.026-72.6,24.544-111.378-1.868-20.788-10.741-35.825-25.658-43.49-17.406-8.933-40.8-6.6-62.591,6.218-44.318,26.085-80.363,70.983-112.719,115.614-10.227,14.1-3.909,26.372,5.41,33.15,12.622,9.18,32.343,10.26,44.044-5.784A481.918,481.918,0,0,1,246.5,294.491a6.669,6.669,0,0,1,10.581,7.9q-3.773,6.915-7.619,13.79c-17.112,30.568-33.583,60.583-47.06,91.664l-3,6.9c-25.264,58.087-59.862,137.643-29.387,196.431,14.8,28.567,49.842,31.355,76.8,19.38,33.644-14.951,58.227-46.046,82-76.107q4.613-5.834,9.153-11.515c20.328-25.285,39.241-52.283,57.54-78.4,6.578-9.393,13.163-18.793,19.834-28.153l1.895-2.649c10.04-14.1,20.421-28.673,32.176-41.923l.6-.647A7.275,7.275,0,0,1,455.233,388.923Zm132.226,43.484h0Z" transform="translate(-130.608 -182.47)"/>
              </g>
              <path id="Trazado_115701" data-name="Trazado 115701" d="M163.849,223.788c-24.584,49.395-38.447,107.3-16.859,160.392,3.2,7.846,16.1,4.416,12.869-3.549-20.274-49.855-7.612-103.653,15.511-150.112C179.18,222.855,167.679,216.09,163.849,223.788Z" transform="translate(-98.386 32.614)"/>
              <path id="Trazado_115702" data-name="Trazado 115702" d="M160.88,272.723c-.113-.013-.22-.047-.327-.067-.187-.367-.36-.754-.42-.861l-.027-.04c-.013-.053.007-.02-.013-.1-.861-2.975-1.481-6-2.128-9.026q-2.272-10.557-4.53-21.115a6.722,6.722,0,0,0-8.212-4.657,6.826,6.826,0,0,0-4.657,8.206l5.124,23.877c1.428,6.631,3.7,15.324,11.641,16.652,3.429.567,7.352-.9,8.206-4.663C166.27,277.706,164.556,273.336,160.88,272.723Z" transform="translate(-75.156 124.491)"/>
              <path id="Trazado_115703" data-name="Trazado 115703" d="M204.128,200.073c-7.572-4.043-14.323,7.472-6.731,11.521,10.474,5.591,13.663,16.972,14.083,28.146.48,12.7-.947,25.751-3.009,38.253a253.837,253.837,0,0,1-23.156,71.664c-3.816,7.665,7.692,14.43,11.521,6.731a267.27,267.27,0,0,0,25.9-84.4C225.877,247.939,229.64,213.682,204.128,200.073Z" transform="translate(175.315 -87.444)"/>
            </g>
          </g>
        </g>
        <g id="Grupo_984517" data-name="Grupo 984517" transform="translate(829.951 1342.168)">
          <g id="Grupo_82657-2" data-name="Grupo 82657" transform="translate(146.426 198.288)" style="mix-blend-mode: overlay;isolation: isolate">
            <path id="Trazado_115694-2" data-name="Trazado 115694" d="M584.094,429.091c-32.143,32.89-65.359,64.572-99.209,95.694,14.637-33.09,30.415-65.653,44.311-99.089,15.751-37.907,34.064-89.576,14.2-129.337-45.258-90.63-159.665-1.7-201.768,43.917-4.483,4.863-8.766,9.94-13.1,14.957,15.044-36.839,28.587-74.692,25.011-114.493-4.917-54.725-55.085-67.854-98.275-42.423-46.379,27.3-83.632,74.539-114.734,117.442-26.418,36.439,34.031,71.13,60.242,35.211a473.881,473.881,0,0,1,47.093-55.085q-3.753,6.875-7.585,13.723c-16.9,30.188-33.59,60.5-47.36,92.271C166.555,462.715,127.56,546.94,160.73,610.932c16.718,32.249,55.919,35.525,85.433,22.4,39.674-17.639,67.154-56.58,93.646-89.536,27.653-34.411,52.01-70.95,77.608-106.855,10.694-15,21.382-30.221,33.63-44.017.28-.32.574-.614.854-.927l-.307.967c-6.8,21.135-15.538,41.416-24.391,61.75-16.465,37.833-37.706,77.654-43.737,118.816-5.33,36.4,9.407,77.194,53.184,74.552,41.156-2.482,74.139-42.123,101.651-68.595,33.317-32.062,66.04-64.759,98.769-97.421C671.248,447.964,617.857,394.553,584.094,429.091Z" transform="translate(-127.243 -179.154)" fill="#3c384f"/>
            <path id="Trazado_115695-2" data-name="Trazado 115695" d="M438.471,660.563c-16.151,0-29.861-5.671-39.835-16.531-13.863-15.1-19.854-39.688-16.031-65.779,4.983-34.017,19.821-66.6,34.164-98.1,3.436-7.545,6.838-15.017,10.054-22.409,3.049-7.012,6.258-14.377,9.44-22q-2.922,4.073-5.784,8.1l-1.895,2.662q-9.977,13.99-19.774,28.06c-18.42,26.285-37.466,53.471-58.067,79.1-3.009,3.743-6.031,7.565-9.086,11.428-23.623,29.874-50.4,63.731-87.048,80.023-32.676,14.51-75.473,10.447-94.059-25.424-33.4-64.438,2.662-147.357,29-207.9l2.989-6.885c7.745-17.886,16.431-35.345,25.645-52.724q-3.2,4.173-6.284,8.406c-16.2,22.2-44.585,21.869-62.671,8.713-14.957-10.881-23.35-31.108-8.366-51.776,33.2-45.8,70.329-91.951,116.755-119.277,25.765-15.164,53.965-17.626,75.453-6.585,18.92,9.72,30.588,28.954,32.85,54.165,2.655,29.567-3.729,57.867-12.982,84.866,34.257-33.47,97.615-80.937,148.444-73.745,23.35,3.316,41.422,17.486,53.718,42.11,20.228,40.495,4.27,90.91-14.01,134.881-8.7,20.935-18.266,41.816-27.519,62.017l-3.276,7.145c27.533-25.818,52.163-49.868,74.766-72.991v.007c11.175-11.441,25.371-15.644,39.935-11.862,15.991,4.163,29.661,17.726,34.011,33.764,3.989,14.71-.087,29.08-11.488,40.455l-3.723,3.709c-30.988,30.928-63.031,62.911-95.133,93.792-3.956,3.809-8.019,7.886-12.209,12.089-24.924,24.984-55.939,56.086-93.666,58.361C441.333,660.523,439.892,660.563,438.471,660.563ZM457.611,391.3a6.3,6.3,0,0,1,3.229.861,6.49,6.49,0,0,1,3.149,7.572l-.313.974c-7.125,22.162-16.418,43.517-24.617,62.357-3.249,7.465-6.685,15-10.147,22.609-13.956,30.661-28.393,62.364-33.1,94.513-3.2,21.829,1.654,42.837,12.655,54.818,8.159,8.886,19.42,12.909,33.517,12.108,32.663-1.975,60.482-29.861,85.026-54.471,4.256-4.263,8.386-8.406,12.4-12.275,32.016-30.8,64.018-62.737,94.966-93.626l3.716-3.709c10.087-10.06,9.934-20.514,8.039-27.513-3.089-11.388-13.162-21.4-24.49-24.344-6.9-1.8-17.185-1.815-27.032,8.266v.007c-29.2,29.868-61.737,61.25-99.476,95.934a6.672,6.672,0,0,1-10.614-7.612c5.531-12.509,11.228-24.937,16.925-37.366,9.2-20.094,18.72-40.869,27.326-61.583,17.125-41.189,32.223-88.109,14.4-123.793C532.8,284.266,518.52,272.864,499.5,270.169c-47.387-6.711-114.027,44.338-147.23,80.323-3.543,3.829-6.952,7.805-10.367,11.781l-2.582,3.009a6.671,6.671,0,0,1-11.228-6.878c14.323-35.091,28.02-72.6,24.537-111.385-1.868-20.781-10.741-35.818-25.658-43.484-17.4-8.94-40.8-6.611-62.591,6.211-44.311,26.091-80.363,70.983-112.719,115.614-10.22,14.1-3.909,26.379,5.41,33.157,12.622,9.173,32.343,10.254,44.044-5.791a483.127,483.127,0,0,1,47.753-55.866,6.674,6.674,0,0,1,10.587,7.906q-3.773,6.9-7.625,13.783c-17.105,30.568-33.584,60.583-47.053,91.664l-3,6.9C176.514,475.2,141.916,554.755,172.391,613.55c14.8,28.56,49.842,31.349,76.8,19.373,33.644-14.95,58.227-46.039,82-76.107,3.076-3.883,6.124-7.739,9.16-11.508,20.321-25.291,39.234-52.29,57.534-78.4q9.867-14.09,19.834-28.146l1.895-2.655c10.04-14.1,20.421-28.667,32.182-41.923l.594-.647A7.283,7.283,0,0,1,457.611,391.3Zm132.226,43.477h0Z" transform="translate(-132.979 -184.841)" fill="#3c384f"/>
            <path id="Trazado_115696-2" data-name="Trazado 115696" d="M166.217,226.158c-24.577,49.395-38.447,107.3-16.852,160.392,3.189,7.852,16.1,4.416,12.862-3.549-20.268-49.848-7.605-103.653,15.511-150.112C181.555,225.231,170.047,218.46,166.217,226.158Z" transform="translate(-100.754 30.243)" fill="#3c384f"/>
            <path id="Trazado_115697-2" data-name="Trazado 115697" d="M163.251,275.094c-.113-.013-.22-.047-.327-.067-.187-.36-.354-.754-.414-.86l-.033-.04c-.013-.053.007-.013-.013-.093-.861-2.982-1.474-6-2.128-9.033q-2.261-10.557-4.53-21.115a6.718,6.718,0,0,0-8.206-4.657,6.827,6.827,0,0,0-4.663,8.206q2.562,11.938,5.13,23.883c1.421,6.625,3.7,15.317,11.635,16.645,3.429.574,7.352-.9,8.206-4.663C168.641,280.077,166.933,275.707,163.251,275.094Z" transform="translate(-77.527 122.12)" fill="#3c384f"/>
            <path id="Trazado_115698-2" data-name="Trazado 115698" d="M206.5,202.443c-7.572-4.043-14.317,7.472-6.731,11.521,10.474,5.591,13.67,16.972,14.083,28.153.48,12.7-.947,25.745-3.009,38.247a253.84,253.84,0,0,1-23.156,71.663c-3.809,7.665,7.692,14.43,11.521,6.732a267,267,0,0,0,25.9-84.4C228.246,250.317,232.009,216.06,206.5,202.443Z" transform="translate(172.946 -89.816)" fill="#3c384f"/>
          </g>
          <g id="Grupo_82660-2" data-name="Grupo 82660" transform="translate(130.608 182.47)">
            <g id="Grupo_82659-2" data-name="Grupo 82659">
              <g id="Grupo_82658-2" data-name="Grupo 82658">
                <path id="Trazado_115699-2" data-name="Trazado 115699" d="M581.728,426.722c-32.142,32.89-65.359,64.572-99.216,95.687,14.637-33.083,30.421-65.653,44.318-99.083,15.751-37.907,34.057-89.576,14.2-129.337-45.258-90.63-159.665-1.708-201.768,43.917-4.49,4.857-8.766,9.934-13.1,14.957,15.037-36.839,28.58-74.692,25.011-114.494-4.917-54.725-55.085-67.854-98.276-42.43-46.386,27.306-83.632,74.546-114.74,117.449-26.418,36.439,34.037,71.13,60.249,35.211a474.421,474.421,0,0,1,47.086-55.092q-3.753,6.875-7.579,13.73c-16.9,30.188-33.59,60.5-47.36,92.265-26.372,60.843-65.359,145.062-32.189,209.06,16.718,32.249,55.912,35.525,85.433,22.4,39.674-17.639,67.154-56.58,93.645-89.536,27.653-34.411,52-70.95,77.6-106.855,10.7-15,21.388-30.221,33.63-44.024.28-.314.58-.607.861-.927l-.307.974c-6.8,21.135-15.544,41.416-24.39,61.75-16.472,37.827-37.706,77.648-43.737,118.817-5.337,36.4,9.407,77.194,53.184,74.552,41.149-2.482,74.132-42.123,101.645-68.595,33.323-32.062,66.046-64.765,98.776-97.428C668.875,445.6,615.485,392.184,581.728,426.722Z" transform="translate(-124.877 -176.784)" fill="#6b8dfc"/>
                <path id="Trazado_115700-2" data-name="Trazado 115700" d="M436.093,658.185c-16.151,0-29.854-5.664-39.828-16.525-13.863-15.1-19.854-39.688-16.031-65.786,4.977-34.01,19.814-66.593,34.164-98.1,3.429-7.545,6.831-15.01,10.054-22.4,3.049-7.012,6.258-14.377,9.44-22-1.948,2.709-3.876,5.417-5.784,8.1l-1.895,2.655c-6.651,9.327-13.216,18.7-19.781,28.06-18.413,26.292-37.46,53.477-58.061,79.1q-4.513,5.624-9.086,11.435c-23.623,29.868-50.4,63.725-87.048,80.023-32.683,14.51-75.473,10.441-94.059-25.431-33.4-64.432,2.662-147.35,28.994-207.9l3-6.878c7.745-17.886,16.431-35.345,25.638-52.724q-3.192,4.173-6.284,8.4c-16.2,22.209-44.578,21.875-62.664,8.719-14.957-10.881-23.35-31.108-8.366-51.776,33.2-45.8,70.329-91.951,116.748-119.283,25.771-15.157,53.965-17.619,75.46-6.578,18.92,9.72,30.581,28.947,32.85,54.158,2.655,29.567-3.729,57.874-12.989,84.866,34.264-33.464,97.615-80.93,148.444-73.738,23.35,3.315,41.429,17.485,53.724,42.109,20.221,40.5,4.263,90.9-14.01,134.881-8.7,20.928-18.266,41.816-27.519,62.01l-3.276,7.145c27.533-25.811,52.163-49.862,74.766-72.984h0c11.174-11.441,25.371-15.638,39.935-11.855,15.991,4.163,29.661,17.726,34,33.764,4,14.71-.08,29.074-11.481,40.448l-3.723,3.716c-30.988,30.928-63.031,62.9-95.133,93.792-3.956,3.809-8.019,7.886-12.215,12.088-24.917,24.984-55.933,56.086-93.659,58.361C438.955,658.145,437.521,658.185,436.093,658.185Zm19.14-269.262a6.288,6.288,0,0,1,3.229.867,6.482,6.482,0,0,1,3.156,7.572l-.314.974c-7.125,22.156-16.418,43.517-24.617,62.357-3.249,7.459-6.685,15-10.147,22.609-13.963,30.662-28.4,62.364-33.11,94.506-3.2,21.829,1.654,42.837,12.662,54.825,8.152,8.879,19.42,12.909,33.517,12.108,32.663-1.975,60.483-29.861,85.02-54.471,4.256-4.27,8.392-8.413,12.409-12.275,32.016-30.8,64.018-62.737,94.967-93.626l3.716-3.716c10.08-10.054,9.934-20.508,8.032-27.513-3.089-11.381-13.156-21.4-24.491-24.337-6.9-1.8-17.179-1.815-27.026,8.266h0c-29.2,29.868-61.737,61.25-99.476,95.941a6.672,6.672,0,0,1-10.614-7.612c5.53-12.509,11.228-24.938,16.918-37.373,9.206-20.087,18.72-40.862,27.333-61.576,17.119-41.189,32.223-88.108,14.4-123.8-10.367-20.754-24.651-32.156-43.664-34.858-47.387-6.7-114.033,44.344-147.237,80.323-3.536,3.836-6.945,7.812-10.361,11.782l-2.588,3.015a6.674,6.674,0,0,1-11.228-6.885c14.33-35.085,28.026-72.6,24.544-111.378-1.868-20.788-10.741-35.825-25.658-43.49-17.406-8.933-40.8-6.6-62.591,6.218-44.318,26.085-80.363,70.983-112.719,115.614-10.227,14.1-3.909,26.372,5.41,33.15,12.622,9.18,32.343,10.26,44.044-5.784A481.918,481.918,0,0,1,246.5,294.491a6.669,6.669,0,0,1,10.581,7.9q-3.773,6.915-7.619,13.79c-17.112,30.568-33.583,60.583-47.06,91.664l-3,6.9c-25.264,58.087-59.862,137.643-29.387,196.431,14.8,28.567,49.842,31.355,76.8,19.38,33.644-14.951,58.227-46.046,82-76.107q4.613-5.834,9.153-11.515c20.328-25.285,39.241-52.283,57.54-78.4,6.578-9.393,13.163-18.793,19.834-28.153l1.895-2.649c10.04-14.1,20.421-28.673,32.176-41.923l.6-.647A7.275,7.275,0,0,1,455.233,388.923Zm132.226,43.484h0Z" transform="translate(-130.608 -182.47)"/>
              </g>
              <path id="Trazado_115701-2" data-name="Trazado 115701" d="M163.849,223.788c-24.584,49.395-38.447,107.3-16.859,160.392,3.2,7.846,16.1,4.416,12.869-3.549-20.274-49.855-7.612-103.653,15.511-150.112C179.18,222.855,167.679,216.09,163.849,223.788Z" transform="translate(-98.386 32.614)"/>
              <path id="Trazado_115702-2" data-name="Trazado 115702" d="M160.88,272.723c-.113-.013-.22-.047-.327-.067-.187-.367-.36-.754-.42-.861l-.027-.04c-.013-.053.007-.02-.013-.1-.861-2.975-1.481-6-2.128-9.026q-2.272-10.557-4.53-21.115a6.722,6.722,0,0,0-8.212-4.657,6.826,6.826,0,0,0-4.657,8.206l5.124,23.877c1.428,6.631,3.7,15.324,11.641,16.652,3.429.567,7.352-.9,8.206-4.663C166.27,277.706,164.556,273.336,160.88,272.723Z" transform="translate(-75.156 124.491)"/>
              <path id="Trazado_115703-2" data-name="Trazado 115703" d="M204.128,200.073c-7.572-4.043-14.323,7.472-6.731,11.521,10.474,5.591,13.663,16.972,14.083,28.146.48,12.7-.947,25.751-3.009,38.253a253.837,253.837,0,0,1-23.156,71.664c-3.816,7.665,7.692,14.43,11.521,6.731a267.27,267.27,0,0,0,25.9-84.4C225.877,247.939,229.64,213.682,204.128,200.073Z" transform="translate(175.315 -87.444)"/>
            </g>
          </g>
        </g>
      </g>
      <g id="Enmascarar_grupo_607" data-name="Enmascarar grupo 607" transform="translate(4 4)" clip-path="url(#clip-path-2)">
        <g id="Grupo_984499" data-name="Grupo 984499" transform="translate(776 1545)">
          <g id="Grupo_984498" data-name="Grupo 984498" clip-path="url(#clip-path-3)">
            <g id="Grupo_984497" data-name="Grupo 984497">
              <g id="Grupo_984496" data-name="Grupo 984496" clip-path="url(#clip-path-4)">
                <path id="Trazado_212479" data-name="Trazado 212479" d="M76.784,124.5c8.973.335,9.839,8.007,7.126,19.692S73.831,196.576,61.716,223.76,37.2,269.992,26.784,279.26c0,0-8.715-1.308-10.859-9.23,0,0,12.523-13.147,27.718-57.392C58.581,169.139,60.679,149.1,63.3,140.5c2.71-8.889,7.869-16.21,13.482-16" fill="#ffd0be"/>
                <path id="Trazado_212480" data-name="Trazado 212480" d="M12.1,273.156A77.289,77.289,0,0,0,1.343,287.6c-2.2,3.974-1.512,5.068.707,2.658,2.109-2.291,4.089-5.205,4.575-4.843.249.182-1.58,2.012-3.245,5.163-1.931,3.652-3.135,6.613-1.764,6.979s6-6.8,7.822-8.927c1.426-2.341-3.249,6.5-4.053,10.267-1.139,4.076.574,5.5,2.825.873,2.367-4.591,4.3-7.959,5.408-8.761-.046,1.288-.7,2.6-2.466,8.247-1.141,4.27.919,5.048,2.859,1.264,2.305-4.578,4.868-11.838,6.572-11.6,1.043.7.027,2.406.885,7.012.909,4.636,2.25-1.24,3.333-5.662,1.028-4.641,3.926-9.022,5.248-12.238,1.754-4.358,3.43-6.016.022-9-1.988-1.742-4.7-5.038-8.206-4.2-2.811.672-6.171,4.844-9.767,8.325" fill="#ffd0be"/>
                <path id="Trazado_212481" data-name="Trazado 212481" d="M36.266,270.776c-1.075,1.652-6.69,2.336-12.08-.9-4.09-2.456-4.678-5.817-4.064-7.728.548-1.706,1.689-1.54,2.043-.949a.2.2,0,0,1,.01.112c-.441,1.341.914,3.684,3.952,5.585,3.1,1.944,7.565,2.9,9.706,2.307.613-.145,1.08.58.433,1.574" fill="#72cfe8"/>
                <path id="Trazado_212482" data-name="Trazado 212482" d="M134.109,221.857c.143-.428.857-18.567.857-18.567l-62.7-1.714L77.694,224Z" fill="#ffd0be"/>
                <path id="Trazado_212483" data-name="Trazado 212483" d="M62.148,164.8c-.21,7.974,3.494,21.4,4.2,40.288,4.889,1.678,20.836,2.1,36.374,3.21a309.934,309.934,0,0,0,39.05-.136c3.179-18.885,3.787-74.837-3.63-83.933-1.228-1.511-3.568-2.581-6.453-3.525-3.441-1.1-8.571-.965-14.866-.409-4.092.346-8.677.87-13.608,1.343-3.934.377-10.292.314-16.073.7-4.48.3-8.624.881-11.037,2.15-2.214,1.165-2.319,6.211-5.351,14.531-3.252,8.918-8.393,17.8-8.6,25.778" fill="#ff9650"/>
                <g id="Grupo_984480" data-name="Grupo 984480" opacity="0.5">
                  <g id="Grupo_984479" data-name="Grupo 984479">
                    <g id="Grupo_984478" data-name="Grupo 984478" clip-path="url(#clip-path-5)">
                      <path id="Trazado_212484" data-name="Trazado 212484" d="M142.49,202.879c-.22,1.983-.462,3.756-.724,5.288a309.934,309.934,0,0,1-39.05.136c-15.538-1.112-31.485-1.532-36.374-3.21-.063-1.627-.147-3.211-.241-4.753,8.54.965,22.4,1.458,36,2.382a383.209,383.209,0,0,0,40.393.157" fill="#6f3149"/>
                    </g>
                  </g>
                </g>
                <path id="Trazado_212485" data-name="Trazado 212485" d="M89.846,134.988c5.109,2.644,11.541,1.49,16.682-2.57,6.5-5.141,7.554-8.341,10.292-12.118-4.092.346-8.677.871-13.608,1.343-3.934.377-10.292.314-16.073.7-2.35,2.738-1.427,10.491,2.707,12.642" fill="#ffd0be"/>
                <path id="Trazado_212486" data-name="Trazado 212486" d="M76.634,219.875s8.083,1.742,28.527.747,29.477-3.485,29.477-3.485.475,5.5,6.894,18.916c17.483,36.552,10.132,99.172-2.12,137.017-4.128,12.752-30.977,5.2-34.305-.272s-1.532-84.448-2.124-86.467c-.469-1.6-6.349-1.734-6.419.5-.093,3,1.887,84.087-.49,86.078s-26.947,5.8-31.534.164-17.153-67.249-6.121-105.158c5.686-19.536,13.46-34.348,18.215-48.037" fill="#2c1f30"/>
                <path id="Trazado_212487" data-name="Trazado 212487" d="M200.358,147.573c2.077-5.913,5.18-13.867,7.053-18.388,1.987-4.793.943-6.052-1.877-2.808-2.5,2.876-4.184,6.087-4.842,5.864-.324-.109.969-2.7,2.739-6.414,1.819-3.817,2.879-6.679,1.484-7.684s-7.118,8.737-8.351,11.614,2.378-8.807,3.664-12.8c1.442-4.471-.985-5.425-3.769-.054s-4.328,10.477-5.4,11.689c-.22-1.362-.04-3,1.346-9.346,1.029-4.713-1.191-4.984-3.236-.522-2.455,5.354-3.479,14.043-5.321,14.407-1.378-.392-.947-2.609-3.232-7.2s-2.439,1.984-1.852,7.2c.607,5.392-.085,11.47.6,15.849.923,5.891,2.687,9.784,7.53,10.681s9.262-.129,13.461-12.083" fill="#ffd0be"/>
                <g id="Grupo_984483" data-name="Grupo 984483" opacity="0.5">
                  <g id="Grupo_984482" data-name="Grupo 984482">
                    <g id="Grupo_984481" data-name="Grupo 984481" clip-path="url(#clip-path-6)">
                      <path id="Trazado_212488" data-name="Trazado 212488" d="M186.928,138.049a1.082,1.082,0,0,1,.348.379,4.2,4.2,0,0,1,.333.529,11.526,11.526,0,0,1,.4,1.112c.24.75.427,1.521.592,2.29s.308,1.519.4,2.286a8.676,8.676,0,0,1,.094,2.395.463.463,0,0,1-.913.045,16.967,16.967,0,0,1-.362-2.227c-.124-.765-.252-1.526-.422-2.282-.165-.738-.368-1.463-.578-2.189-.1-.361-.21-.721-.3-1.085-.048-.189-.033-.368-.064-.556a1.154,1.154,0,0,1,.022-.551.3.3,0,0,1,.454-.146" fill="#bc4a60"/>
                    </g>
                  </g>
                </g>
                <path id="Trazado_212489" data-name="Trazado 212489" d="M129.4,122.031c-8,3.307-8.594,13.281-3.1,28.244,4.365,11.891,24.008,70.112,40.766,69.642,11.772-.329,28-59.562,29.171-67.725-3.357-.5-6.757-.031-13.49-3.807-2.225,4.849-16.7,30.449-18.409,37.645-2.556-6.869-10.32-34.162-16.8-47.088-4.567-9.1-10.265-20.163-18.134-16.911" fill="#ffd0be"/>
                <path id="Trazado_212490" data-name="Trazado 212490" d="M134.26,76.963S127.126,87.67,127.895,96s7.575,5.3,6.715,7.138c-2.728,5.816-12.38,1.454-12.38,1.454a10.758,10.758,0,0,0,6.225,3.3c4.126.4-2.518,5.354-8.883,2.644-5.665-2.412-1.749,2.049.35,2.908s-4.826,4.032-10.982-1.057-6.924-12.161,2.728-17.118,16.087-23.859,22.8-18.307" fill="#b26167"/>
                <path id="Trazado_212491" data-name="Trazado 212491" d="M55.574,24.975c-5.9,3.936-8.274,14.816-6.927,21.743s4.041,9.429,8.082,9.429,9.813-38.484-1.155-31.172" fill="#b26167"/>
                <path id="Trazado_212492" data-name="Trazado 212492" d="M90.266,104.972l.241,1.71,1.417,10.093,1.238,8.834s-.431,3.483,6.567,2.151a20.141,20.141,0,0,0,9.1-3.893,1.8,1.8,0,0,0,.661-1.647l-1.238-8.792-1.27-9.054-.262-1.867Z" fill="#ffd0be"/>
                <g id="Grupo_984486" data-name="Grupo 984486" opacity="0.3">
                  <g id="Grupo_984485" data-name="Grupo 984485">
                    <g id="Grupo_984484" data-name="Grupo 984484" clip-path="url(#clip-path-7)">
                      <path id="Trazado_212493" data-name="Trazado 212493" d="M90.507,106.682l1.416,10.093a16.9,16.9,0,0,0,4.428-.168,54.4,54.4,0,0,0,6.484-1.227,32.7,32.7,0,0,0,5.413-1.952l-1.269-9.054Z" fill="#bc4a60"/>
                    </g>
                  </g>
                </g>
                <path id="Trazado_212494" data-name="Trazado 212494" d="M135.451,58.389c-3.2,14.164-5.593,27.173-12.392,37.109-5.592,8.173-14.163,14.258-28.6,17.195-.335.063-.682.137-1.028.2-8.885,1.5-22.242.231-26.145-3.032a29.1,29.1,0,0,1-3.765-3.788c-5.047-6.106-7.932-14.447-9.412-24.728A151.892,151.892,0,0,1,52.776,61C49.84,24.491,65.336,4.819,97.638,6.088c27.929,1.1,43.635,26.492,37.813,52.3" fill="#ffd0be"/>
                <g id="Grupo_984489" data-name="Grupo 984489" opacity="0.1">
                  <g id="Grupo_984488" data-name="Grupo 984488">
                    <g id="Grupo_984487" data-name="Grupo 984487" clip-path="url(#clip-path-8)">
                      <path id="Trazado_212495" data-name="Trazado 212495" d="M123.06,95.5c-5.592,8.173-14.164,14.258-28.6,17.2-.336.063-.682.136-1.028.2-5.9-5.707-6.222-15.454-.441-22.651,6.2-7.722,17.1-9.569,24.32-4.134a15.016,15.016,0,0,1,5.749,9.39" fill="#fc6b7f"/>
                      <path id="Trazado_212496" data-name="Trazado 212496" d="M63.52,106.073c-5.046-6.106-7.932-14.447-9.411-24.729,3.767.85,7.659,4.228,10,9.128,2.885,6.012,2.507,12.4-.588,15.6" fill="#fc6b7f"/>
                    </g>
                  </g>
                </g>
                <path id="Trazado_212497" data-name="Trazado 212497" d="M106.379,27.493s-18.152,9.971-27.1,7.414,6.136-4.346,13.55-10.737c0,0-18.919,9.459-33.236,8.948s-15.34-2.813-6.9-10.738S73.91-1.652,104.078.137s27.867,15.084,27.867,15.084,0-8.436,3.324-8.692S136.8,19.056,136.8,19.056s9.97,0,10.482,3.324-7.414,2.3-7.414,2.3,11.76,11.249,12.271,17.385-4.168,20.773-10.048,22.051-14.072-2.11-14.583,1.469-1.79,12.016-6.136,11.761-.511-7.415-.511-7.415-2.557,5.88-4.6,2.812,5.369-14.061,5.369-14.061A70.766,70.766,0,0,1,112,44.878a59.564,59.564,0,0,1-5.625-17.385" fill="#b26167"/>
                <path id="Trazado_212498" data-name="Trazado 212498" d="M76.451,84.574c4.381.056,6.69-3.182,9.785-.051,2.467,2.495-.515,8.043-9.442,7.712-8.663-.32-9.209-6.391-7.29-8.051s2.534.334,6.947.39" fill="#bc4a60"/>
                <path id="Trazado_212499" data-name="Trazado 212499" d="M85.281,86.927A10.77,10.77,0,0,0,78.4,88.71a5.277,5.277,0,0,0-2.586,3.444c.322.031.635.068.985.081,6.182.229,9.507-2.361,10.153-4.805a4.754,4.754,0,0,0-1.667-.5" fill="#fc6b7f"/>
                <path id="Trazado_212500" data-name="Trazado 212500" d="M92.176,71.162a5.554,5.554,0,0,1,.838-1.758A4.841,4.841,0,0,1,94.5,68.129a5.345,5.345,0,0,1,3.95-.431c2.617.728,4.689,3.72,4.005,6.437a.311.311,0,0,1-.562.073c-1.193-1.711-1.481-4.145-3.74-4.885a3.81,3.81,0,0,0-2.864.156A4.606,4.606,0,0,0,93.12,71.56c-.23.535-1.132.153-.944-.4" fill="#2c1f30"/>
                <path id="Trazado_212501" data-name="Trazado 212501" d="M65.209,68.919a5,5,0,0,0-.407-1.573,3.832,3.832,0,0,0-.954-1.239,3.653,3.653,0,0,0-2.9-.8,4.907,4.907,0,0,0-3.808,4.97.227.227,0,0,0,.412.125c1.108-1.307,1.629-3.324,3.414-3.694a2.6,2.6,0,0,1,2.126.451,3.711,3.711,0,0,1,1.364,1.993c.1.476.829.256.757-.229" fill="#2c1f30"/>
                <path id="Trazado_212502" data-name="Trazado 212502" d="M90.2,52.426c.89-2.209,4.085-3.267,6.153-3.189a7.9,7.9,0,0,1,4.527,1.84c1.008.864,2.509,3.1,2.151,3.875s-1.389-.971-2.147-1.6a8.125,8.125,0,0,0-4.168-1.657,5.469,5.469,0,0,0-4.027,1.145,4.679,4.679,0,0,1-1.046.735c-.491.2-1.756-.368-1.443-1.144" fill="#b26167"/>
                <path id="Trazado_212503" data-name="Trazado 212503" d="M66.2,50.421c-.838-1.964-3.5-2.813-5.175-2.674a6.008,6.008,0,0,0-3.593,1.809c-.777.813-1.885,2.883-1.554,3.568s1.082-.922,1.666-1.519a6.174,6.174,0,0,1,3.311-1.633,4.209,4.209,0,0,1,3.339.9,3.927,3.927,0,0,0,.889.629c.41.164,1.411-.39,1.117-1.08" fill="#b26167"/>
                <g id="Grupo_984492" data-name="Grupo 984492" opacity="0.5">
                  <g id="Grupo_984491" data-name="Grupo 984491">
                    <g id="Grupo_984490" data-name="Grupo 984490" clip-path="url(#clip-path-9)">
                      <path id="Trazado_212504" data-name="Trazado 212504" d="M67.765,73.121c.215-1.013,1.125-1.28,2-1.53a2.261,2.261,0,0,0,1.6-1.767,15.4,15.4,0,0,0,.368-3.037q.153-2.093.307-4.184c.095-1.307.175-2.617.293-3.922a16.726,16.726,0,0,1,.541-4.02c.11-.314.637-.387.711,0a15.3,15.3,0,0,1-.026,3.758c-.077,1.309-.187,2.616-.285,3.923-.176,2.328-.2,4.728-.583,7.032a5.072,5.072,0,0,1-.868,2.249,3.525,3.525,0,0,1-2.081,1.211c-.5.14-.864.28-.8.862a6.363,6.363,0,0,0,.627,1.738c.478,1.074,1.114,2.058,1.67,3.09a.416.416,0,0,1-.65.5,10.828,10.828,0,0,1-2.013-3.012,4.968,4.968,0,0,1-.806-2.893" fill="#bc4a60"/>
                    </g>
                  </g>
                </g>
                <path id="Trazado_212505" data-name="Trazado 212505" d="M127.41,79.087c.277,4.079,5.629,6.835,11.058,4.557s11.293-11.746,9.256-18.18-10.766-5.935-15.489-.03c-3.566,4.458-5.041,10.472-4.825,13.653" fill="#ffd0be"/>
                <g id="Grupo_984495" data-name="Grupo 984495" opacity="0.5">
                  <g id="Grupo_984494" data-name="Grupo 984494">
                    <g id="Grupo_984493" data-name="Grupo 984493" clip-path="url(#clip-path-10)">
                      <path id="Trazado_212506" data-name="Trazado 212506" d="M143.768,67.929a.4.4,0,0,0-.012-.677c-1.134-.6-2.665-.166-3.818.193A12.668,12.668,0,0,0,136.35,69.2a11.339,11.339,0,0,0-4.564,6.551c-.111.5.624.828.86.338a14.074,14.074,0,0,1,4.539-5.679c.277-.192.576-.343.866-.511.065.143.151.28.22.415.124.243.256.483.377.728a11.121,11.121,0,0,1,.605,1.545c.342,1.072.428,2.212.851,3.257.078.194.41.3.512.057a5.355,5.355,0,0,0-.147-3.675,10.75,10.75,0,0,0-.742-1.732,6.086,6.086,0,0,0-.471-.777c-.082-.111-.164-.222-.251-.325a11.291,11.291,0,0,1,1.35-.543c1.1-.345,2.415-.335,3.413-.922" fill="#bc4a60"/>
                    </g>
                  </g>
                </g>
                <path id="Trazado_212507" data-name="Trazado 212507" d="M133.969,93.909l3.532-5.718a1.319,1.319,0,0,0,0-1.39l-3.532-5.718a1.323,1.323,0,0,0-2.251,0L128.186,86.8a1.323,1.323,0,0,0,0,1.39l3.532,5.718a1.323,1.323,0,0,0,2.251,0" fill="#72cfe8"/>
              </g>
            </g>
          </g>
        </g>
        <g id="Grupo_984515" data-name="Grupo 984515" transform="translate(644.198 1532.207)">
          <g id="Grupo_984514" data-name="Grupo 984514" clip-path="url(#clip-path-11)">
            <g id="Grupo_984513" data-name="Grupo 984513">
              <g id="Grupo_984512" data-name="Grupo 984512" clip-path="url(#clip-path-11)">
                <path id="Trazado_212508" data-name="Trazado 212508" d="M19.3,153.588c2.319-5.717,7.16-12.163,10.614-15.722,3.657-3.773,3.182-5-.9-2.854-3.559,1.952-6.073,4.6-6.649,4.266-.277-.156,1.636-2.341,4.742-5.189,3.2-2.925,5.61-4.932,4.624-6.058-1.16-1.274-10.932,5.567-12.708,8.149-2.187,2.3,4.981-7.541,8.428-10.181,3.6-3.128,1.492-4.491-3.84-.914-5.235,3.674-8.269,8.039-9.65,8.94.229-1.251.686-2.852,4.544-7.928,3.023-3.639.855-4.379-3.068-1.15-4.76,3.866-7.838,11.908-9.567,11.969-1.226-.624-.426-2.719-1.381-7.4-.885-4.639-3.12,1.245-3.468,6.461-.472,5.336-1.515,11.472-.755,16.212.98,6.368,3.229,10.9,7.476,12.59,4.543,1.787,7.045.42,11.557-11.189" transform="translate(139.411 0)" fill="#e29a8f"/>
                <g id="Grupo_984502" data-name="Grupo 984502" transform="translate(146.823 144.035)" opacity="0.5">
                  <g id="Grupo_984501" data-name="Grupo 984501" transform="translate(0)">
                    <g id="Grupo_984500" data-name="Grupo 984500" transform="translate(0)" clip-path="url(#clip-path-13)">
                      <path id="Trazado_212509" data-name="Trazado 212509" d="M24.672,144.036a1.1,1.1,0,0,0-.507.113,4.2,4.2,0,0,0-.582.247,11.5,11.5,0,0,0-.978.691c-.632.484-1.233,1.016-1.814,1.559s-1.133,1.083-1.649,1.669a8.762,8.762,0,0,0-1.461,1.934.468.468,0,0,0,.732.565A17.333,17.333,0,0,0,20,149.173c.544-.563,1.09-1.121,1.667-1.651s1.151-1,1.744-1.483c.3-.239.592-.477.88-.725.149-.129.239-.286.374-.425a1.164,1.164,0,0,0,.3-.47.306.306,0,0,0-.292-.383" transform="translate(-17.626 -144.035)" fill="#bc4a60"/>
                    </g>
                  </g>
                </g>
                <path id="Trazado_212510" data-name="Trazado 212510" d="M23.156,138.094c-8.36,4.505-8.892,14.038-2.89,30.46,4.771,13.052,19.73,68.7,38.114,68.212,12.915-.343,29.761-69.175,31.055-78.127-3.682-.556-7.412-.044-14.793-4.2-2.448,5.316-13.438,50.636-16.681,47.912-3.931-3.3-7.29-32.01-14.382-46.2-5-9.995-12.063-22.566-20.423-18.061" transform="translate(66.117 0)" fill="#e29a8f"/>
                <path id="Trazado_212511" data-name="Trazado 212511" d="M57.578,130.731c3.13.03,15.633,8.288,22.767,26.334a297.629,297.629,0,0,1,10.386,30.426s-8.708,11.121-29.166,13.429c0,0-9.338-24.236-10.7-37.98L49.5,149.2s-2.728-18.57,8.078-18.465" transform="translate(31.878 0)" fill="#658ee5"/>
                <path id="Trazado_212512" data-name="Trazado 212512" d="M61.661,260.874l86,.4c0,1.672,8.4,94.4,8.8,128.4.134,11.357-31.4,18.682-34,3.6-2.2-12.765-5.643-62.993-8.79-80.829-.937-5.309-5.456-5.77-5.561-.21-.317,16.8-5.3,66.183-5.612,77.3-.321,11.327-42.347,12.883-41.637-1.865,1.515-31.466.8-126.8.8-126.8" transform="translate(-45.513 0)" fill="#2c1f30"/>
                <path id="Trazado_212513" data-name="Trazado 212513" d="M79.833,132.739c9.669-9.178,60.637-10.933,72.573,2.148s1.109,49.453,1.825,77.311,12.016,63.794,5.809,65.974-43.05,9.608-70.981,4.52S65.9,271.791,65.9,265.735s-.87-118.946,13.931-133" transform="translate(-55.685 0)" fill="#72cfe8"/>
                <path id="Trazado_212514" data-name="Trazado 212514" d="M92.646,128.479c-4,3.187,5.266,12.205,18.07,11.67s7.517-7.222,5.135-8.969-17.438-7.3-23.2-2.7" transform="translate(-38.882 0)" fill="#658ee5"/>
                <path id="Trazado_212515" data-name="Trazado 212515" d="M66.881,61.485S75.49,55.5,72.309,40.9,58.833,21.246,58.833,21.246s-6.363.374-1.684,13.662,9.732,26.577,9.732,26.577" transform="translate(43.356 0)" fill="#6f3149"/>
                <path id="Trazado_212516" data-name="Trazado 212516" d="M93.453,133a22.88,22.88,0,0,0,10.2,4.176c7.816,1.406,7.333-2.371,7.333-2.371l1.28-9.118,1.868-13.282-18.413-2.581L94.156,121l-1.437,10.219A1.918,1.918,0,0,0,93.453,133" transform="translate(-35.03 0)" fill="#e29a8f"/>
                <g id="Grupo_984505" data-name="Grupo 984505" transform="translate(59.126 109.821)" opacity="0.4">
                  <g id="Grupo_984504" data-name="Grupo 984504" transform="translate(0)">
                    <g id="Grupo_984503" data-name="Grupo 984503" transform="translate(0)" clip-path="url(#clip-path-14)">
                      <path id="Trazado_212517" data-name="Trazado 212517" d="M92.7,121a36.919,36.919,0,0,0,6.043,2.508,55.876,55.876,0,0,0,8.047,1.825,21.414,21.414,0,0,0,4.018.346l1.868-13.282-18.413-2.581Z" transform="translate(-92.7 -109.821)" fill="#bc4a60"/>
                    </g>
                  </g>
                </g>
                <path id="Trazado_212518" data-name="Trazado 212518" d="M144.805,70.853C147.449,99,136.773,123.16,103.411,120.3S62.76,91.8,57.863,65.8,69.569,15,97.513,14.9c32.329-.116,44.556,19.317,47.292,55.956" transform="translate(-30.399 0)" fill="#e29a8f"/>
                <path id="Trazado_212519" data-name="Trazado 212519" d="M62.009,72.945S63.2,86.037,73.9,91.912s21.053-3.047,35.6-2.828c13.652.205,14.971,4.087,18.118,1.15s2.938-5.456,5.666-3.987,5.665,9.652,1.678,21.4-19.3,15.317-39.238,13.848S61.012,110.8,56.837,101.169c-4.909-11.325,2.136-9.333-2.474-25.638-1.558-5.509,6.807-7.412,7.646-2.586" transform="translate(-19.276 0)" fill="#6f3149"/>
                <path id="Trazado_212520" data-name="Trazado 212520" d="M87.856,74.706C82.918,78,68.132,75.335,64.984,64.214s-5.875-36.3,14.688-45.533,55.186-4.616,55.186-4.616-6.924-9.233-2.937-11.122,10.911,6.715,10.911,6.715-3.987-9.233.839-9.652,18.256,22.871,9.023,30.425-20.773-.209-20.773-.209-3.358,6.085-12.8,8.6-18.046-1.889-18.046-1.889A22.611,22.611,0,0,1,99.4,54.352c-4.826,9.233-9.862,12.171-9.862,12.171s2.727,5.245-1.679,8.183" transform="translate(-46.871 0)" fill="#6f3149"/>
                <path id="Trazado_212521" data-name="Trazado 212521" d="M154.75,89.052c-1.378,3.98-7.878,5.411-13.13,1.83s-9.072-14.4-5.172-20.292,13.18-3.268,16.71,3.74c2.666,5.292,2.666,11.619,1.592,14.722" transform="translate(-118.469 0)" fill="#e29a8f"/>
                <g id="Grupo_984508" data-name="Grupo 984508" transform="translate(21.25 74.048)" opacity="0.5">
                  <g id="Grupo_984507" data-name="Grupo 984507" transform="translate(0)">
                    <g id="Grupo_984506" data-name="Grupo 984506" transform="translate(0)" clip-path="url(#clip-path-15)">
                      <path id="Trazado_212522" data-name="Trazado 212522" d="M140.777,74.773a.4.4,0,0,1,.173-.655c1.243-.308,2.628.474,3.662,1.1a12.677,12.677,0,0,1,3.066,2.561,11.339,11.339,0,0,1,2.872,7.45c-.011.508-.8.656-.916.124a14.065,14.065,0,0,0-3.055-6.6c-.223-.252-.477-.471-.719-.7-.1.123-.214.236-.313.351-.179.207-.363.408-.54.617a11.042,11.042,0,0,0-.955,1.357c-.587.959-.943,2.046-1.6,2.96-.123.17-.471.2-.512-.067a5.354,5.354,0,0,1,1.019-3.533,10.724,10.724,0,0,1,1.133-1.506,6,6,0,0,1,.643-.642c.106-.088.212-.177.321-.257a11.291,11.291,0,0,0-1.182-.848c-.985-.6-2.265-.9-3.1-1.709" transform="translate(-140.665 -74.048)" fill="#bc4a60"/>
                    </g>
                  </g>
                </g>
                <path id="Trazado_212523" data-name="Trazado 212523" d="M83.3,93.674c-3.579.2-5.971-3.2-9.206-.52-2.577,2.137,1.84,8.122,8.423,8.064s9.377-5.23,7.673-6.956-2.642-.823-6.89-.588" transform="translate(7.773 0)" fill="#bc4a60"/>
                <path id="Trazado_212524" data-name="Trazado 212524" d="M82.423,95.772a13.284,13.284,0,0,1,3.6,1.126,9.922,9.922,0,0,1,3.082,2.323,8.06,8.06,0,0,1,1.281,1.83,11.39,11.39,0,0,1-1.805.167c-4.445.039-7.892-2.676-8.876-5.1.664-.606,1.936-.465,2.717-.344" transform="translate(1.709 0)" fill="#fc6b7f"/>
                <path id="Trazado_212525" data-name="Trazado 212525" d="M99.185,79.01a18,18,0,0,1,1.555-1.471,13.807,13.807,0,0,1,3.747-2.376,6.942,6.942,0,0,1,4.275-.461,2.643,2.643,0,0,1,2.1,3.022c-.1.481-.8.343-.825-.112-.075-1.41-1.691-1.726-2.818-1.641a7.936,7.936,0,0,0-3.25,1.072,15.111,15.111,0,0,0-2.757,2.063c-.815.747-1.659,1.859-2.749,2.181a.391.391,0,0,1-.477-.476,4.227,4.227,0,0,1,1.2-1.8" transform="translate(-37.087 0)" fill="#2c1f30"/>
                <path id="Trazado_212526" data-name="Trazado 212526" d="M64.445,76.2a9.9,9.9,0,0,1,1-1.609,10.142,10.142,0,0,1,2.926-2.672,4.075,4.075,0,0,1,3.88-.431,2.425,2.425,0,0,1,1.291,2.9.415.415,0,0,1-.8-.221c.184-.885-.715-1.657-1.529-1.741a4.23,4.23,0,0,0-2.9,1.151,9.291,9.291,0,0,0-1.992,2.149,11.421,11.421,0,0,0-.734,1.3A3.045,3.045,0,0,1,64.7,78.3a.418.418,0,0,1-.609-.248,2.451,2.451,0,0,1,.354-1.845" transform="translate(34.107 0)" fill="#2c1f30"/>
                <path id="Trazado_212527" data-name="Trazado 212527" d="M114.034,55.2a.793.793,0,0,1-.908.991c-.162-.025-.321-.032-.481-.047a.774.774,0,0,1,.056,1.16c.11.02.221.034.331.058a.758.758,0,0,1-.019,1.453.74.74,0,0,1-.3,1.235c-4.282.609-8.685,1.84-11.653,5.192a.516.516,0,0,1-.809-.11.735.735,0,0,1-.263-.985c.118-.194.247-.381.374-.568-.017-.017-.043-.02-.058-.04-1.394-1.7.307-3.376,1.513-4.559a21.94,21.94,0,0,1,4.624-3.559,14.108,14.108,0,0,1,5.629-1.784c.731-.063,1.99-.233,2.244.716a.779.779,0,0,1-.278.847" transform="translate(-42.321 0)" fill="#6f3149"/>
                <path id="Trazado_212528" data-name="Trazado 212528" d="M63.3,50.548c.22-.916,1.306-.753,1.937-.692a11.307,11.307,0,0,1,4.859,1.722,19.324,19.324,0,0,1,3.991,3.435c1.042,1.142,2.51,2.757,1.307,4.4-.014.019-.035.022-.051.038.111.181.222.361.324.548a.758.758,0,0,1-.228.951.418.418,0,0,1-.7.107c-2.563-3.236-6.364-4.424-10.06-5.012-.466-.074-.6-.872-.26-1.192-.585-.142-.679-1.243-.017-1.4.1-.023.191-.036.286-.056a.805.805,0,0,1,.049-1.12c-.139.014-.276.022-.416.045a.737.737,0,0,1-.784-.956.8.8,0,0,1-.24-.817" transform="translate(32.692 0)" fill="#6f3149"/>
                <g id="Grupo_984511" data-name="Grupo 984511" transform="translate(88.518 61.341)" opacity="0.5">
                  <g id="Grupo_984510" data-name="Grupo 984510" transform="translate(0)">
                    <g id="Grupo_984509" data-name="Grupo 984509" transform="translate(0)" clip-path="url(#clip-path-16)">
                      <path id="Trazado_212529" data-name="Trazado 212529" d="M83.26,87.73c-1.227-4.409-2.514-8.8-3.776-13.2-.625-2.179-1.247-4.359-1.881-6.536a31.507,31.507,0,0,0-2.16-6.44.445.445,0,0,0-.824.223,30.846,30.846,0,0,0,1.557,6.475c.633,2.222,1.278,4.441,1.92,6.66C79.28,79,80.445,83.1,81.654,87.179a54.377,54.377,0,0,1-8.67-1.133.472.472,0,0,0-.25.909,32.343,32.343,0,0,0,9.857,1.653.7.7,0,0,0,.669-.878" transform="translate(-72.403 -61.341)" fill="#bc4a60"/>
                    </g>
                  </g>
                </g>
                <path id="Trazado_212530" data-name="Trazado 212530" d="M112.944,141.543c-9.5.1-14.4,8.284-16.738,25.613-1.854,13.772-14.521,69.987,1.977,78.113,11.59,5.708,65.877-48.014,71.19-55.335-3-2.206-6.539-3.489-11.139-10.6-4.641,3.565-42.8,39.206-44.4,35.284-1.941-4.752,8.45-31.722,8.779-47.582.231-11.171-.171-25.587-9.667-25.492" transform="translate(-87.386 0)" fill="#e29a8f"/>
                <path id="Trazado_212531" data-name="Trazado 212531" d="M163.539,135.112c2.756,1.484,9.977,14.613,7.89,33.9a297.663,297.663,0,0,1-4.972,31.763s-12.884,5.789-32.065-1.693c0,0,3.018-25.8,8.21-38.6l5.191-12.8s6.231-17.7,15.746-12.581" transform="translate(-134.392 0)" fill="#658ee5"/>
                <path id="Trazado_212532" data-name="Trazado 212532" d="M86.662,187.509c4.583-4,11.009-9.233,14.755-12.154,3.971-3.1,3.69-4.66-.243-3.27-3.488,1.233-6.446,3.139-6.894,2.637-.221-.248,2.111-1.818,5.381-4.107,3.363-2.353,5.626-4.263,4.929-5.779s-10.189,3.973-12.609,5.812,6.222-6.3,9.218-9.053c3.357-3.086,1.764-5.053-3.157-1.849s-8.667,6.777-10.151,7.288c.465-1.255,1.4-2.549,5.609-7.248,3.123-3.488,1.378-4.779-2.484-1.989-4.636,3.347-9.656,10.194-11.386,9.621-.976-.991.448-2.656.717-7.63s-3.009.508-5.008,5.19c-2.067,4.844-5.558,9.647-7.073,13.673-2.039,5.416-2.413,9.547,1.249,12.622s7.882,4.322,17.147-3.764" transform="translate(0.346 0)" fill="#e29a8f"/>
                <path id="Trazado_212533" data-name="Trazado 212533" d="M107.565,201.771,96.632,190.233a1.351,1.351,0,0,1,.051-1.909l3.088-2.926a1.351,1.351,0,0,1,1.909.051l10.933,11.539a1.349,1.349,0,0,1-.051,1.908l-3.088,2.926a1.351,1.351,0,0,1-1.909-.051" transform="translate(-37.443 0)" fill="#b26167"/>
                <path id="Trazado_212534" data-name="Trazado 212534" d="M108.831,198.051a6.118,6.118,0,1,1,.233-8.648,6.118,6.118,0,0,1-.233,8.648" transform="translate(-37.444 0)" fill="#ffd0be"/>
              </g>
            </g>
          </g>
        </g>
      </g>
    </g>
  </g>
</svg>
