<svg id="Grupo_984363" data-name="Grupo 984363" xmlns="http://www.w3.org/2000/svg" xmlns:xlink="http://www.w3.org/1999/xlink" width="90" height="90" viewBox="0 0 90 90">
  <defs>
    <clipPath id="clip-path">
      <circle id="Elipse_4884" data-name="Elipse 4884" cx="45" cy="45" r="45" fill="#c4d1ff"/>
    </clipPath>
    <clipPath id="clip-path-2">
      <rect id="Rectángulo_338868" data-name="Rectángulo 338868" width="58.321" height="63.066" fill="none"/>
    </clipPath>
    <clipPath id="clip-path-3">
      <path id="Trazado_211574" data-name="Trazado 211574" d="M20.705,66.2c5.132,0,5.362-4.521,5.362-4.521l-10.447-.4S15.6,66.2,20.705,66.2" transform="translate(-15.62 -61.282)" fill="none"/>
    </clipPath>
  </defs>
  <path id="Trazado_207348" data-name="Trazado 207348" d="M45,0A45,45,0,1,0,90,45,45,45,0,0,0,45,0Z" fill="#ffe891"/>
  <g id="Enmascarar_grupo_440" data-name="Enmascarar grupo 440" clip-path="url(#clip-path)">
    <g id="Grupo_983907" data-name="Grupo 983907" transform="translate(15.239 16.154)">
      <g id="Grupo_983902" data-name="Grupo 983902" transform="translate(0 0)">
        <g id="Grupo_983901" data-name="Grupo 983901" clip-path="url(#clip-path-2)">
          <path id="Trazado_211565" data-name="Trazado 211565" d="M14.81,51.426a7.5,7.5,0,1,1-5.661-8.963,7.5,7.5,0,0,1,5.661,8.963" transform="translate(0 -11.165)" fill="#8c4d41"/>
          <path id="Trazado_211566" data-name="Trazado 211566" d="M18.207,8.118A19.512,19.512,0,0,0,6.194,24.355C5.33,32.646,4.563,45.5,7.14,51.791c3.985,9.732,12.445,15.437,25.24,11.967,0,0,14.98-1.826,17.146-24.411,2.563-26.725-16.2-37.2-31.319-31.229" transform="translate(-1.42 -1.714)" fill="#9b5e4e"/>
          <path id="Trazado_211567" data-name="Trazado 211567" d="M11.259,45.53a1.715,1.715,0,1,1-1.371-2,1.715,1.715,0,0,1,1.371,2" transform="translate(-2.075 -11.488)" fill="#221914"/>
          <path id="Trazado_211568" data-name="Trazado 211568" d="M30.935,44.5a1.715,1.715,0,1,1-1.371-2,1.716,1.716,0,0,1,1.371,2" transform="translate(-7.272 -11.217)" fill="#221914"/>
          <path id="Trazado_211569" data-name="Trazado 211569" d="M16.354,47.82l-1.216,4.942a.95.95,0,0,0,.743,1.16l1.812.35" transform="translate(-3.991 -12.629)" fill="none" stroke="#2f1a2a" stroke-linecap="round" stroke-linejoin="round" stroke-width="1.012"/>
          <path id="Trazado_211570" data-name="Trazado 211570" d="M32.233,30.027s-5.369-1.114-5.655,1.779c0,0-.152,1.963,4.542,2.816s6.57.711,7.148-1.091-3.5-3.237-6.036-3.5" transform="translate(-7.019 -7.874)" fill="#221914"/>
          <path id="Trazado_211571" data-name="Trazado 211571" d="M6.088,30.34s4.919-1.392,5.547,1.413c0,0,.391,1.92-3.93,3-3.145.789-4.3.212-4.579-1.074-.336-1.524,1.107-2.993,2.962-3.342" transform="translate(-0.813 -7.922)" fill="#221914"/>
          <path id="Trazado_211572" data-name="Trazado 211572" d="M15.62,61.282l10.446.4S25.836,66.2,20.7,66.2c-5.1,0-5.084-4.917-5.084-4.917" transform="translate(-4.125 -16.185)" fill="#221914"/>
        </g>
      </g>
      <g id="Grupo_983904" data-name="Grupo 983904" transform="translate(11.495 45.097)">
        <g id="Grupo_983903" data-name="Grupo 983903" transform="translate(0 0)" clip-path="url(#clip-path-3)">
          <path id="Trazado_211573" data-name="Trazado 211573" d="M27.543,69.851a3.906,3.906,0,1,1-1.92-5.18,3.906,3.906,0,0,1,1.92,5.18" transform="translate(-16.799 -62.083)" fill="#e275c2"/>
        </g>
      </g>
      <g id="Grupo_983906" data-name="Grupo 983906" transform="translate(0 0)">
        <g id="Grupo_983905" data-name="Grupo 983905" clip-path="url(#clip-path-2)">
          <path id="Trazado_211575" data-name="Trazado 211575" d="M44.065,37.608S38,26.192,40.2,13.774c0,0-18.511,3.1-29.215-.3,0,0,2.515-15.268,27.411-13.295,34.094,2.7,24.13,39.036,7.871,45.253Z" transform="translate(-2.901 0)" fill="#221914"/>
          <path id="Trazado_211576" data-name="Trazado 211576" d="M72.173,52.172A9.1,9.1,0,1,1,65.3,41.3a9.1,9.1,0,0,1,6.87,10.877" transform="translate(-14.315 -10.847)" fill="#9b5e4e"/>
          <path id="Trazado_211577" data-name="Trazado 211577" d="M68.985,49.392s-6.79-1.43-8.03,6.018" transform="translate(-16.099 -13.015)" fill="none" stroke="#2f1a2a" stroke-linecap="round" stroke-linejoin="round" stroke-width="1.012"/>
        </g>
      </g>
    </g>
  </g>
</svg>
