<svg xmlns="http://www.w3.org/2000/svg" xmlns:xlink="http://www.w3.org/1999/xlink" width="505" height="311" viewBox="0 0 505 311">
  <defs>
    <clipPath id="clip-path">
      <rect id="Rectángulo_339064" data-name="Rectángulo 339064" width="407.122" height="310.682" fill="none"/>
    </clipPath>
    <clipPath id="clip-path-3">
      <rect id="Rectángulo_339059" data-name="Rectángulo 339059" width="24.679" height="22.892" fill="none"/>
    </clipPath>
    <clipPath id="clip-path-4">
      <path id="Trazado_210118" data-name="Trazado 210118" d="M993.793,1289.453c13.164.988,22.208,10.7,22.208,10.7l-7.895-1.034s-10.636-4.144-16.258-5.755c-4.111-1.178-9.369.585-11.9,1.619a2.015,2.015,0,0,1-2.433-.733,1.872,1.872,0,0,1,.514-2.613c1.645-1.08,4.745-2.368,11.245-2.368,1.352,0,2.852.056,4.515.181" transform="translate(-977.195 -1289.272)" fill="none"/>
    </clipPath>
    <clipPath id="clip-path-6">
      <path id="Trazado_210121" data-name="Trazado 210121" d="M1042.315,1304.947l8.575,6.8a112.264,112.264,0,0,1-12.977-3.119c-5.176-1.559-10.093.9-12.52,2.469a2.755,2.755,0,0,1-3.2-.141l-.023-.018a1.43,1.43,0,0,1-.128-2.127,17.274,17.274,0,0,1,12.679-5.258,21.2,21.2,0,0,1,7.6,1.392" transform="translate(-1021.626 -1303.555)" fill="none"/>
    </clipPath>
    <clipPath id="clip-path-8">
      <path id="Trazado_210124" data-name="Trazado 210124" d="M1013.542,1324.559l10.63.592,2.134,4.838s-3.912-.291-12.389-1.549c-6.367-.945-10.326,3.9-11.9,6.367a3.064,3.064,0,0,1-2.5,1.42,1.121,1.121,0,0,1-1.112-1.414c2.569-9.385,10.771-10.31,13.9-10.31a11.5,11.5,0,0,1,1.234.056" transform="translate(-998.363 -1324.503)" fill="none"/>
    </clipPath>
  </defs>
  <g id="Grupo_984367" data-name="Grupo 984367" transform="translate(0 15.661)">
    <rect id="Rectángulo_339575" data-name="Rectángulo 339575" width="152" height="311" rx="28" transform="translate(353 -15.661)" fill="#3c3fa7"/>
    <g id="Grupo_983823" data-name="Grupo 983823" transform="translate(0 -15.661)">
      <rect id="Rectángulo_338873" data-name="Rectángulo 338873" width="460.359" height="204.855" rx="15" transform="translate(0 104.926)" fill="#6b8dfc"/>
      <g id="Grupo_983805" data-name="Grupo 983805" transform="translate(62.198)">
        <g id="Grupo_983822" data-name="Grupo 983822" clip-path="url(#clip-path)">
          <g id="Grupo_983809" data-name="Grupo 983809" transform="translate(0.001)">
            <g id="Grupo_983808" data-name="Grupo 983808" clip-path="url(#clip-path)">
              <path id="Trazado_210049" data-name="Trazado 210049" d="M797.2,1066.818a.754.754,0,0,1-.1.07c-9.336,5.269-14.955,34.072-15.01,34.363a.826.826,0,0,1-.81.67.814.814,0,0,1-.156-.015.826.826,0,0,1-.655-.966,143.346,143.346,0,0,1,4.066-15.495c3.5-10.7,7.386-17.381,11.55-19.873q.572.609,1.115,1.246" transform="translate(-546.91 -851.439)" fill="#fff"/>
              <path id="Trazado_210050" data-name="Trazado 210050" d="M493.141,1254.793l.964,51.392,65.64.177-2.823-58.759Z" transform="translate(-251.723 -996.89)"/>
              <path id="Trazado_210051" data-name="Trazado 210051" d="M558.161,1304.642l-2.874-59.822-64.768,7.3.008.458.973,51.884Zm-3.826-58.7,2.772,57.7-64.62-.174-.946-50.443Z" transform="translate(-249.612 -994.666)" fill="#fff"/>
              <path id="Trazado_210052" data-name="Trazado 210052" d="M196.058,1238.032l13.265,60.284-68.659.332-15.528-61.581Z" transform="translate(172.652 -988.471)"/>
              <path id="Trazado_210053" data-name="Trazado 210053" d="M137.813,1297.12l.393,0,69.281-.334L194,1235.5l-.4-.005-71.577-.975Zm68.426-1.336-67.644.327-15.272-60.566,69.871.952Z" transform="translate(175.112 -986.437)" fill="#fff"/>
              <path id="Trazado_210054" data-name="Trazado 210054" d="M121.929,518.81l22.643,127.334,147.055-18.5-40.173-159.1Z" transform="translate(90.993 -374.383)" fill="#ffc849"/>
              <path id="Trazado_210055" data-name="Trazado 210055" d="M0,438.058l40.592-80.695a60.805,60.805,0,0,1,36.068-30.677l84.109-26.468a36.743,36.743,0,0,1,41.468,14.469l56.09,82.962a28.958,28.958,0,0,1-34.445,43.224l-91.728-35.515,11.1-39.874,68.024,18.449-29.947-35.79L84.928,391.334,32.089,494.467Z" transform="translate(143.825 -238.532)" fill="#ffc849"/>
              <path id="Trazado_210056" data-name="Trazado 210056" d="M739.405,266.36l-16.177-26.146-23.219,15.291,16.314,23.916Z" transform="translate(-472.954 -191.942)" fill="#f47541"/>
              <path id="Trazado_210057" data-name="Trazado 210057" d="M736.625,418.05s11.05,7.3,16.7-4.066l-8.738-4.066-1.973.885-2.093.327Z" transform="translate(-494.23 -327.543)" fill="#bad6de"/>
              <path id="Trazado_210058" data-name="Trazado 210058" d="M805.018,305.875l13.59-11.253s-3.3,10.017-9.913,16.643Z" transform="translate(-573.259 -235.417)"/>
              <path id="Trazado_210059" data-name="Trazado 210059" d="M639.711,331.437l-13.982,16.656,19.763,17.292L658.726,333.8Z" transform="translate(-377.348 -264.833)" fill="#dceaef"/>
              <path id="Trazado_210060" data-name="Trazado 210060" d="M800.395,381.832l12.447,6.545-4.383,21.442-19-17.929Z" transform="translate(-564.365 -305.1)" fill="#dceaef"/>
              <path id="Trazado_210061" data-name="Trazado 210061" d="M780.579,46.651s-7.8,14.087,7.921,40.822,43.425,6.492,48.491-8.119c3.054-8.807-1.041-24.245-1.041-24.245L816.161,33.978l-24.249,3.656Z" transform="translate(-587.474 -27.15)" fill="#f47541"/>
              <path id="Trazado_210062" data-name="Trazado 210062" d="M902.9,175.964s-3.578-14.684,11.239-13.5c0,0,5.992,12.518-11.239,13.5" transform="translate(-689.386 -129.76)" fill="#fff"/>
              <path id="Trazado_210063" data-name="Trazado 210063" d="M930.418,134.239s2.517-6.773,10.981-3.461Z" transform="translate(-721.25 -103.769)"/>
              <path id="Trazado_210064" data-name="Trazado 210064" d="M815.683,37.59c.4,6.9-10.278-9.486-15.135-20.137s-10.037,1.175-18.88,7.25c-9.317,6.4-15.831,5.165-10.977.311a26.5,26.5,0,0,1-8.276,5.62c-4.573,1.766-5.293-2.243-1.12-4.441,0,0-6.59-3.337-5.029-7.055s6.476.163,15.956-6.045S791.607-2.183,809.95,5.38s23.333,33.876,16.216,47.769l-3.176-1.235L821.931,41.68s-6.748-12.722-6.248-4.09" transform="translate(-574.079 -2.004)"/>
              <path id="Trazado_210065" data-name="Trazado 210065" d="M824.388,51.779l.207-.4c4.032-7.872,4.229-19.492.5-29.6-3.324-9.018-9.352-15.715-16.974-18.858-16.7-6.888-26.558-.161-35.251,5.775-1.013.692-1.971,1.346-2.943,1.982a22.486,22.486,0,0,1-11.463,3.949c-2.242.214-3.861.369-4.681,2.321-1.39,3.309,2.7,6.194,4.487,7.262-2.009,1.34-2.59,3.059-2.078,4.186.449.989,1.838,1.7,4.384.711a23.778,23.778,0,0,0,5.951-3.517,1.6,1.6,0,0,0,.352,1.22c.735.884,2.435,1.026,4.789.4a27.432,27.432,0,0,0,8.264-4.087,51.4,51.4,0,0,0,7.1-6.29c2.929-2.946,5.459-5.49,7.527-5.119,1.25.224,2.4,1.517,3.508,3.953a117.4,117.4,0,0,0,8.1,14.55c5.231,7.961,6.646,7.609,7.111,7.494.99-.245.907-1.675.88-2.145-.128-2.209.27-2.469.274-2.47s.72-.077,2.829,3.12c1.041,1.578,1.944,3.231,2.154,3.619l1.08,10.441ZM794.75,1.013a34,34,0,0,1,12.991,2.828c7.359,3.034,13.188,9.525,16.414,18.276,3.571,9.688,3.462,20.769-.251,28.394l-2.464-.958L820.4,39.528l-.046-.087c-.01-.019-1.023-1.923-2.222-3.747-2.306-3.507-3.33-3.753-3.965-3.575-.823.23-1.133,1.309-1.007,3.5.054.934-.129,1.116-.131,1.118-.333.066-2.07-1.065-6.035-7.1a116.372,116.372,0,0,1-8.009-14.387c-1.258-2.759-2.646-4.239-4.245-4.525-2.586-.463-5.159,2.123-8.417,5.4a50.61,50.61,0,0,1-6.961,6.17,27.433,27.433,0,0,1-7.954,3.945c-2.234.6-3.42.336-3.757-.069-.3-.364-.126-1.25,1.242-2.661.077-.077.125-.126.139-.142l-.717-.7-.1.1a26.017,26.017,0,0,1-8,5.406c-1.562.6-2.781.528-3.108-.19-.315-.694.221-2.189,2.4-3.338l.86-.453-.867-.44c-.062-.031-6.155-3.169-4.793-6.413.563-1.342,1.588-1.494,3.85-1.71a23.672,23.672,0,0,0,11.918-4.109c.98-.642,1.942-1.3,2.959-1.993,4.346-2.968,8.841-6.037,14.316-7.555a26.021,26.021,0,0,1,7-.95" transform="translate(-572.061 0)"/>
              <path id="Trazado_210066" data-name="Trazado 210066" d="M757.286,139s-1.2-11.725,8.333-9.23c8.122,2.124,5.705,15.724-2.437,15.438Z" transform="translate(-515.682 -103.413)" fill="#f47541"/>
              <path id="Trazado_210067" data-name="Trazado 210067" d="M778.544,148.746h.017a.39.39,0,0,0,.373-.406c-.281-6.62,4.478-8.4,4.68-8.473a.39.39,0,0,0-.26-.736c-.055.019-5.506,2.028-5.2,9.242a.39.39,0,0,0,.39.374" transform="translate(-533.124 -111.154)"/>
              <path id="Trazado_210068" data-name="Trazado 210068" d="M776.545,175.369a.39.39,0,0,0,.066-.775l-6.067-1.043a.39.39,0,0,0-.132.769l6.067,1.043a.416.416,0,0,0,.066.006" transform="translate(-524.567 -138.671)"/>
              <path id="Trazado_210069" data-name="Trazado 210069" d="M909.49,300.293s3.273-4.393,13.247-6.145c0,0-2.169,7.228-13.247,6.145" transform="translate(-698.382 -235.037)" fill="#000300"/>
              <path id="Trazado_210070" data-name="Trazado 210070" d="M909.489,300.282a10.187,10.187,0,0,1,1.571-3.985,32.238,32.238,0,0,1,7.373-2.15s-1.583,5.27-8.944,6.135" transform="translate(-694.079 -235.036)" fill="#ff1300"/>
              <path id="Trazado_210071" data-name="Trazado 210071" d="M920.6,181.314c0,.027,0,.054,0,.081-1.572,2.179-4.76,3.98-10.873,4.329,0,0-1.642-6.746,1.914-10.725a6.707,6.707,0,0,1,8.961,6.315" transform="translate(-696.214 -139.52)"/>
              <path id="Trazado_210072" data-name="Trazado 210072" d="M1015.485,229.11c-3.06,3.985-5.517,4.439-7.36,3.563-1.221-2.464-2.231-4.8-3.065-7.01-.162-2.2,2.484-2.553,3.771-2.495,3.889.176,6.654,5.941,6.654,5.941" transform="translate(-810.335 -178.317)" fill="#fff"/>
              <path id="Trazado_210073" data-name="Trazado 210073" d="M1013.812,224.53a7.8,7.8,0,0,1,5.6,1.823,5.512,5.512,0,0,1,1.5,5.776c-2.27,2.159-4.149,2.314-5.63,1.609-1.22-2.464-2.23-4.8-3.064-7.009-.339-1.141.8-1.826,1.6-2.2" transform="translate(-817.484 -179.384)"/>
              <path id="Trazado_210074" data-name="Trazado 210074" d="M992.394,252.285a.39.39,0,0,0,.213-.717l-4.47-2.91,2.936-2.427a.39.39,0,0,0-.5-.6l-3.345,2.765a.39.39,0,0,0,.036.628l4.915,3.2a.388.388,0,0,0,.212.063" transform="translate(-784.025 -196.197)"/>
              <path id="Trazado_210075" data-name="Trazado 210075" d="M1049.734,185.949l-4.71,2.456q-.256-1.056-.458-2.061c2.253-1.688,5.168-.4,5.168-.4" transform="translate(-852.525 -148.203)"/>
              <path id="Trazado_210076" data-name="Trazado 210076" d="M669.093,592.6,659,541.777l38.283-29.115,26.311,6.373-35.87,60.616Z" transform="translate(-448.9 -409.64)" fill="#ffc849"/>
              <path id="Trazado_210077" data-name="Trazado 210077" d="M601.532,628.7s-6.255-3.193-14.656-8.051c-16.494-9.538-24.318-4.087-24.318-4.087Z" transform="translate(-307.459 -491.424)" fill="#f47541"/>
              <path id="Trazado_210078" data-name="Trazado 210078" d="M589.488,645.624l-20.365-10.217-12.775,1.962,3.453,6.539,3.918,5.291,12.306,4.756,8.5,4.583Z" transform="translate(-294.168 -507.719)" fill="#f47541"/>
              <path id="Trazado_210079" data-name="Trazado 210079" d="M601.532,628.7s-6.255-3.193-14.656-8.051c-16.494-9.538-24.318-4.087-24.318-4.087Z" transform="translate(-307.459 -491.424)" fill="#f47541"/>
              <path id="Trazado_210080" data-name="Trazado 210080" d="M678.3,617.6A27.785,27.785,0,0,1,692,622.6l-1.23.706-14.993-4.669A8.674,8.674,0,0,1,678.3,617.6" transform="translate(-420.675 -493.492)"/>
              <path id="Trazado_210081" data-name="Trazado 210081" d="M692.9,630.74s-5.036-2.717-16.13-2.047a3.85,3.85,0,0,1-3.6-1.969,1.972,1.972,0,0,1,1.285-2.864c4.751-1.175,15.624-2.809,25.905,3.186Z" transform="translate(-428.473 -497.59)" fill="#f47541"/>
              <path id="Trazado_210082" data-name="Trazado 210082" d="M690.96,651.148C697.134,649.2,703,654.1,703,654.1l-.159.016a58.821,58.821,0,0,0-12.566-3.053c.123-.043.547.125.682.083" transform="translate(-434.597 -519.931)"/>
              <path id="Trazado_210083" data-name="Trazado 210083" d="M700.454,666.588a28.933,28.933,0,0,0-17.682,3.479,4.132,4.132,0,0,1-4.123-.058,2.334,2.334,0,0,1-.271-3.937c3.634-2.891,11.643-7.429,23.766-6.018Z" transform="translate(-431.154 -527.201)" fill="#f47541"/>
              <path id="Trazado_210084" data-name="Trazado 210084" d="M626.05,700.179s-6.632-2.622-11.048-4.809a9.432,9.432,0,0,0-7.855-.221,88.79,88.79,0,0,0-11.1,5.444,3.871,3.871,0,0,1-3.837.138,2.076,2.076,0,0,1-.414-3.4c2.478-2.158,7.333-5.537,15.421-7.965Z" transform="translate(-337.71 -550.832)" fill="#f47541"/>
              <path id="Trazado_210085" data-name="Trazado 210085" d="M781.42,627.04a1.968,1.968,0,0,1,.138-.457c.013.011.023.021.038.032.329.254,1.243.612,3.667.163.884-.164,1.36-.6,1.305-1.191a1.044,1.044,0,0,0-.461-.778q.28-.044.571-.086a1.55,1.55,0,0,1,.338.823c.029.315-.006,1.367-1.672,1.675a11.821,11.821,0,0,1-2.107.224,3.333,3.333,0,0,1-1.818-.406" transform="translate(-536.932 -499.181)"/>
              <path id="Trazado_210086" data-name="Trazado 210086" d="M777.148,686.443c.118.205.454.293.929.239,1.248-.141,2.9-1.149,3.17-2.236a1.324,1.324,0,0,0-.343-1.5,1.45,1.45,0,0,0-1.018-.2q.32-.211.663-.424a1.636,1.636,0,0,1,.617.259,1.71,1.71,0,0,1,.519,1.972c-.338,1.386-2.3,2.435-3.557,2.578a2.787,2.787,0,0,1-.309.018,1.87,1.87,0,0,1-.408-.043,2.285,2.285,0,0,1-.263-.662" transform="translate(-530.824 -545.204)"/>
              <path id="Trazado_210087" data-name="Trazado 210087" d="M747.31,724.12a2.675,2.675,0,0,1-.667-.085,2.081,2.081,0,0,1-.068-.491,2.423,2.423,0,0,0,2.351-.488,2.071,2.071,0,0,0,.885-1.876,1.03,1.03,0,0,0-.687-.7c.135-.1.273-.2.416-.3a1.4,1.4,0,0,1,.708.888,2.483,2.483,0,0,1-1.036,2.333,3,3,0,0,1-1.9.717" transform="translate(-493.199 -575.457)"/>
              <path id="Trazado_210088" data-name="Trazado 210088" d="M588.182,628.568l-7.235,19.41,6,2.823,6.529-20.645Z" transform="translate(-303.099 -502.253)"/>
              <path id="Trazado_210089" data-name="Trazado 210089" d="M512.132,631.907l.118-.03,19.248,5.158-12.7,41.643-17.749-6.954Z" transform="translate(-225.064 -504.898)" fill="#dceaef"/>
              <path id="Trazado_210090" data-name="Trazado 210090" d="M565.645,784.429a.39.39,0,0,0,.148-.751l-17.86-7.326a.39.39,0,1,0-.3.722L565.5,784.4a.385.385,0,0,0,.148.029" transform="translate(-268.916 -620.316)"/>
              <path id="Trazado_210091" data-name="Trazado 210091" d="M574.987,742.044a4.225,4.225,0,1,0-4.225-4.226,4.23,4.23,0,0,0,4.225,4.226m0-7.671a3.445,3.445,0,1,1-3.445,3.445,3.449,3.449,0,0,1,3.445-3.445" transform="translate(-286.789 -586.173)"/>
              <path id="Trazado_210092" data-name="Trazado 210092" d="M193.968,726.3a.488.488,0,0,0,.176-.943l-73.555-28.4L133.021,656.2l75.727,21.054a.488.488,0,1,0,.261-.94l-76.186-21.182a.488.488,0,0,0-.6.327l-12.7,41.643a.487.487,0,0,0,.291.6l73.979,28.562a.489.489,0,0,0,.175.033" transform="translate(173.74 -523.467)"/>
              <path id="Trazado_210093" data-name="Trazado 210093" d="M408.01,629.155a.488.488,0,0,0,.4-.768l-9.439-13.453a.487.487,0,1,0-.8.56l9.439,13.453a.487.487,0,0,0,.4.208" transform="translate(-81.373 -491.194)"/>
              <path id="Trazado_210094" data-name="Trazado 210094" d="M941.762,731.71a.5.5,0,0,0,.095-.009.488.488,0,0,0,.385-.573l-7.234-36.878a.488.488,0,1,0-.957.188l7.235,36.878a.488.488,0,0,0,.478.394" transform="translate(-722.829 -554.422)"/>
              <path id="Trazado_210095" data-name="Trazado 210095" d="M1306.219,632.38s-14.737,70.661,5.821,77.535l-25.65-9.547s-13.721-28.258-9.547-43.915,6.11-52.317,6.11-52.317Z" transform="translate(-1161.349 -482.731)" fill="#dceaef"/>
              <path id="Trazado_210096" data-name="Trazado 210096" d="M634.52,921.545,659.536,863a27.621,27.621,0,0,1,25.39-16.792h50.295l53.947,11.707a36.073,36.073,0,0,1,24.423,18.773l55.142,108.4H650.822Z" transform="translate(-589.122 -676.158)"/>
              <path id="Trazado_210097" data-name="Trazado 210097" d="M646.884,983.591H866L810.491,874.464a36.459,36.459,0,0,0-24.764-19.037l-54-11.719H681.378a28.092,28.092,0,0,0-25.852,17.1l-25.083,58.7Zm217.482-1.005h-216.7l-16.163-63L656.45,861.2a27.089,27.089,0,0,1,24.928-16.487h50.241l53.894,11.7A35.452,35.452,0,0,1,809.6,874.922Z" transform="translate(-585.574 -674.161)" fill="#fff"/>
              <path id="Trazado_210098" data-name="Trazado 210098" d="M1209.206,765.383l15.275-27.877-26.656-3.257-10.768,32.28Z" transform="translate(-1055.905 -586.697)" fill="#ffa88a"/>
              <path id="Trazado_210099" data-name="Trazado 210099" d="M1089.7,505.533c8.02-17.948,28.259-20.621,43.152-16.3,7.719,2.24,14.1,11.049,17.72,20.878l.031.087,4.366-.462-1.824,7.8c1.252,6.442.974,13.686-.818,18.167-5.347,13.366-38.952,9.547-38.952,9.547s-31.7-21.767-23.676-39.715" transform="translate(-966.564 -389.475)" fill="#ffa88a"/>
              <path id="Trazado_210100" data-name="Trazado 210100" d="M1146.5,578.013s-6.87-15.458-15.458-.859c0,0,7.3,7.729,15.458.859" transform="translate(-966.665 -456.159)" fill="#fff"/>
              <path id="Trazado_210101" data-name="Trazado 210101" d="M1248.057,855.064h0s3.334,14.387-13.226,14.552-30.311-11.391-24.674-18.407h20.082Z" transform="translate(-1084.141 -680.154)" fill="#ffa88a"/>
              <path id="Trazado_210102" data-name="Trazado 210102" d="M1100.122,673.99a4.087,4.087,0,0,0,.522-.031.413.413,0,1,0-.1-.819c-2.573.329-7.642-2.563-7.693-2.592a.413.413,0,1,0-.411.716c.2.118,4.777,2.726,7.687,2.726" transform="translate(-913.372 -535.754)"/>
              <path id="Trazado_210103" data-name="Trazado 210103" d="M1181.775,539.912s-6.11.938-8.019,3.993c0,0,1.909-7.987,8.019-3.993" transform="translate(-1010.527 -430.52)" fill="#000300"/>
              <path id="Trazado_210104" data-name="Trazado 210104" d="M1273.941,625.547s-5.118,59.81,5.82,77.535l-25.649-9.547s-7.989-26.337-6.338-46.973c1.292-16.152,2.988-48.11,2.988-48.11Z" transform="translate(-1123.343 -478.19)" fill="#dceaef"/>
              <path id="Trazado_210105" data-name="Trazado 210105" d="M1155.5,505.533c8.02-17.948,28.259-20.621,43.152-16.3a20.245,20.245,0,0,1,8.895,5.872c-7.142-5.458-17.678-3.321-17.678-3.321,5.346,22.53-7.255,30.932-7.255,30.932l-1.049,14.3-5.4,6c-7.711-5.995-27.146-22.983-20.668-37.482" transform="translate(-1032.364 -389.475)" fill="#dceaef"/>
              <path id="Trazado_210106" data-name="Trazado 210106" d="M1141.561,578.026a11.831,11.831,0,0,1-4.874,2.575,6.432,6.432,0,0,1-5.269-4.319,6.552,6.552,0,0,1,.226-4.948c5.82-2.521,9.916,6.691,9.916,6.691" transform="translate(-961.729 -456.173)"/>
              <path id="Trazado_210107" data-name="Trazado 210107" d="M1258.769,658.462s-9.547-4.2-11.074,3.437,9.329,14.822,15.357,8.366-4.282-11.8-4.282-11.8" transform="translate(-1108.524 -525.22)" fill="#ffa88a"/>
              <path id="Trazado_210108" data-name="Trazado 210108" d="M1279.065,681.363a.413.413,0,0,0,.289-.707c-3.082-3.021-5.739-3.529-7.424-3.421a5.74,5.74,0,0,0-3.021,1.014.413.413,0,0,0,.509.65c.159-.123,3.953-2.953,9.358,2.347a.411.411,0,0,0,.289.118" transform="translate(-1127.32 -541.13)"/>
              <path id="Trazado_210109" data-name="Trazado 210109" d="M1281.846,689.853a.413.413,0,0,0,.377-.245l2.4-5.381a.413.413,0,0,0-.754-.337l-2.4,5.381a.412.412,0,0,0,.209.545.406.406,0,0,0,.167.036" transform="translate(-1135.051 -546.264)"/>
              <path id="Trazado_210110" data-name="Trazado 210110" d="M1209.637,767.927s-5.461-.3-8.763-1.948l5.365,8.254Z" transform="translate(-1043.838 -612.051)"/>
              <path id="Trazado_210111" data-name="Trazado 210111" d="M1242.838,860.842a.412.412,0,0,0,.362-.214l3.736-6.818a.413.413,0,1,0-.724-.4l-3.736,6.818a.413.413,0,0,0,.362.611" transform="translate(-1089.539 -681.743)"/>
              <path id="Trazado_210112" data-name="Trazado 210112" d="M987.169,1305.826c0-14.588-6.744-26.414-15.064-26.414s-15.064,11.826-15.064,26.414,6.745,26.413,15.064,26.413,15.064-11.826,15.064-26.413" transform="translate(-772.37 -1022.307)"/>
              <path id="Trazado_210113" data-name="Trazado 210113" d="M1445,1221.264H1343.889l-44.985-80.478h101.114Z" transform="translate(-1298.904 -911.538)" fill="#7dbcf5"/>
              <rect id="Rectángulo_339058" data-name="Rectángulo 339058" width="73.669" height="5.778" transform="translate(142.591 303.948)" fill="#7dbcf5"/>
              <g id="Grupo_983807" data-name="Grupo 983807" transform="translate(53.011 264.232)" opacity="0.7">
                <g id="Grupo_983806" data-name="Grupo 983806">
                  <g id="Grupo_983805-2" data-name="Grupo 983805" clip-path="url(#clip-path-3)">
                    <path id="Trazado_210114" data-name="Trazado 210114" d="M1641.051,1325.762c2.479,4.358,18.019,13.385,20.753,11.829s2.941-6.35.461-10.707-18.019-13.384-20.753-11.828-2.941,6.349-.461,10.707" transform="translate(-1639.318 -1314.877)" fill="#fff"/>
                  </g>
                </g>
              </g>
              <path id="Trazado_210115" data-name="Trazado 210115" d="M701.617,1277.75a.827.827,0,0,1,.99-.619c.363.084,35.092,8.218,62.32,24.026l1.4,2.746c-27.288-16.545-63.717-25.078-64.088-25.163a.825.825,0,0,1-.618-.99" transform="translate(-500.192 -1020.468)" fill="#fff"/>
              <path id="Trazado_210116" data-name="Trazado 210116" d="M1016,1300.158s-9.045-9.716-22.208-10.7c-9.661-.726-13.773.882-15.76,2.187a1.872,1.872,0,0,0-.514,2.613,2.015,2.015,0,0,0,2.433.733c2.529-1.033,7.786-2.8,11.9-1.619,5.621,1.611,16.258,5.755,16.258,5.755Z" transform="translate(-805.251 -1030.186)" fill="#ffa88a"/>
            </g>
          </g>
          <g id="Grupo_983811" data-name="Grupo 983811" transform="translate(171.944 259.087)">
            <g id="Grupo_983810" data-name="Grupo 983810" clip-path="url(#clip-path-4)">
              <path id="Trazado_210117" data-name="Trazado 210117" d="M1074.061,1304.724s9.231-5.382,15.9-1.545Z" transform="translate(-1070.616 -1299.281)"/>
            </g>
          </g>
          <g id="Grupo_983813" data-name="Grupo 983813" transform="translate(0.001)">
            <g id="Grupo_983812" data-name="Grupo 983812" clip-path="url(#clip-path)">
              <path id="Trazado_210119" data-name="Trazado 210119" d="M1042.315,1304.947s-11.6-4.968-20.275,3.866a1.43,1.43,0,0,0,.128,2.127l.023.019a2.755,2.755,0,0,0,3.2.141c2.427-1.568,7.343-4.028,12.52-2.469a112.307,112.307,0,0,0,12.977,3.119Z" transform="translate(-849.07 -1041.598)" fill="#ffa88a"/>
            </g>
          </g>
          <g id="Grupo_983815" data-name="Grupo 983815" transform="translate(172.557 261.957)">
            <g id="Grupo_983814" data-name="Grupo 983814" clip-path="url(#clip-path-6)">
              <path id="Trazado_210120" data-name="Trazado 210120" d="M1077.329,1321.711c-7.4-3.41-12.144,1.409-12.144,1.409Z" transform="translate(-1056.819 -1317.087)"/>
            </g>
          </g>
          <g id="Grupo_983817" data-name="Grupo 983817" transform="translate(0.001)">
            <g id="Grupo_983816" data-name="Grupo 983816" clip-path="url(#clip-path)">
              <path id="Trazado_210122" data-name="Trazado 210122" d="M1013.542,1324.559s-11.938-1.435-15.139,10.254a1.122,1.122,0,0,0,1.112,1.414,3.063,3.063,0,0,0,2.5-1.421c1.576-2.469,5.536-7.311,11.9-6.366,8.477,1.258,12.389,1.549,12.389,1.549l-2.134-4.839Z" transform="translate(-819.812 -1058.337)" fill="#ffa88a"/>
            </g>
          </g>
          <g id="Grupo_983819" data-name="Grupo 983819" transform="translate(178.552 266.167)">
            <g id="Grupo_983818" data-name="Grupo 983818" clip-path="url(#clip-path-8)">
              <path id="Trazado_210123" data-name="Trazado 210123" d="M1059.281,1344.316s2.6-7.545,10.649-6.267c0,0-8.232,1.795-10.649,6.267" transform="translate(-1054.229 -1335.21)"/>
            </g>
          </g>
          <g id="Grupo_983821" data-name="Grupo 983821" transform="translate(0.001)">
            <g id="Grupo_983820" data-name="Grupo 983820" clip-path="url(#clip-path)">
              <path id="Trazado_210125" data-name="Trazado 210125" d="M959.069,1346.165a2.656,2.656,0,0,0,.487.044,2.7,2.7,0,0,0,2.062-.955c1.571-1.864,4.814-5.162,7.585-4.435,2.314.606,2.963,2.278,5.844,3.7,1.878.922,4.7,1.741,9.554,2.084,1.765.125,3.318.2,4.659.23-.531-5.808-3.271-10.321-6.662-10.812l-1.561.06-12.232.469a12.537,12.537,0,0,0-10.7,7.859,1.294,1.294,0,0,0,.969,1.757" transform="translate(-774.654 -1067.538)" fill="#ffa88a"/>
              <path id="Trazado_210126" data-name="Trazado 210126" d="M958,1344.34c1.878.923,4.7,1.741,9.554,2.084,1.765.125,3.318.2,4.659.23-.531-5.808-3.271-10.321-6.662-10.812a4.172,4.172,0,0,0-.614-.045,4.382,4.382,0,0,0-.947.1c-2.777.624-5.069,3.956-5.989,8.437" transform="translate(-757.611 -1067.361)" fill="#ffa88a"/>
              <path id="Trazado_210127" data-name="Trazado 210127" d="M1157.727,1296.958a1.1,1.1,0,0,0-.064-.89c.12-.051.246-.1.376-.151a1.483,1.483,0,0,1,.066,1.186c-.3.762-1.283,1.3-2.916,1.592l-.022,0a1.839,1.839,0,0,1,.005-.411c1.8-.334,2.386-.905,2.555-1.328" transform="translate(-983.214 -1035.494)"/>
              <path id="Trazado_210128" data-name="Trazado 210128" d="M1153.775,1323.9a1.422,1.422,0,0,1,.112-.414c.385.333,1,0,1.464-.358.484-.371.732-.722.717-1.013a.609.609,0,0,0-.274-.438.194.194,0,0,1-.051-.047c.107-.087.215-.172.323-.255a.984.984,0,0,1,.4.712c.026.438-.268.9-.874,1.361a2.283,2.283,0,0,1-1.334.579.96.96,0,0,1-.488-.127" transform="translate(-981.208 -1055.838)"/>
              <path id="Trazado_210129" data-name="Trazado 210129" d="M1129.441,1367.9a.829.829,0,0,0,.27-.006c.385-.075.675-.424.837-1.008a1.131,1.131,0,0,0-.046-.9.833.833,0,0,0-.466-.35c.05-.127.1-.252.152-.375a1.231,1.231,0,0,1,.656.51,1.507,1.507,0,0,1,.092,1.221c-.261.938-.769,1.223-1.149,1.3a1.293,1.293,0,0,1-.17.019,1.114,1.114,0,0,1-.177-.41" transform="translate(-950.866 -1090.907)"/>
              <path id="Trazado_210130" data-name="Trazado 210130" d="M1105.2,1370.224c.321-.087.584-.408.782-.954a1.281,1.281,0,0,0,.042-1,.706.706,0,0,0-.352-.335c.068-.118.135-.235.206-.348a1.111,1.111,0,0,1,.5.5,1.647,1.647,0,0,1-.02,1.322,1.715,1.715,0,0,1-1.055,1.206,1.107,1.107,0,0,1-.293.039,1.233,1.233,0,0,1-.158-.012,1.293,1.293,0,0,1-.11-.435.82.82,0,0,0,.454.018" transform="translate(-921.39 -1092.765)"/>
              <path id="Trazado_210131" data-name="Trazado 210131" d="M1599.668,926.9a.825.825,0,0,1-1.143-.235l-14.152-21.49q.5-.728,1.04-1.42l14.49,22a.825.825,0,0,1-.235,1.143" transform="translate(-1511.307 -722.142)" fill="#fff"/>
            </g>
          </g>
        </g>
      </g>
    </g>
  </g>
</svg>
