<svg xmlns="http://www.w3.org/2000/svg" xmlns:xlink="http://www.w3.org/1999/xlink" width="822" height="1016.704" viewBox="0 0 822 1016.704">
  <defs>
    <clipPath id="clip-path">
      <path id="Trazado_182347" data-name="Trazado 182347" d="M11.552,0h798.9C816.828,0,822,10.756,822,24.024V922.169c0,13.269-5.172,24.024-11.553,24.024H11.552C5.172,946.193,0,935.438,0,922.169V24.024C0,10.756,5.172,0,11.552,0Z" fill="none"/>
    </clipPath>
  </defs>
  <g id="Grupo_174908" data-name="Grupo 174908" transform="translate(-180 -5672.489)">
    <path id="Trazado_173387" data-name="Trazado 173387" d="M11.552,0h798.9C816.828,0,822,11.558,822,25.815V990.889c0,14.257-5.172,25.815-11.553,25.815H11.552C5.172,1016.7,0,1005.147,0,990.889V25.815C0,11.558,5.172,0,11.552,0Z" transform="translate(180 5672.489)" fill="#fff0f1"/>
    <g id="Enmascarar_grupo_299" data-name="Enmascarar grupo 299" transform="translate(180 5743)" clip-path="url(#clip-path)">
      <g id="Grupo_173953" data-name="Grupo 173953" transform="translate(-11.508 496.159)">
        <path id="Trazado_178656" data-name="Trazado 178656" d="M1212.872,1983.69c-33.48,39.96-60.926,91.817-96.909,126.207-49.424,47.237-109.788,56.832-167.858,60.92s-117.644,4.261-172.007,36.039c-43.447,25.4-83.49,76.583-99.818,141.81H787.812c24.853-59.708,62.386-107.041,106.14-129.149,87.349-44.135,188.929,6.168,271.221-57.015,58.295-44.758,97.688-140.75,160.1-169.372,45.157-20.706,94.848-1.129,135.277,36.191,17.661,16.3,33.878,35.714,49.237,56.818V1946.055C1417.043,1872.188,1295.953,1884.525,1212.872,1983.69Z" transform="translate(-676.28 -1898.632)" fill="#ff9fa3"/>
        <path id="Trazado_178657" data-name="Trazado 178657" d="M1289.656,1945.007c-62.413,28.62-101.806,124.613-160.1,169.371-82.292,63.183-183.872,12.881-271.221,57.015-43.754,22.108-81.287,69.442-106.14,129.148H1474.17V2038.015c-15.359-21.1-31.576-40.515-49.237-56.818C1384.5,1943.878,1334.813,1924.3,1289.656,1945.007Z" transform="translate(-640.662 -1850.509)" fill="#ff9fa3" opacity="0.614"/>
      </g>
    </g>
  </g>
</svg>
